<svg xmlns="http://www.w3.org/2000/svg" xmlns:xlink="http://www.w3.org/1999/xlink" viewBox="0 0 682.89 1462.54">
  <defs>
    <style>
      .cls-1 {
        fill: none;
      }

      .cls-2 {
        clip-path: url(#clip-path);
      }

      .cls-3 {
        fill: #fce3c3;
      }

      .cls-4 {
        fill: #3a1010;
      }

      .cls-5 {
        fill: #ffcfca;
      }

      .cls-6, .cls-7 {
        fill: #f9bfbb;
      }

      .cls-7 {
        opacity: 0.3;
      }

      .cls-8 {
        fill: #f7b2b0;
      }

      .cls-9 {
        fill: #603813;
      }

      .cls-10 {
        fill: #562f0f;
      }

      .cls-11 {
        fill: #534741;
      }

      .cls-12 {
        fill: #397272;
      }

      .cls-13 {
        fill: #306664;
      }

      .cls-14 {
        fill: #211a17;
      }

      .cls-15 {
        fill: #ce7872;
      }

      .cls-16 {
        fill: #fff;
      }

      .cls-17 {
        fill: #ea8c8b;
      }

      .cls-18 {
        fill: #fbb03b;
      }
    </style>
    <clipPath id="clip-path" transform="translate(112.98)">
      <circle id="SVGID" class="cls-1" cx="243.18" cy="243.23" r="226.65"/>
    </clipPath>
  </defs>
  <g id="레이어_2" data-name="레이어 2">
    <g id="Layer_1" data-name="Layer 1">
      <g>
        <g class="cls-2">
          <circle class="cls-3" cx="356.16" cy="243.23" r="226.65"/>
          <g>
            <path class="cls-4" d="M543,1433.68a9,9,0,0,0-1.73-3.19c-3.31-4-9.59-5.19-14-7.32l-4.52-2.15-18.86-9-34.07-17.45-37.81-21.9-56.2,5.81-7.59,21.82c-2.34,6.4-3.41,11.08-5.73,17.48-1.26,3.48-2.57,7.11-2.7,10.79a13.39,13.39,0,0,0,.11,2.75,17.43,17.43,0,0,0,2.92,7.34,22.55,22.55,0,0,0,9.9,8.17c5.1,2.13,10.77,2.31,16.29,2.46,34.66.86,69.31,1.78,104,1,12.11-.27,24.94.36,36.87-2C537.31,1446.85,545.79,1442.82,543,1433.68Z" transform="translate(112.98)"/>
            <path class="cls-4" d="M125.79,1458.41c3.32,2.36,7.31,3.48,11.51,4.13h79.1c4.2-.65,8.19-1.77,11.52-4.13a20.07,20.07,0,0,0,7.72-12.74,23,23,0,0,0-.28-9.85,20.4,20.4,0,0,0-1.12-3.39c-1.72-4.31-4.52-4.26-7.09-7.92-4.42-6.31-6.86-14.68-10.76-20.19l-10.94-15.9h-57.2l-10.94,15.9c-3.9,5.51-6.34,13.88-10.76,20.19-2.57,3.66-5.37,3.61-7.09,7.92a21.36,21.36,0,0,0-1.12,3.39,23,23,0,0,0-.28,9.85A20,20,0,0,0,125.79,1458.41Z" transform="translate(112.98)"/>
            <g>
              <path class="cls-5" d="M530.11,769.77a130.09,130.09,0,0,0,8.52-11.68h0c.22-.31.42-.62.62-1q3.19-5,5.93-10.28l-1.54-2.66c-2.32-4.07-4.52-8.22-6.69-12.4-.6,1.94-1.07,3.79-1.35,4.55q-1.46,3.79-3.12,7.49a145.89,145.89,0,0,1-8.23,15.72c-1.46,2.41-3,5-3,7.79a5.09,5.09,0,0,0,.26,1.59,5.86,5.86,0,0,0,1.67,2.63l.18.16a4.28,4.28,0,0,0,.38.26,3.54,3.54,0,0,0,2.74.58,3,3,0,0,0,.43-.12h0a6.29,6.29,0,0,0,2.45-1.8C529.63,770.36,529.88,770.06,530.11,769.77Z" transform="translate(112.98)"/>
              <path class="cls-6" d="M523.74,772a4.28,4.28,0,0,1-.38-.26l-.18-.16a5.86,5.86,0,0,1-1.67-2.63c.49-.7,1-1.42,1.46-2.13l9.29-13.67c.7-1,2.15-4.44,3.64-4.43,2.31,0,2,4,1.45,5.28a12.56,12.56,0,0,1-1.34,2.33C532.28,761.81,528.49,767.36,523.74,772Z" transform="translate(112.98)"/>
              <path class="cls-5" d="M530.7,778.86c.61-.75,1.21-1.51,1.81-2.27,1.21-1.54,2.39-3.12,3.53-4.72,2-2.75,3.82-5.57,5.55-8.47,1.36-2.24,2.65-4.53,3.87-6.85.86-1.64,1.67-3.3,2.47-5-1.43-2.46-2.87-4.92-4.28-7.39s-2.9-5.21-4.3-7.85c-1.48,2.5-2.62,7.69-3.16,9.08q-.53,1.38-1.08,2.76a146.47,146.47,0,0,1-10.26,20.46c-.58,1-1.17,1.91-1.67,2.92a10.42,10.42,0,0,0-1.35,4.86c0,2.83,2.47,5.81,5.24,5.23a5.67,5.67,0,0,0,2.88-1.92Q530.34,779.3,530.7,778.86Z" transform="translate(112.98)"/>
              <path class="cls-6" d="M532.51,776.59a62.1,62.1,0,0,1,1.88-7.84c2.05-6.47,5.47-12.5,7.11-19.1l0,.88a.82.82,0,0,1,.47-.19,1.9,1.9,0,0,1,1.48,1.06,15.64,15.64,0,0,1,2.06,5.15c-1.22,2.32-2.51,4.61-3.87,6.85-1.73,2.9-3.59,5.72-5.55,8.47C534.9,773.47,533.72,775.05,532.51,776.59Z" transform="translate(112.98)"/>
              <path class="cls-5" d="M541,791.66c.33-.54.62-1.11.9-1.68a88,88,0,0,0,4.78-11.8,159.86,159.86,0,0,0,4.64-18.31c.12-.6.23-1.2.34-1.8q-4.07-6.93-8.05-13.88c-1.34-2.36-2.64-4.74-3.92-7.13a6.15,6.15,0,0,0-.49,1.2,19.18,19.18,0,0,0-.27,6.33,84.28,84.28,0,0,1-.14,11.46c-.05.67-.11,1.36-.19,2h0a84.15,84.15,0,0,1-2.22,12.42c-.12.45-.24.9-.37,1.36-1.5,5.52-3.38,11-3.27,16.73.06,2.41.88,5.31,3.22,5.89a4.21,4.21,0,0,0,3.71-1.16A8,8,0,0,0,541,791.66Z" transform="translate(112.98)"/>
              <path class="cls-7" d="M551.7,758.07q-4.07-6.93-8.05-13.88c-2.32-4.07-4.52-8.22-6.69-12.4-.6,1.94-1.07,3.79-1.35,4.55-.59,1.54-1.22,3.06-1.86,4.58,3.53,6.28,5.82,13.41,7.93,20.17,1.3,4.17,2.43,8.39,3.45,12.63.52,1.49,1,3,1.59,4.46a159.86,159.86,0,0,0,4.64-18.31C551.48,759.27,551.59,758.67,551.7,758.07Z" transform="translate(112.98)"/>
              <path class="cls-5" d="M569.54,783.6q-8.34-20.9-16.69-41.8c-5.34-13.37-10-24.88-17-37.47-2.89-5.17-6.82-11.94-10.08-17.08L478.84,601l-29.67-54.57c-6.5-11.94-13-23.93-18-36.6-6.13-15.69-9.78-32.24-13.1-48.76-2.44-12.16-4.73-24.37-7.18-36.54-7.13,3.17-14.25,6.37-21.32,9.67-15.19,7.07-30.29,14.45-45.55,21.43,11.56,33.74,24.19,67,41.6,98.06,31.1,55.53,77.19,99.27,114.77,150.64,1.36,1.86.76,7.45.89,9.82.41,7.68-.23,15.36.71,23a107.75,107.75,0,0,0,5.35,22.74c1.18,3.33,4.39,6.39,7.8,3.4a4.12,4.12,0,0,0,.87-.73c3.36-3.57,3.38-8.47,3.16-13.07-.23-5.24,0-10.21,2.32-15a4.71,4.71,0,0,1,3.09-2.81,5.1,5.1,0,0,1,2.58.32,14.27,14.27,0,0,1,6.63,4.85,24.89,24.89,0,0,1,2.41,3.66c.69,1.22,1.31,2.5,1.91,3.78.74,1.6,1.44,3.19,2.18,4.71l.45.92.41.82,2.7,5.35q2.45,4.86,4.9,9.72l4.27,8.48c2.5,5,5.18,10.49,9.64,14C566.05,790.89,571.37,788.19,569.54,783.6Z" transform="translate(112.98)"/>
            </g>
            <g>
              <path class="cls-8" d="M-86.57,713.41a61.21,61.21,0,0,0-1.49,6.15c-1.11,5.54-2,11.13-3.15,16.67a24.1,24.1,0,0,1-2.26,6.95A9,9,0,0,1-99,747.72a5.77,5.77,0,0,1-6.38-2.61c-1-1.93-.47-4.23.06-6.32l2.1-8.2c.94-3.7,1.88-7.39,3-11,2.27-7.4,5.46-14.91,11.53-19.8,1.92-1.55,10.22-4.78,9,.67-.45,2.11-2.69,4.08-3.77,5.93A34.48,34.48,0,0,0-86.57,713.41Z" transform="translate(112.98)"/>
              <path class="cls-6" d="M-91.75,716a59.21,59.21,0,0,0-1.49,6.15c-1.11,5.55-2,11.13-3.16,16.67a23.78,23.78,0,0,1-2.25,7,9,9,0,0,1-5.55,4.54,5.75,5.75,0,0,1-6.38-2.61c-1-1.93-.46-4.23.07-6.31l2.09-8.21c.94-3.69,1.89-7.39,3-11,2.26-7.4,5.46-14.91,11.52-19.8,1.93-1.55,10.22-4.78,9,.68-.46,2.1-2.69,4.07-3.77,5.93A34.4,34.4,0,0,0-91.75,716Z" transform="translate(112.98)"/>
              <path class="cls-5" d="M152.44,338.49C102.55,338.48,54.78,496,53.56,498,52.52,499.79-46.71,645.89-47,646.24c0,0-33.68,33.88-41.91,44.08-5.55,6.91-11.35,14-14.89,22.2-3.77,8.65-6.07,17.76-8.53,26.83a11.5,11.5,0,0,0-.6,4.34c.32,2.63,3.2,4.91,5.84,3.72,5.73-2.57,7.71-10.09,9.38-15.55,1.56-5.08,2.84-10.3,5.24-15.07s5.9-8.14,10.11-11.26c3-2.26,6-4.61,9-6.8a29.77,29.77,0,0,1,3.71-2.35A10.59,10.59,0,0,1-64,695c1.65.13,4,.92,5,2.38s-.11,3.45-.77,4.92a24.25,24.25,0,0,1-3.17,4.81c-2,2.55-4.44,5.06-5.68,8.12a13.66,13.66,0,0,0-.54,1.6c-1.51,5.84,2.91,14.27,9.44,9a22.6,22.6,0,0,0,3.6-4c5.27-6.77,12-12.45,16-20.1a145.36,145.36,0,0,0,6.44-15.1c3.66-9.54,5.25-15.29,5.94-19.86v0l.11-.17c.78-.62,91.13-81.61,144.38-154.2,12.47-17,43.05-83.91,57.85-132.47C177.66,369.88,161.74,348.15,152.44,338.49Z" transform="translate(112.98)"/>
              <path class="cls-6" d="M-69.6,696.38a36.8,36.8,0,0,1,3-2.48,13,13,0,0,1,6.23-2.84,6.08,6.08,0,0,1,6,2.69,6.75,6.75,0,0,1,0,5.58c-1.67,4.39-5.58,7.5-9.13,10.63a31.1,31.1,0,0,0-5,5.3c1.24-3.06,3.63-5.57,5.68-8.13a23,23,0,0,0,3.16-4.8c.68-1.47,1.83-3.34.78-4.92s-3.38-2.25-5-2.39A10.73,10.73,0,0,0-69.6,696.38Z" transform="translate(112.98)"/>
              <path class="cls-6" d="M-24.56,664c-1.23,1.07-2.28,2-3.06,2.58l-.11.18v0a13.54,13.54,0,0,0-7-6A19.73,19.73,0,0,1-24.56,664Z" transform="translate(112.98)"/>
            </g>
            <path class="cls-9" d="M451.54,1374.94l-85.83,15c-25.88-119-66.91-284.82-80.12-379.26-1.39-9.88-2.47-19-3.19-27.15-12.66-36.81-23.18-75.42-48.87-164q-2.72-9.32-5.64-19.38c-20.26-69.56-20.2-88.5-19.42-144.54,39.11-13.84,98.13-23.56,148.36-29.46,15.57,38,48.86,327.19,53.12,357.63C426.76,1104.19,429.42,1188.24,451.54,1374.94Z" transform="translate(112.98)"/>
            <path class="cls-10" d="M299.11,934c-1.11,14.17-2.76,28.29-4.65,42.37-1.27,9.46-1.26,21.49-5.93,30.13a21.47,21.47,0,0,1-2.94,4.19c-1.39-9.88-2.47-19-3.19-27.15-12.66-36.81-23.18-75.42-48.87-164C243.91,800.66,254.89,782,265,762.93c23.88,35.68,33.84,79.23,35.37,122.13A432.5,432.5,0,0,1,299.11,934Z" transform="translate(112.98)"/>
            <path class="cls-9" d="M300.63,648.26c-50.19-6.17-109.84-10.72-151.12-6.53-14,54.25-18.58,72.64-15.38,145,4.72,106.67,5.69,149.58,9.51,191-13,83.65-5.56,246.52-9.75,413.08l88.48,4.42c22.75-186.62,32.94-266.11,45.12-387C270.57,977.7,306.76,688.84,300.63,648.26Z" transform="translate(112.98)"/>
            <path class="cls-5" d="M224.35,226.19c15.08,7.7,30.44,14.83,45.9,21.75,4.66,2.08,9.36,4.17,14.34,5.22l1,28.22.89,24.18a19,19,0,0,1-2.89,1.52,31.26,31.26,0,0,1-59.1-2.71l-.86-.27c0-1.22,0-2.44,0-3.66a31.42,31.42,0,0,1,0-9.35l0-6.32a240.42,240.42,0,0,0-.91-24.16c-.26-2.45-.58-4.91-1-7.34-.94-6.07-2.23-12.09-3.51-18.12-1.06-4.94-2.11-9.9-3.17-14.84C218,223,220.77,224.36,224.35,226.19Z" transform="translate(112.98)"/>
            <path class="cls-11" d="M315.74,177.61a83.87,83.87,0,0,1-24.16,52.5,66.4,66.4,0,0,1-22.33,14.83,70.23,70.23,0,0,1-29.11,4.18,48.73,48.73,0,0,1-17-3.51c-6.41-2.78-11.77-7.5-16.76-12.4-8.53-8.36-16.39-17.53-22.23-28s-9.58-22.19-9.54-34.13a30.88,30.88,0,0,1,2-11.91c2.09-5,6-9,10-12.6,13.18-12,28.65-21.86,45.84-26.62,17.78-4.93,36.56-4.27,55-3.57,4.66.18,8.92,1.09,12.67,4,3.06,2.4,4.74,6.45,6.42,9.86a92.69,92.69,0,0,1,8.89,30A87.09,87.09,0,0,1,315.74,177.61Z" transform="translate(112.98)"/>
            <path class="cls-6" d="M285.63,281.38a173.76,173.76,0,0,1-49.22-19c-4.86-2.82-9.89-5.83-14.7-9.1-.94-6.07-2.23-12.09-3.51-18.12-1.06-4.94-2.11-9.9-3.17-14.84,3,2.68,5.74,4.05,9.32,5.88,15.08,7.7,30.44,14.83,45.9,21.75,4.66,2.08,9.36,4.17,14.34,5.22Z" transform="translate(112.98)"/>
            <path class="cls-5" d="M313.68,168.39a124.53,124.53,0,0,0-3.93-12.84,69.08,69.08,0,0,0-25.6-33.37c-22.81-15.39-54.67-11.62-73.06,8.65A57.38,57.38,0,0,0,200.69,147c-6.19,14.51-6.51,30.12-3.14,45.15a117.86,117.86,0,0,0,16,37.4,96.76,96.76,0,0,0,15.71,19,71,71,0,0,0,11.46,8.59A56.69,56.69,0,0,0,268,265.68a44.8,44.8,0,0,0,25-6.61c8.31-5.18,13.34-13.17,16.94-21.93C318.77,215.56,319.3,191,313.68,168.39Z" transform="translate(112.98)"/>
            <path class="cls-5" d="M217.6,225a26.86,26.86,0,0,1-26.5-1.64,26.42,26.42,0,0,1-11.36-19.67,25.38,25.38,0,0,1,0-4.27,19.13,19.13,0,0,1,2.08-7.17,16.46,16.46,0,0,1,15.53-8.13A19,19,0,0,1,212.17,194l2.09,11.91Z" transform="translate(112.98)"/>
            <path class="cls-11" d="M243.61,151.94c13.93-2.63,27.89-5.73,41.08-10.67,10.72-4,22.58-11.72,25.45-23.31,3.59-14.5-8.6-25.63-20.73-31.31-23.7-11.1-53-9.14-74.62,5.81a71.28,71.28,0,0,0-27.55,37.66c-2.6,8.65-3.68,21.72,6.5,25.74,11.84,4.66,26.47.29,38.47-1.85C236,153.34,239.8,152.66,243.61,151.94Z" transform="translate(112.98)"/>
            <path class="cls-11" d="M163.62,155c1.21-9,5.18-17.26,12.49-21.91,10.61-6.76,26.66-4.86,33.11,6.69,4.21,7.55,4.28,17.16,3.14,25.5a28.52,28.52,0,0,1-3.66,11.19c-1.4,2.26-6.13,8.13-9.3,7.66-1.06-.15-2.16-.29-3.06-.37l-.55,0a17.81,17.81,0,0,0-9.06,2.45,13.47,13.47,0,0,0-5,4.62c-4,4.35-10-3.16-12.08-6.33C164.52,176.78,162.21,165.41,163.62,155Z" transform="translate(112.98)"/>
            <path class="cls-12" d="M370.87,481l-.38.17c3.82,63.81,6.05,191.06,10.93,244.78-74.47-4.59-184.71-.41-250.19-8.38-1.77-32.74,0-110.16,9-212.6q1.32-15.09,3.07-30.95c0-.33.07-.66.11-1l-.13-.09c-9.71-6.63-20.53-12.59-31.38-18.45-15.1-8.16-30.27-16.11-42.6-25.37-1.08-.81,14.32-27.26,15-28.65,21-43.78,57.32-90.18,107.3-100.89,2.93-.63,31.67-3.91,31.73-5.21,0,.44,0,.87,0,1.3a31.26,31.26,0,1,0,62.51,0c0-.41,0-.83,0-1.24a157.54,157.54,0,0,1,114.29,92.19q2.7,6.17,5,12.47c6.5,17.46,11.54,35.4,17,53.2a227.26,227.26,0,0,1-21.36,13.87A275.5,275.5,0,0,1,370.87,481Z" transform="translate(112.98)"/>
            <path class="cls-13" d="M370.05,422.3c1.15,19.53-.24,39.13.82,58.65a277.33,277.33,0,0,0,29.85-14.84,77.39,77.39,0,0,1-11.79-16c-7.7-14-10.88-29.87-15.13-45.24s-9.77-30-21.27-41.05C364.48,380.61,368.83,401.71,370.05,422.3Z" transform="translate(112.98)"/>
            <g>
              <g>
                <path class="cls-14" d="M251.75,165.15a20,20,0,0,1,3.71.07l6.56.53c.73.06,1.63,0,2-.63a1.28,1.28,0,0,0,0-1.05c-.53-1.26-2.09-1.69-3.44-1.86a19.67,19.67,0,0,0-10.08,1.14c-.62.26-4.14,1.87-3.89,2.69S251,165.22,251.75,165.15Z" transform="translate(112.98)"/>
                <path class="cls-14" d="M299.45,163.66a21,21,0,0,0-3.7.35l-6.5,1c-.72.11-1.63.14-2-.49a1.3,1.3,0,0,1-.05-1c.44-1.3,2-1.84,3.3-2.11a19.66,19.66,0,0,1,10.13.39c.64.22,4.27,1.56,4.08,2.4S300.16,163.69,299.45,163.66Z" transform="translate(112.98)"/>
                <g>
                  <path class="cls-15" d="M295.56,221.19c-2.45,6.38-7,10.78-12.43,11.23-5.27.44-10.27-2.89-13.73-8.41a32.39,32.39,0,0,1-4.54-14l1-.08,30.47-2.51,1.13-.1A32.68,32.68,0,0,1,295.56,221.19Z" transform="translate(112.98)"/>
                  <path class="cls-16" d="M296.36,207.46A18.82,18.82,0,0,1,265.89,210Z" transform="translate(112.98)"/>
                  <path class="cls-17" d="M295.56,221.19c-2.45,6.38-7,10.78-12.43,11.23-5.27.44-10.27-2.89-13.73-8.41a33.67,33.67,0,0,1,4.67-2.57,26.79,26.79,0,0,1,15-2.18A26.1,26.1,0,0,1,295.56,221.19Z" transform="translate(112.98)"/>
                </g>
                <g>
                  <path class="cls-14" d="M263.82,184.87c.12,4.16-2.15,7.59-5.08,7.68s-5.41-3.2-5.54-7.36,2.15-7.59,5.08-7.67S263.69,180.72,263.82,184.87Z" transform="translate(112.98)"/>
                  <path class="cls-16" d="M260,182.47a1.33,1.33,0,0,0,.08,2.65A1.33,1.33,0,0,0,260,182.47Z" transform="translate(112.98)"/>
                </g>
                <g>
                  <path class="cls-14" d="M292.12,184c.12,4.15,2.6,7.45,5.53,7.36s5.21-3.53,5.08-7.68-2.6-7.44-5.53-7.36S292,179.87,292.12,184Z" transform="translate(112.98)"/>
                  <path class="cls-16" d="M299,180.5a1.33,1.33,0,0,0,.08,2.66A1.33,1.33,0,0,0,299,180.5Z" transform="translate(112.98)"/>
                </g>
                <path class="cls-15" d="M283.05,193.36a4.86,4.86,0,0,0-6.05.16l4.73,8.18a3.62,3.62,0,0,0,2.89-2.41A5.27,5.27,0,0,0,283.05,193.36Z" transform="translate(112.98)"/>
              </g>
              <g>
                <path class="cls-6" d="M241.27,193.81c-7.8.54-13.76,6.12-13.33,12.46s7.12,11,14.92,10.49,13.77-6.11,13.33-12.45S249.07,193.27,241.27,193.81Z" transform="translate(112.98)"/>
                <path class="cls-6" d="M316.35,197.66c-.24-3.56-4-6.19-8.37-5.89s-7.72,3.43-7.48,7,4,6.19,8.38,5.89S316.6,201.22,316.35,197.66Z" transform="translate(112.98)"/>
              </g>
            </g>
            <path class="cls-13" d="M155.27,396.21a513.23,513.23,0,0,0-12,76.68c-9.71-6.63-20.53-12.59-31.38-18.45,3.22-2.25,6.35-4.61,9.38-7.12,10.85-9,20.3-20,25.82-33C149.8,408,151,401.63,155.27,396.21Z" transform="translate(112.98)"/>
          </g>
        </g>
        <path class="cls-18" d="M243.07,485.91a1.29,1.29,0,1,1,0-2.58c2.27,0,4.57,0,6.86-.1a1.27,1.27,0,0,1,1.33,1.25,1.29,1.29,0,0,1-1.25,1.33C247.69,485.88,245.36,485.91,243.07,485.91Zm-6.9-.09h0c-2.29-.07-4.62-.16-6.93-.29a1.29,1.29,0,0,1,.15-2.58c2.27.13,4.58.22,6.85.29a1.29,1.29,0,0,1,0,2.58Zm20.69-.3a1.29,1.29,0,0,1-.07-2.58c2.27-.13,4.58-.29,6.85-.49a1.29,1.29,0,0,1,.22,2.57c-2.3.2-4.63.37-6.92.5Zm-34.46-.47h-.11c-2.3-.19-4.62-.42-6.91-.68a1.29,1.29,0,0,1,.29-2.56c2.27.26,4.56.48,6.83.67a1.29,1.29,0,0,1-.1,2.58Zm48.21-.7a1.29,1.29,0,0,1-.14-2.58c2.26-.25,4.55-.55,6.81-.87a1.29,1.29,0,0,1,.36,2.55c-2.28.33-4.6.63-6.88.89Zm-61.93-.85h-.18c-2.28-.33-4.58-.69-6.85-1.08a1.29,1.29,0,1,1,.43-2.54c2.25.38,4.53.74,6.78,1.06a1.29,1.29,0,0,1-.18,2.57Zm75.59-1.11a1.29,1.29,0,0,1-.21-2.56c2.23-.38,4.5-.81,6.74-1.26a1.29,1.29,0,1,1,.51,2.53c-2.27.46-4.56.89-6.82,1.27A.78.78,0,0,1,284.27,482.39Zm-89.19-1.22-.26,0c-2.26-.45-4.54-.94-6.78-1.46a1.29,1.29,0,1,1,.59-2.51c2.21.51,4.46,1,6.7,1.44a1.29,1.29,0,0,1-.25,2.56Zm102.72-1.51a1.29,1.29,0,0,1-1.26-1,1.31,1.31,0,0,1,1-1.55c2.21-.51,4.45-1.06,6.66-1.64a1.29,1.29,0,1,1,.66,2.49c-2.24.59-4.51,1.15-6.74,1.67A1.43,1.43,0,0,1,297.8,479.66Zm-116.16-1.6a1.24,1.24,0,0,1-.33,0c-2.24-.58-4.49-1.21-6.69-1.85a1.29,1.29,0,0,1,.73-2.48c2.17.64,4.4,1.26,6.61,1.83a1.29,1.29,0,0,1,.92,1.58A1.28,1.28,0,0,1,181.64,478.06Zm129.51-1.9a1.29,1.29,0,0,1-.37-2.53c2.2-.65,4.4-1.33,6.56-2a1.29,1.29,0,1,1,.8,2.45c-2.18.71-4.41,1.4-6.63,2.05A1.13,1.13,0,0,1,311.15,476.16Zm-142.76-2a1.39,1.39,0,0,1-.4-.06c-2.19-.72-4.41-1.47-6.59-2.25a1.29,1.29,0,0,1,.87-2.43c2.15.77,4.35,1.52,6.52,2.22a1.29,1.29,0,0,1,.83,1.63A1.31,1.31,0,0,1,168.39,474.19Zm155.88-2.3a1.29,1.29,0,0,1-.43-2.51c2.13-.76,4.29-1.57,6.43-2.4a1.29,1.29,0,1,1,.93,2.41c-2.15.84-4.34,1.65-6.5,2.42A1.06,1.06,0,0,1,324.27,471.89Zm-168.92-2.35a1.27,1.27,0,0,1-.47-.09c-2.15-.83-4.32-1.71-6.45-2.61a1.29,1.29,0,0,1,1-2.38c2.1.89,4.25,1.76,6.38,2.59a1.29,1.29,0,0,1-.47,2.49Zm181.76-2.66a1.29,1.29,0,0,1-.51-2.47c2.08-.88,4.18-1.81,6.27-2.76a1.29,1.29,0,0,1,1.07,2.35c-2.11,1-4.24,1.9-6.33,2.78A1.31,1.31,0,0,1,337.11,466.88ZM142.6,464.16a1.24,1.24,0,0,1-.53-.12c-2.1-1-4.21-2-6.28-3a1.29,1.29,0,1,1,1.14-2.32c2,1,4.14,2,6.21,2.95a1.29,1.29,0,0,1-.54,2.47Zm207-3a1.29,1.29,0,0,1-.57-2.45c2-1,4.09-2,6.09-3.11a1.3,1.3,0,0,1,1.75.54,1.29,1.29,0,0,1-.54,1.74c-2,1.07-4.1,2.13-6.16,3.15A1.31,1.31,0,0,1,349.62,461.16ZM130.2,458.05a1.34,1.34,0,0,1-.61-.15c-2-1.07-4.07-2.19-6.09-3.34a1.29,1.29,0,1,1,1.27-2.24c2,1.13,4,2.24,6,3.3a1.29,1.29,0,0,1-.6,2.43Zm231.59-3.33a1.27,1.27,0,0,1-1.12-.65,1.29,1.29,0,0,1,.48-1.76c2-1.12,4-2.28,5.92-3.46a1.29,1.29,0,1,1,1.33,2.21c-2,1.19-4,2.36-6,3.5A1.28,1.28,0,0,1,361.79,454.72Zm-243.62-3.48a1.35,1.35,0,0,1-.67-.18c-2-1.19-4-2.43-5.89-3.68a1.29,1.29,0,1,1,1.39-2.17c1.93,1.24,3.89,2.46,5.83,3.64a1.29,1.29,0,0,1-.66,2.39Zm255.41-3.64a1.31,1.31,0,0,1-1.09-.59,1.29,1.29,0,0,1,.39-1.78c1.9-1.22,3.82-2.5,5.71-3.79a1.29,1.29,0,0,1,1.46,2.13c-1.91,1.3-3.85,2.59-5.77,3.83A1.29,1.29,0,0,1,373.58,447.6Zm-267-3.84a1.24,1.24,0,0,1-.73-.23c-1.89-1.29-3.8-2.64-5.67-4a1.29,1.29,0,0,1,1.51-2.09c1.86,1.35,3.75,2.68,5.62,4a1.29,1.29,0,0,1-.73,2.35ZM385,439.82a1.29,1.29,0,0,1-.76-2.33c1.84-1.35,3.69-2.73,5.49-4.12a1.29,1.29,0,0,1,1.57,2.05c-1.81,1.4-3.68,2.8-5.54,4.15A1.28,1.28,0,0,1,385,439.82ZM95.38,435.63a1.29,1.29,0,0,1-.79-.26c-1.82-1.41-3.65-2.87-5.43-4.33a1.29,1.29,0,1,1,1.63-2c1.77,1.44,3.58,2.88,5.38,4.27a1.29,1.29,0,0,1,.23,1.81A1.27,1.27,0,0,1,95.38,435.63Zm300.48-4.23a1.29,1.29,0,0,1-.81-2.29c1.76-1.45,3.53-2.93,5.24-4.42a1.29,1.29,0,1,1,1.69,1.95c-1.73,1.5-3.51,3-5.3,4.46A1.28,1.28,0,0,1,395.86,431.4ZM84.7,426.89a1.32,1.32,0,0,1-.85-.32c-1.74-1.51-3.48-3.07-5.17-4.62a1.29,1.29,0,0,1,1.74-1.9c1.67,1.54,3.4,3.08,5.12,4.57a1.29,1.29,0,0,1,.13,1.82A1.26,1.26,0,0,1,84.7,426.89Zm321.59-4.53a1.29,1.29,0,0,1-.88-2.24c1.68-1.53,3.36-3.12,5-4.71a1.3,1.3,0,0,1,1.83,0,1.28,1.28,0,0,1,0,1.82c-1.65,1.61-3.35,3.21-5,4.76A1.28,1.28,0,0,1,406.29,422.36ZM74.53,417.55a1.3,1.3,0,0,1-.9-.36c-1.64-1.6-3.29-3.25-4.9-4.9a1.29,1.29,0,1,1,1.85-1.8c1.59,1.63,3.22,3.27,4.85,4.85a1.29,1.29,0,0,1-.9,2.21Zm341.66-4.8a1.29,1.29,0,0,1-.93-2.19c1.59-1.63,3.18-3.31,4.72-5a1.29,1.29,0,0,1,1.9,1.75c-1.56,1.7-3.16,3.39-4.77,5A1.28,1.28,0,0,1,416.19,412.75ZM64.91,407.66a1.3,1.3,0,0,1-.95-.42c-1.54-1.68-3.1-3.42-4.61-5.17a1.29,1.29,0,1,1,1.95-1.69c1.5,1.73,3,3.45,4.56,5.12a1.28,1.28,0,0,1-1,2.16Zm360.61-5.07a1.3,1.3,0,0,1-1-2.14c1.5-1.72,3-3.48,4.43-5.25a1.29,1.29,0,1,1,2,1.64c-1.45,1.78-3,3.56-4.47,5.3A1.28,1.28,0,0,1,425.52,402.59ZM55.88,397.24a1.27,1.27,0,0,1-1-.47c-1.46-1.79-2.92-3.62-4.32-5.43a1.29,1.29,0,0,1,2-1.57c1.38,1.79,2.82,3.59,4.27,5.36a1.3,1.3,0,0,1-1,2.11Zm378.39-5.33a1.27,1.27,0,0,1-.78-.27,1.29,1.29,0,0,1-.24-1.81c1.39-1.8,2.78-3.64,4.13-5.49a1.29,1.29,0,1,1,2.08,1.52c-1.36,1.86-2.76,3.73-4.16,5.55A1.3,1.3,0,0,1,434.27,391.91ZM47.45,386.33a1.27,1.27,0,0,1-1-.53c-1.35-1.85-2.69-3.75-4-5.66a1.29,1.29,0,0,1,2.13-1.46c1.29,1.89,2.62,3.77,4,5.6a1.29,1.29,0,0,1-1,2.05Zm395-5.59a1.28,1.28,0,0,1-1.07-2c1.29-1.88,2.57-3.81,3.81-5.73a1.29,1.29,0,0,1,2.17,1.4c-1.25,1.94-2.54,3.88-3.85,5.78A1.27,1.27,0,0,1,442.41,380.74ZM39.66,375a1.28,1.28,0,0,1-1.08-.59c-1.25-1.93-2.48-3.91-3.67-5.87a1.29,1.29,0,0,1,2.21-1.34c1.17,1.95,2.39,3.9,3.62,5.81a1.28,1.28,0,0,1-1.08,2Zm410.23-5.83a1.35,1.35,0,0,1-.67-.18,1.3,1.3,0,0,1-.43-1.78c1.18-1.95,2.35-3.94,3.47-5.93a1.29,1.29,0,0,1,2.25,1.27c-1.14,2-2.32,4-3.51,6A1.3,1.3,0,0,1,449.89,369.13ZM32.53,363.18a1.29,1.29,0,0,1-1.12-.66c-1.13-2-2.25-4-3.33-6.07a1.29,1.29,0,0,1,2.28-1.21c1.07,2,2.17,4,3.29,6a1.28,1.28,0,0,1-.48,1.76A1.33,1.33,0,0,1,32.53,363.18ZM456.7,357.1a1.19,1.19,0,0,1-.6-.15,1.29,1.29,0,0,1-.54-1.74c1.08-2,2.13-4.09,3.13-6.12a1.29,1.29,0,0,1,2.32,1.14c-1,2.06-2.08,4.14-3.16,6.19A1.31,1.31,0,0,1,456.7,357.1ZM26.09,351a1.32,1.32,0,0,1-1.16-.72c-1-2.05-2-4.15-3-6.25A1.29,1.29,0,0,1,24.31,343c1,2.07,1.94,4.15,2.94,6.18a1.3,1.3,0,0,1-.59,1.73A1.28,1.28,0,0,1,26.09,351Zm436.73-6.31a1.32,1.32,0,0,1-.54-.12,1.28,1.28,0,0,1-.63-1.71c1-2.08,1.88-4.2,2.77-6.29a1.29,1.29,0,1,1,2.38,1c-.9,2.12-1.84,4.26-2.81,6.37A1.28,1.28,0,0,1,462.82,344.7ZM20.36,338.5a1.3,1.3,0,0,1-1.19-.79c-.89-2.11-1.77-4.26-2.6-6.4a1.29,1.29,0,1,1,2.4-.94c.83,2.12,1.69,4.25,2.58,6.34a1.29,1.29,0,0,1-.69,1.69A1.24,1.24,0,0,1,20.36,338.5ZM468.21,332a1.35,1.35,0,0,1-.47-.09,1.29,1.29,0,0,1-.73-1.67c.83-2.14,1.64-4.31,2.41-6.45a1.29,1.29,0,0,1,2.43.87c-.78,2.16-1.59,4.35-2.44,6.52A1.27,1.27,0,0,1,468.21,332ZM15.35,325.67a1.3,1.3,0,0,1-1.22-.86c-.77-2.18-1.53-4.39-2.24-6.56a1.29,1.29,0,1,1,2.46-.8c.7,2.15,1.44,4.34,2.21,6.49a1.29,1.29,0,0,1-.78,1.65A1.31,1.31,0,0,1,15.35,325.67Zm457.51-6.75a1.32,1.32,0,0,1-.39-.06,1.29,1.29,0,0,1-.83-1.63c.7-2.16,1.38-4.37,2-6.56a1.29,1.29,0,0,1,2.48.73c-.65,2.21-1.34,4.44-2.05,6.63A1.3,1.3,0,0,1,472.86,318.92ZM11.08,312.55a1.29,1.29,0,0,1-1.24-.93c-.65-2.22-1.28-4.46-1.86-6.68a1.29,1.29,0,1,1,2.49-.66c.58,2.19,1.2,4.42,1.84,6.61a1.28,1.28,0,0,1-.87,1.6A1.13,1.13,0,0,1,11.08,312.55Zm465.67-6.87a1.26,1.26,0,0,1-.33-.05,1.28,1.28,0,0,1-.92-1.57c.57-2.2,1.13-4.44,1.64-6.67a1.29,1.29,0,1,1,2.51.59c-.52,2.25-1.08,4.51-1.66,6.73A1.29,1.29,0,0,1,476.75,305.68ZM7.56,299.2a1.29,1.29,0,0,1-1.25-1c-.52-2.24-1-4.53-1.47-6.78a1.29,1.29,0,1,1,2.52-.51c.45,2.23,1,4.49,1.46,6.71a1.29,1.29,0,0,1-1,1.55Zm472.3-7-.26,0a1.29,1.29,0,0,1-1-1.52c.45-2.23.87-4.5,1.26-6.75a1.29,1.29,0,1,1,2.54.44c-.39,2.27-.81,4.56-1.27,6.82A1.28,1.28,0,0,1,479.86,292.23Zm-475-6.56a1.29,1.29,0,0,1-1.27-1.07c-.4-2.28-.76-4.58-1.09-6.85A1.29,1.29,0,0,1,5,277.39c.32,2.24.68,4.52,1.07,6.78a1.3,1.3,0,0,1-1,1.49Zm477.37-7H482a1.29,1.29,0,0,1-1.09-1.46c.32-2.27.61-4.56.87-6.81a1.27,1.27,0,0,1,1.42-1.13,1.29,1.29,0,0,1,1.14,1.42c-.26,2.28-.55,4.59-.88,6.88A1.28,1.28,0,0,1,482.2,278.63ZM2.87,272a1.29,1.29,0,0,1-1.28-1.15c-.27-2.3-.5-4.62-.69-6.9a1.29,1.29,0,0,1,2.57-.22c.19,2.26.42,4.55.68,6.83A1.29,1.29,0,0,1,3,272Zm480.88-7.1h-.11a1.3,1.3,0,0,1-1.18-1.4c.2-2.28.36-4.58.49-6.84a1.31,1.31,0,0,1,1.36-1.22,1.29,1.29,0,0,1,1.21,1.36c-.13,2.29-.29,4.61-.48,6.92A1.3,1.3,0,0,1,483.75,264.92ZM1.69,258.27A1.29,1.29,0,0,1,.4,257.05c-.13-2.3-.23-4.63-.3-6.93a1.3,1.3,0,0,1,1.26-1.33h0a1.29,1.29,0,0,1,1.28,1.26c.07,2.27.17,4.58.3,6.85a1.29,1.29,0,0,1-1.22,1.36Zm482.84-7.13h0a1.29,1.29,0,0,1-1.25-1.32c.06-2.29.09-4.6.09-6.86v-.46a1.29,1.29,0,0,1,2.58,0V243c0,2.28,0,4.62-.1,6.93A1.28,1.28,0,0,1,484.53,251.14ZM1.29,244.47A1.29,1.29,0,0,1,0,243.18V243c0-2.24,0-4.49.09-6.71A1.27,1.27,0,0,1,1.42,235a1.29,1.29,0,0,1,1.25,1.33c-.06,2.19-.09,4.43-.09,6.64v.22A1.29,1.29,0,0,1,1.29,244.47Zm483.22-7.58a1.29,1.29,0,0,1-1.29-1.25c-.06-2.27-.17-4.57-.3-6.86a1.29,1.29,0,0,1,2.58-.15c.13,2.31.23,4.64.3,6.93a1.29,1.29,0,0,1-1.25,1.33ZM1.67,230.68H1.59a1.29,1.29,0,0,1-1.21-1.36c.12-2.3.29-4.63.48-6.92a1.3,1.3,0,0,1,1.39-1.18,1.29,1.29,0,0,1,1.18,1.39c-.19,2.28-.35,4.58-.48,6.85A1.28,1.28,0,0,1,1.67,230.68Zm482-7.57a1.28,1.28,0,0,1-1.28-1.17c-.2-2.28-.43-4.58-.69-6.83a1.29,1.29,0,1,1,2.56-.3c.26,2.28.5,4.6.7,6.9a1.3,1.3,0,0,1-1.18,1.4ZM2.82,216.93H2.67a1.29,1.29,0,0,1-1.13-1.43c.25-2.28.55-4.6.87-6.88A1.29,1.29,0,0,1,5,209c-.32,2.26-.61,4.55-.86,6.81A1.3,1.3,0,0,1,2.82,216.93Zm479.31-7.52a1.31,1.31,0,0,1-1.28-1.11c-.32-2.26-.69-4.54-1.07-6.78a1.28,1.28,0,0,1,1.05-1.49,1.3,1.3,0,0,1,1.49,1.05c.39,2.26.76,4.57,1.09,6.85a1.29,1.29,0,0,1-1.1,1.46ZM4.75,203.26H4.53a1.29,1.29,0,0,1-1.05-1.49c.39-2.27.81-4.57,1.26-6.82a1.29,1.29,0,0,1,2.53.5C6.83,197.68,6.4,200,6,202.19A1.29,1.29,0,0,1,4.75,203.26Zm475-7.45a1.29,1.29,0,0,1-1.26-1c-.45-2.22-.94-4.48-1.46-6.71a1.29,1.29,0,1,1,2.51-.58c.53,2.25,1,4.53,1.48,6.77a1.3,1.3,0,0,1-1,1.53ZM7.46,189.74a1,1,0,0,1-.29,0,1.3,1.3,0,0,1-1-1.54c.52-2.24,1.08-4.5,1.66-6.74a1.29,1.29,0,0,1,2.5.65c-.58,2.21-1.13,4.46-1.64,6.67A1.3,1.3,0,0,1,7.46,189.74Zm469.17-7.37a1.29,1.29,0,0,1-1.25-1c-.58-2.2-1.2-4.43-1.85-6.61a1.29,1.29,0,0,1,2.48-.73c.65,2.2,1.28,4.45,1.87,6.69a1.29,1.29,0,0,1-.92,1.57A1.24,1.24,0,0,1,476.63,182.37ZM11,176.38a1.12,1.12,0,0,1-.36,0,1.29,1.29,0,0,1-.88-1.6c.64-2.2,1.33-4.43,2-6.63a1.29,1.29,0,1,1,2.45.79c-.7,2.18-1.38,4.39-2,6.56A1.29,1.29,0,0,1,11,176.38Zm461.77-7.24a1.28,1.28,0,0,1-1.22-.89c-.71-2.16-1.46-4.35-2.23-6.49a1.29,1.29,0,1,1,2.43-.87c.78,2.16,1.54,4.37,2.25,6.56a1.28,1.28,0,0,1-.83,1.62A1.09,1.09,0,0,1,472.72,169.14ZM15.2,163.23A1.28,1.28,0,0,1,14,161.51c.77-2.17,1.59-4.37,2.42-6.52a1.29,1.29,0,0,1,2.41.93c-.83,2.13-1.64,4.3-2.4,6.45A1.3,1.3,0,0,1,15.2,163.23Zm452.86-7.08a1.29,1.29,0,0,1-1.2-.82c-.82-2.1-1.69-4.23-2.58-6.33a1.29,1.29,0,1,1,2.37-1c.9,2.12,1.78,4.28,2.61,6.4a1.28,1.28,0,0,1-.73,1.67A1.27,1.27,0,0,1,468.06,156.15ZM20.22,150.33a1.24,1.24,0,0,1-.5-.1,1.29,1.29,0,0,1-.69-1.69c.9-2.13,1.84-4.27,2.79-6.37a1.29,1.29,0,1,1,2.35,1.07c-1,2.08-1.88,4.2-2.77,6.3A1.28,1.28,0,0,1,20.22,150.33Zm442.46-6.84a1.29,1.29,0,0,1-1.17-.75c-.95-2.06-1.94-4.14-2.95-6.18a1.29,1.29,0,0,1,2.32-1.14c1,2.06,2,4.16,3,6.24a1.29,1.29,0,0,1-1.17,1.83ZM26,137.75a1.28,1.28,0,0,1-.57-.13,1.3,1.3,0,0,1-.59-1.73c1-2.08,2.08-4.16,3.16-6.19a1.29,1.29,0,0,1,2.28,1.2c-1.06,2-2.11,4.07-3.12,6.13A1.3,1.3,0,0,1,26,137.75Zm430.62-6.6a1.3,1.3,0,0,1-1.14-.68c-1.07-2-2.18-4-3.29-6a1.29,1.29,0,1,1,2.24-1.27c1.13,2,2.25,4,3.33,6.07a1.28,1.28,0,0,1-.53,1.74A1.34,1.34,0,0,1,456.58,131.15ZM32.41,125.52a1.22,1.22,0,0,1-.63-.17,1.28,1.28,0,0,1-.49-1.75c1.14-2,2.32-4,3.51-6A1.29,1.29,0,1,1,37,118.93c-1.18,1.95-2.35,3.95-3.47,5.94A1.32,1.32,0,0,1,32.41,125.52Zm417.37-6.34a1.29,1.29,0,0,1-1.1-.62c-1.18-2-2.4-3.91-3.63-5.81a1.29,1.29,0,1,1,2.16-1.4c1.25,1.92,2.48,3.9,3.68,5.87a1.29,1.29,0,0,1-.44,1.77A1.26,1.26,0,0,1,449.78,119.18ZM39.56,113.69a1.27,1.27,0,0,1-.7-.21,1.29,1.29,0,0,1-.39-1.78c1.25-1.94,2.54-3.89,3.84-5.79a1.29,1.29,0,0,1,2.13,1.46c-1.28,1.88-2.56,3.8-3.8,5.73A1.29,1.29,0,0,1,39.56,113.69Zm402.75-6.09a1.27,1.27,0,0,1-1.06-.56c-1.29-1.87-2.62-3.75-4-5.59a1.29,1.29,0,1,1,2.08-1.52c1.36,1.86,2.7,3.76,4,5.65a1.28,1.28,0,0,1-1.06,2ZM47.36,102.29a1.26,1.26,0,0,1-.76-.25,1.29,1.29,0,0,1-.29-1.8c1.36-1.87,2.76-3.74,4.17-5.56a1.29,1.29,0,0,1,2,1.58c-1.39,1.8-2.78,3.65-4.12,5.5A1.29,1.29,0,0,1,47.36,102.29Zm386.83-5.82a1.3,1.3,0,0,1-1-.5c-1.38-1.79-2.82-3.59-4.28-5.37a1.29,1.29,0,0,1,2-1.63c1.47,1.79,2.92,3.61,4.32,5.42A1.3,1.3,0,0,1,435,96.2,1.32,1.32,0,0,1,434.19,96.47ZM55.79,91.35a1.24,1.24,0,0,1-.81-.29,1.28,1.28,0,0,1-.19-1.81c1.45-1.77,3-3.56,4.47-5.31a1.29,1.29,0,0,1,2,1.69c-1.5,1.73-3,3.5-4.42,5.25A1.27,1.27,0,0,1,55.79,91.35ZM425.44,85.8a1.28,1.28,0,0,1-1-.44c-1.5-1.72-3-3.44-4.57-5.11a1.29,1.29,0,1,1,1.89-1.75c1.56,1.69,3.12,3.43,4.62,5.17a1.29,1.29,0,0,1-.12,1.82A1.31,1.31,0,0,1,425.44,85.8ZM64.83,80.92a1.28,1.28,0,0,1-.87-.34,1.29,1.29,0,0,1-.08-1.82c1.56-1.7,3.16-3.4,4.76-5.05a1.29,1.29,0,0,1,1.85,1.8c-1.58,1.63-3.16,3.31-4.71,5A1.27,1.27,0,0,1,64.83,80.92ZM416.1,75.65a1.28,1.28,0,0,1-.92-.39c-1.61-1.64-3.24-3.27-4.86-4.84a1.29,1.29,0,0,1,1.8-1.86c1.63,1.59,3.29,3.24,4.91,4.9a1.3,1.3,0,0,1,0,1.83A1.29,1.29,0,0,1,416.1,75.65ZM74.45,71a1.29,1.29,0,0,1-.9-2.21c1.64-1.6,3.34-3.21,5-4.77a1.29,1.29,0,1,1,1.75,1.9c-1.68,1.54-3.36,3.13-5,4.71A1.27,1.27,0,0,1,74.45,71ZM406.2,66a1.3,1.3,0,0,1-.87-.33c-1.67-1.54-3.4-3.07-5.13-4.57a1.29,1.29,0,1,1,1.69-2c1.75,1.51,3.49,3.07,5.18,4.61A1.29,1.29,0,0,1,406.2,66ZM84.6,61.68a1.29,1.29,0,0,1-.84-2.26c1.74-1.51,3.52-3,5.3-4.47a1.29,1.29,0,0,1,1.63,2c-1.76,1.43-3.52,2.92-5.24,4.42A1.31,1.31,0,0,1,84.6,61.68ZM395.76,57a1.32,1.32,0,0,1-.82-.29c-1.76-1.45-3.57-2.88-5.38-4.27a1.29,1.29,0,0,1,1.58-2c1.82,1.4,3.65,2.85,5.43,4.31a1.29,1.29,0,0,1,.19,1.82A1.3,1.3,0,0,1,395.76,57ZM95.27,52.94a1.27,1.27,0,0,1-1-.5,1.28,1.28,0,0,1,.23-1.81c1.82-1.4,3.68-2.8,5.54-4.16a1.29,1.29,0,0,1,1.52,2.09c-1.84,1.34-3.68,2.72-5.48,4.11A1.26,1.26,0,0,1,95.27,52.94Zm289.55-4.36a1.28,1.28,0,0,1-.76-.25c-1.83-1.33-3.72-2.66-5.61-3.95a1.3,1.3,0,0,1-.34-1.8,1.29,1.29,0,0,1,1.79-.33c1.92,1.3,3.83,2.65,5.68,4a1.29,1.29,0,0,1-.76,2.33ZM106.41,44.83a1.29,1.29,0,0,1-.73-2.36c1.89-1.3,3.83-2.59,5.76-3.83a1.29,1.29,0,1,1,1.4,2.16c-1.91,1.24-3.83,2.51-5.7,3.8A1.34,1.34,0,0,1,106.41,44.83Zm267-4a1.29,1.29,0,0,1-.7-.2c-1.93-1.24-3.89-2.46-5.83-3.63a1.29,1.29,0,1,1,1.33-2.21c2,1.18,3.94,2.41,5.89,3.67a1.29,1.29,0,0,1-.69,2.37ZM118,37.36a1.29,1.29,0,0,1-.67-2.39c2-1.19,4-2.37,6-3.51a1.29,1.29,0,1,1,1.27,2.25c-2,1.12-4,2.29-5.91,3.46A1.25,1.25,0,0,1,118,37.36Zm243.59-3.71a1.29,1.29,0,0,1-.63-.17c-2-1.12-4-2.23-6-3.29a1.29,1.29,0,1,1,1.21-2.28c2,1.07,4.09,2.19,6.09,3.32a1.29,1.29,0,0,1-.63,2.42ZM130,30.57a1.29,1.29,0,0,1-.6-2.43c2-1.09,4.12-2.15,6.16-3.16a1.29,1.29,0,1,1,1.14,2.32c-2,1-4.07,2-6.09,3.12A1.31,1.31,0,0,1,130,30.57ZM349.35,27.2a1.31,1.31,0,0,1-.57-.13c-2.06-1-4.15-2-6.21-2.95a1.29,1.29,0,1,1,1.07-2.34c2.08.95,4.2,1.95,6.28,3a1.29,1.29,0,0,1-.57,2.45Zm-207-2.73a1.29,1.29,0,0,1-.54-2.46c2.09-1,4.22-1.9,6.32-2.79a1.29,1.29,0,1,1,1,2.37c-2.08.88-4.18,1.81-6.26,2.76A1.24,1.24,0,0,1,142.31,24.47Zm194.45-3a1.31,1.31,0,0,1-.5-.1c-2.11-.89-4.26-1.76-6.38-2.58a1.29,1.29,0,0,1,.94-2.41c2.14.83,4.31,1.71,6.45,2.61a1.29,1.29,0,0,1-.51,2.48ZM155,19.1a1.29,1.29,0,0,1-.47-2.5c2.14-.83,4.33-1.65,6.49-2.43a1.29,1.29,0,1,1,.87,2.43c-2.14.77-4.3,1.58-6.42,2.41A1.35,1.35,0,0,1,155,19.1Zm168.89-2.64a1.31,1.31,0,0,1-.43-.08c-2.13-.76-4.33-1.5-6.52-2.21a1.29,1.29,0,0,1,.79-2.46c2.22.72,4.44,1.47,6.6,2.24a1.29,1.29,0,0,1-.44,2.51Zm-155.9-2a1.29,1.29,0,0,1-.4-2.51c2.19-.72,4.42-1.41,6.62-2.06a1.29,1.29,0,0,1,1.6.87,1.27,1.27,0,0,1-.87,1.6c-2.18.65-4.38,1.33-6.55,2A1.44,1.44,0,0,1,168,14.44ZM310.71,12.2a1.12,1.12,0,0,1-.36,0c-2.2-.64-4.43-1.25-6.62-1.82a1.29,1.29,0,0,1,.65-2.5c2.21.58,4.46,1.2,6.69,1.85a1.28,1.28,0,0,1-.36,2.52ZM181.19,10.54A1.29,1.29,0,0,1,180.86,8c2.24-.59,4.5-1.15,6.74-1.67a1.29,1.29,0,1,1,.58,2.51c-2.21.51-4.45,1.07-6.66,1.65A1.24,1.24,0,0,1,181.19,10.54ZM297.36,8.73a.92.92,0,0,1-.29,0c-2.22-.51-4.48-1-6.71-1.44a1.3,1.3,0,0,1-1-1.52,1.29,1.29,0,0,1,1.52-1c2.26.45,4.54.94,6.79,1.46a1.29,1.29,0,0,1-.29,2.55ZM194.63,7.41a1.29,1.29,0,0,1-.25-2.55c2.24-.46,4.54-.89,6.81-1.29a1.31,1.31,0,0,1,1.5,1.06,1.29,1.29,0,0,1-1.06,1.49c-2.25.39-4.52.81-6.74,1.27ZM283.82,6l-.21,0c-2.24-.38-4.52-.73-6.78-1a1.29,1.29,0,1,1,.36-2.56c2.28.32,4.59.68,6.85,1.07A1.29,1.29,0,0,1,283.82,6Zm-75.59-1A1.31,1.31,0,0,1,207,4a1.29,1.29,0,0,1,1.1-1.46c2.3-.33,4.61-.63,6.88-.89a1.29,1.29,0,0,1,.29,2.56c-2.24.26-4.53.56-6.81.88Zm61.93-1H270c-2.26-.26-4.56-.48-6.84-.67A1.29,1.29,0,0,1,263.4.85c2.3.19,4.62.42,6.9.67A1.29,1.29,0,0,1,271.44,3,1.28,1.28,0,0,1,270.16,4.09Zm-48.22-.61a1.29,1.29,0,0,1-.11-2.57c2.31-.2,4.64-.37,6.92-.5a1.28,1.28,0,0,1,1.36,1.21A1.29,1.29,0,0,1,228.89,3c-2.25.13-4.55.3-6.84.5ZM256.41,3h-.07c-2.29-.13-4.6-.22-6.86-.28a1.29,1.29,0,0,1-1.25-1.33A1.27,1.27,0,0,1,249.55.09c2.29.06,4.62.15,6.93.28A1.29,1.29,0,0,1,256.41,3Zm-20.7-.26a1.29,1.29,0,0,1-1.28-1.26A1.27,1.27,0,0,1,235.68.11C238,0,240.3,0,242.61,0h0a1.29,1.29,0,0,1,0,2.58c-2.29,0-4.6,0-6.87.11Z" transform="translate(112.98)"/>
      </g>
    </g>
  </g>
</svg>
