<svg xmlns="http://www.w3.org/2000/svg" xmlns:xlink="http://www.w3.org/1999/xlink" viewBox="0 0 485.91 1700.3">
  <defs>
    <style>
      .cls-1 {
        fill: none;
      }

      .cls-2 {
        clip-path: url(#clip-path);
      }

      .cls-3 {
        fill: #fce3c3;
      }

      .cls-4 {
        fill: #ffcfca;
      }

      .cls-5 {
        fill: #42210b;
      }

      .cls-6 {
        fill: #363740;
      }

      .cls-7 {
        fill: #282930;
      }

      .cls-8 {
        fill: #43444c;
      }

      .cls-9 {
        fill: #323a40;
      }

      .cls-10 {
        fill: #f9bfbb;
      }

      .cls-11 {
        fill: #1f3c49;
      }

      .cls-12 {
        fill: #fff;
      }

      .cls-13 {
        fill: #d55454;
      }

      .cls-14 {
        fill: #f37c7c;
      }

      .cls-15 {
        fill: #dd5050;
      }

      .cls-16 {
        fill: #fccc6a;
      }

      .cls-17 {
        fill: #f4b94e;
      }

      .cls-18 {
        fill: #fbb03b;
      }
    </style>
    <clipPath id="clip-path">
      <circle class="cls-1" cx="243.23" cy="243.33" r="226.65" transform="translate(-100.82 243.26) rotate(-45)"/>
    </clipPath>
  </defs>
  <g id="레이어_2" data-name="레이어 2">
    <g id="Layer_1" data-name="Layer 1">
      <g>
        <g class="cls-2">
          <circle class="cls-3" cx="243.23" cy="243.33" r="226.65" transform="translate(-100.82 243.26) rotate(-45)"/>
          <g>
            <polygon class="cls-4" points="358.28 1274.7 345.49 1617.84 297.45 1619.69 259.42 1252.04 358.28 1274.7"/>
            <path class="cls-5" d="M345.49,1617.84,375.74,1675a4.4,4.4,0,0,1,.49,1.81l.35,8.8a4.44,4.44,0,0,1-4.34,4.53L272.81,1694a4.46,4.46,0,0,1-4.69-4.18l-.39-9.75a4.28,4.28,0,0,1,.45-2.07l29.27-58.25Z"/>
            <path class="cls-4" d="M38,1695c11.1-1.61,22.06-6,32.67-9.4,27.3-8.73,54.18-18.63,81-28.62,6.42-2.67,12.95-5.43,19.72-8.26a23.1,23.1,0,0,0,2.75-2,20,20,0,0,0,6.07-9.82,14.94,14.94,0,0,0,.27-7,12.29,12.29,0,0,0-.75-2.34c-1.26-3-3.51-5.69-5.69-8.23-4-4.67-6.38-8.27-10.39-12.93l-10.71-12.84-2-2.41L140,1246.15,34.22,1229l64.92,373.9-.76.86L73.54,1632l-24.21,24.85c-4.53,4.38-9.08,8.79-13.62,13.17l-3.27,3.16c-3.19,3.12-8.28,6-9.93,10.35a7.9,7.9,0,0,0-.52,3.19C22.36,1695.22,31,1696.05,38,1695Z"/>
            <path class="cls-5" d="M14.56,1692.85c.45,3.15,5.37,7.94,10.11,7.4,9-1,20.41-4.34,29-7,17.23-5.3,32.28-11.48,49.3-17.34s32.47-12.14,48.7-18.93c6.42-2.67,12.95-5.43,19.72-8.26l1-.42c4.43-1.85,10.85-4.91,13.21-9.3,3-5.63-.44-12.58-3.63-17.42-3.52-5.35-8.59-9.35-13-13.93-1.39-1.45-13.77-15.26-14.79-14.82l-1.25.65-39.48,20.65-15.06-10.43-2.09-1.45-17.67,18.37-35.16,36.57-26.07,27.1A10.48,10.48,0,0,0,14.56,1692.85Z"/>
            <path class="cls-6" d="M267,659.77l-18.48,170.9-9.06,35.18-4.92,19.08L196.68,1032l-5.26,20.43-32.34,125.58,10.43,323.3-121.34,2.47S6.64,1295.13,8,1126.92c.58-71.77,35.24-146.85,60.51-266.84,15.64-74.29,51.32-187.61,51.32-187.61Z"/>
            <path class="cls-7" d="M250.56,763,239.48,865.85l-4.92,19.08L196.68,1032a1744,1744,0,0,1,18-302.24C226.63,740.85,238.7,751.83,250.56,763Z"/>
            <path class="cls-6" d="M316.59,652.67s41.84,62.83,57.06,155.23c33.47,203.34,10.92,678.95,10.92,678.95l-129.82,10-50.1-826.12Z"/>
            <polygon class="cls-8" points="32.64 1464.55 47.22 1538.03 178.82 1535.35 177.25 1458.45 32.64 1464.55"/>
            <polygon class="cls-8" points="248.07 1469.19 253.23 1539.53 387.82 1542.48 392.81 1465.45 248.07 1469.19"/>
            <path class="cls-9" d="M241.59,275.56c6.92-.17,13.18,3.73,19.23,7.1s13.07,6.41,19.71,4.43c7-2.08,11.16-8.95,16.89-13.4,6.25-4.86,14.25-6.79,21.13-10.7a34.61,34.61,0,0,0,14.9-16.15,26.31,26.31,0,0,0-.27-21.68c-.88-1.77-2-3.57-1.86-5.54a7.89,7.89,0,0,1,2.58-4.55c3.28-3.39,7.33-6.19,9.55-10.35A19.77,19.77,0,0,0,345.38,194a30.77,30.77,0,0,0-46.76-24.21c-8.49,5.18-19.18,3.85-27.72,8.95a134,134,0,0,0-37.12,32.93c-4.6,5.94-8.74,12.37-11,19.54s-2.48,15.18.57,22.05a49.11,49.11,0,0,0,6.44,9.87C233.05,267.41,237.31,272.36,241.59,275.56Z"/>
            <g>
              <g>
                <path class="cls-4" d="M202.32,326.61c-3.3,11.76,22.83,28.1,30.63,26.51,11.86-2.42,28.42-15.05,37.63-23.5q.59-10.46,1.17-20.91a261.21,261.21,0,0,1,2.33-26.08q.63-4,1.47-7.89c1.36-6.52,3.08-13,4.81-19.4,1.42-5.29,2.83-10.6,4.25-15.89-3.35,2.74-6.43,4.06-10.41,5.84-16.74,7.49-33.76,14.34-50.86,21-5.16,2-10.36,4-15.81,4.84l-2.7,30.47Z"/>
                <path class="cls-10" d="M204.83,301.57a187.84,187.84,0,0,0,54.31-17.81c5.41-2.77,11-5.76,16.41-9,1.36-6.52,3.08-13,4.81-19.4,1.42-5.29,2.83-10.6,4.25-15.89-3.35,2.74-6.43,4.06-10.41,5.84-16.74,7.49-33.76,14.34-50.86,21-5.16,2-10.36,4-15.81,4.84Z"/>
                <path class="cls-4" d="M172.56,249.78c2.66,10.45,7,20.22,15.4,27.29a48.85,48.85,0,0,0,26.58,11.08c10.7,1,21.45-1.26,31.29-5.69a79.13,79.13,0,0,0,13.92-8.1A110.3,110.3,0,0,0,279.92,255a136.79,136.79,0,0,0,23.29-40.09c6-16.56,7.94-34.3,3.28-51.64a65.86,65.86,0,0,0-9.06-19.87c-17.25-25.61-51.84-34.45-79.29-20.27-14.3,7.4-25.94,19.89-33.22,34.16a147.79,147.79,0,0,0-6.26,14C169.09,196.1,166,224,172.56,249.78Z"/>
                <path class="cls-4" d="M272.93,249.92a29.91,29.91,0,0,0,28.81,6.53A29.45,29.45,0,0,0,320,239a28.38,28.38,0,0,0,1.28-4.57,21.27,21.27,0,0,0,0-8.3,18.33,18.33,0,0,0-14-13.53,21.19,21.19,0,0,0-18.88,6l-5.95,12.05Z"/>
              </g>
              <g>
                <path class="cls-11" d="M229.6,210.54c1.35.12,3.29-2,3.93-5.13a8.45,8.45,0,0,0-.28-4.63c-.18-.44-.68-1.49-1.5-1.65l-.13,0c-1.35-.12-3.29,2-3.93,5.13a8.48,8.48,0,0,0,.28,4.64c.18.44.68,1.48,1.5,1.64Z"/>
                <path class="cls-11" d="M189.24,205.1c1.14.1,3.12-1.73,3.77-5a8.2,8.2,0,0,0-.27-4.48c-.36-.89-.88-1.47-1.42-1.57l-.12,0c-1.14-.1-3.12,1.74-3.77,5a8.24,8.24,0,0,0,.27,4.49c.36.89.88,1.46,1.42,1.57Z"/>
                <path class="cls-11" d="M209.29,213.22a5,5,0,0,0-4.48-1.53,6,6,0,0,0-4.6,8.06,5,5,0,0,0,3.6,3.09,6.81,6.81,0,0,1-1.8-3.63,5.37,5.37,0,0,1,3.25-5.7A6.74,6.74,0,0,1,209.29,213.22Z"/>
              </g>
              <path class="cls-11" d="M240.84,186.78a.89.89,0,0,0,.69-.31,1,1,0,0,0-.06-1.33,14.15,14.15,0,0,0-10.56-3.56.94.94,0,1,0,.16,1.87,12.17,12.17,0,0,1,9.13,3.09A1,1,0,0,0,240.84,186.78Z"/>
              <path class="cls-11" d="M200.21,180.16a.94.94,0,0,0,.2-1.7,13,13,0,0,0-10-1.44,1,1,0,0,0-.67,1.15.94.94,0,0,0,1.15.66,11.16,11.16,0,0,1,8.56,1.24A.93.93,0,0,0,200.21,180.16Z"/>
              <path class="cls-12" d="M230.73,201.18a1.57,1.57,0,0,1,.52,3.09A1.57,1.57,0,0,1,230.73,201.18Z"/>
              <path class="cls-12" d="M189.74,195.68a1.57,1.57,0,0,1,.52,3.09A1.57,1.57,0,0,1,189.74,195.68Z"/>
              <g>
                <path class="cls-13" d="M187.47,228.55a21,21,0,0,0,2.64,11.1c2.88,5.12,7.85,8.57,13.6,8.77,5.9.21,11.21-3,14.41-8.15a20.94,20.94,0,0,0,3.19-10.53c0-.14,0-.28,0-.43l-33.81-1.19C187.5,228.27,187.47,228.41,187.47,228.55Z"/>
                <path class="cls-12" d="M188.87,228.17a21.72,21.72,0,0,0,31.07,1.09Z"/>
                <path class="cls-14" d="M190.11,239.65c2.88,5.12,7.85,8.57,13.6,8.77,5.9.21,11.21-3,14.41-8.15a61.51,61.51,0,0,0-28-.62Z"/>
              </g>
              <path class="cls-10" d="M227.26,224.26c-.46,5.14,4.82,9.82,11.79,10.45s13-3,13.48-8.16-4.82-9.82-11.79-10.45S227.73,219.12,227.26,224.26Z"/>
              <path class="cls-10" d="M173,212.51c-.32,3.47,3.25,6.63,8,7.06s8.78-2,9.1-5.51-3.25-6.63-8-7.06S173.35,209,173,212.51Z"/>
            </g>
            <path class="cls-15" d="M299.6,327c-11.13-3.19-23.36-9.19-27.81-10.38-16.79,24-53.25,27.67-69.36-2.2-16.52,3.1-38.27,7.14-57.46,12-.18,24.68-13,53.31-16,77.45-4.82,38.76-11.29,66-18.12,104.5-7.17,40.46-7.16,74.39-14.65,128.15-5.13,36.78-8.1,79.61-10.76,135.82,70.93,29.17,157.56,27.54,288.29,2.56-.72-63-21.36-201.39-28.11-264.24C331.14,449.24,318.89,387.19,299.6,327Z"/>
            <path class="cls-9" d="M310.17,213.22c-14.76-.06-28.35,16.92-32.9-26.15-.72-6.78-1.75-13.5-2.94-20.2s-4-13.64-9.64-17.06c-13.09-8-28.94,7.88-43.89,5.45-6.82-1.11-13.93-9.89-20.51-7.72-3,1-8.11,5-10.31,7.38-6.85,7.31-9.72,17.58-14.84,26.3-1.49-9.45-5.81-23-1.69-31.56,2.39-5,6-10.63,8.49-15.53,7.14-14.13,5.85-23.89,17.82-33.79,6.67-5.53,22.77-11.1,30.85-8.29,4,1.4,7.73,3.83,11.9,4.53,5.66,1,11.28-1.4,16.71-3.31,8.07-2.85,16.69-4.83,25.08-3.29s16.5,7.26,19.12,15.75c2,6.41.88,14.07,4.89,19.33,3.7,4.85,10.31,5.77,15.34,9.06,10.69,7,12,22.85,9.54,35.78C330.16,185.84,320.24,200.86,310.17,213.22Z"/>
            <path class="cls-16" d="M203.25,311.74s.43,21.2-.22,36.64c-1.62,38.6-8.7,55.37-10.16,94-.58,15.44-.37,30.9-.09,46.35.17,9.62.37,19.24.42,28.86,0,8.53,0,17-.36,25.57,0,.73,0,1.45-.08,2.17-.95,22.82-3.17,45.57-6.15,68.21q-1,7.65-2.14,15.28c-.83,5.73-1.72,11.45-2.62,17.16,0,.31-.09.61-.15.92-.08.54-.17,1.1-.26,1.65q-2.2,13.82-4.5,27.94c-9.25,57-19.19,117.38-25.38,173.34-.39,3.54-78.64-26.35-105.68-50.31-3-2.62,17.2-79.46,27.94-121.88,1.87-7.35,3.44-13.68,4.57-18.4.11-.44.21-.87.3-1.28,0-.07,0-.12,0-.18.47-2,.84-3.64,1.1-4.89q.1-.49.18-.9c0-.21.08-.4.1-.57a206.12,206.12,0,0,1-26.24-5C38,641.8,22.68,633.11,14.8,614.86c-3.29-7.61-5.29-16.88-5.53-28.23a220.55,220.55,0,0,1,1.12-25.41c.07-.72.14-1.46.22-2.18C13,536.77,18.51,514,26,491.74c25.43-75.88,73.77-144.9,101.21-161.85C159.82,309.73,203.25,311.74,203.25,311.74Z"/>
            <path class="cls-17" d="M186.61,613.55c-1.43,10.85-3,21.66-4.76,32.44,0,.31-.09.61-.15.92-.08.54-.17,1.1-.26,1.65q-2.2,13.82-4.5,27.94-6.48.71-13,1.21-25.44,2-51,1.75-19.59-.23-39.17-1.81c1.87-7.35,3.44-13.68,4.57-18.4.11-.44.21-.87.3-1.28,0-.07,0-.12,0-.18.59-2.52,1-4.49,1.28-5.79,0-.21.08-.4.1-.57a206.12,206.12,0,0,1-26.24-5C38,641.8,22.68,633.11,14.8,614.86h.06l43.2-1.46,87.34-2.92a8.59,8.59,0,0,1,7.79,3.75Z"/>
            <path class="cls-16" d="M370.87,656.79c0,.21.06.42.09.63,1.37,9.3,3,20.32,4.63,32.2,8.09,57.27,18.36,134.53,16.52,136-12.33,9.89-66.88,30.29-118.9,32.32-1.62-.71-7.37-92.7-12.83-187.45-.74-12.77-1.47-25.6-2.19-38.25-2-34.84-3.82-68.4-5.32-96.18q-.44-8.08-.83-15.47c-1.79-33.17-2.91-54.94-2.85-55.22,8.78-46.89,22.55-152.16,22.55-152.16s49.33,7.67,98.14,37.52c27.5,16.82,69,105.65,81.69,203.69.4,3.09.77,6.21,1.12,9.34q1.53,14,2.14,28.21C456.7,636.32,408.79,650.79,370.87,656.79Z"/>
            <path class="cls-17" d="M416.1,546.46a166.24,166.24,0,0,0-56.76-10.61,16.19,16.19,0,0,1,.1-5.15,36.51,36.51,0,0,0,.31-8.55C380.16,526.44,401.08,532,416.1,546.46Z"/>
            <path class="cls-17" d="M348.51,404c-.35,10.85-1.48,22.08-1.83,32.93q-.21,6.68-.43,13.33c-.65,20.48-1.31,41-3.08,61.38L358,511C350.59,475.9,352.92,439.53,348.51,404Z"/>
            <path class="cls-17" d="M125.92,408.74c-.24,10.86.28,22.13,0,33l-.3,13.33c-.46,20.48-.92,41-.26,61.46l-14.75-1.46C119.93,480.45,119.58,444,125.92,408.74Z"/>
            <path class="cls-17" d="M370.87,656.79A220.21,220.21,0,0,0,404.64,649c-21.67-5.33-43.32-10.81-64.85-16.68-17.62-4.81-35.25-9.74-52.69-15.15-8.47-2.62-16.88-5.43-25.13-8.65-1.76-.69-3.51-1.38-5.23-2.08q.7,12.74,1.45,25.85c.72,12.65,1.45,25.48,2.19,38.25A424.81,424.81,0,0,0,304.23,682c23.47,4.9,47.46,8.3,71.36,7.64-1.68-11.88-3.26-22.9-4.63-32.2C370.93,657.21,370.91,657,370.87,656.79Z"/>
            <path class="cls-17" d="M40.67,551.34a311.35,311.35,0,0,1,44.6-18.64q11.49-3.8,23.25-6.68,6-1.47,12-2.7c3.7-.76,7.2-.64,10.94-1.23a37.89,37.89,0,0,1,6.3-.29c18.53.16,37.71.46,54.54,8.21q-25.12,7.08-50.85,11.77c-16.75,3.06-33.92,3.13-50.87,4.67a245.28,245.28,0,0,0-28.8,4.11C54.92,552,47.58,552.75,40.67,551.34Z"/>
            <path class="cls-4" d="M148,557.56c1.47.12,3.57-.19,4.85.5,1.79,1,3.5,3.39,5,4.82,4.13,4,8.37,7.9,12.47,11.94,1.14,1.11,2.24,2.24,3.35,3.38q13.59-16,26.8-32.4c-10-7.31-17.69-12.8-21.13-15.11l-5-3.35a71.3,71.3,0,0,0-2.62-13.44c-1.62-5.38-4.58-9.76-6.71-14.89-3.66-8.88-5.57-18.58-8.61-27.72-.95-2.84-2-5.77-4.13-7.9l-.23-.22c-2.14-2-5.47-2.92-8-1.44a7.34,7.34,0,0,0-3.13,5.65c-.39,3.93.55,8.16,1.4,12a38.94,38.94,0,0,1,1.41,7.55c.08,3.83-2.39,1.45-4.22-.35a51.9,51.9,0,0,1-5.39-6.45c-3.25-4.5-6-9.34-9-14,0,0-20.74-31.33-20.78-31.36-2-3.09-7.29-2.91-9.31.1C92.2,439,97,444,98.91,447.5q4.82,8.75,9.55,17.52,3.39,6.3,6.75,12.63c1.3,2.45,3.58,4.51,5,7,.5.93,2.1,3.4,1,4.47s-2.86-1-3.69-1.67c-2-1.6-3.94-3.28-5.86-5-3.69-3.32-7.25-6.79-10.79-10.29-7.21-7.1-14.35-14.34-22.38-20.54a6.45,6.45,0,0,0-1-.66,5.72,5.72,0,0,0-8.23.95c-3.43,4.88,3.38,10.1,6.25,13.32,4.66,5.18,9.51,10.18,14.18,15.36l10.47,11.59c1.22,1.35,8.25,6.29,6.59,8.67-1.45,2.09-6.54-2.67-7.84-3.38q-4.66-2.58-9.31-5.25-9.28-5.33-18.28-11.1a6,6,0,0,0-1.71-.76q-2.49-1.72-5-3.49A5.48,5.48,0,0,0,56.35,480c-1.38,5,4.73,7.7,8,10q7.86,5.49,15.85,10.81,5.64,3.77,11.33,7.44c2,1.3,11.31,6.31,7.19,9.43-.81.6-2.83-.08-3.67-.28a62.65,62.65,0,0,1-7.71-2.76q-10.31-3.81-20.71-7.31a5.59,5.59,0,0,0-7.15,6.18c1,5.83,11.32,7,15.8,8.43q10.73,3.48,21.15,7.73a16.43,16.43,0,0,1,3.42,1.74A20.8,20.8,0,0,1,103.3,535c9.76,11.54,24.55,19.17,39.31,21.85C144.4,557.14,146.22,557.4,148,557.56Z"/>
            <path class="cls-16" d="M370.87,656.79c0,.21.06.42.09.63a206,206,0,0,1-26.24-3.37c-22.87-4.32-45.66-9.18-67.94-15.9l-1.59-.48q-8.52-2.61-17-5.4-7.55-2.49-15-5.14a548.87,548.87,0,0,1-78.93-34.69q-8-4.38-15.92-9.09c-4.42-2.66-7.65-6-8.52-11.14a37.25,37.25,0,0,1,.2-10.38q1.08-9.74,2.2-19.49a28,28,0,0,1,1.54-7.54,10.52,10.52,0,0,1,2.77-3.95,11.49,11.49,0,0,1,4.87-2.44c32.86-8.44,66.83-9.74,100.66-7.79,3.59.2,7.17.45,10.75.72,5.3.41,10.56.89,15.82,1.41,6.11.6,12.22,1.29,18.29,2l10.66,1.29c13.79,1.68,27.63,3.38,41.46,5.26,17.06,2.3,34.07,4.86,50.9,7.92,17.17,3.1,35.53,7.11,51.22,15l.43.22c1.61,12.36,2.73,24.91,3.26,37.55C456.7,636.32,408.79,650.79,370.87,656.79Z"/>
            <path class="cls-17" d="M349,531.32a19,19,0,0,1-2.43,5.08c-15.1,23.06-36.58,41.13-58.12,58.33-10.34,8.26-20.79,16.4-31.76,23.81-4.39,3-8.9,5.85-13.54,8.59a548.87,548.87,0,0,1-78.93-34.69,104.94,104.94,0,0,1,17.65-15.53c20.17-14.46,43.4-24,66.67-32.68,19.29-7.2,38.87-13.9,59-18.17C321.35,527.74,335.19,529.44,349,531.32Z"/>
            <path class="cls-4" d="M382.06,522.14c-7.85-9.67-17.89-19.95-29.45-25.43-5.84-2.78-11.66-4.59-22.26-4.37-13.55.28-25.48,11.42-37.32,17.59,4.05,5.2,8.09,10.27,12.15,15.47s8.3,10.44,14.66,12.56c5.12,1.71,9-1,14.29-2.31s17.33-3.63,26-2.46C391.05,537.38,389,530.68,382.06,522.14Z"/>
            <path class="cls-16" d="M328.42,539.62C327,561.83,227.2,613.86,186,628.31l-1.48.52c-20.85,7.23-42.26,12.72-63.77,17.7-43.47,10.06-60.59,1.77-66.82-.07C38,641.8,22.68,633.11,14.8,614.86c-3.29-7.61-5.29-16.88-5.53-28.23a220.55,220.55,0,0,1,1.12-25.41c.07-.72.14-1.46.22-2.18l5.39-3c14.56-8.08,31.8-12.59,48-16.2,32-7.16,64.73-12.43,97.06-17.68q8.6-1.41,17.27-2.63c5-.7,9.93-1.36,14.92-1.95,35.3-4.17,93.94-16.66,108.53-10.21C301.73,507.39,329,531.69,328.42,539.62Z"/>
          </g>
        </g>
        <path class="cls-18" d="M243.07,485.91a1.29,1.29,0,1,1,0-2.58c2.28,0,4.58,0,6.86-.1a1.31,1.31,0,0,1,1.33,1.25,1.29,1.29,0,0,1-1.25,1.33C247.7,485.88,245.37,485.91,243.07,485.91Zm-6.9-.09h0c-2.3-.07-4.63-.16-6.93-.29a1.29,1.29,0,0,1,.15-2.58c2.27.13,4.57.23,6.86.29a1.29,1.29,0,0,1,0,2.58Zm20.69-.3a1.29,1.29,0,0,1-.07-2.58c2.28-.13,4.58-.29,6.85-.49a1.3,1.3,0,0,1,1.39,1.18,1.28,1.28,0,0,1-1.17,1.39c-2.29.2-4.62.37-6.92.5Zm-34.46-.47h-.11c-2.3-.19-4.62-.42-6.91-.68a1.29,1.29,0,0,1,.29-2.56c2.27.26,4.56.48,6.83.67a1.29,1.29,0,0,1-.1,2.58Zm48.21-.7a1.29,1.29,0,0,1-.14-2.58c2.26-.25,4.55-.55,6.81-.87a1.31,1.31,0,0,1,1.46,1.09,1.29,1.29,0,0,1-1.1,1.46c-2.28.33-4.6.63-6.88.89Zm-61.93-.85h-.18c-2.28-.33-4.58-.69-6.85-1.08a1.29,1.29,0,1,1,.43-2.54c2.25.39,4.53.74,6.78,1.06a1.29,1.29,0,0,1-.18,2.57Zm75.59-1.11a1.29,1.29,0,0,1-.21-2.56c2.24-.38,4.51-.81,6.74-1.26a1.29,1.29,0,1,1,.51,2.53c-2.26.46-4.55.88-6.82,1.27A.78.78,0,0,1,284.27,482.39Zm-89.19-1.22-.25,0c-2.26-.46-4.54-.95-6.78-1.47a1.29,1.29,0,1,1,.58-2.51c2.22.51,4.47,1,6.7,1.45a1.29,1.29,0,0,1-.25,2.55Zm102.72-1.51a1.29,1.29,0,0,1-.29-2.55c2.22-.51,4.46-1.07,6.66-1.64a1.29,1.29,0,1,1,.66,2.49c-2.23.59-4.49,1.15-6.74,1.67A1.43,1.43,0,0,1,297.8,479.66Zm-116.16-1.6a1.24,1.24,0,0,1-.33,0c-2.24-.58-4.49-1.21-6.69-1.85a1.29,1.29,0,0,1,.73-2.48c2.17.64,4.39,1.26,6.61,1.84a1.29,1.29,0,0,1-.32,2.53Zm129.51-1.9a1.29,1.29,0,0,1-.37-2.53c2.19-.64,4.4-1.32,6.56-2a1.29,1.29,0,0,1,.8,2.46c-2.19.71-4.42,1.4-6.63,2.05A1.49,1.49,0,0,1,311.15,476.16Zm-142.76-2a1.39,1.39,0,0,1-.4-.06c-2.2-.72-4.41-1.47-6.59-2.25a1.28,1.28,0,0,1-.78-1.64,1.31,1.31,0,0,1,1.65-.79c2.15.77,4.34,1.52,6.52,2.22a1.29,1.29,0,0,1,.83,1.63A1.31,1.31,0,0,1,168.39,474.19Zm155.88-2.3a1.29,1.29,0,0,1-.43-2.5c2.14-.77,4.31-1.58,6.43-2.41a1.29,1.29,0,1,1,.93,2.41c-2.14.83-4.32,1.65-6.49,2.43A1.35,1.35,0,0,1,324.27,471.89Zm-168.92-2.35a1.27,1.27,0,0,1-.47-.09c-2.15-.83-4.32-1.71-6.44-2.61a1.29,1.29,0,1,1,1-2.38c2.1.89,4.25,1.76,6.38,2.59a1.29,1.29,0,0,1-.47,2.49Zm181.76-2.65a1.29,1.29,0,0,1-.51-2.48c2.1-.89,4.21-1.82,6.27-2.76a1.29,1.29,0,0,1,1.07,2.35c-2.08.95-4.21,1.89-6.33,2.78A1.33,1.33,0,0,1,337.11,466.89ZM142.6,464.16a1.24,1.24,0,0,1-.53-.12c-2.1-1-4.21-2-6.28-3a1.29,1.29,0,1,1,1.14-2.32c2,1,4.13,2,6.21,2.95a1.29,1.29,0,0,1-.54,2.47Zm207-3a1.29,1.29,0,0,1-.57-2.45c2-1,4.08-2,6.09-3.11a1.29,1.29,0,1,1,1.21,2.28c-2,1.08-4.11,2.14-6.16,3.15A1.31,1.31,0,0,1,349.62,461.16ZM130.2,458.05a1.34,1.34,0,0,1-.61-.15c-2-1.08-4.08-2.2-6.09-3.34a1.29,1.29,0,1,1,1.27-2.24c2,1.12,4,2.24,6,3.3a1.29,1.29,0,0,1-.6,2.43Zm231.59-3.32a1.3,1.3,0,0,1-.64-2.42c2-1.12,4-2.28,5.92-3.45a1.29,1.29,0,1,1,1.33,2.2c-2,1.19-4,2.36-6,3.5A1.29,1.29,0,0,1,361.79,454.73Zm-243.62-3.49a1.35,1.35,0,0,1-.67-.18c-2-1.19-4-2.43-5.89-3.68a1.29,1.29,0,1,1,1.39-2.17c1.92,1.24,3.88,2.46,5.83,3.64a1.29,1.29,0,0,1-.66,2.39Zm255.41-3.64a1.31,1.31,0,0,1-1.09-.59,1.29,1.29,0,0,1,.39-1.78c1.91-1.23,3.83-2.5,5.71-3.79a1.29,1.29,0,0,1,1.46,2.13c-1.9,1.3-3.85,2.59-5.77,3.83A1.29,1.29,0,0,1,373.58,447.6Zm-267-3.84a1.3,1.3,0,0,1-.73-.22c-1.91-1.31-3.82-2.66-5.67-4a1.29,1.29,0,0,1-.29-1.8,1.3,1.3,0,0,1,1.81-.29c1.83,1.34,3.72,2.67,5.61,4a1.29,1.29,0,0,1-.73,2.35ZM385,439.82a1.29,1.29,0,0,1-.76-2.33c1.85-1.35,3.7-2.73,5.49-4.12a1.29,1.29,0,0,1,1.57,2.05c-1.81,1.39-3.67,2.79-5.54,4.15A1.28,1.28,0,0,1,385,439.82ZM95.38,435.64a1.3,1.3,0,0,1-.79-.27c-1.82-1.41-3.65-2.86-5.43-4.32a1.3,1.3,0,0,1-.18-1.82,1.29,1.29,0,0,1,1.81-.18c1.77,1.44,3.58,2.88,5.38,4.27a1.3,1.3,0,0,1-.79,2.32Zm300.48-4.24a1.29,1.29,0,0,1-.81-2.29c1.77-1.45,3.53-2.94,5.24-4.42a1.29,1.29,0,1,1,1.69,1.95c-1.73,1.5-3.51,3-5.3,4.46A1.28,1.28,0,0,1,395.86,431.4ZM84.7,426.89a1.27,1.27,0,0,1-.85-.32c-1.74-1.51-3.48-3.06-5.17-4.62a1.29,1.29,0,0,1,1.74-1.9c1.67,1.54,3.4,3.08,5.12,4.57a1.29,1.29,0,0,1,.13,1.82A1.26,1.26,0,0,1,84.7,426.89Zm321.59-4.53a1.29,1.29,0,0,1-.88-2.24c1.69-1.54,3.37-3.13,5-4.71a1.3,1.3,0,0,1,1.83,0,1.28,1.28,0,0,1,0,1.82c-1.64,1.6-3.34,3.2-5,4.76A1.28,1.28,0,0,1,406.29,422.36ZM74.53,417.55a1.3,1.3,0,0,1-.9-.36c-1.66-1.61-3.31-3.27-4.9-4.91a1.29,1.29,0,1,1,1.85-1.79c1.58,1.62,3.21,3.25,4.85,4.85a1.29,1.29,0,0,1-.9,2.21Zm341.66-4.8a1.29,1.29,0,0,1-.93-2.19c1.59-1.63,3.18-3.31,4.72-5a1.29,1.29,0,0,1,1.9,1.75c-1.56,1.7-3.16,3.39-4.77,5A1.28,1.28,0,0,1,416.19,412.75ZM64.91,407.66a1.3,1.3,0,0,1-.95-.42c-1.55-1.69-3.11-3.43-4.61-5.17a1.29,1.29,0,1,1,1.95-1.69c1.49,1.72,3,3.44,4.56,5.12a1.28,1.28,0,0,1-1,2.16Zm360.61-5.07a1.23,1.23,0,0,1-.84-.32,1.29,1.29,0,0,1-.13-1.82c1.5-1.72,3-3.49,4.43-5.24a1.29,1.29,0,0,1,2,1.63c-1.45,1.77-3,3.56-4.47,5.31A1.3,1.3,0,0,1,425.52,402.59ZM55.88,397.24a1.27,1.27,0,0,1-1-.47c-1.47-1.79-2.92-3.62-4.32-5.43a1.29,1.29,0,0,1,2-1.57c1.38,1.79,2.81,3.59,4.26,5.36a1.28,1.28,0,0,1-.18,1.82A1.24,1.24,0,0,1,55.88,397.24Zm378.39-5.33a1.27,1.27,0,0,1-.78-.27,1.29,1.29,0,0,1-.24-1.81c1.39-1.79,2.78-3.64,4.13-5.49a1.29,1.29,0,1,1,2.08,1.52c-1.36,1.87-2.76,3.74-4.16,5.55A1.3,1.3,0,0,1,434.27,391.91ZM47.45,386.33a1.27,1.27,0,0,1-1-.53c-1.35-1.85-2.7-3.76-4-5.66a1.29,1.29,0,0,1,.33-1.79,1.31,1.31,0,0,1,1.8.33c1.29,1.88,2.62,3.77,4,5.6a1.29,1.29,0,0,1-1,2.05Zm395-5.58a1.31,1.31,0,0,1-.73-.23,1.29,1.29,0,0,1-.34-1.79c1.29-1.88,2.57-3.81,3.81-5.72a1.29,1.29,0,1,1,2.17,1.39c-1.25,1.94-2.55,3.89-3.85,5.79A1.29,1.29,0,0,1,442.41,380.75ZM39.66,375a1.29,1.29,0,0,1-1.09-.59c-1.24-1.93-2.47-3.9-3.66-5.87a1.29,1.29,0,0,1,2.2-1.34c1.18,1.95,2.4,3.91,3.63,5.82a1.28,1.28,0,0,1-1.08,2Zm410.23-5.83a1.35,1.35,0,0,1-.67-.18,1.31,1.31,0,0,1-.43-1.78c1.18-1.94,2.34-3.94,3.47-5.93a1.29,1.29,0,0,1,2.25,1.27c-1.14,2-2.32,4-3.51,6A1.3,1.3,0,0,1,449.89,369.13ZM32.53,363.18a1.29,1.29,0,0,1-1.12-.66c-1.13-2-2.25-4-3.33-6.07a1.29,1.29,0,0,1,.54-1.74,1.3,1.3,0,0,1,1.75.54c1.06,2,2.16,4,3.28,6a1.28,1.28,0,0,1-.48,1.76A1.33,1.33,0,0,1,32.53,363.18Zm424.17-6.07a1.3,1.3,0,0,1-1.14-1.9c1.08-2,2.13-4.09,3.13-6.12a1.29,1.29,0,0,1,2.32,1.14c-1,2-2.08,4.14-3.16,6.19A1.3,1.3,0,0,1,456.7,357.11ZM26.09,351a1.3,1.3,0,0,1-1.16-.72c-1-2.06-2-4.16-3-6.25A1.29,1.29,0,0,1,24.31,343c1,2.06,1.93,4.14,2.94,6.18a1.3,1.3,0,0,1-.59,1.73A1.28,1.28,0,0,1,26.09,351Zm436.73-6.31a1.32,1.32,0,0,1-.54-.12,1.29,1.29,0,0,1-.63-1.71c1-2.08,1.88-4.2,2.77-6.29a1.29,1.29,0,1,1,2.38,1c-.9,2.11-1.84,4.26-2.81,6.37A1.28,1.28,0,0,1,462.82,344.7ZM20.36,338.5a1.29,1.29,0,0,1-1.19-.79c-.89-2.1-1.77-4.26-2.6-6.4a1.29,1.29,0,1,1,2.4-.94c.83,2.12,1.7,4.25,2.58,6.34a1.29,1.29,0,0,1-.69,1.69A1.24,1.24,0,0,1,20.36,338.5ZM468.21,332a1.35,1.35,0,0,1-.47-.09,1.29,1.29,0,0,1-.73-1.67c.83-2.14,1.64-4.31,2.41-6.45a1.29,1.29,0,0,1,2.43.87c-.78,2.16-1.59,4.35-2.44,6.52A1.27,1.27,0,0,1,468.21,332ZM15.35,325.67a1.3,1.3,0,0,1-1.22-.86c-.78-2.18-1.53-4.39-2.24-6.56a1.29,1.29,0,1,1,2.46-.8c.7,2.15,1.44,4.34,2.21,6.49a1.29,1.29,0,0,1-.78,1.65A1.31,1.31,0,0,1,15.35,325.67Zm457.51-6.75a1.32,1.32,0,0,1-.39-.06,1.29,1.29,0,0,1-.83-1.63c.7-2.16,1.38-4.37,2-6.56a1.29,1.29,0,0,1,2.48.73c-.65,2.21-1.34,4.44-2.05,6.63A1.3,1.3,0,0,1,472.86,318.92ZM11.08,312.55a1.29,1.29,0,0,1-1.24-.93c-.65-2.21-1.28-4.46-1.86-6.68a1.29,1.29,0,1,1,2.49-.66c.58,2.2,1.2,4.42,1.84,6.61a1.29,1.29,0,0,1-.87,1.6A1.13,1.13,0,0,1,11.08,312.55Zm465.67-6.87a1.86,1.86,0,0,1-.33,0,1.3,1.3,0,0,1-.92-1.58c.57-2.2,1.13-4.44,1.64-6.66a1.29,1.29,0,1,1,2.51.58c-.52,2.25-1.08,4.51-1.66,6.73A1.29,1.29,0,0,1,476.75,305.68ZM7.57,299.2a1.29,1.29,0,0,1-1.26-1c-.52-2.24-1-4.52-1.47-6.78a1.29,1.29,0,1,1,2.53-.51c.45,2.23.94,4.49,1.45,6.71a1.29,1.29,0,0,1-1,1.55Zm472.29-7a1.14,1.14,0,0,1-.26,0,1.3,1.3,0,0,1-1-1.52c.46-2.26.88-4.53,1.26-6.75a1.29,1.29,0,1,1,2.54.44c-.38,2.24-.81,4.54-1.27,6.82A1.28,1.28,0,0,1,479.86,292.23Zm-475-6.55a1.29,1.29,0,0,1-1.27-1.07c-.4-2.29-.76-4.59-1.09-6.86A1.29,1.29,0,0,1,5,277.39c.32,2.24.68,4.52,1.07,6.78a1.29,1.29,0,0,1-1,1.49Zm477.37-7.05H482a1.29,1.29,0,0,1-1.09-1.46c.32-2.27.61-4.56.87-6.81a1.29,1.29,0,0,1,2.56.29c-.26,2.28-.55,4.59-.88,6.89A1.28,1.28,0,0,1,482.2,278.63ZM2.87,272a1.29,1.29,0,0,1-1.28-1.15c-.27-2.3-.5-4.62-.69-6.9a1.29,1.29,0,0,1,2.57-.22c.19,2.26.42,4.56.68,6.83A1.29,1.29,0,0,1,3,272Zm480.88-7.1h-.11a1.3,1.3,0,0,1-1.18-1.4c.2-2.28.36-4.58.49-6.84a1.31,1.31,0,0,1,1.36-1.22,1.29,1.29,0,0,1,1.21,1.36c-.13,2.29-.29,4.61-.48,6.92A1.3,1.3,0,0,1,483.75,264.92ZM1.69,258.27A1.29,1.29,0,0,1,.4,257.05c-.13-2.3-.23-4.63-.3-6.93a1.3,1.3,0,0,1,1.26-1.33,1.29,1.29,0,0,1,1.32,1.26c.07,2.27.17,4.58.3,6.86a1.29,1.29,0,0,1-1.22,1.36Zm482.84-7.12h0a1.29,1.29,0,0,1-1.25-1.33c.06-2.29.09-4.6.09-6.86v-.46a1.29,1.29,0,0,1,2.58,0V243c0,2.28,0,4.62-.1,6.93A1.28,1.28,0,0,1,484.53,251.15ZM1.29,244.47A1.29,1.29,0,0,1,0,243.18V243c0-2.24,0-4.49.09-6.71A1.3,1.3,0,0,1,1.42,235a1.28,1.28,0,0,1,1.25,1.32c-.06,2.19-.09,4.43-.09,6.64v.22A1.29,1.29,0,0,1,1.29,244.47Zm483.22-7.58a1.29,1.29,0,0,1-1.29-1.25c-.06-2.26-.17-4.57-.3-6.86a1.29,1.29,0,0,1,1.21-1.36,1.31,1.31,0,0,1,1.37,1.21c.13,2.31.23,4.65.3,6.93a1.29,1.29,0,0,1-1.25,1.33ZM1.67,230.68H1.59a1.29,1.29,0,0,1-1.21-1.36c.12-2.3.29-4.62.48-6.92a1.29,1.29,0,0,1,2.57.21c-.19,2.28-.35,4.58-.48,6.85A1.28,1.28,0,0,1,1.67,230.68Zm482-7.57a1.28,1.28,0,0,1-1.28-1.17c-.2-2.28-.43-4.58-.69-6.83a1.29,1.29,0,1,1,2.56-.3c.26,2.28.5,4.6.7,6.9a1.3,1.3,0,0,1-1.18,1.4ZM2.82,216.93H2.67a1.29,1.29,0,0,1-1.14-1.42c.26-2.29.55-4.6.88-6.89A1.29,1.29,0,1,1,5,209c-.32,2.25-.61,4.54-.86,6.8A1.3,1.3,0,0,1,2.82,216.93Zm479.31-7.52a1.3,1.3,0,0,1-1.28-1.11c-.32-2.26-.69-4.54-1.08-6.78a1.29,1.29,0,0,1,2.55-.44c.39,2.26.76,4.57,1.09,6.85a1.29,1.29,0,0,1-1.1,1.46ZM4.75,203.27l-.22,0a1.29,1.29,0,0,1-1.05-1.49c.38-2.26.81-4.55,1.26-6.82a1.29,1.29,0,0,1,2.53.51C6.82,197.69,6.4,200,6,202.19A1.3,1.3,0,0,1,4.75,203.27Zm475-7.46a1.3,1.3,0,0,1-1.27-1c-.45-2.22-.94-4.48-1.46-6.71a1.29,1.29,0,1,1,2.51-.58c.53,2.25,1,4.53,1.48,6.78a1.3,1.3,0,0,1-1,1.52ZM7.46,189.74a1,1,0,0,1-.29,0,1.3,1.3,0,0,1-1-1.54c.52-2.23,1.08-4.5,1.66-6.74a1.29,1.29,0,0,1,2.5.65c-.58,2.22-1.13,4.46-1.64,6.67A1.3,1.3,0,0,1,7.46,189.74Zm469.17-7.36a1.3,1.3,0,0,1-1.25-1c-.58-2.2-1.2-4.43-1.85-6.61a1.29,1.29,0,0,1,2.48-.73c.65,2.21,1.28,4.45,1.87,6.69a1.29,1.29,0,0,1-.92,1.57A1.26,1.26,0,0,1,476.63,182.38ZM11,176.38a1.12,1.12,0,0,1-.36,0,1.28,1.28,0,0,1-.88-1.6c.64-2.2,1.33-4.43,2-6.63a1.29,1.29,0,0,1,1.62-.83,1.31,1.31,0,0,1,.84,1.63c-.71,2.17-1.39,4.38-2,6.56A1.29,1.29,0,0,1,11,176.38Zm461.77-7.24a1.28,1.28,0,0,1-1.22-.89c-.71-2.16-1.46-4.35-2.23-6.49a1.29,1.29,0,1,1,2.43-.87c.78,2.17,1.54,4.37,2.25,6.56a1.3,1.3,0,0,1-.83,1.63A1.34,1.34,0,0,1,472.72,169.14ZM15.2,163.23A1.28,1.28,0,0,1,14,161.51c.77-2.17,1.59-4.37,2.42-6.52a1.29,1.29,0,0,1,2.41.93c-.83,2.13-1.64,4.31-2.4,6.46A1.3,1.3,0,0,1,15.2,163.23Zm452.86-7.08a1.29,1.29,0,0,1-1.2-.82c-.82-2.1-1.69-4.23-2.58-6.33a1.29,1.29,0,1,1,2.37-1c.9,2.12,1.78,4.28,2.61,6.4a1.29,1.29,0,0,1-.73,1.67A1.27,1.27,0,0,1,468.06,156.15ZM20.21,150.33a1.31,1.31,0,0,1-.5-.1,1.29,1.29,0,0,1-.68-1.69c.9-2.13,1.84-4.27,2.79-6.37a1.29,1.29,0,0,1,1.71-.63,1.28,1.28,0,0,1,.64,1.7c-1,2.08-1.88,4.2-2.77,6.3A1.27,1.27,0,0,1,20.21,150.33Zm442.47-6.84a1.29,1.29,0,0,1-1.17-.75c-.94-2.05-1.93-4.13-2.95-6.18a1.29,1.29,0,0,1,2.32-1.14c1,2.07,2,4.17,3,6.24a1.28,1.28,0,0,1-.63,1.71A1.32,1.32,0,0,1,462.68,143.49ZM26,137.75a1.28,1.28,0,0,1-.57-.13,1.3,1.3,0,0,1-.59-1.73c1-2.08,2.08-4.16,3.16-6.19a1.29,1.29,0,0,1,2.28,1.2c-1.06,2-2.11,4.07-3.12,6.13A1.3,1.3,0,0,1,26,137.75Zm430.62-6.6a1.3,1.3,0,0,1-1.14-.68c-1.06-2-2.17-4-3.29-6a1.29,1.29,0,0,1,2.24-1.28c1.13,2,2.25,4,3.33,6.07a1.28,1.28,0,0,1-.53,1.74A1.22,1.22,0,0,1,456.58,131.15ZM32.41,125.52a1.31,1.31,0,0,1-.63-.16,1.3,1.3,0,0,1-.49-1.76c1.14-2,2.32-4,3.51-6A1.29,1.29,0,1,1,37,118.93c-1.18,2-2.35,3.95-3.47,5.94A1.3,1.3,0,0,1,32.41,125.52Zm417.37-6.34a1.29,1.29,0,0,1-1.1-.62c-1.18-2-2.4-3.91-3.63-5.81a1.29,1.29,0,1,1,2.16-1.4c1.25,1.92,2.48,3.9,3.68,5.87a1.29,1.29,0,0,1-.44,1.77A1.26,1.26,0,0,1,449.78,119.18ZM39.56,113.69a1.27,1.27,0,0,1-.7-.21,1.29,1.29,0,0,1-.39-1.78c1.25-1.94,2.54-3.89,3.84-5.79a1.29,1.29,0,0,1,2.13,1.46c-1.28,1.88-2.56,3.8-3.8,5.73A1.29,1.29,0,0,1,39.56,113.69Zm402.75-6.09a1.27,1.27,0,0,1-1.06-.56c-1.29-1.86-2.62-3.75-4-5.59a1.29,1.29,0,1,1,2.08-1.52c1.36,1.86,2.71,3.77,4,5.65a1.28,1.28,0,0,1-1.06,2ZM47.36,102.29a1.26,1.26,0,0,1-.76-.25,1.28,1.28,0,0,1-.29-1.8c1.36-1.87,2.76-3.74,4.17-5.56a1.29,1.29,0,0,1,2,1.58c-1.39,1.8-2.78,3.65-4.12,5.5A1.31,1.31,0,0,1,47.36,102.29Zm386.83-5.82a1.27,1.27,0,0,1-1-.5c-1.39-1.79-2.82-3.6-4.28-5.37a1.29,1.29,0,0,1,2-1.63c1.47,1.79,2.92,3.61,4.32,5.42A1.3,1.3,0,0,1,435,96.2,1.32,1.32,0,0,1,434.19,96.47ZM55.79,91.36a1.25,1.25,0,0,1-.81-.3,1.28,1.28,0,0,1-.19-1.81c1.46-1.78,3-3.56,4.47-5.31a1.29,1.29,0,0,1,2,1.69c-1.49,1.73-3,3.49-4.42,5.25A1.28,1.28,0,0,1,55.79,91.36Zm369.65-5.55a1.26,1.26,0,0,1-1-.45c-1.5-1.72-3-3.44-4.58-5.11a1.29,1.29,0,1,1,1.9-1.75c1.56,1.69,3.12,3.43,4.62,5.17a1.29,1.29,0,0,1-.12,1.82A1.32,1.32,0,0,1,425.44,85.81ZM64.83,80.92a1.29,1.29,0,0,1-.95-2.16c1.55-1.69,3.16-3.39,4.76-5.05a1.29,1.29,0,0,1,1.85,1.8c-1.59,1.64-3.17,3.32-4.71,5A1.27,1.27,0,0,1,64.83,80.92ZM416.1,75.65a1.28,1.28,0,0,1-.92-.39c-1.6-1.64-3.24-3.27-4.86-4.84a1.29,1.29,0,0,1,1.8-1.86c1.64,1.6,3.29,3.25,4.91,4.9a1.3,1.3,0,0,1,0,1.83A1.29,1.29,0,0,1,416.1,75.65ZM74.44,71a1.29,1.29,0,0,1-.89-2.21c1.63-1.6,3.33-3.2,5-4.77a1.29,1.29,0,1,1,1.75,1.9c-1.69,1.55-3.37,3.14-5,4.72A1.29,1.29,0,0,1,74.44,71Zm331.76-5a1.33,1.33,0,0,1-.88-.34c-1.67-1.54-3.39-3.07-5.12-4.57a1.29,1.29,0,1,1,1.69-2c1.75,1.51,3.49,3.07,5.18,4.61a1.31,1.31,0,0,1,.08,1.83A1.34,1.34,0,0,1,406.2,66.05ZM84.6,61.69a1.26,1.26,0,0,1-1-.45,1.29,1.29,0,0,1,.13-1.82c1.73-1.51,3.52-3,5.29-4.47a1.29,1.29,0,0,1,1.64,2c-1.76,1.44-3.52,2.93-5.24,4.42A1.32,1.32,0,0,1,84.6,61.69ZM395.76,57a1.27,1.27,0,0,1-.82-.29c-1.76-1.44-3.57-2.88-5.38-4.27a1.29,1.29,0,0,1,1.58-2c1.83,1.41,3.66,2.86,5.44,4.31a1.29,1.29,0,0,1-.82,2.29ZM95.27,53a1.29,1.29,0,0,1-.79-2.31c1.81-1.41,3.67-2.81,5.54-4.16a1.29,1.29,0,0,1,1.52,2.08c-1.85,1.34-3.69,2.73-5.49,4.12A1.27,1.27,0,0,1,95.27,53Zm289.55-4.37a1.28,1.28,0,0,1-.76-.25c-1.84-1.33-3.73-2.67-5.61-3.95a1.29,1.29,0,1,1,1.45-2.13c1.91,1.3,3.82,2.64,5.68,4a1.28,1.28,0,0,1,.28,1.8A1.27,1.27,0,0,1,384.82,48.58ZM106.41,44.83a1.29,1.29,0,0,1-.73-2.36c1.89-1.29,3.83-2.59,5.76-3.83a1.29,1.29,0,1,1,1.4,2.17c-1.91,1.23-3.83,2.51-5.7,3.79A1.34,1.34,0,0,1,106.41,44.83Zm267-4a1.26,1.26,0,0,1-.7-.2c-1.92-1.23-3.88-2.45-5.84-3.63a1.29,1.29,0,0,1,1.34-2.21c2,1.19,4,2.42,5.89,3.67a1.28,1.28,0,0,1,.39,1.78A1.26,1.26,0,0,1,373.42,40.78ZM118,37.36a1.29,1.29,0,0,1-.66-2.39c2-1.19,4-2.37,6-3.5a1.29,1.29,0,1,1,1.27,2.24c-2,1.12-4,2.29-5.91,3.46A1.26,1.26,0,0,1,118,37.36Zm243.6-3.71a1.19,1.19,0,0,1-.63-.17c-2-1.11-4-2.22-6-3.29a1.29,1.29,0,0,1,1.2-2.28c2.06,1.08,4.11,2.2,6.1,3.33a1.29,1.29,0,0,1-.63,2.41ZM130,30.57a1.29,1.29,0,0,1-.6-2.43c2-1.08,4.1-2.14,6.16-3.15a1.29,1.29,0,1,1,1.14,2.31c-2,1-4.09,2.05-6.09,3.12A1.34,1.34,0,0,1,130,30.57ZM349.35,27.2a1.31,1.31,0,0,1-.57-.13c-2-1-4.13-2-6.21-2.95a1.29,1.29,0,1,1,1.07-2.34c2.1,1,4.21,2,6.28,3a1.29,1.29,0,0,1-.57,2.45Zm-207-2.73a1.3,1.3,0,0,1-1.17-.75,1.29,1.29,0,0,1,.64-1.71c2.08-1,4.21-1.89,6.32-2.79a1.29,1.29,0,0,1,1,2.37c-2.09.89-4.2,1.82-6.26,2.77A1.27,1.27,0,0,1,142.3,24.47Zm194.46-3a1.31,1.31,0,0,1-.5-.1c-2.1-.89-4.24-1.75-6.38-2.58a1.29,1.29,0,0,1,.94-2.41c2.15.84,4.32,1.72,6.45,2.61a1.29,1.29,0,0,1,.68,1.69A1.27,1.27,0,0,1,336.76,21.46ZM155,19.1a1.29,1.29,0,0,1-.47-2.49c2.15-.84,4.34-1.66,6.5-2.44a1.29,1.29,0,1,1,.87,2.43c-2.14.77-4.3,1.58-6.43,2.41A1.27,1.27,0,0,1,155,19.1Zm168.9-2.64a1.31,1.31,0,0,1-.43-.08c-2.15-.76-4.34-1.51-6.52-2.21a1.29,1.29,0,0,1,.79-2.45c2.2.71,4.42,1.46,6.59,2.23a1.29,1.29,0,0,1-.43,2.51Zm-155.9-2a1.29,1.29,0,0,1-.4-2.51c2.19-.72,4.42-1.41,6.62-2.06a1.29,1.29,0,0,1,.73,2.48c-2.18.64-4.39,1.32-6.55,2A1.44,1.44,0,0,1,168,14.44Zm142.75-2.23a1.49,1.49,0,0,1-.36-.05c-2.18-.64-4.41-1.25-6.62-1.83a1.29,1.29,0,0,1,.65-2.5c2.24.59,4.49,1.21,6.69,1.85a1.29,1.29,0,0,1-.36,2.53ZM181.19,10.54A1.29,1.29,0,0,1,180.86,8c2.23-.59,4.5-1.15,6.74-1.67a1.29,1.29,0,1,1,.58,2.51c-2.21.51-4.46,1.07-6.66,1.65A1.24,1.24,0,0,1,181.19,10.54ZM297.36,8.73a.92.92,0,0,1-.29,0c-2.23-.51-4.49-1-6.71-1.44a1.29,1.29,0,1,1,.5-2.53c2.25.45,4.54.94,6.78,1.46a1.29,1.29,0,0,1-.28,2.55ZM194.63,7.41a1.29,1.29,0,0,1-.25-2.55c2.25-.46,4.55-.89,6.81-1.28a1.29,1.29,0,1,1,.44,2.54c-2.24.39-4.51.81-6.74,1.27ZM283.82,6a.75.75,0,0,1-.21,0c-2.25-.38-4.53-.73-6.79-1a1.29,1.29,0,0,1,.37-2.56c2.27.32,4.58.68,6.85,1.07A1.29,1.29,0,0,1,283.82,6Zm-75.59-1a1.29,1.29,0,0,1-.18-2.57c2.27-.33,4.59-.63,6.87-.89a1.29,1.29,0,1,1,.3,2.56c-2.26.26-4.56.56-6.81.88Zm61.93-1H270c-2.26-.26-4.56-.48-6.83-.67A1.28,1.28,0,0,1,262,2,1.29,1.29,0,0,1,263.4.85c2.29.19,4.61.42,6.9.67A1.29,1.29,0,0,1,271.44,3,1.28,1.28,0,0,1,270.16,4.09Zm-48.23-.61a1.29,1.29,0,0,1-.1-2.57c2.28-.2,4.61-.37,6.91-.5A1.29,1.29,0,1,1,228.89,3c-2.28.14-4.58.3-6.84.5ZM256.41,3h-.07c-2.27-.13-4.58-.22-6.86-.28a1.29,1.29,0,0,1-1.25-1.33A1.27,1.27,0,0,1,249.55.09c2.31.06,4.64.15,6.93.28A1.29,1.29,0,0,1,256.41,3Zm-20.7-.26a1.3,1.3,0,0,1-1.29-1.26A1.29,1.29,0,0,1,235.68.11C238,0,240.31,0,242.61,0a1.32,1.32,0,0,1,1.29,1.29,1.29,1.29,0,0,1-1.29,1.29c-2.27,0-4.58,0-6.86.11Z"/>
      </g>
    </g>
  </g>
</svg>
