<svg xmlns="http://www.w3.org/2000/svg" xmlns:xlink="http://www.w3.org/1999/xlink" viewBox="0 0 557.9 1529.26">
  <defs>
    <style>
      .cls-1 {
        fill: none;
      }

      .cls-2 {
        clip-path: url(#clip-path);
      }

      .cls-3 {
        fill: #fce3c3;
      }

      .cls-4 {
        fill: #f4b9b8;
      }

      .cls-5 {
        fill: #f9bfbb;
      }

      .cls-6 {
        fill: #ffcfca;
      }

      .cls-7 {
        fill: #602826;
      }

      .cls-8 {
        fill: #345668;
      }

      .cls-9 {
        fill: #97c6b7;
      }

      .cls-10 {
        fill: #83b2a3;
      }

      .cls-11 {
        fill: #baddd4;
      }

      .cls-12 {
        fill: #fd7064;
      }

      .cls-13 {
        fill: #f95850;
      }

      .cls-14 {
        fill: #1f3c49;
      }

      .cls-15 {
        fill: #ea5353;
      }

      .cls-16 {
        fill: #ff948f;
      }

      .cls-17 {
        fill: #fff;
      }

      .cls-18 {
        fill: #fbb03b;
      }
    </style>
    <clipPath id="clip-path" transform="translate(8.73)">
      <circle class="cls-1" cx="243.08" cy="243.02" r="226.65"/>
    </clipPath>
  </defs>
  <g id="레이어_2" data-name="레이어 2">
    <g id="Layer_1" data-name="Layer 1">
      <g>
        <g class="cls-2">
          <circle class="cls-3" cx="251.81" cy="243.02" r="226.65"/>
          <g>
            <g>
              <path class="cls-4" d="M490.41,805.38a65,65,0,0,1,.16,6.84c-.11,6.1-.45,12.21-.51,18.31a26.56,26.56,0,0,0,.77,7.86,9.71,9.71,0,0,0,4.73,6.07,6,6,0,0,0,7.21-1.28c1.46-1.82,1.44-4.36,1.37-6.68l-.32-9.15c-.14-4.11-.28-8.23-.61-12.33-.67-8.34-2.28-17-7.47-23.56-1.65-2.08-9.53-7.4-9.54-1.37,0,2.33,1.87,4.92,2.58,7.13A37.84,37.84,0,0,1,490.41,805.38Z" transform="translate(8.73)"/>
              <path class="cls-5" d="M495.22,809.27a64.88,64.88,0,0,1,.15,6.83c-.11,6.11-.45,12.22-.5,18.32a26.23,26.23,0,0,0,.76,7.86,9.74,9.74,0,0,0,4.73,6.07c2.37,1.16,5.57.78,7.22-1.29,1.45-1.81,1.44-4.35,1.36-6.67q-.17-4.57-.31-9.15c-.14-4.11-.29-8.23-.61-12.34-.67-8.33-2.29-17-7.48-23.55C498.89,793.27,491,788,491,794c0,2.33,1.87,4.92,2.57,7.13A38.47,38.47,0,0,1,495.22,809.27Z" transform="translate(8.73)"/>
              <path class="cls-6" d="M435.44,725.12c.7-3.48,11.36-6.17,16.13-13,15,8.8,40.27,56.81,46.51,69.47,4.2,8.57,8.6,17.44,10.43,26.86,1.95,10,2.27,20.14,2.77,30.28a12.62,12.62,0,0,1-.36,4.71c-.92,2.71-4.43,4.46-6.9,2.59-5.38-4-5.72-12.43-6.23-18.57-.45-5.72-.6-11.53-2-17.12s-4.28-9.95-7.95-14.22c-2.63-3.07-5.13-6.23-7.85-9.26a32.71,32.71,0,0,0-3.33-3.33,11.25,11.25,0,0,0-5.52-2.73c-1.75-.24-4.42.05-5.76,1.36s-.68,3.66-.31,5.37a25.73,25.73,0,0,0,2.19,5.8c1.55,3.17,3.46,6.37,4.06,9.89a13.39,13.39,0,0,1,.2,1.8c.24,6.53-6.26,14.39-11.85,7.31a26.11,26.11,0,0,1-2.81-5.07c-3.94-8.36-9.63-15.91-12-24.89a163.4,163.4,0,0,1-3.27-17.42C438.29,742.88,433.36,735.43,435.44,725.12Z" transform="translate(8.73)"/>
              <path class="cls-5" d="M476.65,783.5a38,38,0,0,0-2.52-3.31,13.84,13.84,0,0,0-5.82-4.42c-2.33-.8-5.21-.42-6.81,1.45a7.39,7.39,0,0,0-1.27,5.89c.74,5,4.1,9.21,7.07,13.33a33.58,33.58,0,0,1,4,6.75c-.6-3.52-2.51-6.72-4.06-9.89a25.73,25.73,0,0,1-2.19-5.8c-.37-1.71-1.14-3.94.31-5.37s4-1.6,5.76-1.36A11.25,11.25,0,0,1,476.65,783.5Z" transform="translate(8.73)"/>
            </g>
            <path class="cls-6" d="M459.75,1435.07l-10.88-8-8.07-69.93s-61.86,9.86-61.86,10.75,6.27,65.45,6.27,65.45l-4.48,17.93,45.72,3.59,26-6.28Z" transform="translate(8.73)"/>
            <polygon class="cls-6" points="155.47 1452.56 152.69 1384.78 223.71 1383.94 210.56 1449.58 187.31 1471.52 155.47 1452.56"/>
            <path class="cls-7" d="M227.77,1497.42c-1.84-5.76-20.87-39.47-25.46-48a70,70,0,0,1-28.54,6.21c-9.29,0-19.65-.88-27.1-6.51-4.75,6.68-10.52,15.79-14.92,23.21-4,6.72-9.54,13.72-12.36,21.24s-1.58,16.31,4.48,21.31c20,16.55,76.16,20.64,100.29,2.26C231.38,1511.7,229,1501.31,227.77,1497.42Z" transform="translate(8.73)"/>
            <path class="cls-8" d="M327.83,330.41c-7.4,39.25-15.32,78.22-20.35,117.83-4.78,37.52-9.37,75.08-15.34,112.42-30.74.68-61.4-.61-92.06-3s-60.7-6.62-89.37-17.79a283.88,283.88,0,0,1-43.94-21.64c13.73-19.93,22.14-42.9,31.3-65.12a668,668,0,0,0,25.25-73C138.6,326,144.67,271.85,148.31,216c2.07-31.79,11.17-65.2,32.55-89.6S238.34,87.85,270,99.8c19.52,7.38,35.43,22.68,46.05,40.65a132.52,132.52,0,0,1,12,27.15c.82,2.51,1.56,5.06,2.25,7.62a204.86,204.86,0,0,1,4.93,24.41A282.42,282.42,0,0,1,337.88,238C338,269,333.56,300,327.83,330.41Z" transform="translate(8.73)"/>
            <path class="cls-6" d="M302.14,336.81c-4.23,3.32-9.66,4.57-14.9,5.72a132.17,132.17,0,0,1-19.1,3.28c-12.57.92-24.43-2.25-36.76-4.88q-.91-10.86-1.86-21.72c-.77-9.06-1.56-18.13-3.23-27.07-.52-2.73-1.1-5.46-1.77-8.16-1.61-6.74-3.61-13.38-5.6-20L214,247.54c3.57,2.75,6.82,4,11,5.76,17.65,7.28,35.57,13.88,53.58,20.25,5.42,1.91,10.89,3.83,16.59,4.55l3.75,31.62Z" transform="translate(8.73)"/>
            <path class="cls-5" d="M298.93,309.72a195.5,195.5,0,0,1-57.05-16.86c-5.72-2.72-11.66-5.65-17.36-8.88-1.61-6.74-3.61-13.38-5.6-20L214,247.54c3.57,2.75,6.82,4,11,5.76,17.65,7.28,35.57,13.88,53.58,20.25,5.42,1.91,10.89,3.83,16.59,4.55Z" transform="translate(8.73)"/>
            <path class="cls-6" d="M329.18,258.82c-3.05,10.8-7.85,20.85-16.77,28a50.81,50.81,0,0,1-28,10.8c-11.17.78-22.29-1.88-32.42-6.77a82.13,82.13,0,0,1-14.26-8.8,114.83,114.83,0,0,1-20.47-20.68c-9.72-12.46-18.07-27-23.13-42.35-5.76-17.39-7.33-35.91-2-53.82a68.5,68.5,0,0,1,10-20.43c18.65-26.19,54.88-34.45,83.06-18.94,14.68,8.09,26.46,21.4,33.65,36.45A150,150,0,0,1,325,177C334.25,203.06,336.71,232.22,329.18,258.82Z" transform="translate(8.73)"/>
            <g>
              <path class="cls-9" d="M471.68,718.59c-3.59-8-9.35-14.88-15.55-21.09a21.62,21.62,0,0,0-6-4.68c-6.19-2.89-13.67,2.57-18.75,5.77a85.14,85.14,0,0,0-16.84,13.9c-1.65,1.76-3.3,3.75-3.55,6.16-.31,3,1.62,5.7,3.46,8.09l12.69,16.54c1.37,1.78,2.81,3.62,4.84,4.57,2.21,1,4.76.85,7.17.53a72.8,72.8,0,0,0,29.42-10.72,13.6,13.6,0,0,0,4.89-4.54c1.68-3,1-6.84-.05-10.14A44.82,44.82,0,0,0,471.68,718.59Z" transform="translate(8.73)"/>
              <g>
                <path class="cls-10" d="M436,746.3a.8.8,0,0,1-.44-.13,21.28,21.28,0,0,1-4.07-4l-.39-.46a86.6,86.6,0,0,0-8.36-8.45.8.8,0,0,1-.07-1.14.81.81,0,0,1,1.14-.07,87.45,87.45,0,0,1,8.51,8.6l.4.47a19.73,19.73,0,0,0,3.75,3.67.82.82,0,0,1,.21,1.13A.78.78,0,0,1,436,746.3Z" transform="translate(8.73)"/>
                <path class="cls-10" d="M442.26,744.7a.87.87,0,0,1-.55-.23,41.43,41.43,0,0,1-3.26-3.66,72.79,72.79,0,0,1-6.8-9.26,2.35,2.35,0,0,1-.22-2.41.75.75,0,0,1,1-.2.9.9,0,0,1,.36,1.08s-.06.17.26.72a72.57,72.57,0,0,0,6.64,9,40.76,40.76,0,0,0,3.14,3.53.81.81,0,0,1-.57,1.4Z" transform="translate(8.73)"/>
                <path class="cls-10" d="M449.41,742.64a.84.84,0,0,1-.68-.38,46.28,46.28,0,0,0-7.25-8.79c-.49-.47-1-.93-1.51-1.39a29.78,29.78,0,0,1-4.71-5,.8.8,0,0,1,1.32-.92,28.35,28.35,0,0,0,4.48,4.71c.52.47,1,.94,1.53,1.42a47.87,47.87,0,0,1,7.51,9.1.81.81,0,0,1-.69,1.24Z" transform="translate(8.73)"/>
                <path class="cls-10" d="M456.76,741.08a.8.8,0,0,1-.62-.31,166.23,166.23,0,0,0-15.43-16.85.81.81,0,0,1,0-1.14.8.8,0,0,1,1.14,0,166.33,166.33,0,0,1,15.59,17,.81.81,0,0,1-.13,1.13A.84.84,0,0,1,456.76,741.08Z" transform="translate(8.73)"/>
                <path class="cls-10" d="M462.76,737.12a.8.8,0,0,1-.63-.32,78.29,78.29,0,0,0-15.61-15.19.81.81,0,1,1,1-1.31,80,80,0,0,1,15.94,15.51.81.81,0,0,1-.15,1.14A.86.86,0,0,1,462.76,737.12Z" transform="translate(8.73)"/>
                <path class="cls-10" d="M469.44,733.48a.84.84,0,0,1-.5-.17,39,39,0,0,1-5.76-6.1c-.55-.67-1.09-1.33-1.65-2a59.62,59.62,0,0,0-9.89-9.22.82.82,0,0,1-.17-1.14.81.81,0,0,1,1.13-.16,61.22,61.22,0,0,1,10.16,9.47c.57.67,1.12,1.34,1.67,2A38.27,38.27,0,0,0,470,732a.81.81,0,0,1,.13,1.14A.78.78,0,0,1,469.44,733.48Z" transform="translate(8.73)"/>
                <path class="cls-10" d="M470.4,722.21a.77.77,0,0,1-.56-.24l-12.48-12.44a.81.81,0,0,1,1.14-1.14L471,720.83a.8.8,0,0,1,0,1.14A.82.82,0,0,1,470.4,722.21Z" transform="translate(8.73)"/>
              </g>
            </g>
            <path class="cls-8" d="M328,167.6c-8.84-13.1-17.71-26.75-29.37-37.1-10.45-9.28-23.44-15.61-37.44-16.89-26.53-2.42-57.46,7.64-74.31,29.06C178.4,153.48,174.53,167,174,180.5s2.2,25.36,5.58,38.5c25.62-2.44,48-18.68,61.2-39.12,9.86-15.22,15.22-32.53,18-50.26,7.93,10.26,16.72,19.86,27,27.73,12.86,9.81,28.33,16.82,44.49,17.87C329.59,172.66,328.85,170.11,328,167.6Z" transform="translate(8.73)"/>
            <path class="cls-11" d="M427.17,628.75c-8.25-11.8-26.32-34.69-26.32-34.69s11.21-149.55-19.58-213.44c-19.57-20.24-38.61-38.44-66.62-43.65-20.5,34.37-26.74,65.37-30.12,105.24-4.47,52.88-5.76,108.66,18.1,156.05,6.61,13.13,15,25.26,23.54,37.23,22.52,31.57,47.8,62,76,89.24a24.29,24.29,0,0,0,28.29,4l27.11-14.47a18.1,18.1,0,0,0,7.39-24.61A623.57,623.57,0,0,0,427.17,628.75Z" transform="translate(8.73)"/>
            <g>
              <path class="cls-9" d="M378.3,636.26c-.54-.88-1.08-1.75-1.6-2.64a.9.9,0,0,0-1.54.92c.53.89,1.07,1.78,1.62,2.66.72,1.16,1.46,2.31,2.21,3.45a.9.9,0,0,0,.75.4.81.81,0,0,0,.49-.15.89.89,0,0,0,.26-1.24C379.74,638.54,379,637.4,378.3,636.26Z" transform="translate(8.73)"/>
              <path class="cls-9" d="M364.65,607.82a.9.9,0,0,0-1.15-.54.91.91,0,0,0-.54,1.16c.85,2.28,1.73,4.54,2.62,6.71a.91.91,0,0,0,.83.56,1,1,0,0,0,.34-.07.9.9,0,0,0,.49-1.17C366.35,612.32,365.48,610.08,364.65,607.82Z" transform="translate(8.73)"/>
              <path class="cls-9" d="M360.14,594.26a.89.89,0,1,0-1.71.51c.7,2.35,1.43,4.66,2.16,6.87a.89.89,0,0,0,.85.61.88.88,0,0,0,.85-1.18C361.57,598.88,360.84,596.59,360.14,594.26Z" transform="translate(8.73)"/>
              <path class="cls-9" d="M357.44,584.63a7.88,7.88,0,0,1-1.53,1.2c.18.68.36,1.36.54,2a.89.89,0,0,0,.86.66l.24,0a.89.89,0,0,0,.63-1.1C357.93,586.49,357.69,585.56,357.44,584.63Z" transform="translate(8.73)"/>
              <path class="cls-9" d="M370.1,621a.9.9,0,0,0-1.63.76c1,2.21,2.1,4.38,3.19,6.47a.9.9,0,0,0,.79.48.92.92,0,0,0,.42-.1.9.9,0,0,0,.38-1.21C372.17,625.34,371.11,623.19,370.1,621Z" transform="translate(8.73)"/>
              <path class="cls-9" d="M428.61,702a.9.9,0,0,0-1.26-.12.91.91,0,0,0-.12,1.27c1.54,1.83,3.08,3.67,4.62,5.49a.9.9,0,0,0,.69.32.87.87,0,0,0,.57-.21.9.9,0,0,0,.11-1.27Q430.91,704.78,428.61,702Z" transform="translate(8.73)"/>
              <path class="cls-9" d="M419.5,691a.9.9,0,0,0-1.26-.13.88.88,0,0,0-.13,1.26q2.26,2.79,4.54,5.56a.93.93,0,0,0,.69.33.87.87,0,0,0,.57-.21.89.89,0,0,0,.13-1.26Q421.76,693.75,419.5,691Z" transform="translate(8.73)"/>
              <path class="cls-9" d="M384.54,645.54a.89.89,0,0,0-1.25-.21.9.9,0,0,0-.2,1.25c1.39,1.95,2.81,3.88,4.23,5.81a.92.92,0,0,0,.72.36.87.87,0,0,0,.53-.18.88.88,0,0,0,.19-1.25C387.34,649.4,385.93,647.48,384.54,645.54Z" transform="translate(8.73)"/>
              <path class="cls-9" d="M438.83,714.1l-1-1.13a.9.9,0,1,0-1.36,1.17l1,1.13a.89.89,0,0,0,.68.31.93.93,0,0,0,.59-.21A.9.9,0,0,0,438.83,714.1Z" transform="translate(8.73)"/>
              <path class="cls-9" d="M410.53,679.78a.89.89,0,1,0-1.4,1.11q2.22,2.82,4.47,5.62a.9.9,0,0,0,1.4-1.12Q412.75,682.59,410.53,679.78Z" transform="translate(8.73)"/>
              <path class="cls-9" d="M393,657.07a.89.89,0,1,0-1.43,1.07q2.14,2.88,4.32,5.73a.88.88,0,0,0,.72.36.92.92,0,0,0,.54-.18.9.9,0,0,0,.17-1.26Q395.19,659.94,393,657.07Z" transform="translate(8.73)"/>
              <path class="cls-9" d="M401.71,668.48a.9.9,0,0,0-1.42,1.1l4.4,5.67a.88.88,0,0,0,.71.34.89.89,0,0,0,.7-1.44Z" transform="translate(8.73)"/>
            </g>
            <path class="cls-6" d="M356.21,526.61q-12.1,48.12-24.2,96.24c-2.93,11.63-7.34,23.09-14,33.09-20.72,6.38-41.81,12.82-63.48,12.92-11.39.06-22.71-1.64-34-3.34-18.08-2.72-36.37-6.89-52-16.43-.89-6.88-1.18-15-1.75-21.87l-6.52-78.7c4.31,2.06,10.17,2.4,14.91,1.88l26.41-2.95,96.23-10.77,36.48-4.09C343,531.62,348.37,530.42,356.21,526.61Z" transform="translate(8.73)"/>
            <path class="cls-12" d="M453.35,1393.88a236.6,236.6,0,0,1-49.28,12.91c-26.79,3.82-28.72.54-28.72.54l-48.78-322s-13.61-35.4-31.92-83.13q-2.14-5.62-4.39-11.47C271.88,942.77,249.77,885,232,838.31l-.63-1.65c-18.19-47.83-31.64-83.63-31.51-84.51.31-2.13,6.72-59.54,9.37-83.3.44-4-1.79-18.85,1.13-20,18.83,4.48,43.35,2.95,61.87.89,32.27-3.58,52.89-7.17,52.89-7.17s44.72,99.17,62.76,158.69c17.93,59.17,46.62,289.59,46.62,289.59Z" transform="translate(8.73)"/>
            <path class="cls-13" d="M294.65,1002.17q-2.14-5.62-4.39-11.47C271.88,942.77,249.77,885,232,838.31l-.63-1.65c6.25-39,13.27-77.94,11.19-117.21,29.66,50.65,40,110.23,44.77,168.74,1.74,21.46,2.81,43,4,64.45C292.27,969.16,293.23,985.68,294.65,1002.17Z" transform="translate(8.73)"/>
            <path class="cls-12" d="M263.28,650.64c-23.31.9-32.18.17-54.69-5.38-13.43-3.31-31.38-10.76-42.14-19.72-17,30.48-41.89,76-47.51,131.79-11.66,115.66,36.54,338.49,36.54,338.49s-15.34,211.18-24,325.86c19.13,7.65,19.11,8.07,40.25,8.07,23,0,24.54.34,45.82-7.18l54.79-329.63C270.75,950,269.32,793.43,263.28,650.64Z" transform="translate(8.73)"/>
            <g>
              <path class="cls-9" d="M345.61,561.07c-26.39,2.25-52.89-.26-79.27-2.57q-25.35-2.22-50.61-5.41-12.84-1.64-25.65-3.5c-6.54-1-14.69-2.78-21.07-.31-13.62,5.3-11.91,30.34-11.53,41.92.35,10.24,6.76,14.73,15.56,17.86,45.22,16.05,94.56,16.72,141.94,9.28,7.16-1.13,17.15-1,21.71-7.61,7.22-10.48,12-24.47,16.74-36.27C356.1,567.88,353.81,560.37,345.61,561.07Z" transform="translate(8.73)"/>
              <g>
                <path class="cls-10" d="M162.29,600.25h0a.81.81,0,0,1-.7-.9l1.13-9.17a.84.84,0,0,1,.91-.71.82.82,0,0,1,.7.91l-1.14,9.17A.8.8,0,0,1,162.29,600.25Z" transform="translate(8.73)"/>
                <path class="cls-10" d="M167.53,605h-.1a.82.82,0,0,1-.62-1c.77-3.67,1.49-7.41,2.14-11.11a.83.83,0,0,1,.94-.66.81.81,0,0,1,.65.94c-.65,3.72-1.37,7.48-2.15,11.16A.81.81,0,0,1,167.53,605Z" transform="translate(8.73)"/>
                <path class="cls-10" d="M173.87,607.83l-.11,0a.81.81,0,0,1-.61-1,95,95,0,0,0,1.93-12.12A.84.84,0,0,1,176,594a.8.8,0,0,1,.72.88,98.56,98.56,0,0,1-2,12.33A.81.81,0,0,1,173.87,607.83Z" transform="translate(8.73)"/>
                <path class="cls-10" d="M179.35,610.07l-.18,0a.81.81,0,0,1-.52-1,99.22,99.22,0,0,0,3.22-12.47.8.8,0,1,1,1.58.3,98.52,98.52,0,0,1-3.26,12.67A.81.81,0,0,1,179.35,610.07Z" transform="translate(8.73)"/>
                <path class="cls-10" d="M186.38,611.87h-.11a.81.81,0,0,1-.61-1l2.6-11.57a.81.81,0,0,1,1.58.35l-2.61,11.57A.8.8,0,0,1,186.38,611.87Z" transform="translate(8.73)"/>
                <path class="cls-10" d="M193.09,613.39H193a.81.81,0,0,1-.65-.94l2.25-12.07a.81.81,0,0,1,1.59.29L194,612.73A.79.79,0,0,1,193.09,613.39Z" transform="translate(8.73)"/>
                <path class="cls-10" d="M199.5,613.43h-.09a.82.82,0,0,1-.64-.95,97.34,97.34,0,0,1,2.58-9.94.79.79,0,0,1,1-.53.81.81,0,0,1,.53,1,96.6,96.6,0,0,0-2.53,9.77A.81.81,0,0,1,199.5,613.43Z" transform="translate(8.73)"/>
                <path class="cls-10" d="M205.78,616.61l-.1,0a.81.81,0,0,1-.63-1l2.63-12.53a.81.81,0,0,1,1.58.34L206.63,616A.8.8,0,0,1,205.78,616.61Z" transform="translate(8.73)"/>
                <path class="cls-10" d="M211.55,617.7h-.11a.81.81,0,0,1-.61-1c.87-3.83,1.7-7.72,2.48-11.57a.81.81,0,0,1,1-.63.82.82,0,0,1,.63,1c-.79,3.85-1.62,7.75-2.49,11.6A.81.81,0,0,1,211.55,617.7Z" transform="translate(8.73)"/>
                <path class="cls-10" d="M217.86,617.74a.82.82,0,0,1-.75-.83,29.81,29.81,0,0,1,1.62-8l.08-.26a12.66,12.66,0,0,0,.78-3.36.81.81,0,0,1,.84-.78.84.84,0,0,1,.77.85,14.5,14.5,0,0,1-.85,3.79l-.08.26a27.7,27.7,0,0,0-1.54,7.51.81.81,0,0,1-.83.79Z" transform="translate(8.73)"/>
                <path class="cls-10" d="M223.49,619.05h-.06a.82.82,0,0,1-.68-.92c.61-4,1.42-8.06,2.4-12a.8.8,0,0,1,1-.59.81.81,0,0,1,.59,1c-1,3.9-1.77,7.89-2.37,11.86A.81.81,0,0,1,223.49,619.05Z" transform="translate(8.73)"/>
                <path class="cls-10" d="M230.67,619.15l-.12,0a.81.81,0,0,1-.6-1c.66-2.7,1.35-5.48,1.86-8.23a8,8,0,0,0,.14-3.14.81.81,0,0,1,.62-1,.8.8,0,0,1,1,.61,9.41,9.41,0,0,1-.13,3.78c-.52,2.8-1.21,5.6-1.87,8.31A.83.83,0,0,1,230.67,619.15Z" transform="translate(8.73)"/>
                <path class="cls-10" d="M237.58,620.45h-.07a.81.81,0,0,1-.67-.93l1.69-10.14a12.17,12.17,0,0,0,.24-2.07.8.8,0,0,1,.81-.8.81.81,0,0,1,.81.81,15.53,15.53,0,0,1-.26,2.32l-1.69,10.15A.81.81,0,0,1,237.58,620.45Z" transform="translate(8.73)"/>
                <path class="cls-10" d="M243.86,619.78h0a.81.81,0,0,1-.71-.9c.44-3.91,1.08-7.84,1.89-11.69a.81.81,0,0,1,1-.62.81.81,0,0,1,.63.95c-.81,3.8-1.44,7.69-1.87,11.55A.81.81,0,0,1,243.86,619.78Z" transform="translate(8.73)"/>
                <path class="cls-10" d="M249.93,620.89l-.14,0a.81.81,0,0,1-.57-1,66.13,66.13,0,0,0,2-12.18.81.81,0,0,1,.86-.76.8.8,0,0,1,.76.86,67.68,67.68,0,0,1-2.05,12.49A.81.81,0,0,1,249.93,620.89Z" transform="translate(8.73)"/>
                <path class="cls-10" d="M256,621.27h0a.8.8,0,0,1-.72-.88l1.12-11.45a.79.79,0,0,1,.88-.73.82.82,0,0,1,.73.89l-1.12,11.44A.82.82,0,0,1,256,621.27Z" transform="translate(8.73)"/>
                <path class="cls-10" d="M262.14,620.22a.8.8,0,0,1-.74-.85l.68-11.72a.81.81,0,0,1,.86-.76.82.82,0,0,1,.76.85L263,619.46a.79.79,0,0,1-.85.76Z" transform="translate(8.73)"/>
                <path class="cls-10" d="M267.63,621.76h0a.81.81,0,0,1-.69-.91l1.72-13.08a.81.81,0,1,1,1.6.21l-1.72,13.08A.81.81,0,0,1,267.63,621.76Z" transform="translate(8.73)"/>
                <path class="cls-10" d="M274.23,618.7h0a.82.82,0,0,1-.7-.9l1.29-10.47a.85.85,0,0,1,.9-.71.81.81,0,0,1,.7.91L275.1,618A.81.81,0,0,1,274.23,618.7Z" transform="translate(8.73)"/>
                <path class="cls-10" d="M280.48,619.11h-.05a.81.81,0,0,1-.69-.92l1.73-11.88a.81.81,0,0,1,1.6.24l-1.73,11.87A.81.81,0,0,1,280.48,619.11Z" transform="translate(8.73)"/>
                <path class="cls-10" d="M286.87,618.73a.84.84,0,0,1-.71-.56,1.78,1.78,0,0,1,0-1.08l2.39-10.24a.81.81,0,1,1,1.57.36l-2.39,10.25a1.7,1.7,0,0,0,0,.22.79.79,0,0,1-.49,1A.93.93,0,0,1,286.87,618.73Z" transform="translate(8.73)"/>
                <path class="cls-10" d="M294.23,617.61a.81.81,0,0,1-.74-.87,81.34,81.34,0,0,1,1.76-11.52.81.81,0,1,1,1.57.36,79.6,79.6,0,0,0-1.72,11.28.82.82,0,0,1-.87.75Z" transform="translate(8.73)"/>
                <path class="cls-10" d="M301,616.85h-.06a.81.81,0,0,1-.67-.93l1.87-11.86a.81.81,0,0,1,1.6.25l-1.88,11.87A.8.8,0,0,1,301,616.85Z" transform="translate(8.73)"/>
                <path class="cls-10" d="M307.4,616.78h0a.81.81,0,0,1-.69-.92l1.74-12.48a.78.78,0,0,1,.92-.68.8.8,0,0,1,.68.91l-1.74,12.48A.81.81,0,0,1,307.4,616.78Z" transform="translate(8.73)"/>
                <path class="cls-10" d="M313.8,615.42a.8.8,0,0,1-.34-.11.93.93,0,0,1-.42-1l1.68-7.7a16.6,16.6,0,0,0,.53-3.94.8.8,0,0,1,.78-.83.81.81,0,0,1,.84.78,17.81,17.81,0,0,1-.57,4.34l-1.6,7.36a.93.93,0,0,1-.24.91A.87.87,0,0,1,313.8,615.42Zm.83-.8h0Z" transform="translate(8.73)"/>
                <path class="cls-10" d="M320.64,615.24h0a.81.81,0,0,1-.72-.89,116.61,116.61,0,0,1,2.15-13.26.79.79,0,0,1,1-.61.8.8,0,0,1,.62,1,115.71,115.71,0,0,0-2.13,13.08A.8.8,0,0,1,320.64,615.24Z" transform="translate(8.73)"/>
                <path class="cls-10" d="M326,613.72l-.15,0a.8.8,0,0,1-.58-1c1-4.38,2.07-8.8,3.28-13.13a.82.82,0,0,1,1-.56.8.8,0,0,1,.56,1c-1.13,4.05-2.17,8.17-3.08,12.26a.86.86,0,0,1,0,.39l-.17.49A.81.81,0,0,1,326,613.72Z" transform="translate(8.73)"/>
                <path class="cls-10" d="M333.52,609.35a.53.53,0,0,1-.24-.06.81.81,0,0,1-.44-1c1.33-3.21,2.52-6.53,3.53-9.87a.81.81,0,0,1,1.55.48c-1,3.38-2.23,6.75-3.58,10A.82.82,0,0,1,333.52,609.35Z" transform="translate(8.73)"/>
              </g>
            </g>
            <path class="cls-6" d="M281.48,743.12S250,729.47,250,729.47c-4.64-2-9.42-3.68-14-5.88a48.12,48.12,0,0,1-6.65-3.82c-1.91-1.35-4.44-3.19-1-3.72a34.75,34.75,0,0,1,7,.06c3.55.15,7.5.32,11-.65a6.66,6.66,0,0,0,4.57-3.72c.93-2.47-.45-5.31-2.56-6.91l-.24-.17c-2.24-1.56-5-2-7.74-2.45-8.68-1.28-17.69-1.44-26.25-3.32-4.94-1.09-9.34-3-14.43-3.65a65.75,65.75,0,0,0-12.47-.21l-5.78-6,.26-.48c-1.77-1.89-3.56-3.78-5.35-5.68q-10,16.92-20,33.8a88.08,88.08,0,0,0,7.43,5.16l.1-.17c3.55,15.33,15,30.94,27.83,38.35a18.7,18.7,0,0,1,3.75,2.5,15.15,15.15,0,0,1,2.11,2.79q5.47,8.69,10.3,17.75c2,3.79,4.69,12.87,10.08,12.83a5.1,5.1,0,0,0,4.41-7.4q-4.8-8.78-9.86-17.41a57.82,57.82,0,0,1-3.71-6.49c-.3-.72-1.24-2.42-.83-3.24,2.15-4.19,8.12,3.34,9.61,4.95q4.22,4.51,8.48,9c4,4.22,8.1,8.37,12.22,12.5,2.59,2.58,5.95,7.65,10.25,5.61a5,5,0,0,0,1.46-7.91c-1.33-1.3-2.63-2.6-3.93-3.9a5,5,0,0,0-1-1.42q-6.63-7.15-12.87-14.63-3.12-3.74-6.19-7.52c-.85-1.06-5.93-4.86-4.28-6.49,1.87-1.88,7.43,3.65,8.83,4.53l12.06,7.54c5.39,3.37,10.65,6.93,16,10.28,3.35,2.07,9.12,7.35,12.95,3.49a5.22,5.22,0,0,0-.46-7.53,6.2,6.2,0,0,0-.75-.8c-6.84-6.22-14.48-11.48-22-16.82-3.71-2.61-7.39-5.25-11-8-1.84-1.45-3.65-2.92-5.42-4.47-.72-.63-2.88-1.87-2.08-3s3.26-.09,4.17.21c2.46.84,4.68,2.55,7.08,3.34,4.13,1.32,8.28,2.68,12.41,4,5.75,1.92,11.5,3.83,17.24,5.79,3.44,1.16,8.65,4.67,12,1.47C285.25,749.2,284.58,744.46,281.48,743.12Z" transform="translate(8.73)"/>
            <g>
              <path class="cls-9" d="M185,684.87c-2.7-3.42-6.74-5.78-10.52-8a71.71,71.71,0,0,0-9-4.52c-.87-.36-9.22-3.87-9.56-3.32l-23.82,38.44c-.56,1,20.64,14.22,22.4,15.34,2.6,1.63,5.54,3,8.6,2.83,5.22-.19,9.31-4.3,12.32-8.16,5.71-7.32,14.8-16.74,12.28-27.06A14.45,14.45,0,0,0,185,684.87Z" transform="translate(8.73)"/>
              <path class="cls-10" d="M163.4,721q-7.53-5.5-15.47-10.43c-1-.61-1.83,1-.85,1.58q7.75,4.8,15.1,10.17C163.11,723,164.33,721.68,163.4,721Z" transform="translate(8.73)"/>
              <path class="cls-10" d="M168.42,717.39l-16.26-11.64c-.93-.67-2.16.64-1.22,1.31l16.26,11.65C168.13,719.37,169.36,718.06,168.42,717.39Z" transform="translate(8.73)"/>
              <path class="cls-10" d="M181.83,692.65,165.57,681c-.93-.66-2.16.64-1.22,1.31L180.61,694C181.54,694.63,182.77,693.33,181.83,692.65Z" transform="translate(8.73)"/>
              <path class="cls-10" d="M173.91,711q-9.71-5.87-19.81-11c-1-.52-1.88,1.06-.85,1.58q10.11,5.13,19.81,11C174.05,713.15,174.89,711.57,173.91,711Z" transform="translate(8.73)"/>
              <path class="cls-10" d="M176.77,704.92c-3.09-2-6.18-4.07-9.27-6.12a59.92,59.92,0,0,1-8.18-6.27c-.83-.79-1.88.67-1.06,1.45a59.06,59.06,0,0,0,8.18,6.26l9.27,6.13C176.67,707,177.73,705.56,176.77,704.92Z" transform="translate(8.73)"/>
              <path class="cls-10" d="M185.11,688.45c-3.09-2-6.18-4.07-9.26-6.12a59.43,59.43,0,0,1-8.18-6.26c-.84-.8-1.89.66-1.06,1.44a58.47,58.47,0,0,0,8.18,6.26c3.08,2.06,6.17,4.09,9.26,6.13C185,690.53,186.07,689.09,185.11,688.45Z" transform="translate(8.73)"/>
              <path class="cls-10" d="M181,699.37q-9.37-6.09-19.16-11.5a.9.9,0,0,0-.85,1.58q9.8,5.41,19.17,11.51C181.13,701.59,182,700,181,699.37Z" transform="translate(8.73)"/>
            </g>
            <path class="cls-11" d="M345.54,355.22c-1.5-4-13.63-12.63-13.63-12.63s-72.56-14.64-107-10.25a268.69,268.69,0,0,0-50.71,11.51c-18.07,6-33.87,13.16-48.78,25.19C110.22,381.32,96.75,395.65,84,410.4c-6.16,7.13-12.17,14.4-18.14,21.69-17.14,21-35.12,42-49.46,65.09C-4.31,530.5-19.32,573.08.69,610.31c12,22.27,31.64,39.51,51,55.26,23,18.75,48.27,35.58,75.32,48.12a16.44,16.44,0,0,0,21-6.32,241.06,241.06,0,0,0,15-29.83,21.58,21.58,0,0,0-1.17-19.18c-18.33-32.1-41.09-62.18-69.22-91.49,20.67-19.7,41.24-40.52,57.88-63.47A458.68,458.68,0,0,1,151.69,563c-.29,5.72-.64,11.79,2.1,16.82,3.47,6.36,10.9,9.3,17.81,11.5A298.89,298.89,0,0,0,328,597.34c10.39-2.39,21.25-5.77,27.76-14.8,5.9-8.21,7.33-18.76,9-28.47A381.16,381.16,0,0,0,369.83,504,384.93,384.93,0,0,0,345.54,355.22Z" transform="translate(8.73)"/>
            <path class="cls-7" d="M535.73,1496.57c-11.51,2-23.83,1.1-35.46,1.1-33.31,0-66.56-1.62-99.83-3.2-5.3-.26-10.75-.55-15.59-2.71a21.75,21.75,0,0,1-9.34-8.06,16.82,16.82,0,0,1-2.64-7.12,13,13,0,0,1-.05-2.64c.21-3.53,1.54-7,2.84-10.3,2.36-6.1,3.49-10.56,5.87-16.66,26.43,0,52.72-4.92,78.22-11.91l7.65,3.86,44.16,22.25,17.93,9,4.29,2.17c4.22,2.13,10.23,3.46,13.32,7.32a8.74,8.74,0,0,1,1.6,3.11C551.22,1491.65,543,1495.33,535.73,1496.57Z" transform="translate(8.73)"/>
            <g>
              <path class="cls-9" d="M316.16,329.75c-.39-1.54-.86-3.1-1.15-4.57-1.17-6.07-.05-13.82-6.75-18-3.29-2.06-7.35-1.7-11.15-1.75-4.48-.06-9,0-13.44-.08a177.84,177.84,0,0,1-28.08-2.85c-4.72-.86-9.41-1.91-14-3.16-4.17-1.11-8.39-3-12.72-3.42-3.11-.31-6.5.45-8.29,2.59a10.15,10.15,0,0,0-1.84,4.85c-1.64,8.61-3.15,17.38-1.77,26.13.43,2.69,1.22,5.51,3.4,7.54,4.91,4.57,15.66,6,22.28,7.4,21.89,4.66,45.33,5.28,65.89-2.26,2.48-.91,5-2,6.68-3.75C317.66,335.85,317,332.82,316.16,329.75Z" transform="translate(8.73)"/>
              <g>
                <path class="cls-10" d="M227,338.51a.81.81,0,0,1-.71-.6,115.76,115.76,0,0,1-.56-38.54.77.77,0,0,1,.89-.57h0a.74.74,0,0,1,.7.8,114.44,114.44,0,0,0,.56,38.14.69.69,0,0,1-.68.77Z" transform="translate(8.73)"/>
                <path class="cls-10" d="M233.89,340.94h0a.76.76,0,0,1-.7-.8c.89-5.83.75-11.86.62-17.69L233.36,303c0-.57-.11-.74-.19-.79a.65.65,0,0,1-.22-1,.87.87,0,0,1,1.12-.15,2.13,2.13,0,0,1,.9,1.94l.45,19.42c.13,5.88.27,12-.64,17.89A.75.75,0,0,1,233.89,340.94Z" transform="translate(8.73)"/>
                <path class="cls-10" d="M242.33,342.68a.79.79,0,0,1-.72-.71c-.07-12.58.31-25.32,1.13-37.85a.73.73,0,0,1,.85-.62.79.79,0,0,1,.76.76c-.81,12.5-1.19,25.2-1.12,37.75a.72.72,0,0,1-.81.67Z" transform="translate(8.73)"/>
                <path class="cls-10" d="M249.21,344.09a.77.77,0,0,1-.72-.76,294.83,294.83,0,0,0,.57-37.49.72.72,0,0,1,.78-.7.81.81,0,0,1,.84.7,297.22,297.22,0,0,1-.58,37.64.74.74,0,0,1-.86.61Z" transform="translate(8.73)"/>
                <path class="cls-10" d="M256.83,346.22h0a.75.75,0,0,1-.71-.79,112,112,0,0,0,.55-19.86l0-.76a43.91,43.91,0,0,1,.15-8.42c.14-1,.34-1.92.54-2.88a21.56,21.56,0,0,0,.69-5.34.72.72,0,0,1,.79-.68.8.8,0,0,1,.83.7,22.9,22.9,0,0,1-.72,5.62c-.2.93-.4,1.86-.53,2.8a43.19,43.19,0,0,0-.13,8.2l0,.76a111.52,111.52,0,0,1-.56,20.07A.75.75,0,0,1,256.83,346.22Z" transform="translate(8.73)"/>
                <path class="cls-10" d="M263.44,345.64h0a.75.75,0,0,1-.68-.81,154.55,154.55,0,0,0,2-35.77.71.71,0,0,1,.77-.7.78.78,0,0,1,.84.68,155.82,155.82,0,0,1-2,36.05A.77.77,0,0,1,263.44,345.64Z" transform="translate(8.73)"/>
                <path class="cls-10" d="M272.31,345.36h0a.74.74,0,0,1-.67-.81,30.12,30.12,0,0,0-.05-8.32c-.13-1.29-.26-2.63-.31-4a67.11,67.11,0,0,1,.41-8.76c.43-4.77.87-9.71-.5-14.41a.67.67,0,0,1,.59-.82.85.85,0,0,1,1,.54c1.43,4.92,1,10,.54,14.85a66.91,66.91,0,0,0-.41,8.61c0,1.29.18,2.61.31,3.89a31.32,31.32,0,0,1,0,8.65A.76.76,0,0,1,272.31,345.36Z" transform="translate(8.73)"/>
                <path class="cls-10" d="M279.28,344.83a.77.77,0,0,1-.71-.77,277.14,277.14,0,0,0,1-35.07.72.72,0,0,1,.78-.69.8.8,0,0,1,.83.7,279.73,279.73,0,0,1-1,35.23.74.74,0,0,1-.87.6Z" transform="translate(8.73)"/>
                <path class="cls-10" d="M287.16,343.08a.77.77,0,0,1-.72-.78c1.13-10.56,2.29-21.48.18-32.21a.68.68,0,0,1,.66-.77.83.83,0,0,1,.93.59c2.14,10.91,1,21.93-.16,32.57a.75.75,0,0,1-.87.6Z" transform="translate(8.73)"/>
                <path class="cls-10" d="M294,344.25a.77.77,0,0,1-.72-.72l.14-33.44a.73.73,0,0,1,.81-.67.79.79,0,0,1,.8.73l-.14,33.45a.72.72,0,0,1-.81.66Z" transform="translate(8.73)"/>
                <path class="cls-10" d="M302.1,342.12a.76.76,0,0,1-.71-.73,234.15,234.15,0,0,0-.83-31.32.71.71,0,0,1,.74-.72.81.81,0,0,1,.87.66,234.92,234.92,0,0,1,.83,31.48.74.74,0,0,1-.84.64Z" transform="translate(8.73)"/>
                <path class="cls-10" d="M310,339.1l-.16,0a.69.69,0,0,1-.51-.89c1-2.5.54-5.2.07-8.06a35.72,35.72,0,0,1-.51-4c-.06-1.08,0-2.15,0-3.19s.08-2.11,0-3.16c-.2-3.43-1.5-6.82-2.77-10.1a.66.66,0,0,1,.51-.86.89.89,0,0,1,1,.48c1.29,3.36,2.63,6.85,2.84,10.47a32.59,32.59,0,0,1,0,3.28c0,1-.08,2.05,0,3.07A37.11,37.11,0,0,0,311,330c.47,2.89,1,5.89-.14,8.69A.8.8,0,0,1,310,339.1Z" transform="translate(8.73)"/>
              </g>
            </g>
            <path class="cls-6" d="M224.73,256.24a31.13,31.13,0,0,1-30.15,6A30.62,30.62,0,0,1,176,243.58a28.72,28.72,0,0,1-1.21-4.79,22.18,22.18,0,0,1,.2-8.63c1.7-7,7.95-12.44,15-13.7a22,22,0,0,1,19.48,6.73l5.85,12.71Z" transform="translate(8.73)"/>
            <path class="cls-9" d="M340.65,593.69c4-2.3,8.07-4.29,11.82-6.6s7.08-5.05,9.18-8.71a22.88,22.88,0,0,0,2.35-5.89,17.06,17.06,0,0,0,.54-6.23c-.2-2.15-.61-4.4-.92-6.65s-.59-4.54-.83-6.81c-.45-4.55-.69-9.1-.84-13.65s-.16-9.11-.06-13.65c.17-9.08.67-18.14,1.18-27.19,1-18.09,2.42-36.15,2-54.26a415.59,415.59,0,0,0-4.46-54.1A413.38,413.38,0,0,1,366,444c.71,18.14-.39,36.29-1.11,54.37-.36,9.05-.71,18.1-.74,27.13,0,4.52.05,9,.3,13.52s.53,9,1.05,13.46c.27,2.23.56,4.45.92,6.67s.78,4.43,1,6.8a20.22,20.22,0,0,1-.5,7.23,25.84,25.84,0,0,1-2.57,6.73,24.11,24.11,0,0,1-4.48,5.7,37.8,37.8,0,0,1-5.65,4.3c-3.93,2.5-8,4.55-11.8,6.84Z" transform="translate(8.73)"/>
            <path class="cls-9" d="M150.13,363.55A43.07,43.07,0,0,1,161.2,375.6,62.74,62.74,0,0,1,168,390.67a96.34,96.34,0,0,1,3.39,16.16,152.62,152.62,0,0,1,1.13,16.41c.05,5.48-.18,11-.65,16.42s-1.23,10.88-2.28,16.25a109.41,109.41,0,0,1-10.44,30.94,154,154,0,0,0,7.68-31.4c.71-5.34,1.35-10.69,1.66-16.06s.55-10.74.44-16.11a159.58,159.58,0,0,0-.91-16.06c-.25-2.67-.62-5.32-1.05-8s-1-5.24-1.65-7.83a78.46,78.46,0,0,0-2.37-7.64c-.42-1.27-1-2.48-1.47-3.72s-1.1-2.43-1.75-3.6A49.42,49.42,0,0,0,150.13,363.55Z" transform="translate(8.73)"/>
            <g>
              <path class="cls-9" d="M216,344.08a.9.9,0,0,1-.85-.6.89.89,0,0,1,.55-1.14l3.38-1.2a.91.91,0,0,1,1.15.55.89.89,0,0,1-.55,1.14l-3.38,1.2A1,1,0,0,1,216,344.08Z" transform="translate(8.73)"/>
              <path class="cls-9" d="M137.54,695.07a1,1,0,0,1-.49-.14L131,691a.9.9,0,1,1,1-1.5q3,2,6.05,3.91a.89.89,0,0,1,.27,1.24A.91.91,0,0,1,137.54,695.07Zm-12.1-7.86a.87.87,0,0,1-.49-.14c-2-1.33-4-2.65-6-4a.91.91,0,0,1-.25-1.25.9.9,0,0,1,1.25-.24l6,4a.89.89,0,0,1-.49,1.64Zm-12-8a.85.85,0,0,1-.5-.16q-3-2-5.94-4.11a.9.9,0,1,1,1-1.47c2,1.38,3.94,2.75,5.92,4.1a.9.9,0,0,1-.51,1.64Zm-11.8-8.29a.9.9,0,0,1-.52-.17q-2.94-2.12-5.83-4.28a.91.91,0,0,1-.18-1.26.91.91,0,0,1,1.26-.18q2.88,2.16,5.8,4.27a.9.9,0,0,1,.2,1.25A.91.91,0,0,1,101.65,670.9Zm-11.54-8.65a.86.86,0,0,1-.55-.19c-1.92-1.48-3.82-3-5.67-4.49a.9.9,0,0,1-.13-1.26.89.89,0,0,1,1.26-.13c1.84,1.48,3.73,3,5.64,4.47a.9.9,0,0,1,.16,1.26A.93.93,0,0,1,90.11,662.25Zm-11.2-9.08a.86.86,0,0,1-.58-.22c-1.86-1.58-3.7-3.17-5.46-4.74a.9.9,0,0,1-.07-1.27.89.89,0,0,1,1.26-.07c1.75,1.56,3.58,3.15,5.43,4.72a.9.9,0,0,1-.58,1.58ZM68.1,643.61a.9.9,0,0,1-.6-.24c-1.76-1.6-3.54-3.23-5.32-4.88a.9.9,0,1,1,1.22-1.31c1.77,1.65,3.55,3.27,5.31,4.86a.91.91,0,0,1,.06,1.27A.89.89,0,0,1,68.1,643.61Zm-10.56-9.83a.92.92,0,0,1-.62-.25c-1.81-1.75-3.54-3.46-5.16-5.09A.9.9,0,0,1,53,627.18c1.6,1.62,3.32,3.32,5.12,5.06a.89.89,0,0,1-.62,1.54ZM47.41,623.5a.87.87,0,0,1-.66-.29c-1.69-1.82-3.32-3.64-4.83-5.4a.9.9,0,0,1,1.36-1.17c1.5,1.75,3.11,3.55,4.79,5.36a.9.9,0,0,1,0,1.26A.91.91,0,0,1,47.41,623.5Zm-9.37-11a.87.87,0,0,1-.71-.34c-1.53-2-3-3.93-4.3-5.85a.9.9,0,0,1,.23-1.25.89.89,0,0,1,1.24.23c1.31,1.9,2.74,3.84,4.24,5.77a.89.89,0,0,1-.15,1.26A1,1,0,0,1,38,612.54Zm-8.17-11.87a.9.9,0,0,1-.77-.44c-1.27-2.13-2.44-4.28-3.47-6.4a.9.9,0,0,1,1.61-.79c1,2.08,2.16,4.19,3.4,6.28a.89.89,0,0,1-.31,1.22A.87.87,0,0,1,29.87,600.67Zm-6.31-12.95a.89.89,0,0,1-.84-.58,68.31,68.31,0,0,1-2.23-6.95.9.9,0,0,1,1.74-.45,64,64,0,0,0,2.17,6.77.9.9,0,0,1-.52,1.15A1,1,0,0,1,23.56,587.72ZM19.94,573.8a.9.9,0,0,1-.89-.77l-.12-.94a58.21,58.21,0,0,1-.43-6.36.89.89,0,0,1,.88-.91.91.91,0,0,1,.91.88,57.06,57.06,0,0,0,.42,6.17l.12.91a.89.89,0,0,1-.77,1Zm-.21-14.39h-.09a.89.89,0,0,1-.8-1A69.91,69.91,0,0,1,20,551.21a.9.9,0,0,1,1.06-.69.88.88,0,0,1,.69,1.06c-.49,2.37-.87,4.74-1.11,7A.9.9,0,0,1,19.73,559.41Zm2.93-14.1a1.09,1.09,0,0,1-.26,0,.9.9,0,0,1-.6-1.12c.68-2.24,1.48-4.56,2.38-6.88a.9.9,0,1,1,1.67.65c-.88,2.28-1.67,4.55-2.33,6.75A.9.9,0,0,1,22.66,545.31Zm5.16-13.45a1,1,0,0,1-.37-.08.9.9,0,0,1-.44-1.19c1-2.11,2-4.31,3.18-6.52a.89.89,0,1,1,1.59.82c-1.13,2.19-2.19,4.36-3.14,6.44A.91.91,0,0,1,27.82,531.86ZM34.42,519a.87.87,0,0,1-.44-.11.9.9,0,0,1-.34-1.22c1.13-2,2.32-4,3.66-6.25a.89.89,0,1,1,1.53.92c-1.32,2.2-2.51,4.23-3.63,6.21A.88.88,0,0,1,34.42,519Zm7.42-12.37a.91.91,0,0,1-.48-.13.9.9,0,0,1-.28-1.24q1.91-3.06,3.87-6.1a.91.91,0,0,1,1.24-.27.9.9,0,0,1,.26,1.24c-1.29,2-2.58,4-3.85,6.08A.9.9,0,0,1,41.84,506.66Zm7.8-12.12a.88.88,0,0,1-.49-.15.9.9,0,0,1-.25-1.25c1.32-2,2.67-4,4-6a.89.89,0,0,1,1.48,1c-1.35,2-2.68,4-4,6A.91.91,0,0,1,49.64,494.54Zm8.1-11.94a.89.89,0,0,1-.73-1.41c1.37-2,2.76-3.94,4.15-5.9a.9.9,0,1,1,1.46,1c-1.39,1.95-2.77,3.92-4.14,5.89A.88.88,0,0,1,57.74,482.6Zm8.36-11.75a.92.92,0,0,1-.52-.17.91.91,0,0,1-.2-1.26q2.12-2.91,4.27-5.82a.89.89,0,0,1,1.25-.19.91.91,0,0,1,.19,1.26c-1.43,1.93-2.85,3.86-4.26,5.81A.91.91,0,0,1,66.1,470.85Zm8.58-11.6a.9.9,0,0,1-.54-.18.91.91,0,0,1-.18-1.26c1.45-1.92,2.9-3.84,4.37-5.75a.9.9,0,1,1,1.42,1.09q-2.19,2.87-4.35,5.74A.89.89,0,0,1,74.68,459.25Zm8.76-11.46a.88.88,0,0,1-.55-.19.9.9,0,0,1-.16-1.26c1.47-1.9,3-3.79,4.44-5.69a.89.89,0,0,1,1.26-.15.9.9,0,0,1,.15,1.26q-2.22,2.83-4.43,5.68A.91.91,0,0,1,83.44,447.79Zm8.9-11.35a.92.92,0,0,1-.56-.19.9.9,0,0,1-.14-1.26q2.23-2.83,4.5-5.65a.9.9,0,0,1,1.4,1.12L93,436.1A.88.88,0,0,1,92.34,436.44Zm9-11.26a.94.94,0,0,1-.57-.2.9.9,0,0,1-.13-1.26l4.54-5.61a.9.9,0,1,1,1.39,1.13l-4.54,5.61A.87.87,0,0,1,101.36,425.18Zm9.09-11.2a.88.88,0,0,1-.57-.2.9.9,0,0,1-.13-1.26l4.57-5.59a.89.89,0,0,1,1.26-.12.9.9,0,0,1,.13,1.26l-4.57,5.58A.87.87,0,0,1,110.45,414Zm9.13-11.16a.89.89,0,0,1-.69-1.46l4.58-5.58a.89.89,0,0,1,1.38,1.14l-4.57,5.57A.9.9,0,0,1,119.58,402.82Zm9.2-11.11a.86.86,0,0,1-.58-.22.88.88,0,0,1-.1-1.26c1.72-2,3.28-3.8,4.78-5.44a.9.9,0,0,1,1.27-.05.89.89,0,0,1,.06,1.26c-1.49,1.62-3,3.39-4.75,5.39A.9.9,0,0,1,128.78,391.71Zm9.78-10.6a.9.9,0,0,1-.62-1.54c1.8-1.75,3.62-3.39,5.4-4.87a.91.91,0,0,1,1.27.12.9.9,0,0,1-.12,1.26c-1.75,1.45-3.53,3.06-5.31,4.78A.86.86,0,0,1,138.56,381.11ZM149.68,372a.92.92,0,0,1-.75-.39.9.9,0,0,1,.24-1.25c1.93-1.31,4-2.6,6.2-3.83a.9.9,0,0,1,1.22.34.91.91,0,0,1-.34,1.23c-2.14,1.2-4.19,2.46-6.07,3.75A.94.94,0,0,1,149.68,372Zm12.53-7.11a.9.9,0,0,1-.39-1.71c2.05-1,4.21-2,6.61-3a.9.9,0,0,1,.7,1.65c-2.37,1-4.51,2-6.53,2.95A.92.92,0,0,1,162.21,364.84Zm13.25-5.7a.9.9,0,0,1-.84-.56.91.91,0,0,1,.51-1.17l4.68-1.82,2.05-.78a.9.9,0,0,1,1.16.51.89.89,0,0,1-.52,1.16l-2.05.79-4.67,1.81A.87.87,0,0,1,175.46,359.14ZM188.92,354a.89.89,0,0,1-.31-1.73c2.25-.85,4.5-1.7,6.76-2.53a.9.9,0,0,1,.62,1.68l-6.75,2.52A.87.87,0,0,1,188.92,354Zm13.53-5a.9.9,0,0,1-.31-1.74l6.78-2.46a.91.91,0,0,1,1.15.54.89.89,0,0,1-.54,1.15q-3.39,1.21-6.78,2.46A1,1,0,0,1,202.45,349Z" transform="translate(8.73)"/>
              <path class="cls-9" d="M146.66,700.91a.84.84,0,0,1-.48-.14l-3-1.93a.91.91,0,0,1-.27-1.24.89.89,0,0,1,1.24-.27l3,1.93a.89.89,0,0,1,.27,1.24A.88.88,0,0,1,146.66,700.91Z" transform="translate(8.73)"/>
            </g>
            <path class="cls-14" d="M268.79,215.71c-.84-5-4.19-8.67-7.48-8.12s-5.28,5.08-4.44,10.12,4.2,8.67,7.49,8.12S269.64,220.75,268.79,215.71Z" transform="translate(8.73)"/>
            <path class="cls-14" d="M314.37,211.25c-.82-4.91-4.09-8.45-7.3-7.92s-5.15,5-4.33,9.87,4.09,8.46,7.3,7.92S315.19,216.17,314.37,211.25Z" transform="translate(8.73)"/>
            <path class="cls-14" d="M250.6,196.25a1.76,1.76,0,0,1-1.4-.68,1.79,1.79,0,0,1,.28-2.52,17.54,17.54,0,0,1,17.61-2.27,1.8,1.8,0,1,1-1.46,3.28,13.83,13.83,0,0,0-13.91,1.8A1.82,1.82,0,0,1,250.6,196.25Z" transform="translate(8.73)"/>
            <path class="cls-14" d="M297.51,192.05a1.79,1.79,0,0,1-1.07-3.23,16.28,16.28,0,0,1,16.31-1.58,1.8,1.8,0,0,1-1.55,3.24,12.58,12.58,0,0,0-12.62,1.22A1.78,1.78,0,0,1,297.51,192.05Z" transform="translate(8.73)"/>
            <path class="cls-14" d="M286.62,227.82a5.62,5.62,0,0,1,5.12-1.56,6.72,6.72,0,0,1,4.89,9.24,5.63,5.63,0,0,1-4.16,3.36,7.8,7.8,0,0,0,2.16-4,6.07,6.07,0,0,0-3.47-6.55A7.61,7.61,0,0,0,286.62,227.82Z" transform="translate(8.73)"/>
            <g>
              <path class="cls-15" d="M313.5,245.39l0,.13a22,22,0,0,1-3.16,15.41,23.08,23.08,0,0,1-34.89,4.69,21.82,21.82,0,0,1-6.9-12.61l0-.13Z" transform="translate(8.73)"/>
              <path class="cls-16" d="M310.36,260.93a23.08,23.08,0,0,1-34.89,4.69,49.4,49.4,0,0,1,5.34-2.69c7-3,14.66-4.84,22.2-3.81A38,38,0,0,1,310.36,260.93Z" transform="translate(8.73)"/>
              <path class="cls-17" d="M309.31,246.09c-.52.56-1.07,1.1-1.63,1.63-8.36,7.78-24.86,12.56-34.32,4.36Z" transform="translate(8.73)"/>
            </g>
            <path class="cls-17" d="M264.18,213c-2.79,0-2.79,4.33,0,4.33S267,213,264.18,213Z" transform="translate(8.73)"/>
            <path class="cls-17" d="M310,208.14c-2.79,0-2.79,4.33,0,4.33S312.76,208.14,310,208.14Z" transform="translate(8.73)"/>
          </g>
        </g>
        <path class="cls-18" d="M243.07,485.91a1.29,1.29,0,1,1,0-2.58c2.27,0,4.58,0,6.86-.1a1.29,1.29,0,1,1,.08,2.58C247.7,485.88,245.37,485.91,243.07,485.91Zm-6.9-.09h0c-2.3-.07-4.64-.16-6.93-.29a1.29,1.29,0,0,1,.15-2.58c2.26.13,4.57.23,6.86.29a1.29,1.29,0,0,1,0,2.58Zm20.69-.3a1.29,1.29,0,0,1-.07-2.58c2.28-.13,4.58-.29,6.85-.49a1.29,1.29,0,0,1,.22,2.58c-2.29.19-4.62.36-6.92.49Zm-34.47-.47h-.11c-2.29-.19-4.61-.42-6.9-.68a1.29,1.29,0,1,1,.29-2.56c2.27.26,4.57.48,6.83.67a1.29,1.29,0,0,1-.11,2.58Zm48.22-.71a1.29,1.29,0,0,1-.14-2.57c2.26-.25,4.55-.55,6.81-.87a1.29,1.29,0,1,1,.36,2.55c-2.28.33-4.6.63-6.88.89Zm-61.93-.84h-.18c-2.28-.33-4.58-.69-6.85-1.08a1.29,1.29,0,1,1,.43-2.54c2.25.39,4.53.74,6.78,1.06a1.29,1.29,0,0,1-.18,2.57Zm75.59-1.11a1.29,1.29,0,0,1-.21-2.56c2.24-.38,4.51-.81,6.74-1.26a1.29,1.29,0,1,1,.51,2.53c-2.26.45-4.55.88-6.82,1.27A.78.78,0,0,1,284.27,482.39Zm-89.19-1.22a1.07,1.07,0,0,1-.25,0c-2.26-.45-4.54-.94-6.79-1.46a1.29,1.29,0,0,1,.58-2.51c2.23.51,4.49,1,6.71,1.44a1.29,1.29,0,0,1-.25,2.56Zm102.72-1.51a1.29,1.29,0,0,1-.29-2.55c2.22-.51,4.46-1.07,6.66-1.64a1.29,1.29,0,1,1,.66,2.49c-2.23.59-4.49,1.15-6.74,1.67A1.43,1.43,0,0,1,297.8,479.66Zm-116.16-1.6a1.24,1.24,0,0,1-.33,0c-2.24-.58-4.49-1.21-6.69-1.85a1.29,1.29,0,0,1,.73-2.48c2.17.64,4.4,1.26,6.61,1.84a1.29,1.29,0,0,1-.32,2.53Zm129.51-1.9a1.29,1.29,0,0,1-.37-2.53c2.18-.64,4.39-1.32,6.56-2a1.29,1.29,0,1,1,.8,2.45c-2.2.72-4.43,1.41-6.63,2.05A1.13,1.13,0,0,1,311.15,476.16Zm-142.76-2a1.39,1.39,0,0,1-.4-.06c-2.2-.72-4.42-1.47-6.59-2.25a1.28,1.28,0,0,1-.78-1.64,1.3,1.3,0,0,1,1.65-.79c2.15.77,4.34,1.52,6.52,2.22a1.29,1.29,0,0,1,.83,1.63A1.31,1.31,0,0,1,168.39,474.19Zm155.88-2.3a1.28,1.28,0,0,1-1.21-.86,1.29,1.29,0,0,1,.78-1.65c2.14-.76,4.31-1.57,6.43-2.4a1.29,1.29,0,1,1,.93,2.41c-2.14.83-4.32,1.65-6.5,2.42A1.06,1.06,0,0,1,324.27,471.89Zm-168.92-2.35a1.27,1.27,0,0,1-.47-.09c-2.15-.83-4.32-1.71-6.45-2.61a1.29,1.29,0,0,1,1-2.38c2.1.89,4.25,1.76,6.38,2.59a1.29,1.29,0,0,1-.47,2.49Zm181.76-2.65a1.29,1.29,0,0,1-.51-2.48c2.1-.89,4.2-1.82,6.26-2.76a1.29,1.29,0,0,1,1.08,2.35c-2.08.95-4.21,1.89-6.33,2.78A1.33,1.33,0,0,1,337.11,466.89ZM142.6,464.16a1.24,1.24,0,0,1-.53-.12c-2.1-1-4.21-2-6.28-3a1.29,1.29,0,1,1,1.14-2.32c2,1,4.14,2,6.21,2.95a1.29,1.29,0,0,1-.54,2.47Zm207-3a1.28,1.28,0,0,1-1.16-.72,1.3,1.3,0,0,1,.59-1.73c2-1,4.08-2,6.09-3.11a1.29,1.29,0,1,1,1.21,2.28c-2,1.07-4.1,2.13-6.16,3.15A1.31,1.31,0,0,1,349.62,461.16ZM130.2,458.05a1.27,1.27,0,0,1-.6-.15c-2-1.08-4.09-2.2-6.1-3.34a1.29,1.29,0,1,1,1.27-2.24c2,1.12,4,2.23,6,3.3a1.29,1.29,0,0,1-.6,2.43Zm231.59-3.32a1.3,1.3,0,0,1-.64-2.42c2-1.12,4-2.28,5.92-3.46a1.29,1.29,0,1,1,1.33,2.21c-2,1.19-4,2.37-6,3.5A1.32,1.32,0,0,1,361.79,454.73Zm-243.63-3.49a1.34,1.34,0,0,1-.66-.18c-2-1.19-4-2.43-5.89-3.68a1.29,1.29,0,1,1,1.39-2.17c1.92,1.24,3.89,2.46,5.83,3.64a1.29,1.29,0,0,1-.67,2.39Zm255.42-3.64a1.29,1.29,0,0,1-.7-2.37c1.91-1.23,3.83-2.51,5.71-3.79a1.29,1.29,0,0,1,1.79.33,1.31,1.31,0,0,1-.33,1.8c-1.9,1.3-3.84,2.59-5.77,3.83A1.29,1.29,0,0,1,373.58,447.6Zm-267-3.84a1.3,1.3,0,0,1-.73-.22c-1.9-1.31-3.81-2.65-5.67-4a1.29,1.29,0,1,1,1.52-2.09c1.84,1.35,3.73,2.68,5.61,4a1.29,1.29,0,0,1-.73,2.35ZM385,439.82a1.3,1.3,0,0,1-.76-2.34c1.84-1.33,3.69-2.72,5.49-4.11a1.29,1.29,0,0,1,1.57,2.05c-1.82,1.4-3.68,2.8-5.54,4.15A1.28,1.28,0,0,1,385,439.82ZM95.38,435.63a1.29,1.29,0,0,1-.79-.26c-1.81-1.41-3.64-2.86-5.43-4.32a1.3,1.3,0,0,1-.18-1.82,1.29,1.29,0,0,1,1.81-.18c1.77,1.45,3.58,2.88,5.38,4.27a1.29,1.29,0,0,1,.23,1.81A1.27,1.27,0,0,1,95.38,435.63Zm300.48-4.23a1.31,1.31,0,0,1-1-.48,1.29,1.29,0,0,1,.19-1.81c1.76-1.45,3.53-2.93,5.24-4.42a1.29,1.29,0,1,1,1.69,1.95c-1.73,1.5-3.52,3-5.3,4.46A1.28,1.28,0,0,1,395.86,431.4ZM84.7,426.89a1.32,1.32,0,0,1-.85-.32c-1.74-1.51-3.48-3.06-5.17-4.62a1.29,1.29,0,0,1,1.74-1.9c1.68,1.54,3.4,3.08,5.12,4.57a1.29,1.29,0,0,1,.13,1.82A1.26,1.26,0,0,1,84.7,426.89Zm321.59-4.53a1.29,1.29,0,0,1-.88-2.24c1.69-1.54,3.37-3.13,5-4.71a1.3,1.3,0,0,1,1.83,0,1.28,1.28,0,0,1,0,1.82c-1.64,1.6-3.34,3.2-5,4.76A1.28,1.28,0,0,1,406.29,422.36ZM74.53,417.55a1.3,1.3,0,0,1-.9-.36c-1.65-1.61-3.3-3.26-4.9-4.91a1.29,1.29,0,1,1,1.85-1.79c1.58,1.63,3.22,3.26,4.85,4.85a1.29,1.29,0,0,1-.9,2.21Zm341.65-4.8a1.32,1.32,0,0,1-.9-.36,1.29,1.29,0,0,1,0-1.83c1.58-1.63,3.17-3.3,4.72-5a1.29,1.29,0,0,1,1.9,1.75c-1.57,1.7-3.17,3.4-4.77,5A1.29,1.29,0,0,1,416.18,412.75ZM64.92,407.66a1.31,1.31,0,0,1-1-.42c-1.55-1.69-3.11-3.43-4.61-5.17a1.29,1.29,0,1,1,1.95-1.69c1.49,1.72,3,3.44,4.56,5.12a1.28,1.28,0,0,1-.94,2.16Zm360.6-5.07a1.23,1.23,0,0,1-.84-.32,1.29,1.29,0,0,1-.13-1.82c1.5-1.72,3-3.49,4.43-5.24a1.28,1.28,0,0,1,1.81-.19,1.3,1.3,0,0,1,.18,1.82c-1.45,1.78-3,3.56-4.47,5.31A1.32,1.32,0,0,1,425.52,402.59ZM55.88,397.24a1.27,1.27,0,0,1-1-.47c-1.45-1.78-2.9-3.6-4.32-5.43a1.29,1.29,0,0,1,2-1.57c1.39,1.8,2.83,3.61,4.27,5.36A1.3,1.3,0,0,1,56.7,397,1.27,1.27,0,0,1,55.88,397.24Zm378.39-5.33a1.27,1.27,0,0,1-.78-.27,1.29,1.29,0,0,1-.24-1.81c1.4-1.8,2.79-3.65,4.13-5.49a1.29,1.29,0,1,1,2.08,1.52c-1.35,1.86-2.75,3.73-4.16,5.55A1.3,1.3,0,0,1,434.27,391.91ZM47.45,386.33a1.27,1.27,0,0,1-1-.53c-1.36-1.86-2.7-3.77-4-5.66a1.29,1.29,0,0,1,2.13-1.46c1.28,1.87,2.61,3.76,4,5.6a1.29,1.29,0,0,1-1,2.05Zm395-5.58a1.31,1.31,0,0,1-.73-.23,1.29,1.29,0,0,1-.34-1.79c1.3-1.89,2.58-3.81,3.81-5.73a1.28,1.28,0,0,1,1.78-.38,1.29,1.29,0,0,1,.39,1.78c-1.25,1.94-2.54,3.88-3.85,5.79A1.29,1.29,0,0,1,442.41,380.75ZM39.66,375a1.31,1.31,0,0,1-1.09-.59c-1.24-1.93-2.47-3.9-3.66-5.87a1.29,1.29,0,0,1,2.2-1.34c1.18,1.95,2.4,3.91,3.63,5.81a1.28,1.28,0,0,1-1.08,2Zm410.23-5.83a1.28,1.28,0,0,1-.66-.18,1.3,1.3,0,0,1-.44-1.78c1.18-1.95,2.35-3.94,3.47-5.93a1.29,1.29,0,0,1,2.25,1.27c-1.14,2-2.32,4-3.51,6A1.3,1.3,0,0,1,449.89,369.13ZM32.53,363.18a1.29,1.29,0,0,1-1.12-.66c-1.13-2-2.25-4-3.33-6.07a1.29,1.29,0,0,1,2.28-1.21c1.07,2,2.17,4,3.29,6a1.28,1.28,0,0,1-.48,1.76A1.33,1.33,0,0,1,32.53,363.18Zm424.17-6.07a1.3,1.3,0,0,1-1.14-1.9c1.07-2,2.12-4.07,3.13-6.12a1.29,1.29,0,0,1,2.32,1.14c-1,2.07-2.09,4.15-3.17,6.19A1.28,1.28,0,0,1,456.7,357.11ZM26.09,351a1.3,1.3,0,0,1-1.16-.72c-1-2.06-2-4.16-3-6.25A1.29,1.29,0,0,1,24.31,343c1,2.06,1.93,4.14,2.94,6.18a1.3,1.3,0,0,1-.59,1.73A1.28,1.28,0,0,1,26.09,351Zm436.73-6.31a1.32,1.32,0,0,1-.54-.12,1.28,1.28,0,0,1-.63-1.71c.94-2.07,1.88-4.19,2.77-6.29a1.3,1.3,0,0,1,1.69-.69,1.28,1.28,0,0,1,.68,1.69c-.9,2.13-1.84,4.27-2.8,6.37A1.29,1.29,0,0,1,462.82,344.7ZM20.36,338.5a1.29,1.29,0,0,1-1.19-.79c-.89-2.11-1.77-4.26-2.6-6.4a1.29,1.29,0,1,1,2.4-.94c.82,2.12,1.69,4.25,2.58,6.34a1.29,1.29,0,0,1-.69,1.69A1.24,1.24,0,0,1,20.36,338.5ZM468.21,332a1.31,1.31,0,0,1-.47-.09,1.29,1.29,0,0,1-.73-1.67c.83-2.12,1.64-4.29,2.41-6.45a1.29,1.29,0,0,1,2.43.87c-.78,2.18-1.6,4.37-2.44,6.52A1.28,1.28,0,0,1,468.21,332ZM15.35,325.67a1.28,1.28,0,0,1-1.21-.86c-.78-2.16-1.53-4.37-2.25-6.56a1.29,1.29,0,1,1,2.46-.8c.7,2.17,1.45,4.35,2.21,6.49a1.28,1.28,0,0,1-.78,1.65A1.31,1.31,0,0,1,15.35,325.67Zm457.51-6.75a1.32,1.32,0,0,1-.39-.06,1.29,1.29,0,0,1-.83-1.63c.7-2.16,1.38-4.37,2-6.56a1.29,1.29,0,0,1,2.48.73c-.65,2.21-1.34,4.44-2.05,6.63A1.3,1.3,0,0,1,472.86,318.92ZM11.08,312.55a1.29,1.29,0,0,1-1.24-.93c-.65-2.21-1.28-4.46-1.86-6.68a1.29,1.29,0,1,1,2.49-.66c.58,2.2,1.2,4.43,1.84,6.61a1.28,1.28,0,0,1-.87,1.6A1.13,1.13,0,0,1,11.08,312.55Zm465.67-6.87a1.26,1.26,0,0,1-.33-.05,1.28,1.28,0,0,1-.92-1.57c.57-2.21,1.13-4.45,1.64-6.66a1.29,1.29,0,1,1,2.51.58c-.51,2.24-1.07,4.5-1.66,6.73A1.29,1.29,0,0,1,476.75,305.68ZM7.56,299.2a1.29,1.29,0,0,1-1.25-1c-.52-2.24-1-4.52-1.47-6.78a1.29,1.29,0,1,1,2.52-.51c.46,2.24,1,4.49,1.46,6.71a1.29,1.29,0,0,1-1,1.55Zm472.3-7a1.14,1.14,0,0,1-.26,0,1.29,1.29,0,0,1-1-1.52c.45-2.23.88-4.5,1.26-6.75a1.29,1.29,0,1,1,2.54.44c-.39,2.27-.81,4.56-1.27,6.82A1.28,1.28,0,0,1,479.86,292.23Zm-475-6.55a1.29,1.29,0,0,1-1.27-1.07c-.39-2.26-.76-4.57-1.09-6.86A1.29,1.29,0,0,1,5,277.39c.32,2.26.68,4.54,1.07,6.78a1.29,1.29,0,0,1-1,1.49Zm477.37-7.05H482a1.29,1.29,0,0,1-1.09-1.46c.32-2.25.61-4.54.87-6.81a1.27,1.27,0,0,1,1.42-1.13,1.29,1.29,0,0,1,1.14,1.42c-.26,2.3-.56,4.61-.88,6.88A1.28,1.28,0,0,1,482.2,278.63ZM2.87,272a1.29,1.29,0,0,1-1.28-1.15c-.26-2.27-.5-4.59-.69-6.9a1.27,1.27,0,0,1,1.17-1.39,1.29,1.29,0,0,1,1.4,1.17c.19,2.28.42,4.58.68,6.83A1.29,1.29,0,0,1,3,272Zm480.88-7.1h-.11a1.3,1.3,0,0,1-1.18-1.4c.2-2.26.36-4.56.49-6.84a1.29,1.29,0,1,1,2.57.14c-.13,2.31-.29,4.63-.49,6.92A1.28,1.28,0,0,1,483.75,264.92ZM1.69,258.27A1.29,1.29,0,0,1,.4,257.05c-.13-2.29-.23-4.63-.3-6.93a1.29,1.29,0,1,1,2.58-.07c.07,2.28.17,4.58.3,6.85a1.29,1.29,0,0,1-1.22,1.37Zm482.84-7.13h0a1.29,1.29,0,0,1-1.25-1.32c.06-2.28.09-4.58.09-6.86v-.45a1.3,1.3,0,0,1,1.29-1.3h0a1.29,1.29,0,0,1,1.29,1.29V243c0,2.3,0,4.63-.1,6.93A1.28,1.28,0,0,1,484.53,251.14ZM1.29,244.47A1.29,1.29,0,0,1,0,243.18V243c0-2.23,0-4.49.09-6.71A1.32,1.32,0,0,1,1.42,235a1.29,1.29,0,0,1,1.25,1.33c-.06,2.2-.09,4.43-.09,6.64v.22A1.29,1.29,0,0,1,1.29,244.47Zm483.22-7.58a1.29,1.29,0,0,1-1.29-1.25c-.07-2.28-.17-4.59-.3-6.86a1.29,1.29,0,0,1,1.21-1.36,1.31,1.31,0,0,1,1.37,1.21c.13,2.3.23,4.63.3,6.93a1.29,1.29,0,0,1-1.25,1.33ZM1.67,230.68H1.59a1.29,1.29,0,0,1-1.21-1.36c.12-2.3.28-4.63.48-6.92a1.29,1.29,0,0,1,2.57.21c-.19,2.27-.35,4.58-.48,6.85A1.28,1.28,0,0,1,1.67,230.68Zm482-7.56a1.28,1.28,0,0,1-1.28-1.18c-.2-2.27-.43-4.57-.69-6.83a1.29,1.29,0,1,1,2.56-.3c.26,2.29.5,4.61.7,6.9a1.3,1.3,0,0,1-1.18,1.4ZM2.82,216.93H2.67a1.3,1.3,0,0,1-1.14-1.43c.26-2.29.56-4.6.88-6.88A1.29,1.29,0,0,1,5,209c-.32,2.25-.61,4.54-.86,6.81A1.3,1.3,0,0,1,2.82,216.93Zm479.31-7.52a1.3,1.3,0,0,1-1.28-1.11c-.32-2.25-.69-4.53-1.08-6.78a1.29,1.29,0,0,1,2.55-.44c.39,2.27.76,4.58,1.09,6.85a1.29,1.29,0,0,1-1.1,1.46ZM4.75,203.27l-.22,0a1.29,1.29,0,0,1-1.05-1.49c.39-2.27.81-4.57,1.26-6.82a1.3,1.3,0,0,1,1.52-1,1.28,1.28,0,0,1,1,1.51c-.44,2.24-.86,4.51-1.25,6.75A1.3,1.3,0,0,1,4.75,203.27Zm475-7.46a1.3,1.3,0,0,1-1.27-1c-.45-2.23-.94-4.49-1.46-6.71a1.29,1.29,0,1,1,2.51-.58c.52,2.24,1,4.52,1.48,6.78a1.3,1.3,0,0,1-1,1.52ZM7.46,189.74a1,1,0,0,1-.29,0,1.28,1.28,0,0,1-1-1.54c.52-2.26,1.07-4.52,1.65-6.74a1.29,1.29,0,0,1,2.5.65c-.58,2.19-1.13,4.44-1.64,6.67A1.3,1.3,0,0,1,7.46,189.74Zm469.17-7.36a1.3,1.3,0,0,1-1.25-1c-.58-2.2-1.2-4.42-1.85-6.61a1.29,1.29,0,0,1,2.48-.73c.65,2.21,1.28,4.46,1.87,6.69a1.29,1.29,0,0,1-.92,1.57A1.26,1.26,0,0,1,476.63,182.38ZM11,176.38a1.12,1.12,0,0,1-.36,0,1.28,1.28,0,0,1-.88-1.6c.65-2.21,1.33-4.45,2-6.63a1.29,1.29,0,0,1,1.63-.83,1.31,1.31,0,0,1,.83,1.63c-.7,2.16-1.38,4.36-2,6.56A1.29,1.29,0,0,1,11,176.38Zm461.77-7.24a1.28,1.28,0,0,1-1.22-.89c-.71-2.16-1.46-4.35-2.23-6.49a1.29,1.29,0,1,1,2.43-.87c.78,2.16,1.53,4.37,2.25,6.56a1.3,1.3,0,0,1-.83,1.63A1.34,1.34,0,0,1,472.72,169.14ZM15.2,163.23A1.28,1.28,0,0,1,14,161.51c.77-2.18,1.59-4.38,2.43-6.52a1.27,1.27,0,0,1,1.66-.74,1.29,1.29,0,0,1,.74,1.67c-.83,2.13-1.63,4.3-2.4,6.45A1.3,1.3,0,0,1,15.2,163.23Zm452.86-7.08a1.29,1.29,0,0,1-1.2-.82c-.82-2.11-1.69-4.24-2.58-6.33a1.29,1.29,0,1,1,2.37-1c.9,2.12,1.78,4.27,2.61,6.4a1.28,1.28,0,0,1-.73,1.67A1.27,1.27,0,0,1,468.06,156.15ZM20.22,150.33a1.32,1.32,0,0,1-.51-.1,1.29,1.29,0,0,1-.68-1.69c.89-2.12,1.83-4.26,2.79-6.37a1.29,1.29,0,1,1,2.35,1.07c-1,2.08-1.88,4.2-2.77,6.3A1.26,1.26,0,0,1,20.22,150.33Zm442.46-6.84a1.29,1.29,0,0,1-1.17-.75c-.95-2.07-1.94-4.15-2.95-6.18a1.29,1.29,0,0,1,2.32-1.14c1,2.05,2,4.15,3,6.24a1.29,1.29,0,0,1-1.17,1.83ZM26,137.75a1.28,1.28,0,0,1-.57-.13,1.3,1.3,0,0,1-.59-1.73c1-2.07,2.08-4.15,3.16-6.19a1.29,1.29,0,0,1,2.28,1.2c-1.07,2-2.12,4.08-3.12,6.13A1.3,1.3,0,0,1,26,137.75Zm430.62-6.6a1.3,1.3,0,0,1-1.14-.68c-1.06-2-2.17-4-3.29-6a1.29,1.29,0,0,1,2.24-1.27c1.13,2,2.25,4,3.33,6.07a1.28,1.28,0,0,1-.53,1.74A1.22,1.22,0,0,1,456.58,131.15ZM32.41,125.52a1.22,1.22,0,0,1-.63-.17,1.28,1.28,0,0,1-.49-1.75c1.14-2,2.31-4,3.51-6A1.29,1.29,0,1,1,37,118.93c-1.18,1.95-2.35,3.95-3.47,5.94A1.3,1.3,0,0,1,32.41,125.52Zm417.37-6.34a1.29,1.29,0,0,1-1.1-.62c-1.18-1.94-2.4-3.9-3.63-5.81a1.29,1.29,0,1,1,2.16-1.4c1.25,1.93,2.49,3.91,3.68,5.87a1.29,1.29,0,0,1-.44,1.77A1.26,1.26,0,0,1,449.78,119.18ZM39.55,113.69a1.27,1.27,0,0,1-.69-.21,1.29,1.29,0,0,1-.39-1.78c1.24-1.93,2.54-3.88,3.84-5.79a1.29,1.29,0,0,1,2.13,1.46c-1.29,1.89-2.57,3.81-3.8,5.73A1.3,1.3,0,0,1,39.55,113.69Zm402.76-6.09a1.27,1.27,0,0,1-1.06-.56c-1.29-1.88-2.63-3.76-4-5.59a1.29,1.29,0,1,1,2.08-1.52c1.35,1.85,2.7,3.75,4,5.65a1.28,1.28,0,0,1-1.06,2ZM47.36,102.29a1.26,1.26,0,0,1-.76-.25,1.28,1.28,0,0,1-.29-1.8c1.36-1.86,2.76-3.73,4.17-5.56a1.29,1.29,0,0,1,2,1.58c-1.4,1.81-2.78,3.66-4.12,5.5A1.31,1.31,0,0,1,47.36,102.29Zm386.83-5.82a1.27,1.27,0,0,1-1-.5c-1.4-1.81-2.84-3.61-4.28-5.37a1.29,1.29,0,0,1,2-1.63c1.45,1.77,2.91,3.59,4.32,5.42A1.3,1.3,0,0,1,435,96.2,1.32,1.32,0,0,1,434.19,96.47ZM55.79,91.35a1.24,1.24,0,0,1-.81-.29,1.28,1.28,0,0,1-.19-1.81c1.46-1.78,3-3.57,4.47-5.31a1.29,1.29,0,0,1,2,1.69c-1.49,1.72-3,3.49-4.42,5.25A1.29,1.29,0,0,1,55.79,91.35Zm369.65-5.54a1.26,1.26,0,0,1-1-.45c-1.5-1.72-3-3.44-4.58-5.11a1.29,1.29,0,1,1,1.9-1.75c1.56,1.69,3.11,3.43,4.63,5.17a1.3,1.3,0,0,1-.13,1.82A1.32,1.32,0,0,1,425.44,85.81ZM64.83,80.92a1.29,1.29,0,0,1-.95-2.16c1.56-1.69,3.16-3.39,4.76-5.05a1.29,1.29,0,0,1,1.85,1.8c-1.59,1.64-3.17,3.32-4.71,5A1.27,1.27,0,0,1,64.83,80.92ZM416.1,75.65a1.28,1.28,0,0,1-.92-.39c-1.59-1.63-3.23-3.26-4.86-4.84a1.29,1.29,0,0,1,1.8-1.86c1.65,1.6,3.3,3.25,4.91,4.9a1.3,1.3,0,0,1,0,1.83A1.29,1.29,0,0,1,416.1,75.65ZM74.45,71a1.29,1.29,0,0,1-.9-2.21c1.65-1.61,3.34-3.21,5-4.77a1.29,1.29,0,1,1,1.75,1.9c-1.68,1.54-3.35,3.13-5,4.72A1.28,1.28,0,0,1,74.45,71Zm331.75-5a1.31,1.31,0,0,1-.87-.34c-1.68-1.54-3.41-3.08-5.13-4.57a1.29,1.29,0,1,1,1.69-2c1.74,1.51,3.48,3.06,5.18,4.61a1.31,1.31,0,0,1,.08,1.83A1.32,1.32,0,0,1,406.2,66.05ZM84.6,61.69a1.26,1.26,0,0,1-1-.45,1.29,1.29,0,0,1,.13-1.82c1.73-1.51,3.52-3,5.29-4.47a1.29,1.29,0,0,1,1.64,2c-1.76,1.44-3.52,2.93-5.24,4.42A1.32,1.32,0,0,1,84.6,61.69ZM395.76,57a1.32,1.32,0,0,1-.82-.29c-1.76-1.44-3.57-2.88-5.38-4.27a1.29,1.29,0,0,1,1.58-2c1.82,1.4,3.65,2.85,5.44,4.31a1.29,1.29,0,0,1-.82,2.29ZM95.27,52.94a1.27,1.27,0,0,1-1-.5,1.28,1.28,0,0,1,.23-1.81c1.82-1.4,3.68-2.8,5.54-4.16a1.29,1.29,0,0,1,1.52,2.09c-1.84,1.34-3.69,2.72-5.48,4.12A1.31,1.31,0,0,1,95.27,52.94Zm289.55-4.36a1.28,1.28,0,0,1-.76-.25c-1.84-1.34-3.73-2.67-5.61-3.95a1.3,1.3,0,0,1-.34-1.8,1.28,1.28,0,0,1,1.79-.33c1.9,1.3,3.81,2.64,5.68,4a1.29,1.29,0,0,1-.76,2.33ZM106.41,44.83a1.29,1.29,0,0,1-.73-2.36c1.89-1.3,3.83-2.59,5.76-3.83a1.29,1.29,0,1,1,1.4,2.16c-1.91,1.24-3.83,2.51-5.7,3.8A1.34,1.34,0,0,1,106.41,44.83Zm267-4a1.29,1.29,0,0,1-.7-.2c-1.92-1.23-3.88-2.45-5.84-3.63a1.29,1.29,0,0,1,1.34-2.21c2,1.19,4,2.43,5.89,3.67a1.28,1.28,0,0,1,.39,1.78A1.26,1.26,0,0,1,373.42,40.78ZM118,37.36a1.29,1.29,0,0,1-.67-2.39c2-1.19,4-2.37,6-3.5a1.29,1.29,0,1,1,1.27,2.24c-2,1.12-4,2.29-5.91,3.46A1.25,1.25,0,0,1,118,37.36Zm243.59-3.71a1.22,1.22,0,0,1-.63-.17c-2-1.12-4-2.23-6-3.29a1.29,1.29,0,1,1,1.21-2.28c2,1.07,4.09,2.19,6.1,3.33a1.28,1.28,0,0,1,.49,1.75A1.31,1.31,0,0,1,361.58,33.65ZM130,30.57a1.29,1.29,0,0,1-.6-2.43c2-1.08,4.1-2.14,6.16-3.15a1.29,1.29,0,1,1,1.14,2.31c-2,1-4.09,2.05-6.09,3.12A1.34,1.34,0,0,1,130,30.57ZM349.35,27.2a1.31,1.31,0,0,1-.57-.13c-2-1-4.14-2-6.21-2.95a1.29,1.29,0,1,1,1.07-2.34c2.1,1,4.21,2,6.28,3a1.29,1.29,0,0,1-.57,2.45Zm-207-2.73a1.3,1.3,0,0,1-1.17-.75,1.29,1.29,0,0,1,.64-1.71c2.08-1,4.21-1.9,6.32-2.79a1.29,1.29,0,1,1,1,2.37c-2.09.89-4.19,1.82-6.26,2.77A1.27,1.27,0,0,1,142.3,24.47Zm194.47-3a1.32,1.32,0,0,1-.51-.1c-2.1-.89-4.25-1.75-6.38-2.58a1.29,1.29,0,0,1,.94-2.41c2.15.84,4.32,1.72,6.45,2.61a1.29,1.29,0,0,1,.68,1.69A1.26,1.26,0,0,1,336.77,21.46ZM155,19.1a1.29,1.29,0,0,1-.47-2.49c2.14-.84,4.33-1.66,6.49-2.44a1.29,1.29,0,1,1,.87,2.43c-2.14.77-4.3,1.58-6.42,2.41A1.35,1.35,0,0,1,155,19.1Zm168.89-2.64a1.31,1.31,0,0,1-.43-.08c-2.15-.76-4.35-1.51-6.52-2.21a1.29,1.29,0,0,1,.79-2.46c2.2.71,4.42,1.47,6.59,2.24a1.29,1.29,0,0,1-.43,2.51Zm-155.9-2a1.29,1.29,0,0,1-.4-2.51c2.19-.72,4.42-1.41,6.62-2.06a1.29,1.29,0,0,1,.73,2.48c-2.18.64-4.38,1.32-6.55,2A1.44,1.44,0,0,1,168,14.44Zm142.75-2.23a1.13,1.13,0,0,1-.36-.06c-2.18-.63-4.4-1.24-6.62-1.82a1.29,1.29,0,0,1,.65-2.5c2.24.59,4.49,1.21,6.69,1.85a1.29,1.29,0,0,1-.36,2.53ZM181.19,10.54A1.29,1.29,0,0,1,180.86,8c2.23-.59,4.5-1.15,6.74-1.68a1.29,1.29,0,0,1,.58,2.52c-2.21.51-4.46,1.07-6.66,1.65A1.24,1.24,0,0,1,181.19,10.54ZM297.36,8.73a.92.92,0,0,1-.29,0c-2.23-.51-4.49-1-6.71-1.44a1.29,1.29,0,1,1,.5-2.53c2.25.45,4.53.94,6.78,1.46a1.29,1.29,0,0,1-.28,2.55ZM194.63,7.41a1.29,1.29,0,0,1-.25-2.55c2.26-.46,4.55-.89,6.81-1.28a1.29,1.29,0,1,1,.44,2.54c-2.24.39-4.5.81-6.74,1.27ZM283.83,6a.78.78,0,0,1-.22,0c-2.25-.38-4.53-.73-6.78-1a1.29,1.29,0,1,1,.36-2.56c2.27.32,4.58.68,6.85,1.07A1.29,1.29,0,0,1,283.83,6Zm-75.6-1a1.29,1.29,0,0,1-.18-2.57c2.27-.33,4.59-.63,6.87-.89a1.29,1.29,0,0,1,1.43,1.13,1.28,1.28,0,0,1-1.13,1.43c-2.26.26-4.55.56-6.81.88Zm61.93-1H270c-2.27-.26-4.57-.48-6.83-.67A1.29,1.29,0,0,1,263.4.85c2.29.19,4.61.41,6.9.67A1.29,1.29,0,0,1,271.44,3,1.28,1.28,0,0,1,270.16,4.09Zm-48.22-.61a1.29,1.29,0,0,1-.11-2.57c2.28-.2,4.61-.37,6.92-.5A1.29,1.29,0,1,1,228.89,3c-2.28.14-4.58.3-6.84.5ZM256.41,3h-.07c-2.27-.13-4.58-.22-6.86-.28a1.31,1.31,0,0,1-1.26-1.33A1.25,1.25,0,0,1,249.55.09c2.31.06,4.64.15,6.93.28A1.29,1.29,0,0,1,256.41,3Zm-20.7-.26a1.31,1.31,0,0,1-1.29-1.26A1.29,1.29,0,0,1,235.68.11C238,0,240.31,0,242.61,0h0a1.29,1.29,0,0,1,1.29,1.29,1.28,1.28,0,0,1-1.28,1.29c-2.28,0-4.59,0-6.87.11Z" transform="translate(8.73)"/>
      </g>
    </g>
  </g>
</svg>
