<svg xmlns="http://www.w3.org/2000/svg" xmlns:xlink="http://www.w3.org/1999/xlink" viewBox="0 0 837.76 1706.28">
  <defs>
    <style>
      .cls-1 {
        fill: none;
      }

      .cls-2 {
        clip-path: url(#clip-path);
      }

      .cls-3 {
        fill: #fce3c3;
      }

      .cls-4 {
        fill: #603813;
      }

      .cls-5 {
        fill: #f4b9b8;
      }

      .cls-6 {
        fill: #f9bfbb;
      }

      .cls-7 {
        fill: #ffcfca;
      }

      .cls-8 {
        fill: #1e1d59;
      }

      .cls-9 {
        fill: #151544;
      }

      .cls-10 {
        fill: #363740;
      }

      .cls-11 {
        fill: #fff;
      }

      .cls-12 {
        fill: #acddd9;
      }

      .cls-13 {
        fill: #c69c6d;
      }

      .cls-14 {
        fill: #c15252;
      }

      .cls-15 {
        fill: #af4646;
      }

      .cls-16 {
        fill: #1f3c49;
      }

      .cls-17 {
        fill: #d55454;
      }

      .cls-18 {
        fill: #f37c7c;
      }

      .cls-19 {
        fill: #99a4ce;
      }

      .cls-20 {
        fill: #fbb03b;
      }
    </style>
    <clipPath id="clip-path" transform="translate(99.33)">
      <circle class="cls-1" cx="243.03" cy="242.92" r="226.65"/>
    </clipPath>
  </defs>
  <g id="레이어_2" data-name="레이어 2">
    <g id="Layer_1" data-name="Layer 1">
      <g>
        <g class="cls-2">
          <circle class="cls-3" cx="342.35" cy="242.92" r="226.65"/>
          <g>
            <ellipse class="cls-4" cx="260.96" cy="161.85" rx="42.55" ry="54.05" transform="translate(77.52 42.1) rotate(-8.86)"/>
            <g>
              <path class="cls-5" d="M-75.9,886a81.85,81.85,0,0,0,.6,8.71c.84,7.77,2,15.5,2.75,23.27a33.39,33.39,0,0,1-.07,10.08,12.42,12.42,0,0,1-5.31,8.28c-2.89,1.75-7,1.63-9.34-.8-2.06-2.15-2.34-5.38-2.5-8.35l-.66-11.67c-.3-5.26-.6-10.52-.65-15.78-.11-10.69,1-21.91,6.8-30.85,1.85-2.84,11.27-10.52,12-2.85.28,3-1.81,6.48-2.45,9.37A49,49,0,0,0-75.9,886Z" transform="translate(99.33)"/>
              <path class="cls-6" d="M-81.57,891.54a84.76,84.76,0,0,0,.6,8.72c.84,7.76,2,15.49,2.76,23.26a33.78,33.78,0,0,1-.08,10.09,12.43,12.43,0,0,1-5.31,8.28c-2.89,1.74-7,1.63-9.34-.81-2-2.14-2.33-5.38-2.5-8.34l-.66-11.68c-.3-5.26-.59-10.51-.65-15.78-.11-10.68,1-21.9,6.8-30.85,1.86-2.83,11.27-10.52,12-2.84.27,3-1.81,6.48-2.45,9.37A48.3,48.3,0,0,0-81.57,891.54Z" transform="translate(99.33)"/>
              <path class="cls-7" d="M-34.09,787.39A117.39,117.39,0,0,0-55.7,792c-3.67,1.2-7.26,2.38-10.93,3.3,2.21,2.09,3.55,3.65,3.47,4.4a18.26,18.26,0,0,1-2.67,7c-.12.23-.26.45-.39.69-8.9,15.76-15.71,32.34-22.19,49.18C-92.77,868-97.34,879.79-98.59,892c-1.33,12.94-.56,25.89,0,38.86a16.2,16.2,0,0,0,1,6c1.49,3.34,6.17,5.16,9.09,2.49,6.38-5.76,5.85-16.48,5.78-24.35-.08-7.34-.56-14.75.59-22s4.3-13.16,8.47-19c3-4.22,5.82-8.53,8.93-12.7a41.35,41.35,0,0,1,3.85-4.62,14.34,14.34,0,0,1,6.72-4.11c2.19-.51,5.63-.46,7.49,1.06s1.28,4.59,1,6.81A32.29,32.29,0,0,1-47.81,868c-1.6,4.22-3.67,8.51-4,13a16.34,16.34,0,0,0-.05,2.32c.45,8.34,9.64,17.6,15.93,7.94a32.39,32.39,0,0,0,3-6.78c4.05-11.1,10.42-21.37,12.41-33.08a205,205,0,0,0,2.14-22.55c1.5-25.92-.77-32.09-4.09-42.74C-26.36,786.5-30.23,786.9-34.09,787.39Z" transform="translate(99.33)"/>
              <path class="cls-6" d="M-60.91,856.59a50,50,0,0,1,2.83-4.5c1.83-2.58,4-5,6.9-6.31s6.58-1.13,8.84,1.07c1.9,1.83,2.44,4.71,2.3,7.35-.37,6.48-4.16,12.19-7.47,17.78a43.46,43.46,0,0,0-4.32,9c.35-4.54,2.42-8.83,4-13a32.29,32.29,0,0,0,2.12-7.63c.27-2.22,1-5.16-1-6.81s-5.3-1.57-7.49-1.06A14.26,14.26,0,0,0-60.91,856.59Z" transform="translate(99.33)"/>
            </g>
            <polygon class="cls-7" points="162.62 1635.29 163.77 1532.94 241.97 1530.64 228.32 1642.33 177.18 1667.4 162.62 1635.29"/>
            <path class="cls-8" d="M273.49,670.88S258.22,795.49,246,875.64c-2.86,18.68-5.57,34.94-7.87,46.66-7.74,39.39-16.71,97.15-25.88,162.44C182.47,1296.35,150.46,1587,150.46,1587H49.67S36.88,1038.7,61.81,851c5.28-39.7,17.36-180.12,17.36-180.12Z" transform="translate(99.33)"/>
            <path class="cls-9" d="M246,875.64c-2.86,18.68-5.57,34.94-7.87,46.66-7.74,39.39-16.71,97.15-25.88,162.44-18.76-22.86-30.47-55.23-30.47-91.14C181.74,939.3,208.52,893.05,246,875.64Z" transform="translate(99.33)"/>
            <path class="cls-8" d="M370.05,670.45s12.08,140.43,17.36,180.12c24.93,187.71-14.7,735.27-14.7,735.27l-99.59,4.6S238.73,1087,205.89,920c-12.18-62-30.16-249.55-30.16-249.55Z" transform="translate(99.33)"/>
            <g>
              <path class="cls-10" d="M2.39,782.21A189,189,0,0,1-2.47,803c-.33,1.09-.68,2.2-1,3.28a70.5,70.5,0,0,1-4,9.74,30.27,30.27,0,0,1-1.78,3,11.54,11.54,0,0,1-4.69,4.48c-7.85,3.34-51.55-17.36-53.83-22.45a17.48,17.48,0,0,1-1-7.41c0-1.22.15-2.51.31-3.85a93.94,93.94,0,0,1,1.95-10.5c.27-1.2.57-2.38.88-3.56,2.68-10.17,6.07-19.2,6.07-19.2Z" transform="translate(99.33)"/>
              <g>
                <path class="cls-11" d="M-2.47,803c-.33,1.09-.68,2.2-1,3.28-2.12-.67-4.25-1.36-6.37-2.06a334.22,334.22,0,0,1-35.73-13.89c-5.8-2.69-11.5-5.6-17-8.79-1.26-.72-2.58-1.46-3.86-2.24.27-1.2.57-2.38.88-3.56,2.58,1.64,5.26,3.14,7.94,4.62C-40.2,790-21.47,797-2.47,803Z" transform="translate(99.33)"/>
                <path class="cls-11" d="M-7.48,816a30.27,30.27,0,0,1-1.78,3l-4.39-1.4c-19-6.19-38.17-13.3-55.12-24,0-1.22.15-2.51.31-3.85q2.19,1.41,4.43,2.75a207.4,207.4,0,0,0,35.37,16.3C-21.65,811.41-14.58,813.76-7.48,816Z" transform="translate(99.33)"/>
              </g>
            </g>
            <polygon points="286.82 289.81 371.92 293.26 347.6 343.62 294.87 341.52 286.82 289.81"/>
            <path class="cls-7" d="M632.87,491.87c-1.71.18-4.17-.14-5.65.71-2.06,1.18-4,4-5.7,5.75-4.73,4.77-9.59,9.43-14.29,14.24-1.3,1.33-2.57,2.68-3.84,4q-16.26-18.42-32.08-37.22c11.54-8.78,20.36-15.37,24.33-18.16,1.91-1.35,3.84-2.69,5.76-4a83.33,83.33,0,0,1,2.74-15.76c1.77-6.33,5.12-11.51,7.48-17.56,4.08-10.46,6.08-21.85,9.41-32.6,1-3.33,2.22-6.79,4.64-9.33l.26-.27c2.45-2.34,6.32-3.54,9.27-1.87,2.28,1.3,3.48,3.95,3.8,6.54.55,4.57-.45,9.55-1.35,14-.59,2.86-1.47,5.92-1.47,8.86,0,4.48,2.83,1.64,4.92-.51a59.72,59.72,0,0,0,6.15-7.67c3.69-5.33,6.77-11.06,10.24-16.54,0,0,23.48-37.1,23.53-37.14,2.3-3.66,8.44-3.57,10.88-.1,3.39,4.81-2.09,10.74-4.25,14.86q-5.42,10.32-10.74,20.71c-2.54,5-5.08,9.93-7.58,14.91-1.46,2.89-4.08,5.36-5.62,8.31-.57,1.1-2.37,4-1.1,5.25s3.32-1.24,4.27-2c2.3-1.92,4.53-3.93,6.73-6,4.24-4,8.32-8.11,12.36-12.29,8.26-8.46,16.43-17.09,25.67-24.53a7.52,7.52,0,0,1,1.17-.79,6.68,6.68,0,0,1,9.63.91c4.13,5.62-3.7,11.88-7,15.71-5.32,6.17-10.87,12.13-16.2,18.29l-12,13.79c-1.4,1.6-9.5,7.55-7.5,10.3,1.74,2.4,7.57-3.28,9.08-4.15q5.4-3.12,10.75-6.35,10.73-6.43,21.1-13.41a6.55,6.55,0,0,1,2-.92c1.91-1.39,3.82-2.78,5.72-4.21a6.4,6.4,0,0,1,9.73,3.41c1.74,5.86-5.34,9.11-9.13,11.89q-9.06,6.6-18.27,13-6.5,4.55-13.06,9c-2.33,1.57-13.07,7.65-8.18,11.19,1,.69,3.31-.16,4.28-.42,3.11-.76,6-2.24,9-3.41q11.94-4.68,24-9a6.52,6.52,0,0,1,8.5,7c-1,6.84-13.06,8.43-18.27,10.23q-12.43,4.32-24.53,9.54a19,19,0,0,0-4,2.11,24.52,24.52,0,0,0-3.92,4.27c-11.13,13.72-28.23,23-45.41,26.47C637.11,491.3,635,491.64,632.87,491.87Z" transform="translate(99.33)"/>
            <path class="cls-12" d="M68.38,803.77C95.22,824,388.75,821.42,388.55,807c-.48-35.11-5.9-73-10.93-110.16-2.85-21-5.58-41.7-7.22-61.51-3.88-46.67-17-193.69-18.82-219.69-1.19-17-4.16-55.42-4.52-60q-3.22-2.27-6.59-4.35l-.2-.12c-1.65-1-3.54-2.09-5.58-3.26,0,0,0,0-.05,0-8.74-5.09-20.23-11.58-27.82-15.18a203.46,203.46,0,0,0-59-17.49c-34.16-4.91-68,1-92.91,8a262.23,262.23,0,0,0-39,14l-.14.07s14.23,6.09,18,29.52c16.23,99.67-32.74,179-32.74,179s-12.39,86.76-19.56,131C76.91,704.9,64.63,800.94,68.38,803.77Z" transform="translate(99.33)"/>
            <path class="cls-7" d="M186.07,242.77c.93,5.15,1.84,10.32,2.77,15.48.06.3.11.62.16.93,0,.14.05.28.08.42,1.22,6.84,2.44,13.66,3.27,20.53.35,2.76.63,5.53.82,8.31.23,3.11.35,6.23.38,9.35.09,6-.07,11.93-.26,17.89-.1,3.36-.15,6.73-.17,10.09,0,3.9-1.69,8.1-.1,11.88,2,4.79,6.6,7.27,10.64,10.07a64.7,64.7,0,0,0,14.22,7.45c9.85,3.68,21,5.06,31.15,1.93,19.48-6,14.32-27.4,14.25-42.92l0-4.29,0-11.36-.06-16.16c-5.57-1.36-10.79-3.89-16-6.41-17.14-8.38-34.18-17-50.87-26.23l-1.3-.72A38.7,38.7,0,0,1,186.07,242.77Z" transform="translate(99.33)"/>
            <path class="cls-6" d="M263.28,314.19a195.3,195.3,0,0,1-54.71-23.26c-5.36-3.35-10.93-6.93-16.22-10.79-.83-6.88-2-13.7-3.27-20.54q-1.5-8.42-3-16.84c3.23,3.14,6.32,4.78,10.28,7C213,259,230.07,267.58,247.22,276c5.16,2.52,10.38,5.05,16,6.41Z" transform="translate(99.33)"/>
            <path class="cls-7" d="M196.31,247a31.08,31.08,0,0,1-30.61,2.58,30,30,0,0,1-17-25.52,22.35,22.35,0,0,1,1.17-8.55c2.47-6.71,9.3-11.45,16.42-11.91a22,22,0,0,1,18.59,8.88l4.38,13.27Z" transform="translate(99.33)"/>
            <polygon class="cls-7" points="453.05 1635.31 456.06 1555.09 386.87 1558.1 387.87 1642.33 439.01 1667.4 453.05 1635.31"/>
            <path class="cls-13" d="M267.85,1676.36c1.83-7.32,5.9-13.75,9-20.55,1-2.16,9.35-22.34,10.65-22.25l1.64.24,51.95,7.54,12.66-17.47,1.77-2.43,26.8,13.52q26.67,13.45,53.36,26.93,19.79,10,39.55,19.94a12.34,12.34,0,0,1,6.48,8.39c.73,3.68-2.86,10.92-8.35,12.18-10.4,2.38-24.38,3.13-34.94,3.55-21.21.83-40.35-.17-61.56,0s-40.82-.83-61.52-2c-8.18-.46-16.51-1-25.14-1.48l-1.26-.08c-5.65-.33-14-1.23-18.31-5.18C265,1692.06,266.19,1683,267.85,1676.36Z" transform="translate(99.33)"/>
            <path class="cls-13" d="M149.69,1676.36c-1.83-7.32-5.9-13.75-9-20.55-1-2.16-9.35-22.34-10.65-22.25l-1.64.24-51.95,7.54L63.8,1623.87,62,1621.44,35.23,1635q-26.68,13.45-53.36,26.93-19.79,10-39.55,19.94a12.38,12.38,0,0,0-6.49,8.39c-.72,3.68,2.87,10.92,8.35,12.18,10.41,2.38,24.39,3.13,34.94,3.55,21.22.83,40.36-.17,61.57,0s40.82-.83,61.51-2c8.19-.46,16.52-1,25.15-1.48l1.26-.08c5.65-.33,14-1.23,18.31-5.18C152.5,1692.06,151.34,1683,149.69,1676.36Z" transform="translate(99.33)"/>
            <g>
              <path class="cls-10" d="M198.41,840.83a178.72,178.72,0,0,1-2.85,23.38c-.23,1.14-.48,2.26-.75,3.34a44.19,44.19,0,0,1-2.52,7.69,16.76,16.76,0,0,1-1.79,3.12,8.21,8.21,0,0,1-1.36,1.44c-3.87,3.07-53-7.41-78.63-17.22-23.25-8.89-59.82-22.65-61.29-29.36a19.76,19.76,0,0,1-.29-5c0-1.19.16-2.48.33-3.81h0c.27-2.35.71-4.88,1.23-7.45.23-1.18.48-2.37.75-3.56,2.44-10.88,5.94-21.51,5.94-21.51Z" transform="translate(99.33)"/>
              <g>
                <path class="cls-11" d="M192.29,875.24a16.76,16.76,0,0,1-1.79,3.12q-11.1-2.52-22.1-5.38a755.76,755.76,0,0,1-76.75-24.66c-12.47-4.74-24.86-9.56-36.36-16.41-2.1-1.25-4.23-2.48-6.36-3.7,0-1.19.16-2.48.33-3.81,4.25,2.45,8.42,5,12.73,7.42,11.4,6.36,24,10.74,36.21,15.28S123,856,135.56,859.92C154.25,865.8,173.18,871,192.29,875.24Z" transform="translate(99.33)"/>
                <path class="cls-11" d="M195.56,864.21c-.23,1.14-.48,2.26-.75,3.34q-12.67-2.77-25.26-6.07A755.76,755.76,0,0,1,92.8,836.82c-12.47-4.74-24.86-9.56-36.36-16.41q-3-1.75-5.95-3.47c.23-1.18.48-2.37.75-3.56,4,2.32,7.88,4.7,11.9,6.94,11.4,6.36,24,10.74,36.21,15.28s24.8,8.87,37.36,12.82Q165.78,857.57,195.56,864.21Z" transform="translate(99.33)"/>
              </g>
            </g>
            <path class="cls-14" d="M199,854.45c-9.2,13.8-104.16-27.21-135.69-40.25-23.89-9.88-15.22-24.07-12.65-42.55,7.54-54.45,16.68-101.34,25.68-151.46,3.42-19.13,6.84-38.72,10.14-59.38.14-.85.26-1.69.4-2.54-4,13.28-11.34,40.58-14.37,50.08-17.25,54-44.85,181.7-73.6,186.3-5,.79-59.65-18.45-62.1-25.3C-80.45,721.05-27,544-18.35,522.1c15-37.94,62.18-135.64,74.75-151.79C80.55,339.26,158.89,321,162.77,319.94q16.93-4.81,34.15-8.65c11.35,26.93,14.15,53.43,17.05,82.5C229.41,548.93,206.23,843.59,199,854.45Z" transform="translate(99.33)"/>
            <g>
              <polygon class="cls-10" points="323.62 345.01 322.78 349.39 321.94 353.85 320.54 361.2 319.71 365.59 317.4 377.71 316.59 381.96 313.65 397.44 266.12 318.56 269.42 313.97 271.69 310.82 275.67 305.3 277.92 302.17 281.31 297.47 283.53 294.37 286.82 289.81 323.62 345.01"/>
              <g>
                <path class="cls-11" d="M223.45,349.39l-.84,4.46q-11.19-14.19-21.88-28.76c-6.57-8.94-13.52-17.8-18.74-27.62l2.22-3.1A119.1,119.1,0,0,0,193.35,309Q207.95,329.55,223.45,349.39Z" transform="translate(99.33)"/>
                <path class="cls-11" d="M221.21,361.2l-.83,4.39c-8.47-10-16.8-20.15-24.71-30.59a212.9,212.9,0,0,1-19.33-29.7l2.25-3.13c2.56,5,5.4,9.88,8.44,14.62,8.33,12.95,18.08,24.92,27.85,36.79Q218,357.41,221.21,361.2Z" transform="translate(99.33)"/>
                <path class="cls-11" d="M218.07,377.71l-.8,4.25a305.41,305.41,0,0,1-27.17-34.2q-7.26-10.63-13.6-21.85-3.21-5.67-6.15-11.45l-.25-.49,2.26-3.15c.59,1.14,1.16,2.29,1.75,3.43q3.33,6.44,6.94,12.68a300.37,300.37,0,0,0,29.21,41.8Q214.09,373.3,218.07,377.71Z" transform="translate(99.33)"/>
              </g>
            </g>
            <path class="cls-15" d="M94.35,584.2a241.92,241.92,0,0,1-18,36c3.42-19.13,6.84-38.72,10.14-59.38,2.1-4.75,22.56-51.92,28.58-100.8C117.35,519.81,104.7,558.9,94.35,584.2Z" transform="translate(99.33)"/>
            <g>
              <path class="cls-10" d="M601.19,522.51a182,182,0,0,0,17.71-10.1c.91-.6,1.82-1.22,2.71-1.84a65.08,65.08,0,0,0,7.84-6.29,28.2,28.2,0,0,0,2.28-2.43,11.23,11.23,0,0,0,2.83-5.52c.91-8.09-29.9-42.46-35.19-43.16a16.64,16.64,0,0,0-7,1.1c-1.11.38-2.26.82-3.44,1.33a88.87,88.87,0,0,0-9.09,4.64c-1,.57-2,1.17-3,1.77-8.58,5.22-15.93,10.78-15.93,10.78Z" transform="translate(99.33)"/>
              <g>
                <path class="cls-11" d="M618.9,512.41c.91-.6,1.82-1.22,2.71-1.84-1.18-1.76-2.39-3.52-3.61-5.27a318.67,318.67,0,0,0-22.42-28.93c-4-4.58-8.25-9-12.67-13.21-1-1-2-2-3.11-2.92-1,.57-2,1.17-3,1.77,2.2,1.91,4.3,4,6.38,6C596.74,481.41,608.23,496.66,618.9,512.41Z" transform="translate(99.33)"/>
                <path class="cls-11" d="M629.45,504.28a28.2,28.2,0,0,0,2.28-2.43c-.83-1.23-1.65-2.44-2.48-3.64-10.84-15.74-22.54-31.33-36.92-43.94-1.11.38-2.26.82-3.44,1.33q1.89,1.62,3.71,3.31a197.54,197.54,0,0,1,24.54,27.94C621.38,492.57,625.46,498.4,629.45,504.28Z" transform="translate(99.33)"/>
              </g>
            </g>
            <g>
              <path class="cls-10" d="M260.29,840.83a178.72,178.72,0,0,0,2.85,23.38c.23,1.14.47,2.26.75,3.34a44.19,44.19,0,0,0,2.52,7.69,16.76,16.76,0,0,0,1.79,3.12,8.21,8.21,0,0,0,1.36,1.44c3.86,3.07,53-7.41,78.62-17.22,23.25-8.89,59.82-22.65,61.29-29.36a19.76,19.76,0,0,0,.29-5c0-1.19-.16-2.48-.32-3.81h0c-.28-2.35-.71-4.88-1.23-7.45-.23-1.18-.48-2.37-.76-3.56-2.44-10.88-5.93-21.51-5.93-21.51Z" transform="translate(99.33)"/>
              <g>
                <path class="cls-11" d="M266.41,875.24a16.76,16.76,0,0,0,1.79,3.12q11.08-2.52,22.09-5.38A755.76,755.76,0,0,0,367,848.32c12.48-4.74,24.86-9.56,36.36-16.41,2.11-1.25,4.24-2.48,6.36-3.7,0-1.19-.16-2.48-.32-3.81-4.25,2.45-8.43,5-12.73,7.42-11.41,6.36-24,10.74-36.21,15.28s-24.81,8.87-37.37,12.82C304.45,865.8,285.52,871,266.41,875.24Z" transform="translate(99.33)"/>
                <path class="cls-11" d="M263.14,864.21c.23,1.14.47,2.26.75,3.34q12.67-2.77,25.25-6.07a755.76,755.76,0,0,0,76.75-24.66c12.48-4.74,24.86-9.56,36.36-16.41q3-1.75,6-3.47c-.23-1.18-.48-2.37-.76-3.56-4,2.32-7.88,4.7-11.89,6.94-11.41,6.36-24,10.74-36.21,15.28s-24.81,8.87-37.37,12.82Q292.93,857.57,263.14,864.21Z" transform="translate(99.33)"/>
              </g>
            </g>
            <path class="cls-14" d="M614.14,519.81c-21,29.38-175.71,196.64-223.1,98.89-.69-1.42-1.54-3.58-2.51-6.28-5.11-14.2-13.32-43-16.71-54.15.14.85.27,1.69.41,2.54.26,1.68.54,3.35.8,5,3.05,18.82,6.19,36.79,9.34,54.36,9,50.12,18.14,97,25.68,151.46,2.56,18.48,11.23,32.67-12.65,42.55-31.53,13-126.5,54-135.7,40.25-4.59-6.88-.85-129.35-4.36-256.45-2-73.46-16.27-147.39-10.61-204.21,2.9-29.07,5.69-55.57,17-82.5q17.21,3.82,34.16,8.65c3.87,1.08,82.22,19.32,106.37,50.37C414.87,386.46,469.24,521,469.24,521s46.54-34.72,102.35-58.64C579.64,458.86,619.89,511.76,614.14,519.81Z" transform="translate(99.33)"/>
            <g>
              <polygon class="cls-10" points="333.73 345.01 334.57 349.39 335.41 353.85 336.81 361.2 337.64 365.59 339.95 377.71 340.75 381.96 343.7 397.44 391.23 318.56 387.93 313.97 385.66 310.82 381.68 305.3 379.43 302.17 376.04 297.47 373.82 294.37 370.53 289.81 333.73 345.01"/>
              <g>
                <path class="cls-11" d="M235.24,349.39l.84,4.46q11.19-14.19,21.89-28.76c6.56-8.94,13.52-17.8,18.74-27.62l-2.22-3.1A120.32,120.32,0,0,1,265.35,309Q250.76,329.55,235.24,349.39Z" transform="translate(99.33)"/>
                <path class="cls-11" d="M237.48,361.2l.83,4.39c8.48-10,16.8-20.15,24.71-30.59a213,213,0,0,0,19.34-29.7l-2.26-3.13a165.88,165.88,0,0,1-8.44,14.62c-8.32,12.95-18.08,24.92-27.84,36.79Q240.69,357.41,237.48,361.2Z" transform="translate(99.33)"/>
                <path class="cls-11" d="M240.62,377.71l.81,4.25a305.33,305.33,0,0,0,27.16-34.2q7.26-10.63,13.61-21.85,3.19-5.67,6.15-11.45l.25-.49-2.26-3.15c-.59,1.14-1.17,2.29-1.75,3.43q-3.33,6.44-6.95,12.68a299.52,299.52,0,0,1-29.21,41.8Q244.62,373.3,240.62,377.71Z" transform="translate(99.33)"/>
              </g>
            </g>
            <path class="cls-7" d="M296.34,262.59c-4.25,10.37-10.15,19.82-19.8,25.89a50.75,50.75,0,0,1-29,7.58c-11.17-.49-21.91-4.38-31.42-10.37A82.42,82.42,0,0,1,203,275.35a114.73,114.73,0,0,1-18-22.83c-8.26-13.47-14.92-28.82-18.21-44.66-3.76-17.92-3.24-36.48,4.06-53.67A68.19,68.19,0,0,1,183,135c21.46-23.9,58.37-28,84.6-9.46,13.67,9.68,23.86,24.23,29.31,40a151.84,151.84,0,0,1,4.42,15.31C307.64,207.79,306.8,237,296.34,262.59Z" transform="translate(99.33)"/>
            <g>
              <g>
                <g>
                  <path class="cls-16" d="M242,214.57c-1.41.07-3.35-2.17-3.88-5.49a8.72,8.72,0,0,1,.46-4.81c.21-.45.77-1.51,1.63-1.65h.13c1.41-.08,3.35,2.16,3.88,5.48a8.79,8.79,0,0,1-.47,4.81c-.2.45-.76,1.51-1.62,1.65Z" transform="translate(99.33)"/>
                  <path class="cls-16" d="M284.2,210.48c-1.19.06-3.18-1.93-3.72-5.31a8.43,8.43,0,0,1,.45-4.65c.41-.91,1-1.49,1.54-1.58h.12c1.19-.06,3.18,1.93,3.72,5.3a8.46,8.46,0,0,1-.45,4.66c-.4.91-1,1.48-1.54,1.57l-.12,0Z" transform="translate(99.33)"/>
                  <path class="cls-16" d="M263,218.13a5.21,5.21,0,0,1,4.73-1.41,6.22,6.22,0,0,1,4.46,8.56,5.16,5.16,0,0,1-3.86,3.06,7,7,0,0,0,2-3.69,5.58,5.58,0,0,0-3.15-6.06A7.13,7.13,0,0,0,263,218.13Z" transform="translate(99.33)"/>
                </g>
                <g>
                  <path class="cls-16" d="M243.34,184.21a17.07,17.07,0,0,0-13.43-.6,3.27,3.27,0,0,0,0,6.1,3.08,3.08,0,0,0,1,.23,3.16,3.16,0,0,0,1.36-.21,10.17,10.17,0,0,1,4.22-.65,10,10,0,0,1,3.95,1,3.32,3.32,0,0,0,1.27.33,3.28,3.28,0,0,0,1.63-6.22Z" transform="translate(99.33)"/>
                  <path class="cls-16" d="M283.59,177.39a15.3,15.3,0,0,0-2.34-.31,15.84,15.84,0,0,0-9.78,2.71,3.27,3.27,0,0,0,1,5.87,3.79,3.79,0,0,0,.66.11,3.38,3.38,0,0,0,2-.57,9.33,9.33,0,0,1,5.7-1.57,8.32,8.32,0,0,1,1.34.17,3,3,0,0,0,.51.07,3.26,3.26,0,0,0,3.38-2.59A3.3,3.3,0,0,0,283.59,177.39Z" transform="translate(99.33)"/>
                </g>
                <path class="cls-11" d="M241.22,204.79a1.63,1.63,0,0,0-.66,3.19A1.63,1.63,0,0,0,241.22,204.79Z" transform="translate(99.33)"/>
                <path class="cls-11" d="M284.05,200.66a1.63,1.63,0,0,0-.66,3.2A1.63,1.63,0,0,0,284.05,200.66Z" transform="translate(99.33)"/>
                <g>
                  <path class="cls-17" d="M288.62,234.33A29.39,29.39,0,0,1,286,250.06c-3.55,7.41-10.17,12.69-18.19,13.5-8.21.83-15.92-3.22-20.86-10.05a29.41,29.41,0,0,1-5.43-14.41c0-.19,0-.39,0-.6l47.09-4.77C288.56,233.94,288.6,234.13,288.62,234.33Z" transform="translate(99.33)"/>
                  <path class="cls-11" d="M286.62,233.92a30.36,30.36,0,0,1-43.26,4.38Z" transform="translate(99.33)"/>
                  <path class="cls-18" d="M286,250.06c-3.55,7.41-10.17,12.69-18.19,13.5-8.21.83-15.92-3.22-20.86-10.05a86.7,86.7,0,0,1,24.37-4.28A87.87,87.87,0,0,1,286,250.06Z" transform="translate(99.33)"/>
                </g>
              </g>
              <g>
                <path class="cls-6" d="M239.4,227.52c.29,5.36-5.38,10-12.66,10.4s-13.4-3.64-13.69-9,5.39-10,12.66-10.4S239.12,222.16,239.4,227.52Z" transform="translate(99.33)"/>
                <path class="cls-6" d="M300.76,218.8c.19,3.62-3.64,6.77-8.55,7s-9-2.46-9.25-6.08,3.64-6.76,8.55-7S300.57,215.18,300.76,218.8Z" transform="translate(99.33)"/>
              </g>
            </g>
            <path class="cls-15" d="M388.53,612.42c-5.11-14.2-13.32-43-16.71-54.15.14.85.27,1.69.41,2.54.26,1.68.54,3.35.8,5l-1.54-8.08-8.35-124.9s26.3,117.88,26.67,157.92C389.84,594.84,389.24,603.65,388.53,612.42Z" transform="translate(99.33)"/>
            <polygon class="cls-19" points="141.92 1542.14 141.92 1590.33 255.77 1592.74 260.37 1544.55 141.92 1542.14"/>
            <polygon class="cls-19" points="363.87 1547.3 366.21 1595.04 478.69 1592.46 483.47 1542.14 363.87 1547.3"/>
            <path class="cls-4" d="M162.46,140.13c-2.15-8.33.57-17.58,6-23.93s13.14-10,21-11.29,16-.43,23.89,1.16c7.59,1.54,15.19,3.75,22.88,3.28a35.14,35.14,0,0,0,24.82-13c5.9-7.25,18.58-6.18,26.25-1.12s15.23,13.94,16.81,23.48c1.51,9.14.65,24.39-13.66,32.77-16.87,9.88-69.92,6.38-77.08,6.2s-14.87,1.69-19.59,7.47c-9.39,11.47-11.22,28.75-11.89,44.08a32.51,32.51,0,0,0-17.06-4.41,14.24,14.24,0,0,0-9.1,2.66c-5.93-11.46-9.41-23.77-12.12-36.54-1.35-6.33-2.28-12.88-1.48-19.3a16.36,16.36,0,0,1,2.19-6.94,11.94,11.94,0,0,1,8.85-5.06C156.62,139.27,159.12,139.14,162.46,140.13Z" transform="translate(99.33)"/>
          </g>
        </g>
        <path class="cls-20" d="M243.07,485.91a1.29,1.29,0,1,1,0-2.58c2.27,0,4.58,0,6.86-.1a1.29,1.29,0,1,1,.08,2.58C247.7,485.88,245.37,485.91,243.07,485.91Zm-6.9-.09h0c-2.3-.07-4.64-.16-6.93-.29a1.29,1.29,0,0,1,.15-2.58c2.26.13,4.57.23,6.86.29a1.29,1.29,0,0,1,0,2.58Zm20.69-.3a1.29,1.29,0,0,1-.07-2.58c2.28-.13,4.58-.29,6.85-.49a1.29,1.29,0,0,1,.22,2.58c-2.29.19-4.62.36-6.92.49Zm-34.47-.47h-.11c-2.29-.19-4.61-.42-6.9-.68a1.29,1.29,0,1,1,.29-2.56c2.27.26,4.57.48,6.83.67a1.29,1.29,0,0,1-.11,2.58Zm48.22-.71a1.29,1.29,0,0,1-.14-2.57c2.26-.25,4.55-.55,6.81-.87a1.29,1.29,0,1,1,.36,2.55c-2.28.33-4.6.63-6.88.89Zm-61.93-.84h-.18c-2.28-.33-4.58-.69-6.85-1.08a1.29,1.29,0,1,1,.43-2.54c2.25.39,4.53.74,6.78,1.06a1.29,1.29,0,0,1-.18,2.57Zm75.59-1.11a1.29,1.29,0,0,1-.21-2.56c2.24-.38,4.51-.81,6.74-1.26a1.29,1.29,0,1,1,.51,2.53c-2.26.45-4.55.88-6.82,1.27A.78.78,0,0,1,284.27,482.39Zm-89.19-1.22a1.07,1.07,0,0,1-.25,0c-2.26-.45-4.54-.94-6.79-1.46a1.29,1.29,0,1,1,.59-2.51c2.22.51,4.48,1,6.7,1.44a1.29,1.29,0,0,1-.25,2.56Zm102.72-1.51a1.29,1.29,0,0,1-.29-2.55c2.22-.51,4.46-1.07,6.66-1.64a1.29,1.29,0,1,1,.66,2.49c-2.23.59-4.49,1.15-6.74,1.67A1.43,1.43,0,0,1,297.8,479.66Zm-116.16-1.6a1.24,1.24,0,0,1-.33,0c-2.24-.58-4.49-1.21-6.69-1.85a1.29,1.29,0,0,1,.73-2.48c2.17.64,4.4,1.26,6.61,1.84a1.29,1.29,0,0,1-.32,2.53Zm129.51-1.9a1.29,1.29,0,0,1-.37-2.53c2.18-.64,4.39-1.32,6.56-2a1.29,1.29,0,1,1,.8,2.45c-2.2.72-4.43,1.41-6.63,2.05A1.13,1.13,0,0,1,311.15,476.16Zm-142.76-2a1.39,1.39,0,0,1-.4-.06c-2.2-.72-4.42-1.47-6.59-2.25a1.28,1.28,0,0,1-.78-1.64,1.3,1.3,0,0,1,1.65-.79c2.15.77,4.34,1.52,6.52,2.22a1.29,1.29,0,0,1,.83,1.63A1.31,1.31,0,0,1,168.39,474.19Zm155.88-2.3a1.28,1.28,0,0,1-1.21-.86,1.29,1.29,0,0,1,.78-1.65c2.14-.76,4.31-1.57,6.43-2.4a1.29,1.29,0,1,1,.93,2.41c-2.14.83-4.32,1.65-6.5,2.42A1.06,1.06,0,0,1,324.27,471.89Zm-168.92-2.35a1.27,1.27,0,0,1-.47-.09c-2.15-.83-4.32-1.71-6.45-2.61a1.29,1.29,0,0,1,1-2.38c2.1.89,4.25,1.76,6.38,2.59a1.29,1.29,0,0,1-.47,2.49Zm181.76-2.65a1.29,1.29,0,0,1-.51-2.48c2.1-.89,4.2-1.82,6.26-2.76a1.29,1.29,0,0,1,1.08,2.35c-2.08.95-4.21,1.89-6.33,2.78A1.33,1.33,0,0,1,337.11,466.89ZM142.6,464.16a1.24,1.24,0,0,1-.53-.12c-2.1-1-4.21-2-6.28-3a1.29,1.29,0,1,1,1.14-2.32c2,1,4.14,2,6.21,2.95a1.29,1.29,0,0,1-.54,2.47Zm207-3a1.28,1.28,0,0,1-1.16-.72,1.3,1.3,0,0,1,.59-1.73c2-1,4.08-2,6.09-3.11a1.29,1.29,0,1,1,1.21,2.28c-2,1.07-4.1,2.13-6.16,3.15A1.31,1.31,0,0,1,349.62,461.16ZM130.2,458.05a1.27,1.27,0,0,1-.6-.15c-2-1.08-4.09-2.2-6.1-3.34a1.29,1.29,0,1,1,1.27-2.24c2,1.12,4,2.23,6,3.3a1.29,1.29,0,0,1-.6,2.43Zm231.59-3.32a1.3,1.3,0,0,1-.64-2.42c2-1.12,4-2.28,5.92-3.46a1.29,1.29,0,1,1,1.33,2.21c-2,1.19-4,2.37-6,3.5A1.32,1.32,0,0,1,361.79,454.73Zm-243.62-3.49a1.35,1.35,0,0,1-.67-.18c-2-1.19-4-2.43-5.89-3.68a1.29,1.29,0,1,1,1.39-2.17c1.92,1.24,3.89,2.46,5.83,3.64a1.29,1.29,0,0,1-.66,2.39Zm255.41-3.64a1.29,1.29,0,0,1-.7-2.37c1.91-1.23,3.83-2.51,5.71-3.79a1.29,1.29,0,0,1,1.46,2.13c-1.9,1.3-3.84,2.59-5.77,3.83A1.29,1.29,0,0,1,373.58,447.6Zm-267-3.84a1.3,1.3,0,0,1-.73-.22c-1.9-1.31-3.81-2.65-5.67-4a1.29,1.29,0,1,1,1.52-2.09c1.84,1.35,3.73,2.68,5.61,4a1.29,1.29,0,0,1-.73,2.35ZM385,439.82a1.3,1.3,0,0,1-.76-2.34c1.84-1.33,3.69-2.72,5.49-4.11a1.29,1.29,0,0,1,1.57,2.05c-1.82,1.4-3.68,2.8-5.54,4.15A1.28,1.28,0,0,1,385,439.82ZM95.38,435.63a1.29,1.29,0,0,1-.79-.26c-1.81-1.41-3.64-2.86-5.43-4.32a1.3,1.3,0,0,1-.18-1.82,1.29,1.29,0,0,1,1.81-.18c1.77,1.45,3.58,2.88,5.38,4.27a1.29,1.29,0,0,1,.23,1.81A1.27,1.27,0,0,1,95.38,435.63Zm300.48-4.23a1.31,1.31,0,0,1-1-.48,1.29,1.29,0,0,1,.19-1.81c1.76-1.45,3.53-2.93,5.24-4.42a1.29,1.29,0,1,1,1.69,1.95c-1.73,1.5-3.52,3-5.3,4.46A1.28,1.28,0,0,1,395.86,431.4ZM84.7,426.89a1.32,1.32,0,0,1-.85-.32c-1.74-1.51-3.48-3.06-5.17-4.62a1.29,1.29,0,0,1,1.74-1.9c1.68,1.54,3.4,3.08,5.12,4.57a1.29,1.29,0,0,1,.13,1.82A1.26,1.26,0,0,1,84.7,426.89Zm321.59-4.53a1.29,1.29,0,0,1-.88-2.24c1.69-1.54,3.37-3.13,5-4.71a1.3,1.3,0,0,1,1.83,0,1.28,1.28,0,0,1,0,1.82c-1.64,1.6-3.34,3.2-5,4.76A1.28,1.28,0,0,1,406.29,422.36ZM74.53,417.55a1.3,1.3,0,0,1-.9-.36c-1.65-1.61-3.3-3.26-4.9-4.91a1.29,1.29,0,1,1,1.85-1.79c1.58,1.63,3.22,3.26,4.85,4.85a1.29,1.29,0,0,1-.9,2.21Zm341.65-4.8a1.32,1.32,0,0,1-.9-.36,1.29,1.29,0,0,1,0-1.83c1.58-1.63,3.17-3.3,4.72-5a1.29,1.29,0,0,1,1.9,1.75c-1.57,1.7-3.17,3.4-4.77,5A1.29,1.29,0,0,1,416.18,412.75ZM64.92,407.66a1.31,1.31,0,0,1-1-.42c-1.55-1.69-3.11-3.43-4.61-5.17a1.29,1.29,0,1,1,1.95-1.69c1.49,1.72,3,3.44,4.57,5.12a1.29,1.29,0,0,1-.08,1.82A1.28,1.28,0,0,1,64.92,407.66Zm360.6-5.07a1.23,1.23,0,0,1-.84-.32,1.29,1.29,0,0,1-.13-1.82c1.5-1.72,3-3.49,4.43-5.24a1.28,1.28,0,0,1,1.81-.19,1.3,1.3,0,0,1,.18,1.82c-1.45,1.78-3,3.56-4.47,5.31A1.32,1.32,0,0,1,425.52,402.59ZM55.88,397.24a1.29,1.29,0,0,1-1-.47c-1.45-1.78-2.9-3.6-4.32-5.43a1.29,1.29,0,0,1,2-1.57c1.39,1.8,2.83,3.61,4.27,5.36a1.29,1.29,0,0,1-.19,1.82A1.22,1.22,0,0,1,55.88,397.24Zm378.39-5.33a1.27,1.27,0,0,1-.78-.27,1.29,1.29,0,0,1-.24-1.81c1.4-1.8,2.79-3.65,4.13-5.49a1.29,1.29,0,1,1,2.08,1.52c-1.35,1.86-2.75,3.73-4.16,5.55A1.3,1.3,0,0,1,434.27,391.91ZM47.45,386.33a1.27,1.27,0,0,1-1-.53c-1.36-1.86-2.7-3.77-4-5.66a1.29,1.29,0,0,1,2.13-1.46c1.28,1.87,2.61,3.76,4,5.6a1.29,1.29,0,0,1-1,2.05Zm395-5.58a1.31,1.31,0,0,1-.73-.23,1.29,1.29,0,0,1-.34-1.79c1.3-1.89,2.58-3.81,3.81-5.73a1.28,1.28,0,0,1,1.78-.38,1.29,1.29,0,0,1,.39,1.78c-1.25,1.94-2.54,3.88-3.85,5.79A1.29,1.29,0,0,1,442.41,380.75ZM39.66,375a1.31,1.31,0,0,1-1.09-.59c-1.24-1.93-2.47-3.9-3.66-5.87a1.29,1.29,0,0,1,2.2-1.34c1.18,1.95,2.4,3.91,3.63,5.81a1.28,1.28,0,0,1-1.08,2Zm410.23-5.83a1.28,1.28,0,0,1-.66-.18,1.3,1.3,0,0,1-.44-1.78c1.18-1.95,2.35-3.94,3.47-5.93a1.29,1.29,0,0,1,2.25,1.27c-1.14,2-2.32,4-3.51,6A1.3,1.3,0,0,1,449.89,369.13ZM32.53,363.18a1.29,1.29,0,0,1-1.12-.66c-1.13-2-2.25-4-3.33-6.07a1.29,1.29,0,0,1,2.28-1.21c1.07,2,2.17,4,3.29,6a1.28,1.28,0,0,1-.48,1.76A1.33,1.33,0,0,1,32.53,363.18Zm424.17-6.07a1.3,1.3,0,0,1-1.14-1.9c1.07-2,2.12-4.07,3.13-6.12a1.29,1.29,0,0,1,2.32,1.14c-1,2.07-2.09,4.15-3.17,6.19A1.28,1.28,0,0,1,456.7,357.11ZM26.09,351a1.3,1.3,0,0,1-1.16-.72c-1-2.06-2-4.16-3-6.25A1.29,1.29,0,0,1,24.31,343c1,2.06,1.93,4.14,2.94,6.18a1.3,1.3,0,0,1-.59,1.73A1.28,1.28,0,0,1,26.09,351Zm436.73-6.31a1.32,1.32,0,0,1-.54-.12,1.28,1.28,0,0,1-.63-1.71c.94-2.07,1.88-4.19,2.77-6.29a1.3,1.3,0,0,1,1.69-.69,1.28,1.28,0,0,1,.68,1.69c-.9,2.13-1.84,4.27-2.8,6.37A1.29,1.29,0,0,1,462.82,344.7ZM20.36,338.5a1.29,1.29,0,0,1-1.19-.79c-.89-2.11-1.77-4.26-2.6-6.4a1.29,1.29,0,1,1,2.4-.94c.82,2.12,1.69,4.25,2.58,6.34a1.29,1.29,0,0,1-.69,1.69A1.24,1.24,0,0,1,20.36,338.5ZM468.21,332a1.31,1.31,0,0,1-.47-.09,1.29,1.29,0,0,1-.73-1.67c.83-2.12,1.64-4.29,2.41-6.45a1.29,1.29,0,0,1,2.43.87c-.78,2.18-1.6,4.37-2.44,6.52A1.28,1.28,0,0,1,468.21,332ZM15.35,325.67a1.28,1.28,0,0,1-1.21-.86c-.78-2.16-1.53-4.37-2.25-6.56a1.29,1.29,0,1,1,2.46-.8c.7,2.17,1.45,4.35,2.21,6.49a1.28,1.28,0,0,1-.78,1.65A1.31,1.31,0,0,1,15.35,325.67Zm457.51-6.75a1.32,1.32,0,0,1-.39-.06,1.29,1.29,0,0,1-.83-1.63c.7-2.16,1.38-4.37,2-6.56a1.29,1.29,0,0,1,2.48.73c-.65,2.21-1.34,4.44-2.05,6.63A1.3,1.3,0,0,1,472.86,318.92ZM11.08,312.55a1.29,1.29,0,0,1-1.24-.93c-.65-2.21-1.28-4.46-1.86-6.68a1.29,1.29,0,1,1,2.49-.66c.58,2.2,1.2,4.43,1.84,6.61a1.28,1.28,0,0,1-.87,1.6A1.13,1.13,0,0,1,11.08,312.55Zm465.66-6.87a1.25,1.25,0,0,1-.32-.05,1.28,1.28,0,0,1-.92-1.57c.57-2.21,1.13-4.45,1.64-6.66a1.29,1.29,0,1,1,2.51.58c-.51,2.24-1.07,4.5-1.66,6.73A1.29,1.29,0,0,1,476.74,305.68ZM7.56,299.2a1.29,1.29,0,0,1-1.25-1c-.52-2.24-1-4.52-1.47-6.78a1.29,1.29,0,1,1,2.52-.51c.46,2.24,1,4.49,1.46,6.71a1.29,1.29,0,0,1-1,1.55Zm472.3-7a1.14,1.14,0,0,1-.26,0,1.29,1.29,0,0,1-1-1.52c.45-2.23.88-4.5,1.26-6.75a1.29,1.29,0,1,1,2.54.44c-.39,2.27-.81,4.56-1.27,6.82A1.28,1.28,0,0,1,479.86,292.23Zm-475-6.55a1.29,1.29,0,0,1-1.27-1.07c-.39-2.26-.76-4.57-1.09-6.86A1.29,1.29,0,0,1,5,277.39c.32,2.26.68,4.54,1.07,6.78a1.29,1.29,0,0,1-1,1.49Zm477.37-7.05H482a1.29,1.29,0,0,1-1.09-1.46c.32-2.25.61-4.54.87-6.81a1.27,1.27,0,0,1,1.42-1.13,1.29,1.29,0,0,1,1.14,1.42c-.26,2.3-.56,4.61-.88,6.88A1.28,1.28,0,0,1,482.2,278.63ZM2.87,272a1.29,1.29,0,0,1-1.28-1.15c-.26-2.27-.5-4.59-.69-6.9a1.27,1.27,0,0,1,1.17-1.39,1.3,1.3,0,0,1,1.4,1.17c.19,2.28.42,4.58.68,6.83A1.29,1.29,0,0,1,3,272Zm480.88-7.1h-.11a1.3,1.3,0,0,1-1.18-1.4c.2-2.26.36-4.56.49-6.84a1.29,1.29,0,1,1,2.57.14c-.13,2.31-.29,4.63-.49,6.92A1.28,1.28,0,0,1,483.75,264.92ZM1.69,258.27A1.29,1.29,0,0,1,.4,257.05c-.13-2.29-.23-4.63-.3-6.93a1.29,1.29,0,1,1,2.58-.07c.07,2.28.17,4.58.3,6.85a1.29,1.29,0,0,1-1.22,1.37Zm482.84-7.13h0a1.29,1.29,0,0,1-1.25-1.32c.06-2.28.09-4.58.09-6.86v-.45a1.29,1.29,0,1,1,2.58,0V243c0,2.3,0,4.63-.1,6.93A1.28,1.28,0,0,1,484.53,251.14ZM1.29,244.47A1.29,1.29,0,0,1,0,243.18V243c0-2.23,0-4.49.09-6.71A1.33,1.33,0,0,1,1.42,235a1.29,1.29,0,0,1,1.25,1.33c-.06,2.2-.09,4.43-.09,6.64v.22A1.29,1.29,0,0,1,1.29,244.47Zm483.22-7.58a1.29,1.29,0,0,1-1.29-1.25c-.07-2.28-.17-4.59-.3-6.86a1.29,1.29,0,0,1,1.21-1.36,1.31,1.31,0,0,1,1.37,1.21c.13,2.3.23,4.63.3,6.93a1.29,1.29,0,0,1-1.25,1.33ZM1.67,230.68H1.59a1.29,1.29,0,0,1-1.21-1.36c.12-2.3.28-4.63.48-6.92a1.29,1.29,0,0,1,2.57.21c-.19,2.27-.35,4.58-.48,6.85A1.28,1.28,0,0,1,1.67,230.68Zm482-7.56a1.28,1.28,0,0,1-1.28-1.18c-.2-2.27-.43-4.57-.69-6.83a1.29,1.29,0,1,1,2.56-.3c.26,2.29.5,4.61.7,6.9a1.3,1.3,0,0,1-1.18,1.4ZM2.82,216.93H2.67a1.3,1.3,0,0,1-1.14-1.43c.26-2.29.56-4.6.88-6.88A1.29,1.29,0,0,1,5,209c-.32,2.25-.61,4.54-.86,6.81A1.3,1.3,0,0,1,2.82,216.93Zm479.31-7.52a1.3,1.3,0,0,1-1.28-1.11c-.32-2.25-.69-4.53-1.08-6.78a1.29,1.29,0,0,1,2.55-.44c.39,2.27.76,4.58,1.09,6.85a1.29,1.29,0,0,1-1.1,1.46ZM4.75,203.27l-.22,0a1.29,1.29,0,0,1-1.05-1.49c.39-2.27.81-4.57,1.26-6.82a1.29,1.29,0,0,1,2.53.5c-.44,2.24-.86,4.51-1.25,6.75A1.3,1.3,0,0,1,4.75,203.27Zm475-7.46a1.3,1.3,0,0,1-1.27-1c-.45-2.23-.94-4.49-1.46-6.71a1.29,1.29,0,1,1,2.51-.58c.52,2.24,1,4.52,1.48,6.78a1.3,1.3,0,0,1-1,1.52ZM7.46,189.74a1,1,0,0,1-.29,0,1.28,1.28,0,0,1-1-1.54c.52-2.26,1.07-4.52,1.65-6.74a1.29,1.29,0,0,1,2.5.65c-.58,2.19-1.13,4.44-1.64,6.67A1.3,1.3,0,0,1,7.46,189.74Zm469.17-7.36a1.3,1.3,0,0,1-1.25-1c-.58-2.2-1.2-4.42-1.85-6.61a1.29,1.29,0,0,1,2.48-.73c.65,2.21,1.28,4.46,1.87,6.69a1.29,1.29,0,0,1-.92,1.57A1.26,1.26,0,0,1,476.63,182.38ZM11,176.38a1.12,1.12,0,0,1-.36,0,1.28,1.28,0,0,1-.88-1.6c.65-2.21,1.33-4.45,2-6.63a1.29,1.29,0,0,1,1.63-.83,1.31,1.31,0,0,1,.83,1.63c-.7,2.16-1.38,4.36-2,6.56A1.29,1.29,0,0,1,11,176.38Zm461.77-7.24a1.28,1.28,0,0,1-1.22-.89c-.71-2.16-1.46-4.35-2.23-6.49a1.29,1.29,0,1,1,2.43-.87c.78,2.16,1.53,4.37,2.25,6.56a1.3,1.3,0,0,1-.83,1.63A1.34,1.34,0,0,1,472.72,169.14ZM15.2,163.23A1.28,1.28,0,0,1,14,161.51c.77-2.18,1.59-4.38,2.43-6.52a1.27,1.27,0,0,1,1.66-.74,1.29,1.29,0,0,1,.74,1.67c-.83,2.13-1.63,4.3-2.4,6.45A1.3,1.3,0,0,1,15.2,163.23Zm452.86-7.08a1.29,1.29,0,0,1-1.2-.82c-.82-2.11-1.69-4.24-2.58-6.33a1.29,1.29,0,1,1,2.37-1c.9,2.12,1.78,4.27,2.61,6.4a1.28,1.28,0,0,1-.73,1.67A1.27,1.27,0,0,1,468.06,156.15ZM20.22,150.33a1.32,1.32,0,0,1-.51-.1,1.29,1.29,0,0,1-.68-1.69c.89-2.12,1.83-4.26,2.79-6.37a1.29,1.29,0,1,1,2.35,1.07c-1,2.08-1.88,4.2-2.77,6.3A1.26,1.26,0,0,1,20.22,150.33Zm442.46-6.84a1.29,1.29,0,0,1-1.17-.75c-.95-2.07-1.94-4.15-2.95-6.18a1.29,1.29,0,0,1,2.32-1.14c1,2.05,2,4.15,3,6.24a1.29,1.29,0,0,1-1.17,1.83ZM26,137.75a1.28,1.28,0,0,1-.57-.13,1.3,1.3,0,0,1-.59-1.73c1-2.07,2.08-4.15,3.16-6.19a1.29,1.29,0,0,1,2.28,1.2c-1.07,2-2.12,4.08-3.12,6.13A1.3,1.3,0,0,1,26,137.75Zm430.62-6.6a1.3,1.3,0,0,1-1.14-.68c-1.06-2-2.17-4-3.29-6a1.29,1.29,0,0,1,2.24-1.27c1.13,2,2.25,4,3.33,6.07a1.28,1.28,0,0,1-.53,1.74A1.22,1.22,0,0,1,456.58,131.15ZM32.41,125.52a1.22,1.22,0,0,1-.63-.17,1.28,1.28,0,0,1-.49-1.75c1.14-2,2.31-4,3.51-6A1.29,1.29,0,1,1,37,118.93c-1.18,1.95-2.35,3.95-3.47,5.94A1.3,1.3,0,0,1,32.41,125.52Zm417.37-6.34a1.29,1.29,0,0,1-1.1-.62c-1.18-1.94-2.4-3.9-3.63-5.81a1.29,1.29,0,1,1,2.16-1.4c1.25,1.93,2.49,3.91,3.68,5.87a1.29,1.29,0,0,1-.44,1.77A1.26,1.26,0,0,1,449.78,119.18ZM39.55,113.69a1.27,1.27,0,0,1-.69-.21,1.29,1.29,0,0,1-.39-1.78c1.24-1.93,2.54-3.88,3.84-5.79a1.29,1.29,0,0,1,2.13,1.46c-1.29,1.89-2.57,3.81-3.8,5.73A1.3,1.3,0,0,1,39.55,113.69Zm402.76-6.09a1.27,1.27,0,0,1-1.06-.56c-1.29-1.88-2.63-3.76-4-5.59a1.29,1.29,0,1,1,2.08-1.52c1.35,1.85,2.7,3.75,4,5.65a1.28,1.28,0,0,1-1.06,2ZM47.36,102.29a1.26,1.26,0,0,1-.76-.25,1.28,1.28,0,0,1-.29-1.8c1.36-1.86,2.76-3.73,4.17-5.56a1.29,1.29,0,0,1,2,1.58c-1.4,1.81-2.78,3.66-4.12,5.5A1.31,1.31,0,0,1,47.36,102.29Zm386.83-5.82a1.27,1.27,0,0,1-1-.5c-1.4-1.81-2.84-3.61-4.28-5.37a1.29,1.29,0,0,1,2-1.63c1.45,1.77,2.91,3.59,4.32,5.42A1.3,1.3,0,0,1,435,96.2,1.32,1.32,0,0,1,434.19,96.47ZM55.79,91.35a1.24,1.24,0,0,1-.81-.29,1.28,1.28,0,0,1-.19-1.81c1.46-1.78,3-3.57,4.47-5.31a1.29,1.29,0,0,1,2,1.69c-1.49,1.72-3,3.49-4.42,5.25A1.27,1.27,0,0,1,55.79,91.35Zm369.65-5.54a1.26,1.26,0,0,1-1-.45c-1.5-1.72-3-3.44-4.58-5.11a1.29,1.29,0,1,1,1.9-1.75c1.56,1.69,3.11,3.43,4.63,5.17a1.3,1.3,0,0,1-.13,1.82A1.32,1.32,0,0,1,425.44,85.81ZM64.83,80.92a1.29,1.29,0,0,1-.95-2.16c1.56-1.69,3.16-3.39,4.76-5.05a1.29,1.29,0,0,1,1.85,1.8c-1.59,1.64-3.17,3.32-4.71,5A1.27,1.27,0,0,1,64.83,80.92ZM416.1,75.65a1.28,1.28,0,0,1-.92-.39c-1.59-1.63-3.23-3.26-4.86-4.84a1.29,1.29,0,0,1,1.8-1.86c1.65,1.6,3.3,3.25,4.91,4.9a1.3,1.3,0,0,1,0,1.83A1.29,1.29,0,0,1,416.1,75.65ZM74.45,71a1.29,1.29,0,0,1-.9-2.21c1.65-1.61,3.34-3.21,5-4.77a1.29,1.29,0,1,1,1.75,1.9c-1.68,1.54-3.35,3.13-5,4.72A1.28,1.28,0,0,1,74.45,71Zm331.75-5a1.31,1.31,0,0,1-.87-.34c-1.68-1.54-3.41-3.08-5.13-4.57a1.29,1.29,0,1,1,1.69-2c1.74,1.51,3.48,3.06,5.18,4.61a1.31,1.31,0,0,1,.08,1.83A1.32,1.32,0,0,1,406.2,66.05ZM84.6,61.69a1.26,1.26,0,0,1-1-.45,1.29,1.29,0,0,1,.13-1.82c1.73-1.51,3.52-3,5.29-4.47a1.29,1.29,0,0,1,1.64,2c-1.76,1.44-3.52,2.93-5.24,4.42A1.32,1.32,0,0,1,84.6,61.69ZM395.76,57a1.32,1.32,0,0,1-.82-.29c-1.76-1.44-3.57-2.88-5.38-4.27a1.29,1.29,0,0,1,1.58-2c1.82,1.4,3.65,2.85,5.44,4.31a1.29,1.29,0,0,1-.82,2.29ZM95.27,52.94a1.27,1.27,0,0,1-1-.5,1.28,1.28,0,0,1,.23-1.81c1.82-1.4,3.68-2.8,5.54-4.16a1.29,1.29,0,0,1,1.52,2.09c-1.84,1.34-3.69,2.72-5.48,4.12A1.31,1.31,0,0,1,95.27,52.94Zm289.55-4.36a1.28,1.28,0,0,1-.76-.25c-1.84-1.34-3.73-2.67-5.61-3.95a1.3,1.3,0,0,1-.34-1.8,1.28,1.28,0,0,1,1.79-.33c1.9,1.3,3.81,2.64,5.68,4a1.29,1.29,0,0,1-.76,2.33ZM106.41,44.83a1.29,1.29,0,0,1-.73-2.36c1.89-1.3,3.83-2.59,5.76-3.83a1.29,1.29,0,1,1,1.4,2.16c-1.91,1.24-3.83,2.51-5.7,3.8A1.34,1.34,0,0,1,106.41,44.83Zm267-4a1.29,1.29,0,0,1-.7-.2c-1.92-1.23-3.88-2.45-5.84-3.63a1.29,1.29,0,0,1,1.34-2.21c2,1.19,4,2.43,5.89,3.67a1.28,1.28,0,0,1,.39,1.78A1.26,1.26,0,0,1,373.42,40.78ZM118,37.36a1.29,1.29,0,0,1-.67-2.39c2-1.19,4-2.37,6-3.5a1.29,1.29,0,1,1,1.27,2.24c-2,1.12-4,2.29-5.91,3.46A1.25,1.25,0,0,1,118,37.36Zm243.59-3.71a1.22,1.22,0,0,1-.63-.17c-2-1.12-4-2.23-6-3.29a1.29,1.29,0,1,1,1.21-2.28c2,1.07,4.09,2.19,6.1,3.33a1.28,1.28,0,0,1,.49,1.75A1.31,1.31,0,0,1,361.58,33.65ZM130,30.57a1.29,1.29,0,0,1-.6-2.43c2-1.08,4.1-2.14,6.16-3.15a1.29,1.29,0,1,1,1.14,2.31c-2,1-4.09,2.05-6.09,3.12A1.34,1.34,0,0,1,130,30.57ZM349.35,27.2a1.31,1.31,0,0,1-.57-.13c-2-1-4.14-2-6.21-2.95a1.29,1.29,0,1,1,1.07-2.34c2.1,1,4.21,2,6.28,3a1.29,1.29,0,0,1-.57,2.45Zm-207-2.73a1.3,1.3,0,0,1-1.17-.75,1.29,1.29,0,0,1,.64-1.71c2.08-1,4.21-1.9,6.32-2.79a1.29,1.29,0,1,1,1,2.37c-2.09.89-4.19,1.82-6.26,2.77A1.27,1.27,0,0,1,142.3,24.47Zm194.47-3a1.32,1.32,0,0,1-.51-.1c-2.1-.89-4.25-1.75-6.38-2.58a1.29,1.29,0,0,1,.94-2.41c2.15.84,4.32,1.72,6.45,2.61a1.29,1.29,0,0,1,.68,1.69A1.26,1.26,0,0,1,336.77,21.46ZM155,19.1a1.29,1.29,0,0,1-.47-2.49c2.14-.84,4.32-1.66,6.49-2.44a1.29,1.29,0,1,1,.87,2.43c-2.14.77-4.3,1.58-6.42,2.41A1.35,1.35,0,0,1,155,19.1Zm168.89-2.64a1.31,1.31,0,0,1-.43-.08c-2.15-.76-4.35-1.51-6.52-2.21a1.29,1.29,0,0,1,.79-2.46c2.2.71,4.42,1.47,6.59,2.24a1.29,1.29,0,0,1-.43,2.51Zm-155.9-2a1.29,1.29,0,0,1-.4-2.51c2.19-.72,4.42-1.41,6.62-2.06a1.29,1.29,0,0,1,.73,2.48c-2.18.64-4.38,1.32-6.55,2A1.44,1.44,0,0,1,168,14.44Zm142.75-2.23a1.13,1.13,0,0,1-.36-.06c-2.18-.63-4.4-1.24-6.62-1.82a1.29,1.29,0,0,1,.65-2.5c2.24.59,4.49,1.21,6.69,1.85a1.29,1.29,0,0,1-.36,2.53ZM181.19,10.54A1.29,1.29,0,0,1,180.86,8c2.23-.59,4.5-1.15,6.74-1.68a1.29,1.29,0,0,1,.58,2.52c-2.21.51-4.46,1.07-6.66,1.65A1.24,1.24,0,0,1,181.19,10.54ZM297.36,8.73a.92.92,0,0,1-.29,0c-2.23-.51-4.49-1-6.71-1.44a1.29,1.29,0,1,1,.5-2.53c2.25.45,4.53.94,6.78,1.46a1.29,1.29,0,0,1-.28,2.55ZM194.63,7.41a1.29,1.29,0,0,1-.25-2.55c2.26-.46,4.55-.89,6.81-1.28a1.29,1.29,0,1,1,.44,2.54c-2.24.39-4.5.81-6.74,1.27ZM283.83,6a.78.78,0,0,1-.22,0c-2.25-.38-4.53-.73-6.79-1a1.29,1.29,0,0,1,.37-2.56c2.27.32,4.58.68,6.85,1.07A1.29,1.29,0,0,1,283.83,6Zm-75.6-1a1.29,1.29,0,0,1-.18-2.57c2.27-.33,4.59-.63,6.87-.89a1.29,1.29,0,0,1,1.43,1.13,1.28,1.28,0,0,1-1.13,1.43c-2.26.26-4.55.56-6.81.88Zm61.93-1H270c-2.27-.26-4.57-.48-6.83-.67A1.29,1.29,0,0,1,263.4.85c2.29.19,4.61.41,6.9.67A1.29,1.29,0,0,1,271.44,3,1.28,1.28,0,0,1,270.16,4.09Zm-48.22-.61a1.29,1.29,0,0,1-.11-2.57c2.28-.2,4.61-.37,6.92-.5A1.29,1.29,0,1,1,228.89,3c-2.28.14-4.58.3-6.84.5ZM256.41,3h-.07c-2.27-.13-4.58-.22-6.86-.28a1.31,1.31,0,0,1-1.26-1.33A1.26,1.26,0,0,1,249.55.09c2.31.06,4.64.15,6.93.28A1.29,1.29,0,0,1,256.41,3Zm-20.7-.26a1.31,1.31,0,0,1-1.29-1.26A1.29,1.29,0,0,1,235.68.11C238,0,240.31,0,242.61,0h0a1.29,1.29,0,0,1,1.29,1.29,1.28,1.28,0,0,1-1.28,1.29c-2.28,0-4.59,0-6.87.11Z" transform="translate(99.33)"/>
      </g>
    </g>
  </g>
</svg>
