<svg xmlns="http://www.w3.org/2000/svg" xmlns:xlink="http://www.w3.org/1999/xlink" viewBox="0 0 508.1 1159.29">
  <defs>
    <style>
      .cls-1 {
        fill: none;
      }

      .cls-2 {
        clip-path: url(#clip-path);
      }

      .cls-3 {
        fill: #fce3c3;
      }

      .cls-4 {
        fill: #ffcfca;
      }

      .cls-5 {
        fill: #fcb9b4;
      }

      .cls-6 {
        fill: #9b612d;
      }

      .cls-7 {
        fill: #3a374c;
      }

      .cls-8 {
        fill: #f9bfbb;
      }

      .cls-9 {
        fill: #d55454;
      }

      .cls-10 {
        fill: #f37c7c;
      }

      .cls-11 {
        fill: #fff;
      }

      .cls-12 {
        fill: #999;
      }

      .cls-13 {
        fill: #b53434;
      }

      .cls-14 {
        fill: #24404c;
      }

      .cls-15 {
        fill: #f7b2b0;
      }

      .cls-16 {
        fill: #fbb03b;
      }

      .cls-17 {
        fill: #f9a12d;
      }

      .cls-18 {
        fill: #31314d;
      }

      .cls-19 {
        fill: #22223a;
      }
    </style>
    <clipPath id="clip-path" transform="translate(6.04)">
      <circle class="cls-1" cx="243.23" cy="243.33" r="226.65"/>
    </clipPath>
  </defs>
  <g id="레이어_2" data-name="레이어 2">
    <g id="Layer_1" data-name="Layer 1">
      <g>
        <g class="cls-2">
          <circle class="cls-3" cx="249.26" cy="243.33" r="226.65"/>
          <g>
            <path class="cls-4" d="M245.44,1138.13c.75,2.57,1.47,5.37,1,7.94-2.61,4.5-8.68,5.58-13.17,6a2.13,2.13,0,0,1-.25,0l-32.14,1.39c-19.64-.44-39.28-1.43-58.93-1-4.43.08-9,.2-13-1.73s-7-6.68-5.36-10.8h0c2-2.29,5-3.66,7.21-4.66,3.2-1.44,6-2.72,8.5-3.91,2.38-1.12,5.12-2.45,8.19-4,1.49-.62,3.05-1.29,4.67-2l.08,0,1.42-.62h0c14.16-6.14,32-14.39,43.09-20.08l-2.28-48.58-2.69-57.25,49.91.31L237,1057.67l-.37,4.64-3.31,40.94-.14,1.76c1.26,3.23,3.57,8.51,5.15,12.36.56,1.37,1,2.54,1.32,3.39l.49,1.38C242.14,1127.91,244.13,1133.62,245.44,1138.13Z" transform="translate(6.04)"/>
            <path class="cls-5" d="M191.81,998.84l49.91.31L237,1057.67c-14.18-.13-28.36-.6-42.5-1.58Z" transform="translate(6.04)"/>
            <path class="cls-6" d="M247,1145a8.73,8.73,0,0,1-.53,1.06c-2.61,4.5-8.68,5.58-13.17,6a2.13,2.13,0,0,1-.25,0l-100.52,4.36a16.89,16.89,0,0,1-3.95-1.1c-4.56-1.91-8.45-7.14-6.79-12.27a9,9,0,0,1,1.83-3.14h0c2-2.29,5-3.66,7.21-4.66,3.2-1.44,6-2.72,8.5-3.91,2.38-1.12,5.12-2.45,8.19-4l2.73-1.37,1.91-1,0,.33.17,1.79a26.8,26.8,0,0,0,.46,3,4,4,0,0,0,.59,1.6,4.24,4.24,0,0,0,2.41,1A69.62,69.62,0,0,0,173.7,1134a202.84,202.84,0,0,0,21.91-2.75c9.35-1.52,19-3.11,28-6.6a109.46,109.46,0,0,0,14.09-6.94l.61-.34.83-.47.63,1.52c2.3,5.57,4.67,11.28,6.25,15.71C247.3,1137.71,248.42,1141.49,247,1145Z" transform="translate(6.04)"/>
            <path class="cls-4" d="M458.5,1094.55c1.76,2,3.6,4.26,4.25,6.79-.48,5.17-5.53,8.7-9.42,11l-.22.13-28.58,14.76c-18,7.85-36.26,15.2-53.91,23.84-4,1.93-8.11,4-12.52,3.89s-9.11-3.14-9.4-7.55c0,0,0,0,0,0,.88-2.93,3-5.43,4.59-7.26,2.29-2.65,4.28-5,6.07-7.12s3.62-4.38,5.76-7c1.09-1.19,2.22-2.46,3.4-3.77l.06-.06,1-1.16h0c10.27-11.53,23-26.49,30.67-36.32l-22.48-43.14-26.48-50.82L396.75,970l20.3,55.09,1.61,4.37,14.2,38.54.61,1.66c2.49,2.4,6.81,6.22,9.86,9,1.08,1,2,1.88,2.62,2.52.36.35.69.69,1,1C451.22,1086.66,455.42,1091,458.5,1094.55Z" transform="translate(6.04)"/>
            <path class="cls-5" d="M351.33,990.67,396.75,970l20.3,55.09c-12.92,5.83-26,11.36-39.24,16.41Z" transform="translate(6.04)"/>
            <path class="cls-6" d="M462.79,1100.15a7.85,7.85,0,0,1,0,1.19c-.48,5.17-5.53,8.7-9.42,11l-.22.13-89.39,46.17a16.81,16.81,0,0,1-4.05.67c-4.94.18-10.67-2.93-11.32-8.28a9.08,9.08,0,0,1,.35-3.62s0,0,0,0c.88-2.93,3-5.43,4.59-7.26,2.29-2.65,4.28-5,6.07-7.12s3.62-4.38,5.76-7l1.91-2.39,1.33-1.67.16.29.91,1.55a26.2,26.2,0,0,0,1.69,2.57,4.21,4.21,0,0,0,1.21,1.21,4.32,4.32,0,0,0,2.62-.09,69.44,69.44,0,0,0,16.71-6.47,202.43,202.43,0,0,0,18.73-11.7c7.85-5.31,16-10.81,22.66-17.76a110.62,110.62,0,0,0,9.88-12.22l.4-.56.56-.77,1.21,1.11c4.43,4.09,9,8.27,12.27,11.63C460,1093.39,462.62,1096.35,462.79,1100.15Z" transform="translate(6.04)"/>
            <path class="cls-4" d="M332.52,352.49c0,.78,0,1.56,0,2.34q-.23,10-1,20c-1.08,14.2-2.93,28.54-5.26,42.87-5.13,31.55-12.66,63.05-19.91,93.1-4.34,2.91-11.5,7.51-16.45,9.17-42.78,14.42-70.91,11.63-115.36,3.75-6.41-25.83-9.76-52.28-11.48-78.85-1.87-28.85-3.72-57.76-3.45-86.65q1.34-4.32,2.82-8.59c.18-.53.37-1.05.55-1.57.38-1,.77-2,1.16-3q1.58-4,3.32-8c1.56-3.55,3.24-7.05,5-10.49a235.49,235.49,0,0,1,21.87-22.13c8.39-7.44,17.57-14.42,28.29-17.74,7.38-2.29,15.22-2.74,22.94-2.35a102.72,102.72,0,0,1,14.32,1.73,110.17,110.17,0,0,1,48.27,22.41,105.78,105.78,0,0,1,12.24,11.61c.67.75,1.33,1.5,2,2.27,3.88,4.59,7.45,9.65,9.05,15.45C332.68,342.58,332.61,347.57,332.52,352.49Z" transform="translate(6.04)"/>
            <path class="cls-7" d="M307.87,127.37q-3.42-4.86-7.31-9.38a84.18,84.18,0,0,0-18.67-16.11C255.75,85.29,220.46,88,198.1,109.71c-10.43,10.13-17.18,23.43-21.51,37.2-7.86,24.93-9.9,51.26-10.5,77.21-.15,6.5-.16,13-.31,19.49,0,1.87-1,17.53.33,18,4.49,1.78,9.06,3.34,13.65,4.8,24.94,7.95,50.94,13.07,76.95,12.05S308.78,270,330,254.55a182.85,182.85,0,0,0,1.34-21.11c.12-21.07.9-42.59-4.06-63.25A125.94,125.94,0,0,0,307.87,127.37Z" transform="translate(6.04)"/>
            <polygon class="cls-4" points="281.56 215.41 281.86 239.03 282.54 292.5 221.34 296.25 222.87 265.08 224.22 237.47 281.56 215.41"/>
            <path class="cls-5" d="M275.52,215.41l.3,23.62a112.09,112.09,0,0,1-21.26,16.86c-11.34,6.7-24.71,10.68-37.72,9.19l1.35-27.61Z" transform="translate(6.04)"/>
            <path class="cls-4" d="M300.41,178.81h0A109,109,0,0,1,285,216.61c-11.8,17.93-31.37,34-53.49,35.77a39.79,39.79,0,0,1-30.9-10.73,42.89,42.89,0,0,1-5.44-6.44c-14.75-21.33-16.9-49.64-10.35-75.06a107.48,107.48,0,0,1,13.09-30.6,73.68,73.68,0,0,1,26-24.52c17.43-9.71,38.48-11.69,56,1.16,7.93,5.8,13.75,14.22,17.32,23.39q.21.51.39,1C303.2,145.68,303.69,162.6,300.41,178.81Z" transform="translate(6.04)"/>
            <path class="cls-5" d="M229.14,115c-.47,5.47-3.21,10.48-6.34,15-.7,1-1.41,2-2.14,2.94a84,84,0,0,1-35.31,26.9l-.69.28a108.07,108.07,0,0,1,13.11-30.67,74,74,0,0,1,26.07-24.56,8.07,8.07,0,0,1,3.14,2.09,8.53,8.53,0,0,1,2,4.28A14.27,14.27,0,0,1,229.14,115Z" transform="translate(6.04)"/>
            <path class="cls-5" d="M300.41,178.81h0c-4.68,3.47-9.33,7.07-14.88,8.68a31.43,31.43,0,0,1-8.59,1.08,49.12,49.12,0,0,1-25.19-7c-10.75-6.44-18.68-16.88-24-28.24A116.46,116.46,0,0,1,220.71,133c-1.36-5.17-2.46-10.41-3.48-15.66,2.75-4,7.05-5.17,11.78-6l.9-.15c17.58-2.89,35.92.75,51.83,8.76a104.67,104.67,0,0,1,15.5,9.59q.21.51.39,1C303.2,145.68,303.69,162.6,300.41,178.81Z" transform="translate(6.04)"/>
            <path class="cls-4" d="M483.26,446c-25,.65-82.54-33.3-106.31-45.46-4.48-2.29-12.95-7-22.72-12.53-7.24-4.12-15.19-8.71-22.78-13.16-13.18-7.75-25.26-15.1-30.56-18.81a140.36,140.36,0,0,1-12.57-9.91c-14.43-12.75-27.15-29.57-29.14-48.32a63.9,63.9,0,0,1,.64-11.73c.28-1.42.67-2.37,1.21-2.33,42.64,3.18,82.56,21.78,119.9,42.65,12,6.69,18.49,11.36,28.25,17.76,2.1,1.38,4.33,2.82,6.81,4.39l.14.09-.33-.78c-1.52-3.73-2.9-7.59-4.13-11.21s-2.35-7.14-3.3-10c-2.35-7.08-5.16-16.8-5.16-16.8s-8.94-23.78-10.09-24.26a50.32,50.32,0,0,1-8.52-4.52c-3.31-2.2-5.65-5.08-8.68-7.57-5.24-4.29-11.39-7.56-16.93-11.48a14,14,0,0,1-4.48-4.4l-.1-.2c-.89-1.85-.85-4.28.66-5.66a5.2,5.2,0,0,1,4.45-1,27.78,27.78,0,0,1,7.78,3.39,26.07,26.07,0,0,0,4.8,2.5c2.57.85,1.47-1.31.63-2.92a36.7,36.7,0,0,0-3.25-5c-2.37-3.11-5.08-5.95-7.57-9L345,219.47c-1.66-2-.47-5.51,2-6.26,3.4-1,5.77,3.2,7.73,5.21,3.27,3.36,6.57,6.7,9.86,10q3.56,3.59,7.14,7.14c1.39,1.37,2.31,3.33,3.72,4.77.51.53,1.86,2.11,2.8,1.61s-.1-2.14-.37-2.83c-.67-1.68-1.41-3.33-2.17-5-1.49-3.17-3.1-6.28-4.74-9.39-3.31-6.31-6.73-12.61-9.27-19.29a4.62,4.62,0,0,1-.23-.82,4,4,0,0,1,2.31-5.35c4-1.32,6.12,4.34,7.71,6.94,2.54,4.21,4.92,8.5,7.46,12.71,1.89,3.13,3.77,6.28,5.67,9.42.66,1.1,2.56,6.85,4.5,6.22,1.71-.55-.47-4.95-.68-6q-.78-3.68-1.63-7.35c-1.13-4.9-2.37-9.75-3.74-14.59a3.87,3.87,0,0,1-.17-1.32c-.44-1.35-.88-2.7-1.34-4.05a3.87,3.87,0,0,1,3.77-4.95c3.69.1,4.23,4.77,5.11,7.46,1.39,4.28,2.74,8.57,4,12.9.93,3,1.82,6.1,2.7,9.16.47,1.63,1.95,8.92,4.89,6.78.57-.42.53-1.93.56-2.54a44.68,44.68,0,0,0-.28-5.77c-.3-5.14-.53-10.3-.69-15.45a3.94,3.94,0,0,1,5.63-3.56c3.73,1.87,2.39,9.06,2.45,12.38q.15,8,.88,15.85a12,12,0,0,0,.48,2.66,14.51,14.51,0,0,0,1.71,3s0,0,0,0a45,45,0,0,1,6.58,18.64,51,51,0,0,1,.31,10,90.71,90.71,0,0,1-1.63,9.68s2.46,3.94,3.6,5.44c1.29,1.72,2.49,3.51,3.72,5.26l7.71,10.91c8.89,12.6,18,25,26.46,38,21.83,33.47,30.74,50.59,40.34,73.64C505.18,423.47,501.22,445.57,483.26,446Z" transform="translate(6.04)"/>
            <path class="cls-5" d="M354.23,388c-7.24-4.12-15.19-8.71-22.78-13.16-1.08,14.2-2.93,28.54-5.26,42.87-10.25-.25-20.47-.8-30.66-1.88-6.48-.68-13.54-1.89-17.82-6.8-3.07-3.51-4.13-8.33-4.46-13-1-14.49,4.07-28.77,10.67-41.73,1.4-2.76,2.88-5.49,4.4-8.2,5.57-10,11.61-19.75,16.19-30.23a65.56,65.56,0,0,1,3.58-7.41,15.2,15.2,0,0,1,6.17-6.19l2,.64c1.23,5.74,2.56,11.47,4.06,17.16a208.49,208.49,0,0,0,11.74,33.82c.13.3.27.59.4.89A127.89,127.89,0,0,0,354.23,388Z" transform="translate(6.04)"/>
            <path class="cls-8" d="M412.9,260c-.56-3.82-1.53-7.72-3.91-10.76s-6.46-5-10.17-4c-1.86.54-3.44,1.75-5.2,2.55-4.39,2-9.94,1.52-13.55,4.73a3.28,3.28,0,0,0-1.1,1.62c-.27,1.23.64,2.38,1.49,3.31,1.2,1.32,2.53,2.71,4.28,3.06,1.42.29,2.87-.17,4.31-.34,3.57-.44,7.12.85,10.34,2.43a33.55,33.55,0,0,1,4.89,2.85,46.87,46.87,0,0,1,8.06,8.17,2,2,0,0,1,.55,1.26A50.08,50.08,0,0,0,412.9,260Z" transform="translate(6.04)"/>
            <path class="cls-7" d="M286.82,109.91a68.49,68.49,0,0,0-26.53-12.8,81.54,81.54,0,0,0-16.08-2.18c-6.91-.22-10.84,2.34-14.14,8.32A35,35,0,0,0,226,118.48a48.36,48.36,0,0,0,0,5c1,16.31,9.86,33.86,19.74,43.07a64.36,64.36,0,0,0,28.74,15.12c10.55,2.55,23.74,3,33.54-2.43,9.27-5.09,10.53-15.73,7.94-25.13-3.22-11.68-10.2-23.57-17.79-32.92A71.66,71.66,0,0,0,286.82,109.91Z" transform="translate(6.04)"/>
            <path class="cls-7" d="M245.62,102.75a10.19,10.19,0,0,0-1.27-3.3c-1.52-2.28-4.42-3.23-7.15-3.48-9.65-.89-18.59,4.75-26.33,10.58-4.8,3.62-9.52,7.44-13.24,12.17a61.29,61.29,0,0,0-6.4,10.52A128.11,128.11,0,0,0,179.54,165l1.2,7.08c1.1-12.85,5.55-26,15.11-34.64,12.27-11.11,30.06-12.77,46.17-16.6a5.37,5.37,0,0,0,2.89-1.38,5,5,0,0,0,.94-2.33A33.78,33.78,0,0,0,245.62,102.75Z" transform="translate(6.04)"/>
            <path class="cls-4" d="M309,190.28c-2-4.81-6.86-8.21-13.07-8.34-7.08-.15-12.61,5.76-17.15,11.19L270.09,226c-.24.91,8.46.65,9.5.42a37.11,37.11,0,0,0,10.14-4.39,47.62,47.62,0,0,0,15.95-15C308.85,202.17,311.33,196,309,190.28Z" transform="translate(6.04)"/>
            <path class="cls-7" d="M229.82,97.74a35,35,0,0,1,.15,4.09c0,.47,0,.94-.07,1.41A41.12,41.12,0,0,1,226,118.32a45.53,45.53,0,0,1-2.41,4.46c-.21.35-.43.7-.67,1-4.84,7.44-11.65,13.36-19.1,18a39.75,39.75,0,0,1-12.37,5.45,22,22,0,0,1-2.8.44l-.32,0a21.3,21.3,0,0,1-3,0,17.86,17.86,0,0,1-6.78-1.68,118.43,118.43,0,0,1,4.79-12.53C192,114.25,206.47,100.74,224,94.51a36,36,0,0,1,5.58,1.26C229.68,96.43,229.76,97.08,229.82,97.74Z" transform="translate(6.04)"/>
            <g>
              <path class="cls-9" d="M235.77,210.75a22.8,22.8,0,0,1-1.25,9.78c-.24.64-.49,1.25-.78,1.85-2.51,5.22-7,8.88-12.49,9.35a14.81,14.81,0,0,1-11.63-4.44c-.25-.24-.49-.49-.73-.75a22,22,0,0,1-5.53-13c-.05-.62-.08-1.23-.09-1.84l32.27-2.78C235.64,209.52,235.72,210.13,235.77,210.75Z" transform="translate(6.04)"/>
              <path class="cls-10" d="M233.74,222.38c-2.51,5.22-7,8.88-12.49,9.35a14.81,14.81,0,0,1-11.63-4.44,14.37,14.37,0,0,1,2-2.67,17.17,17.17,0,0,1,10.91-5,17.69,17.69,0,0,1,9.13,1.61A15.84,15.84,0,0,1,233.74,222.38Z" transform="translate(6.04)"/>
              <path class="cls-11" d="M231.32,209.28a13.87,13.87,0,0,1-2.14,2.27A18.66,18.66,0,0,1,207.64,213a13.65,13.65,0,0,1-1.92-1.52Z" transform="translate(6.04)"/>
            </g>
            <path class="cls-12" d="M162.75,189.22a25.5,25.5,0,0,0,49.91-10.1l7.12-.68a27,27,0,1,0,11.34-20.27l-30.82,2.59a25.49,25.49,0,0,0-37.55,28.46Zm59.17-2.64a25.51,25.51,0,1,1,31.13,18.22A25.54,25.54,0,0,1,221.92,186.58Zm-9.51-8.83c-.1-.48-.18-1-.3-1.44-.08-.31-.2-.6-.29-.9l8.47-.69c-.16.76-.29,1.54-.38,2.32ZM202.18,162l26.95-2.27a27,27,0,0,0-8.52,13.59l-9.22.75A25.33,25.33,0,0,0,202.18,162Zm-38.1,26.88a24.13,24.13,0,1,1,29.45,17.24A24.17,24.17,0,0,1,164.08,188.87Z" transform="translate(6.04)"/>
            <path class="cls-13" d="M220.15,199.85A4.72,4.72,0,0,0,213,200a4.13,4.13,0,0,0-.75,4,3.43,3.43,0,0,0,3,2.32,3.77,3.77,0,0,1-2-2.63,3.45,3.45,0,0,1,.79-2.85,4.14,4.14,0,0,1,2.67-1.51A6.46,6.46,0,0,1,220.15,199.85Z" transform="translate(6.04)"/>
            <path class="cls-14" d="M240.87,166.8a.69.69,0,0,0-.21-1.35l-10.18.54a.69.69,0,0,0,.07,1.38l10.18-.54A.58.58,0,0,0,240.87,166.8Z" transform="translate(6.04)"/>
            <path class="cls-14" d="M203.74,170.28a.68.68,0,0,0,.51-.72.68.68,0,0,0-.73-.64l-9.6.7A.69.69,0,1,0,194,171l9.6-.69Z" transform="translate(6.04)"/>
            <g>
              <path class="cls-5" d="M230,185a1,1,0,0,1-.88-1.38,8.43,8.43,0,0,1,6.52-4.81c2.31-.34,5.35.86,7.39,2.92a1,1,0,0,1-1.38,1.37c-1.58-1.6-4-2.62-5.73-2.37a6.51,6.51,0,0,0-5,3.7A1,1,0,0,1,230,185Z" transform="translate(6.04)"/>
              <path class="cls-5" d="M194.58,186.15A1,1,0,0,1,194,186a1,1,0,0,1-.2-1.36c1.72-2.32,4.54-3.94,6.88-3.94h0a8.46,8.46,0,0,1,7.13,3.85,1,1,0,0,1-1.64,1.05,6.5,6.5,0,0,0-5.5-3,7.6,7.6,0,0,0-5.34,3.16A1,1,0,0,1,194.58,186.15Z" transform="translate(6.04)"/>
            </g>
            <g>
              <path class="cls-14" d="M229.34,183.68a1,1,0,0,1-.41-.09,1,1,0,0,1-.48-1.28,8.47,8.47,0,0,1,6.52-4.82c2.31-.34,5.35.86,7.39,2.93a1,1,0,1,1-1.38,1.36c-1.58-1.6-4-2.62-5.73-2.37a6.5,6.5,0,0,0-5,3.7A1,1,0,0,1,229.34,183.68Z" transform="translate(6.04)"/>
              <path class="cls-14" d="M193.94,184.87a1,1,0,0,1-.58-.19,1,1,0,0,1-.2-1.36c1.72-2.32,4.55-3.94,6.88-3.94h0a8.47,8.47,0,0,1,7.13,3.85,1,1,0,0,1-1.63,1.05,6.53,6.53,0,0,0-5.51-3c-1.72,0-4,1.35-5.33,3.16A1,1,0,0,1,193.94,184.87Z" transform="translate(6.04)"/>
            </g>
            <path class="cls-15" d="M10.82,674.34a49.75,49.75,0,0,0-.1,5.46c.11,4.87.4,9.74.47,14.62a20.92,20.92,0,0,1-.59,6.27,7.78,7.78,0,0,1-3.82,4.87,5,5,0,0,1-5.86-1c-1.18-1.45-1.18-3.48-1.13-5.33.08-2.43.15-4.87.22-7.3.1-3.29.2-6.58.46-9.85.51-6.66,1.79-13.58,6-18.83,1.33-1.67,7.7-5.94,7.73-1.13,0,1.86-1.5,3.93-2.06,5.7A29.1,29.1,0,0,0,10.82,674.34Z" transform="translate(6.04)"/>
            <path class="cls-8" d="M6.93,677.46a52.36,52.36,0,0,0-.1,5.46c.11,4.87.41,9.74.48,14.62a20.6,20.6,0,0,1-.6,6.27,7.8,7.8,0,0,1-3.81,4.87,5,5,0,0,1-5.86-1c-1.19-1.45-1.19-3.48-1.13-5.33.07-2.43.15-4.87.22-7.3.1-3.29.2-6.57.45-9.85.52-6.66,1.8-13.58,6-18.83,1.32-1.67,7.7-5.94,7.73-1.13,0,1.86-1.5,3.94-2.07,5.7A30.26,30.26,0,0,0,6.93,677.46Z" transform="translate(6.04)"/>
            <path class="cls-4" d="M236.8,317.59q-.66.75-1.35,1.47c-8.25,8.64-20.45,15.17-29.18,21.26-11.21,7.82-18.21,15.7-24.52,27.55q-1.89,3.57-3.64,7.25-1.25,2.58-2.41,5.24c-4.16,9.32-7.77,19.1-11.15,29C158.34,427.5,152.92,446,146.36,463a433,433,0,0,1-27.88,59.3q-16.07,28.16-34.14,55.11-9,13.47-18.54,26.62c-2.17,3-8.3,11.93-12.08,17.07-.83,1.14-1.54,2.08-2.08,2.75l-.06.17v0c.27,4,0,9.11-1.28,17.83a124.85,124.85,0,0,1-2.59,13.92C45.82,663,41.23,669,38.07,675.7a19.88,19.88,0,0,1-2.28,4c-4.5,5.68-9.81-.58-9.63-5.78a11.48,11.48,0,0,1,.15-1.45c.47-2.8,2-5.37,3.26-7.9A20.53,20.53,0,0,0,31.33,660c.29-1.36.91-3.15-.27-4.29s-3.27-1.26-4.68-1.06a9.11,9.11,0,0,0-4.47,2.2,25.12,25.12,0,0,0-2.69,2.67c-2.2,2.43-4.21,5-6.34,7.42a27.54,27.54,0,0,0-6.4,11.38c-1.12,4.46-1.22,9.1-1.57,13.66-.39,4.92-.64,11.61-5,14.85-2,1.5-4.85.12-5.61-2A9.94,9.94,0,0,1-6,701c.36-8.1.59-16.2,2.13-24.18,1.46-7.53,5-14.63,8.37-21.48,5-10.13,27.33-44.67,27.33-44.67.18-.35,9.6-22.08,15.92-35.76,4.76-10.29,8.79-18.2,13.28-28.6,8.8-20.4,20.32-46.23,27.81-67.15q.93-2.6,1.74-5.1c.65-1.95,1.23-3.87,1.78-5.76,4.7-16,6.79-30.56,10.66-48.07,4.09-18.49,8.5-36.88,12.68-55.34,6.63-29.37,18.64-46.77,28.76-53a221,221,0,0,1,42.87-20.65c1.24-.44,2.48-.86,3.72-1.27q8.41-2.78,17.15-4.81l3.1-.7c6.65-1.43,13.46-2.56,20.49-3.39,2.56-.3,5,1.1,7,3.23a20.1,20.1,0,0,1,4.91,9C246,303.09,242.61,311,236.8,317.59Z" transform="translate(6.04)"/>
            <path class="cls-5" d="M276,386.5c-13.77,13.36-32.4,21.23-51.47,23.44a54.42,54.42,0,0,1-16.95-.31c-14.27-2.9-25.82-14.44-31.31-27.93-.18-.44-.35-.89-.52-1.34q-.55-1.47-1-3c-3.93-12.37-3.74-25.88-1.44-38.71a161.93,161.93,0,0,1,4.37-17.92c2.39-8.06,5.2-16,7.85-24,.6-1.82,1.21-3.67,1.88-5.49,1.24-.44,2.48-.86,3.72-1.27q8.41-2.78,17.15-4.81a40.07,40.07,0,0,0,1.59,7.44,41.43,41.43,0,0,0,24,25.86c.54.21,1.08.4,1.64.58.73.25,1.48.48,2.24.67,6.88,1.8,14.11,1.71,21.21,1.27,13.38-.84,27.41-3.21,37.74-11.74-1.52,8.45.59,17.08.91,25.66C298.29,354.1,289.74,373.13,276,386.5Z" transform="translate(6.04)"/>
            <g>
              <path class="cls-16" d="M319.68,294.44c1.51,15.41,1.54,31.1,3.19,46.45,2.43,22.68,7.36,45,10.78,67.57a246.72,246.72,0,0,1,2.84,39.13,197.51,197.51,0,0,1-2.48,29.9,225.79,225.79,0,0,1-146.46,17.42,116,116,0,0,1-14.88-4.17c-7.45-2.72-13.91-6.62-21.48-9-.28-21.59-.56-43.26.66-64.79a358.3,358.3,0,0,1,4-37.83c5.38-32.73,15.77-56.61,20.47-89.42,3-.61,7.8-2.88,10.9-3.47,5.75-1.09,11.52-2.81,17.61-3.34-.23,8.9,1.3,17.93,5.57,25.72,4.76,8.69,13.24,15.62,23.05,17a42.05,42.05,0,0,0,13.82-.75c8.39-1.61,16.8-4.5,23.17-10.21,5.88-5.27,9.57-12.52,12.47-19.87a90.28,90.28,0,0,0,4.14-12.51c3.27.88,14.51,4.73,16.28,5.66C304.56,288.61,318.47,293.79,319.68,294.44Z" transform="translate(6.04)"/>
              <path class="cls-17" d="M336.49,447.59a197.51,197.51,0,0,1-2.48,29.9,225.79,225.79,0,0,1-146.46,17.42,116,116,0,0,1-14.88-4.17c-7.45-2.72-13.91-6.62-21.48-9-.28-21.59-.56-43.26.66-64.79,3.89,5.48,8.49,10.28,14.36,13.52,9,5,19.79,5.52,30.06,4.81s20.5-2.59,30.77-2c18.66,1.1,35.84,10.21,54.06,14.4A118.81,118.81,0,0,0,306,450.6,136.18,136.18,0,0,0,336.49,447.59Z" transform="translate(6.04)"/>
            </g>
            <path class="cls-18" d="M270.79,695.85c-1,14.52-1.76,29-2.25,43.6-1.81,54-.46,108.23-.83,162.31-.3,45.2-1.81,90.31-7.35,135.18-1.38,11.1-81.25,10.27-83,1.2-17.87-95-31.51-190.75-38.91-287.52-2.65-34.76-7.46-69.2-7.33-104.12.21-51.82,19.12-105.69,37.49-152.46,17.44,6,37.66,12.91,54.81,14.67a163.08,163.08,0,0,0,50.86-2.57C280.78,569.65,275.34,632.25,270.79,695.85Z" transform="translate(6.04)"/>
            <path class="cls-19" d="M267.71,903.68c-36.2-61.09-55.28-135.19-54.09-208.62.69-42.48,9.73-82.06,20.5-122,1.39,56,12.73,110.59,31.54,162.68q1.41,3.9,2.88,7.79C266.73,796.85,268.08,850.32,267.71,903.68Z" transform="translate(6.04)"/>
            <path class="cls-18" d="M427.06,1007.92,377.31,861a80,80,0,0,0-10.11-19.27c4.19-49.18,9.19-90.91,10.16-140.26,1-50.11,2.58-75.6-16.8-128.58-7.88-21.54-33.6-62.68-49.11-83.35-21.54,8.9-51,18.67-75.59,21.29-9.81,73.31-4.63,147.45.52,221.24,1.23,17.65,2.9,35.3,6.25,52.66a393.33,393.33,0,0,0,13.19,48.75c23.81,72,57.76,141.09,103.45,201.26a112.59,112.59,0,0,0,37.47-7.21C408.37,1022.93,418.07,1017.69,427.06,1007.92Z" transform="translate(6.04)"/>
            <path class="cls-8" d="M21.91,656.82a30.34,30.34,0,0,1,2-2.64,11.28,11.28,0,0,1,4.71-3.56,5.24,5.24,0,0,1,5.53,1.14,5.81,5.81,0,0,1,1,4.7c-.58,4-3.29,7.36-5.69,10.66a26.9,26.9,0,0,0-3.23,5.4c.48-2.81,2-5.37,3.26-7.91A19.82,19.82,0,0,0,31.33,660c.29-1.37.91-3.15-.27-4.29s-3.27-1.26-4.68-1.06A9.14,9.14,0,0,0,21.91,656.82Z" transform="translate(6.04)"/>
            <path class="cls-5" d="M104.14,479.89a26.86,26.86,0,0,0-13.55-5.82c.64-1.95,1.23-3.87,1.79-5.76a28.61,28.61,0,0,1,5.15,2.88A17,17,0,0,1,104.14,479.89Z" transform="translate(6.04)"/>
            <path class="cls-8" d="M53.72,621.1c-.83,1.14-1.54,2.09-2.08,2.75l-.06.17v0a11.71,11.71,0,0,0-7-3.73A17.12,17.12,0,0,1,53.72,621.1Z" transform="translate(6.04)"/>
            <path class="cls-5" d="M428.49,375.74a72.37,72.37,0,0,1-10.46-14q-4.78-8.61-8.85-17.59c2.1,1.38,4.33,2.82,6.81,4.39C418.54,358.37,422.27,367.83,428.49,375.74Z" transform="translate(6.04)"/>
          </g>
        </g>
        <path class="cls-16" d="M243.07,485.91a1.29,1.29,0,1,1,0-2.58c2.27,0,4.57,0,6.86-.1a1.27,1.27,0,0,1,1.33,1.25,1.29,1.29,0,0,1-1.25,1.33C247.69,485.88,245.36,485.91,243.07,485.91Zm-6.9-.09h0c-2.29-.07-4.62-.16-6.93-.29a1.29,1.29,0,0,1,.15-2.58c2.27.13,4.58.22,6.86.29a1.29,1.29,0,0,1,0,2.58Zm20.69-.3a1.29,1.29,0,0,1-.07-2.58c2.27-.13,4.58-.29,6.85-.49a1.29,1.29,0,0,1,.22,2.57c-2.3.2-4.63.37-6.92.5Zm-34.46-.47h-.11c-2.3-.19-4.62-.42-6.91-.68a1.29,1.29,0,0,1,.29-2.56c2.27.26,4.56.48,6.83.67a1.29,1.29,0,0,1-.1,2.58Zm48.21-.7a1.29,1.29,0,0,1-.14-2.58c2.26-.25,4.55-.55,6.81-.87a1.29,1.29,0,0,1,.36,2.55c-2.28.33-4.6.63-6.88.89Zm-61.93-.85h-.18c-2.28-.33-4.58-.69-6.85-1.08a1.29,1.29,0,1,1,.43-2.54c2.25.38,4.53.74,6.78,1.06a1.29,1.29,0,0,1-.18,2.57Zm75.59-1.11a1.29,1.29,0,0,1-.21-2.56c2.23-.38,4.5-.81,6.74-1.26a1.29,1.29,0,1,1,.51,2.53c-2.27.46-4.56.89-6.82,1.27A.78.78,0,0,1,284.27,482.39Zm-89.19-1.22-.26,0c-2.26-.45-4.54-.94-6.78-1.46a1.29,1.29,0,1,1,.59-2.51c2.21.51,4.46,1,6.7,1.44a1.29,1.29,0,0,1-.25,2.56Zm102.72-1.51a1.29,1.29,0,0,1-1.26-1,1.31,1.31,0,0,1,1-1.55c2.21-.51,4.45-1.06,6.66-1.64a1.29,1.29,0,1,1,.66,2.49c-2.24.59-4.51,1.15-6.74,1.67A1.43,1.43,0,0,1,297.8,479.66Zm-116.16-1.6a1.24,1.24,0,0,1-.33,0c-2.24-.58-4.49-1.21-6.69-1.85a1.29,1.29,0,0,1,.73-2.48c2.17.64,4.4,1.26,6.61,1.83a1.29,1.29,0,0,1,.92,1.58A1.28,1.28,0,0,1,181.64,478.06Zm129.51-1.9a1.29,1.29,0,0,1-.37-2.53c2.2-.65,4.41-1.33,6.56-2a1.29,1.29,0,1,1,.8,2.45c-2.18.71-4.41,1.4-6.63,2.05A1.13,1.13,0,0,1,311.15,476.16Zm-142.76-2a1.39,1.39,0,0,1-.4-.06c-2.19-.72-4.41-1.47-6.59-2.25a1.29,1.29,0,0,1,.87-2.43c2.15.77,4.35,1.52,6.52,2.22a1.29,1.29,0,0,1,.83,1.63A1.31,1.31,0,0,1,168.39,474.19Zm155.88-2.3a1.29,1.29,0,0,1-.43-2.51c2.13-.76,4.29-1.57,6.43-2.4a1.29,1.29,0,1,1,.93,2.41c-2.15.84-4.34,1.65-6.5,2.42A1.06,1.06,0,0,1,324.27,471.89Zm-168.92-2.35a1.27,1.27,0,0,1-.47-.09c-2.15-.83-4.32-1.71-6.45-2.61a1.29,1.29,0,0,1,1-2.38c2.1.89,4.25,1.76,6.38,2.59a1.29,1.29,0,0,1-.47,2.49Zm181.76-2.66a1.29,1.29,0,0,1-.51-2.47c2.08-.88,4.18-1.81,6.27-2.76a1.29,1.29,0,0,1,1.07,2.35c-2.11,1-4.24,1.9-6.33,2.78A1.31,1.31,0,0,1,337.11,466.88ZM142.6,464.16a1.24,1.24,0,0,1-.53-.12c-2.1-1-4.21-2-6.28-3a1.29,1.29,0,1,1,1.14-2.32c2,1,4.14,2,6.21,2.95a1.29,1.29,0,0,1-.54,2.47Zm207-3a1.29,1.29,0,0,1-.57-2.45c2-1,4.09-2,6.09-3.11a1.29,1.29,0,1,1,1.21,2.28c-2,1.07-4.1,2.13-6.16,3.15A1.31,1.31,0,0,1,349.62,461.16ZM130.2,458.05a1.34,1.34,0,0,1-.61-.15c-2-1.07-4.07-2.19-6.09-3.34a1.29,1.29,0,1,1,1.27-2.24c2,1.13,4,2.24,6,3.3a1.29,1.29,0,0,1-.6,2.43Zm231.59-3.33a1.27,1.27,0,0,1-1.12-.65,1.29,1.29,0,0,1,.48-1.76c2-1.12,4-2.28,5.92-3.46a1.29,1.29,0,1,1,1.33,2.21c-2,1.19-4,2.36-6,3.5A1.28,1.28,0,0,1,361.79,454.72Zm-243.62-3.48a1.35,1.35,0,0,1-.67-.18c-2-1.19-4-2.43-5.89-3.68a1.29,1.29,0,1,1,1.39-2.17c1.93,1.24,3.89,2.46,5.83,3.64a1.29,1.29,0,0,1-.66,2.39Zm255.41-3.64a1.31,1.31,0,0,1-1.09-.59,1.29,1.29,0,0,1,.39-1.78c1.9-1.22,3.82-2.5,5.71-3.79a1.29,1.29,0,0,1,1.46,2.13c-1.91,1.3-3.85,2.59-5.77,3.83A1.29,1.29,0,0,1,373.58,447.6Zm-267-3.84a1.24,1.24,0,0,1-.73-.23c-1.89-1.29-3.8-2.64-5.67-4a1.29,1.29,0,0,1,1.51-2.09c1.86,1.35,3.75,2.68,5.62,4a1.29,1.29,0,0,1-.73,2.35ZM385,439.82a1.29,1.29,0,0,1-.76-2.33c1.84-1.35,3.69-2.73,5.49-4.12a1.29,1.29,0,0,1,1.57,2.05c-1.81,1.4-3.68,2.8-5.54,4.15A1.28,1.28,0,0,1,385,439.82ZM95.38,435.63a1.29,1.29,0,0,1-.79-.26c-1.82-1.41-3.65-2.87-5.43-4.33a1.29,1.29,0,1,1,1.63-2c1.77,1.44,3.58,2.88,5.38,4.27a1.29,1.29,0,0,1,.23,1.81A1.27,1.27,0,0,1,95.38,435.63Zm300.48-4.23a1.29,1.29,0,0,1-.81-2.29c1.76-1.45,3.53-2.93,5.24-4.42a1.29,1.29,0,1,1,1.69,1.95c-1.73,1.5-3.51,3-5.3,4.46A1.28,1.28,0,0,1,395.86,431.4ZM84.7,426.89a1.32,1.32,0,0,1-.85-.32c-1.74-1.51-3.48-3.07-5.17-4.62a1.29,1.29,0,0,1,1.74-1.9c1.67,1.54,3.4,3.08,5.12,4.57a1.29,1.29,0,0,1,.13,1.82A1.26,1.26,0,0,1,84.7,426.89Zm321.59-4.53a1.29,1.29,0,0,1-.88-2.24c1.68-1.53,3.36-3.12,5-4.71a1.3,1.3,0,0,1,1.83,0,1.28,1.28,0,0,1,0,1.82c-1.65,1.61-3.35,3.21-5,4.76A1.28,1.28,0,0,1,406.29,422.36ZM74.53,417.55a1.3,1.3,0,0,1-.9-.36c-1.64-1.6-3.29-3.25-4.9-4.9a1.29,1.29,0,1,1,1.85-1.8c1.59,1.63,3.22,3.27,4.85,4.85a1.29,1.29,0,0,1-.9,2.21Zm341.66-4.8a1.29,1.29,0,0,1-.93-2.19c1.59-1.63,3.18-3.31,4.72-5a1.29,1.29,0,0,1,1.9,1.75c-1.56,1.7-3.16,3.39-4.77,5A1.28,1.28,0,0,1,416.19,412.75ZM64.91,407.66a1.3,1.3,0,0,1-.95-.42c-1.54-1.68-3.1-3.42-4.61-5.17a1.29,1.29,0,1,1,1.95-1.69c1.5,1.73,3,3.45,4.56,5.12a1.28,1.28,0,0,1-1,2.16Zm360.61-5.07a1.3,1.3,0,0,1-1-2.14c1.5-1.72,3-3.48,4.43-5.25a1.29,1.29,0,1,1,2,1.64c-1.45,1.78-3,3.56-4.47,5.3A1.28,1.28,0,0,1,425.52,402.59ZM55.88,397.24a1.27,1.27,0,0,1-1-.47c-1.46-1.79-2.92-3.62-4.32-5.43a1.29,1.29,0,0,1,2-1.57c1.38,1.79,2.82,3.59,4.27,5.36a1.3,1.3,0,0,1-1,2.11Zm378.39-5.33a1.27,1.27,0,0,1-.78-.27,1.29,1.29,0,0,1-.24-1.81c1.39-1.8,2.78-3.64,4.13-5.49a1.29,1.29,0,1,1,2.08,1.52c-1.36,1.86-2.76,3.73-4.16,5.55A1.3,1.3,0,0,1,434.27,391.91ZM47.45,386.33a1.27,1.27,0,0,1-1-.53c-1.35-1.85-2.69-3.75-4-5.66a1.29,1.29,0,0,1,2.13-1.46c1.29,1.89,2.62,3.77,4,5.6a1.29,1.29,0,0,1-1,2.05Zm395-5.59a1.28,1.28,0,0,1-1.07-2c1.29-1.88,2.57-3.81,3.81-5.73a1.29,1.29,0,0,1,2.17,1.4c-1.25,1.94-2.54,3.88-3.85,5.78A1.27,1.27,0,0,1,442.41,380.74ZM39.66,375a1.28,1.28,0,0,1-1.08-.59c-1.25-1.93-2.48-3.91-3.67-5.87a1.29,1.29,0,0,1,2.21-1.34c1.17,1.95,2.39,3.9,3.62,5.81a1.28,1.28,0,0,1-1.08,2Zm410.23-5.83a1.35,1.35,0,0,1-.67-.18,1.31,1.31,0,0,1-.43-1.78c1.18-1.95,2.35-3.94,3.47-5.93a1.29,1.29,0,0,1,2.25,1.27c-1.14,2-2.32,4-3.51,6A1.3,1.3,0,0,1,449.89,369.13ZM32.53,363.18a1.29,1.29,0,0,1-1.12-.66c-1.13-2-2.25-4-3.33-6.07a1.29,1.29,0,0,1,2.28-1.21c1.07,2,2.17,4,3.29,6a1.28,1.28,0,0,1-.48,1.76A1.33,1.33,0,0,1,32.53,363.18ZM456.7,357.1a1.19,1.19,0,0,1-.6-.15,1.29,1.29,0,0,1-.54-1.74c1.08-2,2.13-4.09,3.13-6.12a1.29,1.29,0,0,1,2.32,1.14c-1,2.06-2.08,4.14-3.16,6.19A1.31,1.31,0,0,1,456.7,357.1ZM26.09,351a1.32,1.32,0,0,1-1.16-.72c-1-2.05-2-4.15-3-6.25A1.29,1.29,0,0,1,24.31,343c1,2.07,1.94,4.15,2.94,6.18a1.3,1.3,0,0,1-.59,1.73A1.28,1.28,0,0,1,26.09,351Zm436.73-6.31a1.32,1.32,0,0,1-.54-.12,1.28,1.28,0,0,1-.63-1.71c1-2.08,1.88-4.2,2.77-6.29a1.29,1.29,0,1,1,2.38,1c-.9,2.12-1.84,4.26-2.81,6.37A1.28,1.28,0,0,1,462.82,344.7ZM20.36,338.5a1.3,1.3,0,0,1-1.19-.79c-.89-2.11-1.77-4.26-2.6-6.4a1.29,1.29,0,1,1,2.4-.94c.83,2.12,1.69,4.25,2.58,6.34a1.29,1.29,0,0,1-.69,1.69A1.24,1.24,0,0,1,20.36,338.5ZM468.21,332a1.35,1.35,0,0,1-.47-.09,1.29,1.29,0,0,1-.73-1.67c.83-2.14,1.64-4.31,2.41-6.45a1.29,1.29,0,0,1,2.43.87c-.78,2.16-1.59,4.35-2.44,6.52A1.27,1.27,0,0,1,468.21,332ZM15.35,325.67a1.3,1.3,0,0,1-1.22-.86c-.77-2.18-1.53-4.39-2.24-6.56a1.29,1.29,0,1,1,2.46-.8c.7,2.15,1.44,4.34,2.21,6.49a1.29,1.29,0,0,1-.78,1.65A1.31,1.31,0,0,1,15.35,325.67Zm457.51-6.75a1.32,1.32,0,0,1-.39-.06,1.29,1.29,0,0,1-.83-1.63c.7-2.16,1.38-4.37,2-6.56a1.29,1.29,0,0,1,2.48.73c-.65,2.21-1.34,4.44-2.05,6.63A1.3,1.3,0,0,1,472.86,318.92ZM11.08,312.55a1.29,1.29,0,0,1-1.24-.93c-.65-2.22-1.28-4.46-1.86-6.68a1.29,1.29,0,1,1,2.49-.66c.58,2.19,1.2,4.42,1.84,6.61a1.28,1.28,0,0,1-.87,1.6A1.13,1.13,0,0,1,11.08,312.55Zm465.67-6.87a1.26,1.26,0,0,1-.33-.05,1.28,1.28,0,0,1-.92-1.57c.57-2.2,1.13-4.44,1.64-6.67a1.29,1.29,0,1,1,2.51.59c-.52,2.25-1.08,4.51-1.66,6.73A1.29,1.29,0,0,1,476.75,305.68ZM7.56,299.2a1.29,1.29,0,0,1-1.25-1c-.52-2.24-1-4.53-1.47-6.78a1.29,1.29,0,1,1,2.52-.51c.45,2.23,1,4.49,1.46,6.71a1.29,1.29,0,0,1-1,1.55Zm472.3-7-.26,0a1.29,1.29,0,0,1-1-1.52c.45-2.23.87-4.5,1.26-6.75a1.29,1.29,0,1,1,2.54.44c-.39,2.27-.81,4.56-1.27,6.82A1.28,1.28,0,0,1,479.86,292.23Zm-475-6.56a1.29,1.29,0,0,1-1.27-1.07c-.4-2.28-.76-4.58-1.09-6.85A1.29,1.29,0,0,1,5,277.39c.32,2.24.68,4.52,1.07,6.78a1.3,1.3,0,0,1-1,1.49Zm477.37-7H482a1.29,1.29,0,0,1-1.09-1.46c.32-2.27.61-4.56.87-6.81a1.27,1.27,0,0,1,1.42-1.13,1.29,1.29,0,0,1,1.14,1.42c-.26,2.28-.55,4.59-.88,6.88A1.28,1.28,0,0,1,482.2,278.63ZM2.87,272a1.29,1.29,0,0,1-1.28-1.15c-.27-2.3-.5-4.62-.69-6.9a1.29,1.29,0,0,1,2.57-.22c.19,2.26.42,4.55.68,6.83A1.29,1.29,0,0,1,3,272Zm480.88-7.1h-.11a1.3,1.3,0,0,1-1.18-1.4c.2-2.28.36-4.58.49-6.84a1.32,1.32,0,0,1,1.36-1.22,1.29,1.29,0,0,1,1.21,1.36c-.13,2.29-.29,4.61-.48,6.92A1.3,1.3,0,0,1,483.75,264.92ZM1.69,258.27A1.29,1.29,0,0,1,.4,257.05c-.13-2.3-.23-4.63-.29-6.93a1.29,1.29,0,0,1,1.25-1.33h0a1.29,1.29,0,0,1,1.28,1.26c.07,2.27.17,4.58.3,6.85a1.29,1.29,0,0,1-1.22,1.36Zm482.84-7.13h0a1.29,1.29,0,0,1-1.25-1.32c.06-2.29.09-4.6.09-6.86v-.46a1.29,1.29,0,0,1,2.58,0V243c0,2.28,0,4.62-.1,6.93A1.28,1.28,0,0,1,484.53,251.14ZM1.29,244.47A1.29,1.29,0,0,1,0,243.18V243c0-2.24,0-4.49.09-6.71a1.29,1.29,0,1,1,2.58.07c-.06,2.19-.09,4.43-.09,6.64v.22A1.29,1.29,0,0,1,1.29,244.47Zm483.22-7.58a1.29,1.29,0,0,1-1.29-1.25c-.06-2.27-.17-4.57-.3-6.86a1.29,1.29,0,0,1,2.58-.15c.13,2.31.23,4.64.3,6.93a1.29,1.29,0,0,1-1.25,1.33ZM1.67,230.68H1.59a1.29,1.29,0,0,1-1.21-1.36c.12-2.3.29-4.63.48-6.92a1.3,1.3,0,0,1,1.39-1.18,1.29,1.29,0,0,1,1.18,1.39c-.19,2.28-.35,4.58-.48,6.85A1.28,1.28,0,0,1,1.67,230.68Zm482-7.57a1.28,1.28,0,0,1-1.28-1.17c-.2-2.28-.43-4.58-.69-6.83a1.29,1.29,0,1,1,2.56-.3c.26,2.28.5,4.6.7,6.9a1.3,1.3,0,0,1-1.18,1.4ZM2.82,216.93H2.67a1.29,1.29,0,0,1-1.13-1.43c.25-2.28.55-4.6.87-6.88A1.29,1.29,0,0,1,5,209c-.32,2.26-.61,4.55-.86,6.81A1.3,1.3,0,0,1,2.82,216.93Zm479.31-7.52a1.31,1.31,0,0,1-1.28-1.11c-.32-2.26-.69-4.54-1.07-6.78a1.28,1.28,0,0,1,1.05-1.49,1.29,1.29,0,0,1,1.49,1.05c.39,2.26.76,4.57,1.09,6.85a1.29,1.29,0,0,1-1.1,1.46ZM4.75,203.26H4.53a1.29,1.29,0,0,1-1.05-1.49c.39-2.27.81-4.57,1.26-6.82a1.29,1.29,0,0,1,2.53.5C6.83,197.68,6.4,200,6,202.19A1.29,1.29,0,0,1,4.75,203.26Zm475-7.45a1.29,1.29,0,0,1-1.26-1c-.45-2.22-.94-4.48-1.46-6.71a1.29,1.29,0,1,1,2.51-.58c.53,2.25,1,4.53,1.48,6.77a1.3,1.3,0,0,1-1,1.53ZM7.46,189.74a1,1,0,0,1-.29,0,1.3,1.3,0,0,1-1-1.54c.52-2.24,1.08-4.5,1.66-6.74a1.29,1.29,0,0,1,2.5.65c-.58,2.21-1.13,4.46-1.64,6.67A1.3,1.3,0,0,1,7.46,189.74Zm469.17-7.37a1.29,1.29,0,0,1-1.25-1c-.58-2.2-1.2-4.43-1.85-6.61a1.29,1.29,0,0,1,2.48-.73c.65,2.2,1.28,4.45,1.87,6.69a1.29,1.29,0,0,1-.92,1.57A1.24,1.24,0,0,1,476.63,182.37ZM11,176.38a1.12,1.12,0,0,1-.36,0,1.29,1.29,0,0,1-.88-1.6c.64-2.2,1.33-4.43,2-6.63a1.29,1.29,0,1,1,2.45.79c-.7,2.18-1.38,4.39-2,6.56A1.29,1.29,0,0,1,11,176.38Zm461.77-7.24a1.28,1.28,0,0,1-1.22-.89c-.71-2.16-1.46-4.35-2.23-6.49a1.29,1.29,0,1,1,2.43-.87c.78,2.16,1.54,4.37,2.25,6.56a1.28,1.28,0,0,1-.83,1.62A1.09,1.09,0,0,1,472.72,169.14ZM15.2,163.23A1.28,1.28,0,0,1,14,161.51c.77-2.17,1.59-4.37,2.42-6.52a1.29,1.29,0,0,1,2.41.93c-.83,2.13-1.64,4.3-2.4,6.45A1.3,1.3,0,0,1,15.2,163.23Zm452.86-7.08a1.29,1.29,0,0,1-1.2-.82c-.82-2.1-1.69-4.23-2.58-6.33a1.29,1.29,0,1,1,2.37-1c.9,2.12,1.78,4.28,2.61,6.4a1.28,1.28,0,0,1-.73,1.67A1.27,1.27,0,0,1,468.06,156.15ZM20.22,150.33a1.24,1.24,0,0,1-.5-.1,1.29,1.29,0,0,1-.69-1.69c.9-2.13,1.84-4.27,2.79-6.37a1.29,1.29,0,1,1,2.35,1.07c-1,2.08-1.88,4.2-2.77,6.3A1.28,1.28,0,0,1,20.22,150.33Zm442.46-6.84a1.29,1.29,0,0,1-1.17-.75c-.95-2.06-1.94-4.14-2.95-6.18a1.29,1.29,0,0,1,2.32-1.14c1,2.06,2,4.16,3,6.24a1.29,1.29,0,0,1-1.17,1.83ZM26,137.75a1.28,1.28,0,0,1-.57-.13,1.3,1.3,0,0,1-.59-1.73c1-2.08,2.08-4.16,3.16-6.19a1.29,1.29,0,0,1,2.28,1.2c-1.06,2-2.11,4.07-3.12,6.13A1.3,1.3,0,0,1,26,137.75Zm430.62-6.6a1.3,1.3,0,0,1-1.14-.68c-1.07-2-2.18-4-3.29-6a1.29,1.29,0,1,1,2.24-1.27c1.13,2,2.25,4,3.33,6.07a1.28,1.28,0,0,1-.53,1.74A1.34,1.34,0,0,1,456.58,131.15ZM32.41,125.52a1.22,1.22,0,0,1-.63-.17,1.28,1.28,0,0,1-.49-1.75c1.14-2,2.32-4,3.51-6A1.29,1.29,0,1,1,37,118.93c-1.18,1.95-2.35,3.95-3.47,5.94A1.32,1.32,0,0,1,32.41,125.52Zm417.37-6.34a1.29,1.29,0,0,1-1.1-.62c-1.18-2-2.4-3.91-3.63-5.81a1.29,1.29,0,1,1,2.16-1.4c1.25,1.92,2.48,3.9,3.68,5.87a1.29,1.29,0,0,1-.44,1.77A1.26,1.26,0,0,1,449.78,119.18ZM39.56,113.69a1.27,1.27,0,0,1-.7-.21,1.29,1.29,0,0,1-.39-1.78c1.25-1.94,2.54-3.89,3.84-5.79a1.29,1.29,0,0,1,2.13,1.46c-1.28,1.88-2.56,3.8-3.8,5.73A1.29,1.29,0,0,1,39.56,113.69Zm402.75-6.09a1.27,1.27,0,0,1-1.06-.56c-1.29-1.87-2.62-3.75-4-5.59a1.29,1.29,0,1,1,2.08-1.52c1.36,1.86,2.7,3.76,4,5.65a1.28,1.28,0,0,1-1.06,2ZM47.36,102.29a1.26,1.26,0,0,1-.76-.25,1.29,1.29,0,0,1-.29-1.8c1.36-1.87,2.76-3.74,4.17-5.56a1.29,1.29,0,0,1,2,1.58c-1.39,1.8-2.78,3.65-4.12,5.5A1.29,1.29,0,0,1,47.36,102.29Zm386.83-5.82a1.3,1.3,0,0,1-1-.5c-1.38-1.79-2.82-3.59-4.28-5.37a1.29,1.29,0,0,1,2-1.63c1.47,1.79,2.92,3.61,4.32,5.42A1.3,1.3,0,0,1,435,96.2,1.32,1.32,0,0,1,434.19,96.47ZM55.79,91.35a1.24,1.24,0,0,1-.81-.29,1.28,1.28,0,0,1-.19-1.81c1.45-1.77,3-3.56,4.47-5.31a1.29,1.29,0,0,1,2,1.69c-1.5,1.73-3,3.5-4.42,5.25A1.27,1.27,0,0,1,55.79,91.35ZM425.44,85.8a1.28,1.28,0,0,1-1-.44c-1.5-1.72-3-3.44-4.57-5.11a1.29,1.29,0,1,1,1.89-1.75c1.56,1.69,3.12,3.43,4.62,5.17a1.29,1.29,0,0,1-.12,1.82A1.31,1.31,0,0,1,425.44,85.8ZM64.83,80.92a1.28,1.28,0,0,1-.87-.34,1.29,1.29,0,0,1-.08-1.82c1.56-1.7,3.16-3.4,4.76-5.05a1.29,1.29,0,0,1,1.85,1.8c-1.58,1.63-3.16,3.31-4.71,5A1.27,1.27,0,0,1,64.83,80.92ZM416.1,75.65a1.28,1.28,0,0,1-.92-.39c-1.61-1.64-3.24-3.27-4.86-4.84a1.29,1.29,0,0,1,1.8-1.86c1.63,1.59,3.29,3.24,4.91,4.9a1.3,1.3,0,0,1,0,1.83A1.29,1.29,0,0,1,416.1,75.65ZM74.45,71a1.29,1.29,0,0,1-.9-2.21c1.64-1.6,3.34-3.21,5-4.77a1.29,1.29,0,1,1,1.75,1.9c-1.68,1.54-3.36,3.13-5,4.71A1.27,1.27,0,0,1,74.45,71ZM406.2,66a1.3,1.3,0,0,1-.87-.33c-1.67-1.54-3.4-3.07-5.13-4.57a1.29,1.29,0,1,1,1.69-2c1.75,1.51,3.49,3.07,5.18,4.61A1.29,1.29,0,0,1,406.2,66ZM84.6,61.68a1.29,1.29,0,0,1-.84-2.26c1.74-1.51,3.52-3,5.3-4.47a1.29,1.29,0,0,1,1.63,2c-1.76,1.43-3.52,2.92-5.24,4.42A1.31,1.31,0,0,1,84.6,61.68ZM395.76,57a1.32,1.32,0,0,1-.82-.29c-1.76-1.45-3.57-2.88-5.38-4.27a1.29,1.29,0,0,1,1.58-2c1.82,1.4,3.65,2.85,5.43,4.31a1.29,1.29,0,0,1,.19,1.82A1.3,1.3,0,0,1,395.76,57ZM95.27,52.94a1.27,1.27,0,0,1-1-.5,1.28,1.28,0,0,1,.23-1.81c1.82-1.4,3.68-2.8,5.54-4.16a1.29,1.29,0,0,1,1.52,2.09c-1.84,1.34-3.68,2.72-5.48,4.11A1.26,1.26,0,0,1,95.27,52.94Zm289.55-4.36a1.28,1.28,0,0,1-.76-.25c-1.83-1.33-3.72-2.66-5.61-3.95a1.3,1.3,0,0,1-.34-1.8,1.29,1.29,0,0,1,1.79-.33c1.92,1.3,3.83,2.65,5.68,4a1.29,1.29,0,0,1-.76,2.33ZM106.41,44.83a1.29,1.29,0,0,1-.73-2.36c1.89-1.3,3.83-2.59,5.76-3.83a1.29,1.29,0,1,1,1.4,2.16c-1.91,1.24-3.83,2.51-5.7,3.8A1.34,1.34,0,0,1,106.41,44.83Zm267-4a1.29,1.29,0,0,1-.7-.2c-1.93-1.24-3.89-2.46-5.83-3.63a1.29,1.29,0,1,1,1.33-2.21c2,1.18,3.94,2.41,5.89,3.67a1.29,1.29,0,0,1-.69,2.37ZM118,37.36a1.29,1.29,0,0,1-.67-2.39c2-1.19,4-2.37,6-3.51a1.29,1.29,0,1,1,1.27,2.25c-2,1.12-4,2.29-5.91,3.46A1.25,1.25,0,0,1,118,37.36Zm243.59-3.71a1.29,1.29,0,0,1-.63-.17c-2-1.12-4-2.23-6-3.29a1.29,1.29,0,1,1,1.21-2.28c2,1.07,4.09,2.19,6.09,3.32a1.29,1.29,0,0,1-.63,2.42ZM130,30.57a1.29,1.29,0,0,1-.6-2.43c2-1.09,4.12-2.15,6.16-3.16a1.29,1.29,0,1,1,1.14,2.32c-2,1-4.07,2-6.09,3.12A1.31,1.31,0,0,1,130,30.57ZM349.35,27.2a1.31,1.31,0,0,1-.57-.13c-2.06-1-4.15-2-6.21-2.95a1.29,1.29,0,1,1,1.07-2.34c2.08.95,4.2,1.95,6.28,3a1.29,1.29,0,0,1-.57,2.45Zm-207-2.73a1.29,1.29,0,0,1-.54-2.46c2.09-1,4.22-1.9,6.32-2.79a1.29,1.29,0,1,1,1,2.37c-2.08.88-4.18,1.81-6.26,2.76A1.24,1.24,0,0,1,142.31,24.47Zm194.45-3a1.31,1.31,0,0,1-.5-.1c-2.11-.89-4.26-1.76-6.38-2.58a1.29,1.29,0,0,1,.94-2.41c2.14.83,4.31,1.71,6.45,2.61a1.29,1.29,0,0,1-.51,2.48ZM155,19.1a1.29,1.29,0,0,1-.47-2.5c2.14-.83,4.33-1.65,6.49-2.43a1.29,1.29,0,1,1,.87,2.43c-2.14.77-4.3,1.58-6.42,2.41A1.35,1.35,0,0,1,155,19.1Zm168.89-2.64a1.31,1.31,0,0,1-.43-.08c-2.13-.76-4.33-1.5-6.52-2.21a1.29,1.29,0,0,1,.79-2.46c2.22.72,4.44,1.47,6.6,2.24a1.29,1.29,0,0,1-.44,2.51Zm-155.9-2a1.29,1.29,0,0,1-.4-2.51c2.19-.72,4.42-1.41,6.62-2.06a1.29,1.29,0,0,1,1.6.87,1.27,1.27,0,0,1-.87,1.6c-2.18.65-4.38,1.33-6.55,2A1.44,1.44,0,0,1,168,14.44ZM310.71,12.2a1.12,1.12,0,0,1-.36,0c-2.2-.64-4.43-1.25-6.62-1.82a1.29,1.29,0,0,1,.65-2.5c2.21.58,4.46,1.2,6.69,1.85a1.28,1.28,0,0,1-.36,2.52ZM181.19,10.54A1.29,1.29,0,0,1,180.86,8c2.24-.59,4.5-1.15,6.74-1.67a1.29,1.29,0,1,1,.58,2.51c-2.21.51-4.45,1.07-6.66,1.65A1.24,1.24,0,0,1,181.19,10.54ZM297.36,8.73a.92.92,0,0,1-.29,0c-2.22-.51-4.48-1-6.71-1.44a1.3,1.3,0,0,1-1-1.52,1.29,1.29,0,0,1,1.52-1c2.26.45,4.54.94,6.79,1.46a1.29,1.29,0,0,1-.29,2.55ZM194.63,7.41a1.29,1.29,0,0,1-.25-2.55c2.24-.46,4.54-.89,6.81-1.29a1.31,1.31,0,0,1,1.5,1.06,1.29,1.29,0,0,1-1.06,1.49c-2.25.39-4.52.81-6.74,1.27ZM283.82,6l-.21,0c-2.24-.38-4.52-.73-6.78-1a1.29,1.29,0,1,1,.36-2.56c2.28.32,4.59.68,6.85,1.07A1.29,1.29,0,0,1,283.82,6Zm-75.59-1A1.31,1.31,0,0,1,207,4a1.29,1.29,0,0,1,1.1-1.46c2.3-.33,4.61-.63,6.88-.89a1.29,1.29,0,0,1,.29,2.56c-2.24.26-4.53.56-6.81.88Zm61.93-1H270c-2.26-.26-4.56-.48-6.84-.67A1.29,1.29,0,0,1,263.4.85c2.3.19,4.62.42,6.9.67A1.29,1.29,0,0,1,271.44,3,1.28,1.28,0,0,1,270.16,4.09Zm-48.22-.61a1.29,1.29,0,0,1-.11-2.57c2.31-.2,4.64-.37,6.92-.5A1.29,1.29,0,1,1,228.89,3c-2.25.13-4.55.3-6.84.5ZM256.41,3h-.07c-2.29-.13-4.6-.22-6.86-.28a1.29,1.29,0,0,1-1.25-1.33A1.25,1.25,0,0,1,249.55.09c2.29.06,4.62.15,6.93.28A1.29,1.29,0,0,1,256.41,3Zm-20.7-.26a1.29,1.29,0,0,1-1.28-1.26A1.27,1.27,0,0,1,235.68.11C238,0,240.3,0,242.61,0h0a1.29,1.29,0,0,1,0,2.58c-2.29,0-4.6,0-6.87.11Z" transform="translate(6.04)"/>
      </g>
    </g>
  </g>
</svg>
