<svg height="512pt" viewBox="0 0 512 512" width="512pt" xmlns="http://www.w3.org/2000/svg"><path d="m77.339844 346.449219c-21.207032 0-37.597656 9.960937-37.597656 36.792969v44.832031c0 26.828125 16.390624 36.792969 37.597656 36.792969 21.210937 0 37.757812-9.964844 37.757812-36.792969v-44.832031c0-26.832032-16.546875-36.792969-37.757812-36.792969zm16.871094 81.625c0 12.691406-6.425782 18.476562-16.871094 18.476562-10.605469 0-16.710938-5.785156-16.710938-18.476562v-44.832031c0-12.691407 6.105469-18.476563 16.710938-18.476563 10.445312 0 16.871094 5.78125 16.871094 18.476563zm0 0"/><path d="m200.410156 346.449219c-5.300781 0-10.441406 1.929687-10.441406 6.425781v64.59375l-31.011719-59.933594c-4.980469-9.480468-8.03125-11.085937-15.585937-11.085937-5.300782 0-10.441406 2.085937-10.441406 6.585937v104.28125c0 4.335938 5.140624 6.585938 10.441406 6.585938 5.144531 0 10.445312-2.25 10.445312-6.585938v-64.59375l34.542969 64.59375c2.734375 4.980469 7.070313 6.585938 12.050781 6.585938 5.144532 0 10.445313-2.25 10.445313-6.585938v-104.441406c0-4.496094-5.300781-6.425781-10.445313-6.425781zm0 0"/><path d="m312.234375 352.554688c-1.449219-4.820313-7.390625-7.070313-13.5-7.070313-5.941406 0-11.886719 2.25-13.335937 7.070313l-31.007813 101.066406c-.160156.644531-.324219 1.28125-.324219 1.605468 0 5.140626 7.554688 8.675782 13.175782 8.675782 3.535156 0 6.269531-1.125 7.070312-4.175782l6.105469-21.371093h36.796875l6.105468 21.371093c.800782 3.050782 3.53125 4.175782 7.066407 4.175782 5.625 0 13.175781-3.695313 13.175781-8.675782 0-.484374-.160156-.960937-.320312-1.605468zm-27.476563 69.414062 13.976563-49.332031 13.980469 49.332031zm0 0"/><path d="m365.089844 346.449219c-5.304688 0-10.445313 1.929687-10.445313 6.425781v104.441406c0 4.335938 5.144531 6.585938 10.445313 6.585938 5.140625 0 10.441406-2.25 10.441406-6.585938v-104.441406c.003906-4.496094-5.300781-6.425781-10.441406-6.425781zm0 0"/><path d="m450.40625 412.164062c12.050781-3.695312 21.046875-13.65625 21.046875-32.132812 0-25.550781-17.027344-33.582031-38.078125-33.582031h-31.8125c-4.015625 0-6.75 3.054687-6.75 6.425781v104.441406c0 4.335938 5.304688 6.585938 10.445312 6.585938 5.300782 0 10.441407-2.25 10.441407-6.585938v-41.9375h13.5l22.8125 44.347656c1.605469 3.214844 4.339843 4.980469 7.230469 4.980469 6.105468 0 13.015624-5.625 13.015624-10.925781 0-.644531-.160156-1.769531-.804687-2.570312zm-17.03125-13.175781h-17.675781v-34.222656h17.675781c10.445312 0 17.191406 4.496094 17.191406 17.191406 0 12.691407-6.746094 17.03125-17.191406 17.03125zm0 0"/><path d="m456.832031 298.351562h-105.5v-65.332031c0-52.566406-42.765625-95.332031-95.332031-95.332031s-95.335938 42.765625-95.335938 95.332031v65.332031h-105.5c-30.417968 0-55.164062 24.746094-55.164062 55.167969v103.3125c0 30.421875 24.746094 55.167969 55.167969 55.167969h401.667969c30.417968 0 55.164062-24.746094 55.164062-55.167969v-103.3125c0-30.421875-24.746094-55.167969-55.167969-55.167969zm-266.164062-65.332031c0-36.027343 29.308593-65.332031 65.332031-65.332031 36.027344 0 65.335938 29.304688 65.335938 65.332031v65.332031h-130.667969zm291.332031 223.8125c0 13.878907-11.289062 25.167969-25.167969 25.167969h-401.664062c-13.878907 0-25.167969-11.289062-25.167969-25.167969v-103.3125c0-13.878906 11.289062-25.167969 25.167969-25.167969h120.460937.039063 160.667969.035156 120.464844c13.875 0 25.164062 11.289063 25.164062 25.167969zm0 0"/><path d="m256 87.351562c8.285156 0 15-6.714843 15-15v-57.351562c0-8.285156-6.714844-15-15-15s-15 6.714844-15 15v57.351562c0 8.285157 6.714844 15 15 15zm0 0"/><path d="m401.667969 233.019531c0 8.285157 6.714843 15 15 15h57.351562c8.285157 0 15-6.714843 15-15 0-8.285156-6.714843-15-15-15h-57.351562c-8.285157 0-15 6.714844-15 15zm0 0"/><path d="m37.980469 248.019531h57.355469c8.28125 0 15-6.714843 15-15 0-8.285156-6.71875-15-15-15h-57.355469c-8.28125 0-15 6.714844-15 15 0 8.285157 6.71875 15 15 15zm0 0"/><path d="m131.785156 130.015625c2.929688 2.929687 6.769532 4.390625 10.605469 4.390625 3.839844 0 7.679687-1.464844 10.605469-4.390625 5.859375-5.859375 5.859375-15.359375 0-21.214844l-40.550782-40.550781c-5.859374-5.855469-15.355468-5.855469-21.214843 0-5.859375 5.859375-5.855469 15.355469 0 21.214844zm0 0"/><path d="m369.605469 134.40625c3.839843 0 7.679687-1.460938 10.609375-4.390625l40.554687-40.550781c5.855469-5.859375 5.855469-15.355469 0-21.214844-5.859375-5.855469-15.355469-5.859375-21.214843 0l-40.554688 40.550781c-5.859375 5.855469-5.859375 15.355469 0 21.214844 2.929688 2.929687 6.769531 4.390625 10.605469 4.390625zm0 0"/></svg>