<svg height="512pt" viewBox="0 0 512 512" width="512pt" xmlns="http://www.w3.org/2000/svg"><path d="m256 137.6875c-52.566406 0-95.335938 42.765625-95.335938 95.332031v80.332031c0 8.285157 6.71875 15 15 15h160.667969c8.285157 0 15-6.714843 15-15v-80.332031c0-52.566406-42.765625-95.332031-95.332031-95.332031zm0 0" fill="#ff4949"/><path d="m256 137.6875v190.664062h80.332031c8.285157 0 15-6.714843 15-15v-80.332031c0-52.566406-42.765625-95.332031-95.332031-95.332031zm0 0" fill="#e80048"/><path d="m496.996094 456.832031c0 22.09375-18.070313 40.167969-40.164063 40.167969h-401.667969c-22.089843 0-40.164062-18.074219-40.164062-40.167969v-103.3125c0-22.09375 18.074219-40.167969 40.164062-40.167969h401.667969c22.09375 0 40.164063 18.074219 40.164063 40.167969zm0 0" fill="#fef4f5"/><path d="m456.832031 313.351562h-200.832031v183.648438h200.832031c22.09375 0 40.164063-18.074219 40.164063-40.167969v-103.3125c0-22.09375-18.070313-40.167969-40.164063-40.167969zm0 0" fill="#d5eded"/><path d="m456.832031 512h-401.667969c-30.417968 0-55.164062-24.746094-55.164062-55.167969v-103.3125c0-30.421875 24.746094-55.167969 55.164062-55.167969h401.667969c30.417969 0 55.164063 24.746094 55.164063 55.167969v103.3125c0 30.421875-24.746094 55.167969-55.164063 55.167969zm-401.667969-183.648438c-13.875 0-25.164062 11.289063-25.164062 25.167969v103.3125c0 13.878907 11.289062 25.167969 25.164062 25.167969h401.667969c13.878907 0 25.164063-11.289062 25.164063-25.167969v-103.3125c0-13.878906-11.285156-25.167969-25.164063-25.167969zm0 0" fill="#00d8e0"/><path d="m39.738281 428.074219v-44.832031c0-26.832032 16.394531-36.792969 37.601563-36.792969 21.210937 0 37.757812 9.960937 37.757812 36.792969v44.832031c0 26.828125-16.546875 36.792969-37.757812 36.792969-21.207032 0-37.601563-9.964844-37.601563-36.792969zm54.472657-44.832031c0-12.691407-6.429688-18.476563-16.871094-18.476563-10.605469 0-16.710938 5.78125-16.710938 18.476563v44.832031c0 12.691406 6.105469 18.476562 16.710938 18.476562 10.441406 0 16.871094-5.785156 16.871094-18.476562zm0 0" fill="#ff4949"/><path d="m188.359375 457.316406-34.546875-64.59375v64.59375c0 4.335938-5.300781 6.585938-10.441406 6.585938-5.304688 0-10.441406-2.25-10.441406-6.585938v-104.28125c0-4.5 5.140624-6.585937 10.441406-6.585937 7.550781 0 10.605468 1.605469 15.582031 11.085937l31.015625 59.933594v-64.59375c0-4.496094 5.140625-6.425781 10.441406-6.425781 5.144532 0 10.441406 1.929687 10.441406 6.425781v104.441406c0 4.335938-5.300781 6.585938-10.441406 6.585938-4.980468 0-9.316406-1.605469-12.050781-6.585938zm0 0" fill="#ff4949"/><g fill="#e80048"><path d="m254.066406 455.226562c0-.324218.160156-.960937.320313-1.605468l31.011719-101.066406c1.445312-4.820313 7.390624-7.070313 13.335937-7.070313 6.109375 0 12.050781 2.25 13.496094 7.070313l31.011719 101.066406c.160156.644531.320312 1.121094.320312 1.605468 0 4.980469-7.550781 8.675782-13.175781 8.675782-3.535157 0-6.265625-1.125-7.070313-4.175782l-6.101562-21.371093h-36.796875l-6.105469 21.371093c-.800781 3.050782-3.535156 4.175782-7.070312 4.175782-5.625 0-13.175782-3.535156-13.175782-8.675782zm58.648438-33.257812-13.980469-49.332031-13.976563 49.332031zm0 0"/><path d="m354.644531 352.875c0-4.496094 5.144531-6.425781 10.445313-6.425781 5.140625 0 10.441406 1.929687 10.441406 6.425781v104.441406c0 4.335938-5.300781 6.585938-10.441406 6.585938-5.304688 0-10.445313-2.25-10.445313-6.585938zm0 0"/><path d="m394.8125 352.875c0-3.371094 2.730469-6.425781 6.75-6.425781h31.8125c21.046875 0 38.078125 8.03125 38.078125 33.582031 0 18.476562-8.996094 28.4375-21.046875 32.132812l21.046875 39.046876c.644531.804687.804687 1.925781.804687 2.570312 0 5.300781-6.910156 10.925781-13.015624 10.925781-2.890626 0-5.625-1.765625-7.230469-4.980469l-22.816407-44.347656h-13.496093v41.9375c0 4.335938-5.144531 6.585938-10.441407 6.585938-5.144531 0-10.445312-2.25-10.445312-6.585938zm20.886719 11.890625v34.226563h17.675781c10.441406 0 17.191406-4.339844 17.191406-17.035157 0-12.691406-6.75-17.191406-17.191406-17.191406zm0 0"/></g><path d="m256 87.351562c-8.285156 0-15-6.714843-15-15v-57.351562c0-8.285156 6.714844-15 15-15 8.28125 0 15 6.714844 15 15v57.351562c0 8.285157-6.71875 15-15 15zm0 0" fill="#ff9f00"/><path d="m474.019531 248.019531h-57.355469c-8.28125 0-15-6.714843-15-15 0-8.285156 6.71875-15 15-15h57.355469c8.28125 0 15 6.714844 15 15 0 8.285157-6.71875 15-15 15zm0 0" fill="#ff641a"/><path d="m95.332031 248.019531h-57.351562c-8.285157 0-15-6.714843-15-15 0-8.285156 6.714843-15 15-15h57.351562c8.285157 0 15 6.714844 15 15 0 8.285157-6.714843 15-15 15zm0 0" fill="#ff9f00"/><path d="m142.390625 134.40625c-3.839844 0-7.675781-1.460938-10.605469-4.390625l-40.554687-40.550781c-5.859375-5.859375-5.859375-15.355469-.003907-21.214844 5.859376-5.855469 15.355469-5.855469 21.214844 0l40.554688 40.550781c5.855468 5.859375 5.859375 15.355469 0 21.214844-2.929688 2.925781-6.765625 4.390625-10.605469 4.390625zm0 0" fill="#ff9f00"/><path d="m369.605469 134.40625c-3.839844 0-7.679688-1.464844-10.609375-4.390625-5.855469-5.859375-5.855469-15.355469.003906-21.214844l40.554688-40.550781c5.855468-5.855469 15.351562-5.855469 21.210937 0 5.859375 5.859375 5.855469 15.355469 0 21.214844l-40.550781 40.550781c-2.933594 2.925781-6.773438 4.390625-10.609375 4.390625zm0 0" fill="#ff641a"/><path d="m456.832031 298.351562h-200.832031v30h200.832031c13.878907 0 25.164063 11.289063 25.164063 25.167969v103.3125c0 13.878907-11.285156 25.167969-25.164063 25.167969h-200.832031v30h200.832031c30.417969 0 55.164063-24.746094 55.164063-55.167969v-103.3125c0-30.421875-24.746094-55.167969-55.164063-55.167969zm0 0" fill="#00acb3"/><path d="m256 0v87.351562c8.28125 0 15-6.714843 15-15v-57.351562c0-8.285156-6.71875-15-15-15zm0 0" fill="#ff641a"/></svg>