<svg id="Capa_1"  enable-background="new 0 0 512 512" height="512" viewBox="0 0 512 512" width="512" xmlns="http://www.w3.org/2000/svg"><g><g><g><g><circle cx="256" cy="256" fill="#f9f6f9" r="229.355"/></g></g><g><g><circle cx="320.019" cy="256" fill="#ffc250" r="55.902"/><g><path d="m222.686 318.5h-75.128c-15.864 0-28.725-12.86-28.725-28.725v-67.551c0-15.864 12.86-28.725 28.725-28.725h75.128z" fill="#ffd064"/><path d="m316.121 404.188-108.768-85.688v-125l108.768-85.688c8.208-6.466 20.256-.619 20.256 9.829v276.718c0 10.448-12.048 16.295-20.256 9.829z" fill="#fff0af"/></g><g><path d="m207.353 292.5h-88.388c1.373 14.586 13.648 26 28.593 26h75.128v-14.432z" fill="#ffc250"/><path d="m316.121 107.812-34.58 27.242v188.305c0 10.449-12.049 16.295-20.256 9.829l-53.932-40.688v26l108.768 85.688c8.208 6.466 20.256.619 20.256-9.829v-276.718c0-10.448-12.048-16.295-20.256-9.829z" fill="#ffe07d"/></g></g></g><g><path d="m311.647 33.458c81.703 40.706 137.841 125.061 137.841 222.542s-56.138 181.836-137.84 222.542c99.776-24.87 173.707-115.066 173.707-222.542s-73.931-197.672-173.708-222.542z" fill="#dddaec"/></g><path d="m256 7.5c-137.243 0-248.5 111.257-248.5 248.5s111.257 248.5 248.5 248.5 248.5-111.257 248.5-248.5-111.257-248.5-248.5-248.5zm-212.667 248.5c0-52.276 18.873-100.136 50.162-137.167l299.672 299.672c-37.031 31.289-84.891 50.162-137.167 50.162-117.453 0-212.667-95.214-212.667-212.667zm375.172 137.167-299.672-299.672c37.031-31.289 84.891-50.162 137.167-50.162 117.453 0 212.667 95.214 212.667 212.667 0 52.276-18.873 100.136-50.162 137.167z" fill="#dd636e"/><g><path d="m256 7.5c-9.299 0-18.472.528-27.506 1.523 58.564 6.45 110.993 33.246 150.075 73.171 54.503 38.506 90.098 101.997 90.098 173.806 0 52.276-18.873 100.136-50.162 137.167l-6.268-6.268c-6.402 10.309-13.536 20.114-21.332 29.344l2.262 2.262c-4.684 3.958-9.543 7.715-14.561 11.262-39.086 39.947-91.529 66.758-150.113 73.21 9.034.995 18.208 1.523 27.506 1.523 137.243 0 248.5-111.257 248.5-248.5s-111.256-248.5-248.499-248.5z" fill="#da4a54"/></g></g><g><path d="m93.181 111.339c-2.097.088-4.061 1.05-5.414 2.653-33.491 39.636-51.934 90.068-51.934 142.008 0 58.809 22.901 114.098 64.485 155.682s96.873 64.485 155.682 64.485c51.939 0 102.372-18.443 142.008-51.933 3.35-2.831 3.566-7.929.463-11.032l-299.672-299.672c-1.485-1.484-3.504-2.274-5.618-2.191zm162.819 349.828c-113.13 0-205.167-92.038-205.167-205.167 0-45.668 15.303-90.087 43.243-125.98l55.98 55.98h-2.498c-19.975 0-36.225 16.25-36.225 36.225v67.551c0 19.974 16.25 36.225 36.225 36.225h57.195l58.574 46.144c3.255 2.562 7.968 2.005 10.533-1.25 2.563-3.253 2.003-7.969-1.25-10.533l-57.757-45.5v-64.064l114.024 114.025v29.537c0 4.202-4.827 6.528-8.114 3.938l-20.858-16.432c-3.255-2.563-7.968-2.003-10.533 1.25-2.563 3.253-2.003 7.969 1.25 10.533l20.859 16.432c13.058 10.287 32.396 1.049 32.396-15.721v-14.537l38.103 38.103c-35.893 27.939-80.313 43.241-125.98 43.241zm-56.147-150.167h-52.295c-11.703 0-21.225-9.521-21.225-21.225v-67.551c0-11.703 9.521-21.225 21.225-21.225h17.498l34.797 34.797z"/><path d="m424.233 398.007c33.49-39.635 51.934-90.067 51.934-142.007 0-58.809-22.901-114.097-64.485-155.681s-96.873-64.486-155.682-64.486c-51.939 0-102.372 18.443-142.008 51.933-1.603 1.354-2.564 3.318-2.652 5.415s.706 4.134 2.189 5.618c19.927 19.927 287.645 287.645 299.672 299.672 3.105 3.103 8.201 2.889 11.032-.464zm-168.233-347.174c113.13 0 205.167 92.037 205.167 205.167 0 45.668-15.303 90.087-43.243 125.98l-69.347-69.347c21.204-10.61 34.845-32.218 34.845-56.633 0-26.175-15.677-49.125-39.545-58.753v-79.606c0-16.711-19.277-26.055-32.397-15.721l-97.11 76.504-84.349-84.349c35.892-27.939 80.311-43.242 125.979-43.242zm87.877 163.024c15.006 8.431 24.545 24.304 24.545 42.143s-9.539 33.712-24.545 42.143zm-15-11.326v.079 90.322l-103.826-103.826 95.711-75.402c3.296-2.596 8.115-.257 8.115 3.938z"/><path d="m15 256c0-133.193 107.787-241 241-241 56.552 0 111.519 19.981 154.776 56.262 3.174 2.661 7.903 2.248 10.565-.927 2.662-3.174 2.247-7.904-.927-10.566-45.953-38.542-104.343-59.769-164.414-59.769-141.487 0-256 114.501-256 256 0 60.04 21.207 118.407 59.714 164.35 2.661 3.175 7.392 3.59 10.565.93 3.175-2.661 3.592-7.391.931-10.566-36.247-43.247-56.21-98.192-56.21-154.714z"/><path d="m446.394 84.865c-2.77-3.08-7.511-3.33-10.592-.561-3.079 2.77-3.331 7.512-.561 10.592 39.826 44.279 61.759 101.494 61.759 161.104 0 133.193-107.787 241-241 241-59.61 0-116.825-21.933-161.104-61.759-3.082-2.771-7.823-2.517-10.592.561-2.771 3.08-2.519 7.822.561 10.592 47.038 42.307 107.815 65.606 171.135 65.606 141.487 0 256-114.501 256-256 0-63.32-23.3-124.097-65.606-171.135z"/></g></g></svg>