<svg id="Capa_1" enable-background="new 0 0 512 512" height="512" viewBox="0 0 512 512" width="512" xmlns="http://www.w3.org/2000/svg"><g><g><g><g><circle cx="256" cy="256" fill="#f9f6f9" r="229.355"/></g></g><g><g><circle cx="320.019" cy="256" fill="#ffc250" r="55.902"/><g><path d="m222.686 318.5h-75.128c-15.864 0-28.725-12.86-28.725-28.725v-67.551c0-15.864 12.86-28.725 28.725-28.725h75.128z" fill="#ffd064"/><path d="m316.121 404.188-108.768-85.688v-125l108.768-85.688c8.208-6.466 20.256-.619 20.256 9.829v276.718c0 10.448-12.048 16.295-20.256 9.829z" fill="#fff0af"/></g><g><path d="m207.353 292.5h-88.388c1.373 14.586 13.648 26 28.593 26h75.128v-14.432z" fill="#ffc250"/><path d="m316.121 107.812-34.58 27.242v188.305c0 10.449-12.049 16.295-20.256 9.829l-53.932-40.688v26l108.768 85.688c8.208 6.466 20.256.619 20.256-9.829v-276.718c0-10.448-12.048-16.295-20.256-9.829z" fill="#ffe07d"/></g></g></g></g><g><path d="m15 256c0-133.193 107.787-241 241-241 56.552 0 111.519 19.981 154.776 56.262 3.174 2.661 7.903 2.248 10.565-.927 2.662-3.174 2.247-7.904-.927-10.566-45.953-38.542-104.343-59.769-164.414-59.769-141.487 0-256 114.501-256 256 0 60.04 21.207 118.407 59.714 164.35 2.661 3.175 7.392 3.59 10.565.93 3.175-2.661 3.592-7.391.931-10.566-36.247-43.247-56.21-98.192-56.21-154.714z"/><path d="m446.394 84.865c-2.77-3.08-7.511-3.33-10.592-.561-3.079 2.77-3.331 7.512-.561 10.592 39.826 44.279 61.759 101.494 61.759 161.104 0 133.193-107.787 241-241 241-59.61 0-116.825-21.933-161.104-61.759-3.082-2.771-7.823-2.517-10.592.561-2.771 3.08-2.519 7.822.561 10.592 47.038 42.307 107.815 65.606 171.135 65.606 141.487 0 256-114.501 256-256 0-63.32-23.3-124.097-65.606-171.135z"/></g></g></svg>