<svg xmlns="http://www.w3.org/2000/svg" xmlns:xlink="http://www.w3.org/1999/xlink" viewBox="0 0 48.99 61.31">
  <defs>
    <style>
      .cls-1 {
        isolation: isolate;
      }

      .cls-2 {
        fill: #001d24;
      }

      .cls-3 {
        fill: #307178;
      }

      .cls-4 {
        fill: #a1a1a1;
      }

      .cls-5 {
        fill: #3d3d3d;
      }

      .cls-6 {
        fill: #003948;
      }

      .cls-7 {
        fill: #33616d;
      }

      .cls-8 {
        fill: #797979;
      }

      .cls-9 {
        fill: #00586f;
      }

      .cls-10 {
        fill: #002b36;
      }

      .cls-11 {
        fill: #ffc022;
      }

      .cls-12 {
        fill: #ed7000;
      }

      .cls-13 {
        fill: #ffcf40;
      }

      .cls-14 {
        fill: #d13100;
      }

      .cls-15 {
        fill: #ce4a00;
      }

      .cls-16 {
        opacity: 0.43;
        mix-blend-mode: overlay;
        fill: url(#radial-gradient);
      }

      .cls-17 {
        opacity: 0.19;
        mix-blend-mode: screen;
        fill: url(#radial-gradient-2);
      }
    </style>
    <radialGradient id="radial-gradient" cx="439.24" cy="148.61" r="24.48" gradientTransform="translate(-373.55 -214.18) rotate(12.28)" gradientUnits="userSpaceOnUse">
      <stop offset="0.07" stop-color="#fff"/>
      <stop offset="0.28" stop-color="#fcfcfc"/>
      <stop offset="0.42" stop-color="#f3f3f3"/>
      <stop offset="0.54" stop-color="#e4e4e4"/>
      <stop offset="0.65" stop-color="#cfcfcf"/>
      <stop offset="0.75" stop-color="#b3b3b3"/>
      <stop offset="0.84" stop-color="#919191"/>
      <stop offset="0.93" stop-color="#696969"/>
      <stop offset="1" stop-color="#454545"/>
    </radialGradient>
    <radialGradient id="radial-gradient-2" cx="450.13" cy="145.61" r="10.4" gradientTransform="translate(60.06 -34) rotate(12.28)" xlink:href="#radial-gradient"/>
  </defs>
  <g class="cls-1">
    <g id="레이어_1" data-name="레이어 1">
      <g>
        <g>
          <polygon class="cls-2" points="14.6 52.94 13.75 56.85 14.15 60.6 15.06 56.78 14.6 52.94"/>
          <polygon class="cls-3" points="16.22 52.93 15.54 52.85 15.49 53.05 16.17 53.13 16.22 52.93"/>
          <polygon class="cls-3" points="19.39 53.3 16.44 52.96 16.4 53.16 19.34 53.51 19.39 53.3"/>
          <polygon class="cls-3" points="20.11 56.79 19.92 57.01 15.5 56.57 15.27 56.09 15.01 53.5 15.09 53.15 15.25 53.11 15.32 52.83 15 52.79 14.6 52.94 15.06 56.78 20.29 57.33 20.39 56.88 20.2 55.55 20.05 56.45 20.11 56.79"/>
          <polygon class="cls-3" points="19.61 53.33 19.54 53.66 19.62 53.72 19.94 55.74 20.09 54.82 19.87 53.36 19.61 53.33"/>
          <polygon class="cls-4" points="19.54 53.66 19.52 53.74 19.29 53.71 19.34 53.51 16.4 53.16 16.33 53.46 19.28 53.79 19.78 56.7 18.55 56.59 15.7 56.35 15.7 56.37 15.48 56.3 15.57 55.9 15.28 53.34 15.28 53.34 16.11 53.44 16.17 53.13 15.49 53.05 15.44 53.25 15.24 53.17 15.25 53.11 15.09 53.15 15.01 53.5 15.27 56.09 15.5 56.57 19.92 57.01 20.11 56.79 20.05 56.45 20.02 56.62 19.8 56.6 19.94 55.74 19.62 53.72 19.54 53.66"/>
          <polygon class="cls-2" points="19.78 56.7 19.28 53.79 18.55 56.59 19.78 56.7"/>
          <polygon class="cls-5" points="16.17 53.13 16.11 53.44 15.98 54.04 15.57 55.9 15.48 56.3 15.7 56.37 15.7 56.35 16.16 54.22 16.33 53.46 16.4 53.16 16.44 52.96 16.55 52.46 16.36 52.43 16.35 52.33 16.22 52.93 16.17 53.13"/>
          <polygon class="cls-5" points="20.09 54.82 19.94 55.74 19.8 56.6 20.02 56.62 20.05 56.45 20.2 55.55 20.63 52.91 20.38 53.01 20.09 54.82"/>
          <polygon class="cls-5" points="19.76 52.72 20.32 50.36 20.3 50.34 20.12 50.23 19.54 52.68 19.76 52.72"/>
          <polygon class="cls-5" points="19.34 53.51 19.29 53.71 19.52 53.74 19.54 53.66 19.61 53.33 19.71 52.94 19.49 52.9 19.39 53.3 19.34 53.51"/>
          <polygon class="cls-5" points="15.24 53.17 15.44 53.25 15.49 53.05 15.54 52.85 16.13 50.41 16.06 49.77 15.32 52.83 15.25 53.11 15.24 53.17"/>
          <polygon class="cls-3" points="19.03 48.34 19.14 48.27 18.83 48.21 18.59 48.11 18.73 48.28 19.03 48.34"/>
          <polygon class="cls-6" points="17.96 49.83 18.11 50.04 18.18 49.84 17.96 49.83"/>
          <polygon class="cls-6" points="18.73 48.28 18.59 48.11 18.45 48.05 18.41 48.12 18.05 49.06 17.98 49.27 17.93 49.6 18.26 49.63 18.73 48.28"/>
          <polygon class="cls-6" points="18.92 49.01 19.09 49.02 19.13 49.06 19.2 48.44 19.19 48.29 19.14 48.27 19.03 48.34 18.92 49.01"/>
          <polygon class="cls-7" points="18.18 49.84 18.11 50.04 18.11 50.04 18.17 50.06 18.25 49.85 18.18 49.84"/>
          <polygon class="cls-7" points="18.92 49.01 19.03 48.34 18.73 48.28 18.26 49.63 18.3 49.63 18.34 49.63 18.48 49.24 18.56 49.11 18.78 49 18.92 49.01"/>
          <polygon class="cls-8" points="19.22 50.01 19.44 50.05 19.52 49.84 19.25 49.79 19.22 50.01"/>
          <polygon class="cls-8" points="20.57 52.57 20.76 52.26 20.71 51.22 20.7 51.24 20.5 51.14 20.69 50.77 20.67 50.34 20.43 50.16 20.33 50.1 20.28 50.19 20.08 50.08 20.14 49.97 20.09 49.94 19.75 49.88 19.67 50.09 20 50.15 20.12 50.23 20.3 50.34 20.32 50.36 20.45 50.46 20.56 52.7 20.3 52.8 19.76 52.72 19.54 52.68 18.71 52.56 18.66 52.69 18.45 52.61 18.48 52.53 17.52 52.38 17.5 52.49 17.28 52.46 17.3 52.35 16.56 52.24 16.3 49.83 16.44 49.73 17.67 49.81 17.71 49.59 17.16 49.55 17.16 49.66 16.93 49.65 16.94 49.54 16.38 49.5 16.34 49.53 16.35 49.72 16.13 49.74 16.12 49.67 16.06 49.72 16.06 49.77 16.13 50.41 16.35 52.33 16.36 52.43 16.55 52.46 19.49 52.9 19.71 52.94 20.32 53.03 20.38 53.01 20.63 52.91 20.79 52.85 20.78 52.66 20.76 52.69 20.57 52.57"/>
          <polygon class="cls-8" points="18.25 49.85 18.34 49.63 18.3 49.63 18.26 49.63 17.93 49.6 17.9 49.83 17.96 49.83 18.18 49.84 18.25 49.85"/>
          <polygon class="cls-3" points="18.92 49.01 18.78 49 18.56 49.11 18.81 49.4 19.11 49.46 19.27 49.36 19.27 49.22 19.13 49.06 19.09 49.02 18.92 49.01"/>
          <polygon class="cls-6" points="18.56 49.11 18.48 49.24 18.34 49.63 18.25 49.85 18.17 50.06 18.13 50.18 17.93 50.79 18.19 51.16 18.81 49.4 18.56 49.11"/>
          <polygon class="cls-6" points="19.28 49.56 19.27 49.36 19.11 49.46 18.82 51.24 18.94 51.22 19.16 50.51 19.22 50.01 19.25 49.79 19.28 49.56"/>
          <polygon class="cls-7" points="18.81 49.4 18.19 51.16 18.19 51.16 18.66 51.26 18.82 51.24 19.11 49.46 18.81 49.4"/>
          <polygon class="cls-5" points="16.35 49.72 16.34 49.53 16.15 47.02 16.03 46.97 15.92 46.97 16.12 49.67 16.13 49.74 16.35 49.72"/>
          <polygon class="cls-5" points="17.01 47.45 16.94 49.54 16.93 49.65 17.16 49.66 17.16 49.55 17.23 47.56 17.01 47.45"/>
          <polygon class="cls-5" points="17.93 49.6 17.98 49.27 18.18 47.95 17.96 47.86 17.71 49.59 17.67 49.81 17.3 52.35 17.28 52.46 17.5 52.49 17.52 52.38 17.9 49.83 17.93 49.6"/>
          <polygon class="cls-5" points="20.05 48.47 19.52 49.84 19.44 50.05 18.48 52.53 18.45 52.61 18.66 52.69 18.71 52.56 19.67 50.09 19.75 49.88 20.28 48.52 20.05 48.47"/>
          <polygon class="cls-5" points="20.93 48.51 20.14 49.97 20.08 50.08 20.28 50.19 20.33 50.1 21.19 48.49 20.93 48.51"/>
          <polygon class="cls-5" points="20.69 50.77 20.5 51.14 20.7 51.24 20.71 51.22 22.17 48.4 21.97 48.45 21.89 48.45 20.69 50.77"/>
          <polygon class="cls-5" points="23.3 48.09 20.76 52.26 20.57 52.57 20.76 52.69 20.78 52.66 23.67 47.92 23.3 48.09 23.3 48.09"/>
          <polygon class="cls-9" points="14.15 60.6 14.37 60.7 14.44 60.74 19.23 61.3 19.46 61.17 20.29 57.33 15.06 56.78 14.15 60.6"/>
          <polygon class="cls-10" points="15.57 55.9 15.98 54.04 15.28 53.34 15.57 55.9"/>
          <polygon class="cls-6" points="15.28 53.34 15.98 54.04 16.11 53.44 15.28 53.34 15.28 53.34"/>
          <polygon class="cls-10" points="16.16 54.22 15.7 56.35 18.55 56.59 16.16 54.22"/>
          <polygon class="cls-6" points="19.28 53.79 16.33 53.46 16.16 54.22 18.55 56.59 19.28 53.79"/>
          <path class="cls-11" d="M451.78,228.12l.27.11.14.06.25.1.52-2.32.13-.67,0,0,.65-2.89,1.46-6.42,1.42-6.3,1.52-6.7,1.38-6.11,1-4.34a13.35,13.35,0,0,1-2.48-.81l-1.9,3.07-1.23,2.27-1,1.92-2.42,5.41-.31,1L449.5,211l-.57,2.64-.35,1.6,0,5.61.57,2.3.8,2.1,1,2.52.69.28Z" transform="translate(-433.6 -180.18)"/>
          <path class="cls-12" d="M462.66,194.76l.26,3.21.13,1.71-.15,8.06v0l-.66,5.58-.22,1.9-.78,2.27L460,221.15l0,.07,0,.06h0L458,224.71l-2.17,1.85-.36.3-1.5,1.86.56,0,.26,0,.7,0h.08l1.65-1.48,2.47-1.19,2.18-1.17.21-.18,1.93-1.69,2.19-3,.77-1.07,1-3.6.46-3.7-.05-.83-.28-4.87-.32-2.59-1.05-4.29-.44-1.59-.4-1.43-.8-1.86-.48-1.13a12.2,12.2,0,0,1-2.1,0Z" transform="translate(-433.6 -180.18)"/>
          <path class="cls-12" d="M477.93,210.67l0-.32h0l-.58-4.95-1.57-4.74-3-4.3L471,194.58l-2.75-2.82a7.13,7.13,0,0,1-1.55.72l1,1.32,1.74,2.37,1.32,3,.83,1.88,1.33,3.58.11.65.59,3.37-.15,5.09-.49,1.64-.65,2.18-2.17,3.09-2.82,2.22-.57.34-4.38,2.57,1.93-.46,4.86-2.47,3.09-2.13.2-.14,3.3-3.19,1.92-4.21Z" transform="translate(-433.6 -180.18)"/>
          <path class="cls-11" d="M480.49,205.62l-.17-1.61-1.62-4.43-3-3.67-1.43-1.77-2.08-1.51-2.75-2a4.89,4.89,0,0,1-1.26,1.12l2.75,2.82,1.73,1.78,3,4.3,1.57,4.74.58,4.95h0l0,.32-.31,2.5-1.92,4.21,2.13-1.39,2.2-3,.84-3.84Z" transform="translate(-433.6 -180.18)"/>
          <path class="cls-12" d="M476.67,190.94l-4.18-2.25h0l-2.23-.48a3.3,3.3,0,0,1-.06,1,2.4,2.4,0,0,1-.12.38l1.14.6,4,2.1,1.1.89,1.77,1.42,3.22,4.23.92,4,.05,1.14.3-1-.2-2.76-1-4.39-.38-.53-1-1.43Z" transform="translate(-433.6 -180.18)"/>
          <path class="cls-11" d="M474.71,188.08l-3.34-1.16-1.53-.2a4.17,4.17,0,0,1,.39,1.48l2.23.48h0l4.18,2.25,3.3,2.94,1,1.43,0-.62-1.26-2.23-2-2.36-.25-.16-1.67-1.09Z" transform="translate(-433.6 -180.18)"/>
          <path class="cls-12" d="M468.73,185.12l.65-.09,3.16.46.37.15-.7-.86-2.15-1.19-1.35-.29h0l-1.6.45A8.92,8.92,0,0,1,468.73,185.12Z" transform="translate(-433.6 -180.18)"/>
          <path class="cls-11" d="M467.09,183.76l1.6-.45-.52-.53-1.45-.77-2.18-.28-.17.19-.37.41A12,12,0,0,1,467.09,183.76Z" transform="translate(-433.6 -180.18)"/>
          <path class="cls-12" d="M457.8,182a11.94,11.94,0,0,1,3-.21l-.07-.2-.2-.67-.64-.36-1-.23-2.36-.11-.82.39,1.45,1Z" transform="translate(-433.6 -180.18)"/>
          <path class="cls-11" d="M453.94,181.44l.36.18,1.77.9a8.56,8.56,0,0,1,1.73-.56l-.69-.45-1.44-.94-.23-.16-2.21-.16-2.79.71,2.08.28Z" transform="translate(-433.6 -180.18)"/>
          <path class="cls-12" d="M443.14,184.89l1.79-.47.81-.22,2.91-.31h0l2.9.13,2.19.38a4.57,4.57,0,0,1,.91-1l-1-.3-.73-.16-.21,0-1.44-.31-3-.3h0l-3,.52-1,.47-1.32.61L441,185.21,439.47,187l1.71-1.27Z" transform="translate(-433.6 -180.18)"/>
          <path class="cls-11" d="M436.64,191.33l1.82-1.62h0l.11-.09.06-.05.35-.29.81-.67,2.26-1.29,3.3-.85.45-.13,1.92-.58,1.2,0h0l4.34-.14a.13.13,0,0,0,0-.06,3.78,3.78,0,0,1,.46-1.12l-2.19-.38-2.9-.13h0l-2.91.31-.81.22h0l-1.79.47-2,.8L439.47,187l-2.18,2.46-.08.09-1.29,2-1.16,3.25.79-1.45Z" transform="translate(-433.6 -180.18)"/>
          <polygon class="cls-11" points="5.38 9.1 5.38 9.1 5.38 9.1 5.38 9.1"/>
          <polygon class="cls-12" points="2.38 23.29 2.38 23.29 2.38 23.29 2.38 23.29"/>
          <path class="cls-12" d="M436.42,209.88l-.22-1-.34-1.6-.18-1.24.31-2.59L436,203l1.13-2.63.79-1.41,0,0,.38-.68,2.36-2.79.06-.07,3.32-2.73,2.33-1.39,2-1.08.43-.15.25-.09.36-.13,3.15-1.14,1.17-.36a4.47,4.47,0,0,1-.49-1.41l-2.95.43-1.3.37-1.89.54-2.44.68-.72.37-1.72.89h0l-.39.2-.07,0-.88.45-1.84,1.39h0l-.22.16-2.09,2.63-.14.22-.17.26L435,197.75l-.4,1.41-.21.72-.39,1.33,0,.61v.11l0,.33.36,2.23.25,1,.22.91.66,2,.92,2,1.54,2.71-.8-1.51Z" transform="translate(-433.6 -180.18)"/>
          <polygon class="cls-13" points="20.08 10.02 20.08 10.01 20.08 10.01 20.08 10.02"/>
          <path class="cls-11" d="M441.28,217.73l-1.12-2.41-1-3.44-.39-1.81.07-1.59.23-.81.86-3,1.87-3.2h0l1.54-2.62,1.39-1.49,1.32-1.42,3.61-3.15.21-.14,3.25-2.12.51-.33h0l1-.64a6.17,6.17,0,0,1-.92-1.25l-1.17.36-3.15,1.14-.36.13-.29.1-.39.14-2,1.08-2.08,1.24,0,0-.22.13-3.32,2.73-.06.07-2.36,2.79-.38.68,0,0v0l-.79,1.39L436,203l-.05.49h0l-.31,2.59.18,1.24.34,1.6.22,1,.67,1.75.8,1.51.78,1.58.65,1.09,1.2,2,3.54,3.52-1.71-1.91Z" transform="translate(-433.6 -180.18)"/>
          <path class="cls-14" d="M458.16,203.11l-1.52,6.7-1.42,6.3-1.46,6.42-.65,2.89h0l0,0-.13.67-.52,2.32.3.06h.06l.86.19.22,0,.09,0,1.5-1.86,2.53-2.15,1.95-3.42,0-.07,0-.07,1.24-3.63.78-2.27.22-1.9.64-5.44,0-.17.15-8.06-.13-1.71-.26-3.21-.14-1.81a13.3,13.3,0,0,1-1.94-.27l-.06,0-1,4.34Z" transform="translate(-433.6 -180.18)"/>
          <path class="cls-14" d="M467.27,222.86l2.82-2.22,2.17-3.09.65-2.18.49-1.64.15-5.09-.59-3.37-.11-.65L471.52,201l-.83-1.88-1.32-3-1.74-2.37-1-1.32a9.92,9.92,0,0,1-2.05.44l.48,1.13.8,1.86.4,1.43.44,1.59,1.05,4.29.32,2.59.28,4.87.05.83-.46,3.7-1,3.6-.77,1.07-2.19,3-1.93,1.69-.21.18L459.69,226l-2.47,1.19-1.65,1.48.2-.06,1.13-.3h0l.36-.18,1.47-.69,1-.44,2.4-1.08.19-.11,4.38-2.57Z" transform="translate(-433.6 -180.18)"/>
          <path class="cls-14" d="M482.29,204l-.05-1.14-.92-4-3.22-4.23-1.77-1.42-1.1-.89-4-2.1-1.14-.6a3.68,3.68,0,0,1-.57,1.07l2.75,2,2.08,1.51,1.43,1.77,3,3.67,1.62,4.43.17,1.61.38,3.51L480,213l1.35-2.12.95-3.75.08-.28Z" transform="translate(-433.6 -180.18)"/>
          <path class="cls-14" d="M469.38,185l-.65.09a6.15,6.15,0,0,1,1.11,1.6l1.53.2,3.34,1.16,2.84,1.86,0-.59-1.41-1.6L474,186.09l-.19-.08-.89-.37-.37-.15Z" transform="translate(-433.6 -180.18)"/>
          <path class="cls-14" d="M460.78,181.75a13.31,13.31,0,0,1,2.12.29c.38.08.74.18,1.1.29l.37-.41-.66-.71-2.47-.68-.73.35.22.72Z" transform="translate(-433.6 -180.18)"/>
          <path class="cls-14" d="M448.8,182.31l2.54.26,1.44.31.21,0,.73.16,1,.3a6,6,0,0,1,1.39-.86l-1.77-.9-.36-.18-1.42-.2-2.08-.28-2.1.46-2.1.81-.93.57,3.05-.53Z" transform="translate(-433.6 -180.18)"/>
          <path class="cls-14" d="M434.42,199.88l.09-.4.12-.32.32-1.1.08-.31,1.53-2.35.23-.35,2.09-2.63.11-.08.11-.09,1.84-1.39.95-.49.39-.2h0l1.72-.89.72-.37,2.44-.68,1.89-.54,1.3-.37,2.95-.43a3.61,3.61,0,0,1,0-1.31l-4.34.14h0l-1.2,0-1.92.58-.45.13-3.3.85-2.26,1.29-.81.67h0l-.35.29-.17.14h0l-1.82,1.62-1.09,2-.79,1.45-.32,1.1v0l-.43,1.53-.39,1.78.36,2.59,0-.61Z" transform="translate(-433.6 -180.18)"/>
          <path class="cls-14" d="M448.17,224.78l-.74-.94-2.34-3-1.74-6.41.17-2.82,1.4-4.92.7-1.35.05-.14.29-.52.57-1.1,1.41-2.69,3.77-5.36,1.89-2,2-2.05.77-.62a8.94,8.94,0,0,1-1.63-1.37l-1,.64h0l-.51.33-3.2,2.09-.05,0-.21.14h0l-3.6,3.14-1.32,1.42-1.39,1.49-1.54,2.62-1.87,3.2-.85,3v0l-.23.81-.07,1.59.39,1.81,1,3.44,1.12,2.41,1.07,1.72.22.25,1.49,1.66,2.36,2.73,1.65,1.68,1.56,1.37-.6-.95Z" transform="translate(-433.6 -180.18)"/>
          <path class="cls-12" d="M450.61,227.63l.22.11.05,0-1-2.52-.8-2.1-.57-2.3,0-5.61.35-1.6.57-2.64,1.64-5.46.31-1,2.42-5.41,1-1.92,1.23-2.27,1.9-3.07a11.46,11.46,0,0,1-1.7-.93l-.77.62-2,2.05-1.89,2-3.77,5.36-1.41,2.69-.57,1.1-.34.66-.7,1.35-1.4,4.92-.17,2.82,1.74,6.41,3.08,3.91.86,1.41.6.95h0l.12.06Z" transform="translate(-433.6 -180.18)"/>
          <path class="cls-15" d="M470.23,188.2a4.17,4.17,0,0,0-.39-1.48,6.15,6.15,0,0,0-1.11-1.6,8.92,8.92,0,0,0-1.64-1.36,12,12,0,0,0-3.09-1.43c-.36-.11-.72-.21-1.1-.29a13.31,13.31,0,0,0-2.12-.29h0a11.94,11.94,0,0,0-3,.21h0a8.56,8.56,0,0,0-1.73.56,6,6,0,0,0-1.39.86,4.57,4.57,0,0,0-.91,1h0a3.78,3.78,0,0,0-.46,1.12.13.13,0,0,1,0,.06,3.61,3.61,0,0,0,0,1.31,4.47,4.47,0,0,0,.49,1.41,6.17,6.17,0,0,0,.92,1.25,8.94,8.94,0,0,0,1.63,1.37,11.46,11.46,0,0,0,1.7.93,13.35,13.35,0,0,0,2.48.81l.06,0a13.3,13.3,0,0,0,1.94.27,12.2,12.2,0,0,0,2.1,0,9.92,9.92,0,0,0,2.05-.44,7.13,7.13,0,0,0,1.55-.72,4.89,4.89,0,0,0,1.26-1.12,3.68,3.68,0,0,0,.57-1.07,2.4,2.4,0,0,0,.12-.38A3.3,3.3,0,0,0,470.23,188.2Z" transform="translate(-433.6 -180.18)"/>
        </g>
        <polygon class="cls-16" points="48.66 23.8 48.97 22.81 48.76 20.05 47.77 15.65 47.38 15.12 47.43 14.51 46.16 12.28 44.18 9.92 43.93 9.76 43.88 9.17 42.48 7.57 40.37 5.91 40.17 5.82 39.29 5.46 38.59 4.6 36.43 3.41 35.09 3.12 35.07 3.12 34.54 2.6 33.1 1.82 30.92 1.55 30.75 1.74 30.09 1.02 27.62 0.34 26.88 0.7 26.88 0.7 26.25 0.33 25.23 0.11 22.87 0 22.05 0.38 22.05 0.38 21.82 0.23 19.61 0.07 16.81 0.78 14.71 1.24 12.62 2.05 11.68 2.62 11.68 2.62 10.69 3.08 9.37 3.7 7.42 5.03 5.85 6.78 3.67 9.24 3.59 9.33 2.3 11.37 1.14 14.62 0.82 15.72 0.81 15.74 0.39 17.27 0 19.04 0.35 21.64 0.35 21.7 0.35 21.74 0.32 22.08 0.67 24.3 0.93 25.36 1.15 26.26 1.81 28.23 2.73 30.25 4.27 32.95 5.05 34.54 5.7 35.63 6.89 37.65 10.43 41.18 8.72 39.27 8.95 39.52 10.43 41.18 12.8 43.91 14.44 45.59 16.01 46.96 16.01 46.96 16.13 47.02 16.99 47.45 17.21 47.55 17.26 47.58 17.94 47.85 18.16 47.94 18.43 48.05 18.57 48.1 18.81 48.2 19.12 48.27 19.17 48.28 20.04 48.47 20.26 48.52 20.35 48.54 20.91 48.51 21.17 48.49 21.87 48.45 21.95 48.45 22.15 48.39 23.28 48.09 23.28 48.08 23.65 47.91 25.12 47.22 26.11 46.77 28.51 45.7 28.69 45.59 30.63 45.13 35.49 42.66 38.58 40.53 38.78 40.39 42.08 37.2 44.2 35.81 46.41 32.78 47.75 30.66 48.71 26.92 48.78 26.64 48.66 23.8"/>
        <path class="cls-17" d="M479.07,206.22a10.39,10.39,0,1,1-7.95-12.37A10.38,10.38,0,0,1,479.07,206.22Z" transform="translate(-433.6 -180.18)"/>
      </g>
    </g>
  </g>
</svg>
