<svg id="레이어_1" data-name="레이어 1" xmlns="http://www.w3.org/2000/svg" viewBox="0 0 152.1 128.44">
  <defs>
    <style>
      .cls-1 {
        fill: #aba8cc;
      }

      .cls-2 {
        fill: #cbc6e5;
      }

      .cls-3 {
        fill: #4242ba;
      }

      .cls-4 {
        fill: #7b78ef;
      }

      .cls-5 {
        fill: #6464e2;
      }

      .cls-6 {
        fill: #e3ddf7;
      }

      .cls-7 {
        fill: #eeebfc;
      }

      .cls-8 {
        fill: #f79826;
      }

      .cls-9 {
        fill: #ffb948;
      }

      .cls-10 {
        fill: #ef3c8e;
      }

      .cls-11 {
        fill: #ff5097;
      }
    </style>
  </defs>
  <g>
    <g>
      <path class="cls-1" d="M752.06,245.78c-1.36-1.43-3.94-4-7-7.07-2.18-2.16-1.87-7.94-4.32-10.35-8-7.81-16.09-15.69-16.09-15.69l-25.89,5.82s8.86,9.48,13.83,14.78,8.93,5.73,11.22,5.49,6,2.71,12.15,8.72,17.21,18.18,21,21.53a58.6,58.6,0,0,1,4.66,5.35s3.06-7,3.43-8C767.31,259.63,761.93,256.18,752.06,245.78Z" transform="translate(-672.69 -148.8)"/>
      <path class="cls-2" d="M696.07,224.61s8.86,9.48,13.84,14.79,8.92,5.73,11.22,5.48,6,2.71,12.14,8.72,17.21,18.19,21,21.53,6.19,2.88,8.09-2.69c2.28-6.69-3.09-10.13-13-20.53-1.37-1.43-3.94-4-7-7.08-2.18-2.16-1.88-7.94-4.33-10.34-8-7.81-16.08-15.69-16.08-15.69Z" transform="translate(-672.69 -148.8)"/>
    </g>
    <path class="cls-3" d="M713.63,226.15,706.81,187l-26.66,2.84h0c-2.34.32-4.44,2.14-5.83,5.46-3.17,7.52-1.57,19.91,3.56,27.67,2.62,3.95,5.64,5.93,8.4,5.94h.13a5.69,5.69,0,0,0,1-.12Z" transform="translate(-672.69 -148.8)"/>
    <g>
      <path class="cls-4" d="M728.05,218.92l-6.8-39.11-33.39,3.56h0c-2.93.41-5.55,2.68-7.3,6.84-3.39,8.06-2.4,20.59,2,30.13l34.17-3.86Z" transform="translate(-672.69 -148.8)"/>
      <path class="cls-5" d="M695.54,232.29h0l.15,0a6.21,6.21,0,0,0,1.29-.14l32.79-3.29-1.73-9.93-11.33-2.44-34.17,3.86a34.92,34.92,0,0,0,2.48,4.52C688.3,229.8,692.09,232.28,695.54,232.29Z" transform="translate(-672.69 -148.8)"/>
    </g>
    <path class="cls-6" d="M701.45,231.65c-3.45,0-7.18-2.54-10.45-7.49-6.44-9.72-8.44-25.23-4.47-34.65,1.62-3.85,4-6.08,6.71-6.72l-1.51.17h0c-2.93.41-5.5,2.67-7.25,6.83-4,9.42-2,24.93,4.47,34.65,3.27,4.94,7.06,7.42,10.51,7.44h0Z" transform="translate(-672.69 -148.8)"/>
    <path class="cls-6" d="M723.5,229.37c-3.46,0-7.18-2.54-10.46-7.48-6.43-9.72-8.43-25.24-4.47-34.65,1.62-3.85,4.22-6.19,6.89-6.82l-1.49.18h0c-2.93.41-5.69,2.76-7.44,6.91-4,9.42-2,24.93,4.47,34.65,3.27,5,7.06,7.42,10.51,7.44h0Z" transform="translate(-672.69 -148.8)"/>
    <g>
      <path class="cls-2" d="M746.65,217.08c-11.21-1.52-23.55-1-29.93-.6a32.82,32.82,0,0,0,2.63,4.92c3.42,5.16,7.39,7.62,11,7.41a205.8,205.8,0,0,1,22.27,2.69C766.5,234.27,798,244.1,798,244.1l-2.75-13.6C780.77,224.53,775.74,221,746.65,217.08Z" transform="translate(-672.69 -148.8)"/>
      <path class="cls-6" d="M747,170.82c-9.31,4.26-25.71,9-25.71,9h0c-2.44.67-4.6,2.77-6.13,6.41-3.35,8-2.6,20.64,1.6,30.25,6.38-.43,18.72-.92,29.93.6,29.09,3.95,34.12,7.45,48.62,13.42l-16-79.35A181.13,181.13,0,0,1,747,170.82Z" transform="translate(-672.69 -148.8)"/>
    </g>
    <path class="cls-5" d="M790.52,150l-.18-1.13-4.81.52a12.23,12.23,0,0,0-1.47.16H784c-5.51.94-10.43,5.31-13.74,13.17-7.67,18.21-3.8,48.22,8.65,67,6.61,10,14.32,14.81,21.24,14.38h0l5.87-.61-.17-1c3.75-2,7-5.92,9.47-11.68,7.67-18.22,3.8-48.22-8.65-67C801.62,156.21,796,151.61,790.52,150Z" transform="translate(-672.69 -148.8)"/>
    <ellipse class="cls-4" cx="798.32" cy="196.19" rx="25.32" ry="48.02" transform="translate(-695.38 5.52) rotate(-10.89)"/>
    <g>
      <path class="cls-7" d="M784,156.12a46.2,46.2,0,0,1,7.92,7.74c15.1,18.41,22.26,49.71,16,69.91a34.76,34.76,0,0,1-2.27,5.63c5.39-.53,10.23-4.53,13.42-12.12,7-16.66,3.48-44.11-7.9-61.3C802.51,152.84,791.75,149.52,784,156.12Z" transform="translate(-672.69 -148.8)"/>
      <path class="cls-6" d="M792,163.86a46.2,46.2,0,0,0-7.92-7.74,23.47,23.47,0,0,0-6.13,8.9c-7,16.66-3.47,44.1,7.91,61.3,6.2,9.36,13.43,13.71,19.88,13.08a34.76,34.76,0,0,0,2.27-5.63C814.21,213.57,807.05,182.27,792,163.86Z" transform="translate(-672.69 -148.8)"/>
    </g>
    <path class="cls-6" d="M700.18,190.93,691.05,192c-1.77.18-2.53-1.32-1.68-3.34h0c.86-2,3-3.84,4.78-4l9.13-1.11c1.77-.19,2.53,1.32,1.68,3.34h0C704.1,188.94,702,190.74,700.18,190.93Z" transform="translate(-672.69 -148.8)"/>
    <path class="cls-3" d="M789.87,185.89l-15.54,1.63a74,74,0,0,0,1.48,13.2c1,5,2.39,9.35,2.39,9.35l13.72-1.45c5.79-.6,10.06-6.22,9.5-12.47S795.66,185.28,789.87,185.89Z" transform="translate(-672.69 -148.8)"/>
    <g>
      <path class="cls-8" d="M704,184.35l-1-1.53L701.47,184l-7.3.77a5.62,5.62,0,0,0-3.91,3.3l0,.06-.93.71.82,1.24a1,1,0,0,0,.16.24l0,.05h0a1.45,1.45,0,0,0,1.31.43l8.5-.89a5.6,5.6,0,0,0,3.91-3.29,2.28,2.28,0,0,0,0-2.25Z" transform="translate(-672.69 -148.8)"/>
      <path class="cls-9" d="M699.14,188.42l-8.49.89c-1.45.15-2.07-1.08-1.37-2.74h0a5.6,5.6,0,0,1,3.91-3.29l8.49-.89c1.46-.16,2.08,1.08,1.38,2.74h0A5.62,5.62,0,0,1,699.14,188.42Z" transform="translate(-672.69 -148.8)"/>
    </g>
    <g>
      <path class="cls-8" d="M724.64,235.55a4.2,4.2,0,0,0-3.44-1.88l-7.3.77a1.11,1.11,0,0,0-1,.66h0l0,.07a.17.17,0,0,1,0,.05l-.64,1.56,1.23.21a4.13,4.13,0,0,0,3.23,1.64l4.05-.43,3.59.6.7-1.69h0A1.89,1.89,0,0,0,724.64,235.55Z" transform="translate(-672.69 -148.8)"/>
      <path class="cls-9" d="M723.31,239.47l-7.29.76a4.2,4.2,0,0,1-3.45-1.88h0c-.76-1.15-.46-2.19.67-2.31l7.3-.76a4.17,4.17,0,0,1,3.44,1.88h0C724.75,238.31,724.44,239.35,723.31,239.47Z" transform="translate(-672.69 -148.8)"/>
    </g>
    <path class="cls-5" d="M728.13,236.71c1.67,2.51,5,4.34,7.49,4.08s3.11-2.5,1.45-5-5-4.34-7.48-4.08S726.47,234.2,728.13,236.71Z" transform="translate(-672.69 -148.8)"/>
    <path class="cls-1" d="M727.38,235.4l.7-1.75h0a2.1,2.1,0,0,1,1.8-1.1c2.08-.22,4.9,1.32,6.3,3.44a3.39,3.39,0,0,1,.65,3h0l-.64,1.52a2.29,2.29,0,0,0-1.23-.26c-2.08.22-4.9-1.32-6.31-3.44A5.79,5.79,0,0,0,727.38,235.4Z" transform="translate(-672.69 -148.8)"/>
    <path class="cls-6" d="M728,238.39c1.4,2.11,4.23,3.66,6.3,3.44s2.63-2.12,1.23-4.23-4.23-3.66-6.3-3.45S726.61,236.27,728,238.39Z" transform="translate(-672.69 -148.8)"/>
    <path class="cls-10" d="M741.27,230.84l-1.47,3.52,3.44,6.46,1.47-3.56a1,1,0,0,0,.08-.18h0a6,6,0,0,0,0-3C743.67,229,741.27,230.84,741.27,230.84Z" transform="translate(-672.69 -148.8)"/>
    <path class="cls-11" d="M742.2,242l-2.4-7.64s2.39-1.85,3.49,3.2C744.12,241.35,742.2,242,742.2,242Z" transform="translate(-672.69 -148.8)"/>
  </g>
</svg>
