<svg id="레이어_1" data-name="레이어 1" xmlns="http://www.w3.org/2000/svg" viewBox="0 0 173.75 228.56">
  <defs>
    <style>
      .cls-1 {
        fill: #121214;
      }

      .cls-1, .cls-4 {
        opacity: 0.3;
      }

      .cls-2 {
        fill: #ba6000;
      }

      .cls-3 {
        fill: #ff8400;
      }

      .cls-5 {
        fill: #ffab45;
      }

      .cls-6 {
        fill: #3a8079;
      }

      .cls-7 {
        fill: #52d2c5;
      }

      .cls-8 {
        fill: #59a8a3;
      }

      .cls-9 {
        fill: #ff9d26;
      }

      .cls-10 {
        fill: #fff;
      }

      .cls-11 {
        fill: #ff4d75;
      }

      .cls-12 {
        fill: #ab183a;
      }

      .cls-13 {
        fill: #ff2456;
      }

      .cls-14 {
        fill: #bcbec0;
      }

      .cls-15 {
        fill: #a7a9ac;
      }

      .cls-16 {
        fill: #939598;
      }

      .cls-17 {
        fill: #231f20;
        opacity: 0.15;
      }

      .cls-18 {
        fill: #808285;
      }

      .cls-19 {
        fill: #414042;
      }

      .cls-20 {
        fill: #6f637c;
      }

      .cls-21 {
        fill: #23d2db;
      }

      .cls-22 {
        fill: #58707f;
      }

      .cls-23 {
        fill: #ccc;
      }

      .cls-24 {
        fill: #e6e7e8;
      }
    </style>
  </defs>
  <g>
    <polygon class="cls-1" points="0 183.16 55.34 212.45 173.75 137.88 118.42 108.6 0 183.16"/>
    <polygon class="cls-2" points="10.99 183.66 56.03 207.41 52.82 123.85 7.79 100.1 10.99 183.66"/>
    <g>
      <polygon class="cls-3" points="17.1 163.02 15.92 162.39 16.18 169.16 17.36 169.79 17.72 179.09 33.24 187.27 32.27 162.03 16.75 153.84 17.1 163.02"/>
      <path class="cls-4" d="M467.9,297.93l16.92,8.92,1,26.82-16.91-8.92-.36-9.3-1.18-.63-.32-8.34,1.18.63ZM469,308.26l-1.18-.63.26,6.78,1.18.62.36,9.3,15.52,8.19-1-25.25-15.52-8.18Z" transform="translate(-451.88 -145.24)"/>
    </g>
    <polygon class="cls-5" points="146.12 46.77 116.93 31.38 7.79 100.1 52.82 123.85 146.81 64.67 146.81 64.67 146.12 46.77 146.12 46.77"/>
    <g>
      <polygon class="cls-1" points="54.65 83.48 65.77 89.34 129.19 49.41 118.08 43.55 54.65 83.48"/>
      <polygon class="cls-6" points="109.65 49.98 119.09 54.96 118.31 34.61 108.87 29.63 109.65 49.98"/>
      <polygon class="cls-7" points="56.71 62.48 66.15 67.46 109.48 45.53 125.66 29.98 116.22 25.01 56.71 62.48"/>
      <polygon class="cls-6" points="57.49 82.82 66.93 87.8 66.15 67.46 56.71 62.48 57.49 82.82"/>
      <polygon class="cls-8" points="66.93 87.8 74.27 83.18 73.75 69.61 118.57 41.39 119.09 54.96 126.44 50.33 125.66 29.98 66.15 67.46 66.93 87.8"/>
    </g>
    <polygon class="cls-3" points="52.82 123.85 56.03 207.41 165.18 138.68 162.37 65.33 146.72 62.39 52.82 123.85"/>
    <polygon class="cls-2" points="158.3 105.46 108.34 136.93 108.43 139.24 160.36 106.55 159.3 79.06 157.34 80.29 158.3 105.46"/>
    <polygon class="cls-9" points="108.34 136.93 158.3 105.46 157.34 80.29 107.38 111.75 108.34 136.93"/>
    <polygon class="cls-2" points="153.99 99.17 112.5 125.3 112.56 127.01 155.51 99.97 155.14 90.38 153.69 91.3 153.99 99.17"/>
    <polygon class="cls-10" points="112.5 125.3 153.99 99.17 153.69 91.3 112.19 117.42 112.5 125.3"/>
    <polygon class="cls-8" points="112.38 122.23 153.87 96.12 153.79 94.02 112.3 120.13 112.38 122.23"/>
    <g>
      <polygon class="cls-11" points="120.99 118.36 121.78 118.78 124.12 115.14 124.35 111.23 123.56 110.82 120.99 118.36"/>
      <polygon class="cls-12" points="121.78 118.78 127.37 115.26 124.35 111.23 121.78 118.78"/>
    </g>
    <g>
      <path class="cls-1" d="M508.93,239.85c-5.68-3-14.68-2.65-20.11.77s-5.23,8.62.44,11.61,14.68,2.65,20.11-.77S514.6,242.85,508.93,239.85Z" transform="translate(-451.88 -145.24)"/>
      <path class="cls-6" d="M486.74,246.2c.07,1.8,1.33,3.55,3.76,4.83,4.86,2.56,12.56,2.26,17.21-.66,2.32-1.46,3.44-3.31,3.37-5.1l-.27-7-24.33.93Z" transform="translate(-451.88 -145.24)"/>
      <path class="cls-7" d="M507.06,233.41c-4.86-2.56-12.56-2.27-17.21.66s-4.48,7.37.38,9.93,12.56,2.27,17.21-.66S511.92,236,507.06,233.41Z" transform="translate(-451.88 -145.24)"/>
      <path class="cls-6" d="M500.94,238.29l-15.2-88.66,10.28,89a1.17,1.17,0,0,0,.76,1.13,3.88,3.88,0,0,0,3.54-.14,1.26,1.26,0,0,0,.7-1.05h0v0A.82.82,0,0,0,500.94,238.29Z" transform="translate(-451.88 -145.24)"/>
      <g>
        <path class="cls-7" d="M485.57,145.24a4.39,4.39,0,1,0,4.55,4.22A4.38,4.38,0,0,0,485.57,145.24Z" transform="translate(-451.88 -145.24)"/>
        <path class="cls-10" d="M488.39,146.75c-.49-.45-1.12-.58-1.41-.27s-.11.93.38,1.39,1.13.58,1.41.27S488.89,147.21,488.39,146.75Z" transform="translate(-451.88 -145.24)"/>
      </g>
    </g>
    <polygon class="cls-9" points="90.74 92.08 106.05 100.81 162.37 65.33 146.51 56.97 90.74 92.08"/>
    <polygon class="cls-2" points="91.03 99.79 146.81 64.67 146.12 46.77 90.35 81.89 91.03 99.79"/>
    <g>
      <polygon class="cls-11" points="136.31 61.7 142.6 65.01 153.91 57.89 147.62 54.58 136.31 61.7"/>
      <polygon class="cls-13" points="142.91 73.19 154.22 66.06 153.91 57.89 142.6 65.01 142.91 73.19"/>
      <polygon class="cls-12" points="136.62 69.87 142.91 73.19 142.6 65.01 136.31 61.7 136.62 69.87"/>
    </g>
    <g>
      <polygon class="cls-14" points="124.41 73.93 130.7 77.24 142.01 70.12 135.72 66.81 124.41 73.93"/>
      <polygon class="cls-15" points="130.83 80.79 142.14 73.67 142.01 70.12 130.7 77.24 130.83 80.79"/>
      <polygon class="cls-16" points="124.55 77.48 130.83 80.79 130.7 77.24 124.41 73.93 124.55 77.48"/>
    </g>
    <g>
      <polygon class="cls-14" points="112.16 76.91 118.44 80.22 129.75 73.1 123.47 69.79 112.16 76.91"/>
      <polygon class="cls-15" points="118.76 88.4 130.07 81.28 129.75 73.1 118.44 80.22 118.76 88.4"/>
      <polygon class="cls-16" points="112.47 85.08 118.76 88.4 118.44 80.22 112.16 76.91 112.47 85.08"/>
    </g>
    <g>
      <polygon class="cls-14" points="100.17 84.45 106.45 87.77 117.76 80.65 111.48 77.33 100.17 84.45"/>
      <polygon class="cls-15" points="106.77 95.94 118.08 88.82 117.76 80.65 106.45 87.77 106.77 95.94"/>
      <polygon class="cls-16" points="100.48 92.63 106.77 95.94 106.45 87.77 100.17 84.45 100.48 92.63"/>
    </g>
    <polygon class="cls-3" points="106.31 107.61 105.62 89.71 87.31 101.28 106.31 107.61"/>
    <polygon class="cls-5" points="87.31 101.28 105.62 89.71 89.77 81.35 87.31 101.28"/>
    <g>
      <path class="cls-4" d="M531.88,267.27c-13.14,8.31-23.34,27.61-22.75,43.18s11.77,21.44,24.92,13.14,23.37-27.62,22.77-43.17S545.05,259,531.88,267.27Z" transform="translate(-451.88 -145.24)"/>
      <path class="cls-8" d="M551.05,269.19l-3.18-1.67-.54-.28-.19-.1h0c-4-1.88-9.39-1.24-15.16,2.38-12,7.56-21.25,25.14-20.71,39.31.27,6.87,2.8,11.66,6.71,13.92h0l.18.09.34.18,3.42,1.81.46-.69c3.41.34,7.38-.71,11.57-3.36,12-7.56,21.28-25.15,20.73-39.3-.19-5.05-1.61-9-3.9-11.59Z" transform="translate(-451.88 -145.24)"/>
      <path class="cls-6" d="M535.21,271.23c-12,7.56-21.25,25.14-20.71,39.31s10.71,19.52,22.68,12,21.28-25.15,20.74-39.3S547.2,263.7,535.21,271.23Z" transform="translate(-451.88 -145.24)"/>
      <path class="cls-8" d="M535.36,275.12c-10.16,6.42-18,21.33-17.56,33.35S526.87,325,537,318.61s18-21.33,17.57-33.32S545.54,268.72,535.36,275.12Z" transform="translate(-451.88 -145.24)"/>
      <g>
        <path class="cls-7" d="M535.05,289.08l0,0,0,0h0a3.18,3.18,0,0,0-3.1.46,9.94,9.94,0,0,0-4.2,8,3.28,3.28,0,0,0,1.22,2.7v0l.14.08.16.08,1.92,1,.59-1.19a5.1,5.1,0,0,0,.57-.29,9.93,9.93,0,0,0,4.2-8,5,5,0,0,0-.14-1l.45-.9Z" transform="translate(-451.88 -145.24)"/>
        <path class="cls-6" d="M533.8,290.52a10,10,0,0,0-4.19,8c.11,2.88,2.17,3.94,4.59,2.43a10,10,0,0,0,4.2-8C538.29,290.08,536.23,289,533.8,290.52Z" transform="translate(-451.88 -145.24)"/>
      </g>
    </g>
  </g>
  <g>
    <path class="cls-17" d="M543.13,349.42l-11.94-5.73-35.92,24.37L507,373.8h.12Z" transform="translate(-451.88 -145.24)"/>
    <g>
      <path class="cls-15" d="M541.31,336.79h0L513,355.93l-.09.1,1,13.59,28.37-19.33Zm-8.38,9.1h0Z" transform="translate(-451.88 -145.24)"/>
      <path class="cls-14" d="M541.31,336.79l-9.38-4.5-28.2,19.13,9.19,4.51h.1Z" transform="translate(-451.88 -145.24)"/>
      <path class="cls-18" d="M503.73,351.42h-.09l1,13.69h.1l9.19,4.51-1-13.59v-.1Z" transform="translate(-451.88 -145.24)"/>
    </g>
    <g>
      <path class="cls-18" d="M522,360.73a9.24,9.24,0,0,0,.9-4.49c-.1-1.41-.55-2.32-1.43-2.73a2.59,2.59,0,0,0-2.79.4,2.1,2.1,0,0,1,1.7.15c.88.41,1.33,1.32,1.43,2.73a9,9,0,0,1-.9,4.4,8.45,8.45,0,0,1-2.15,2.89,2.14,2.14,0,0,1-.71.62.29.29,0,0,1-.18.11h0a2.59,2.59,0,0,0,1.19-.56h.09l.8-.62A12.83,12.83,0,0,0,522,360.73Z" transform="translate(-451.88 -145.24)"/>
      <path class="cls-19" d="M518.44,354a8.78,8.78,0,0,0-2.85,3.51,8.64,8.64,0,0,0-.91,4.4,3.29,3.29,0,0,0,1.44,2.82,2.35,2.35,0,0,0,1.79.06h0a.29.29,0,0,0,.18-.11,2.14,2.14,0,0,0,.71-.62,8.45,8.45,0,0,0,2.15-2.89,9,9,0,0,0,.9-4.4c-.1-1.41-.55-2.32-1.43-2.73a2.1,2.1,0,0,0-1.7-.15C518.62,353.91,518.53,354,518.44,354Z" transform="translate(-451.88 -145.24)"/>
      <path class="cls-20" d="M518.13,356.12a5.11,5.11,0,0,0-1.82,2.16,5.53,5.53,0,0,0-.56,2.66,2.09,2.09,0,0,0,.88,1.74,1.9,1.9,0,0,0,1.17.09h0c0-.06,0-.06.05-.12a2.39,2.39,0,0,0,.5-.33,7,7,0,0,0,1.26-1.84,5.39,5.39,0,0,0,.61-2.72,1.81,1.81,0,0,0-.93-1.67,1.17,1.17,0,0,0-1,0C518.18,356.05,518.18,356.05,518.13,356.12Z" transform="translate(-451.88 -145.24)"/>
    </g>
    <g>
      <path class="cls-18" d="M524.14,353.32l.1,1.31,7.09-4.85-.1-1.32Z" transform="translate(-451.88 -145.24)"/>
      <path class="cls-18" d="M531.33,349.78l-7.09,4.85.33,4.6,7.09-4.86Z" transform="translate(-451.88 -145.24)"/>
      <path class="cls-18" d="M524.14,353.32l7.09-4.86-.15-2.06-7.1,4.76Z" transform="translate(-451.88 -145.24)"/>
    </g>
    <g>
      <path class="cls-21" d="M525.11,353.07l.08,1.06,5.7-3.91-.08-1.05Z" transform="translate(-451.88 -145.24)"/>
      <path class="cls-22" d="M530.89,350.22l-5.7,3.91.27,3.69,5.7-3.9Z" transform="translate(-451.88 -145.24)"/>
      <path class="cls-22" d="M525.11,353.07l5.7-3.9-.12-1.66L525,351.34Z" transform="translate(-451.88 -145.24)"/>
    </g>
    <g>
      <path class="cls-18" d="M540,348.48a10,10,0,0,0,.9-4.4,3.13,3.13,0,0,0-1.42-2.73,2.43,2.43,0,0,0-2.8.4,1.89,1.89,0,0,1,1.61.07,3,3,0,0,1,1.51,2.72,8.82,8.82,0,0,1-1,4.41,11.56,11.56,0,0,1-2,3,3.32,3.32,0,0,1-.81.53c-.08.11-.08.11-.08.2h0c.28-.12.73-.34,1.1-.55.09,0,.09,0,.18-.11a5.58,5.58,0,0,0,.7-.62A8.32,8.32,0,0,0,540,348.48Z" transform="translate(-451.88 -145.24)"/>
      <path class="cls-19" d="M536.4,341.86a8.32,8.32,0,0,0-2.94,3.52,9,9,0,0,0-.91,4.31,3.43,3.43,0,0,0,1.43,2.82,3.05,3.05,0,0,0,1.89.14h0c0-.09,0-.09.08-.2a3.32,3.32,0,0,0,.81-.53,11.56,11.56,0,0,0,2-3,8.82,8.82,0,0,0,1-4.41,3,3,0,0,0-1.51-2.72,1.89,1.89,0,0,0-1.61-.07C536.49,341.76,536.49,341.76,536.4,341.86Z" transform="translate(-451.88 -145.24)"/>
      <path class="cls-20" d="M535.93,343.93a5.09,5.09,0,0,0-1.82,2.17,5.73,5.73,0,0,0-.56,2.65,2.12,2.12,0,0,0,.89,1.74,1.9,1.9,0,0,0,1.17.09h0c0-.06,0-.06,0-.12a2.34,2.34,0,0,0,.49-.33,7.16,7.16,0,0,0,1.27-1.83,5.54,5.54,0,0,0,.61-2.72,1.83,1.83,0,0,0-.94-1.68,1.14,1.14,0,0,0-1,0C536,343.86,536,343.86,535.93,343.93Z" transform="translate(-451.88 -145.24)"/>
    </g>
    <g>
      <path class="cls-18" d="M526,340.64l0,.57v.09l1.46.65-.17-2.25Z" transform="translate(-451.88 -145.24)"/>
      <path class="cls-23" d="M527.38,339.7l.17,2.25h0l1.16-.84-.25-3.47L520,343.35h-.09l.26,3.57h.1l1.17-.74-.18-2.35,4.77-3.18Z" transform="translate(-451.88 -145.24)"/>
      <path class="cls-24" d="M528.46,337.64l-1.38-.75-8.53,5.81,1.37.65H520Z" transform="translate(-451.88 -145.24)"/>
      <path class="cls-18" d="M518.55,342.7h0l.26,3.56h0l1.37.66-.26-3.57h0Z" transform="translate(-451.88 -145.24)"/>
    </g>
    <path class="cls-18" d="M533.08,353.14a3.3,3.3,0,0,0-.69.9,1.91,1.91,0,0,0-.2,1,.71.71,0,0,0,.33.63c.29.17.47.06.75-.05a2.42,2.42,0,0,0,.78-.91,5.54,5.54,0,0,0,.21-1.05,1.18,1.18,0,0,0-.34-.73A.94.94,0,0,0,533.08,353.14Z" transform="translate(-451.88 -145.24)"/>
    <path class="cls-21" d="M533.61,353.47a3.69,3.69,0,0,0-.69.9,1.94,1.94,0,0,0-.2,1.05.73.73,0,0,0,.33.64c.29.16.47.06.75-.06a2.39,2.39,0,0,0,.78-.9,5.54,5.54,0,0,0,.21-1.05,1.12,1.12,0,0,0-.34-.73A.93.93,0,0,0,533.61,353.47Z" transform="translate(-451.88 -145.24)"/>
  </g>
</svg>
