<svg xmlns="http://www.w3.org/2000/svg" xmlns:xlink="http://www.w3.org/1999/xlink" viewBox="0 0 47 32.61">
  <defs>
    <style>
      .cls-1 {
        fill: none;
      }

      .cls-2 {
        isolation: isolate;
      }

      .cls-3 {
        fill: #159390;
      }

      .cls-4 {
        fill: url(#linear-gradient);
      }

      .cls-5 {
        fill: url(#linear-gradient-2);
      }

      .cls-6 {
        fill: #fe746b;
      }

      .cls-7 {
        opacity: 0.2;
      }

      .cls-10, .cls-33, .cls-7 {
        mix-blend-mode: multiply;
      }

      .cls-8 {
        fill: url(#linear-gradient-3);
      }

      .cls-9 {
        fill: url(#linear-gradient-4);
      }

      .cls-10 {
        fill: #c71a0f;
        opacity: 0.3;
      }

      .cls-11 {
        fill: url(#linear-gradient-5);
      }

      .cls-12 {
        fill: url(#linear-gradient-6);
      }

      .cls-13 {
        fill: #fe776d;
      }

      .cls-14 {
        fill: #6d6a62;
      }

      .cls-15 {
        clip-path: url(#clip-path);
      }

      .cls-16 {
        fill: #b4b5ae;
      }

      .cls-17 {
        fill: #dfe1db;
      }

      .cls-18 {
        fill: #393d36;
      }

      .cls-19 {
        fill: #8b8c83;
      }

      .cls-20 {
        fill: #edefe8;
      }

      .cls-21 {
        fill: #cdceca;
      }

      .cls-22 {
        fill: #e0b55f;
      }

      .cls-23 {
        fill: #60430f;
      }

      .cls-24 {
        fill: #f4bd98;
      }

      .cls-25 {
        fill: #c64040;
      }

      .cls-26 {
        fill: #363a33;
      }

      .cls-27 {
        fill: #aa2b2b;
      }

      .cls-28 {
        fill: #ffcb4a;
      }

      .cls-29 {
        fill: #e5ab83;
      }

      .cls-30 {
        fill: #281504;
      }

      .cls-31 {
        fill: #332f2c;
      }

      .cls-32, .cls-33 {
        fill: #d9b855;
      }

      .cls-33 {
        opacity: 0.4;
      }

      .cls-34 {
        fill: url(#linear-gradient-7);
      }

      .cls-35 {
        fill: url(#linear-gradient-8);
      }

      .cls-36 {
        fill: url(#linear-gradient-9);
      }

      .cls-37 {
        fill: url(#linear-gradient-10);
      }

      .cls-38 {
        fill: url(#linear-gradient-11);
      }

      .cls-39 {
        fill: url(#linear-gradient-12);
      }

      .cls-40 {
        fill: #564830;
      }
    </style>
    <linearGradient id="linear-gradient" x1="810.85" y1="455.51" x2="843.71" y2="440.31" gradientTransform="translate(168.6)" gradientUnits="userSpaceOnUse">
      <stop offset="0" stop-color="#212420"/>
      <stop offset="1" stop-color="#393d36"/>
    </linearGradient>
    <linearGradient id="linear-gradient-2" x1="810.46" y1="457.16" x2="854.24" y2="432.46" gradientTransform="translate(168.6)" gradientUnits="userSpaceOnUse">
      <stop offset="0" stop-color="#c93c32"/>
      <stop offset="1" stop-color="#eb5d54"/>
    </linearGradient>
    <linearGradient id="linear-gradient-3" x1="809.52" y1="442.23" x2="855.68" y2="442.23" gradientTransform="translate(168.6)" gradientUnits="userSpaceOnUse">
      <stop offset="0" stop-color="#c71a0f"/>
      <stop offset="1" stop-color="#f4655c"/>
    </linearGradient>
    <linearGradient id="linear-gradient-4" x1="831.05" y1="439.98" x2="834.44" y2="445.85" gradientTransform="translate(168.6)" gradientUnits="userSpaceOnUse">
      <stop offset="0" stop-color="#c71a0f"/>
      <stop offset="1" stop-color="#c93c32"/>
    </linearGradient>
    <linearGradient id="linear-gradient-5" x1="837.85" y1="440.92" x2="832.96" y2="440.92" xlink:href="#linear-gradient-2"/>
    <linearGradient id="linear-gradient-6" x1="822.88" y1="447.29" x2="842.05" y2="441.21" xlink:href="#linear-gradient-2"/>
    <clipPath id="clip-path" transform="translate(-977.28 -428.79)">
      <path id="SVGID" class="cls-1" d="M998.57,446.46a6.23,6.23,0,0,1-5.61,0c-1.41-.82-1.54-2.1-.39-3a1.22,1.22,0,0,0,.46-.74l.27-1.56c.26-1.49-1-9.11.23-9.93,3.45-2.23,14.48-5,17.55-2.31,1.38,1.19-.43,10.52-1,10.85l-9.29,5.4-.73.42-1.18.69-.31.18Z"/>
    </clipPath>
    <linearGradient id="linear-gradient-7" x1="1004.89" y1="440.71" x2="1005.09" y2="440.49" gradientUnits="userSpaceOnUse">
      <stop offset="0.29" stop-color="#c3c4bf"/>
      <stop offset="1" stop-color="#dfe1db"/>
    </linearGradient>
    <linearGradient id="linear-gradient-8" x1="1010.12" y1="446.47" x2="1011.4" y2="445.11" gradientUnits="userSpaceOnUse">
      <stop offset="0.41" stop-color="#da3a2f"/>
      <stop offset="0.5" stop-color="#f4655c"/>
    </linearGradient>
    <linearGradient id="linear-gradient-9" x1="1008.89" y1="444.56" x2="1009.27" y2="444.16" gradientUnits="userSpaceOnUse">
      <stop offset="0" stop-color="#c71a0f"/>
      <stop offset="1" stop-color="#d63429"/>
    </linearGradient>
    <linearGradient id="linear-gradient-10" x1="998.14" y1="444.76" x2="998.34" y2="444.53" xlink:href="#linear-gradient-7"/>
    <linearGradient id="linear-gradient-11" x1="1003.37" y1="450.51" x2="1004.65" y2="449.15" xlink:href="#linear-gradient-8"/>
    <linearGradient id="linear-gradient-12" x1="1002.14" y1="448.6" x2="1002.51" y2="448.2" xlink:href="#linear-gradient-9"/>
  </defs>
  <g class="cls-2">
    <g id="레이어_1" data-name="레이어 1">
      <g>
        <path class="cls-3" d="M1022.4,437.14c.4-1,1.16-4.09,1.16-4.09-3.91.91-13.92,4.49-28.87,13.18-12.93,7.52-17.07,14.4-17.41,15.16,2.82-.45,13.12-2.66,26.05-10.17C1014.59,444.68,1019.75,440.13,1022.4,437.14Z" transform="translate(-977.28 -428.79)"/>
        <g id="_5" data-name="5">
          <path class="cls-4" d="M978.57,456.17s1.3,2.39,2.89,2.11c4.76-.83,12.28-3.46,21.11-8.59,13.52-7.86,18.85-13.46,20.7-15.91.55-.72.86-4.28.86-4.28C1023.86,430.14,979.73,456,978.57,456.17Z" transform="translate(-977.28 -428.79)"/>
          <path class="cls-5" d="M1024.28,428.79v.61c-.27.65-4,7.09-21.7,17.34a83.84,83.84,0,0,1-24.34,9.52l-.12-.58a84.7,84.7,0,0,0,24.46-9.55c17.65-10.26,21.43-16.7,21.7-17.34Z" transform="translate(-977.28 -428.79)"/>
          <path class="cls-6" d="M1024.28,428.79c-.27.64-4,7.08-21.7,17.34a84.7,84.7,0,0,1-24.46,9.55c.32-.71,4.21-7.18,16.35-14.23C1012.12,431.19,1023.23,429,1024.28,428.79Z" transform="translate(-977.28 -428.79)"/>
          <g class="cls-7">
            <path class="cls-8" d="M1024.28,428.79c-21.64,11.23-46.16,26.89-46.16,26.89.32-.71,4.21-7.18,16.35-14.23C1012.12,431.19,1023.23,429,1024.28,428.79Z" transform="translate(-977.28 -428.79)"/>
          </g>
          <path class="cls-9" d="M1008.53,437.52c-1.6-.92-3.67-1.59-4.68-1L992.72,443c-1.76,1-1.76,2.69,0,3.71a7.07,7.07,0,0,0,6.41,0l11.12-6.46C1011.29,439.65,1010.13,438.45,1008.53,437.52Z" transform="translate(-977.28 -428.79)"/>
          <path class="cls-10" d="M992.32,446.42l15.75-9.15c-1.52-.78-3.31-1.28-4.22-.75L992.72,443C991.11,443.92,991,445.4,992.32,446.42Z" transform="translate(-977.28 -428.79)"/>
          <g>
            <path class="cls-11" d="M1008.27,437.56c-1.57-.91-3.25-1.37-3.82-1L993,443.21a2,2,0,0,0-1.15,1.61v.61a2,2,0,0,1,1.16-1.61l11.5-6.69c.57-.33,2.25.13,3.82,1,1.24.71,2,1.46,2,1.91v-.61C1010.26,439,1009.51,438.27,1008.27,437.56Z" transform="translate(-977.28 -428.79)"/>
            <path class="cls-12" d="M1010.59,440.07l-11.51,6.68a7.29,7.29,0,0,1-6.62,0,2.3,2.3,0,0,1-1.38-1.93v.61a2.34,2.34,0,0,0,1.38,1.93,7.31,7.31,0,0,0,6.63,0l11.51-6.68a.68.68,0,0,0,.39-.59v-.61A.68.68,0,0,1,1010.59,440.07Z" transform="translate(-977.28 -428.79)"/>
            <path class="cls-13" d="M1008.78,437.26c1.66,1,2.86,2.2,1.81,2.81l-11.51,6.68a7.29,7.29,0,0,1-6.62,0c-1.84-1.06-1.84-2.78,0-3.84l11.5-6.68C1005,435.62,1007.13,436.31,1008.78,437.26Zm-10.21,9.2,11.51-6.69c.56-.33-.23-1.3-1.81-2.21s-3.25-1.37-3.82-1L993,443.21c-1.54.89-1.54,2.35,0,3.25a6.23,6.23,0,0,0,5.61,0Z" transform="translate(-977.28 -428.79)"/>
          </g>
          <path class="cls-14" d="M1023.53,429.32a.08.08,0,0,0-.1,0,97.7,97.7,0,0,0-18,6.75l.3,0,1.26-.59h0a40.72,40.72,0,0,1,4.21.37,7.51,7.51,0,0,1,.93,3.56l0,0c-2.66,1.87-5.88,3.95-9.81,6.24A86.72,86.72,0,0,1,979.15,455c.9-1.33,4.31-5.81,12.15-10.95a2.79,2.79,0,0,1,.33-.46c-8.69,5.61-12.14,10.5-12.79,11.51a.08.08,0,0,0,0,.11.09.09,0,0,0,.08,0h0a86.46,86.46,0,0,0,23.49-9.34c14.7-8.54,19.65-14.33,21.1-16.43A.09.09,0,0,0,1023.53,429.32Zm-5.1,1.58a5.18,5.18,0,0,1,.25.79,23.25,23.25,0,0,0-2.4-.05Zm-4.21,1.5a3.9,3.9,0,0,1,.7,1.11c-1.17-.14-2.23-.23-2.81-.27Zm-6.86,2.9c.93-.43,1.82-.82,2.68-1.19a10.09,10.09,0,0,1,1,1.52C1009.51,435.41,1008,435.33,1007.36,435.3Zm5,4a7.53,7.53,0,0,0-.89-3.42,10,10,0,0,1,3.89,1.2Q1014,438.15,1012.32,439.32Zm3.17-2.35a10.41,10.41,0,0,0-4.18-1.3,10.75,10.75,0,0,0-1.08-1.65l1.45-.61c.26,0,1.7.11,3.33.31a10.18,10.18,0,0,1,.67,3.1Zm.38-.3a10.5,10.5,0,0,0-.62-2.92,23.88,23.88,0,0,1,3.37.63C1017.82,435.09,1016.91,435.85,1015.87,436.67Zm2.93-2.45a23.92,23.92,0,0,0-3.64-.68,4.27,4.27,0,0,0-.73-1.22l1.22-.45h0a23.13,23.13,0,0,1,3.07,0c.11.47.24,1.13.38,2Zm.49-.45c-.12-.8-.24-1.41-.35-1.85a17.35,17.35,0,0,1,2,.29Q1020.21,432.93,1019.29,433.77Zm1.78-1.73a15.13,15.13,0,0,0-2.18-.33,6,6,0,0,0-.26-.87c2.1-.68,3.65-1.09,4.58-1.31A23.25,23.25,0,0,1,1021.07,432Z" transform="translate(-977.28 -428.79)"/>
          <g class="cls-15">
            <g class="cls-2">
              <g class="cls-2">
                <path class="cls-16" d="M1003.67,439.89l-2.15,1.27a2.66,2.66,0,0,0-.74,1.31c0,.16,0,.28.07.32l3.37,2c-.08,0-.12-.16-.07-.32a2.62,2.62,0,0,1,.74-1.31l2.15-1.27Z" transform="translate(-977.28 -428.79)"/>
                <path class="cls-17" d="M1003.67,439.89l-2.15,1.27,3.37,2,2.15-1.27Z" transform="translate(-977.28 -428.79)"/>
                <g>
                  <path class="cls-18" d="M1004.15,444.43c0,.16,0,.28.07.32Z" transform="translate(-977.28 -428.79)"/>
                  <path class="cls-19" d="M1000.78,442.47c0,.16,0,.28.07.32l3.37,2v-.3Z" transform="translate(-977.28 -428.79)"/>
                </g>
              </g>
              <path class="cls-20" d="M1005,435.29a.25.25,0,0,0-.25,0l-.41.25,3.37,2,.41-.25a.25.25,0,0,1,.25,0Z" transform="translate(-977.28 -428.79)"/>
              <polygon class="cls-16" points="29.76 13.06 26.39 11.11 26.75 7.3 30.12 9.26 29.76 13.06"/>
              <g class="cls-2">
                <path class="cls-17" d="M1007.4,438.05l-3.36-2a.71.71,0,0,1,.32-.53l3.37,2a.74.74,0,0,0-.33.53Z" transform="translate(-977.28 -428.79)"/>
              </g>
              <path class="cls-21" d="M1008.14,437.27c.19-.11.34,0,.34.19,0,1.3-.24,4.9-.26,5.09l-3.78,2.18c-.21.12-.37,0-.29-.3a2.62,2.62,0,0,1,.74-1.31l2.15-1.27.36-3.8a.74.74,0,0,1,.33-.53Z" transform="translate(-977.28 -428.79)"/>
            </g>
            <g>
              <g>
                <path class="cls-22" d="M1001.4,446.18a.39.39,0,0,0,0,.11c0,.09,0,.26-.12.32s-.34.14-.55.27a2.48,2.48,0,0,1-.56.29,1.67,1.67,0,0,1-.63,0c-.23-.05-.47-.2-.45-.4s0-.21.07-.22.72-.08,1-.17.58-.18.85-.29S1001.47,446,1001.4,446.18Z" transform="translate(-977.28 -428.79)"/>
                <path class="cls-23" d="M1001.25,446.43c.25-.16.17-.53.19-.83a1.6,1.6,0,0,1,.11-.47l-1-.26-.06.31a2.13,2.13,0,0,1-.26.73c-.15.23-1.33.41-1.08.83a.41.41,0,0,0,.12.11,1.1,1.1,0,0,0,1,.06c.25-.1.46-.29.72-.37A.92.92,0,0,0,1001.25,446.43Z" transform="translate(-977.28 -428.79)"/>
              </g>
              <g>
                <path class="cls-22" d="M1003.1,447v.1c0,.09,0,.27-.11.32s-.35.14-.56.27a2.13,2.13,0,0,1-.56.29,1.62,1.62,0,0,1-.62,0c-.24,0-.47-.2-.45-.4s0-.21.06-.22.73-.08,1-.17.57-.18.84-.29S1003.17,446.8,1003.1,447Z" transform="translate(-977.28 -428.79)"/>
                <path class="cls-23" d="M1003,447.29c.24-.17.16-.54.18-.83a1.79,1.79,0,0,1,.11-.47l-1-.27c0,.11,0,.21-.07.31a2,2,0,0,1-.25.73c-.15.23-1.34.42-1.08.84a.31.31,0,0,0,.12.1,1.09,1.09,0,0,0,1,.07,6,6,0,0,1,.71-.38A1.06,1.06,0,0,0,1003,447.29Z" transform="translate(-977.28 -428.79)"/>
              </g>
              <g>
                <g>
                  <path class="cls-24" d="M1001.54,437.32c-.06.09-.21.1-.31.09s-.27-.11-.31.15c-.09.74,1.11.41,1.49.38l1.09-.11c.14,0,.53,0,.64-.13a10.79,10.79,0,0,0,.55-2.78c0-.19,0-.7-.14-.85s-.18,0-.31,0c-.4.12-.46.38-.54.75s-.22,2-.25,2.2-.82.2-.91.22-.43.1-.62-.07-.36-.29-.43-.14.09.16.07.24Z" transform="translate(-977.28 -428.79)"/>
                  <path class="cls-25" d="M1004.46,434.08c-.11-.61-.67-.3-.82.11a7.27,7.27,0,0,0-.28,1.74c.19.32.75.3,1,.22A4.58,4.58,0,0,0,1004.46,434.08Z" transform="translate(-977.28 -428.79)"/>
                  <g>
                    <path class="cls-26" d="M1005.32,440.39a2.13,2.13,0,0,1-1.47-.87c-.06-.12-.11-.28-.17-.37a2.62,2.62,0,0,1-.11.69c-.59.54-1.58.85-2.91,2a.83.83,0,0,0-.3.6v3.14c0,.39,1,.56,1.2.08l.24-2.66a.08.08,0,0,1,0-.07l1.51-1c-.45.37-1,.85-1.21,1.06a.4.4,0,0,0-.16.32c0,.71,0,3.15,0,3.15,0,.36,1,.49,1.16.11l.31-2.13a.5.5,0,0,1,.26-.41c.79-.4,3.14-1.66,3.19-2.22s.06-1,.06-1.06A16,16,0,0,1,1005.32,440.39Z" transform="translate(-977.28 -428.79)"/>
                    <path class="cls-27" d="M1004.26,433.75a10.2,10.2,0,0,1,2.68,1.47c0,.14,0,3.82.08,5.55a.25.25,0,0,1-.14.18,2.26,2.26,0,0,1-2-.22c-.07,0-.87-.52-.9-.55-.21-.15-.29-.16-.39-.43C1004.21,436.33,1003.71,433.57,1004.26,433.75Z" transform="translate(-977.28 -428.79)"/>
                    <path class="cls-28" d="M1004.31,435.72c0,.18-.15,2.3-.21,2.62,0,.14,0,.33-.23.27a.87.87,0,0,1-.36-.3,2,2,0,0,1,0-.84c0-.39.09-.78.1-1.17a12.55,12.55,0,0,1,.33-2.57c.19-.44.74-.15.81-.07s0,.17,0,.3a4.52,4.52,0,0,0-.3,1A4.43,4.43,0,0,0,1004.31,435.72Z" transform="translate(-977.28 -428.79)"/>
                    <path class="cls-24" d="M1005.05,439.77a3.54,3.54,0,0,0-.59,0c-.05,0-.16,0-.2.12s.3.06.36.09c.26.13-.26.15-.36.13s-.2-.1-.25,0,0,.19,0,.25a.88.88,0,0,0,.23.41.79.79,0,0,0,.67,0c.17-.11.25-.31.44-.42a22.16,22.16,0,0,0,2.34-1.12,10.29,10.29,0,0,0-.24-2.82c-.05-.18-.18-.68-.36-.78s-.18,0-.3.1c-.34.23-.33.49-.31.87s.35,2,.36,2.19A18.13,18.13,0,0,1,1005.05,439.77Z" transform="translate(-977.28 -428.79)"/>
                    <g>
                      <path class="cls-29" d="M1005.94,433.29s-1.14,0-1.15.13a1.86,1.86,0,0,0,0,.34,2,2,0,0,1-.12.54l.18.05c0,.13.05.41.05.41l.2-.26s.48.27.62.22.21-.06.24-.18,0-.06,0-.1,0-.24,0-.34A3.64,3.64,0,0,1,1005.94,433.29Z" transform="translate(-977.28 -428.79)"/>
                      <path class="cls-25" d="M1005.05,434.5s.13.44.19.75c.57-.26.85-.46.91-.59s-.11-.34-.14-.48l-.09,0c0,.22-.28.33-.43.36A.94.94,0,0,1,1005.05,434.5Z" transform="translate(-977.28 -428.79)"/>
                      <path class="cls-25" d="M1004.71,434s0,.17,0,.2a.19.19,0,0,0,.13.19,4.32,4.32,0,0,0-.46.35,5,5,0,0,1,.29-.7C1004.68,433.9,1004.71,434,1004.71,434Z" transform="translate(-977.28 -428.79)"/>
                    </g>
                    <g>
                      <path class="cls-24" d="M1004.5,433.87c.07.19.23.44.42.43.35,0,.93-.07,1-.32a2,2,0,0,0,.11-1.41,1.44,1.44,0,0,0-.41-.6,1.72,1.72,0,0,0-.46-.25c-.46-.19-.84-.18-.86.29a4.29,4.29,0,0,0,0,.71A3.27,3.27,0,0,0,1004.5,433.87Z" transform="translate(-977.28 -428.79)"/>
                      <path class="cls-30" d="M1005.18,431.21a1,1,0,0,0-.56,0,.6.6,0,0,0-.43.53,1.53,1.53,0,0,0,.11.6s0-.37.08-.37a1.93,1.93,0,0,1,1.19.74c.09.14,0,.46.06.52s.23-.06.36,0,.11.17.1.25a2.15,2.15,0,0,1-.08.33c.16,0,.26-.26.31-.39a2.45,2.45,0,0,0,.13-.55c.08-.54-.06-1.37-.72-1.5a1,1,0,0,1-.44-.12Z" transform="translate(-977.28 -428.79)"/>
                    </g>
                  </g>
                  <path class="cls-25" d="M1007.72,437a5.69,5.69,0,0,0-.44-1.45c-.15-.31-.53-.54-.76-.14a3.89,3.89,0,0,0-.07,1.89C1006.73,437.46,1007.62,437.29,1007.72,437Z" transform="translate(-977.28 -428.79)"/>
                </g>
                <g>
                  <path class="cls-28" d="M1007.3,435.51a.37.37,0,0,0,0-.44,1.59,1.59,0,0,0-1-.75c-.12,0-.34.17-.55.43a3.73,3.73,0,0,0-.57,1.45,18.36,18.36,0,0,0-.22,2.73c.06.24.64.36,1.13.3l.71-.42a3.23,3.23,0,0,0-.13-1.3s-.23-.15-.25-.74a2.83,2.83,0,0,1,.19-.83A.85.85,0,0,1,1007.3,435.51Z" transform="translate(-977.28 -428.79)"/>
                  <path class="cls-31" d="M1004,437.81a3,3,0,0,0,1.17.42v-.37a2.36,2.36,0,0,1-1.17-.41Z" transform="translate(-977.28 -428.79)"/>
                  <path class="cls-31" d="M1004,436.94a3,3,0,0,0,1.18.43V437a2.19,2.19,0,0,1-1.16-.4Z" transform="translate(-977.28 -428.79)"/>
                </g>
              </g>
            </g>
            <g class="cls-2">
              <g class="cls-2">
                <path class="cls-16" d="M997.27,443.59c-.1.05-1.93,1.12-2.15,1.26a2.59,2.59,0,0,0-.74,1.31.27.27,0,0,0,.07.33l3.37,2a.27.27,0,0,1-.07-.33,2.59,2.59,0,0,1,.74-1.31c.22-.14,2-1.21,2.15-1.26Z" transform="translate(-977.28 -428.79)"/>
                <path class="cls-17" d="M997.27,443.59l-2.15,1.26,3.37,2,2.15-1.26Z" transform="translate(-977.28 -428.79)"/>
                <g>
                  <path class="cls-18" d="M997.75,448.12a.27.27,0,0,0,.07.33Z" transform="translate(-977.28 -428.79)"/>
                  <path class="cls-19" d="M994.38,446.16a.27.27,0,0,0,.07.33l3.37,2v-.3Z" transform="translate(-977.28 -428.79)"/>
                </g>
              </g>
              <path class="cls-20" d="M998.61,439a.24.24,0,0,0-.24,0l-.41.25,3.37,1.95.41-.24a.24.24,0,0,1,.24,0Z" transform="translate(-977.28 -428.79)"/>
              <polygon class="cls-16" points="23.35 16.76 19.98 14.8 20.35 11 23.72 12.96 23.35 16.76"/>
              <g class="cls-2">
                <path class="cls-17" d="M1001,441.74l-3.37-2a.74.74,0,0,1,.33-.52l3.37,1.95a.75.75,0,0,0-.33.53Z" transform="translate(-977.28 -428.79)"/>
              </g>
              <path class="cls-21" d="M1001.74,441c.19-.11.34,0,.34.19,0,1.29-.25,4.9-.26,5.09L998,448.43c-.22.12-.37,0-.29-.31a2.59,2.59,0,0,1,.74-1.31c.22-.14,2-1.21,2.15-1.26l.36-3.81a.75.75,0,0,1,.33-.53Z" transform="translate(-977.28 -428.79)"/>
            </g>
            <g>
              <g>
                <path class="cls-22" d="M995.54,450.18v.09c0,.08,0,.23-.1.28s-.3.12-.48.23a2.3,2.3,0,0,1-.49.26,1.45,1.45,0,0,1-.55,0c-.2,0-.4-.17-.39-.35s0-.18.06-.19.63-.07.87-.15.49-.15.73-.25S995.6,450,995.54,450.18Z" transform="translate(-977.28 -428.79)"/>
                <path class="cls-23" d="M995.42,450.39c.21-.14.14-.46.15-.72a1.45,1.45,0,0,1,.1-.41c.05-.25-.76-.46-.85-.23l-.06.27a1.63,1.63,0,0,1-.22.64c-.13.2-1.16.36-.94.72a.52.52,0,0,0,.11.1.94.94,0,0,0,.82.05c.22-.09.4-.26.63-.33A.67.67,0,0,0,995.42,450.39Z" transform="translate(-977.28 -428.79)"/>
              </g>
              <g>
                <path class="cls-22" d="M997.08,450.6a.81.81,0,0,0,0,.09c0,.07,0,.23,0,.29s-.27.18-.43.33a2,2,0,0,1-.42.35,1.42,1.42,0,0,1-.53.13c-.21,0-.43-.09-.46-.26s0-.19,0-.2.6-.2.82-.33.45-.25.67-.39S997.1,450.38,997.08,450.6Z" transform="translate(-977.28 -428.79)"/>
                <path class="cls-23" d="M997,450.84c.18-.19,0-.49,0-.74a1.55,1.55,0,0,1,0-.43c0-.28-.85-.28-.88,0v.27a1.87,1.87,0,0,1-.08.67c-.09.22-1.07.59-.77.91a.23.23,0,0,0,.12.06,1,1,0,0,0,.82-.11,4.6,4.6,0,0,1,.54-.45A1.28,1.28,0,0,0,997,450.84Z" transform="translate(-977.28 -428.79)"/>
              </g>
              <g>
                <path class="cls-24" d="M994.91,449.09c0,.23.57.3.64.07a10.87,10.87,0,0,1,.22-1.75,2.36,2.36,0,0,0,.11-.59v-.19l-1.14-.09v.07A8.78,8.78,0,0,1,994.91,449.09Z" transform="translate(-977.28 -428.79)"/>
                <path class="cls-24" d="M996.24,449.61c0,.25.69.23.69,0a5.75,5.75,0,0,1,.21-1.57,2.71,2.71,0,0,0,.16-.75.43.43,0,0,1,.2-.36,8.44,8.44,0,0,0-1.4-.27,3.41,3.41,0,0,0,.07.58A20,20,0,0,1,996.24,449.61Z" transform="translate(-977.28 -428.79)"/>
                <path class="cls-32" d="M1000.14,444.17a.81.81,0,0,0-.27-.16,4.37,4.37,0,0,1-.46-.18,2.91,2.91,0,0,0-1.08-.23,6.28,6.28,0,0,0-1,.24c-.16.05-2.1,1.09-2.3,1.26s-.37,1.43-.37,1.43c0,.29.59.47,1.36.35V447c0,.19,1.14.58,1.48.29l.17-.6c.64-.34,2.08-1.09,2.49-1.32a.23.23,0,0,0,.13-.21,3.45,3.45,0,0,0,0-.7C1000.28,444.29,1000.28,444.32,1000.14,444.17Z" transform="translate(-977.28 -428.79)"/>
                <path class="cls-24" d="M998.17,440.1c0-.15-.14-.21-.28-.25s-.43-.15-.54.08-.38,1.56-.44,1.57a7.27,7.27,0,0,1-1.8-.11c-.05,0-.31-.33-.35-.2s.12.2.11.22-.38-.11-.42-.12a.39.39,0,0,0-.3,0,.23.23,0,0,0,0,.32c.06.14.23.32.67.38a1.75,1.75,0,0,0,.51,0l.14,0c.89.06,1.74.18,1.79.16a2.44,2.44,0,0,0,.69-1A2.48,2.48,0,0,0,998.17,440.1Z" transform="translate(-977.28 -428.79)"/>
                <g>
                  <path class="cls-27" d="M1001.11,440.56a3.2,3.2,0,0,0-1.42-1.62,11.26,11.26,0,0,0-1-.54,2.9,2.9,0,0,0-.57-.18c-.69-.13-1.06,1.7-1.19,2.38a1.59,1.59,0,0,0,.65.37s-.2,2-.41,2.9c0,.14.4.45,1,.69.86.33,1.93.27,2.17-.09,0,0,0-2.88,0-2.88a1.75,1.75,0,0,0,.08.5.8.8,0,0,0,.94-.27A10.67,10.67,0,0,0,1001.11,440.56Z" transform="translate(-977.28 -428.79)"/>
                  <path class="cls-29" d="M999.9,439.13a9.31,9.31,0,0,0-1.52-.79.79.79,0,0,0,.35,1A1,1,0,0,0,999.9,439.13Z" transform="translate(-977.28 -428.79)"/>
                  <path class="cls-28" d="M998.05,440.34c0,.19-.24,2.3-.31,2.61,0,.14,0,.34-.24.27a1,1,0,0,1-.35-.32,2.11,2.11,0,0,1,0-.83c0-.4.13-.78.15-1.18a19.77,19.77,0,0,1,.29-2.1,1.81,1.81,0,0,1,.14-.45.69.69,0,0,1,.51-.26c.12,0,.23.14.3.22s0,.18,0,.3a4.22,4.22,0,0,0-.34,1A4.57,4.57,0,0,0,998.05,440.34Z" transform="translate(-977.28 -428.79)"/>
                  <path class="cls-29" d="M998.61,437.8c.08,0,.68.21.89.3,0,.06,0,.51,0,.61,0,.28.24.31.39.41l-.2.16c-.17,0-.31.06-.48,0a.6.6,0,0,1-.21-.08c-.3-.15-.41-.18-.41-.48A3.3,3.3,0,0,0,998.61,437.8Z" transform="translate(-977.28 -428.79)"/>
                  <path class="cls-24" d="M1000,437.47a1.43,1.43,0,0,1,0,.29.8.8,0,0,1-.32.56,1.48,1.48,0,0,1-.85.28c-.33-.1-.53-1-.53-1.45a1.41,1.41,0,0,1,.25-.77c.19-.29.6-.24.94,0A1.3,1.3,0,0,1,1000,437.47Z" transform="translate(-977.28 -428.79)"/>
                </g>
                <g>
                  <path class="cls-28" d="M1000.07,439c-.13,0-.35.16-.57.4a3.73,3.73,0,0,0-.63,1.44,17.05,17.05,0,0,0-.32,2.71c.08.37,1.36.51,1.72.14s.28-1.34,0-1.49c0,0-.23-.16-.22-.75a2.65,2.65,0,0,1,.22-.82.85.85,0,0,1,.74-.4.36.36,0,0,0,0-.44A1.59,1.59,0,0,0,1000.07,439Z" transform="translate(-977.28 -428.79)"/>
                  <path class="cls-31" d="M997.64,442.42a3.12,3.12,0,0,0,1.16.47l0-.38a2.33,2.33,0,0,1-1.15-.44Z" transform="translate(-977.28 -428.79)"/>
                  <path class="cls-31" d="M997.71,441.55a3.14,3.14,0,0,0,1.16.48v-.38a2.22,2.22,0,0,1-1.14-.45Z" transform="translate(-977.28 -428.79)"/>
                </g>
              </g>
              <path class="cls-33" d="M996.09,445.69a4.71,4.71,0,0,0-.34,1.22l.25,0V447s0-.11,0-.16a7,7,0,0,1,.24-1c.3-.3,1-.69,1.32-1C997.59,444.86,996.31,445.54,996.09,445.69Z" transform="translate(-977.28 -428.79)"/>
              <path class="cls-24" d="M1000.53,442.15a11.26,11.26,0,0,1,.05,1.22,6.15,6.15,0,0,1-.91,1,3.73,3.73,0,0,1-.71.31c-.11.05-.33.18-.32.29s.15,0,.19,0l0,0c.07,0-.1.14-.15.17s-.31,0-.34.08a.28.28,0,0,0,0,.33c.13.23.58.2.71.12a2.41,2.41,0,0,0,.55-.64c.16-.17,1.17-1,1.47-1.32a.23.23,0,0,0,.07-.14,13.68,13.68,0,0,0,0-1.51A1,1,0,0,1,1000.53,442.15Z" transform="translate(-977.28 -428.79)"/>
            </g>
          </g>
          <g>
            <g>
              <path class="cls-34" d="M1009.53,444.58l-8.87-8.18a.16.16,0,0,0-.22,0,.15.15,0,0,0,0,.21l8.87,8.19a.21.21,0,0,0,.1,0,.18.18,0,0,0,.12-.05A.17.17,0,0,0,1009.53,444.58Z" transform="translate(-977.28 -428.79)"/>
              <path class="cls-35" d="M1009,444c-.11-.05-.36.22-.28.29l.31.33a1,1,0,0,1,.32.8c.09.78,1,1.54,1.51,2.06.71.68,1.15.41,1.87,0a.59.59,0,0,0,.13-1,14.49,14.49,0,0,0-2.54-1.78c-.27-.11-.42.07-.66,0A3.67,3.67,0,0,1,1009,444Z" transform="translate(-977.28 -428.79)"/>
              <path class="cls-36" d="M1008.7,444.3l.31.33a1.09,1.09,0,0,1,.15.18.56.56,0,0,1,.33-.31c-.18-.14-.37-.36-.51-.49S1008.62,444.23,1008.7,444.3Z" transform="translate(-977.28 -428.79)"/>
            </g>
            <path class="cls-24" d="M1005.68,439.45c-.3.16-.56.3-.63.32a3.54,3.54,0,0,0-.59,0c-.05,0-.16,0-.2.12s.3.06.36.09c.26.13-.26.15-.36.13s-.2-.1-.25,0,0,.19,0,.25a.88.88,0,0,0,.23.41.79.79,0,0,0,.67,0c.17-.11.25-.31.44-.42l.69-.31C1005.93,439.82,1005.8,439.63,1005.68,439.45Z" transform="translate(-977.28 -428.79)"/>
          </g>
          <g>
            <g>
              <path class="cls-37" d="M1002.78,448.63l-8.87-8.19a.16.16,0,0,0-.22,0,.15.15,0,0,0,0,.21l8.87,8.19a.14.14,0,0,0,.1,0,.16.16,0,0,0,.11-.05A.14.14,0,0,0,1002.78,448.63Z" transform="translate(-977.28 -428.79)"/>
              <path class="cls-38" d="M1002.22,448.05c-.1-.05-.35.22-.27.29l.31.34a1,1,0,0,1,.32.79c.09.78,1,1.54,1.51,2.07.71.68,1.14.4,1.86,0,.46-.28.52-.63.14-1a14.51,14.51,0,0,0-2.54-1.79c-.27-.1-.42.07-.66-.05A4.11,4.11,0,0,1,1002.22,448.05Z" transform="translate(-977.28 -428.79)"/>
              <path class="cls-39" d="M1002,448.34l.31.34.15.17a.56.56,0,0,1,.33-.31c-.18-.14-.37-.35-.52-.49S1001.87,448.27,1002,448.34Z" transform="translate(-977.28 -428.79)"/>
            </g>
            <path class="cls-24" d="M999.93,444.1l-.26.24a3.73,3.73,0,0,1-.71.31c-.11.05-.33.18-.32.29s.15,0,.19,0l0,0c.07,0-.1.14-.15.17s-.31,0-.34.08a.28.28,0,0,0,0,.33c.13.23.58.2.71.12a2.41,2.41,0,0,0,.55-.64l.61-.54Z" transform="translate(-977.28 -428.79)"/>
          </g>
          <path class="cls-40" d="M999.74,435.34a1.77,1.77,0,0,0-.88-.07,1.19,1.19,0,0,0-.83,1.28c0,.29.06,1.25-.31,1.66,0,0,.53.1.7-.1,0,0-.33-1.48.17-1.69.32-.14.7.2.81.49a3.12,3.12,0,0,1-.42,1.88,1.48,1.48,0,0,0,1.27-.58,3,3,0,0,0,.42-1.26A1.56,1.56,0,0,0,999.74,435.34Z" transform="translate(-977.28 -428.79)"/>
        </g>
      </g>
    </g>
  </g>
</svg>
