<svg id="레이어_1" data-name="레이어 1" xmlns="http://www.w3.org/2000/svg" viewBox="0 0 222.83 152.61">
  <defs>
    <style>
      .cls-1 {
        opacity: 0.2;
      }

      .cls-2 {
        fill: #ffd2b3;
      }

      .cls-3 {
        fill: #353436;
      }

      .cls-4 {
        fill: #fff;
      }

      .cls-5 {
        fill: #58595b;
      }

      .cls-6 {
        fill: #231f20;
      }

      .cls-7 {
        opacity: 0.15;
      }

      .cls-8 {
        fill: #414042;
      }

      .cls-9 {
        fill: #f2c7aa;
      }

      .cls-10 {
        fill: #e33939;
      }

      .cls-11 {
        opacity: 0.1;
      }

      .cls-12 {
        fill: #d57c4f;
      }

      .cls-13 {
        fill: #3a393b;
      }

      .cls-14 {
        fill: #ff2d26;
      }
    </style>
  </defs>
  <g>
    <path class="cls-1" d="M920.7,342.35c-11,.83-29.39,7-41.72,8.81-2.7.39-10.31,3.2-7.22,7.3,5.13,6.81,20.52,5.1,22.58,5.38C916.8,367,924.29,377,938.42,376s21.5-2.76,28.41-10c12.62-13.13,22,9.6,32.52,9.4,32.1-.6,34.42-17.6,48.54-18.23,7-.32,21.52-3.81,23.65-4.33,5.47-1.34,8-4.19,5.68-9.32s-7.88-8.47-13.52-9.71-11.43-.75-17.12-.35c-18.2,1.26-34.26,1.9-47.82,5.62-7.65,2.1-13.74,5.26-26.91,5.51C962.59,344.83,927.79,341.81,920.7,342.35Z" transform="translate(-871.03 -223.49)"/>
    <g>
      <g>
        <path class="cls-2" d="M976.48,265.48c1.85.84,5.13,5,6.59,7.06,2,2.84-1.55,10.12-6.32,7s-6.39-3.87-8.07-5.59S970.3,262.66,976.48,265.48Z" transform="translate(-871.03 -223.49)"/>
        <path class="cls-3" d="M935.38,245.06s16.35,3.64,19.31,4.51,18.61,13.48,20.76,14.9c2.86,1.9-4.46,12.44-7.74,9.73-6.36-5.24-15.15-11.16-16.47-11.6s-14.39-1.38-18-1.29C923.3,261.58,924.32,244.49,935.38,245.06Z" transform="translate(-871.03 -223.49)"/>
      </g>
      <g>
        <g>
          <path class="cls-4" d="M1051.06,249.13s-22.35,13.27-23.6,13.83-21.27,3.89-23.67,4.48c-3.82.95-3.57,12.16,3.33,11.25,5.68-.75,19.92-2.63,22.09-3.63s15.84-6.58,24.63-10.86S1056.35,246.41,1051.06,249.13Z" transform="translate(-871.03 -223.49)"/>
          <g>
            <path class="cls-2" d="M1002.41,269c-.95.35-4.74,1.64-5.88,2.27s-4.34,5.58-4.6,7.15,7.1,6.05,8,4.86,2.45-5,3.19-5.1a6.33,6.33,0,0,0,2.22-.45C1007.77,276.84,1005.8,267.76,1002.41,269Z" transform="translate(-871.03 -223.49)"/>
            <g>
              <path class="cls-5" d="M1002.83,277.25s0,0,0-.05v0h0v0l0-.06s0,0,0-.06h0V277s0,0,0-.06v-.07a.64.64,0,0,0,0-.07v-.05h0v-.07a.2.2,0,0,0,0-.07h0v-.16h0v-.14h0V276h0v-.07s0-.06,0-.09v0s0-.09,0-.13h0a.44.44,0,0,1,0-.1.14.14,0,0,1,0-.07h0a.19.19,0,0,1,0-.07l0-.07h0v0l0,0,0-.07v0h0v0a.43.43,0,0,0,0-.07V275l0-.06,0,0h0l0-.05,0-.05v0l0,0,0-.05,0,0h0s0,0,0,0l0,0h0l0,0,0,0,0,0h0l0,0h0l-.06,0h-.06l-.07,0h-.2l-32.91,3.15h.21a.16.16,0,0,1,.09,0h0l.08,0h0l.09.06h0l.09.07h0l.09.09h0l.09.11.08.12h0a.83.83,0,0,1,.07.13h0l.06.13v0a.78.78,0,0,1,.05.14h0c0,.05,0,.1,0,.16h0l0,.16h0a.8.8,0,0,1,0,.15.34.34,0,0,1,0,.1.19.19,0,0,1,0,.08v0a.62.62,0,0,0,0,.13h0v.17h0c0,.06,0,.11,0,.16h0c0,.05,0,.11,0,.16h0c0,.05,0,.1,0,.15h0l0,.15h0c0,.05,0,.1,0,.14v0l-.06.13a1.34,1.34,0,0,1-.06.12h0l-.06.1v0l-.07.08,0,0-.07.06h0l-.09.06a.34.34,0,0,1-.12.06h0l-.13,0,32.9-3.15.13,0h0l.12-.06h0l.08-.06h0l0-.05,0,0h0v0a.1.1,0,0,0,0-.05l0,0h0v0l0,0,0,0h0l0-.06,0-.05h0Z" transform="translate(-871.03 -223.49)"/>
              <path class="cls-6" d="M969.67,278a2.79,2.79,0,0,1,.23,2.51.77.77,0,0,1-1.46.13,2.81,2.81,0,0,1-.23-2.52A.78.78,0,0,1,969.67,278Z" transform="translate(-871.03 -223.49)"/>
            </g>
            <path class="cls-7" d="M1003,269.65c-2.4-.67-6.61,1.34-7.16,2.23a10.08,10.08,0,0,0,0,4.7,10.32,10.32,0,0,0,2.46,2.34c1.17.78,3.36-.5,2.46-1.67a19.62,19.62,0,0,1-1.51-2c-.21-.44.16-1.32.16-1.32a3.56,3.56,0,0,0,4.29-1.79C1004.6,270.39,1003.8,269.87,1003,269.65Z" transform="translate(-871.03 -223.49)"/>
            <path class="cls-2" d="M1003.36,268.93c-2.41-.68-6.76,1.11-7.32,2-.37.62-.23,4.56.12,5.28a10.15,10.15,0,0,0,2.35,2.3c.85.59,2.48-.29,1.82-1.24-.53-.77-1.22-1.46-1.42-1.9a6.28,6.28,0,0,1,.21-2.18s3,1.78,4.46-.8C1004.57,270.65,1004.13,269.15,1003.36,268.93Z" transform="translate(-871.03 -223.49)"/>
            <path class="cls-2" d="M993.15,276.8" transform="translate(-871.03 -223.49)"/>
          </g>
        </g>
        <g>
          <g>
            <path class="cls-6" d="M1071.24,322.63a1.78,1.78,0,0,1,1.43-1.51c1.81-.34,4.48-.92,5.79-.52,1.68.52,3.42,3.78,3.27,4.93a17.39,17.39,0,0,1-.82,3l-1.62,1.16a1.84,1.84,0,0,1,1,2,35.88,35.88,0,0,1-4.26,9c-2,2.87-6.22.72-5.88-2.35.22-2,.23-5.15.22-7.14,0-.8,0-1.41,0-1.67a1.41,1.41,0,0,1,0-.29Z" transform="translate(-871.03 -223.49)"/>
            <path class="cls-3" d="M1035.06,300.05s.94,31.68,4.2,35.91c3.54,4.57,25.62-.67,33-2.06,6.85-1.29,5.21-13.12.16-13,0,0-18.31,3.26-19.26,1.62s1.06-8.17,1.59-15.16C1055.86,293.17,1036.77,282.64,1035.06,300.05Z" transform="translate(-871.03 -223.49)"/>
          </g>
          <path class="cls-8" d="M1035.43,296.41c-1,4.57,0,12.86,0,12.86s9.34,12.62,11.8,16.09c1.8,2.54,9.41,1.27,12.3-2.54,2.38-3.13,3.69-8.22,3.69-8.22s-11.74-17.56-13.47-18.67S1036.42,291.83,1035.43,296.41Z" transform="translate(-871.03 -223.49)"/>
          <g>
            <path class="cls-6" d="M1000.54,358a13.27,13.27,0,0,1-3.6,1.69,30.88,30.88,0,0,0-6.67,2.22c-.78.48-2.46,2.27-1.66,3.45,1.17,1.75,4.35,3.87,8.89,4.24,3.42.29,6,.25,6,.25l2.68-1.25.73,1.32,2.58-.29s2.28-3.87,3.21-5.52,2-4.38-3-6.71C1004,354.81,1000.54,358,1000.54,358Z" transform="translate(-871.03 -223.49)"/>
            <path class="cls-8" d="M1043.8,310.47c-6,7-39.5,42.88-43.62,47.06-2.43,2.47,8.88,11.43,12,8.33,35-35,39.57-34,47.22-42.77C1065.27,316.36,1053.2,299.61,1043.8,310.47Z" transform="translate(-871.03 -223.49)"/>
          </g>
          <g>
            <path class="cls-4" d="M1052.82,248.65c3.18-.41,5.4-.05,8,3.68,1.46,2.08,4.9,7.2,6.68,10,2.86,4.57,5,8.79,5.57,12.88.77,5.58-8.52,21-9.72,39.07-.13,2-7.68,4.39-13.73,1.56-6-2.27-14.9-17.33-14.22-19.57,3.45-11.45,4.07-16.5,7-26.92C1045.57,258.27,1046.36,249.49,1052.82,248.65Z" transform="translate(-871.03 -223.49)"/>
            <g>
              <path class="cls-9" d="M1070.09,258.62c-.64,1.28-1.58,4.37-1.26,5.74s-8.08,2.84-12.36-1.86c-1.45-1.58,2.35-6.94,6.78-7.59,0,0,4.07-1,5.49.51C1068.74,255.42,1070.78,257.25,1070.09,258.62Z" transform="translate(-871.03 -223.49)"/>
              <g>
                <path class="cls-10" d="M1056.47,262.5l1.83,1.29-2.79,1.13s-11.32,11.61,3,31.87l-1.6,5.1-4.83-2.21s-11.85-16.65,1.72-35.48l2.32-3.59Z" transform="translate(-871.03 -223.49)"/>
                <g>
                  <path class="cls-11" d="M1067.67,264.16s-4,2.15-11.2-1.66c0,0-.17,1.68-.93,5.39,0,0,9.38,2.82,13.13-1.2A25.49,25.49,0,0,1,1067.67,264.16Z" transform="translate(-871.03 -223.49)"/>
                  <path class="cls-4" d="M1068.75,263.31s-5.08,3-12.28-.81a32,32,0,0,1-.52,4.83s10,2.52,13.8-1.5A26.13,26.13,0,0,1,1068.75,263.31Z" transform="translate(-871.03 -223.49)"/>
                </g>
                <g>
                  <path class="cls-11" d="M1056.47,262.5s-2.31.43-5.44,1.1a11.11,11.11,0,0,1,9.53-8.4l2.83.13S1057.54,257.19,1056.47,262.5Z" transform="translate(-871.03 -223.49)"/>
                  <path class="cls-4" d="M1056.47,262.5a11.87,11.87,0,0,0-4.69.17,13.31,13.31,0,0,1,9.53-8.39l2.08,1.05S1057.54,257.19,1056.47,262.5Z" transform="translate(-871.03 -223.49)"/>
                </g>
              </g>
              <g>
                <path class="cls-2" d="M1061.57,233.91a4.7,4.7,0,0,0-3.35,3.29l-3,13.19c-.9,5.07-.64,9.35,3.88,10.61,0,0,12.07,2.73,16.93-6.34l2.63-4.8c5.06-10.24-.38-15.64-6.59-17C1067.15,231.82,1061.57,233.91,1061.57,233.91Z" transform="translate(-871.03 -223.49)"/>
                <path class="cls-12" d="M1075,231c-2-.88-12.39-2.55-15.81,3.92-.63,1.17-2.45,1.15-3.46,1a.49.49,0,0,0-.53.61A23.71,23.71,0,0,0,1067,250.72a2.64,2.64,0,0,1,1.15,3.05l-1.07,3a.12.12,0,0,0,.21.12l1.28-1.46a3,3,0,0,1,1.06-.81c.67-.3,2.37-.86,2.82.57.62,2-3.48,4.68-4.88,5.53a.1.1,0,0,0,.07.18c2-.42,9.21-2.48,13.53-11.1C1087.28,237.53,1077.77,232.28,1075,231Z" transform="translate(-871.03 -223.49)"/>
              </g>
            </g>
            <path class="cls-4" d="M1067.1,252.11s-2.84,2-1.26,2.75S1067.1,252.11,1067.1,252.11Z" transform="translate(-871.03 -223.49)"/>
            <path class="cls-4" d="M1084.24,242.22s1.94,2.9,2.71,1.35S1084.24,242.22,1084.24,242.22Z" transform="translate(-871.03 -223.49)"/>
            <path class="cls-4" d="M1084.45,240.79s3.38-.86,2.17-2.11S1084.45,240.79,1084.45,240.79Z" transform="translate(-871.03 -223.49)"/>
          </g>
        </g>
        <g>
          <path class="cls-2" d="M1090.88,303.73c.4,1.46,1.73,4.86,1.61,6.2s-2.17,2.92-2.79,3.4a8.07,8.07,0,0,1-4.57.58,10.67,10.67,0,0,1-3.78-3.26,7.24,7.24,0,0,1,.3-3.8c.32-.62,1.21-1.79,2-2.86S1090.47,302.28,1090.88,303.73Z" transform="translate(-871.03 -223.49)"/>
          <path class="cls-4" d="M1071.54,269.92c7,4.36,20.49,12.34,21.69,13.82,1.42,1.77.14,15.9-.69,21.34-.43,2.8-10.73,1.91-10.67-1.23.11-6.42.54-12.05.54-12.05s-11.33-3.57-15.83-5.32C1062.61,284.92,1064.87,265.78,1071.54,269.92Z" transform="translate(-871.03 -223.49)"/>
        </g>
        <path class="cls-7" d="M1092.16,310.85a10.42,10.42,0,0,1-2.46,2.48,8,8,0,0,1-4.58.57,10.6,10.6,0,0,1-3.77-3.25,7.23,7.23,0,0,1,.3-3.8,15.84,15.84,0,0,1,1-1.57,1.76,1.76,0,0,1-.82-1.43c.11-6.42.54-12.05.54-12.05s-11.33-3.57-15.83-5.33c0,0,16.77,2.83,17.09,4.62s1.28,14.37,1,15.14-2,2.66-1.59,3.46a8.24,8.24,0,0,0,2.58,2.12C1088.05,313.13,1091.8,311.06,1092.16,310.85Z" transform="translate(-871.03 -223.49)"/>
      </g>
      <path class="cls-2" d="M970,275.1l3.76,6a1.21,1.21,0,0,0,1.74.2h0a1.23,1.23,0,0,0,.26-1.59s-1-1.65-2.15-3.85S970,275.1,970,275.1Z" transform="translate(-871.03 -223.49)"/>
      <g>
        <g>
          <g>
            <path class="cls-6" d="M945.73,361.69c-2,2.36-3.23,3.78-1.54,6.91,2.5,4.63,11.34-2.24,14.22-4.66a9.75,9.75,0,0,0,1.79-2,3.49,3.49,0,0,0,.37-.71,2.7,2.7,0,0,0,.91.29s3.65-3.43,3.13-4.79c-.35-.92-3.27-4.68-5.3-7.34a2.9,2.9,0,0,0-4-.59L952,351.19c-1.2.88-2.39,2.54-1.63,3.83A46.52,46.52,0,0,1,945.73,361.69Z" transform="translate(-871.03 -223.49)"/>
            <g>
              <path class="cls-6" d="M885.51,348.25a5.88,5.88,0,0,1-2,1.76c-1.65,1-10.86,2.31-8.85,6.16,1.8,3.43,7,3.49,12,3a18.79,18.79,0,0,0,4.53-1.31s.5.74.67.71l2.37-.4a.85.85,0,0,0,.67-.51l3-7.2.33-1.06c.45-1.43-.74-3.95-3.27-5.21-3-1.5-5.92-.3-6.7.58A30.86,30.86,0,0,0,885.51,348.25Z" transform="translate(-871.03 -223.49)"/>
              <path class="cls-8" d="M874.68,354.18a2,2,0,0,0-.25,1.06,2.4,2.4,0,0,0,.28.93c1.8,3.43,7,3.49,12,3a18.64,18.64,0,0,0,4.52-1.31s.5.74.67.71l.24-.6c-.16,0-.67-.71-.67-.71a18.64,18.64,0,0,1-4.52,1.31c-4.95.53-10.18.47-12-3A2.24,2.24,0,0,1,874.68,354.18Z" transform="translate(-871.03 -223.49)"/>
              <path class="cls-8" d="M892.13,357.93l2.37-.4a.86.86,0,0,0,.67-.51l-.25.6a.85.85,0,0,1-.67.51l-2.37.4Z" transform="translate(-871.03 -223.49)"/>
            </g>
            <path class="cls-3" d="M933,291.74c-5.91,5.71-26.14,21.85-28.46,25.15s-14.25,22.79-19.14,30c-2.82,4.16,9.08,12.16,12.29,7.48,5.81-8.46,17.17-27.46,19.22-29.1s25.33-15.95,31.85-21.83S942.24,282.81,933,291.74Z" transform="translate(-871.03 -223.49)"/>
            <path class="cls-13" d="M938.55,301.63s-4.09,30.76-3.71,33.7,12.69,21.5,15.31,25.2,15.22-3.82,10.64-10.51-8.15-13.11-8.35-15.3,6.1-18,8-24.66C964.08,297.08,940.41,287.17,938.55,301.63Z" transform="translate(-871.03 -223.49)"/>
          </g>
          <g>
            <path class="cls-8" d="M931.23,244.93c9.28-2.5,20.1,9.12,25.21,16.59,6.37,9.32,5.41,41.63,5.17,46.63s-13.79,4-15.47,3.73c-2.65-.43-10.56-12.47-14.83-18.73-.79-1.15,1.83-4.85.19-19.46C930.31,263.08,919.59,248.07,931.23,244.93Z" transform="translate(-871.03 -223.49)"/>
            <path class="cls-9" d="M932.76,253.33c-.41,2.07,1.46,6.83,7.16,5.55,4.37-1,7.36-3.82,5.13-6.75-1.21-1.58-3.93-7.06-7.1-6.6C933.78,246.15,933.56,249.2,932.76,253.33Z" transform="translate(-871.03 -223.49)"/>
            <path class="cls-14" d="M934.48,257.79l-1.7-1.53-.71,4.44s-5.27,11.48-8.84,37.09l2.83,4.91,4.12-2.94c-.23-17.06,3.61-38,3.61-38l3-3.26Z" transform="translate(-871.03 -223.49)"/>
            <path class="cls-7" d="M934.48,257.79s0,4.67.06,5.63c0,0,16-3.68,10.46-11.2l-1.32-1.57S945.91,257.53,934.48,257.79Z" transform="translate(-871.03 -223.49)"/>
            <path class="cls-5" d="M934.48,257.79s.45,3.87.46,4.83c0,0,15.73-3.57,10.24-11.09L943.86,250S945.91,257.53,934.48,257.79Z" transform="translate(-871.03 -223.49)"/>
            <path class="cls-7" d="M934.48,257.79l-3.39,3s-2-6.51,2.09-9.82C933.18,251,932.1,255.18,934.48,257.79Z" transform="translate(-871.03 -223.49)"/>
            <path class="cls-5" d="M934.48,257.79l-3.21,2.32s-2-6.51,2.09-9.81C933.36,250.3,932.1,255.18,934.48,257.79Z" transform="translate(-871.03 -223.49)"/>
            <g>
              <path class="cls-2" d="M952.52,232.43a4.83,4.83,0,0,1,1.53,4.58l-3.4,13.5c-1.54,5.07-3.78,8.87-8.5,7.92,0,0-12.35-3.13-12.58-13.71l-.17-5.62c.12-11.76,7.63-14.18,14-12.51C948.37,227.91,952.52,232.43,952.52,232.43Z" transform="translate(-871.03 -223.49)"/>
              <path class="cls-8" d="M941.53,223.54c14.36,1.37,13.45,15.05,13.21,15.32-1.91,2.1-5.23,6.17-15,6.49a2.68,2.68,0,0,0-2.47,2.25l-.44,3.27a.13.13,0,0,1-.25,0l-.49-1.94a3.19,3.19,0,0,0-.59-1.23c-.48-.59-1.78-1.89-2.86-.79-1.49,1.53,1,5.91,1.9,7.35a.1.1,0,0,1-.15.13c-1.63-1.32-6.78-6.41-6.72-16.32C927.76,223.93,938.42,223.24,941.53,223.54Z" transform="translate(-871.03 -223.49)"/>
            </g>
          </g>
        </g>
        <g>
          <path class="cls-1" d="M957,275.23s-11.32,11.94-13.66,13.91c-1.65,1.39-9.75,4.21-18.63,7.22l-1.29.44c.85-6.05,1.81-11.28,2.77-15.75,2.09-.82,3.92-1.58,5.22-2.16-.53,4.79-1,10.12-1.13,15.36l1.12-1-.05-.08c-.69-1,1.23-4,.62-14.52a11.7,11.7,0,0,0,1.48-.77c.94-.75,9.34-10.17,11.28-13.27C947.24,260.55,957,275.23,957,275.23Z" transform="translate(-871.03 -223.49)"/>
          <g>
            <path class="cls-8" d="M957.16,275s-12,11.53-14.37,13.51-21.43,8-23.79,9c-3.15,1.32-7.85-10.55-3.79-11.78,7.85-2.37,17.59-6.38,18.68-7.23s9.09-11.16,11-14.17C950.15,255.91,963.75,266.19,957.16,275Z" transform="translate(-871.03 -223.49)"/>
            <path class="cls-2" d="M917.6,297.8c-1.72,1.06-7,1.48-9.48,1.56-3.47.11-7.53-6.86-2.3-9.09s6.72-3.15,9.07-3.6S923.34,294.23,917.6,297.8Z" transform="translate(-871.03 -223.49)"/>
            <path class="cls-2" d="M914.33,286.81s-5.14-.94-6.05-.92-2.21,2,.28,2.73,3.89,1.23,4.86,1.52S916.33,287.17,914.33,286.81Z" transform="translate(-871.03 -223.49)"/>
          </g>
        </g>
      </g>
    </g>
  </g>
</svg>
