<svg xmlns="http://www.w3.org/2000/svg" xmlns:xlink="http://www.w3.org/1999/xlink" viewBox="0 0 71.68 55.76">
  <defs>
    <style>
      .cls-1 {
        fill: url(#New_Gradient_Swatch_4);
      }

      .cls-2 {
        isolation: isolate;
      }

      .cls-3 {
        fill: #ab938a;
        opacity: 0.5;
        mix-blend-mode: multiply;
      }

      .cls-4 {
        fill: #262626;
      }

      .cls-5 {
        fill: #aab3b5;
      }

      .cls-6 {
        fill: #dfe3e5;
      }

      .cls-7 {
        fill: #212223;
      }

      .cls-8 {
        fill: #161515;
      }

      .cls-9 {
        fill: #2b2b2b;
      }

      .cls-10 {
        fill: #ecf0f1;
      }

      .cls-11, .cls-16, .cls-18, .cls-34, .cls-37 {
        mix-blend-mode: overlay;
      }

      .cls-11 {
        fill: url(#radial-gradient);
      }

      .cls-12 {
        fill: #a2a7ab;
      }

      .cls-13 {
        fill: #7b7f82;
      }

      .cls-14 {
        fill: #6e7173;
      }

      .cls-15 {
        fill: #a1a6a9;
      }

      .cls-17 {
        fill: url(#New_Gradient_Swatch_2);
      }

      .cls-18 {
        fill: url(#radial-gradient-2);
      }

      .cls-19 {
        fill: url(#New_Gradient_Swatch_2-2);
      }

      .cls-20 {
        fill: #f2f2f4;
      }

      .cls-21, .cls-24, .cls-25, .cls-26, .cls-30, .cls-39, .cls-41 {
        mix-blend-mode: screen;
      }

      .cls-21 {
        fill: url(#New_Gradient_Swatch_2-3);
      }

      .cls-22 {
        fill: #88a1a8;
      }

      .cls-23 {
        fill: #5e787a;
      }

      .cls-24 {
        fill: url(#New_Gradient_Swatch_2-4);
      }

      .cls-25 {
        fill: url(#New_Gradient_Swatch_2-5);
      }

      .cls-26 {
        fill: url(#New_Gradient_Swatch_2-6);
      }

      .cls-27 {
        fill: #c3ced1;
      }

      .cls-28 {
        fill: url(#New_Gradient_Swatch_4-2);
      }

      .cls-29 {
        fill: #364649;
      }

      .cls-30 {
        fill: url(#New_Gradient_Swatch_2-7);
      }

      .cls-31 {
        fill: url(#New_Gradient_Swatch_4-3);
      }

      .cls-32 {
        fill: #bdc3c7;
      }

      .cls-33 {
        fill: #fff;
      }

      .cls-34 {
        fill: url(#New_Gradient_Swatch_2-8);
      }

      .cls-35 {
        fill: #ffa800;
      }

      .cls-36 {
        clip-path: url(#clip-path);
      }

      .cls-37 {
        fill: url(#New_Gradient_Swatch_2-9);
      }

      .cls-38 {
        fill: #939899;
      }

      .cls-39 {
        fill: url(#New_Gradient_Swatch_2-10);
      }

      .cls-40 {
        fill: #b31d14;
      }

      .cls-41 {
        fill: url(#New_Gradient_Swatch_2-11);
      }

      .cls-42 {
        fill: url(#New_Gradient_Swatch_4-5);
      }

      .cls-43 {
        fill: url(#New_Gradient_Swatch_4-6);
      }

      .cls-44 {
        fill: url(#New_Gradient_Swatch_4-7);
      }

      .cls-45 {
        fill: url(#New_Gradient_Swatch_4-8);
      }

      .cls-46 {
        fill: #fba400;
      }
    </style>
    <linearGradient id="New_Gradient_Swatch_4" data-name="New Gradient Swatch 4" x1="4217.66" y1="243.35" x2="4222" y2="243.35" gradientTransform="matrix(-1, 0, 0, 1, 5308.67, 0)" gradientUnits="userSpaceOnUse">
      <stop offset="0" stop-color="#ecf0f1"/>
      <stop offset="0.24" stop-color="#c9cdce"/>
      <stop offset="0.78" stop-color="#727577"/>
      <stop offset="1" stop-color="#4d5052"/>
    </linearGradient>
    <radialGradient id="radial-gradient" cx="-3419.41" cy="742.06" r="6.55" gradientTransform="matrix(1, 0, 0, -1, 4483.55, 997.63)" gradientUnits="userSpaceOnUse">
      <stop offset="0" stop-color="#fff"/>
      <stop offset="0.08" stop-color="#d0d0d0"/>
      <stop offset="0.17" stop-color="#a0a0a0"/>
      <stop offset="0.26" stop-color="#757575"/>
      <stop offset="0.36" stop-color="#515151"/>
      <stop offset="0.46" stop-color="#333"/>
      <stop offset="0.57" stop-color="#1d1d1d"/>
      <stop offset="0.69" stop-color="#0d0d0d"/>
      <stop offset="0.82" stop-color="#030303"/>
      <stop offset="1"/>
    </radialGradient>
    <linearGradient id="New_Gradient_Swatch_2" data-name="New Gradient Swatch 2" x1="4247.41" y1="258.37" x2="4244.01" y2="253.28" gradientTransform="matrix(-1, 0, 0, 1, 5308.67, 0)" gradientUnits="userSpaceOnUse">
      <stop offset="0"/>
      <stop offset="1" stop-color="#fff"/>
    </linearGradient>
    <radialGradient id="radial-gradient-2" cx="-3452.68" cy="761.24" r="6.55" xlink:href="#radial-gradient"/>
    <linearGradient id="New_Gradient_Swatch_2-2" x1="4280.68" y1="239.19" x2="4277.27" y2="234.1" xlink:href="#New_Gradient_Swatch_2"/>
    <linearGradient id="New_Gradient_Swatch_2-3" x1="4227.83" y1="240.75" x2="4225.24" y2="234.54" xlink:href="#New_Gradient_Swatch_2"/>
    <linearGradient id="New_Gradient_Swatch_2-4" x1="4241.16" y1="230.83" x2="4231.66" y2="221.69" xlink:href="#New_Gradient_Swatch_2"/>
    <linearGradient id="New_Gradient_Swatch_2-5" x1="4244.57" y1="254.23" x2="4242.02" y2="250.21" xlink:href="#New_Gradient_Swatch_2"/>
    <linearGradient id="New_Gradient_Swatch_2-6" x1="4277.24" y1="234.58" x2="4275.2" y2="231.65" xlink:href="#New_Gradient_Swatch_2"/>
    <linearGradient id="New_Gradient_Swatch_4-2" x1="4261.61" y1="221.3" x2="4263.48" y2="225.93" xlink:href="#New_Gradient_Swatch_4"/>
    <linearGradient id="New_Gradient_Swatch_2-7" x1="4265.13" y1="225.74" x2="4262.07" y2="220.73" xlink:href="#New_Gradient_Swatch_2"/>
    <linearGradient id="New_Gradient_Swatch_4-3" x1="4230.89" y1="251.45" x2="4236.93" y2="251.45" xlink:href="#New_Gradient_Swatch_4"/>
    <linearGradient id="New_Gradient_Swatch_2-8" x1="4234.1" y1="252.35" x2="4233.01" y2="249.78" xlink:href="#New_Gradient_Swatch_2"/>
    <clipPath id="clip-path" transform="translate(-1024.02 -205.84)">
      <path id="SVGID" class="cls-1" d="M1087.31,245.11l.21.17a1.22,1.22,0,0,0,1.12.24c.59-.27,1.52-.71,2.38-1.19a5.61,5.61,0,0,1-.28-.71c-.11-.48-.22-1-.35-1.44-.08-.31-.16-.62-.25-.92,0,0,0-.09-.05-.13l-2.47,1.46C1086.42,243.46,1086.42,244.42,1087.31,245.11Z"/>
    </clipPath>
    <linearGradient id="New_Gradient_Swatch_2-9" x1="4128.44" y1="-321.83" x2="4127.14" y2="-324.86" gradientTransform="matrix(-0.99, 0.15, 0.15, 0.99, 5217.9, -57.42)" xlink:href="#New_Gradient_Swatch_2"/>
    <linearGradient id="New_Gradient_Swatch_2-10" x1="4262.69" y1="236.87" x2="4265.05" y2="239.73" xlink:href="#New_Gradient_Swatch_2"/>
    <linearGradient id="New_Gradient_Swatch_2-11" x1="4226.79" y1="245.03" x2="4226.33" y2="243.78" xlink:href="#New_Gradient_Swatch_2"/>
    <linearGradient id="New_Gradient_Swatch_4-5" x1="4263.92" y1="236.4" x2="4263.24" y2="234.51" xlink:href="#New_Gradient_Swatch_4"/>
    <linearGradient id="New_Gradient_Swatch_4-6" x1="4261.66" y1="234.32" x2="4264.65" y2="234.32" xlink:href="#New_Gradient_Swatch_4"/>
    <linearGradient id="New_Gradient_Swatch_4-7" x1="4274.47" y1="230.09" x2="4273.85" y2="228.17" xlink:href="#New_Gradient_Swatch_4"/>
    <linearGradient id="New_Gradient_Swatch_4-8" x1="4272.22" y1="227.79" x2="4275.21" y2="227.79" xlink:href="#New_Gradient_Swatch_4"/>
  </defs>
  <g class="cls-2">
    <g id="레이어_1" data-name="레이어 1">
      <g>
        <path class="cls-3" d="M1029.24,238.37l36.39,21.2c6,3.46,15.3,2.14,21.29-1.32l4.07-2.36c6-3.46,6.42-7.76.42-11.22L1055,223.47c-6-3.46-15.72-3.46-21.71,0l-4.07,2.37C1023.25,229.3,1023.25,234.91,1029.24,238.37Z" transform="translate(-1024.02 -205.84)"/>
        <g>
          <g>
            <path class="cls-4" d="M1074,229.28a.44.44,0,0,0,.34.29.25.25,0,0,1,0-.07,4.9,4.9,0,0,1-.1-1.34,1.37,1.37,0,0,1,.65-1.13l3.38-2.08.18.1a.49.49,0,0,0-.09-.1h0a.76.76,0,0,0-.76,0l-3.31,2a.7.7,0,0,0-.34.57A6.28,6.28,0,0,0,1074,229.28Z" transform="translate(-1024.02 -205.84)"/>
            <path class="cls-5" d="M1074.27,229.49a.2.2,0,0,0,0,.08,2.18,2.18,0,0,0,1,0l3-1.67a1,1,0,0,0,.5-.83,3.66,3.66,0,0,0-.36-1.84l-.1-.16-.18-.1-3.68,2.26a.74.74,0,0,0-.31.41.88.88,0,0,0,0,.16A5.9,5.9,0,0,0,1074.27,229.49Z" transform="translate(-1024.02 -205.84)"/>
            <path class="cls-6" d="M1074.21,227.62a4,4,0,0,0,4.27-2.41l-.1-.16-.18-.1-3.68,2.26A.74.74,0,0,0,1074.21,227.62Z" transform="translate(-1024.02 -205.84)"/>
          </g>
          <path class="cls-7" d="M1058.81,253.44l6-4.52-4.78-4s-3.44.45-3.44.83S1058.81,253.44,1058.81,253.44Z" transform="translate(-1024.02 -205.84)"/>
          <path class="cls-7" d="M1025.93,233.88l6-4.53-4.78-3.95s-.89.64-.89,1S1025.93,233.88,1025.93,233.88Z" transform="translate(-1024.02 -205.84)"/>
          <g>
            <g>
              <path class="cls-8" d="M1066.44,260.4l3.43-2.26s2.28-9-5.56-9.61l-3.44,1.93Z" transform="translate(-1024.02 -205.84)"/>
              <g>
                <path class="cls-9" d="M1059.54,253.16a8.88,8.88,0,0,0,4,7c2.22,1.28,4,.24,4-2.32a8.87,8.87,0,0,0-4-7C1061.34,249.56,1059.54,250.6,1059.54,253.16Z" transform="translate(-1024.02 -205.84)"/>
                <path class="cls-10" d="M1060,253.49a7.46,7.46,0,0,0,1.28,3.88c.15.23.31.45.47.66a6.62,6.62,0,0,0,1.79,1.58,2.9,2.9,0,0,0,1.78.47,1.88,1.88,0,0,0,.47-.1,2.35,2.35,0,0,0,1.28-2.41,4.91,4.91,0,0,0-.08-.92,5,5,0,0,0-.14-.62,8,8,0,0,0-3.09-4.45l-.22-.14-.23-.12c-1.42-.72-2.62-.33-3.09.87a2.54,2.54,0,0,0-.14.47A3.6,3.6,0,0,0,1060,253.49Z" transform="translate(-1024.02 -205.84)"/>
                <path class="cls-11" d="M1066.76,257.38a6.73,6.73,0,0,0-1.16-3.52,6.51,6.51,0,0,0-.43-.6,6,6,0,0,0-1.61-1.43,2.73,2.73,0,0,0-1.62-.43,1.58,1.58,0,0,0-.43.1,2.12,2.12,0,0,0-1.16,2.18,4,4,0,0,0,.08.83q0,.27.12.57a7.26,7.26,0,0,0,2.8,4l.21.13.2.11c1.29.65,2.37.3,2.8-.79a2.7,2.7,0,0,0,.13-.43A3.38,3.38,0,0,0,1066.76,257.38Z" transform="translate(-1024.02 -205.84)"/>
                <path class="cls-9" d="M1060.76,253.87a6.15,6.15,0,0,0,2.8,4.83c1.54.89,2.79.17,2.79-1.61a6.16,6.16,0,0,0-2.79-4.83C1062,251.37,1060.76,252.09,1060.76,253.87Z" transform="translate(-1024.02 -205.84)"/>
                <path class="cls-4" d="M1061.17,254.1a5.27,5.27,0,0,0,2.39,4.14c1.32.76,2.39.14,2.39-1.38a5.29,5.29,0,0,0-2.39-4.14C1062.24,252,1061.17,252.58,1061.17,254.1Z" transform="translate(-1024.02 -205.84)"/>
              </g>
            </g>
            <g class="cls-2">
              <polygon class="cls-12" points="38.54 47.96 38.76 47.84 36.28 46.34 38.54 47.96"/>
              <polygon class="cls-13" points="41.58 53.68 40.84 50.76 40.63 50.88 41.58 53.68"/>
              <polygon class="cls-14" points="40.13 48.86 40.34 48.74 39.7 46.01 40.13 48.86"/>
              <polygon class="cls-15" points="42.36 49.78 40.34 48.74 40.13 48.86 42.36 49.78"/>
              <g class="cls-16">
                <path class="cls-17" d="M1063.72,251.84l-.75-.42-.41,2.38-2.26-1.62a2.69,2.69,0,0,0-.22.71l2,2.38-.93,1.75a8.61,8.61,0,0,0,.65.9l1.57-.85,1.58,2.62.65-.17-.95-2.8,2-.12a7.29,7.29,0,0,0-.23-1l-2.23-.92Z" transform="translate(-1024.02 -205.84)"/>
              </g>
              <path class="cls-10" d="M1063.72,251.84l-.75-.42-.41,2.38-2.26-1.62a2.69,2.69,0,0,0-.22.71l2,2.38-.93,1.75a8.61,8.61,0,0,0,.65.9l1.57-.85,1.58,2.62.65-.17-.95-2.8,2-.12a7.29,7.29,0,0,0-.23-1l-2.23-.92Z" transform="translate(-1024.02 -205.84)"/>
            </g>
          </g>
          <g>
            <g>
              <path class="cls-8" d="M1033.18,241.21l3.43-2.25s2.27-9-5.57-9.61l-3.43,1.93Z" transform="translate(-1024.02 -205.84)"/>
              <g>
                <path class="cls-9" d="M1026.27,234a8.88,8.88,0,0,0,4,7c2.22,1.28,4,.24,4-2.32a8.88,8.88,0,0,0-4-7C1028.07,230.38,1026.27,231.42,1026.27,234Z" transform="translate(-1024.02 -205.84)"/>
                <path class="cls-10" d="M1026.75,234.3a7.39,7.39,0,0,0,1.29,3.89,6.08,6.08,0,0,0,.47.66,6.44,6.44,0,0,0,1.78,1.58,3,3,0,0,0,1.78.47,1.53,1.53,0,0,0,.48-.11,2.33,2.33,0,0,0,1.28-2.4,5.92,5.92,0,0,0-.08-.92c0-.2-.08-.41-.14-.62a8,8,0,0,0-3.09-4.45l-.23-.14-.22-.12c-1.43-.72-2.62-.33-3.1.87a3.62,3.62,0,0,0-.13.47A3.55,3.55,0,0,0,1026.75,234.3Z" transform="translate(-1024.02 -205.84)"/>
                <path class="cls-18" d="M1033.5,238.2a6.7,6.7,0,0,0-1.16-3.52c-.14-.21-.28-.41-.43-.6a6,6,0,0,0-1.62-1.43,2.72,2.72,0,0,0-1.61-.43,1.5,1.5,0,0,0-.43.1,2.12,2.12,0,0,0-1.16,2.18,4.81,4.81,0,0,0,.07.83,4.59,4.59,0,0,0,.13.57,7.26,7.26,0,0,0,2.8,4,1.37,1.37,0,0,0,.2.13l.21.11c1.29.65,2.37.3,2.8-.79a2.7,2.7,0,0,0,.12-.43A3.36,3.36,0,0,0,1033.5,238.2Z" transform="translate(-1024.02 -205.84)"/>
                <path class="cls-9" d="M1027.5,234.69a6.16,6.16,0,0,0,2.79,4.83c1.54.89,2.79.17,2.79-1.61a6.16,6.16,0,0,0-2.79-4.83C1028.75,232.19,1027.5,232.91,1027.5,234.69Z" transform="translate(-1024.02 -205.84)"/>
                <path class="cls-4" d="M1027.9,234.92a5.29,5.29,0,0,0,2.39,4.14c1.32.76,2.39.14,2.39-1.38a5.29,5.29,0,0,0-2.39-4.14C1029,232.78,1027.9,233.4,1027.9,234.92Z" transform="translate(-1024.02 -205.84)"/>
              </g>
            </g>
            <g class="cls-2">
              <polygon class="cls-12" points="5.28 28.78 5.49 28.66 3.01 27.16 5.28 28.78"/>
              <polygon class="cls-13" points="8.32 34.5 7.58 31.58 7.37 31.7 8.32 34.5"/>
              <polygon class="cls-14" points="6.87 29.68 7.08 29.56 6.43 26.83 6.87 29.68"/>
              <polygon class="cls-15" points="9.1 30.6 7.08 29.56 6.87 29.68 9.1 30.6"/>
              <g class="cls-16">
                <path class="cls-19" d="M1030.45,232.66l-.75-.43-.4,2.39L1027,233a2.53,2.53,0,0,0-.22.72l2,2.38-.94,1.75a6.62,6.62,0,0,0,.66.89l1.57-.84,1.58,2.62.65-.17-.95-2.8,2-.12a7.29,7.29,0,0,0-.23-1l-2.23-.92Z" transform="translate(-1024.02 -205.84)"/>
              </g>
              <path class="cls-10" d="M1030.45,232.66l-.75-.43-.4,2.39L1027,233a2.53,2.53,0,0,0-.22.72l2,2.38-.94,1.75a6.62,6.62,0,0,0,.66.89l1.57-.84,1.58,2.62.65-.17-.95-2.8,2-.12a7.29,7.29,0,0,0-.23-1l-2.23-.92Z" transform="translate(-1024.02 -205.84)"/>
            </g>
          </g>
          <path class="cls-6" d="M1024.76,233.18l.06,0a10.46,10.46,0,0,0,.9.62l.23.15.84-3.52c.13-.55.62-.71,1.18-.39l5,2.89a2.74,2.74,0,0,1,1.18,1.75l.33,1.74.23,1.25.34,1.8.29.17,1.17.69c6.44,3.81,14.44,8.49,21.14,12.39l.92.54.23.13.36-1.51.3-1.23.33-1.37c.13-.55.61-.71,1.17-.39l5,2.9a2.72,2.72,0,0,1,1.17,1.74l.54,2.87.13.7.11.58.22,1.14.29.17,1.16.68,1.6.92a10.54,10.54,0,0,0,5.91-.72l10.78-6.17a7.59,7.59,0,0,0,3.79-5.82,4.58,4.58,0,0,0,0-.64,11.15,11.15,0,0,0-.11-1.4,5.66,5.66,0,0,0-.41-1.34.66.66,0,0,0,0-.24c-.12-.24-.28-.21-.31-.36-.11-.47-.22-1-.35-1.44l-.09-.36c-.05-.19-.1-.37-.16-.56,0,0,0-.09,0-.13a5.89,5.89,0,0,0-.21-.59,5.37,5.37,0,0,0-.94-1.64c-3.58-4.1-10.11-8.24-10.11-8.24l-.29-.4c-1-1.41-4.62-6.3-7.57-9.88a31.5,31.5,0,0,0-3.35-3.66c-2.72-2.21-20-11.21-22.26-11.21s-14.79,8.33-14.79,8.33-4,5.07-4.33,6.77a18.09,18.09,0,0,0-1.06,1.58h0a4.08,4.08,0,0,0-.53,1.16c-.14.66-.32,1.68-.47,2.81C1024,229.05,1023.78,232.2,1024.76,233.18Z" transform="translate(-1024.02 -205.84)"/>
          <path class="cls-20" d="M1030.68,214.17a16,16,0,0,1,4.53,1.67s14.72,8.8,18.73,11.15a14.19,14.19,0,0,1,5.55,5.87s9.43-9.05,10.83-10a2.58,2.58,0,0,0,.76-2.14,31.5,31.5,0,0,0-3.35-3.66c-2.72-2.21-20-11.21-22.26-11.21S1030.68,214.17,1030.68,214.17Z" transform="translate(-1024.02 -205.84)"/>
          <path class="cls-20" d="M1028.39,222.75c.13,0,35.81,22.21,44.61,27.76,5.74,3.62,16-6.16,17.39-8.33l0,0c-.05-.19-.1-.37-.16-.56,0,0,0-.09,0-.13a5.89,5.89,0,0,0-.21-.59,5.37,5.37,0,0,0-.94-1.64c-3.58-4.1-10.11-8.24-10.11-8.24l-.29-.4a3.92,3.92,0,0,0-1.09.56s-12.29,6-14.46,7.91-5.19.17-5.19.17l-.8-.59-1.32-1.92s-23.53-14.14-26.85-15.12S1028.26,222.75,1028.39,222.75Z" transform="translate(-1024.02 -205.84)"/>
          <g>
            <path class="cls-21" d="M1076.67,231.12s12,7,12.32,10.59a52.43,52.43,0,0,0-12.89-10.08l1-.94Z" transform="translate(-1024.02 -205.84)"/>
            <path class="cls-6" d="M1063.31,239.55s10.39,8.28,11.6,10.89c0,0,.32-.31.19-.63-.26-.64-10.39-10.71-11.54-10.58S1063.31,239.55,1063.31,239.55Z" transform="translate(-1024.02 -205.84)"/>
          </g>
          <g>
            <path class="cls-9" d="M1057.24,228.23l5.44,11.64a48,48,0,0,0,11-5.23,21.23,21.23,0,0,0,2.26-1.76h0a13.59,13.59,0,0,0,1.61-1.72l.11-.14-7.1-10.36-7.43,4.22Z" transform="translate(-1024.02 -205.84)"/>
            <path class="cls-9" d="M1062.21,238.3l.6,1.27s10.43-3.23,14.56-8.57l-.74-1.09C1072.66,234.24,1065.26,237.21,1062.21,238.3Z" transform="translate(-1024.02 -205.84)"/>
            <path class="cls-22" d="M1057.55,228.33l3.91,8.36.55,1.18a.53.53,0,0,0,.65.27c3.2-1.18,9.88-4,13.71-8a.45.45,0,0,0,.05-.57l-.63-.91-5.3-7.73Z" transform="translate(-1024.02 -205.84)"/>
            <g>
              <path class="cls-23" d="M1061.46,236.69l.55,1.18a.53.53,0,0,0,.65.27c3.2-1.18,9.88-4,13.71-8a.45.45,0,0,0,.05-.57l-.63-.91c-2.92,1.41-7,3.57-10,5.3l-.73.44,0,0-.72.45h0l-.42.27-1.11.72s0,0,0,0l-.43.26-.48.27Z" transform="translate(-1024.02 -205.84)"/>
              <g>
                <path class="cls-23" d="M1061.4,235.25a2,2,0,0,0,.08.57,1.34,1.34,0,0,0,.12.3h0a1.31,1.31,0,0,0,.25.32h0a1,1,0,0,0,.27.17,1.14,1.14,0,0,0,.46.09,1.39,1.39,0,0,0,.44-.07h0a1.78,1.78,0,0,0,.45-.2,4,4,0,0,0,1.56-1.86,1.21,1.21,0,0,0,0-.14h0a4.47,4.47,0,0,0,.2-.78h0a2.8,2.8,0,0,0,0-.4c0-.9-.47-1.48-1.2-1.48a1.53,1.53,0,0,0-.54.11,1.81,1.81,0,0,0-.35.16A4,4,0,0,0,1061.4,235.25Zm.95.94h0c-.28-.12-.44-.45-.44-.93a1.77,1.77,0,0,1,0-.23,2.93,2.93,0,0,1,.2-.8,3.53,3.53,0,0,1,1.34-1.72l0,0a1.32,1.32,0,0,1,.27-.13,1.07,1.07,0,0,1,.37-.08h0c.45,0,.72.37.72,1a.86.86,0,0,1,0,.16h0a3.58,3.58,0,0,1-.51,1.49h0c0,.08-.09.15-.14.23a3.29,3.29,0,0,1-.94.89,1.89,1.89,0,0,1-.36.16h0l-.25,0h0A.66.66,0,0,1,1062.35,236.19Z" transform="translate(-1024.02 -205.84)"/>
                <path class="cls-23" d="M1066.56,234.53s-1.77-1.44-2.41-1.23-1.55,1-1.55,1.61a10.69,10.69,0,0,0,.64,2.3Z" transform="translate(-1024.02 -205.84)"/>
                <path class="cls-23" d="M1064.1,233.33l0-1a.25.25,0,0,0-.36-.23l-.21.1a.25.25,0,0,0-.13.27l.16.9a.25.25,0,0,0,.38.16h0A.23.23,0,0,0,1064.1,233.33Z" transform="translate(-1024.02 -205.84)"/>
                <polygon class="cls-23" points="39.49 28.69 38.04 28.37 37.67 29.18 39.76 29.23 39.49 28.69"/>
              </g>
            </g>
            <path class="cls-24" d="M1063.14,224.87c7,6.75,9.16,9,10.53,9.77a21.23,21.23,0,0,0,2.26-1.76h0a13.59,13.59,0,0,0,1.61-1.72l.11-.14-7.1-10.36Z" transform="translate(-1024.02 -205.84)"/>
          </g>
          <path class="cls-9" d="M1046.8,222.85a.06.06,0,0,0-.07,0Z" transform="translate(-1024.02 -205.84)"/>
          <path class="cls-9" d="M1036.54,216.61s0,0-.07,0S1036.47,216.6,1036.54,216.61Z" transform="translate(-1024.02 -205.84)"/>
          <path class="cls-25" d="M1057.66,252.77l.92.54.23.13,1-4.11c.13-.55.61-.71,1.17-.39l5,2.9a2.72,2.72,0,0,1,1.17,1.74l1,5.29.29.17,1.16.68-1.19-6.37a4.06,4.06,0,0,0-1.8-2.62l-5-2.89a2.38,2.38,0,0,0-1.18-.34,1.89,1.89,0,0,0-1.87,1.53Z" transform="translate(-1024.02 -205.84)"/>
          <path class="cls-26" d="M1024.82,233.23a10.46,10.46,0,0,0,.9.62l.23.15.84-3.52c.13-.55.62-.71,1.18-.39l5,2.89a2.74,2.74,0,0,1,1.18,1.75l.9,4.79.29.17,1.17.69-1.11-5.89a4,4,0,0,0-1.79-2.61l-2.38-1.37L1028.6,229a2.25,2.25,0,0,0-1.17-.34,1.91,1.91,0,0,0-1.88,1.53Z" transform="translate(-1024.02 -205.84)"/>
          <g>
            <path class="cls-27" d="M1056.24,252.59l.12,0c-.4-1.36,1-7.6,1.59-10.27.17-.75.27-1.2.28-1.3,0-.44.79-1,.8-1h0a1.39,1.39,0,0,0,.25-1.21c-2.32-9.11-3.31-9.84-3.68-10.12-.8-.58-9.21-5.52-18.18-10.78a.47.47,0,0,0-.4,0,.5.5,0,0,0-.29.28l-2.48,6.85a.2.2,0,0,0-.19-.07q-.45.08-1,1.8a35.72,35.72,0,0,0-.75,4.56,2.57,2.57,0,0,0-.32,1h.13a2.38,2.38,0,0,1,.31-.92v0a36.47,36.47,0,0,1,.74-4.55c.59-1.76.92-1.72.95-1.71a.11.11,0,0,1,.07.11h0l.12.06v0l2.54-7a.36.36,0,0,1,.21-.21.35.35,0,0,1,.3,0c9,5.25,17.37,10.19,18.16,10.78.37.26,1.33,1,3.64,10a1.29,1.29,0,0,1-.23,1.09c-.08.07-.79.63-.83,1.1,0,.09-.12.59-.28,1.29C1057.18,245.16,1055.83,251.19,1056.24,252.59Z" transform="translate(-1024.02 -205.84)"/>
            <path class="cls-27" d="M1042.3,243.62l.13,0a19.38,19.38,0,0,1,1.69-11.47,5.11,5.11,0,0,0,.26-.65c.13-.63,2.84-7.76,2.87-7.83l-.12,0c-.11.3-2.74,7.22-2.87,7.85a4.68,4.68,0,0,1-.26.63A19.51,19.51,0,0,0,1042.3,243.62Z" transform="translate(-1024.02 -205.84)"/>
          </g>
          <g>
            <path class="cls-28" d="M1057.92,239.68a.6.6,0,0,0,.57-.73c-.84-3.29-2.39-8.93-3.37-9.65s-16.81-10-21.89-13a1.49,1.49,0,0,0-.74-.2,1.44,1.44,0,0,0-1.15.56,24.79,24.79,0,0,0-2.83,4.28,1.08,1.08,0,0,0,.44,1.35l28.67,17.25A.55.55,0,0,0,1057.92,239.68Z" transform="translate(-1024.02 -205.84)"/>
            <path class="cls-29" d="M1029.08,222.13l4.37,2.61,1.79,1.07,8.21,4.95,1.79,1.08,10.14,6.12.55.33,1.82,1.09a.34.34,0,0,0,.5-.37c-.22-.86-.6-2.31-1-3.83l-.09-.29h0c-.17-.58-.35-1.16-.52-1.72-.58-1.8-1.18-3.34-1.63-3.67s-3.56-2.19-7.43-4.48l-1.68-1-8.37-4.93-1.68-1c-1.53-.89-1.92-1.07-2.71-1.53a1.21,1.21,0,0,0-1.56.29c-.24.31-.54.7-.84,1.11a17.66,17.66,0,0,0-2,3.12A.83.83,0,0,0,1029.08,222.13Z" transform="translate(-1024.02 -205.84)"/>
            <path class="cls-30" d="M1030.7,218c4.31,4.81,22.38,13.53,25.9,15.2-.58-1.8-1.18-3.34-1.63-3.67s-3.56-2.19-7.43-4.48l-1.68-1-8.37-4.93-1.68-1c-1.53-.89-1.92-1.07-2.71-1.53a1.21,1.21,0,0,0-1.56.29C1031.3,217.17,1031,217.56,1030.7,218Z" transform="translate(-1024.02 -205.84)"/>
            <path class="cls-4" d="M1043.45,230.76l1.79,1.08c.55-2.29,2.28-6.79,2.28-6.79l0,0-1.68-1C1045.31,225.55,1043.81,228.72,1043.45,230.76Z" transform="translate(-1024.02 -205.84)"/>
            <path class="cls-4" d="M1033.46,224.74l1.78,1.07c.49-2.06,2-6,2.25-6.72l-1.68-1C1035.22,219.7,1033.79,222.77,1033.46,224.74Z" transform="translate(-1024.02 -205.84)"/>
            <path class="cls-4" d="M1055.93,238.29l1.82,1.09a.34.34,0,0,0,.5-.37c-.22-.86-.6-2.31-1-3.83l-.09-.29A32.47,32.47,0,0,1,1055.93,238.29Z" transform="translate(-1024.02 -205.84)"/>
          </g>
          <path class="cls-9" d="M1058.58,253.31l.23.13,1-4.11c.13-.55.61-.71,1.17-.39l5,2.9a2.72,2.72,0,0,1,1.17,1.74l1,5.29.29.17-1-5.5a2.92,2.92,0,0,0-1.3-1.92l-5-2.9a1.36,1.36,0,0,0-.67-.2.89.89,0,0,0-.88.75Z" transform="translate(-1024.02 -205.84)"/>
          <path class="cls-9" d="M1025.72,233.85l.23.15.84-3.52c.13-.55.62-.71,1.18-.39l5,2.89a2.74,2.74,0,0,1,1.18,1.75l.9,4.79.29.17-.94-5a3,3,0,0,0-1.3-1.92l-5-2.89a1.23,1.23,0,0,0-.66-.2.9.9,0,0,0-.89.75Z" transform="translate(-1024.02 -205.84)"/>
          <path class="cls-9" d="M1034.72,237.72l.34,1.8.29.17,1.17.69c6.44,3.81,14.44,8.49,21.14,12.39l.92.54.23.13.36-1.51Z" transform="translate(-1024.02 -205.84)"/>
          <g>
            <g>
              <path class="cls-5" d="M1084.45,245.36v2.56c0,.14.13.19.27.11l.75-.43a.61.61,0,0,0,.27-.48v-2.51c0-.14-.07-.21-.18-.19l-.09,0-.75.44A.58.58,0,0,0,1084.45,245.36Z" transform="translate(-1024.02 -205.84)"/>
              <path class="cls-9" d="M1084.45,245.36v2.56l.09,0,.75-.43a.61.61,0,0,0,.27-.48v-2.55l-.09,0-.75.44A.58.58,0,0,0,1084.45,245.36Z" transform="translate(-1024.02 -205.84)"/>
            </g>
            <g>
              <path class="cls-5" d="M1082.59,246.4V249c0,.14.14.19.28.11l.75-.43a.61.61,0,0,0,.27-.47v-2.52c0-.14-.08-.21-.18-.19l-.09,0-.75.44A.59.59,0,0,0,1082.59,246.4Z" transform="translate(-1024.02 -205.84)"/>
              <path class="cls-9" d="M1082.59,246.4V249l.1,0,.75-.43a.61.61,0,0,0,.27-.47v-2.56l-.09,0-.75.44A.59.59,0,0,0,1082.59,246.4Z" transform="translate(-1024.02 -205.84)"/>
            </g>
            <g>
              <path class="cls-5" d="M1080.74,247.44V250c0,.14.13.2.27.12l.75-.44a.6.6,0,0,0,.28-.47v-2.52c0-.13-.08-.21-.19-.19l-.09,0-.75.43A.61.61,0,0,0,1080.74,247.44Z" transform="translate(-1024.02 -205.84)"/>
              <path class="cls-9" d="M1080.74,247.44V250l.09,0,.75-.44a.6.6,0,0,0,.28-.47v-2.52a.08.08,0,0,0,0,0l-.09,0-.75.43A.61.61,0,0,0,1080.74,247.44Z" transform="translate(-1024.02 -205.84)"/>
            </g>
            <g>
              <path class="cls-5" d="M1078.89,248.48V251c0,.15.13.2.27.12l.75-.44a.58.58,0,0,0,.27-.47v-2.51c0-.14-.07-.21-.18-.19a.16.16,0,0,0-.09,0l-.75.43A.61.61,0,0,0,1078.89,248.48Z" transform="translate(-1024.02 -205.84)"/>
              <path class="cls-9" d="M1078.89,248.48V251a.16.16,0,0,0,.09,0l.75-.44a.58.58,0,0,0,.27-.47v-2.55a.16.16,0,0,0-.09,0l-.75.43A.61.61,0,0,0,1078.89,248.48Z" transform="translate(-1024.02 -205.84)"/>
            </g>
          </g>
          <g>
            <path class="cls-31" d="M1073,253.84a1.55,1.55,0,0,0,.35-.05,17.35,17.35,0,0,0,4-2.08,1.22,1.22,0,0,0,.39-1.07l0-.27c-.11-1.12-.92-1.64-2.3-1.1l-2.71,1.37-.62.32a1,1,0,0,0-.38.84C1071.7,252.51,1072,253.88,1073,253.84Z" transform="translate(-1024.02 -205.84)"/>
            <g>
              <path class="cls-32" d="M1075.82,251.89l.06,0,.07,0h0a.67.67,0,0,0,.43-.1,1.72,1.72,0,0,0,.78-1.34.65.65,0,0,0-.06-.29l-.24-.14c-.07,0,.12-.05.05-.08-.79-.34-1.84-.29-2.09.17S1075.05,251.43,1075.82,251.89Z" transform="translate(-1024.02 -205.84)"/>
              <path class="cls-10" d="M1075.61,251.4a.61.61,0,0,0,.14.44.49.49,0,0,0,.2.11h0a.67.67,0,0,0,.43-.1,1.72,1.72,0,0,0,.78-1.34.65.65,0,0,0-.06-.29.39.39,0,0,0-.46-.25.77.77,0,0,0-.26.1A1.7,1.7,0,0,0,1075.61,251.4Z" transform="translate(-1024.02 -205.84)"/>
              <ellipse class="cls-33" cx="52.2" cy="45.06" rx="0.34" ry="0.31"/>
              <g>
                <path class="cls-32" d="M1075.68,251.37a1.49,1.49,0,0,1,.69-1.19.54.54,0,0,1,.31-.1c.23,0,.38.19.38.5a1.52,1.52,0,0,1-.69,1.19.57.57,0,0,1-.31.1C1075.82,251.87,1075.68,251.68,1075.68,251.37Zm.69-1.18a1.53,1.53,0,0,0-.68,1.18c0,.3.14.48.37.48a.64.64,0,0,0,.31-.09,1.53,1.53,0,0,0,.68-1.18c0-.3-.15-.48-.37-.48A.64.64,0,0,0,1076.37,250.19Z" transform="translate(-1024.02 -205.84)"/>
                <path class="cls-32" d="M1075.85,251.27a1.12,1.12,0,0,1,.52-.89.41.41,0,0,1,.23-.07c.17,0,.29.14.29.37a1.12,1.12,0,0,1-.52.89.43.43,0,0,1-.23.07C1076,251.64,1075.85,251.5,1075.85,251.27Zm.52-.88a1.12,1.12,0,0,0-.5.88c0,.22.1.36.27.36a.55.55,0,0,0,.23-.07,1.15,1.15,0,0,0,.5-.88c0-.22-.1-.36-.27-.36A.55.55,0,0,0,1076.37,250.39Z" transform="translate(-1024.02 -205.84)"/>
                <path class="cls-32" d="M1076.06,251.15a.67.67,0,0,1,.31-.53.22.22,0,0,1,.13,0c.11,0,.18.09.18.22a.67.67,0,0,1-.31.53.38.38,0,0,1-.13,0C1076.13,251.37,1076.06,251.28,1076.06,251.15Zm.31-.51a.64.64,0,0,0-.29.51c0,.12.06.2.16.2a.24.24,0,0,0,.13,0,.64.64,0,0,0,.29-.51c0-.12-.06-.2-.16-.2A.24.24,0,0,0,1076.37,250.64Z" transform="translate(-1024.02 -205.84)"/>
              </g>
            </g>
            <g>
              <path class="cls-32" d="M1073.87,253l.06,0,.07,0h0a.6.6,0,0,0,.43-.09,1.72,1.72,0,0,0,.78-1.34.62.62,0,0,0-.06-.29l-.24-.15c-.07,0,.12-.05,0-.08-.79-.33-1.84-.29-2.09.18S1073.1,252.57,1073.87,253Z" transform="translate(-1024.02 -205.84)"/>
              <path class="cls-10" d="M1073.66,252.55a.6.6,0,0,0,.15.44.32.32,0,0,0,.19.1h0a.6.6,0,0,0,.43-.09,1.72,1.72,0,0,0,.78-1.34.62.62,0,0,0-.06-.29.39.39,0,0,0-.46-.25.73.73,0,0,0-.26.09A1.74,1.74,0,0,0,1073.66,252.55Z" transform="translate(-1024.02 -205.84)"/>
              <path class="cls-33" d="M1073.94,252.05a.34.34,0,1,0,.34-.32A.33.33,0,0,0,1073.94,252.05Z" transform="translate(-1024.02 -205.84)"/>
              <g>
                <path class="cls-32" d="M1073.73,252.52a1.54,1.54,0,0,1,.69-1.2.61.61,0,0,1,.31-.09c.24,0,.38.19.38.49a1.54,1.54,0,0,1-.69,1.2.64.64,0,0,1-.31.09C1073.87,253,1073.73,252.82,1073.73,252.52Zm.69-1.18a1.5,1.5,0,0,0-.68,1.18c0,.29.14.48.37.48a.64.64,0,0,0,.31-.09,1.54,1.54,0,0,0,.68-1.19c0-.29-.14-.48-.37-.48A.57.57,0,0,0,1074.42,251.34Z" transform="translate(-1024.02 -205.84)"/>
                <path class="cls-32" d="M1073.9,252.41a1.15,1.15,0,0,1,.52-.89.55.55,0,0,1,.23-.07c.18,0,.29.15.29.38a1.15,1.15,0,0,1-.52.89.55.55,0,0,1-.23.07C1074,252.79,1073.9,252.64,1073.9,252.41Zm.52-.87a1.1,1.1,0,0,0-.5.87c0,.22.1.36.27.36a.43.43,0,0,0,.23-.07,1.1,1.1,0,0,0,.5-.87c0-.22-.1-.36-.27-.36A.43.43,0,0,0,1074.42,251.54Z" transform="translate(-1024.02 -205.84)"/>
                <path class="cls-32" d="M1074.11,252.29a.67.67,0,0,1,.31-.52.22.22,0,0,1,.13,0c.11,0,.18.08.18.22a.66.66,0,0,1-.31.52.22.22,0,0,1-.13,0C1074.18,252.51,1074.11,252.43,1074.11,252.29Zm.31-.51a.68.68,0,0,0-.29.51c0,.13.06.21.16.21a.24.24,0,0,0,.13,0,.66.66,0,0,0,.29-.51c0-.13-.06-.21-.16-.21A.38.38,0,0,0,1074.42,251.78Z" transform="translate(-1024.02 -205.84)"/>
              </g>
            </g>
            <path class="cls-34" d="M1077.41,250.43a1.42,1.42,0,0,0-1.94-.92,14.82,14.82,0,0,0-2.34,1.26.28.28,0,0,0,.09.51C1074.55,251.59,1077.57,252.1,1077.41,250.43Z" transform="translate(-1024.02 -205.84)"/>
            <path class="cls-35" d="M1073,253.84a1.55,1.55,0,0,0,.35-.05c.05-.52.15-2.27-.6-3.15l-.62.32a1,1,0,0,0-.38.84C1071.7,252.51,1072,253.88,1073,253.84Z" transform="translate(-1024.02 -205.84)"/>
          </g>
          <g>
            <g>
              <path id="SVGID-2" data-name="SVGID" class="cls-1" d="M1087.31,245.11l.21.17a1.22,1.22,0,0,0,1.12.24c.59-.27,1.52-.71,2.38-1.19a5.61,5.61,0,0,1-.28-.71c-.11-.48-.22-1-.35-1.44-.08-.31-.16-.62-.25-.92,0,0,0-.09-.05-.13l-2.47,1.46C1086.42,243.46,1086.42,244.42,1087.31,245.11Z" transform="translate(-1024.02 -205.84)"/>
              <g class="cls-36">
                <g>
                  <path class="cls-32" d="M1089.39,244.48l.07,0,.06,0h0a.66.66,0,0,0,.45-.1,1.75,1.75,0,0,0,.81-1.37.85.85,0,0,0,0-.3,1.28,1.28,0,0,0-.25-.15c-.08,0,.13,0,0-.08-.81-.36-1.89-.32-2.15.16S1088.6,244,1089.39,244.48Z" transform="translate(-1024.02 -205.84)"/>
                  <path class="cls-10" d="M1089.18,244a.61.61,0,0,0,.15.45.45.45,0,0,0,.19.11h0a.66.66,0,0,0,.45-.1,1.75,1.75,0,0,0,.81-1.37.85.85,0,0,0,0-.3.4.4,0,0,0-.48-.26.73.73,0,0,0-.26.09A1.77,1.77,0,0,0,1089.18,244Z" transform="translate(-1024.02 -205.84)"/>
                  <path class="cls-33" d="M1089.47,243.47a.35.35,0,1,0,.35-.32A.34.34,0,0,0,1089.47,243.47Z" transform="translate(-1024.02 -205.84)"/>
                  <g>
                    <path class="cls-32" d="M1089.38,244.36a.56.56,0,0,1-.13-.41,1.54,1.54,0,0,1,.72-1.22.6.6,0,0,1,.32-.1.36.36,0,0,1,.26.11.52.52,0,0,1,.13.41,1.54,1.54,0,0,1-.72,1.22.66.66,0,0,1-.31.1A.37.37,0,0,1,1089.38,244.36Zm.6-1.62a1.57,1.57,0,0,0-.72,1.21.56.56,0,0,0,.14.4.32.32,0,0,0,.25.1.67.67,0,0,0,.31-.09,1.58,1.58,0,0,0,.71-1.21.58.58,0,0,0-.13-.4.35.35,0,0,0-.25-.1A.64.64,0,0,0,1090,242.74Z" transform="translate(-1024.02 -205.84)"/>
                    <path class="cls-32" d="M1089.53,244.16a.43.43,0,0,1-.1-.31,1.16,1.16,0,0,1,.54-.92.55.55,0,0,1,.23-.07.28.28,0,0,1,.2.08.43.43,0,0,1,.1.31,1.15,1.15,0,0,1-.53.91.49.49,0,0,1-.24.07A.27.27,0,0,1,1089.53,244.16ZM1090,243a1.14,1.14,0,0,0-.53.9.4.4,0,0,0,.09.29.27.27,0,0,0,.19.08.55.55,0,0,0,.23-.07,1.17,1.17,0,0,0,.53-.9.45.45,0,0,0-.1-.3.29.29,0,0,0-.19-.07A.4.4,0,0,0,1090,243Z" transform="translate(-1024.02 -205.84)"/>
                    <path class="cls-32" d="M1089.71,243.91a.27.27,0,0,1-.06-.19.66.66,0,0,1,.32-.53.19.19,0,0,1,.25,0,.24.24,0,0,1,.06.18.69.69,0,0,1-.31.54.27.27,0,0,1-.14,0A.16.16,0,0,1,1089.71,243.91Zm.26-.71a.7.7,0,0,0-.31.52.21.21,0,0,0,.06.17.19.19,0,0,0,.24,0,.67.67,0,0,0,.31-.53.24.24,0,0,0-.06-.17.13.13,0,0,0-.1,0A.25.25,0,0,0,1090,243.2Z" transform="translate(-1024.02 -205.84)"/>
                  </g>
                </g>
                <g>
                  <path class="cls-32" d="M1087.57,245.52s0,0,.06,0l.07,0h0a.66.66,0,0,0,.45-.09,1.75,1.75,0,0,0,.8-1.37.67.67,0,0,0,0-.3l-.25-.16c-.07,0,.13,0,0-.08-.8-.35-1.89-.31-2.15.17S1086.77,245,1087.57,245.52Z" transform="translate(-1024.02 -205.84)"/>
                  <path class="cls-10" d="M1087.35,245a.64.64,0,0,0,.15.45.31.31,0,0,0,.2.11h0a.66.66,0,0,0,.45-.09,1.75,1.75,0,0,0,.8-1.37.67.67,0,0,0,0-.3.41.41,0,0,0-.48-.27,1.06,1.06,0,0,0-.26.1A1.79,1.79,0,0,0,1087.35,245Z" transform="translate(-1024.02 -205.84)"/>
                  <path class="cls-33" d="M1087.64,244.51a.36.36,0,1,0,.36-.32A.34.34,0,0,0,1087.64,244.51Z" transform="translate(-1024.02 -205.84)"/>
                  <g>
                    <path class="cls-32" d="M1087.56,245.4a.56.56,0,0,1-.14-.41,1.62,1.62,0,0,1,.72-1.23.68.68,0,0,1,.32-.09.35.35,0,0,1,.26.1.58.58,0,0,1,.14.41,1.59,1.59,0,0,1-.72,1.23.68.68,0,0,1-.32.09A.35.35,0,0,1,1087.56,245.4Zm.59-1.62a1.53,1.53,0,0,0-.71,1.21.55.55,0,0,0,.13.4.36.36,0,0,0,.25.1.64.64,0,0,0,.31-.09,1.57,1.57,0,0,0,.71-1.22.55.55,0,0,0-.13-.4.36.36,0,0,0-.25-.1A.66.66,0,0,0,1088.15,243.78Z" transform="translate(-1024.02 -205.84)"/>
                    <path class="cls-32" d="M1087.71,245.19a.41.41,0,0,1-.11-.3,1.22,1.22,0,0,1,.54-.92.44.44,0,0,1,.24-.07.27.27,0,0,1,.19.08.42.42,0,0,1,.11.31,1.22,1.22,0,0,1-.54.91.44.44,0,0,1-.24.07A.26.26,0,0,1,1087.71,245.19Zm.44-1.2a1.13,1.13,0,0,0-.53.9.38.38,0,0,0,.1.29.25.25,0,0,0,.18.08.55.55,0,0,0,.23-.07,1.16,1.16,0,0,0,.53-.9.4.4,0,0,0-.1-.3.24.24,0,0,0-.18-.07A.43.43,0,0,0,1088.15,244Z" transform="translate(-1024.02 -205.84)"/>
                    <path class="cls-32" d="M1087.88,244.94a.24.24,0,0,1-.06-.18.7.7,0,0,1,.32-.54.22.22,0,0,1,.26,0,.24.24,0,0,1,.06.18.7.7,0,0,1-.32.54.27.27,0,0,1-.14,0A.17.17,0,0,1,1087.88,244.94Zm.27-.7a.66.66,0,0,0-.31.52.26.26,0,0,0,.05.17.18.18,0,0,0,.24,0,.66.66,0,0,0,.31-.52.29.29,0,0,0,0-.17.15.15,0,0,0-.11,0A.22.22,0,0,0,1088.15,244.24Z" transform="translate(-1024.02 -205.84)"/>
                  </g>
                </g>
              </g>
            </g>
            <path class="cls-37" d="M1090.53,242.7a1.24,1.24,0,0,0-1.8-.54,13.92,13.92,0,0,0-1.87,1.4c-.16.15.28,1.45.49,1.46C1088.55,245.11,1090.89,244.13,1090.53,242.7Z" transform="translate(-1024.02 -205.84)"/>
          </g>
          <path class="cls-20" d="M1090.92,244.71a24.65,24.65,0,0,1-8.28,6.24,31.88,31.88,0,0,1-11.24,3.16s1.91,1.46,10-2.05c5.43-2.35,10.06-6.52,9.81-7.39S1091.05,244.44,1090.92,244.71Z" transform="translate(-1024.02 -205.84)"/>
          <g>
            <path class="cls-38" d="M1088.46,249.48a1.6,1.6,0,0,1,.93.53l.15-.12A1.28,1.28,0,0,0,1088.46,249.48Z" transform="translate(-1024.02 -205.84)"/>
            <path class="cls-4" d="M1068.79,256.12h0a4.74,4.74,0,0,0,2.41,1.5,10.25,10.25,0,0,0,7.18-.87c.2-.66.24-1,.34-1.28a1.46,1.46,0,0,1,.62-.78c.73-.45,3.37-1.74,5-2.66,2.14-1.25,3.45-2.46,4.12-2.56h0a1.6,1.6,0,0,1,.93.53l.15-.12c1-.81,1.72-1.52,2.15-2a7.59,7.59,0,0,1-3.79,5.82l-10.78,6.17a10.54,10.54,0,0,1-5.91.72l-1.6-.92-1.16-.68-.29-.17-.22-1.14-.11-.58-.13-.7Z" transform="translate(-1024.02 -205.84)"/>
          </g>
          <path class="cls-39" d="M1058.34,245.81s-22.2-18.24-24.66-19.13,4,8.09,5.88,9.49,18.31,11.6,18.31,11.6S1058.93,247.94,1058.34,245.81Z" transform="translate(-1024.02 -205.84)"/>
          <path class="cls-40" d="M1024.29,226.49a1.94,1.94,0,0,0,.79.44c.38,0,.82-1.85,1.08-2.55.18-.5-.48-1.39-.87-1.86a4.08,4.08,0,0,0-.53,1.16C1024.62,224.34,1024.44,225.36,1024.29,226.49Z" transform="translate(-1024.02 -205.84)"/>
          <g>
            <path class="cls-38" d="M1081.45,245.6a1.74,1.74,0,0,0,1.39-.72c.26-.42.08-.78-.42-.8a1.73,1.73,0,0,0-1.38.72C1080.77,245.22,1081,245.58,1081.45,245.6Z" transform="translate(-1024.02 -205.84)"/>
            <path class="cls-32" d="M1081.52,245.53a1.74,1.74,0,0,0,1.39-.72c.27-.42.08-.78-.42-.8a1.73,1.73,0,0,0-1.38.72C1080.84,245.15,1081,245.5,1081.52,245.53Z" transform="translate(-1024.02 -205.84)"/>
            <path class="cls-41" d="M1083,244.32s-.2-.64-1.49.14S1083.11,244.66,1083,244.32Z" transform="translate(-1024.02 -205.84)"/>
          </g>
          <g>
            <polygon class="cls-10" points="57.27 50.89 63.25 47.43 63.25 45.41 57.27 48.87 57.27 50.89"/>
            <path class="cls-32" d="M1081.21,254.66l6.14-3.55v2.2l-6.14,3.55Zm6-3.28-5.83,3.37v1.84l5.83-3.37Z" transform="translate(-1024.02 -205.84)"/>
          </g>
          <path class="cls-27" d="M1029.08,226.29a2.23,2.23,0,0,1-1-1.74c0-.46.23-.76.6-.76a.94.94,0,0,1,.46.14,2.21,2.21,0,0,1,1,1.74c0,.46-.24.76-.6.76A1,1,0,0,1,1029.08,226.29Zm-.87-1.74a2.06,2.06,0,0,0,.93,1.62.76.76,0,0,0,.41.13c.29,0,.47-.24.47-.63a2.08,2.08,0,0,0-.94-1.63.83.83,0,0,0-.4-.12C1028.39,223.92,1028.21,224.16,1028.21,224.55Z" transform="translate(-1024.02 -205.84)"/>
          <g>
            <path class="cls-5" d="M1044.55,233.69a2.16,2.16,0,0,0,1,1.69c.54.32,1,.06,1-.56s-.54-.59-1.08-.91S1044.55,233.07,1044.55,233.69Z" transform="translate(-1024.02 -205.84)"/>
            <g>
              <path class="cls-42" d="M1044,234c.17.18,2.12,1.76,2.8,1.44.32-.15.33-.25.25-.31a.84.84,0,0,0-.29-.08,7.17,7.17,0,0,1-2.37-1.42c-.14-.21-.24-.27-.32-.25S1043.84,233.88,1044,234Z" transform="translate(-1024.02 -205.84)"/>
              <path class="cls-43" d="M1044.1,233.76c.17.19,2.12,1.77,2.8,1.44l.11-.06a.84.84,0,0,0-.29-.08,7.17,7.17,0,0,1-2.37-1.42c-.14-.21-.24-.27-.32-.25A.48.48,0,0,0,1044.1,233.76Z" transform="translate(-1024.02 -205.84)"/>
            </g>
          </g>
          <g>
            <path class="cls-5" d="M1034,227.17a2.16,2.16,0,0,0,1,1.69c.54.31,1,.06,1-.56s-.54-.59-1.08-.91S1034,226.54,1034,227.17Z" transform="translate(-1024.02 -205.84)"/>
            <g>
              <path class="cls-44" d="M1033.4,227.49c.17.18,2.12,1.76,2.8,1.44.32-.16.33-.25.25-.31a.87.87,0,0,0-.3-.08,7.16,7.16,0,0,1-2.37-1.43c-.13-.2-.24-.26-.31-.24S1033.28,227.36,1033.4,227.49Z" transform="translate(-1024.02 -205.84)"/>
              <path class="cls-45" d="M1033.54,227.24c.17.18,2.12,1.76,2.8,1.44l.11-.06a.87.87,0,0,0-.3-.08,7.16,7.16,0,0,1-2.37-1.43c-.13-.2-.24-.26-.31-.24A.48.48,0,0,0,1033.54,227.24Z" transform="translate(-1024.02 -205.84)"/>
            </g>
          </g>
          <g>
            <path class="cls-9" d="M1059.22,243.19l1,.56,0,.55.1-.06,0-.56-1-.55Z" transform="translate(-1024.02 -205.84)"/>
            <path class="cls-46" d="M1059,244l.76.45a.15.15,0,0,0,.16,0l.33-.18,0-.55-1-.56c-.13.08-.34.22-.36.38S1058.79,243.92,1059,244Z" transform="translate(-1024.02 -205.84)"/>
          </g>
          <g>
            <path class="cls-9" d="M1056.92,236.87a.52.52,0,0,1,.56.54c0,.4-.11.89-.44,1.06-.61.3-1.06-.36-1.06-.36l.18-1.18Z" transform="translate(-1024.02 -205.84)"/>
            <path class="cls-4" d="M1051.47,239.74a.46.46,0,0,0,.34.29.2.2,0,0,1,0-.08,4.79,4.79,0,0,1-.1-1.33,1.36,1.36,0,0,1,.65-1.13l3.38-2.08.18.1a.49.49,0,0,0-.09-.1l-.39-.21-3.68,2.26a.72.72,0,0,0-.34.57A6.28,6.28,0,0,0,1051.47,239.74Z" transform="translate(-1024.02 -205.84)"/>
            <path class="cls-5" d="M1051.77,240a.2.2,0,0,0,0,.08,2.35,2.35,0,0,0,1,0l3-1.67a1,1,0,0,0,.5-.83,3.62,3.62,0,0,0-.36-1.85,1.28,1.28,0,0,0-.1-.15l-.18-.1-3.68,2.26a.69.69,0,0,0-.3.41.41.41,0,0,0,0,.16A6.3,6.3,0,0,0,1051.77,240Z" transform="translate(-1024.02 -205.84)"/>
            <path class="cls-6" d="M1051.72,238.08a3.94,3.94,0,0,0,4.26-2.42,1.28,1.28,0,0,0-.1-.15l-.18-.1-3.68,2.26A.69.69,0,0,0,1051.72,238.08Z" transform="translate(-1024.02 -205.84)"/>
          </g>
        </g>
      </g>
    </g>
  </g>
</svg>
