<svg id="레이어_1" data-name="레이어 1" xmlns="http://www.w3.org/2000/svg" viewBox="0 0 315.59 150.22">
  <defs>
    <style>
      .cls-1 {
        fill: #d7e7f7;
      }

      .cls-2 {
        fill: #abbecf;
      }

      .cls-3 {
        fill: #8ca4bb;
      }

      .cls-4 {
        fill: #c2cfda;
      }

      .cls-5 {
        fill: #fefeff;
      }

      .cls-6 {
        fill: #f8f9fc;
      }

      .cls-7 {
        fill: #9cb5cc;
      }
    </style>
  </defs>
  <g>
    <polygon class="cls-1" points="180.02 147.06 155.54 136.58 164.76 122.07 180.02 147.06"/>
    <polygon class="cls-2" points="155.54 136.58 154.48 136.13 164.76 122.07 155.54 136.58"/>
    <polygon class="cls-2" points="180.02 147.06 155.35 136.89 155.54 136.58 180.02 147.06"/>
    <polygon class="cls-3" points="155.35 136.89 154.25 136.44 154.48 136.13 155.54 136.58 155.35 136.89"/>
    <polygon class="cls-4" points="155.35 136.89 153.74 139.42 149.15 137.06 149.67 136.56 152.98 138.17 154.25 136.44 155.35 136.89"/>
    <polygon class="cls-3" points="149.67 136.56 149.15 137.06 148.6 136.78 149.08 136.28 149.67 136.56"/>
    <polygon class="cls-2" points="149.08 136.28 148.6 136.78 122.25 123.25 149.08 136.28"/>
    <polygon class="cls-5" points="164.76 122.07 154.48 136.13 154.25 136.44 152.98 138.17 149.67 136.56 149.08 136.28 122.25 123.25 164.76 122.07"/>
    <polygon class="cls-2" points="148.6 136.78 149.15 137.06 137.51 148.24 148.6 136.78"/>
    <polygon class="cls-6" points="180.02 147.06 137.51 148.24 149.15 137.06 153.74 139.42 155.35 136.89 180.02 147.06"/>
    <polygon class="cls-7" points="180.02 147.06 178.93 149.05 136.42 150.22 137.51 148.24 180.02 147.06"/>
    <polygon class="cls-7" points="137.51 148.24 136.42 150.22 121.16 125.24 122.25 123.25 137.51 148.24"/>
    <polygon class="cls-1" points="122.25 123.25 148.6 136.78 137.51 148.24 122.25 123.25"/>
  </g>
  <g>
    <polygon class="cls-1" points="77.77 126.8 93.36 122.04 88.71 112.6 77.77 126.8"/>
    <polygon class="cls-2" points="93.36 122.04 94.04 121.83 88.71 112.6 93.36 122.04"/>
    <polygon class="cls-2" points="77.77 126.8 93.46 122.24 93.36 122.04 77.77 126.8"/>
    <polygon class="cls-3" points="93.46 122.24 94.15 122.04 94.04 121.83 93.36 122.04 93.46 122.24"/>
    <polygon class="cls-4" points="93.46 122.24 94.27 123.89 97.22 122.75 96.93 122.42 94.81 123.18 94.15 122.04 93.46 122.24"/>
    <polygon class="cls-3" points="96.93 122.42 97.22 122.75 97.57 122.62 97.31 122.28 96.93 122.42"/>
    <polygon class="cls-2" points="97.31 122.28 97.57 122.62 114.5 116.13 97.31 122.28"/>
    <polygon class="cls-5" points="88.71 112.6 94.04 121.83 94.15 122.04 94.81 123.18 96.93 122.42 97.31 122.28 114.5 116.13 88.71 112.6"/>
    <polygon class="cls-2" points="97.57 122.62 97.22 122.75 103.56 130.33 97.57 122.62"/>
    <polygon class="cls-6" points="77.77 126.8 103.56 130.33 97.22 122.75 94.27 123.89 93.46 122.24 77.77 126.8"/>
    <polygon class="cls-7" points="77.77 126.8 78.3 128.08 104.09 131.61 103.56 130.33 77.77 126.8"/>
    <polygon class="cls-7" points="103.56 130.33 104.09 131.61 115.03 117.41 114.5 116.13 103.56 130.33"/>
    <polygon class="cls-1" points="114.5 116.13 97.57 122.62 103.56 130.33 114.5 116.13"/>
  </g>
  <g>
    <polygon class="cls-1" points="30.67 39.93 17.63 40.32 18.73 31.97 30.67 39.93"/>
    <polygon class="cls-2" points="17.63 40.32 17.06 40.34 18.73 31.97 17.63 40.32"/>
    <polygon class="cls-2" points="30.67 39.93 17.6 40.49 17.63 40.32 30.67 39.93"/>
    <polygon class="cls-3" points="17.6 40.49 17.02 40.52 17.06 40.34 17.63 40.32 17.6 40.49"/>
    <polygon class="cls-4" points="17.6 40.49 17.41 41.95 14.88 41.85 15.01 41.52 16.82 41.55 17.02 40.52 17.6 40.49"/>
    <polygon class="cls-3" points="15.01 41.52 14.88 41.85 14.58 41.84 14.69 41.52 15.01 41.52"/>
    <polygon class="cls-2" points="14.69 41.52 14.58 41.84 0.07 41.26 14.69 41.52"/>
    <polygon class="cls-5" points="18.73 31.97 17.06 40.34 17.02 40.52 16.82 41.55 15.01 41.52 14.69 41.52 0.07 41.26 18.73 31.97"/>
    <polygon class="cls-2" points="14.58 41.84 14.88 41.85 12.01 49.22 14.58 41.84"/>
    <polygon class="cls-6" points="30.67 39.93 12.01 49.22 14.88 41.85 17.41 41.95 17.6 40.49 30.67 39.93"/>
    <polygon class="cls-7" points="30.67 39.93 30.6 41.04 11.94 50.33 12.01 49.22 30.67 39.93"/>
    <polygon class="cls-7" points="12.01 49.22 11.94 50.33 0 42.37 0.07 41.26 12.01 49.22"/>
    <polygon class="cls-1" points="0.07 41.26 14.58 41.84 12.01 49.22 0.07 41.26"/>
  </g>
  <g>
    <polygon class="cls-1" points="76.67 84.28 55.91 86.25 56.81 72.81 76.67 84.28"/>
    <polygon class="cls-2" points="55.91 86.25 55 86.33 56.81 72.81 55.91 86.25"/>
    <polygon class="cls-2" points="76.67 84.28 55.89 86.53 55.91 86.25 76.67 84.28"/>
    <polygon class="cls-3" points="55.89 86.53 54.96 86.63 55 86.33 55.91 86.25 55.89 86.53"/>
    <polygon class="cls-4" points="55.89 86.53 55.73 88.87 51.69 88.97 51.86 88.44 54.74 88.3 54.96 86.63 55.89 86.53"/>
    <polygon class="cls-3" points="51.86 88.44 51.69 88.97 51.2 88.99 51.34 88.46 51.86 88.44"/>
    <polygon class="cls-2" points="51.34 88.46 51.2 88.99 28 89.55 51.34 88.46"/>
    <polygon class="cls-5" points="56.81 72.81 55 86.33 54.96 86.63 54.74 88.3 51.86 88.44 51.34 88.46 28 89.55 56.81 72.81"/>
    <polygon class="cls-2" points="51.2 88.99 51.69 88.97 47.87 101.02 51.2 88.99"/>
    <polygon class="cls-6" points="76.67 84.28 47.87 101.02 51.69 88.97 55.73 88.87 55.89 86.53 76.67 84.28"/>
    <polygon class="cls-7" points="76.67 84.28 76.67 86.06 47.86 102.8 47.87 101.02 76.67 84.28"/>
    <polygon class="cls-7" points="47.87 101.02 47.86 102.8 28 91.33 28 89.55 47.87 101.02"/>
    <polygon class="cls-1" points="28 89.55 51.2 88.99 47.87 101.02 28 89.55"/>
  </g>
  <g>
    <polygon class="cls-1" points="315.59 20.88 297.11 22.63 297.91 10.67 315.59 20.88"/>
    <polygon class="cls-2" points="297.11 22.63 296.3 22.7 297.91 10.67 297.11 22.63"/>
    <polygon class="cls-2" points="315.59 20.88 297.09 22.88 297.11 22.63 315.59 20.88"/>
    <polygon class="cls-3" points="297.09 22.88 296.27 22.97 296.3 22.7 297.11 22.63 297.09 22.88"/>
    <polygon class="cls-4" points="297.09 22.88 296.95 24.96 293.35 25.05 293.5 24.57 296.07 24.45 296.27 22.97 297.09 22.88"/>
    <polygon class="cls-3" points="293.5 24.57 293.35 25.05 292.92 25.06 293.05 24.6 293.5 24.57"/>
    <polygon class="cls-2" points="293.05 24.6 292.92 25.06 272.27 25.57 293.05 24.6"/>
    <polygon class="cls-5" points="297.91 10.67 296.3 22.7 296.27 22.97 296.07 24.45 293.5 24.57 293.05 24.6 272.27 25.57 297.91 10.67"/>
    <polygon class="cls-2" points="292.92 25.06 293.35 25.05 289.96 35.77 292.92 25.06"/>
    <polygon class="cls-6" points="315.59 20.88 289.96 35.77 293.35 25.05 296.95 24.96 297.09 22.88 315.59 20.88"/>
    <polygon class="cls-7" points="315.59 20.88 315.59 22.46 289.95 37.36 289.96 35.77 315.59 20.88"/>
    <polygon class="cls-7" points="289.96 35.77 289.95 37.36 272.27 27.15 272.27 25.57 289.96 35.77"/>
    <polygon class="cls-1" points="272.27 25.57 292.92 25.06 289.96 35.77 272.27 25.57"/>
  </g>
  <g>
    <polygon class="cls-1" points="242.5 15.27 247.13 8.7 242.46 6.43 242.5 15.27"/>
    <polygon class="cls-2" points="247.13 8.7 247.33 8.42 242.46 6.43 247.13 8.7"/>
    <polygon class="cls-2" points="242.5 15.27 247.23 8.75 247.13 8.7 242.5 15.27"/>
    <polygon class="cls-3" points="247.23 8.75 247.44 8.46 247.33 8.42 247.13 8.7 247.23 8.75"/>
    <polygon class="cls-4" points="247.23 8.75 248.04 9.14 248.85 7.81 248.64 7.77 248.04 8.71 247.44 8.46 247.23 8.75"/>
    <polygon class="cls-3" points="248.64 7.77 248.85 7.81 248.95 7.65 248.75 7.6 248.64 7.77"/>
    <polygon class="cls-2" points="248.75 7.6 248.95 7.65 253.58 0 248.75 7.6"/>
    <polygon class="cls-5" points="242.46 6.43 247.33 8.42 247.44 8.46 248.04 8.71 248.64 7.77 248.75 7.6 253.58 0 242.46 6.43"/>
    <polygon class="cls-2" points="248.95 7.65 248.85 7.81 253.61 8.84 248.95 7.65"/>
    <polygon class="cls-6" points="242.5 15.27 253.61 8.84 248.85 7.81 248.04 9.14 247.23 8.75 242.5 15.27"/>
    <polygon class="cls-7" points="242.5 15.27 243.09 15.61 254.21 9.18 253.61 8.84 242.5 15.27"/>
    <polygon class="cls-7" points="253.61 8.84 254.21 9.18 254.17 0.34 253.58 0 253.61 8.84"/>
    <polygon class="cls-1" points="253.58 0 248.95 7.65 253.61 8.84 253.58 0"/>
  </g>
  <g>
    <polygon class="cls-1" points="250.24 92.64 237.25 93.88 237.81 85.47 250.24 92.64"/>
    <polygon class="cls-2" points="237.25 93.88 236.68 93.93 237.81 85.47 237.25 93.88"/>
    <polygon class="cls-2" points="250.24 92.64 237.24 94.05 237.25 93.88 250.24 92.64"/>
    <polygon class="cls-3" points="237.24 94.05 236.66 94.11 236.68 93.93 237.25 93.88 237.24 94.05"/>
    <polygon class="cls-4" points="237.24 94.05 237.14 95.52 234.61 95.58 234.72 95.24 236.52 95.16 236.66 94.11 237.24 94.05"/>
    <polygon class="cls-3" points="234.72 95.24 234.61 95.58 234.31 95.59 234.4 95.26 234.72 95.24"/>
    <polygon class="cls-2" points="234.4 95.26 234.31 95.59 219.79 95.94 234.4 95.26"/>
    <polygon class="cls-5" points="237.81 85.47 236.68 93.93 236.66 94.11 236.52 95.16 234.72 95.24 234.4 95.26 219.79 95.94 237.81 85.47"/>
    <polygon class="cls-2" points="234.31 95.59 234.61 95.58 232.22 103.12 234.31 95.59"/>
    <polygon class="cls-6" points="250.24 92.64 232.22 103.12 234.61 95.58 237.14 95.52 237.24 94.05 250.24 92.64"/>
    <polygon class="cls-7" points="250.24 92.64 250.24 93.76 232.22 104.23 232.22 103.12 250.24 92.64"/>
    <polygon class="cls-7" points="232.22 103.12 232.22 104.23 219.79 97.05 219.79 95.94 232.22 103.12"/>
    <polygon class="cls-1" points="219.79 95.94 234.31 95.59 232.22 103.12 219.79 95.94"/>
  </g>
</svg>
