<svg xmlns="http://www.w3.org/2000/svg" viewBox="0 0 18.01 51.75">
  <defs>
    <style>
      .cls-1 {
        isolation: isolate;
      }

      .cls-2 {
        fill: #d1321f;
      }

      .cls-3 {
        opacity: 0.29;
      }

      .cls-3, .cls-8 {
        mix-blend-mode: multiply;
      }

      .cls-4 {
        fill: #276c2e;
      }

      .cls-5 {
        fill: #fde0af;
      }

      .cls-6 {
        fill: #6d4d41;
      }

      .cls-7 {
        fill: #e44021;
      }

      .cls-8 {
        fill: #f9beae;
      }

      .cls-9 {
        fill: #733513;
      }

      .cls-10 {
        fill: #fff;
      }

      .cls-11 {
        fill: #543428;
      }
    </style>
  </defs>
  <g class="cls-1">
    <g id="레이어_1" data-name="레이어 1">
      <g>
        <path class="cls-2" d="M1074,853.71c-2.66-1-.89-1.78-.59-2.22-1.33-1.77.88-3.1,2.95-1.33S1074,853.71,1074,853.71Z" transform="translate(-1070.77 -842.19)"/>
        <g class="cls-3">
          <path class="cls-4" d="M1077.24,850.6c-3.1-1.47-4.14-.29-3.4.89-.74.59-.15,1.62,1.48,1.33a4.1,4.1,0,0,0,2.51-1.92Z" transform="translate(-1070.77 -842.19)"/>
        </g>
        <path class="cls-5" d="M1087.3,864.87a1.58,1.58,0,0,1,1.24.24c.41.41-.3.69-.3.69.93,1.51.36,1.74.36,1.74-.82.81-1.22.4-1.22.4-.62-.32-1.38-2.23-1.38-2.23Z" transform="translate(-1070.77 -842.19)"/>
        <path class="cls-2" d="M1087.76,864.72l-5.17-5.8s-.35-5.76-1.22-8.08l-2.53,1.27-.87.44s1.2,7.27,2,8,5.57,5.14,6.12,5.63v0l0,0h0Z" transform="translate(-1070.77 -842.19)"/>
        <path class="cls-2" d="M1084.94,891.16c.15-.61-2.08-2.06-2.08-2.06l-2.71-.26c-.6,1.24-.55,1.66,0,2,3.64,1.57,4.39,1.1,4.39,1.1S1084.8,891.77,1084.94,891.16Z" transform="translate(-1070.77 -842.19)"/>
        <path class="cls-2" d="M1076.31,893.16c.17-.6-2-2.15-2-2.15l-2.7-.36c-.65,1.21-.61,1.63-.1,2,3.57,1.72,4.34,1.29,4.34,1.29S1076.14,893.76,1076.31,893.16Z" transform="translate(-1070.77 -842.19)"/>
        <path class="cls-6" d="M1081.58,865.55l1.1,11.19.26,12.43s-.6.76-3.15.55l-1.16-10.65-3.89-16.24Z" transform="translate(-1070.77 -842.19)"/>
        <path class="cls-6" d="M1077.49,866.92l-3,24.15s-.67.69-3.19.17l.26-24.68Z" transform="translate(-1070.77 -842.19)"/>
        <path class="cls-7" d="M1071.35,855.33v13.3s6.9,3.09,10.45-2l-.3-15.08a2.69,2.69,0,0,0-.75-1.39,2.07,2.07,0,0,0-2.45-.33l-5.5,3a2.76,2.76,0,0,0-1.45,2.44Z" transform="translate(-1070.77 -842.19)"/>
        <path class="cls-5" d="M1077.88,852.18s-2.08.63-3-.36v-5.29l.42.42,2.3,2.33.21,2.22Z" transform="translate(-1070.77 -842.19)"/>
        <path class="cls-8" d="M1077.82,851.5c-1.56-.61-2.48-1.93-2.51-4.55l2.3,2.33Z" transform="translate(-1070.77 -842.19)"/>
        <path class="cls-5" d="M1079,843.93s2.47,6.56-.33,6.67-4.35-2.85-4.35-2.85l1.19-2.86Z" transform="translate(-1070.77 -842.19)"/>
        <path class="cls-9" d="M1079.55,842.84a1.84,1.84,0,0,0-2.75,0c-3.13.17-6.36,3.83-1.91,6.61v-.68l.46-.6c1-.2.56-1.9.56-1.9C1079.47,846.48,1080.88,844.3,1079.55,842.84Z" transform="translate(-1070.77 -842.19)"/>
        <path class="cls-5" d="M1075.57,847.64a.89.89,0,0,1,.2,1.22,1,1,0,0,1-1.43-1.38A.9.9,0,0,1,1075.57,847.64Z" transform="translate(-1070.77 -842.19)"/>
        <path class="cls-7" d="M1074.88,851.39c.75,1.25,3.36,1.05,2.95.1l.74.89s-.89.88-1.33.88a14.93,14.93,0,0,1-2.22-.59l-.3-.83.16-.05S1074.81,851.29,1074.88,851.39Z" transform="translate(-1070.77 -842.19)"/>
        <path class="cls-10" d="M1077.46,856.08l-.15,0a2.25,2.25,0,0,0-.51-1.45c-.37-.55-.74-1.13-.21-1.83l.12.08c-.47.63-.15,1.11.21,1.67A2.4,2.4,0,0,1,1077.46,856.08Z" transform="translate(-1070.77 -842.19)"/>
        <path class="cls-10" d="M1079.47,855.46a2.76,2.76,0,0,1-.55-1.64c-.11-.85-.21-1.37-.86-1.3l0-.14c.83-.1.92.64,1,1.42a2.69,2.69,0,0,0,.52,1.55Z" transform="translate(-1070.77 -842.19)"/>
        <path class="cls-10" d="M1080.12,855.48a.38.38,0,0,1-.37.37.37.37,0,0,1-.37-.37.36.36,0,0,1,.37-.37A.37.37,0,0,1,1080.12,855.48Z" transform="translate(-1070.77 -842.19)"/>
        <path class="cls-10" d="M1077.83,856.14a.37.37,0,1,1-.74,0,.37.37,0,1,1,.74,0Z" transform="translate(-1070.77 -842.19)"/>
        <path class="cls-7" d="M1080.93,864.34l-8.86,2.51c-1.33.29-.74,1.77-.74,1.77l3-.3,7.54-1.77S1083,865.67,1080.93,864.34Z" transform="translate(-1070.77 -842.19)"/>
        <path class="cls-5" d="M1078.48,868.16s.85.07,1.13.57-.48.59-.48.59c.48,1.7-.12,1.76-.12,1.76-1,.57-1.29.06-1.29.06-.51-.48-.72-2.52-.72-2.52Z" transform="translate(-1070.77 -842.19)"/>
        <path class="cls-2" d="M1079,868.14l-3.41-7a51.78,51.78,0,0,0-1.3-5.76,1.78,1.78,0,0,0-2.24-1.18h0a1.79,1.79,0,0,0-1,.85,1.72,1.72,0,0,0-.16,1.32,45.43,45.43,0,0,0,1.74,5.64c.51.87,4,6.46,4.35,7.08v0l0,0v0Z" transform="translate(-1070.77 -842.19)"/>
        <g>
          <polygon class="cls-11" points="14.12 15.48 4.02 18.26 3.96 19.02 15.18 16.64 14.12 15.48"/>
          <polygon class="cls-11" points="10.44 18.8 5.6 22.48 5.95 22.86 15.63 18.44 10.44 18.8"/>
          <polygon class="cls-6" points="15.99 15.9 3.49 20.14 4.54 21.31 16.58 18.2 15.99 15.9"/>
          <polygon class="cls-11" points="5.91 22.58 13.9 18.35 14.37 18.82 5.91 23.99 5.91 22.58"/>
          <polygon class="cls-11" points="10.14 22.58 15.31 22.11 15.31 22.58 6.65 25.47 10.14 22.58"/>
          <polygon class="cls-6" points="4.96 23.99 15.31 19.29 15.31 20.7 5.91 25.88 4.96 23.99"/>
        </g>
      </g>
    </g>
  </g>
</svg>
