<svg id="레이어_1" data-name="레이어 1" xmlns="http://www.w3.org/2000/svg" viewBox="0 0 154.22 248">
  <defs>
    <style>
      .cls-1 {
        fill: #c1272d;
      }

      .cls-2 {
        fill: #ed1c24;
      }

      .cls-3 {
        fill: #fff;
      }

      .cls-4 {
        fill: #012028;
      }

      .cls-5 {
        fill: #f15a24;
      }
    </style>
  </defs>
  <g>
    <polygon class="cls-1" points="13.39 181.76 11.1 183.08 11.1 214.56 13.39 213.24 13.39 181.76"/>
    <polygon class="cls-1" points="0 47.53 0 76.69 0 208.19 11.11 214.6 11.11 194.54 57.86 221.54 57.86 241.59 68.96 248 68.96 116.5 52.55 77.13 0 47.53"/>
    <g>
      <polygon class="cls-2" points="52.27 77.56 68.96 116.5 68.97 248 80.08 241.59 80.07 221.54 143.12 185.14 143.12 205.19 154.22 198.78 154.22 67.28 134.27 30.23 52.27 77.56"/>
      <g>
        <path class="cls-3" d="M1055.66,212.52a3.16,3.16,0,0,0-1.44,2.49c0,.92.64,1.29,1.44.83l13.57-7.84v-3.32Z" transform="translate(-969.72 -56.46)"/>
        <path class="cls-3" d="M1055.66,223.24a3.16,3.16,0,0,0-1.44,2.49c0,.92.64,1.28,1.44.82l13.57-7.84V215.4Z" transform="translate(-969.72 -56.46)"/>
        <path class="cls-3" d="M1055.61,234a3.16,3.16,0,0,0-1.44,2.48c0,.92.64,1.3,1.44.83l13.58-7.84v-3.31Z" transform="translate(-969.72 -56.46)"/>
        <polygon class="cls-3" points="135.74 124.9 105.41 142.41 120.57 146.38 135.74 124.9"/>
        <polygon class="cls-3" points="102.41 145.77 102.41 173.71 138.74 152.73 138.74 124.8 120.57 150.51 102.41 145.77"/>
      </g>
    </g>
    <polygon class="cls-4" points="149.26 69.36 73.73 112.96 67.97 99.68 61.96 85.82 135.13 43.58 149.26 69.36"/>
    <polygon class="cls-1" points="135.12 43.58 135.12 66.9 149.26 69.35 135.12 43.58"/>
    <polygon class="cls-2" points="149.26 69.36 73.73 112.96 67.97 99.68 135.13 60.9 149.26 69.36"/>
    <polygon class="cls-5" points="134.3 30.23 52.35 77.76 0 47.53 81.95 0 134.3 30.23"/>
    <path class="cls-1" d="M1022.07,128a1.08,1.08,0,0,1-.53-.14l-39.77-23a1.05,1.05,0,0,1-.53-.91,1.07,1.07,0,0,1,.52-.91l69.39-40.25a1,1,0,0,1,1,0l39.78,23a1.08,1.08,0,0,1,.53.91,1.06,1.06,0,0,1-.53.91l-69.39,40.25A1.07,1.07,0,0,1,1022.07,128Zm-37.69-24,37.68,21.75,67.3-39-37.68-21.76Z" transform="translate(-969.72 -56.46)"/>
    <path class="cls-1" d="M1047.65,270.93a.91.91,0,0,1-.42-.11.86.86,0,0,1-.43-.74v-95a.85.85,0,0,1,.43-.74l68.22-39.39a.86.86,0,0,1,1.29.74v95a.89.89,0,0,1-.43.75l-68.23,39.39A.92.92,0,0,1,1047.65,270.93Zm.86-95.38v93l66.51-38.4v-93Z" transform="translate(-969.72 -56.46)"/>
  </g>
</svg>
