<svg xmlns="http://www.w3.org/2000/svg" viewBox="0 0 237.97 408.5">
  <defs>
    <style>
      .cls-1 {
        fill: #b72934;
      }

      .cls-2 {
        fill: #ff4106;
      }

      .cls-3, .cls-8 {
        stroke: #b52600;
      }

      .cls-3, .cls-6, .cls-8 {
        stroke-miterlimit: 10;
      }

      .cls-3 {
        stroke-width: 1.28px;
      }

      .cls-4 {
        fill: #ad2500;
      }

      .cls-5 {
        font-size: 35.67px;
        font-family: AdobeMyungjoStd-Medium-KSCpc-EUC-H, Adobe Myungjo Std;
      }

      .cls-6, .cls-8 {
        fill: none;
      }

      .cls-6 {
        stroke: #ad2500;
        stroke-width: 1.51px;
      }

      .cls-7 {
        fill: #fff;
      }

      .cls-8 {
        stroke-width: 1.55px;
      }
    </style>
  </defs>
  <g id="레이어_2" data-name="레이어 2">
    <g id="레이어_1-2" data-name="레이어 1">
      <g>
        <polygon class="cls-1" points="0 111.9 69.3 153.24 92.64 210.76 94.77 408.5 77.55 401.11 77.34 382.89 21.15 357.47 20.48 377.64 2.97 369.85 0 111.9"/>
        <polygon class="cls-2" points="69.3 153.24 92.64 210.76 235.84 149.1 207.94 94.16 69.3 153.24"/>
        <polygon class="cls-3" points="78.41 159.53 98.07 204.55 230.42 149.5 207.88 105.71 78.41 159.53"/>
        <polygon class="cls-2" points="92.5 210.75 94.77 408.5 112.49 401.63 112.26 381.01 222.4 335.87 223.46 354.62 237.97 347.58 235.69 149.09 92.5 210.75"/>
        <polygon class="cls-2" points="90.59 185.78 208.97 137.57 229.49 149.16 98.42 203.72 90.59 185.78"/>
        <polygon class="cls-4" points="207.57 106.56 208.97 137.57 229.49 149.16 207.57 106.56"/>
        <text class="cls-5" transform="matrix(1.04, 0.06, 0.01, 1, 13.8, 31.39)"><tspan xml:space="preserve">     </tspan></text>
        <polygon class="cls-6" points="231.53 321.57 104.03 373.74 101.54 213.53 230.54 160.57 231.53 321.57"/>
        <polygon class="cls-2" points="0 111.9 137.25 52.23 207.94 94.16 69.3 153.24 0 111.9"/>
        <g>
          <path class="cls-7" d="M121.64,265.84a4.73,4.73,0,0,0-2.73,3.68c-.12,1.47.91,2.22,2.31,1.66L145,261.71l.42-5.33Z"/>
          <path class="cls-7" d="M120.29,283.09a4.68,4.68,0,0,0-2.73,3.67c-.12,1.47.91,2.2,2.31,1.65l23.73-9.47.42-5.32Z"/>
          <path class="cls-7" d="M118.86,300.34a4.72,4.72,0,0,0-2.73,3.65c-.12,1.5.9,2.24,2.31,1.67l23.73-9.46.42-5.32Z"/>
          <polygon class="cls-7" points="208.99 227.24 155.97 248.38 180.87 258.28 208.99 227.24"/>
          <polygon class="cls-7" points="150.53 253.09 147.02 298.02 210.53 272.69 214.05 227.76 180.35 264.92 150.53 253.09"/>
        </g>
        <polygon class="cls-8" points="12.47 111.7 70.5 146.16 196.79 93.55 137.57 57.98 12.47 111.7"/>
        <g>
          <path class="cls-7" d="M65.82,108.75l2.59-1,21.43,12.11-2.58,1Zm18.32,6.92a11.11,11.11,0,0,1-3-.64l-3.18-2a8,8,0,0,0,1.7.74,5.89,5.89,0,0,0,1.6.27,3.75,3.75,0,0,0,1.37-.24c.64-.26.86-.62.67-1.07a4.22,4.22,0,0,0-1.81-1.53l-2.86-1.62a9.88,9.88,0,0,0-2.92-1.14,4.14,4.14,0,0,0-2.33.13,1.14,1.14,0,0,0-.74.6.84.84,0,0,0,.28.79,5.23,5.23,0,0,0,1.25.93l-3.38-1.69a2.41,2.41,0,0,1-.81-1.67c0-.49.38-.86,1-1.12a6.61,6.61,0,0,1,2.79-.39,12.78,12.78,0,0,1,3.49.72,22.45,22.45,0,0,1,3.93,1.79L84,110.21a13.7,13.7,0,0,1,3,2.12,2.27,2.27,0,0,1,.87,1.76q-.12.78-1.32,1.26A5.61,5.61,0,0,1,84.14,115.67Z"/>
          <path class="cls-7" d="M94.4,111.44a13.25,13.25,0,0,1-3.89-.63,20.47,20.47,0,0,1-4.14-1.8l-2.49-1.4a11.27,11.27,0,0,1-3-2.23,2,2,0,0,1-.63-1.92A2.82,2.82,0,0,1,82.05,102a8.7,8.7,0,0,1,3.33-.59,13.65,13.65,0,0,1,3.87.61,20.14,20.14,0,0,1,4.1,1.78l2.53,1.43a11.26,11.26,0,0,1,3,2.24,2,2,0,0,1,.64,1.92,2.82,2.82,0,0,1-1.78,1.47A8.71,8.71,0,0,1,94.4,111.44Zm.72-3.61a4.15,4.15,0,0,0-1.82-1.57l-2.53-1.43a9.51,9.51,0,0,0-2.93-1.11,4.46,4.46,0,0,0-2.42.17q-1,.42-.75,1.11a4,4,0,0,0,1.8,1.57L89,108a9.28,9.28,0,0,0,3,1.13,4.32,4.32,0,0,0,2.43-.17C95.06,108.68,95.31,108.3,95.12,107.83Z"/>
          <path class="cls-7" d="M89.93,99,92.62,98l15.24,8.61-2.69,1.08Zm8.95-.37a3.21,3.21,0,0,0-1.08.24q-1,.39-.72,1a3.62,3.62,0,0,0,1.65,1.45l-3.68-1.86a2.58,2.58,0,0,1-.85-1.71c0-.5.34-.87,1-1.12a5.48,5.48,0,0,1,1.63-.37,8.42,8.42,0,0,1,1.92.08l1.38,2.31A4.67,4.67,0,0,0,98.88,98.66Z"/>
          <path class="cls-7" d="M115.82,102.8a14.62,14.62,0,0,1-4-.62,20.65,20.65,0,0,1-4.3-1.86l-1.72-1a13.56,13.56,0,0,1-3.29-2.41,2.27,2.27,0,0,1-.79-2c.17-.6.76-1.11,1.78-1.52a7.66,7.66,0,0,1,3.43-.44,17.16,17.16,0,0,1,4.39,1,30.43,30.43,0,0,1,5,2.31l1,.56-7.62,3.07-2.57-1.45,5.22-2.1-.17-.09A12.19,12.19,0,0,0,109,95.06a4.24,4.24,0,0,0-2.36.1c-.78.32-1.05.74-.81,1.29A5,5,0,0,0,108,98.3l1.94,1.09a10,10,0,0,0,3.35,1.23,5.43,5.43,0,0,0,2.88-.26,1.9,1.9,0,0,0,.93-.69,1.33,1.33,0,0,0,.2-1l3.83.53a2.13,2.13,0,0,1-.24,1.72,3.08,3.08,0,0,1-1.55,1.2A9.4,9.4,0,0,1,115.82,102.8Z"/>
          <path class="cls-7" d="M128.45,98.23a16,16,0,0,1-2.46.25,18.31,18.31,0,0,1-2.65-.11l-1.08-2.12a18.71,18.71,0,0,0,3,0,7.59,7.59,0,0,0,2.16-.46c.78-.32,1.24-.64,1.35-1s-.09-.65-.64-1a3,3,0,0,0-1.25-.41,3.92,3.92,0,0,0-1.19.06c-.39.08-.89.21-1.52.4l-.32.1-.33.09-.1,0-.09,0a15.71,15.71,0,0,1-2.43.5,7.54,7.54,0,0,1-2.48-.17,11,11,0,0,1-3.08-1.25,6.51,6.51,0,0,1-2.14-1.7,1.29,1.29,0,0,1-.12-1.53,3.87,3.87,0,0,1,1.89-1.3,11.27,11.27,0,0,1,1.91-.55,17,17,0,0,1,2.24-.26,23.53,23.53,0,0,1,2.5,0l1,2.07a17.57,17.57,0,0,0-2.58.08,7.62,7.62,0,0,0-1.9.44c-.68.28-1.06.56-1.15.85s.13.58.65.88a2.32,2.32,0,0,0,1,.31,4,4,0,0,0,1.09-.09c.36-.08.84-.22,1.47-.4l.19,0,.19-.06.07,0,.11,0a17.39,17.39,0,0,1,2.54-.56,8.48,8.48,0,0,1,2.68.17,11.73,11.73,0,0,1,3.37,1.35,6.39,6.39,0,0,1,2.19,1.76,1.33,1.33,0,0,1,.07,1.59,4.48,4.48,0,0,1-2,1.37A11.68,11.68,0,0,1,128.45,98.23Z"/>
          <path class="cls-7" d="M137.75,93.59a11.87,11.87,0,0,1-3.67-1.43l-15.71-8.88,2.58-1,15.23,8.6a3.8,3.8,0,0,0,1,.42,1.31,1.31,0,0,0,.77,0l.9-.36,3.36,1.9-1.38.55A5.46,5.46,0,0,1,137.75,93.59Zm-16.1-7.34,5.27-2.13L130,85.86,124.71,88Z"/>
        </g>
      </g>
    </g>
  </g>
</svg>
