<svg id="레이어_1" data-name="레이어 1" xmlns="http://www.w3.org/2000/svg" xmlns:xlink="http://www.w3.org/1999/xlink" viewBox="0 0 229.39 166.69">
  <defs>
    <style>
      .cls-1 {
        fill: url(#쥔晤牆渾_藎雪猥粧_87);
      }

      .cls-2 {
        fill: #788eff;
      }

      .cls-3 {
        fill: #f8f6fa;
      }

      .cls-4 {
        fill: url(#쥔晤牆渾_藎雪猥粧_87-2);
      }

      .cls-5 {
        fill: url(#쥔晤牆渾_藎雪猥粧_87-3);
      }

      .cls-6 {
        fill: url(#쥔晤牆渾_藎雪猥粧_87-4);
      }

      .cls-7 {
        fill: url(#쥔晤牆渾_藎雪猥粧_87-5);
      }

      .cls-8 {
        fill: url(#쥔晤牆渾_藎雪猥粧_87-6);
      }

      .cls-9 {
        fill: url(#쥔晤牆渾_藎雪猥粧_87-7);
      }
    </style>
    <linearGradient id="쥔晤牆渾_藎雪猥粧_87" data-name="쥔晤牆渾 藎雪猥粧 87" x1="1817.95" y1="200.67" x2="1801.11" y2="229.85" gradientTransform="matrix(-1, 0, 0, 1, 2377.39, 0)" gradientUnits="userSpaceOnUse">
      <stop offset="0" stop-color="#eae5eb"/>
      <stop offset="1" stop-color="#e5e0e8"/>
    </linearGradient>
    <linearGradient id="쥔晤牆渾_藎雪猥粧_87-2" x1="1776.78" y1="257.33" x2="1759.94" y2="286.51" xlink:href="#쥔晤牆渾_藎雪猥粧_87"/>
    <linearGradient id="쥔晤牆渾_藎雪猥粧_87-3" x1="1653.35" y1="161.31" x2="1636.5" y2="190.49" xlink:href="#쥔晤牆渾_藎雪猥粧_87"/>
    <linearGradient id="쥔晤牆渾_藎雪猥粧_87-4" x1="1786.05" y1="156.63" x2="1800.02" y2="156.63" xlink:href="#쥔晤牆渾_藎雪猥粧_87"/>
    <linearGradient id="쥔晤牆渾_藎雪猥粧_87-5" x1="1597.36" y1="247.01" x2="1611.32" y2="247.01" xlink:href="#쥔晤牆渾_藎雪猥粧_87"/>
    <linearGradient id="쥔晤牆渾_藎雪猥粧_87-6" x1="1739.75" y1="185.7" x2="1753.72" y2="185.7" xlink:href="#쥔晤牆渾_藎雪猥粧_87"/>
    <linearGradient id="쥔晤牆渾_藎雪猥粧_87-7" x1="1667.3" y1="303.58" x2="1681.26" y2="303.58" xlink:href="#쥔晤牆渾_藎雪猥粧_87"/>
  </defs>
  <g>
    <g>
      <g id="Axonometric_Cylinder" data-name="Axonometric Cylinder">
        <path class="cls-1" d="M556.31,202.47c2.17-1.29,5.18-1.13,8.51.79,6.57,3.8,11.91,13,11.91,20.64,0,3.75-1.3,6.4-3.41,7.66l-2.27,1.31-17-29.09Z" transform="translate(-550.64 -147.02)"/>
        <path id="Cylinder_face" data-name="Cylinder face" class="cls-2" d="M574.46,225.2c0,7.6-5.33,10.68-11.91,6.88s-11.91-13-11.91-20.63,5.33-10.68,11.91-6.88S574.46,217.61,574.46,225.2Z" transform="translate(-550.64 -147.02)"/>
      </g>
      <path class="cls-3" d="M556,220.84c0,2,13,9.51,13,7.53v-2.54a7.43,7.43,0,0,0-3.57-5.64l-5.88-3.39c-2-1.14-3.57-.47-3.57,1.51Zm6.51-11.41a8.17,8.17,0,0,1,3.93,6.2c0,2.17-1.76,2.92-3.93,1.67a8.17,8.17,0,0,1-3.93-6.2C558.62,208.92,560.38,208.18,562.55,209.43Z" transform="translate(-550.64 -147.02)"/>
    </g>
    <g>
      <g id="Axonometric_Cylinder-2" data-name="Axonometric Cylinder">
        <path class="cls-4" d="M597.49,259.14c2.16-1.3,5.17-1.14,8.5.78,6.58,3.8,11.91,13,11.91,20.64,0,3.75-1.3,6.4-3.41,7.66l-2.27,1.31-17-29.09Z" transform="translate(-550.64 -147.02)"/>
        <path id="Cylinder_face-2" data-name="Cylinder face" class="cls-2" d="M615.64,281.86c0,7.6-5.34,10.68-11.92,6.88s-11.91-13-11.91-20.63,5.34-10.68,11.91-6.88S615.64,274.27,615.64,281.86Z" transform="translate(-550.64 -147.02)"/>
      </g>
      <path class="cls-3" d="M597.21,277.51c0,2,13,9.5,13,7.52v-2.54a7.41,7.41,0,0,0-3.58-5.64l-5.87-3.39c-2-1.14-3.58-.46-3.58,1.51Zm6.51-11.41a8.12,8.12,0,0,1,3.94,6.2c0,2.17-1.76,2.91-3.94,1.66a8.17,8.17,0,0,1-3.93-6.2C599.79,265.59,601.55,264.84,603.72,266.1Z" transform="translate(-550.64 -147.02)"/>
    </g>
    <g>
      <g id="Axonometric_Cylinder-3" data-name="Axonometric Cylinder">
        <path class="cls-5" d="M720.92,163.11c2.16-1.29,5.17-1.13,8.5.79,6.58,3.8,11.92,13,11.92,20.63,0,3.75-1.31,6.4-3.42,7.67l-2.26,1.31-17-29.09Z" transform="translate(-550.64 -147.02)"/>
        <path id="Cylinder_face-3" data-name="Cylinder face" class="cls-2" d="M739.07,185.84c0,7.6-5.33,10.67-11.91,6.88s-11.91-13-11.91-20.64,5.33-10.67,11.91-6.87S739.07,178.24,739.07,185.84Z" transform="translate(-550.64 -147.02)"/>
      </g>
      <path class="cls-3" d="M720.65,181.48c0,2,13,9.51,13,7.52v-2.53a7.41,7.41,0,0,0-3.57-5.64l-5.88-3.39c-2-1.15-3.57-.47-3.57,1.51Zm6.51-11.41a8.15,8.15,0,0,1,3.93,6.2c0,2.17-1.76,2.92-3.93,1.66a8.15,8.15,0,0,1-3.93-6.2C723.23,169.56,725,168.82,727.16,170.07Z" transform="translate(-550.64 -147.02)"/>
    </g>
    <g>
      <g id="Axonometric_Cylinder-4" data-name="Axonometric Cylinder">
        <path class="cls-6" d="M578.77,147.53c1.33-.8,3.18-.7,5.23.49a16.2,16.2,0,0,1,7.33,12.7c0,2.31-.8,3.94-2.1,4.72l-1.39.81-10.47-17.91Z" transform="translate(-550.64 -147.02)"/>
        <path id="Cylinder_face-4" data-name="Cylinder face" class="cls-2" d="M589.94,161.53c0,4.67-3.28,6.57-7.33,4.23a16.23,16.23,0,0,1-7.34-12.7c0-4.68,3.29-6.58,7.34-4.24A16.22,16.22,0,0,1,589.94,161.53Z" transform="translate(-550.64 -147.02)"/>
      </g>
      <path class="cls-3" d="M578.8,158.51c0,1.16,7.61,5.55,7.61,4.39v-1.48a4.3,4.3,0,0,0-2.09-3.29l-3.43-2c-1.15-.66-2.09-.27-2.09.89Zm3.81-6.67a4.78,4.78,0,0,1,2.29,3.62c0,1.27-1,1.71-2.29,1a4.75,4.75,0,0,1-2.3-3.62C580.31,151.54,581.34,151.11,582.61,151.84Z" transform="translate(-550.64 -147.02)"/>
    </g>
    <g>
      <g id="Axonometric_Cylinder-5" data-name="Axonometric Cylinder">
        <path class="cls-7" d="M767.46,237.91c1.33-.8,3.18-.7,5.23.49A16.2,16.2,0,0,1,780,251.1c0,2.31-.8,3.94-2.1,4.72l-1.4.8-10.47-17.9Z" transform="translate(-550.64 -147.02)"/>
        <path id="Cylinder_face-5" data-name="Cylinder face" class="cls-2" d="M778.63,251.9c0,4.68-3.28,6.58-7.33,4.24a16.23,16.23,0,0,1-7.34-12.7c0-4.68,3.29-6.58,7.34-4.24A16.22,16.22,0,0,1,778.63,251.9Z" transform="translate(-550.64 -147.02)"/>
      </g>
      <path class="cls-3" d="M767.49,248.89c0,1.16,7.61,5.55,7.61,4.39V251.8a4.32,4.32,0,0,0-2.08-3.29l-3.44-2c-1.15-.66-2.09-.27-2.09.89Zm3.81-6.67a4.75,4.75,0,0,1,2.3,3.62c0,1.27-1,1.71-2.3,1a4.75,4.75,0,0,1-2.3-3.62C769,241.92,770,241.49,771.3,242.22Z" transform="translate(-550.64 -147.02)"/>
    </g>
    <g>
      <g id="Axonometric_Cylinder-6" data-name="Axonometric Cylinder">
        <path class="cls-8" d="M625.07,176.6c1.33-.79,3.18-.69,5.23.49a16.22,16.22,0,0,1,7.33,12.7c0,2.31-.8,4-2.1,4.72l-1.39.81-10.47-17.91Z" transform="translate(-550.64 -147.02)"/>
        <path id="Cylinder_face-6" data-name="Cylinder face" class="cls-2" d="M636.24,190.6c0,4.68-3.28,6.57-7.33,4.23a16.21,16.21,0,0,1-7.34-12.7c0-4.68,3.29-6.57,7.34-4.24A16.22,16.22,0,0,1,636.24,190.6Z" transform="translate(-550.64 -147.02)"/>
      </g>
      <path class="cls-3" d="M625.1,187.58c0,1.16,7.61,5.56,7.61,4.4v-1.49a4.3,4.3,0,0,0-2.09-3.29l-3.43-2c-1.15-.67-2.09-.27-2.09.88Zm3.81-6.67a4.8,4.8,0,0,1,2.29,3.63c0,1.26-1,1.7-2.29,1a4.79,4.79,0,0,1-2.3-3.63C626.61,180.61,627.64,180.18,628.91,180.91Z" transform="translate(-550.64 -147.02)"/>
    </g>
    <g>
      <g id="Axonometric_Cylinder-7" data-name="Axonometric Cylinder">
        <path class="cls-9" d="M697.52,294.48c1.33-.8,3.18-.7,5.23.49a16.2,16.2,0,0,1,7.34,12.7c0,2.31-.8,3.94-2.1,4.72l-1.4.8-10.46-17.91Z" transform="translate(-550.64 -147.02)"/>
        <ellipse id="Cylinder_face-7" data-name="Cylinder face" class="cls-2" cx="701.36" cy="304.24" rx="5.99" ry="10.37" transform="translate(-608.79 244.42) rotate(-30)"/>
      </g>
      <path class="cls-3" d="M697.55,305.46c0,1.16,7.62,5.55,7.62,4.39v-1.48a4.36,4.36,0,0,0-2.09-3.3l-3.44-2c-1.15-.66-2.09-.27-2.09.89Zm3.81-6.67a4.75,4.75,0,0,1,2.3,3.62c0,1.27-1,1.71-2.3,1a4.75,4.75,0,0,1-2.3-3.62C699.06,298.49,700.09,298.06,701.36,298.79Z" transform="translate(-550.64 -147.02)"/>
    </g>
  </g>
</svg>
