<svg xmlns="http://www.w3.org/2000/svg" xmlns:xlink="http://www.w3.org/1999/xlink" viewBox="0 0 143.84 192.98">
  <defs>
    <style>
      .cls-1 {
        isolation: isolate;
      }

      .cls-2 {
        fill: url(#쥔晤牆渾_藎雪猥粧_7);
      }

      .cls-3 {
        fill: #d2ceca;
      }

      .cls-4, .cls-5 {
        fill: #999693;
      }

      .cls-4 {
        opacity: 0.8;
      }

      .cls-6 {
        fill: #bcb9b5;
      }

      .cls-7 {
        fill: #202020;
      }

      .cls-8 {
        fill: #584fd1;
      }

      .cls-9 {
        fill: #e0e0e0;
      }

      .cls-10 {
        fill: #556bdf;
      }

      .cls-11 {
        fill: #514799;
        opacity: 0.4;
      }

      .cls-11, .cls-29 {
        mix-blend-mode: multiply;
      }

      .cls-12 {
        fill: #898581;
      }

      .cls-13 {
        fill: #e0dbe1;
      }

      .cls-14 {
        fill: #fffefb;
      }

      .cls-15, .cls-16 {
        fill: #fff;
      }

      .cls-15 {
        opacity: 0.95;
        mix-blend-mode: screen;
      }

      .cls-17 {
        fill: #90bf1d;
      }

      .cls-18 {
        fill: #788eff;
      }

      .cls-19 {
        fill: #ababb2;
      }

      .cls-20 {
        fill: #ffb92c;
      }

      .cls-21 {
        fill: #ed3e46;
      }

      .cls-22 {
        fill: #7a47c8;
      }

      .cls-23 {
        fill: #47c6ae;
      }

      .cls-24 {
        fill: #5c76e5;
      }

      .cls-25 {
        fill: #ffbc8a;
      }

      .cls-26 {
        fill: #eda472;
      }

      .cls-27 {
        fill: #543b20;
      }

      .cls-28 {
        fill: #23252e;
      }

      .cls-29 {
        fill: #b7b3b0;
      }
    </style>
    <linearGradient id="쥔晤牆渾_藎雪猥粧_7" data-name="쥔晤牆渾 藎雪猥粧 7" x1="1765.86" y1="404.98" x2="1758.57" y2="404.98" gradientTransform="matrix(-1, 0, 0, 1, 2672.33, 0)" gradientUnits="userSpaceOnUse">
      <stop offset="0" stop-color="#bcb9b5"/>
      <stop offset="1" stop-color="#999693"/>
    </linearGradient>
  </defs>
  <g class="cls-1">
    <g id="레이어_1" data-name="레이어 1">
      <g>
        <g id="_1" data-name="1">
          <g>
            <g class="cls-1">
              <path class="cls-2" d="M936,395.25l0,1.86-23.12,16.83-.29.18a5.59,5.59,0,0,1-5,0l-27.93-16a1.74,1.74,0,0,1-1-1.42v-.49Z" transform="translate(-835.64 -245.87)"/>
              <path class="cls-3" d="M879.65,394.83l.35-.17,29.62-14.5L936,395.25l-23.14,18.2a1.75,1.75,0,0,1-.29.18,5.61,5.61,0,0,1-5,0l-27.93-16C878.25,396.88,878.29,395.61,879.65,394.83Z" transform="translate(-835.64 -245.87)"/>
            </g>
            <polygon class="cls-4" points="73.98 134.29 100.38 149.38 100.36 151.24 90.74 158.25 90.74 157.06 61.45 140.43 73.98 134.29"/>
            <g class="cls-1">
              <path class="cls-5" d="M977.71,318.67l1.75-.35-10.12,96.61a1.36,1.36,0,0,1-.72,1.18l-1.24.53Z" transform="translate(-835.64 -245.87)"/>
              <path class="cls-3" d="M854.85,246a1.27,1.27,0,0,1,1.16.14l122,69.27a3.28,3.28,0,0,1,1.47,3l-1.24.54a3.28,3.28,0,0,0-1.47-3l-122-69.28a1.3,1.3,0,0,0-1.16-.13Z" transform="translate(-835.64 -245.87)"/>
              <path class="cls-6" d="M854.77,246.62c-.94-.53-1.77-.05-1.89,1l-10.12,96.61a3.25,3.25,0,0,0,1.47,3l122,69.27a1.2,1.2,0,0,0,1.89-1.05l10.12-96.6a3.28,3.28,0,0,0-1.47-3Z" transform="translate(-835.64 -245.87)"/>
              <path class="cls-7" d="M852.88,247.67c.12-1.1,1-1.58,1.89-1l122,69.28a3.28,3.28,0,0,1,1.47,3L969.52,402,844.17,330.78Z" transform="translate(-835.64 -245.87)"/>
              <polygon class="cls-8" points="11.83 83.38 19.88 6.51 139.32 74.34 131.27 151.21 11.83 83.38"/>
              <path class="cls-9" d="M854.85,246a1.27,1.27,0,0,1,1.16.14l-1.24.53a1.3,1.3,0,0,0-1.16-.13Z" transform="translate(-835.64 -245.87)"/>
              <path class="cls-9" d="M979.46,318.32l-1.24.54a3.28,3.28,0,0,0-1.47-3l1.24-.54A3.28,3.28,0,0,1,979.46,318.32Z" transform="translate(-835.64 -245.87)"/>
            </g>
            <path class="cls-10" d="M902.44,368.79a4.32,4.32,0,0,1,2,3.95,1.67,1.67,0,0,1-2.6,1.45,4.33,4.33,0,0,1-2-4A1.67,1.67,0,0,1,902.44,368.79Zm-.52,4.79a1.29,1.29,0,0,0,2-1.12,3.34,3.34,0,0,0-1.56-3,1.28,1.28,0,0,0-2,1.1A3.33,3.33,0,0,0,901.92,373.58Z" transform="translate(-835.64 -245.87)"/>
          </g>
          <g>
            <path class="cls-11" d="M835.84,406.91l56,31.79a1.15,1.15,0,0,0,1.05,0l21.78-11a1,1,0,0,0,.05-1.75l-54.88-31.16Z" transform="translate(-835.64 -245.87)"/>
            <g>
              <g class="cls-1">
                <path class="cls-12" d="M855.41,393.87l55.91,31.87a2,2,0,0,0,0,.34.91.91,0,0,0,.39.84l-55.9-31.86a.92.92,0,0,1-.39-.85C855.39,394.1,855.4,394,855.41,393.87Z" transform="translate(-835.64 -245.87)"/>
                <path class="cls-3" d="M835.76,405.8c1.08-.72,20.88-13.82,21-13.86a1,1,0,0,1,.95-.1l55.9,31.87a1,1,0,0,0-1,.09L891.7,437.63c-.09.11-56-31.75-56-31.75A.22.22,0,0,1,835.76,405.8Z" transform="translate(-835.64 -245.87)"/>
                <path class="cls-6" d="M835.71,405.88l55.9,31.86c-.12.27-.08.83.07.91l-55.9-31.86C835.63,406.7,835.59,406.15,835.71,405.88Z" transform="translate(-835.64 -245.87)"/>
                <path class="cls-5" d="M891.7,437.63l20.92-13.83c.74-.42,1.34-.08,1.34.76a2.89,2.89,0,0,1-1.33,2.27c-.74.42-1.34.08-1.34-.75a2,2,0,0,1,0-.34l-19.55,12.91C891.52,438.79,891.44,437.8,891.7,437.63Z" transform="translate(-835.64 -245.87)"/>
              </g>
              <path class="cls-13" d="M860.43,395.46l0-.36a.37.37,0,0,1-.2.3l-2.14,1.37a.93.93,0,0,1-.87.05l-2.37-1.36a.29.29,0,0,1-.17-.23l0,.36a.32.32,0,0,0,.17.24l2.37,1.35a.92.92,0,0,0,.88,0l2.13-1.38A.37.37,0,0,0,860.43,395.46Zm3.64,2.5-2.13,1.37a1,1,0,0,1-.88.05L858.68,398a.3.3,0,0,1-.16-.23l0-.36a.3.3,0,0,0,.16.23L861,399a.93.93,0,0,0,.87,0l2.14-1.38a.35.35,0,0,0,.2-.3l0,.37A.37.37,0,0,1,864.07,398Zm3.84,2.19-2.14,1.38a.93.93,0,0,1-.87.05l-2.38-1.36a.3.3,0,0,1-.16-.23l0-.36a.3.3,0,0,0,.16.22l2.38,1.37a.9.9,0,0,0,.87-.06l2.14-1.37a.36.36,0,0,0,.19-.3l0,.36A.4.4,0,0,1,867.91,400.15Zm-11.25-2.64,0,.36a.35.35,0,0,1-.2.3l-2.13,1.38a.93.93,0,0,1-.87.05l-2.38-1.36a.31.31,0,0,1-.17-.23l0-.37a.29.29,0,0,0,.17.23l2.37,1.36a.9.9,0,0,0,.88-.05l2.13-1.37A.37.37,0,0,0,856.66,397.51Zm1.85,8.38,5.62-3.61a.44.44,0,0,0,.24-.38l0,.37a.42.42,0,0,1-.24.37l-5.62,3.62a1.15,1.15,0,0,1-1.08.06l-10-5.72a.39.39,0,0,1-.21-.29l0-.36a.39.39,0,0,0,.21.29l10,5.72A1.16,1.16,0,0,0,858.51,405.89Zm-9.35-3.55,0,.36a.38.38,0,0,1-.19.3l-2.14,1.38a1,1,0,0,1-.88,0l-2.37-1.35a.31.31,0,0,1-.17-.23l0-.37a.29.29,0,0,0,.17.23l2.37,1.36a1,1,0,0,0,.88-.05l2.14-1.38A.35.35,0,0,0,849.16,402.34Zm-9.33,2.78,2.37,1.36a.93.93,0,0,0,.87-.05l2.14-1.38a.34.34,0,0,0,.19-.3l0,.37a.34.34,0,0,1-.19.3l-2.14,1.38a1,1,0,0,1-.87,0l-2.37-1.36a.27.27,0,0,1-.17-.23l0-.36A.29.29,0,0,0,839.83,405.12Zm10,1.5-2.37-1.36a.29.29,0,0,1-.17-.23l0-.36a.3.3,0,0,0,.16.23l2.38,1.36a1,1,0,0,0,.88-.05l2.14-1.38a.35.35,0,0,0,.19-.29l0,.36a.36.36,0,0,1-.19.3l-2.14,1.37A.92.92,0,0,1,849.81,406.62Zm-6.15.69,2.38,1.36a.9.9,0,0,0,.87,0l2.14-1.38a.36.36,0,0,0,.19-.3l0,.36a.37.37,0,0,1-.2.31L846.93,409a.93.93,0,0,1-.87.05l-2.38-1.36a.28.28,0,0,1-.16-.23l0-.36A.28.28,0,0,0,843.66,407.31Zm10,1.15a.93.93,0,0,0,.87-.06l2.14-1.37a.37.37,0,0,0,.2-.3l0,.36a.36.36,0,0,1-.2.3l-2.14,1.38a.91.91,0,0,1-.86.05l-2.38-1.36a.29.29,0,0,1-.17-.23l0-.36a.29.29,0,0,0,.16.22Zm-6.13,1.05,2.38,1.36a.88.88,0,0,0,.86-.05l2.14-1.37a.35.35,0,0,0,.2-.31l0,.37a.35.35,0,0,1-.2.3l-2.14,1.38a.91.91,0,0,1-.86.05l-2.38-1.37a.28.28,0,0,1-.16-.22l0-.37A.28.28,0,0,0,847.5,409.51Zm27.63-5.25L873,405.63a.91.91,0,0,1-.86.05l-3.61-2.07a.27.27,0,0,1-.17-.23l0-.36a.29.29,0,0,0,.16.23l3.62,2.06a.88.88,0,0,0,.86,0l2.14-1.38a.35.35,0,0,0,.2-.3l0,.36A.36.36,0,0,1,875.13,404.26Zm-10.47,1.39L867,407a.88.88,0,0,0,.86,0l2.14-1.38a.36.36,0,0,0,.2-.3l0,.36a.35.35,0,0,1-.19.3l-2.15,1.38a.91.91,0,0,1-.86.05L864.68,406a.34.34,0,0,1-.17-.23l0-.37A.32.32,0,0,0,864.66,405.65Zm14.31.8-2.15,1.38a.91.91,0,0,1-.86.05l-2.38-1.36a.29.29,0,0,1-.16-.23l0-.37a.32.32,0,0,0,.17.23l2.38,1.36a.88.88,0,0,0,.86,0l2.15-1.38a.38.38,0,0,0,.19-.3l0,.36A.34.34,0,0,1,879,406.45Zm-7.23,2.71,2.14-1.38a.37.37,0,0,0,.2-.3l0,.36a.34.34,0,0,1-.19.3l-2.15,1.38a.91.91,0,0,1-.86.05l-2.38-1.36a.29.29,0,0,1-.16-.24l0-.36a.32.32,0,0,0,.17.23l2.38,1.36A.91.91,0,0,0,871.74,409.16Zm-7.09,1.32L861,408.42a.29.29,0,0,1-.17-.23l0-.37a.27.27,0,0,0,.17.23l3.61,2.07a.93.93,0,0,0,.87,0l2.14-1.38a.36.36,0,0,0,.19-.3l0,.36a.35.35,0,0,1-.19.3l-2.14,1.38A.9.9,0,0,1,864.65,410.48Zm-5.06,1.69-2.37-1.35a.3.3,0,0,1-.17-.24l0-.36a.27.27,0,0,0,.17.23l2.37,1.36a1,1,0,0,0,.87,0l2.14-1.38a.36.36,0,0,0,.19-.3l0,.36a.36.36,0,0,1-.19.3l-2.14,1.38A.9.9,0,0,1,859.59,412.17Zm23.21-3.52L880.66,410a.91.91,0,0,1-.86,0l-2.38-1.36a.26.26,0,0,1-.16-.23l0-.36a.29.29,0,0,0,.17.23l2.38,1.36a.91.91,0,0,0,.86,0l2.14-1.38a.35.35,0,0,0,.2-.3l0,.37A.37.37,0,0,1,882.8,408.65Zm-7.22,2.7,2.14-1.38a.33.33,0,0,0,.19-.29l0,.36a.36.36,0,0,1-.19.3l-2.14,1.38a.91.91,0,0,1-.86,0l-2.38-1.36a.26.26,0,0,1-.16-.23l0-.36a.29.29,0,0,0,.17.23l2.38,1.36A.91.91,0,0,0,875.58,411.35Zm-7.09,1.33-2.37-1.36a.27.27,0,0,1-.17-.23l0-.36a.27.27,0,0,0,.17.23l2.37,1.36a.93.93,0,0,0,.87-.05l2.14-1.37a.36.36,0,0,0,.19-.3l0,.36a.34.34,0,0,1-.19.3l-2.14,1.38A.9.9,0,0,1,868.49,412.68Zm-5.06,1.69L861.06,413a.27.27,0,0,1-.17-.23l0-.36a.29.29,0,0,0,.17.23l2.37,1.36a.93.93,0,0,0,.87-.05l2.14-1.37a.36.36,0,0,0,.19-.31l0,.37a.36.36,0,0,1-.19.3l-2.14,1.38A.93.93,0,0,1,863.43,414.37Zm23.21-3.52-2.14,1.37a.91.91,0,0,1-.86,0l-2.38-1.36a.28.28,0,0,1-.16-.23l0-.36a.27.27,0,0,0,.16.23l2.38,1.36a.91.91,0,0,0,.86-.05l2.14-1.38a.33.33,0,0,0,.19-.3l0,.36A.37.37,0,0,1,886.64,410.85Zm-7.22,2.7,2.14-1.38a.35.35,0,0,0,.19-.3l0,.37a.31.31,0,0,1-.19.29l-2.14,1.38a.91.91,0,0,1-.86,0l-2.38-1.36a.28.28,0,0,1-.16-.23l0-.36a.31.31,0,0,0,.17.23l2.38,1.36A.91.91,0,0,0,879.42,413.55Zm-7.09,1.33L870,413.52a.28.28,0,0,1-.16-.23l0-.36a.27.27,0,0,0,.16.22l2.38,1.37a.91.91,0,0,0,.86,0l2.14-1.38a.35.35,0,0,0,.2-.3l0,.36a.33.33,0,0,1-.2.3l-2.14,1.38A.91.91,0,0,1,872.33,414.88Zm-5.06,1.69-2.38-1.36a.28.28,0,0,1-.16-.23l0-.36a.28.28,0,0,0,.16.22l2.38,1.37a.91.91,0,0,0,.86,0l2.14-1.38a.35.35,0,0,0,.2-.3l0,.36a.33.33,0,0,1-.2.3l-2.14,1.38A.91.91,0,0,1,867.27,416.57ZM890.48,413l-2.14,1.38a.91.91,0,0,1-.86.05l-2.38-1.36a.28.28,0,0,1-.16-.23l0-.36a.26.26,0,0,0,.16.22l2.38,1.37a.91.91,0,0,0,.86-.05l2.14-1.38a.37.37,0,0,0,.2-.3l0,.36A.36.36,0,0,1,890.48,413Zm-7.22,2.71,2.14-1.38a.36.36,0,0,0,.19-.3l0,.36a.32.32,0,0,1-.19.3l-2.14,1.38a.91.91,0,0,1-.86.05L880,414.8a.29.29,0,0,1-.16-.23l0-.36a.26.26,0,0,0,.16.22l2.38,1.36A.94.94,0,0,0,883.26,415.75Zm-7.09,1.33-2.38-1.36a.29.29,0,0,1-.16-.23l0-.36a.28.28,0,0,0,.16.22l2.38,1.36a.94.94,0,0,0,.86,0l2.14-1.38a.35.35,0,0,0,.2-.3l0,.36a.35.35,0,0,1-.2.3L877,417A.91.91,0,0,1,876.17,417.08Zm-5.06,1.69-2.38-1.36a.29.29,0,0,1-.16-.23l0-.37a.28.28,0,0,0,.16.23l2.38,1.36a.91.91,0,0,0,.86,0l2.14-1.38a.35.35,0,0,0,.2-.31l0,.37a.35.35,0,0,1-.2.3L872,418.72A.91.91,0,0,1,871.11,418.77Zm23.21-3.53-2.14,1.38a.91.91,0,0,1-.86.05l-2.38-1.37a.3.3,0,0,1-.17-.22l0-.37a.29.29,0,0,0,.17.23l2.38,1.36a.94.94,0,0,0,.86,0l2.14-1.38a.37.37,0,0,0,.2-.31l0,.37A.37.37,0,0,1,894.32,415.24Zm-7.22,2.7,2.14-1.37a.36.36,0,0,0,.19-.3l0,.36a.34.34,0,0,1-.19.3l-2.14,1.38a.91.91,0,0,1-.86.05L883.88,417a.3.3,0,0,1-.17-.22l0-.37a.29.29,0,0,0,.17.23l2.38,1.36A.91.91,0,0,0,887.1,417.94ZM880,419.28l-2.38-1.37a.28.28,0,0,1-.16-.22l0-.37a.28.28,0,0,0,.16.23l2.38,1.36a.91.91,0,0,0,.86-.05l2.14-1.37a.35.35,0,0,0,.2-.31l0,.37a.36.36,0,0,1-.19.3l-2.15,1.38A.91.91,0,0,1,880,419.28ZM875,421l-2.38-1.36a.28.28,0,0,1-.16-.22l0-.37a.28.28,0,0,0,.16.23l2.38,1.36a.91.91,0,0,0,.86-.05l2.14-1.38a.35.35,0,0,0,.2-.3l0,.37a.35.35,0,0,1-.2.3l-2.14,1.38A.91.91,0,0,1,875,421Zm23.21-3.52L896,418.82a.94.94,0,0,1-.86,0l-2.38-1.36a.29.29,0,0,1-.17-.23l0-.36a.31.31,0,0,0,.17.23l2.38,1.36a.91.91,0,0,0,.86-.05l2.14-1.38a.35.35,0,0,0,.2-.3l0,.37A.37.37,0,0,1,898.16,417.44Zm-7.22,2.7,2.14-1.38a.31.31,0,0,0,.19-.29l0,.36a.34.34,0,0,1-.19.3L891,420.51a.94.94,0,0,1-.86,0l-2.38-1.36a.29.29,0,0,1-.17-.23l0-.36a.31.31,0,0,0,.17.23l2.38,1.36A.91.91,0,0,0,890.94,420.14Zm-7.09,1.33-2.38-1.36a.28.28,0,0,1-.16-.23l0-.36a.28.28,0,0,0,.16.23l2.38,1.36a.91.91,0,0,0,.86-.05l2.14-1.38a.34.34,0,0,0,.2-.3l0,.36a.36.36,0,0,1-.19.31l-2.15,1.38A.94.94,0,0,1,883.85,421.47Zm-5.06,1.69-2.38-1.36a.28.28,0,0,1-.16-.23l0-.36a.29.29,0,0,0,.16.23l2.38,1.36a.91.91,0,0,0,.86-.05l2.14-1.38a.36.36,0,0,0,.2-.3l0,.36a.36.36,0,0,1-.19.31l-2.15,1.37A.91.91,0,0,1,878.79,423.16ZM902,419.64,899.86,421a.91.91,0,0,1-.86.05l-2.38-1.36a.29.29,0,0,1-.17-.23l0-.37a.32.32,0,0,0,.17.24l2.37,1.35a.9.9,0,0,0,.87,0l2.14-1.38a.35.35,0,0,0,.2-.3l0,.36A.37.37,0,0,1,902,419.64Zm-7.22,2.7,2.14-1.38a.33.33,0,0,0,.19-.29l0,.36a.31.31,0,0,1-.19.29l-2.14,1.38a.91.91,0,0,1-.86.05l-2.38-1.36a.31.31,0,0,1-.17-.23l0-.37a.32.32,0,0,0,.17.24l2.37,1.35A.9.9,0,0,0,894.78,422.34Zm-7.09,1.33-2.38-1.36a.29.29,0,0,1-.16-.23l0-.37a.35.35,0,0,0,.17.24l2.38,1.36a.91.91,0,0,0,.86-.05l2.15-1.38a.36.36,0,0,0,.19-.3l0,.36a.34.34,0,0,1-.19.3l-2.15,1.38A.91.91,0,0,1,887.69,423.67Zm-5.06,1.69L880.25,424a.28.28,0,0,1-.16-.23l0-.36a.28.28,0,0,0,.16.22l2.38,1.37a.91.91,0,0,0,.86-.05l2.15-1.38a.36.36,0,0,0,.19-.3l0,.36a.34.34,0,0,1-.19.3l-2.15,1.38A.91.91,0,0,1,882.63,425.36Zm-29-12.5,3.61,2.07a1,1,0,0,0,.87,0l2.14-1.38a.36.36,0,0,0,.19-.3l0,.36a.37.37,0,0,1-.2.3l-2.14,1.38a.9.9,0,0,1-.87,0l-3.61-2.06a.32.32,0,0,1-.17-.24l0-.36A.29.29,0,0,0,853.59,412.86Zm5,2.91,17.78,10.17a.93.93,0,0,0,.87-.05l2.14-1.38a.35.35,0,0,0,.19-.3l0,.37a.33.33,0,0,1-.19.29l-2.14,1.38a.93.93,0,0,1-.87.05L858.6,416.13a.31.31,0,0,1-.17-.23l0-.37A.32.32,0,0,0,858.58,415.77Zm47.26,6.06-2.14,1.38a.91.91,0,0,1-.86.05l-2.38-1.37a.3.3,0,0,1-.17-.22l0-.37a.29.29,0,0,0,.17.23l2.38,1.36a.88.88,0,0,0,.86,0l2.14-1.38a.37.37,0,0,0,.2-.3l0,.36A.35.35,0,0,1,905.84,421.83Zm-7.22,2.71,2.14-1.38a.33.33,0,0,0,.19-.3l0,.37a.31.31,0,0,1-.19.29l-2.14,1.38a.91.91,0,0,1-.86.05l-2.38-1.36a.31.31,0,0,1-.17-.24l0-.36a.29.29,0,0,0,.17.23l2.38,1.36A.91.91,0,0,0,898.62,424.54Zm-7.11,1a.91.91,0,0,0,.86,0l2.15-1.38a.36.36,0,0,0,.19-.3l0,.36a.36.36,0,0,1-.19.3l-2.14,1.38a.9.9,0,0,1-.87,0l-2.38-1.35a.31.31,0,0,1-.16-.24l0-.36a.28.28,0,0,0,.16.23Zm-5,2.05-2.38-1.35a.31.31,0,0,1-.16-.24l0-.36a.28.28,0,0,0,.16.23l2.38,1.36a.94.94,0,0,0,.86,0l2.15-1.38a.36.36,0,0,0,.19-.3l0,.36a.35.35,0,0,1-.19.3l-2.14,1.38A.9.9,0,0,1,886.47,427.55Zm-8.63-.81,2.38,1.36a.91.91,0,0,0,.86-.05l2.15-1.37a.36.36,0,0,0,.19-.31l0,.37a.36.36,0,0,1-.19.3l-2.15,1.38a.91.91,0,0,1-.86.05l-2.38-1.37a.28.28,0,0,1-.16-.23l0-.36A.28.28,0,0,0,877.84,426.74Zm26.29-2.88,0-.36a.29.29,0,0,0,.17.23l2.38,1.36a.91.91,0,0,0,.86,0l2.14-1.38a.34.34,0,0,0,.19-.3l0,.37a.4.4,0,0,1-.2.3l-2.14,1.38a.91.91,0,0,1-.86,0l-2.38-1.36A.29.29,0,0,1,904.13,423.86Zm-5.06,1.69,0-.36a.29.29,0,0,0,.17.23l3.61,2.07a.91.91,0,0,0,.86-.05l2.15-1.38a.34.34,0,0,0,.19-.3l0,.37a.36.36,0,0,1-.19.3l-2.14,1.37a.88.88,0,0,1-.86.05l-3.62-2.07A.29.29,0,0,1,899.07,425.55Zm-.69,1.09L896.24,428a.9.9,0,0,1-.87,0L893,426.7a.28.28,0,0,1-.16-.23l0-.36a.26.26,0,0,0,.16.23l2.38,1.36a.91.91,0,0,0,.86-.05l2.15-1.37a.36.36,0,0,0,.19-.3l0,.36A.36.36,0,0,1,898.38,426.64Zm-5.06,1.69-2.14,1.38a.93.93,0,0,1-.87,0l-2.37-1.36a.27.27,0,0,1-.17-.23l0-.36a.29.29,0,0,0,.16.23l2.38,1.36a.91.91,0,0,0,.86-.05L893.3,428a.36.36,0,0,0,.19-.31l0,.37A.36.36,0,0,1,893.32,428.33Zm-11.64.61,2.38,1.36a.91.91,0,0,0,.86-.05l2.15-1.38a.34.34,0,0,0,.19-.3l0,.37a.36.36,0,0,1-.19.3L885,430.62a1,1,0,0,1-.87,0l-2.37-1.36a.27.27,0,0,1-.17-.23l0-.36A.29.29,0,0,0,881.68,428.94Zm15-.27,0-.36a.27.27,0,0,0,.16.22l2.38,1.37a.91.91,0,0,0,.86,0l2.14-1.38a.35.35,0,0,0,.2-.3l0,.36a.33.33,0,0,1-.2.3l-2.14,1.38a.91.91,0,0,1-.86.05l-2.38-1.36A.28.28,0,0,1,896.67,428.67Zm-5.06,1.69,0-.36a.26.26,0,0,0,.16.22l3.62,2.07a.91.91,0,0,0,.86,0l2.14-1.38a.4.4,0,0,0,.2-.3l0,.36a.37.37,0,0,1-.2.3l-2.14,1.38a.91.91,0,0,1-.86.05l-3.62-2.07A.28.28,0,0,1,891.61,430.36Zm-6.09.77,2.38,1.36a.9.9,0,0,0,.87,0l2.14-1.38a.35.35,0,0,0,.19-.3l0,.36a.36.36,0,0,1-.19.31l-2.14,1.37a.93.93,0,0,1-.87.05l-2.38-1.36a.28.28,0,0,1-.16-.23l0-.36A.26.26,0,0,0,885.52,431.13Zm3.84,2.2,2.38,1.36a.88.88,0,0,0,.86-.05l2.14-1.37a.37.37,0,0,0,.2-.31l0,.37a.37.37,0,0,1-.2.3L892.62,435a.91.91,0,0,1-.86.05l-2.38-1.37a.28.28,0,0,1-.16-.22l0-.37A.28.28,0,0,0,889.36,433.33Z" transform="translate(-835.64 -245.87)"/>
              <path class="cls-14" d="M860.24,394.87l-2.38-1.36a.88.88,0,0,0-.87.05l-2.13,1.37c-.25.16-.27.4,0,.53l2.37,1.36a.93.93,0,0,0,.87-.05l2.14-1.37C860.46,395.24,860.47,395,860.24,394.87Zm3.81,2.72L861.91,399a.93.93,0,0,1-.87,0l-2.38-1.36c-.23-.13-.21-.37,0-.53l2.13-1.38a.93.93,0,0,1,.87-.05l2.38,1.36C864.31,397.2,864.3,397.43,864.05,397.59Zm3.84,2.2-2.14,1.37a.9.9,0,0,1-.87.06l-2.38-1.37c-.22-.13-.21-.36,0-.52l2.13-1.38a.93.93,0,0,1,.87-.05l2.38,1.36C868.15,399.39,868.14,399.63,867.89,399.79Zm-11.43-2-2.13,1.37a.9.9,0,0,1-.88.05l-2.37-1.36c-.23-.13-.22-.37,0-.53l2.13-1.37a1,1,0,0,1,.88-.05l2.37,1.36C856.72,397.41,856.71,397.65,856.46,397.81Zm-2.21,2.24,2.81-1.81a1.16,1.16,0,0,1,1.08-.07l6,3.45c.29.17.26.46,0,.66l-5.62,3.61a1.16,1.16,0,0,1-1.08.07l-10-5.72c-.29-.17-.27-.46,0-.66l2.09-1.35a.77.77,0,0,1,.72,0l3.36,1.89A.66.66,0,0,0,854.25,400.05ZM849,402.63,846.83,404a1,1,0,0,1-.88.05l-2.37-1.36c-.23-.13-.22-.37,0-.53l2.14-1.38a.9.9,0,0,1,.87,0l2.37,1.36C849.22,402.24,849.21,402.48,849,402.63Zm-9.12,2,2.14-1.38a.93.93,0,0,1,.87,0l2.38,1.36c.23.14.22.37,0,.53l-2.14,1.38a.93.93,0,0,1-.87.05l-2.37-1.36C839.59,405,839.6,404.75,839.85,404.59Zm9.94,1.67-2.38-1.36c-.22-.13-.21-.37,0-.53l2.14-1.38a.91.91,0,0,1,.86-.05l2.38,1.36c.23.14.22.37,0,.53l-2.14,1.38A1,1,0,0,1,849.79,406.26Zm-6.1.53,2.14-1.38a.93.93,0,0,1,.87-.05l2.38,1.36c.23.13.22.37,0,.53l-2.14,1.38a.9.9,0,0,1-.87,0l-2.38-1.36C843.43,407.18,843.44,407,843.69,406.79Zm9.74-1.6a.91.91,0,0,1,.86-.05l2.38,1.36c.23.14.22.37,0,.53l-2.14,1.37a.93.93,0,0,1-.87.06l-2.38-1.37c-.22-.13-.21-.37,0-.52Zm-5.9,3.8,2.14-1.38a.93.93,0,0,1,.87-.05l2.38,1.36c.23.13.21.36,0,.53l-2.14,1.37a.88.88,0,0,1-.86.05l-2.38-1.36C847.27,409.38,847.28,409.14,847.53,409Zm27.57-5.1L873,405.27a.88.88,0,0,1-.86,0l-3.62-2.06c-.23-.14-.22-.37,0-.53l2.14-1.38a.93.93,0,0,1,.87,0l3.61,2.07C875.37,403.49,875.35,403.73,875.1,403.89Zm-10.42,1.23,2.15-1.38a.93.93,0,0,1,.87-.05l2.37,1.36c.24.13.22.37,0,.53L867.9,407a.88.88,0,0,1-.86,0l-2.38-1.35C864.43,405.51,864.44,405.28,864.68,405.12Zm14.27,1-2.15,1.38a.88.88,0,0,1-.86,0l-2.38-1.36c-.23-.13-.22-.37,0-.52l2.14-1.38a.93.93,0,0,1,.87-.05l2.37,1.36C879.21,405.69,879.19,405.93,879,406.09Zm-7.41-.2,2.37,1.36c.24.13.22.37,0,.53l-2.14,1.38a.91.91,0,0,1-.86,0l-2.38-1.36c-.23-.13-.22-.37,0-.52l2.15-1.38A.93.93,0,0,1,871.54,405.89Zm-6.91,4.23L861,408.05c-.24-.13-.23-.37,0-.52l2.14-1.38a.93.93,0,0,1,.87,0l3.62,2.07c.23.13.22.37,0,.53l-2.14,1.38A.93.93,0,0,1,864.63,410.12Zm-5.06,1.69-2.37-1.36c-.24-.13-.23-.37,0-.53l2.14-1.37a.9.9,0,0,1,.87-.05l2.38,1.36c.23.13.21.37,0,.53l-2.14,1.38A1,1,0,0,1,859.57,411.81Zm23.21-3.53-2.14,1.38a.91.91,0,0,1-.86,0l-2.38-1.36c-.23-.13-.22-.37,0-.53l2.14-1.37a.91.91,0,0,1,.86-.06l2.38,1.37C883.05,407.89,883,408.13,882.78,408.28Zm-7.41-.19,2.38,1.36c.23.13.21.37,0,.52l-2.14,1.38a.91.91,0,0,1-.86,0L872.34,410c-.23-.13-.22-.37,0-.53l2.14-1.38A.94.94,0,0,1,875.37,408.09Zm-6.9,4.23L866.1,411c-.24-.13-.23-.37,0-.53l2.14-1.38a.9.9,0,0,1,.87,0l2.38,1.35c.23.14.22.37,0,.54l-2.14,1.37A.93.93,0,0,1,868.47,412.32ZM863.41,414,861,412.65c-.24-.13-.23-.37,0-.53l2.14-1.38a.93.93,0,0,1,.87,0l2.38,1.35c.23.14.21.38,0,.54L864.28,414A.93.93,0,0,1,863.41,414Zm23.21-3.53-2.14,1.38a.91.91,0,0,1-.86.05l-2.38-1.36c-.23-.13-.22-.37,0-.53l2.14-1.38a.94.94,0,0,1,.86-.05l2.38,1.36C886.88,410.08,886.87,410.32,886.62,410.48Zm-7.41-.2,2.38,1.37c.23.13.22.36,0,.52l-2.14,1.38a.91.91,0,0,1-.86.05l-2.38-1.36c-.23-.14-.22-.37,0-.53l2.14-1.38A.91.91,0,0,1,879.21,410.28Zm-6.9,4.24-2.38-1.37c-.23-.13-.22-.36,0-.52l2.14-1.38a.93.93,0,0,1,.87-.05l2.38,1.36c.23.14.21.37,0,.53l-2.14,1.38A.91.91,0,0,1,872.31,414.52Zm-5.06,1.69-2.38-1.37c-.23-.13-.22-.36,0-.52l2.14-1.38a.93.93,0,0,1,.87-.05l2.38,1.36c.23.14.21.37,0,.53l-2.14,1.38A.91.91,0,0,1,867.25,416.21Zm23.21-3.53-2.14,1.38a.91.91,0,0,1-.86.05l-2.38-1.37c-.23-.13-.22-.36,0-.52l2.14-1.38a.91.91,0,0,1,.86,0l2.38,1.36C890.72,412.28,890.71,412.52,890.46,412.68Zm-7.41-.2,2.38,1.36c.23.13.22.37,0,.53l-2.14,1.38a.94.94,0,0,1-.86,0L880,414.43c-.23-.13-.22-.36,0-.52l2.14-1.38A.91.91,0,0,1,883.05,412.48Zm-6.9,4.23-2.38-1.36c-.23-.13-.22-.36,0-.52l2.14-1.38a.93.93,0,0,1,.87-.05l2.38,1.36c.23.13.21.37,0,.53L877,416.67A.94.94,0,0,1,876.15,416.71Zm-5.06,1.69L868.71,417c-.23-.13-.22-.37,0-.52l2.14-1.38a.93.93,0,0,1,.87-.05l2.38,1.36c.23.13.21.37,0,.53L872,418.36A.91.91,0,0,1,871.09,418.4Zm23.21-3.52-2.14,1.38a.94.94,0,0,1-.86,0l-2.38-1.36c-.23-.13-.22-.37,0-.52l2.14-1.38A.9.9,0,0,1,892,413l2.38,1.36C894.56,414.48,894.55,414.72,894.3,414.88Zm-7.41-.2,2.38,1.36c.23.13.22.37,0,.53l-2.14,1.37a.91.91,0,0,1-.86.05l-2.38-1.36c-.23-.13-.22-.37,0-.52l2.14-1.38A.91.91,0,0,1,886.89,414.68Zm-6.9,4.23-2.38-1.36c-.23-.13-.22-.37,0-.52l2.14-1.38a.93.93,0,0,1,.87,0L883,417c.23.13.21.36,0,.53l-2.14,1.37A.91.91,0,0,1,880,418.91Zm-5.06,1.69-2.38-1.36c-.23-.13-.22-.37,0-.53l2.14-1.37a.93.93,0,0,1,.87-.06l2.38,1.37c.23.13.21.37,0,.52l-2.14,1.38A.91.91,0,0,1,874.93,420.6Zm23.21-3.53L896,418.45a.91.91,0,0,1-.86.05l-2.38-1.36c-.23-.14-.22-.37,0-.53l2.14-1.38a1,1,0,0,1,.88-.05l2.38,1.37C898.4,416.68,898.39,416.92,898.14,417.07Zm-7.41-.19,2.38,1.36c.23.13.22.37,0,.52l-2.14,1.38a.91.91,0,0,1-.86.05l-2.38-1.36c-.23-.14-.22-.37,0-.53l2.14-1.38A.9.9,0,0,1,890.73,416.88Zm-6.9,4.23-2.38-1.36c-.23-.14-.21-.37,0-.53l2.14-1.38a.93.93,0,0,1,.87,0l2.38,1.37c.23.13.22.36,0,.52l-2.14,1.38A.91.91,0,0,1,883.83,421.11Zm-5.06,1.69-2.38-1.36c-.23-.14-.21-.37,0-.53l2.14-1.38a1,1,0,0,1,.87,0l2.38,1.36c.23.13.21.37,0,.53l-2.14,1.38A.91.91,0,0,1,878.77,422.8ZM902,419.27l-2.14,1.38a.9.9,0,0,1-.87,0l-2.37-1.35c-.23-.14-.22-.37,0-.53l2.14-1.38a1,1,0,0,1,.88-.05l2.37,1.36C902.24,418.87,902.23,419.11,902,419.27Zm-7.41-.19,2.37,1.35c.24.14.23.37,0,.53l-2.14,1.38a.9.9,0,0,1-.87,0L891.54,421c-.23-.14-.22-.37,0-.53l2.14-1.38A.9.9,0,0,1,894.57,419.08Zm-6.9,4.23L885.29,422c-.23-.14-.22-.37,0-.53l2.14-1.38a.93.93,0,0,1,.87-.05l2.38,1.36c.23.13.22.37,0,.53l-2.15,1.38A.91.91,0,0,1,887.67,423.31ZM882.61,425l-2.38-1.37c-.23-.13-.21-.36,0-.52l2.14-1.38a.93.93,0,0,1,.87-.05l2.38,1.36c.23.13.21.37,0,.53L883.47,425A.91.91,0,0,1,882.61,425Zm-29-12.66,2.14-1.38a.92.92,0,0,1,.88,0l3.61,2.07c.23.13.22.37,0,.53l-2.14,1.38a1,1,0,0,1-.87,0l-3.61-2.07C853.36,412.73,853.37,412.49,853.61,412.34Zm5,2.89,2.14-1.37a.91.91,0,0,1,.86-.05L879.4,424c.22.13.21.36,0,.52l-2.14,1.38a.93.93,0,0,1-.87.05l-17.78-10.17C858.34,415.63,858.35,415.4,858.61,415.23Zm47.21,6.24-2.14,1.38a.88.88,0,0,1-.86,0l-2.38-1.36c-.23-.13-.22-.37,0-.52l2.14-1.38a.93.93,0,0,1,.87-.05l2.38,1.36C906.09,421.07,906.07,421.31,905.82,421.47Zm-7.41-.2,2.38,1.36c.23.14.22.37,0,.53l-2.14,1.38a.91.91,0,0,1-.86,0l-2.38-1.36c-.23-.13-.22-.37,0-.52l2.14-1.38A.93.93,0,0,1,898.41,421.27Zm-7.11,1a.9.9,0,0,1,.87-.05l2.37,1.36c.24.13.23.37,0,.53l-2.15,1.38a.91.91,0,0,1-.86,0l-2.38-1.36c-.23-.13-.22-.37,0-.52Zm-4.85,4.95-2.38-1.36c-.23-.13-.22-.37,0-.53l2.14-1.37a.9.9,0,0,1,.87-.05l2.37,1.36c.24.13.22.37,0,.53l-2.15,1.38A.94.94,0,0,1,886.45,427.19Zm-8.58-1,2.14-1.38a.93.93,0,0,1,.87,0l2.38,1.36c.23.13.21.37,0,.53l-2.15,1.37a.91.91,0,0,1-.86.05l-2.38-1.36C877.61,426.61,877.62,426.37,877.87,426.21Zm26.43-3,2.15-1.37a.91.91,0,0,1,.86-.06l2.38,1.37c.24.13.21.37,0,.52L907.52,425a.91.91,0,0,1-.86,0l-2.38-1.36C904.05,423.6,904.06,423.36,904.3,423.2Zm-5.06,1.69,2.15-1.38a.94.94,0,0,1,.86,0l3.61,2.07c.24.13.22.36,0,.52l-2.15,1.38a.91.91,0,0,1-.86.05l-3.61-2.07C899,425.29,899,425.05,899.24,424.89Zm-.88,1.39-2.15,1.37a.91.91,0,0,1-.86.05L893,426.34c-.23-.13-.22-.37,0-.53l2.14-1.38a.91.91,0,0,1,.86-.05l2.38,1.36C898.62,425.88,898.61,426.11,898.36,426.28ZM893.3,428l-2.15,1.37a.91.91,0,0,1-.86.05L887.91,428c-.23-.13-.22-.37,0-.53l2.14-1.38a.93.93,0,0,1,.87,0l2.37,1.35C893.56,427.57,893.54,427.81,893.3,428Zm-11.59.44,2.14-1.38a.93.93,0,0,1,.87,0l2.37,1.36c.24.14.22.38,0,.53l-2.15,1.38a.91.91,0,0,1-.86.05l-2.38-1.36C881.45,428.8,881.46,428.57,881.71,428.41Zm15.13-.4,2.14-1.38a.93.93,0,0,1,.87-.05l2.37,1.36c.24.14.22.37,0,.53l-2.14,1.38a.91.91,0,0,1-.86,0l-2.38-1.37C896.58,428.4,896.59,428.17,896.84,428Zm-5.06,1.69,2.14-1.38a.91.91,0,0,1,.86-.05l3.62,2.07c.24.13.21.37,0,.53l-2.14,1.38a.91.91,0,0,1-.86,0l-3.62-2.07C891.52,430.09,891.53,429.86,891.78,429.7Zm-6.23.91,2.14-1.38a.91.91,0,0,1,.86-.05l2.38,1.36c.24.13.22.37,0,.53l-2.14,1.38a.9.9,0,0,1-.87,0l-2.38-1.36C885.29,431,885.3,430.77,885.55,430.61Zm3.84,2.2,2.14-1.38a.93.93,0,0,1,.87-.05l2.37,1.36c.24.13.22.37,0,.53l-2.14,1.37a.88.88,0,0,1-.86.05l-2.38-1.36C889.13,433.2,889.14,433,889.39,432.81Z" transform="translate(-835.64 -245.87)"/>
            </g>
          </g>
        </g>
        <g>
          <polygon class="cls-15" points="4.53 90.14 126.1 159.19 126.1 78.69 4.53 9.65 4.53 90.14"/>
          <g>
            <g>
              <polygon class="cls-10" points="104.84 93.56 123.33 104.06 123.33 85.87 104.84 75.37 104.84 93.56"/>
              <g>
                <path class="cls-16" d="M944.44,337.6c0,1.59,10.6,7.61,10.6,6v-2a5.93,5.93,0,0,0-2.91-4.51l-4.78-2.72c-1.61-.91-2.91-.37-2.91,1.21Z" transform="translate(-835.64 -245.87)"/>
                <ellipse class="cls-16" cx="949.74" cy="332.16" rx="2.39" ry="4.21" transform="translate(-839.72 406.54) rotate(-37.84)"/>
              </g>
            </g>
            <g>
              <path class="cls-17" d="M937.67,345.55a1.64,1.64,0,0,0,.79,1.23c.44.25.79.1.79-.33a1.61,1.61,0,0,0-.79-1.23C938,345,937.67,345.12,937.67,345.55Z" transform="translate(-835.64 -245.87)"/>
              <path class="cls-17" d="M937.67,353.5a1.64,1.64,0,0,0,.79,1.23c.44.25.79.1.79-.33a1.61,1.61,0,0,0-.79-1.23C938,352.92,937.67,353.07,937.67,353.5Z" transform="translate(-835.64 -245.87)"/>
              <path class="cls-17" d="M937.67,361.45a1.64,1.64,0,0,0,.79,1.23c.44.25.79.1.79-.33a1.61,1.61,0,0,0-.79-1.23C938,360.87,937.67,361,937.67,361.45Z" transform="translate(-835.64 -245.87)"/>
            </g>
            <g>
              <g>
                <g>
                  <polygon class="cls-18" points="118.38 111.52 123.33 114.33 123.33 109.47 118.38 106.65 118.38 111.52"/>
                  <g>
                    <path class="cls-16" d="M955.08,356.9c0,.43,2.83,2,2.83,1.61V358a1.59,1.59,0,0,0-.77-1.21l-1.28-.72c-.43-.25-.78-.1-.78.32Z" transform="translate(-835.64 -245.87)"/>
                    <path class="cls-16" d="M955.64,355a1.73,1.73,0,0,0,.86,1.33c.47.27.85.11.85-.36a1.72,1.72,0,0,0-.85-1.32C956,354.34,955.64,354.5,955.64,355Z" transform="translate(-835.64 -245.87)"/>
                  </g>
                </g>
                <path class="cls-19" d="M946.94,352.33l-1.57-.89v.37l1.57.89Zm1.42,1.18-.84-.48v-.37l1.45.83,2.44,1.38v.37l-3-1.73Zm-6.56-4.1,2.46,1.4v.37l-2.46-1.4Z" transform="translate(-835.64 -245.87)"/>
                <path class="cls-19" d="M946.94,360.12l-1.57-.9v.37l1.57.9Zm1.42,1.18-.84-.48v-.37l1.45.82,2.44,1.39V363l-3-1.73Zm-6.56-4.1,2.78,1.58v.37l-2.78-1.58Z" transform="translate(-835.64 -245.87)"/>
                <path class="cls-19" d="M946.94,367.9l-1.57-.89v.37l1.57.89Zm1.42,1.18-.84-.48v-.37l1.45.83,2.44,1.38v.37l-3-1.73Zm-6.84-4.26,2.77,1.58v.37l-2.77-1.58Z" transform="translate(-835.64 -245.87)"/>
                <polygon class="cls-19" points="105.44 101.1 115.78 106.97 115.78 107.77 105.44 101.89 105.44 101.1"/>
                <g>
                  <polygon class="cls-20" points="118.38 119.31 123.33 122.12 123.33 117.25 118.38 114.44 118.38 119.31"/>
                  <g>
                    <path class="cls-16" d="M955.08,364.69c0,.43,2.83,2,2.83,1.61v-.54a1.58,1.58,0,0,0-.77-1.21l-1.28-.73c-.43-.24-.78-.1-.78.33Z" transform="translate(-835.64 -245.87)"/>
                    <path class="cls-16" d="M955.64,362.75a1.74,1.74,0,0,0,.86,1.33c.47.26.85.1.85-.36a1.74,1.74,0,0,0-.85-1.33C956,362.12,955.64,362.28,955.64,362.75Z" transform="translate(-835.64 -245.87)"/>
                  </g>
                </g>
                <polygon class="cls-19" points="105.44 108.89 115.78 114.76 115.78 115.55 105.44 109.68 105.44 108.89"/>
                <g>
                  <polygon class="cls-21" points="118.38 127.1 123.33 129.91 123.33 125.04 118.38 122.23 118.38 127.1"/>
                  <g>
                    <path class="cls-16" d="M955.08,372.48c0,.42,2.83,2,2.83,1.61v-.55a1.56,1.56,0,0,0-.77-1.2l-1.28-.73c-.43-.24-.78-.1-.78.32Z" transform="translate(-835.64 -245.87)"/>
                    <path class="cls-16" d="M955.64,370.53a1.73,1.73,0,0,0,.86,1.33c.47.27.85.11.85-.35a1.74,1.74,0,0,0-.85-1.33C956,369.91,955.64,370.07,955.64,370.53Z" transform="translate(-835.64 -245.87)"/>
                  </g>
                </g>
                <polygon class="cls-19" points="105.44 116.67 115.78 122.55 115.78 123.34 105.44 117.47 105.44 116.67"/>
              </g>
              <g>
                <g>
                  <polygon class="cls-17" points="118.38 134.81 123.33 137.62 123.33 132.75 118.38 129.94 118.38 134.81"/>
                  <g>
                    <path class="cls-16" d="M955.08,380.19c0,.42,2.83,2,2.83,1.61v-.54a1.56,1.56,0,0,0-.77-1.21l-1.28-.73c-.43-.24-.78-.1-.78.32Z" transform="translate(-835.64 -245.87)"/>
                    <path class="cls-16" d="M955.64,378.24a1.73,1.73,0,0,0,.86,1.33c.47.27.85.11.85-.35a1.74,1.74,0,0,0-.85-1.33C956,377.62,955.64,377.78,955.64,378.24Z" transform="translate(-835.64 -245.87)"/>
                  </g>
                </g>
                <path class="cls-19" d="M946.94,375.62l-1.57-.9v.37l1.57.9Zm1.42,1.17-.84-.48v-.37l1.45.83,2.44,1.38v.37l-3-1.73Zm-6.56-4.09,2.46,1.39v.37l-2.46-1.39Z" transform="translate(-835.64 -245.87)"/>
                <path class="cls-19" d="M946.94,383.4l-1.57-.89v.37l1.57.89Zm1.42,1.18-.84-.48v-.37l1.45.83,2.44,1.38v.37l-3-1.73Zm-6.56-4.09,2.78,1.57v.37l-2.78-1.57Z" transform="translate(-835.64 -245.87)"/>
                <path class="cls-19" d="M946.94,391.18l-1.57-.89v.37l1.57.89Zm1.42,1.18-.84-.48v-.37l1.45.83,2.44,1.38v.37l-3-1.73Zm-6.84-4.26,2.77,1.58v.37l-2.77-1.58Z" transform="translate(-835.64 -245.87)"/>
                <polygon class="cls-19" points="105.44 124.39 115.78 130.26 115.78 131.05 105.44 125.18 105.44 124.39"/>
                <g>
                  <polygon class="cls-22" points="118.38 142.59 123.33 145.41 123.33 140.54 118.38 137.72 118.38 142.59"/>
                  <g>
                    <path class="cls-16" d="M955.08,388c0,.43,2.83,2,2.83,1.62V389a1.59,1.59,0,0,0-.77-1.21l-1.28-.72c-.43-.25-.78-.1-.78.32Z" transform="translate(-835.64 -245.87)"/>
                    <path class="cls-16" d="M955.64,386a1.73,1.73,0,0,0,.86,1.33c.47.27.85.11.85-.36a1.72,1.72,0,0,0-.85-1.32C956,385.41,955.64,385.57,955.64,386Z" transform="translate(-835.64 -245.87)"/>
                  </g>
                </g>
                <polygon class="cls-19" points="105.44 132.17 115.78 138.04 115.78 138.84 105.44 132.96 105.44 132.17"/>
                <g>
                  <polygon class="cls-23" points="118.38 150.38 123.33 153.19 123.33 148.32 118.38 145.51 118.38 150.38"/>
                  <g>
                    <path class="cls-16" d="M955.08,395.76c0,.43,2.83,2,2.83,1.61v-.54a1.58,1.58,0,0,0-.77-1.21l-1.28-.73c-.43-.24-.78-.1-.78.33Z" transform="translate(-835.64 -245.87)"/>
                    <path class="cls-16" d="M955.64,393.82a1.74,1.74,0,0,0,.86,1.33c.47.26.85.11.85-.36a1.76,1.76,0,0,0-.85-1.33C956,393.19,955.64,393.35,955.64,393.82Z" transform="translate(-835.64 -245.87)"/>
                  </g>
                </g>
                <polygon class="cls-19" points="105.44 139.96 115.78 145.83 115.78 146.62 105.44 140.75 105.44 139.96"/>
              </g>
            </g>
            <polygon class="cls-24" points="4.53 90.14 95.43 141.76 95.43 61.27 4.53 9.65 4.53 90.14"/>
            <g>
              <path class="cls-14" d="M870.32,312.29l8.28,3.21a73.12,73.12,0,0,1,6.82,3.06l2.07,1.07a70.92,70.92,0,0,1,13.77,9.22l4.36,3.72a11.37,11.37,0,0,1,4,7.48c.87,8.34,2.2,25.69,3,36.43L855.4,344c2.68-8.76,7.09-22.86,9.63-29.45A4.08,4.08,0,0,1,870.32,312.29Z" transform="translate(-835.64 -245.87)"/>
              <g>
                <path class="cls-25" d="M888.79,329.15c-4.95-2.81-9-7.73-9-11a2.59,2.59,0,0,1,.67-1.86c1.66.71,3.31,1.45,4.92,2.27l2.07,1.07A71.7,71.7,0,0,1,897,325.5a6.81,6.81,0,0,1,.77,2.82C897.75,331.59,893.74,332,888.79,329.15Z" transform="translate(-835.64 -245.87)"/>
                <path class="cls-26" d="M882.25,309.8,894.5,318l-.12,6.47c0,4.77-12.16-.59-12.15-6.75Z" transform="translate(-835.64 -245.87)"/>
                <path class="cls-25" d="M878.27,300c0,6.15,4.52,17.41,10.1,20.57s10.09-3,10.09-9.1-4.52-13.7-10.09-16.87S878.27,293.84,878.27,300Z" transform="translate(-835.64 -245.87)"/>
                <path class="cls-27" d="M887.36,290.63a13,13,0,0,0-4.5-1.72c-5.37-.72-5.56,4.66-5.24,9.27.21,3.15,1,8,2.33,10-.21-1.65-1.19-6.08-.34-10.44s17,4.9,17.79,10.69a27.79,27.79,0,0,1-.85,9.7C899.82,317.15,905.54,301,887.36,290.63Z" transform="translate(-835.64 -245.87)"/>
              </g>
            </g>
            <polygon class="cls-28" points="4.53 90.14 4.53 73.28 95.37 124.87 95.37 141.74 4.53 90.14"/>
            <polygon class="cls-28" points="4.53 14.8 4.53 11.33 95.37 62.92 95.37 66.39 4.53 14.8"/>
            <g>
              <path class="cls-17" d="M897.56,362.15l3,1.71c1.11.63,2,.26,2-.83v-1.1a4.07,4.07,0,0,0-2-3.11l-3-1.71c-1.1-.63-2-.25-2,.83v1.11A4.06,4.06,0,0,0,897.56,362.15Z" transform="translate(-835.64 -245.87)"/>
              <path class="cls-3" d="M877.61,352l12.47,7.08c1.64.93,3,.38,3-1.23v-1.64a6,6,0,0,0-3-4.6l-12.47-7.09c-1.64-.92-3-.37-3,1.24v1.64A6,6,0,0,0,877.61,352Z" transform="translate(-835.64 -245.87)"/>
              <path class="cls-21" d="M867.28,345l3,1.71c1.1.63,2,.26,2-.83v-1.11a4.1,4.1,0,0,0-2-3.1l-3-1.71c-1.11-.63-2-.25-2,.83v1.11A4,4,0,0,0,867.28,345Z" transform="translate(-835.64 -245.87)"/>
              <path class="cls-29" d="M885.52,353a1.64,1.64,0,0,0,.8,1.25c.45.25.81.11.81-.33a1.63,1.63,0,0,0-.81-1.25C885.88,352.45,885.52,352.6,885.52,353Zm-1.94-1.89a1.66,1.66,0,0,1,.8,1.25c0,.44-.36.59-.8.34a1.67,1.67,0,0,1-.8-1.25C882.78,351,883.14,350.89,883.58,351.14Zm-2.74-1.55a1.64,1.64,0,0,1,.8,1.24c0,.44-.36.59-.8.34a1.63,1.63,0,0,1-.81-1.25C880,349.48,880.39,349.33,880.84,349.59Z" transform="translate(-835.64 -245.87)"/>
            </g>
            <polygon class="cls-18" points="4.53 12.04 126.1 81.08 126.1 74.02 4.53 4.97 4.53 12.04"/>
          </g>
        </g>
      </g>
    </g>
  </g>
</svg>
