<svg xmlns="http://www.w3.org/2000/svg" viewBox="0 0 346 481.54">
  <defs>
    <style>
      .cls-1, .cls-2 {
        fill: #ff4106;
      }

      .cls-2, .cls-3 {
        stroke: #ad2500;
        stroke-width: 3px;
      }

      .cls-2, .cls-3, .cls-7 {
        stroke-miterlimit: 10;
      }

      .cls-4 {
        fill: #b72934;
      }

      .cls-5 {
        fill: #ad2500;
      }

      .cls-6, .cls-7 {
        fill: #fff;
      }

      .cls-7 {
        stroke: #fff;
        stroke-width: 0.75px;
      }
    </style>
  </defs>
  <g id="레이어_2" data-name="레이어 2">
    <g id="레이어_1-2" data-name="레이어 1">
      <g>
        <rect class="cls-1" y="105" width="287.22" height="331.61"/>
        <rect class="cls-2" x="12.5" y="117.5" width="263" height="306"/>
        <polygon class="cls-1" points="0 105 31 17 307 17 287.22 105 0 105"/>
        <polygon class="cls-3" points="43.5 31.12 293 33 276 105 16 105 43.5 31.12"/>
        <polygon class="cls-1" points="31 17 87 0 346 3 307 17 31 17"/>
        <rect class="cls-1" y="436.61" width="43.5" height="44.94"/>
        <rect class="cls-1" x="244" y="436.61" width="43.5" height="44.94"/>
        <polygon class="cls-4" points="346 3 346 390.65 287.5 436.61 287.22 105 307 17 346 3"/>
        <polygon class="cls-4" points="287.5 436.61 287.5 481.54 307 466 307 421.29 287.5 436.61"/>
        <polygon class="cls-4" points="329.1 403.93 346 390.65 346 436.61 329.1 451.42 329.1 403.93"/>
        <polygon class="cls-5" points="43.5 31.12 43.5 105 16 105 43.5 31.12"/>
        <polygon class="cls-1" points="280.5 79.5 43.5 79.5 18.5 103.5 274.5 103.5 280.5 79.5"/>
        <g>
          <polygon class="cls-6" points="53 253.8 53 320.99 156.03 320.99 156.03 253.8 104.52 287.4 53 253.8"/>
          <polygon class="cls-6" points="104.52 282.61 153.5 250.5 56.14 250.5 104.52 282.61"/>
          <path class="cls-7" d="M169.41,258.8v9.57h62.81a4.91,4.91,0,0,0,0-9.57Z"/>
          <path class="cls-7" d="M169.41,279.8v9.57h62.81a4.91,4.91,0,0,0,0-9.57Z"/>
          <path class="cls-7" d="M169.41,300.8v9.57h62.81a4.91,4.91,0,0,0,0-9.57Z"/>
        </g>
        <g>
          <path class="cls-6" d="M76.56,189.79H82v33.5H76.56Zm7.5,23.09a6.29,6.29,0,0,1-2.34-3l.32-5.21a5,5,0,0,0,.49,2.3,3.29,3.29,0,0,0,1.4,1.46,4.5,4.5,0,0,0,2.22.5,4,4,0,0,0,3.17-1.28A5.37,5.37,0,0,0,90.44,204v-4.47a5.58,5.58,0,0,0-1.12-3.73,3.94,3.94,0,0,0-3.17-1.32,4.61,4.61,0,0,0-2.22.49,3.2,3.2,0,0,0-1.4,1.46,5.13,5.13,0,0,0-.49,2.32l-.48-4.94a8,8,0,0,1,2.68-3.22,6.36,6.36,0,0,1,3.68-1.14,7.81,7.81,0,0,1,4.33,1.17A7.34,7.34,0,0,1,95,194a14.15,14.15,0,0,1,.94,5.45V204a13.77,13.77,0,0,1-1,5.38,7.36,7.36,0,0,1-2.79,3.41A8,8,0,0,1,87.8,214,6.57,6.57,0,0,1,84.06,212.88Z"/>
          <path class="cls-6" d="M106.06,212.73a8.06,8.06,0,0,1-3.44-3.54,12.23,12.23,0,0,1-1.18-5.61V199.7a12,12,0,0,1,1.18-5.54,8,8,0,0,1,3.44-3.51,12.79,12.79,0,0,1,10.86,0,8,8,0,0,1,3.44,3.51,12,12,0,0,1,1.18,5.54v4a12,12,0,0,1-1.18,5.56,8.12,8.12,0,0,1-3.44,3.52,12.69,12.69,0,0,1-10.86,0Zm8.8-5.35a5.36,5.36,0,0,0,1.19-3.73v-4a5.29,5.29,0,0,0-1.19-3.7,5,5,0,0,0-6.74,0,5.3,5.3,0,0,0-1.2,3.7v4a5.4,5.4,0,0,0,1.18,3.73,5,5,0,0,0,6.76,0Z"/>
          <path class="cls-6" d="M127.74,189.79h5.71v23.82h-5.71ZM139.65,195a5.11,5.11,0,0,0-1.86-.31,4.15,4.15,0,0,0-3.2,1.22,4.83,4.83,0,0,0-1.14,3.41l-.48-5.39a8.56,8.56,0,0,1,2.7-3.32,6.13,6.13,0,0,1,3.66-1.18,8.1,8.1,0,0,1,2.82.47,6.38,6.38,0,0,1,2.2,1.39L141,195.91A3.6,3.6,0,0,0,139.65,195Z"/>
          <path class="cls-6" d="M151.56,212.71a8.39,8.39,0,0,1-3.65-3.64,12.29,12.29,0,0,1-1.26-5.79v-2.69a13.86,13.86,0,0,1,1.2-6,8.49,8.49,0,0,1,3.51-3.81,11.1,11.1,0,0,1,5.54-1.31,8.85,8.85,0,0,1,5.23,1.53,9.47,9.47,0,0,1,3.3,4.41,19.08,19.08,0,0,1,1.14,7v1.56H150.39v-4h11.08l0-.26a6.9,6.9,0,0,0-1.4-3.88,3.94,3.94,0,0,0-3.15-1.37,4.79,4.79,0,0,0-3.83,1.55,6.46,6.46,0,0,0-1.35,4.39v3a5.09,5.09,0,0,0,5.6,5.62,7.36,7.36,0,0,0,2.67-.51,8.15,8.15,0,0,0,2.38-1.44l3.58,3.35a13.21,13.21,0,0,1-4.08,2.63,11.83,11.83,0,0,1-4.55.93A12.31,12.31,0,0,1,151.56,212.71Z"/>
          <path class="cls-6" d="M177.24,213.55a16.87,16.87,0,0,1-3.62-1.18,13.84,13.84,0,0,1-3-1.91l3.33-4.13a14.72,14.72,0,0,0,3.71,1.95,10.91,10.91,0,0,0,3.68.67,8.46,8.46,0,0,0,3.8-.68,2.12,2.12,0,0,0,1.29-2,1.74,1.74,0,0,0-.64-1.48,3.73,3.73,0,0,0-1.62-.68c-.65-.12-1.56-.24-2.74-.34l-.62-.05a6.18,6.18,0,0,1-.62-.07h-.36a22.42,22.42,0,0,1-4.11-.77A5.4,5.4,0,0,1,173,201a6.41,6.41,0,0,1-1.09-4,7.42,7.42,0,0,1,1.09-4.14,6.69,6.69,0,0,1,3.2-2.55,13.88,13.88,0,0,1,5.19-.86,17.67,17.67,0,0,1,3.58.36,17.24,17.24,0,0,1,3.34,1,15.74,15.74,0,0,1,3,1.69l-3.29,4a15.2,15.2,0,0,0-3.38-1.54,11.32,11.32,0,0,0-3.32-.53,7,7,0,0,0-3.28.62,2,2,0,0,0-1.12,1.84,1.32,1.32,0,0,0,.62,1.19,3.81,3.81,0,0,0,1.54.57c.63.09,1.52.2,2.7.3l.36,0,.35,0h.16a.63.63,0,0,1,.19,0,25.24,25.24,0,0,1,4.38.75,5.88,5.88,0,0,1,3,2,6.81,6.81,0,0,1,1.22,4.37,7.56,7.56,0,0,1-1.15,4.26,7,7,0,0,1-3.41,2.62,15.25,15.25,0,0,1-5.54.88A19.69,19.69,0,0,1,177.24,213.55Z"/>
          <path class="cls-6" d="M195.07,189.79h11.2v4.79h-11.2Zm3.85,22.34a7,7,0,0,1-1.39-4.72V182.85H203v23.8a2.28,2.28,0,0,0,.34,1.35,1.19,1.19,0,0,0,1,.47h1.91v5.25h-2.94A5.6,5.6,0,0,1,198.92,212.13Z"/>
        </g>
      </g>
    </g>
  </g>
</svg>
