<svg xmlns="http://www.w3.org/2000/svg" viewBox="0 0 223.27 46.22"><defs><style>.cls-1{fill:#fff3db;}.cls-2{fill:#423021;}.cls-3{font-size:12px;fill:#42210b;font-family:Papyrus-Regular, Papyrus;}</style></defs><g id="레이어_2" data-name="레이어 2"><g id="레이어_1-2" data-name="레이어 1"><path class="cls-1" d="M175.74,23l-1.55,15h0a.7.7,0,0,1,0,.14c-.33,1.68-3.79,2.88-6.18,3a2,2,0,0,0-1.72.78l0,0a1.6,1.6,0,0,0,.08.69h0A4.35,4.35,0,0,0,168.86,44a17.37,17.37,0,0,0,3,.58h0l.16,0a40.14,40.14,0,0,0,5.37.12,44.5,44.5,0,0,0,11.34-2,20,20,0,0,0,7.09-3.81l.19-.18.17-.18.13-.13.18-.21.12-.16a.76.76,0,0,0,.08-.11l.12-.16a.47.47,0,0,1,0-.1c.06-.09.11-.18.16-.27a.61.61,0,0,0,.05-.12.59.59,0,0,0,.06-.14,1.17,1.17,0,0,1,0-.11s0-.1,0-.15a.85.85,0,0,0,0-.17s0-.09,0-.17c.12-1.42-1.58-2.33-3.06-2.84-3.71-1.29-5.71-3.43-5.37-5.74v0l.69-6.59A46.7,46.7,0,0,1,175.74,23Z"/><path class="cls-1" d="M47.53,23l1.55,15h0a.35.35,0,0,0,0,.14c.33,1.68,3.79,2.88,6.18,3a2,2,0,0,1,1.72.78l0,0a1.6,1.6,0,0,1-.08.69h0A4.35,4.35,0,0,1,54.41,44a17.57,17.57,0,0,1-3,.58h0l-.16,0a40.14,40.14,0,0,1-5.37.12,44.42,44.42,0,0,1-11.34-2,20.15,20.15,0,0,1-7.1-3.81l-.18-.18-.17-.18L27,38.45l-.18-.21-.12-.16a.76.76,0,0,1-.08-.11l-.12-.16,0-.1c-.06-.09-.11-.18-.16-.27l-.06-.12a.58.58,0,0,1-.05-.14,1.17,1.17,0,0,0,0-.11s0-.1,0-.15a.85.85,0,0,1,0-.17s0-.09,0-.17c-.13-1.42,1.58-2.33,3.06-2.84,3.7-1.29,5.71-3.43,5.37-5.74v0l-.68-6.59A46.7,46.7,0,0,0,47.53,23Z"/><path class="cls-1" d="M166.51,39.77a2.66,2.66,0,0,1,1-.17h.26a10.69,10.69,0,0,0,4-1.1l.05,0,.07,0a2.19,2.19,0,0,0,.68-.51h0l0,0v0h0v0c0-.07-.32-.41-1.76-.74-.66-.14-1.55-.28-2.73-.41l-.51,0-1.08-.07-.35,3.37Z"/><path class="cls-1" d="M56.76,39.77a2.69,2.69,0,0,0-1-.17h-.26a10.69,10.69,0,0,1-4-1.1l-.05,0-.07,0a2.07,2.07,0,0,1-.68-.51h0l0,0v0h0v0c0-.07.32-.41,1.76-.74.66-.14,1.55-.28,2.73-.41l.51,0,1.08-.07.35,3.37Z"/><path class="cls-1" d="M111.63,36.17l.63,0h.25c3.12-.14,7.17-.3,11.68-.45,11.46-.43,22.16-.81,30.84-.83h.89c3.16,0,5.76,0,7.89.14s4,.12,5.06.24a12.77,12.77,0,0,1,4.15,1l2.24-21.65s-.16-.42-1.81-.82c-7.56-1.82-46.45,0-59.23.63l-2.55.12h-.07l-2.55-.12C96.27,13.8,57.38,12,49.82,13.78c-1.66.4-1.81.82-1.81.82l2.24,21.65a12.77,12.77,0,0,1,4.15-1c1.06-.12,2.81-.2,5.06-.24s4.73-.14,7.89-.14h.89c8.68,0,19.38.4,30.84.83,4.51.15,8.56.31,11.68.45H111Z"/><path class="cls-1" d="M190.46,27.93a5.93,5.93,0,0,0,0,1.17c.34,1.14,1.61,2.22,3.6,3l.34.12.53.2a8,8,0,0,1,2.82,1.61l1-9.54C193.75,24.46,191,26.25,190.46,27.93Z"/><path class="cls-1" d="M32.81,27.93a6.86,6.86,0,0,1,0,1.17c-.34,1.14-1.61,2.22-3.61,3l-.33.12-.53.2a8,8,0,0,0-2.82,1.61l-1-9.54C29.52,24.46,32.32,26.25,32.81,27.93Z"/><path class="cls-2" d="M111.63,37.62h0c7.29-.28,40.93-1.55,53.55-1.15l-.56,5.39h0v0a2.27,2.27,0,0,0,.36,1.43c1.34,2.12,5.91,3.14,12.87,2.87,10.5-.46,20.28-4.8,20.93-9.28a1.63,1.63,0,0,0,0-.31l1.25-12a26.72,26.72,0,0,1,2.85.38c7.08,1.31,12.82,3.2,17.06,5.61a1.47,1.47,0,0,0,.74.3h0l.12,0h0a.42.42,0,0,0,.14-.06h0l.11-.08,0,0a.28.28,0,0,0,.09-.1h0a.61.61,0,0,0,.05-.12l0,0v0s0-.08,0-.11h0v0a.65.65,0,0,0-.07-.39c-1.32-2.51-3.21-6-4.68-8.54-2.16-3.65-7.31-7.85-9.2-9.32,1.31-.85,5.12-2.7,15.27-4.68a.66.66,0,0,0,.53-.53.67.67,0,0,0-.31-.7C219.5,4,213.14,1.73,207.47.68c-5.2-1-12.06-1.38-15.18,2A3.89,3.89,0,0,0,191.23,5l-1.56,15a44.24,44.24,0,0,1-13.79,1.68l.71-6.91c.16-1.55-2.09-2.09-2.83-2.27-7.74-1.86-45.42-.07-59.6.6l-2.53.12-2.52-.12c-14.18-.67-51.86-2.46-59.6-.6-.74.18-3,.72-2.83,2.27l.71,6.91A44.3,44.3,0,0,1,33.59,20L32,5A4,4,0,0,0,31,2.71C27.86-.7,21-.28,15.8.68c-5.67,1-12,3.27-15.48,5.4a.67.67,0,0,0-.31.7.66.66,0,0,0,.53.53c10.14,2,14,3.83,15.27,4.68-1.89,1.47-7,5.67-9.2,9.32-1.47,2.51-3.36,6-4.68,8.54a.65.65,0,0,0-.07.39v0h0s0,.07,0,.11v.05l.06.12H2a.28.28,0,0,0,.09.1l0,0,.11.08h0a.35.35,0,0,0,.14.06h0l.12,0h0a1.47,1.47,0,0,0,.74-.3c4.24-2.41,10-4.3,17.06-5.61a26.72,26.72,0,0,1,2.85-.38l1.24,12,0,.31c.66,4.48,10.44,8.82,20.94,9.28,7,.27,11.53-.75,12.87-2.87a2.34,2.34,0,0,0,.36-1.43v0h0l-.56-5.39c12.62-.4,46.26.87,53.55,1.15Zm0-23.09h0l2.55-.12c12.78-.61,51.67-2.45,59.23-.63,1.65.4,1.81.82,1.81.82L173,36.25a12.77,12.77,0,0,0-4.15-1c-1.06-.12-2.81-.2-5.06-.24s-4.73-.14-7.89-.14H155c-8.68,0-19.38.4-30.84.83-4.51.15-8.56.31-11.68.45h-.25l-.63,0-.62,0h-.25c-3.12-.14-7.17-.3-11.68-.45-11.46-.43-22.16-.81-30.84-.83h-.89c-3.16,0-5.76,0-7.89.14s-4,.12-5.06.24a12.77,12.77,0,0,0-4.15,1L48,14.6s.15-.42,1.81-.82c7.56-1.82,46.45,0,59.23.63l2.55.12ZM220.69,6.36c-11.28,2.35-14.15,4.5-14.78,5.15a.65.65,0,0,0,.06,1c.07.05,7.06,5.27,9.53,9.46,1.1,1.86,2.43,4.3,3.58,6.46A40.8,40.8,0,0,0,213.19,26a74.2,74.2,0,0,0-10-2.5,26.27,26.27,0,0,0-4.77-.47,17,17,0,0,0-4.66.61,9.86,9.86,0,0,0-3.34,1.68l2.1-20.27a2.64,2.64,0,0,1,.72-1.47C197.75-1.28,213.49,2.71,220.69,6.36ZM30,3.62a2.64,2.64,0,0,1,.72,1.47L32.8,25.36a9.68,9.68,0,0,0-3.34-1.68,16.84,16.84,0,0,0-4.65-.61,26.18,26.18,0,0,0-4.77.47,74.2,74.2,0,0,0-10,2.5,40.8,40.8,0,0,0-5.89,2.41c1.15-2.16,2.48-4.6,3.58-6.46,2.47-4.19,9.46-9.41,9.53-9.46a.65.65,0,0,0,.06-1c-.63-.65-3.5-2.8-14.78-5.15C9.77,2.71,25.52-1.28,30,3.62ZM197.76,34.06a8,8,0,0,0-2.82-1.61l-.53-.2-.34-.12c-2-.81-3.26-1.89-3.6-3a5.93,5.93,0,0,1,0-1.17c.49-1.68,3.29-3.47,8.29-3.41ZM24.52,24.52c5-.06,7.8,1.73,8.29,3.41a6.86,6.86,0,0,1,0,1.17c-.34,1.14-1.61,2.22-3.61,3l-.33.12-.53.2a8,8,0,0,0-2.82,1.61Zm142,12,1.08.07.51,0c1.18.13,2.07.27,2.73.41,1.44.33,1.72.67,1.76.74v0h0v0l0,0h0a2.19,2.19,0,0,1-.68.51l-.07,0-.05,0a10.69,10.69,0,0,1-4,1.1h-.26a2.66,2.66,0,0,0-1,.17l-.31.12ZM57.07,39.89l-.31-.12a2.69,2.69,0,0,0-1-.17h-.26a10.69,10.69,0,0,1-4-1.1l-.05,0-.07,0a2.07,2.07,0,0,1-.68-.51h0l0,0v0h0v0c0-.07.32-.41,1.76-.74.66-.14,1.55-.28,2.73-.41l.51,0,1.08-.07ZM188.84,28v0c-.34,2.31,1.66,4.45,5.37,5.74,1.48.51,3.18,1.42,3.06,2.84,0,.08,0,.13,0,.17a.85.85,0,0,1,0,.17s0,.1,0,.15a1.17,1.17,0,0,0,0,.11.59.59,0,0,1-.06.14.61.61,0,0,1-.05.12c0,.09-.1.18-.16.27a.47.47,0,0,0,0,.1l-.12.16a.76.76,0,0,1-.08.11l-.12.16-.18.21-.13.13-.17.18-.19.18a20,20,0,0,1-7.09,3.81,44.5,44.5,0,0,1-11.34,2,40.14,40.14,0,0,1-5.37-.12l-.16,0h0a17.37,17.37,0,0,1-3-.58,4.35,4.35,0,0,1-2.53-1.46h0a1.6,1.6,0,0,1-.08-.69l0,0A2,2,0,0,1,168,41c2.39-.09,5.85-1.29,6.18-3a.7.7,0,0,0,0-.14h0l1.55-15a46.7,46.7,0,0,0,13.79-1.58ZM33.74,21.39A46.7,46.7,0,0,0,47.53,23l1.55,15h0a.35.35,0,0,0,0,.14c.33,1.68,3.79,2.88,6.18,3a2,2,0,0,1,1.72.78l0,0a1.6,1.6,0,0,1-.08.69h0A4.35,4.35,0,0,1,54.41,44a17.57,17.57,0,0,1-3,.58h0l-.16,0a40.14,40.14,0,0,1-5.37.12,44.42,44.42,0,0,1-11.34-2,20.15,20.15,0,0,1-7.1-3.81l-.18-.18-.17-.18L27,38.45l-.18-.21-.12-.16a.76.76,0,0,1-.08-.11l-.12-.16,0-.1c-.06-.09-.11-.18-.16-.27l-.06-.12a.58.58,0,0,1-.05-.14,1.17,1.17,0,0,0,0-.11s0-.1,0-.15a.85.85,0,0,1,0-.17s0-.09,0-.17c-.13-1.42,1.58-2.33,3.06-2.84,3.7-1.29,5.71-3.43,5.37-5.74v0Z"/><path class="cls-1" d="M192.56,5.09l-2.1,20.27a9.86,9.86,0,0,1,3.34-1.68,17,17,0,0,1,4.66-.61,26.27,26.27,0,0,1,4.77.47,74.2,74.2,0,0,1,10,2.5,40.8,40.8,0,0,1,5.89,2.41c-1.15-2.16-2.48-4.6-3.58-6.46C213,17.8,206,12.58,206,12.53a.65.65,0,0,1-.06-1c.63-.65,3.5-2.8,14.78-5.15-7.2-3.65-22.94-7.64-27.41-2.74A2.64,2.64,0,0,0,192.56,5.09Z"/><path class="cls-1" d="M30.71,5.09,32.8,25.36a9.68,9.68,0,0,0-3.34-1.68,16.84,16.84,0,0,0-4.65-.61,26.18,26.18,0,0,0-4.77.47,74.2,74.2,0,0,0-10,2.5,40.8,40.8,0,0,0-5.89,2.41c1.15-2.16,2.48-4.6,3.58-6.46,2.47-4.19,9.46-9.41,9.53-9.46a.65.65,0,0,0,.06-1c-.63-.65-3.5-2.8-14.78-5.15C9.77,2.71,25.52-1.28,30,3.62A2.64,2.64,0,0,1,30.71,5.09Z"/><path class="cls-2" d="M193.87,26.66h0c-.31.09-.65.06-1,.16-.47.15-.46.22-.9.39a2,2,0,0,1-.46.13,1,1,0,0,0-.44.18.94.94,0,0,0-.31.35l-.1.2a.44.44,0,0,1-.07.17.11.11,0,0,1-.07,0l-.11,0-.07,0a.3.3,0,0,1-.22-.14.49.49,0,0,1-.07-.24c0-.13.15-.23.23-.31a2.5,2.5,0,0,1,.55-.48,5.3,5.3,0,0,0,.43-.32,1.25,1.25,0,0,1,.45-.27c.49-.19.53,0,1-.21s.47-.16,1-.3c.12,0,.25.17.31.29v.05c0,.09-.1.18-.13.23Z"/><path class="cls-2" d="M197.27,25.58c0,.12-.11.13-.33.23a3.8,3.8,0,0,1-.4.19c-.13,0-.28.05-.43.08a3.68,3.68,0,0,1-.43.06c-.16,0-.29.12-.42.12s-.38-.06-.41-.18.05-.29.26-.41.31,0,.46,0,.24-.25.39-.28.3-.08.44-.1a2.19,2.19,0,0,1,.47.05C197.12,25.36,197.26,25.47,197.27,25.58Z"/><path class="cls-2" d="M198.87,25.64a.47.47,0,0,1-.47.2.42.42,0,0,1-.3-.38c0-.14.2-.23.43-.18S198.93,25.52,198.87,25.64Z"/><path class="cls-2" d="M29.4,26.66h0c.31.09.65.06,1,.16.47.15.45.22.9.39a1.84,1.84,0,0,0,.46.13,1,1,0,0,1,.44.18.94.94,0,0,1,.31.35c0,.07.06.14.09.2a.67.67,0,0,0,.08.17.11.11,0,0,0,.07,0l.11,0,.07,0a.26.26,0,0,0,.21-.14A.52.52,0,0,0,33.2,28c0-.13-.16-.23-.23-.31a2.5,2.5,0,0,0-.55-.48,3.94,3.94,0,0,1-.43-.32,1.22,1.22,0,0,0-.46-.27c-.48-.19-.52,0-1-.21l-1-.3c-.12,0-.25.17-.31.29v.05c0,.09.1.18.13.23Z"/><path class="cls-2" d="M26,25.58c0,.12.11.13.33.23a3.8,3.8,0,0,0,.4.19c.13,0,.28.05.43.08a3.41,3.41,0,0,0,.43.06c.16,0,.29.12.42.12s.38-.06.41-.18-.05-.29-.26-.41-.31,0-.46,0-.24-.25-.39-.28-.3-.08-.45-.1a2.16,2.16,0,0,0-.46.05C26.14,25.36,26,25.47,26,25.58Z"/><path class="cls-2" d="M24.4,25.64a.46.46,0,0,0,.47.2.44.44,0,0,0,.3-.38c0-.14-.21-.23-.43-.18S24.34,25.52,24.4,25.64Z"/><path class="cls-2" d="M194,28.9h0c-.3.09-.63,0-.94.13s-.43.21-.89.35-.49,0-.95.17a1.3,1.3,0,0,0-.41.24l-.14.14c0,.05-.07.11-.11.12h-.24a.27.27,0,0,1-.18-.18.42.42,0,0,1,0-.25c0-.14.22-.17.32-.22a3,3,0,0,1,.63-.25c.46-.16.42-.28.88-.43s.5,0,1-.15l.93-.27c.11,0,.24.18.29.31l0,.05c0,.08-.1.17-.13.22Z"/><path class="cls-2" d="M197.23,27.84c0,.12-.1.14-.31.24a3.29,3.29,0,0,1-.38.2l-.42.08c-.14,0-.29,0-.42.05s-.28.12-.4.11-.37-.06-.4-.17a.41.41,0,0,1,.25-.41c.11-.06.3,0,.45,0s.22-.24.37-.27a2.53,2.53,0,0,1,.42-.1,2.09,2.09,0,0,1,.45,0C197.08,27.63,197.22,27.73,197.23,27.84Z"/><path class="cls-2" d="M198.77,27.86a.5.5,0,0,1-.45.19.41.41,0,0,1-.29-.37c0-.14.19-.24.42-.18S198.83,27.74,198.77,27.86Z"/><path class="cls-2" d="M29.32,28.9h0c.3.09.63,0,.93.13.46.14.44.21.9.35s.49,0,.94.17a1.24,1.24,0,0,1,.42.24l.14.14c0,.05.07.11.11.12H33a.27.27,0,0,0,.18-.18.42.42,0,0,0,0-.25c0-.14-.22-.17-.32-.22a3,3,0,0,0-.63-.25c-.46-.16-.42-.28-.88-.43s-.5,0-1-.15l-.93-.27c-.11,0-.25.18-.3.31v.05c0,.08.1.17.13.22Z"/><path class="cls-2" d="M26,27.84c0,.12.11.14.32.24a3.29,3.29,0,0,0,.38.2l.42.08c.14,0,.28,0,.41.05s.29.12.41.11.37-.06.4-.17a.41.41,0,0,0-.25-.41c-.11-.06-.3,0-.45,0s-.22-.24-.37-.27a2.53,2.53,0,0,0-.42-.1,2,2,0,0,0-.45,0C26.19,27.63,26.05,27.73,26,27.84Z"/><path class="cls-2" d="M24.5,27.86a.49.49,0,0,0,.45.19.43.43,0,0,0,.29-.37c0-.14-.19-.24-.42-.18S24.43,27.74,24.5,27.86Z"/><path class="cls-2" d="M194.94,30.81h0c-.22.06-.48,0-.7.05s-.33.17-.66.27-.37,0-.68.12a.62.62,0,0,0-.24.24s0,.09-.08.14,0,.09-.06.11h-.23a.41.41,0,0,1-.24-.38c0-.11.15-.14.21-.2a2.11,2.11,0,0,1,.45-.28c.35-.17.3-.29.67-.4s.38,0,.73-.07l.7-.19c.09,0,.2.19.24.33v0a.32.32,0,0,1-.09.21Z"/><path class="cls-2" d="M197.4,30c0,.12-.08.13-.24.21a1.47,1.47,0,0,1-.28.16,3.06,3.06,0,0,1-.32.05c-.1,0-.21,0-.31,0s-.21.09-.3.08-.29-.1-.31-.21a.38.38,0,0,1,.19-.38c.08,0,.22.07.33,0s.17-.22.28-.24a2,2,0,0,1,.32-.06,1.54,1.54,0,0,1,.34.08C197.29,29.82,197.39,29.93,197.4,30Z"/><path class="cls-2" d="M198.54,30.13a.54.54,0,0,1-.18.15.29.29,0,0,1-.2,0c-.1,0-.18-.23-.16-.37s.17-.22.35-.17S198.62,30,198.54,30.13Z"/><path class="cls-2" d="M28.33,30.81h0c.23.06.48,0,.71.05s.33.17.66.27.37,0,.68.12a.62.62,0,0,1,.24.24s.05.09.08.14,0,.09.06.11H31a.41.41,0,0,0,.24-.38c0-.11-.15-.14-.21-.2a2.11,2.11,0,0,0-.45-.28c-.35-.17-.31-.29-.67-.4s-.38,0-.74-.07l-.7-.19c-.08,0-.19.19-.23.33v0a.32.32,0,0,0,.09.21Z"/><path class="cls-2" d="M25.87,30c0,.12.08.13.24.21a1.47,1.47,0,0,0,.28.16c.1,0,.21,0,.31.05s.22,0,.32,0,.21.09.3.08.28-.1.31-.21a.38.38,0,0,0-.19-.38c-.08,0-.22.07-.34,0s-.16-.22-.27-.24a2,2,0,0,0-.32-.06,1.64,1.64,0,0,0-.35.08A.33.33,0,0,0,25.87,30Z"/><path class="cls-2" d="M24.73,30.13a.45.45,0,0,0,.18.15.27.27,0,0,0,.19,0c.11,0,.18-.23.17-.37s-.17-.22-.35-.17S24.65,30,24.73,30.13Z"/><path class="cls-2" d="M196.1,32.81h0c-.13,0-.27-.09-.4-.07s-.19.11-.38.15-.22-.09-.42,0a.31.31,0,0,0-.18.12l-.08.08s0,.07-.09.05l0,0-.05-.07a.13.13,0,0,1,0-.06.63.63,0,0,1,0-.43c0-.07.09,0,.14,0l.26-.06c.2,0,.18-.18.38-.21s.23.09.43,0l.41-.06s.11.22.13.35v.05a.56.56,0,0,1,0,.19Z"/><path class="cls-2" d="M197.51,32.39c0,.12,0,.12-.14.18s-.11.11-.17.13H197a.88.88,0,0,1-.17,0c-.07,0-.12,0-.18,0a.31.31,0,0,1-.17-.25.43.43,0,0,1,.11-.35s.13.11.2.08.1-.19.16-.19a.68.68,0,0,1,.19,0c.07,0,.13.1.19.13A.36.36,0,0,1,197.51,32.39Z"/><path class="cls-2" d="M198.16,32.26c0,.14-.08.33-.16.33s-.15-.19-.16-.33.07-.24.15-.24S198.16,32.12,198.16,32.26Z"/><path class="cls-2" d="M27.17,32.81h0c.13,0,.27-.09.4-.07s.19.11.38.15.22-.09.42,0a.34.34,0,0,1,.18.12l.08.08s.05.07.09.05l0,0,.05-.07s0,0,0-.06a.63.63,0,0,0,0-.43c0-.07-.09,0-.14,0l-.26-.06c-.2,0-.18-.18-.38-.21s-.23.09-.43,0l-.41-.06c-.05,0-.11.22-.13.35v.05a.4.4,0,0,0,.05.19Z"/><path class="cls-2" d="M25.76,32.39c0,.12,0,.12.14.18s.11.11.17.13h.18a.88.88,0,0,0,.17,0c.07,0,.12,0,.18,0a.33.33,0,0,0,.17-.25.43.43,0,0,0-.12-.35s-.12.11-.19.08-.1-.19-.16-.19a.68.68,0,0,0-.19,0c-.07,0-.14.1-.19.13A.36.36,0,0,0,25.76,32.39Z"/><path class="cls-2" d="M25.11,32.26c0,.14.08.33.16.33s.15-.19.16-.33-.07-.24-.16-.24S25.11,32.12,25.11,32.26Z"/><path class="cls-2" d="M181.63,24.58h0c-.5,0-1-.06-1.51,0-.77,0-.77.1-1.53.11s-.77-.14-1.54-.16a5.23,5.23,0,0,0-.79,0l-.38,0a1.45,1.45,0,0,1-.36,0l-.12-.06-.14-.09-.07-.06c-.1-.18.21-.35.35-.4s.36,0,.52,0l1,.05c.76,0,.76-.11,1.52-.1s.75.13,1.51.1.76,0,1.52-.08c.18,0,.32.2.35.34v.05c0,.09-.21.16-.28.21Z"/><path class="cls-2" d="M187.06,23.54c0,.12-.18.16-.53.28a4.57,4.57,0,0,1-.64.24l-.67.1c-.24,0-.46,0-.67.06a5.43,5.43,0,0,1-.67.11c-.37,0-.57-.08-.59-.2s.16-.29.5-.4c.18-.05.44.07.69,0s.4-.24.63-.28.46-.09.67-.11a5,5,0,0,1,.68,0C186.83,23.35,187,23.43,187.06,23.54Z"/><path class="cls-2" d="M189.43,22.87c0,.14-.2.4-.51.48s-.61-.06-.64-.19.2-.29.5-.37S189.4,22.74,189.43,22.87Z"/><path class="cls-2" d="M41.64,24.58h0c.5,0,1-.06,1.51,0,.76,0,.76.1,1.53.11s.77-.14,1.53-.16a5.29,5.29,0,0,1,.8,0l.38,0a1.45,1.45,0,0,0,.36,0l.12-.06.14-.09.07-.06c.09-.18-.21-.35-.35-.4s-.37,0-.53,0l-1,.05c-.76,0-.76-.11-1.52-.1s-.76.13-1.51.1-.76,0-1.52-.08c-.18,0-.32.2-.36.34v.05c0,.09.21.16.28.21Z"/><path class="cls-2" d="M36.21,23.54c0,.12.18.16.53.28a4.57,4.57,0,0,0,.64.24l.67.1c.24,0,.46,0,.67.06a5.14,5.14,0,0,0,.67.11c.37,0,.57-.08.59-.2s-.16-.29-.5-.4c-.19-.05-.45.07-.69,0s-.4-.24-.63-.28-.46-.09-.67-.11a5.16,5.16,0,0,0-.69,0C36.44,23.35,36.23,23.43,36.21,23.54Z"/><path class="cls-2" d="M33.83,22.87c0,.14.21.4.52.48s.6-.06.64-.19-.2-.29-.5-.37S33.87,22.74,33.83,22.87Z"/><path class="cls-2" d="M180.19,43.7h-.06c-1.17.13-2.32.07-3.48.14-.89,0-1.33.09-1.77.12a17,17,0,0,1-1.78.08,11.38,11.38,0,0,1-1.78-.12c-.44-.08-.89-.13-1.77-.29-.61-.13-1.22-.24-1.81-.41l-.43-.14a3.61,3.61,0,0,1-.42-.16l-.4-.16a2.77,2.77,0,0,1-.37-.22,2.11,2.11,0,0,1-.23-.19l-.24-.27a.56.56,0,0,1-.1-.15c-.06-.14.09-.15.27-.11s.42.13.58.18c.32.13.7.41,1,.55a10.41,10.41,0,0,0,2.19.65,8.86,8.86,0,0,0,1.73.16h1.74c.88,0,1.32,0,1.76,0s.88,0,1.76,0,1.32-.08,1.75-.12l1.76-.16a.89.89,0,0,1,.8.29v0c0,.09-.48.2-.66.25Z"/><path class="cls-2" d="M192.46,40.31c0,.11-.39.28-1.17.63-.41.18-.86.42-1.41.63s-1,.33-1.51.49-1,.29-1.5.4-1.08.33-1.52.4c-.83.13-1.3.11-1.32,0s.37-.34,1.16-.58c.42-.13,1-.11,1.55-.28s.9-.45,1.42-.61l1.5-.51c.55-.18,1.08-.28,1.51-.4C192,40.25,192.42,40.2,192.46,40.31Z"/><path class="cls-2" d="M197.36,37.52s0,.23-.14.47a2.5,2.5,0,0,1-.72.74c-.64.43-1.28.49-1.33.37s.43-.45,1-.84l.77-.54C197.16,37.57,197.31,37.47,197.36,37.52Z"/><path class="cls-2" d="M43.08,43.7h.06c1.17.13,2.32.07,3.48.14.89,0,1.33.09,1.77.12a16.75,16.75,0,0,0,1.77.08A11.53,11.53,0,0,0,52,43.93c.44-.08.88-.13,1.76-.29.62-.13,1.23-.24,1.82-.41l.43-.14a3.61,3.61,0,0,0,.42-.16l.39-.16a2.36,2.36,0,0,0,.38-.22,2.11,2.11,0,0,0,.23-.19l.24-.27a.56.56,0,0,0,.1-.15c.06-.14-.09-.15-.28-.11S57,42,56.87,42c-.32.13-.7.41-1,.55a10.41,10.41,0,0,1-2.19.65,8.86,8.86,0,0,1-1.73.16H50.17c-.88,0-1.32,0-1.76,0s-.88,0-1.76,0l-1.76-.12-1.75-.16a.87.87,0,0,0-.8.29v0c0,.09.49.2.66.25Z"/><path class="cls-2" d="M30.81,40.31c0,.11.39.28,1.17.63.41.18.86.42,1.41.63s1,.33,1.51.49,1,.29,1.5.4,1.08.33,1.52.4c.83.13,1.3.11,1.32,0s-.37-.34-1.16-.58c-.42-.13-1-.11-1.56-.28s-.9-.45-1.41-.61l-1.5-.51c-.56-.18-1.08-.28-1.51-.4C31.29,40.25,30.85,40.2,30.81,40.31Z"/><path class="cls-2" d="M25.91,37.52c-.05,0,0,.23.14.47a2.38,2.38,0,0,0,.72.74c.64.43,1.28.49,1.33.37s-.43-.45-1-.84l-.77-.54C26.11,37.57,26,37.47,25.91,37.52Z"/><path class="cls-2" d="M180.74,41.89h-.06c-1.13.15-2.25.11-3.39.17-1.71.09-1.71.16-3.43.2-.86,0-1.29,0-1.72-.05l-1.73-.09c-.6,0-1.2,0-1.8-.12a6.19,6.19,0,0,1-.86-.15,3.31,3.31,0,0,1-.8-.28,1.46,1.46,0,0,1-.24-.17,2.16,2.16,0,0,1-.27-.25,1.1,1.1,0,0,1-.11-.14c-.06-.14.08-.15.27-.13l.3.06.27.06c.32.09.72.31,1.06.39a10.05,10.05,0,0,0,2.2.3,11.83,11.83,0,0,0,1.71,0c.42,0,.85-.07,1.71-.08,1.7,0,1.71.1,3.42,0l1.7-.12c.42,0,.85-.08,1.7-.18a.8.8,0,0,1,.78.26v.05c0,.09-.47.21-.63.27Z"/><path class="cls-2" d="M192.63,38.45c.05.11-.38.28-1.12.63-.4.18-.84.44-1.38.63l-.71.24-.75.23c-.51.16-1,.27-1.46.39s-1.05.33-1.47.39c-.81.14-1.26.13-1.29,0s.36-.35,1.12-.6c.4-.12,1-.12,1.51-.28s.88-.44,1.38-.59l.74-.25.71-.24c.54-.16,1.05-.28,1.47-.39C192.16,38.39,192.59,38.34,192.63,38.45Z"/><path class="cls-2" d="M197.56,35.91c.07.11-.42.62-1.06,1a3.44,3.44,0,0,1-.86.32c-.24,0-.41,0-.44,0s.07-.18.26-.32a5.49,5.49,0,0,1,.78-.47C196.86,36,197.49,35.78,197.56,35.91Z"/><path class="cls-2" d="M42.53,41.89h.06c1.13.15,2.25.11,3.38.17,1.72.09,1.72.16,3.44.2.86,0,1.29,0,1.72-.05l1.72-.09A18.13,18.13,0,0,0,54.66,42a6.45,6.45,0,0,0,.86-.15,3.31,3.31,0,0,0,.8-.28,1.46,1.46,0,0,0,.24-.17,2.16,2.16,0,0,0,.27-.25,1.1,1.1,0,0,0,.11-.14c.06-.14-.09-.15-.27-.13l-.3.06L56.1,41c-.32.09-.72.31-1.06.39a10.14,10.14,0,0,1-2.2.3,11.83,11.83,0,0,1-1.71,0c-.43,0-.85-.07-1.71-.08-1.71,0-1.71.1-3.42,0l-1.7-.12-1.7-.18a.8.8,0,0,0-.78.26v.05c0,.09.47.21.63.27Z"/><path class="cls-2" d="M30.64,38.45c-.05.11.37.28,1.12.63.4.18.84.44,1.38.63l.71.24.75.23c.51.16,1,.27,1.46.39s1,.33,1.47.39c.81.14,1.26.13,1.28,0s-.35-.35-1.11-.6c-.41-.12-1-.12-1.51-.28s-.88-.44-1.38-.59l-.75-.25-.7-.24c-.55-.16-1-.28-1.47-.39C31.11,38.39,30.68,38.34,30.64,38.45Z"/><path class="cls-2" d="M25.71,35.91c-.07.11.42.62,1.06,1a3.3,3.3,0,0,0,.86.32c.24,0,.4,0,.44,0s-.08-.18-.26-.32a5.49,5.49,0,0,0-.78-.47C26.41,36,25.78,35.78,25.71,35.91Z"/><path class="cls-2" d="M181.52,26.28h0c-.52,0-1-.13-1.54-.14-.79,0-.79.06-1.57,0s-.77-.17-1.55-.22a4.33,4.33,0,0,0-.81,0l-.39,0a1.21,1.21,0,0,1-.38,0,.52.52,0,0,1-.13-.06.71.71,0,0,1-.14-.1.16.16,0,0,1-.07-.07c-.08-.19.25-.33.39-.38a1.6,1.6,0,0,1,.52.06l1,.06c.78,0,.79-.08,1.56,0s.77.17,1.55.19.78,0,1.55,0c.19,0,.32.23.34.36v0c0,.09-.23.15-.3.19Z"/><path class="cls-2" d="M187.11,25.44c0,.12-.18.16-.54.27a6.28,6.28,0,0,1-.66.23c-.22,0-.46.06-.7.09s-.47,0-.69,0-.49.1-.69.08c-.37,0-.58-.11-.59-.22s.18-.28.53-.38c.19,0,.45.08.7,0s.41-.23.65-.26.47-.09.69-.11a5,5,0,0,1,.7,0C186.88,25.25,187.09,25.33,187.11,25.44Z"/><path class="cls-2" d="M189.57,24.85c0,.14-.24.39-.56.45s-.61-.07-.64-.21.21-.28.53-.35S189.54,24.72,189.57,24.85Z"/><path class="cls-2" d="M41.75,26.28h0c.52,0,1-.13,1.54-.14.78,0,.79.06,1.57,0s.77-.17,1.55-.22a4.39,4.39,0,0,1,.81,0c.13,0,.26,0,.39,0A1.21,1.21,0,0,0,48,26l.13-.06.14-.1a.23.23,0,0,0,.07-.07c.08-.19-.25-.33-.39-.38a1.57,1.57,0,0,0-.52.06l-1,.06c-.78,0-.79-.08-1.56,0s-.77.17-1.55.19-.78,0-1.55,0c-.19,0-.32.23-.35.36v0c0,.09.22.15.3.19Z"/><path class="cls-2" d="M36.16,25.44c0,.12.18.16.54.27a5.57,5.57,0,0,0,.66.23c.22,0,.45.06.7.09s.47,0,.69,0,.49.1.69.08c.37,0,.58-.11.59-.22s-.18-.28-.53-.38c-.19,0-.45.08-.7,0s-.42-.23-.65-.26-.47-.09-.69-.11a5,5,0,0,0-.7,0C36.39,25.25,36.18,25.33,36.16,25.44Z"/><path class="cls-2" d="M33.7,24.85c0,.14.24.39.56.45s.61-.07.63-.21-.21-.28-.52-.35S33.73,24.72,33.7,24.85Z"/><path class="cls-2" d="M131.19,34.77h-.05c-.93,0-1.85-.09-2.78-.07-1.41,0-1.41.11-2.82.14s-1.41-.1-2.82-.07a13.92,13.92,0,0,0-1.46.11l-.69.07a3.66,3.66,0,0,1-.66,0,.85.85,0,0,1-.23,0l-.27-.07a.3.3,0,0,1-.14-.06c-.2-.16.33-.37.59-.43a5.33,5.33,0,0,1,1,0l1.87,0c1.41,0,1.41-.17,2.82-.19s1.41.1,2.82.07l2.82-.07a.66.66,0,0,1,.62.36v.05c0,.08-.4.15-.54.19Z"/><path class="cls-2" d="M141.34,34.26c0,.12-.37.13-1,.2-.36,0-.76.12-1.23.14s-.82,0-1.26,0-.84,0-1.23,0-.89.06-1.24,0c-.67,0-1-.13-1-.25s.34-.27,1-.35c.35,0,.81.1,1.27.07s.79-.2,1.23-.21.87,0,1.27,0,.89.08,1.25.1C141,34,141.34,34.14,141.34,34.26Z"/><path class="cls-2" d="M145.9,34.05c0,.14-.54.34-1.12.36s-1.07-.17-1.07-.31.46-.25,1-.26S145.9,33.91,145.9,34.05Z"/><path class="cls-2" d="M92.08,34.77h0c.93,0,1.85-.09,2.78-.07,1.41,0,1.41.11,2.82.14s1.41-.1,2.82-.07a14.13,14.13,0,0,1,1.46.11l.69.07a3.66,3.66,0,0,0,.66,0,.85.85,0,0,0,.23,0l.27-.07a.26.26,0,0,0,.13-.06c.21-.16-.33-.37-.58-.43a5.33,5.33,0,0,0-1,0l-1.87,0c-1.41,0-1.41-.17-2.82-.19s-1.41.1-2.82.07l-2.82-.07a.65.65,0,0,0-.62.36v.05c0,.08.4.15.54.19Z"/><path class="cls-2" d="M81.92,34.26c0,.12.38.13,1,.2.36,0,.76.12,1.23.14s.82,0,1.26,0,.84,0,1.23,0,.89.06,1.24,0c.67,0,1-.13,1-.25s-.34-.27-1-.35c-.35,0-.81.1-1.27.07s-.79-.2-1.23-.21-.87,0-1.27,0S83.3,34,83,34C82.27,34,81.93,34.14,81.92,34.26Z"/><path class="cls-2" d="M77.36,34.05c0,.14.55.34,1.13.36s1.07-.17,1.07-.31-.46-.25-1-.26S77.37,33.91,77.36,34.05Z"/><path class="cls-2" d="M157.59,34.52h0c-.74,0-1.47-.13-2.21-.12-1.13,0-1.13.08-2.26.09s-1.13-.13-2.26-.12a11.52,11.52,0,0,0-1.17.09l-.55.06a2.28,2.28,0,0,1-.52,0l-.19,0-.22-.08s-.08,0-.1-.06.26-.36.47-.43a4.07,4.07,0,0,1,.78,0h1.5c1.13,0,1.13-.14,2.26-.15s1.13.13,2.26.13h2.25a.52.52,0,0,1,.49.37v0c0,.08-.32.14-.43.18Z"/><path class="cls-2" d="M165.72,34.35c0,.11-.3.1-.84.14-.29,0-.61.09-1,.09s-.65,0-1,0-.68,0-1-.06-.72,0-1,0c-.53-.06-.82-.16-.82-.27s.28-.27.81-.33c.28,0,.64.12,1,.11s.64-.18,1-.17.7,0,1,0,.72.12,1,.16C165.46,34.1,165.73,34.23,165.72,34.35Z"/><path class="cls-2" d="M169.37,34.61c0,.14-.49.24-1,.18s-.81-.29-.8-.43.4-.2.88-.13S169.39,34.47,169.37,34.61Z"/><path class="cls-2" d="M65.67,34.52h0c.74,0,1.47-.13,2.21-.12,1.13,0,1.13.08,2.26.09s1.13-.13,2.26-.12a11.11,11.11,0,0,1,1.16.09l.56.06a2.24,2.24,0,0,0,.52,0l.19,0,.21-.08s.09,0,.11-.06c.17-.17-.26-.36-.47-.43A4.07,4.07,0,0,0,74,34h-1.5c-1.13,0-1.13-.14-2.26-.15s-1.13.13-2.26.13H65.67a.54.54,0,0,0-.49.37v0c0,.08.33.14.44.18Z"/><path class="cls-2" d="M57.54,34.35c0,.11.31.1.85.14.28,0,.61.09,1,.09s.66,0,1,0,.67,0,1-.06.72,0,1,0c.53-.06.82-.16.82-.27s-.28-.27-.81-.33c-.28,0-.64.12-1,.11s-.63-.18-1-.17-.71,0-1,0-.72.12-1,.16C57.81,34.1,57.54,34.23,57.54,34.35Z"/><path class="cls-2" d="M53.9,34.61c0,.14.49.24,1,.18s.81-.29.8-.43-.41-.2-.88-.13S53.88,34.47,53.9,34.61Z"/><path class="cls-2" d="M124.52,15.24h0c-.76,0-1.51-.09-2.27-.08-1.15,0-1.15.09-2.31.07s-1.15-.16-2.29-.18a6.45,6.45,0,0,0-1.17.12l-.54.12c-.15,0-.33.1-.49.12h-.18l-.23,0-.12,0c-.21-.12.16-.43.36-.54a2.5,2.5,0,0,1,.81-.13,13.57,13.57,0,0,1,1.56-.07c1.16,0,1.16-.1,2.3-.08s1.15.15,2.3.14l2.29-.06A.55.55,0,0,1,125,15v0c0,.09-.32.16-.43.2Z"/><path class="cls-2" d="M132.78,14.43c0,.12-.29.15-.83.24a9.27,9.27,0,0,1-1,.2l-1,.07-1,0c-.38,0-.72.09-1,.08-.55,0-.85-.11-.85-.22s.26-.29.79-.38c.29,0,.66.07,1,0s.63-.22,1-.25.71-.07,1-.08.73,0,1,0C132.49,14.22,132.78,14.32,132.78,14.43Z"/><path class="cls-2" d="M136.48,14c0,.14-.42.37-.89.41s-.88-.12-.89-.25.36-.27.84-.32S136.47,13.86,136.48,14Z"/><path class="cls-2" d="M98.75,15.24h0c.76,0,1.51-.09,2.27-.08,1.15,0,1.15.09,2.31.07s1.15-.16,2.29-.18a6.45,6.45,0,0,1,1.17.12c.18,0,.36.08.53.12s.34.1.5.12H108l.23,0,.12,0c.21-.12-.16-.43-.37-.54a2.4,2.4,0,0,0-.8-.13,13.57,13.57,0,0,0-1.56-.07c-1.16,0-1.16-.1-2.3-.08s-1.15.15-2.3.14l-2.29-.06a.55.55,0,0,0-.51.35v0c0,.09.33.16.44.2Z"/><path class="cls-2" d="M90.48,14.43c0,.12.3.15.84.24a9.27,9.27,0,0,0,1,.2l1,.07,1,0c.38,0,.72.09,1,.08.55,0,.85-.11.85-.22s-.26-.29-.8-.38c-.28,0-.66.07-1,0s-.64-.22-1-.25-.71-.07-1-.08-.74,0-1,0C90.78,14.22,90.49,14.32,90.48,14.43Z"/><path class="cls-2" d="M86.78,14c0,.14.43.37.9.41s.88-.12.89-.25-.36-.27-.84-.32S86.8,13.86,86.78,14Z"/><path class="cls-2" d="M149.7,14.16h0c-.87,0-1.72-.11-2.59-.09-1.31,0-1.31.11-2.62.15s-1.32-.08-2.64,0c-.46,0-.91.09-1.35.16l-.65.09a3.07,3.07,0,0,1-.6.07,1.46,1.46,0,0,1-.22,0l-.26-.06-.13,0c-.2-.16.29-.39.53-.46a3.91,3.91,0,0,1,.91-.05l1.75-.1c1.32-.06,1.31-.19,2.63-.24s1.32.09,2.64.06l2.64-.05a.62.62,0,0,1,.58.37V14c0,.08-.38.14-.51.19Z"/><path class="cls-2" d="M159.18,14c0,.12-.35.1-1,.14-.33,0-.71.07-1.15.07s-.76,0-1.17,0-.78,0-1.15-.06-.83,0-1.15,0c-.62-.06-1-.16-1-.28s.32-.27.94-.32c.33,0,.75.12,1.19.12s.74-.18,1.15-.16.82,0,1.19,0,.83.13,1.17.18C158.87,13.78,159.19,13.92,159.18,14Z"/><path class="cls-2" d="M163.44,14.15c0,.14-.53.29-1.08.26s-1-.25-1-.39.46-.21,1-.18S163.45,14,163.44,14.15Z"/><path class="cls-2" d="M73.57,14.16h.05c.86,0,1.72-.11,2.58-.09,1.32,0,1.32.11,2.63.15s1.32-.08,2.64,0c.46,0,.91.09,1.35.16l.64.09a3.26,3.26,0,0,0,.61.07,1.46,1.46,0,0,0,.22,0l.26-.06.13,0c.2-.16-.29-.39-.53-.46a3.91,3.91,0,0,0-.91-.05l-1.75-.1c-1.32-.06-1.31-.19-2.63-.24s-1.33.09-2.64.06l-2.64-.05a.62.62,0,0,0-.58.37V14c0,.08.38.14.51.19Z"/><path class="cls-2" d="M64.09,14c0,.12.35.1,1,.14.34,0,.72.07,1.16.07s.76,0,1.17,0,.78,0,1.14-.06.84,0,1.16,0c.62-.06,1-.16,1-.28s-.32-.27-.94-.32c-.33,0-.75.12-1.19.12s-.74-.18-1.15-.16-.82,0-1.19,0-.84.13-1.17.18C64.4,13.78,64.08,13.92,64.09,14Z"/><path class="cls-2" d="M59.83,14.15c0,.14.53.29,1.08.26s1-.25,1-.39-.45-.21-1-.18S59.82,14,59.83,14.15Z"/><path class="cls-2" d="M169.48,15.25h0c-.31,0-.6-.2-.9-.23-.47,0-.48,0-.95,0s-.45-.17-.92-.21a2,2,0,0,0-.49,0l-.24,0a.55.55,0,0,1-.22,0l-.07-.05-.08-.09a.13.13,0,0,1,0-.06c-.06-.18.13-.36.23-.41s.22,0,.32,0l.63,0c.47,0,.48-.09.95,0s.46.17.93.22l.94.1c.11,0,.16.25.16.39v.05c0,.08-.15.13-.2.16Z"/><path class="cls-2" d="M172.88,15.43c0,.11-.14.09-.37.11a2.62,2.62,0,0,1-.43.06c-.13,0-.27,0-.41-.07s-.27-.07-.4-.1-.3,0-.41,0-.32-.2-.31-.32a.42.42,0,0,1,.38-.28c.12,0,.25.15.41.16s.29-.15.43-.13.3,0,.43.05a2.36,2.36,0,0,1,.39.2C172.8,15.18,172.9,15.31,172.88,15.43Z"/><path class="cls-2" d="M174.4,15.57a.41.41,0,0,1-.43.26.38.38,0,0,1-.29-.39c0-.14.19-.21.39-.17S174.42,15.43,174.4,15.57Z"/><path class="cls-2" d="M53.78,15.25h0c.31,0,.59-.2.9-.23.47,0,.48,0,.94,0s.46-.17.93-.21a2,2,0,0,1,.49,0l.23,0a.57.57,0,0,0,.22,0l.08-.05.08-.09a.13.13,0,0,0,0-.06c.06-.18-.14-.36-.23-.41s-.22,0-.32,0l-.63,0c-.47,0-.48-.09-1,0s-.46.17-.93.22l-.94.1c-.11,0-.16.25-.16.39v.05c0,.08.15.13.2.16Z"/><path class="cls-2" d="M50.39,15.43c0,.11.14.09.37.11a2.62,2.62,0,0,0,.43.06c.13,0,.26,0,.41-.07s.27-.07.4-.1.3,0,.41,0,.32-.2.3-.32-.14-.25-.37-.28-.25.15-.41.16-.29-.15-.43-.13-.3,0-.43.05a2.36,2.36,0,0,0-.39.2C50.47,15.18,50.37,15.31,50.39,15.43Z"/><path class="cls-2" d="M48.87,15.57a.4.4,0,0,0,.43.26.38.38,0,0,0,.29-.39c0-.14-.19-.21-.39-.17S48.84,15.43,48.87,15.57Z"/><path class="cls-2" d="M203.07,2.77h0c-.88-.07-1.73-.26-2.62-.28a12.58,12.58,0,0,0-1.33.06l-1.32.15-1.32.14a6.63,6.63,0,0,0-1.3.27,6.43,6.43,0,0,0-1.25.56c-.2.1-.37.22-.56.33a3.94,3.94,0,0,1-.51.32.58.58,0,0,1-.21.07l-.25.08-.14,0c-.26,0,.06-.49.25-.67a3.38,3.38,0,0,1,.84-.45A13,13,0,0,1,195,2.7l1.32-.41A7.38,7.38,0,0,1,197.67,2,7.81,7.81,0,0,1,199,2c.35,0,.69,0,1.37,0s1,0,1.36.05.68,0,1.35.1a.61.61,0,0,1,.55.42v0c0,.08-.4.11-.53.14Z"/><path class="cls-2" d="M212.68,4c0,.12-.37,0-1-.08-.33,0-.73,0-1.16-.13l-1.17-.22c-.41-.06-.79-.15-1.16-.21s-.84-.07-1.17-.14c-.63-.14-1-.27-.95-.38s.36-.24,1-.22c.34,0,.75.21,1.19.26s.79-.07,1.2,0,.84.13,1.21.21.83.28,1.16.39C212.43,3.65,212.72,3.85,212.68,4Z"/><path class="cls-2" d="M216.68,5.63c-.06,0-.19,0-.37-.1s-.4-.14-.65-.25c-.5-.24-.84-.57-.79-.7s.51-.06,1,.18a1.67,1.67,0,0,1,.67.48C216.73,5.43,216.74,5.61,216.68,5.63Z"/><path class="cls-2" d="M20.2,2.77h.05c.88-.07,1.73-.26,2.62-.28a12.73,12.73,0,0,1,1.33.06l1.32.15,1.32.14a6.78,6.78,0,0,1,1.3.27,6.71,6.71,0,0,1,1.25.56c.19.1.37.22.56.33a3.94,3.94,0,0,0,.51.32.58.58,0,0,0,.21.07l.25.08.14,0c.26,0-.06-.49-.25-.67A3.56,3.56,0,0,0,30,3.37a13,13,0,0,0-1.7-.67L27,2.29A7.38,7.38,0,0,0,25.6,2a7.81,7.81,0,0,0-1.37,0c-.35,0-.69,0-1.37,0s-1,0-1.36.05-.68,0-1.36.1a.61.61,0,0,0-.54.42v0c0,.08.4.11.53.14Z"/><path class="cls-2" d="M10.58,4c0,.12.38,0,1-.08.33,0,.72,0,1.16-.13l1.17-.22c.41-.06.79-.15,1.15-.21s.85-.07,1.18-.14c.62-.14,1-.27.94-.38s-.35-.24-1-.22c-.34,0-.75.21-1.2.26s-.78-.07-1.19,0S13,3,12.61,3s-.83.28-1.16.39C10.84,3.65,10.55,3.85,10.58,4Z"/><path class="cls-2" d="M6.59,5.63c.06,0,.19,0,.37-.1s.4-.14.65-.25c.5-.24.84-.57.79-.7s-.51-.06-1,.18a1.67,1.67,0,0,0-.67.48C6.54,5.43,6.53,5.61,6.59,5.63Z"/><path class="cls-2" d="M201.87,22.61h-.06a21.88,21.88,0,0,0-2.92-.29,9.88,9.88,0,0,0-1.49.13c-.37.06-.74.11-1.47.25l-1.46.29-.59.14a8.26,8.26,0,0,0-.84.3,8,8,0,0,0-1.34.75c-.2.14-.4.28-.59.43s-.34.3-.51.42a2,2,0,0,1-.19.12l-.24.14a.56.56,0,0,1-.13.07c-.13,0-.16-.09-.12-.26a1.56,1.56,0,0,1,.25-.5,3.22,3.22,0,0,1,.88-.63,12.58,12.58,0,0,1,1.83-.93c.35-.16.63-.26.85-.35l.58-.24A8.45,8.45,0,0,1,195.8,22a8.57,8.57,0,0,1,1.54-.16l1.54,0c.77,0,1.15,0,1.54,0s.76,0,1.52.14a.69.69,0,0,1,.61.45v.05c0,.08-.44.08-.6.1Z"/><path class="cls-2" d="M212.39,25.24c0,.11-.42,0-1.12-.22-.37-.11-.8-.18-1.28-.33s-.83-.29-1.27-.44-.86-.3-1.25-.44-.93-.22-1.28-.35c-.67-.24-1-.42-1-.53s.43-.18,1.14-.05c.37.06.8.34,1.28.47s.88.08,1.33.23.9.28,1.3.43.88.41,1.23.58C212.13,24.89,212.43,25.14,212.39,25.24Z"/><path class="cls-2" d="M216.69,27.28s0-.09-.05-.13a.45.45,0,0,0-.17-.11l-.14-.05-.07,0-.1,0a3.66,3.66,0,0,1-.43-.15c-.58-.24-1-.61-.93-.74s.56,0,1.15.22l.41.19.1.05.11.07a1,1,0,0,1,.18.17.81.81,0,0,1,.1.21.3.3,0,0,1,0,.21C216.78,27.3,216.71,27.3,216.69,27.28Z"/><path class="cls-2" d="M21.4,22.61h.05a22.19,22.19,0,0,1,2.93-.29,9.88,9.88,0,0,1,1.49.13c.37.06.74.11,1.47.25L28.8,23l.59.14a7.44,7.44,0,0,1,.83.3,7.67,7.67,0,0,1,1.35.75c.2.14.4.28.59.43s.34.3.51.42a2,2,0,0,0,.19.12l.24.14a.42.42,0,0,0,.13.07c.13,0,.16-.09.12-.26a1.56,1.56,0,0,0-.25-.5,3.12,3.12,0,0,0-.89-.63A12.48,12.48,0,0,0,30.39,23c-.35-.16-.63-.26-.85-.35L29,22.44a8.74,8.74,0,0,0-3-.59l-1.54,0c-.77,0-1.16,0-1.54,0s-.77,0-1.53.14a.69.69,0,0,0-.6.45v.05c.05.08.44.08.6.1Z"/><path class="cls-2" d="M10.88,25.24c0,.11.42,0,1.12-.22.37-.11.8-.18,1.28-.33l1.27-.44c.44-.14.85-.3,1.25-.44s.92-.22,1.28-.35c.67-.24,1-.42,1-.53s-.42-.18-1.13-.05c-.37.06-.8.34-1.29.47s-.87.08-1.32.23-.9.28-1.3.43a13.23,13.23,0,0,0-1.23.58C11.14,24.89,10.84,25.14,10.88,25.24Z"/><path class="cls-2" d="M6.58,27.28s0-.09,0-.13.09-.07.17-.11L6.93,27,7,27l.1,0a3.66,3.66,0,0,0,.43-.15c.58-.24,1-.61.93-.74s-.57,0-1.15.22a3.89,3.89,0,0,0-.41.19l-.1.05-.11.07a1,1,0,0,0-.18.17.81.81,0,0,0-.1.21.3.3,0,0,0,0,.21C6.49,27.3,6.56,27.3,6.58,27.28Z"/><path class="cls-2" d="M172.86,24.83v0c.07-.64.24-1.27.27-1.93,0-1,0-1,0-2a4.66,4.66,0,0,1,.17-1,8.44,8.44,0,0,0,.23-1c.07-.34.11-.69.15-1,0-.16,0-.33.07-.5a2.52,2.52,0,0,1,.1-.46.71.71,0,0,1,.1-.14l.13-.17a.28.28,0,0,1,.09-.07c.21-.08.27.34.27.53a2.74,2.74,0,0,1-.19.66c-.12.42-.22.84-.3,1.27a4.7,4.7,0,0,0-.09,1c0,.25,0,.49,0,1-.08,1-.2,1-.24,2,0,.51,0,.76-.05,1s0,.5-.09,1a.48.48,0,0,1-.42.39H173c-.08,0-.1-.3-.13-.4Z"/><path class="cls-2" d="M172.24,32c-.12,0-.13-.27-.17-.76a6.09,6.09,0,0,1,0-.9c0-.28.07-.58.11-.9s.12-.59.17-.86.06-.64.13-.88c.14-.46.28-.69.39-.67s.23.29.21.76c0,.25-.21.54-.25.87s.09.58.05.88-.05.61-.1.88-.14.62-.19.87C172.46,31.77,172.35,32,172.24,32Z"/><path class="cls-2" d="M172.09,35.22c-.07,0-.08-.16-.09-.32a2.37,2.37,0,0,1,.05-.51c.06-.36.24-.69.38-.7s.26.35.18.8a1.25,1.25,0,0,1-.25.57C172.25,35.2,172.14,35.25,172.09,35.22Z"/><path class="cls-2" d="M50.41,24.83v0c-.06-.64-.23-1.27-.26-1.93,0-1,0-1,0-2a5.38,5.38,0,0,0-.17-1,8.44,8.44,0,0,1-.23-1c-.07-.34-.11-.69-.15-1,0-.16,0-.33-.07-.5a1.92,1.92,0,0,0-.11-.46.42.42,0,0,0-.09-.14l-.13-.17a.28.28,0,0,0-.09-.07c-.21-.08-.27.34-.27.53a2.74,2.74,0,0,0,.19.66c.11.42.21.84.3,1.27a4.7,4.7,0,0,1,.09,1c0,.25,0,.49,0,1,.07,1,.2,1,.24,2,0,.51,0,.76.05,1s0,.5.09,1a.48.48,0,0,0,.42.39h.05c.08,0,.1-.3.13-.4Z"/><path class="cls-2" d="M51,32c.12,0,.13-.27.16-.76a4.9,4.9,0,0,0,.06-.9c0-.28-.07-.58-.11-.9S51,28.87,51,28.6s-.06-.64-.13-.88c-.14-.46-.28-.69-.4-.67s-.22.29-.2.76c0,.25.21.54.25.87s-.1.58-.05.88.05.61.09.88.15.62.2.87C50.81,31.77,50.92,32,51,32Z"/><path class="cls-2" d="M51.18,35.22c.06,0,.08-.16.08-.32a2.33,2.33,0,0,0,0-.51c-.07-.36-.24-.69-.38-.7s-.26.35-.18.8a1.25,1.25,0,0,0,.25.57C51,35.2,51.13,35.25,51.18,35.22Z"/><path class="cls-2" d="M203.53,4.82a.61.61,0,0,0-.18-.07c-.16,0-.36-.06-.48-.08L202,4.51a10.35,10.35,0,0,0-1.36-.19l-.91-.08h-.37l-.69-.05h-.08c-.7,0-.7,0-1.39.06a11.36,11.36,0,0,0-1.64.23l-.78.17a6.8,6.8,0,0,0-.68.14c-.42.14-.85.21-1.27.34a2.78,2.78,0,0,0-1.16.59.18.18,0,0,0,.11.2,2.57,2.57,0,0,0,.44-.11c.46-.13,1-.35,1.45-.45l.19,0a6.06,6.06,0,0,1,1.75-.24l.06,0A21.77,21.77,0,0,1,198,4.94l.7,0c.57,0,1.13-.09,1.7-.11s1.14.06,1.71.08c.27,0,.53,0,.8,0C203,4.93,203.73,5,203.53,4.82Z"/><path class="cls-2" d="M19.74,4.82a.61.61,0,0,1,.18-.07c.16,0,.36-.06.47-.08l.84-.16a10.12,10.12,0,0,1,1.36-.19l.91-.08h.37l.68-.05h.09c.7,0,.7,0,1.39.06a11,11,0,0,1,1.63.23l.79.17c.21,0,.47.07.68.14.41.14.85.21,1.27.34a2.78,2.78,0,0,1,1.16.59.18.18,0,0,1-.11.2A2.57,2.57,0,0,1,31,5.81c-.47-.13-1-.35-1.45-.45l-.19,0a6.08,6.08,0,0,0-1.76-.24l-.05,0a21.77,21.77,0,0,0-2.28-.12l-.7,0c-.57,0-1.13-.09-1.7-.11s-1.14.06-1.71.08c-.27,0-.53,0-.8,0C20.26,4.93,19.54,5,19.74,4.82Z"/><path class="cls-2" d="M202.87,6.71a.55.55,0,0,0-.16-.1,3.75,3.75,0,0,0-.44-.12,7.08,7.08,0,0,0-.8-.16,8.1,8.1,0,0,0-1.3-.16c-.29,0-.58,0-.86-.07H199c-.21,0-.43,0-.65,0h-.08c-.66,0-.66,0-1.31,0a13.12,13.12,0,0,0-1.55.19l-.75.13c-.21,0-.45,0-.65.11a12.05,12.05,0,0,0-2.4.51.18.18,0,0,0,.05.22,1.59,1.59,0,0,0,.44,0c.48,0,1-.16,1.47-.22l.18,0a6.83,6.83,0,0,1,1.69-.16h0c.73-.07,1.45-.07,2.18-.07l.66,0c.54,0,1.08-.09,1.62-.13s1.09,0,1.62,0a6,6,0,0,1,.74.06,3.81,3.81,0,0,0,.4,0C202.82,6.81,203,6.81,202.87,6.71Z"/><path class="cls-2" d="M20.4,6.71a.55.55,0,0,1,.16-.1A3.75,3.75,0,0,1,21,6.49a7.37,7.37,0,0,1,.79-.16,8.23,8.23,0,0,1,1.31-.16c.29,0,.57,0,.86-.07h.34c.22,0,.44,0,.65,0H25l1.32,0a13.39,13.39,0,0,1,1.55.19l.75.13c.2,0,.45,0,.65.11A12.21,12.21,0,0,1,31.7,7a.2.2,0,0,1-.05.22,1.59,1.59,0,0,1-.44,0c-.48,0-1-.16-1.47-.22l-.18,0a6.83,6.83,0,0,0-1.69-.16h-.06c-.72-.07-1.44-.07-2.17-.07l-.66,0c-.54,0-1.08-.09-1.62-.13s-1.09,0-1.62,0a6,6,0,0,0-.74.06,3.81,3.81,0,0,1-.4,0C20.45,6.81,20.32,6.81,20.4,6.71Z"/><path class="cls-2" d="M202.92,8.31a.46.46,0,0,0-.17-.07c-.16,0-.36-.06-.47-.08L201.47,8a9.68,9.68,0,0,0-1.33-.19c-.3,0-.59,0-.89-.09h-.35l-.67-.05h-.08c-.68,0-.68,0-1.36,0a14.25,14.25,0,0,0-1.6.19l-.77.14a5.2,5.2,0,0,0-.67.11,11.56,11.56,0,0,0-2.46.57.19.19,0,0,0,.06.22,2.25,2.25,0,0,0,.45,0c.49,0,1-.18,1.5-.25l.19,0a7.21,7.21,0,0,1,1.73-.17h.06c.74-.06,1.49-.06,2.23-.06l.68,0c.56,0,1.11-.07,1.67-.09s1.11,0,1.67.07l.78,0C202.41,8.43,203.12,8.47,202.92,8.31Z"/><path class="cls-2" d="M20.34,8.31a.61.61,0,0,1,.18-.07c.16,0,.35-.06.46-.08L21.8,8a9.68,9.68,0,0,1,1.33-.19c.3,0,.59,0,.89-.09h.35L25,7.68h.08c.68,0,.68,0,1.36,0a14.25,14.25,0,0,1,1.6.19l.76.14a5.07,5.07,0,0,1,.68.11A11.34,11.34,0,0,1,32,8.72a.17.17,0,0,1,0,.22,2.25,2.25,0,0,1-.45,0c-.49,0-1-.18-1.5-.25l-.19,0a7.21,7.21,0,0,0-1.73-.17H28c-.75-.06-1.49-.06-2.23-.06l-.68,0c-.56,0-1.11-.07-1.67-.09s-1.11,0-1.67.07l-.78,0C20.85,8.43,20.15,8.47,20.34,8.31Z"/><path class="cls-2" d="M205.59,10.08a.56.56,0,0,0-.22-.08c-.2,0-.44-.06-.57-.08l-1-.15c-.54-.08-1.08-.18-1.64-.21-.37,0-.73-.05-1.09-.1h-.43l-.83-.06h-.1c-.83,0-.83,0-1.67,0-.66,0-1.31.08-2,.16l-.95.13c-.27,0-.58.05-.83.11a17.33,17.33,0,0,0-3.06.53.15.15,0,0,0,0,.22,3.43,3.43,0,0,0,.56,0c.6,0,1.25-.17,1.86-.23l.24,0a10.28,10.28,0,0,1,2.15-.15h.07c.92-.05,1.84,0,2.76,0h.84c.69,0,1.37-.06,2.06-.07s1.37.07,2.07.09l1,0C205,10.19,205.84,10.23,205.59,10.08Z"/><path class="cls-2" d="M17.68,10.08A.56.56,0,0,1,17.9,10c.19,0,.44-.06.57-.08l1-.15c.55-.08,1.09-.18,1.65-.21.37,0,.73-.05,1.09-.1h.43l.82-.06h.11c.83,0,.83,0,1.67,0,.66,0,1.31.08,2,.16l.95.13c.27,0,.58.05.83.11a17.33,17.33,0,0,1,3.06.53.15.15,0,0,1,0,.22,3.43,3.43,0,0,1-.56,0c-.61,0-1.25-.17-1.87-.23l-.23,0a10.28,10.28,0,0,0-2.15-.15h-.07c-.92-.05-1.84,0-2.76,0h-.84c-.69,0-1.37-.06-2.06-.07s-1.38.07-2.07.09l-1,0C18.3,10.19,17.43,10.23,17.68,10.08Z"/><path class="cls-2" d="M203.38,12.51a.51.51,0,0,0-.18-.08l-.48-.12-.83-.21a12.51,12.51,0,0,0-1.38-.29c-.31,0-.61-.1-.92-.16l-.36,0-.7-.1h-.08c-.71,0-.71,0-1.42-.07a11.81,11.81,0,0,0-1.68.07l-.81.08c-.23,0-.49,0-.71.07a12.48,12.48,0,0,0-2.6.41.17.17,0,0,0,0,.22,2.22,2.22,0,0,0,.46,0c.52,0,1.07-.12,1.59-.16h.2a7.38,7.38,0,0,1,1.82,0h.06c.78,0,1.56,0,2.33.1l.71,0,1.74,0c.59,0,1.16.15,1.74.21.27,0,.54.06.81.11C202.84,12.59,203.57,12.69,203.38,12.51Z"/><path class="cls-2" d="M19.89,12.51a.51.51,0,0,1,.18-.08l.48-.12.83-.21a12.51,12.51,0,0,1,1.38-.29c.31,0,.61-.1.91-.16l.37,0,.7-.1h.08c.71,0,.71,0,1.42-.07a11.81,11.81,0,0,1,1.68.07l.81.08c.22,0,.49,0,.71.07a12.69,12.69,0,0,1,2.6.41.17.17,0,0,1,0,.22,2.27,2.27,0,0,1-.47,0c-.51,0-1.06-.12-1.58-.16h-.2a7.38,7.38,0,0,0-1.82,0h-.06c-.78,0-1.56,0-2.33.1l-.71,0-1.74,0c-.59,0-1.16.15-1.75.21-.26,0-.53.06-.8.11C20.43,12.59,19.69,12.69,19.89,12.51Z"/><path class="cls-2" d="M205.77,16a.76.76,0,0,0-.21-.13c-.18-.09-.43-.18-.56-.24l-1-.41-.81-.32-.84-.26-1.11-.32-.45-.1-.42-.11L200,14l-.1,0-.88-.14-.88-.1c-.34,0-.69-.06-1-.06h-1l-1,.05a8.49,8.49,0,0,0-.88.05,14.55,14.55,0,0,0-3.24.46.15.15,0,0,0,0,.22,2.23,2.23,0,0,0,.58,0c.64,0,1.32-.15,2-.19h.24a9.49,9.49,0,0,1,2.26,0H196a21.3,21.3,0,0,1,2.88.3q.43,0,.87.12l1.07.15c.36,0,.71.1,1.06.16s.71.17,1.06.26l1,.31c.32.1.65.19,1,.3C205.11,15.94,206,16.23,205.77,16Z"/><path class="cls-2" d="M17.5,16a.76.76,0,0,1,.21-.13c.18-.09.43-.18.56-.24l1-.41.82-.32.83-.26L22,14.32l.45-.1.42-.11.43-.09.1,0,.88-.14c.22,0,.43-.06.88-.1s.69-.06,1-.06h1l1,.05a8.49,8.49,0,0,1,.88.05,14.64,14.64,0,0,1,3.24.46.15.15,0,0,1,0,.22,2.14,2.14,0,0,1-.57,0c-.64,0-1.32-.15-2-.19h-.24a9.49,9.49,0,0,0-2.26,0h-.08a21.32,21.32,0,0,0-2.87.3l-.87.12-1.07.15c-.36,0-.71.1-1.07.16s-.7.17-1.05.26l-1.05.31c-.32.1-.64.19-1,.3C18.16,15.94,17.29,16.23,17.5,16Z"/><path class="cls-2" d="M206.71,17.91a1.06,1.06,0,0,0-.22-.13c-.2-.1-.46-.19-.61-.26l-1.06-.43-.87-.35-.89-.29c-.41-.11-.8-.23-1.19-.36l-.49-.11-.9-.24-.11,0-.94-.17-.94-.13c-.37-.05-.74-.09-1.11-.11l-.56,0h-1.65c-.3,0-.66,0-.95,0a17.83,17.83,0,0,0-3.51.29.15.15,0,0,0,0,.23,3.87,3.87,0,0,0,.62,0c.69,0,1.43-.08,2.12-.09h.27a11.52,11.52,0,0,1,2.42.11h.09a26.81,26.81,0,0,1,3.08.42l.94.15,1.14.19c.39.05.77.13,1.15.2s.76.19,1.13.29l1.12.35c.34.1.69.2,1,.32C206,17.84,206.94,18.15,206.71,17.91Z"/><path class="cls-2" d="M16.56,17.91a.85.85,0,0,1,.22-.13c.2-.1.46-.19.6-.26l1.07-.43.87-.35.89-.29c.41-.11.8-.23,1.19-.36l.48-.11.91-.24.11,0,.94-.17.94-.13c.37-.05.74-.09,1.11-.11l.56,0H28.1c.3,0,.65,0,.95,0a17.66,17.66,0,0,1,3.5.29.15.15,0,0,1,0,.23,4,4,0,0,1-.62,0c-.69,0-1.43-.08-2.12-.09h-.27a11.65,11.65,0,0,0-2.43.11H27a26.51,26.51,0,0,0-3.08.42c-.32,0-.63.1-.94.15l-1.15.19c-.38.05-.76.13-1.14.2s-.76.19-1.13.29l-1.12.35c-.34.1-.69.2-1,.32C17.27,17.84,16.33,18.15,16.56,17.91Z"/><path class="cls-2" d="M206,19.69a.55.55,0,0,0-.22-.13c-.2-.09-.46-.17-.6-.22L204.16,19l-.87-.31c-.29-.1-.58-.18-.88-.26l-1.18-.31-.48-.1-.89-.21-.11,0-.92-.14c-.23,0-.46-.07-.93-.12s-.73-.07-1.1-.08-.73,0-1.09,0l-1.07,0c-.3,0-.65,0-.93,0a17.07,17.07,0,0,0-3.44.3.14.14,0,0,0,0,.22,3.74,3.74,0,0,0,.61,0c.67,0,1.4-.08,2.08-.09h.27a11.16,11.16,0,0,1,2.38.09h.08c1,.06,2,.2,3,.36l.93.13c.75.11,1.5.19,2.26.32.38.06.75.16,1.12.25l1.11.3c.34.09.69.17,1,.27C205.35,19.65,206.28,19.91,206,19.69Z"/><path class="cls-2" d="M17.22,19.69a.7.7,0,0,1,.23-.13c.2-.09.46-.17.6-.22L19.11,19l.86-.31c.29-.1.59-.18.89-.26L22,18.07l.48-.1.89-.21.11,0c.46-.08.69-.11.92-.14s.46-.07.93-.12.73-.07,1.09-.08l1.1,0,1.07,0c.3,0,.64,0,.93,0a17.07,17.07,0,0,1,3.44.3.14.14,0,0,1,0,.22,3.82,3.82,0,0,1-.61,0c-.67,0-1.4-.08-2.09-.09H30a11.16,11.16,0,0,0-2.38.09h-.08c-1,.06-2,.2-3,.36l-.93.13c-.75.11-1.51.19-2.26.32-.38.06-.75.16-1.12.25l-1.11.3c-.34.09-.69.17-1,.27C17.92,19.65,17,19.91,17.22,19.69Z"/><path class="cls-2" d="M206.56,21.32a.78.78,0,0,0-.23-.13L205.7,21l-1.11-.4-.91-.31c-.31-.09-.62-.18-.94-.25s-.83-.19-1.24-.3l-.51-.08-.47-.1-.47-.08-.12,0c-.48-.07-.73-.08-1-.1s-.49,0-1-.07a11,11,0,0,0-1.15,0l-.58,0-.57,0c-.37,0-.75.06-1.12.1s-.67.05-1,.1a17,17,0,0,0-3.56.67.14.14,0,0,0,.06.21,3.59,3.59,0,0,0,.64,0c.7-.06,1.45-.23,2.16-.31l.27,0a11.55,11.55,0,0,1,2.49-.11h.09c.53,0,1.07,0,1.6,0s1.06.08,1.59.14l.49,0,.48.06.6.05.59.06,1.18.14c.4.06.79.16,1.18.24s.78.21,1.17.3.72.18,1.07.29C205.84,21.27,206.81,21.55,206.56,21.32Z"/><path class="cls-2" d="M16.7,21.32a1,1,0,0,1,.24-.13c.21-.09.48-.18.63-.24l1.11-.4.91-.31c.31-.09.62-.18.94-.25s.83-.19,1.24-.3l.5-.08.48-.1.47-.08.12,0c.48-.07.73-.08,1-.1s.49,0,1-.07a11.3,11.3,0,0,1,1.16,0l.58,0,.57,0c.37,0,.74.06,1.12.1s.67.05,1,.1a17.08,17.08,0,0,1,3.56.67.14.14,0,0,1-.06.21,3.59,3.59,0,0,1-.64,0c-.7-.06-1.45-.23-2.16-.31l-.27,0a11.61,11.61,0,0,0-2.5-.11h-.08c-.53,0-1.07,0-1.6,0s-1.06.08-1.59.14l-.49,0-.48.06-.6.05-.59.06L21,20.39c-.4.06-.79.16-1.18.24s-.78.21-1.17.3-.72.18-1.07.29C17.43,21.27,16.45,21.55,16.7,21.32Z"/><path class="cls-2" d="M196.24,21.44a.19.19,0,0,0-.09-.05l-.25,0-.43-.08a4.33,4.33,0,0,0-.71-.1,2.58,2.58,0,0,1-.48,0h-.18l-.36,0h0l-.72.07a4.57,4.57,0,0,0-.83.2l-.4.14c-.11,0-.24.05-.35.1a2.76,2.76,0,0,1-.64.18l-.32.1c-.1,0-.27.15-.24.31a.33.33,0,0,0,.17.11s0,0,.07,0h.05l.17,0,.2-.06a2.38,2.38,0,0,1,.38-.11l.1,0a2.06,2.06,0,0,1,.89-.15h0a7.65,7.65,0,0,1,1.16-.09l.36,0c.28,0,.57-.12.85-.17s.59,0,.88,0l.41,0C196,21.61,196.35,21.58,196.24,21.44Z"/><path class="cls-2" d="M27,21.44a.19.19,0,0,1,.09-.05l.25,0,.43-.08a4.33,4.33,0,0,1,.71-.1,2.42,2.42,0,0,0,.47,0h.19l.36,0h0l.72.07a4.57,4.57,0,0,1,.83.2l.4.14a3.37,3.37,0,0,1,.34.1,3,3,0,0,0,.65.18l.32.1c.1,0,.27.15.24.31a.35.35,0,0,1-.18.11s0,0-.06,0h0l-.17,0-.2-.06a2.72,2.72,0,0,0-.38-.11l-.1,0A2.11,2.11,0,0,0,31,22h0a7.68,7.68,0,0,0-1.17-.09l-.35,0c-.29,0-.57-.12-.86-.17s-.58,0-.87,0l-.41,0C27.29,21.61,26.92,21.58,27,21.44Z"/><path class="cls-2" d="M186.75,27.56a.34.34,0,0,0-.18,0l-.42.08-.76.09-.62,0-.62,0a5.54,5.54,0,0,1-.81,0l-.33,0c-.2,0-.41,0-.61,0h-.69c-.16,0-.31,0-.62,0h-1.46l-.72,0c-.2,0-.43-.06-.62-.06-.78,0-1.52-.37-2.31-.35a.19.19,0,0,0,0,.22c0,.05.32.17.38.19a6.8,6.8,0,0,0,1.42.32l.17,0a13.14,13.14,0,0,1,1.65.25h0c.71.08,1.42.15,2.13.17q.33,0,.66,0a11.88,11.88,0,0,0,1.57-.23l.79-.12c.26,0,.53-.08.79-.14l.71-.19C186.35,27.84,187,27.64,186.75,27.56Z"/><path class="cls-2" d="M36.52,27.56a.34.34,0,0,1,.18,0l.42.08.76.09.62,0,.62,0a5.49,5.49,0,0,0,.81,0l.33,0c.2,0,.4,0,.61,0h.69c.15,0,.31,0,.62,0h1.46l.72,0c.2,0,.42-.06.62-.06.78,0,1.52-.37,2.31-.35a.21.21,0,0,1,.05.22,1.5,1.5,0,0,1-.38.19,6.8,6.8,0,0,1-1.42.32l-.18,0a13.27,13.27,0,0,0-1.64.25h-.06c-.7.08-1.41.15-2.13.17l-.65,0a11.64,11.64,0,0,1-1.57-.23l-.79-.12c-.27,0-.53-.08-.79-.14L37,27.87C36.92,27.84,36.28,27.64,36.52,27.56Z"/><path class="cls-2" d="M187,29.64l-.16,0a3.22,3.22,0,0,0-.38.05l-.67,0c-.37,0-.73,0-1.09,0a4.33,4.33,0,0,1-.72,0h-.29a4.61,4.61,0,0,1-.53,0h-.07c-.54,0-.54,0-1.09,0s-.86,0-1.29,0l-.63,0c-.17,0-.38,0-.55,0a19.8,19.8,0,0,0-2.05-.12.22.22,0,0,0,0,.22,1.6,1.6,0,0,0,.35.15,6.59,6.59,0,0,0,1.26.17l.15,0a6.43,6.43,0,0,1,1.45.15h0c.62,0,1.24.1,1.87.11l.57,0a10.67,10.67,0,0,0,1.38-.2c.46-.08.92-.1,1.38-.19l.63-.13C186.62,29.89,187.19,29.75,187,29.64Z"/><path class="cls-2" d="M36.28,29.64l.16,0a3.22,3.22,0,0,1,.38.05l.67,0c.37,0,.73,0,1.09,0a4.33,4.33,0,0,0,.72,0h.28a4.87,4.87,0,0,0,.54,0h.07c.54,0,.54,0,1.09,0s.86,0,1.28,0l.64,0c.17,0,.37,0,.55,0a19.8,19.8,0,0,1,2-.12.22.22,0,0,1,0,.22,1.6,1.6,0,0,1-.35.15,6.59,6.59,0,0,1-1.26.17l-.16,0a6.41,6.41,0,0,0-1.44.15h0c-.62,0-1.24.1-1.87.11l-.57,0a10.67,10.67,0,0,1-1.38-.2c-.46-.08-.92-.1-1.38-.19l-.63-.13C36.65,29.89,36.08,29.75,36.28,29.64Z"/><path class="cls-2" d="M188.35,31.86a.5.5,0,0,0-.18,0l-.42.05-.74.05c-.4,0-.8,0-1.2.06a7,7,0,0,1-.79,0l-.32,0H184l-1.21.09c-.47,0-.94.09-1.42.14l-.69.08c-.19,0-.42,0-.61,0a21.4,21.4,0,0,0-2.26.13.18.18,0,0,0,0,.22,1.46,1.46,0,0,0,.4.1,8.05,8.05,0,0,0,1.39,0h.18a7.68,7.68,0,0,1,1.59,0h.06c.68,0,1.36,0,2,0l.62-.06c.51-.06,1-.18,1.5-.28s1-.13,1.52-.23l.69-.14C187.94,32.12,188.56,32,188.35,31.86Z"/><path class="cls-2" d="M34.92,31.86a.47.47,0,0,1,.18,0l.41.05.74.05c.41,0,.8,0,1.21.06a7,7,0,0,0,.79,0l.32,0h.67l1.2.09c.48,0,1,.09,1.42.14l.7.08c.19,0,.42,0,.61,0a21.4,21.4,0,0,1,2.26.13.18.18,0,0,1,0,.22,1.46,1.46,0,0,1-.4.1,8.07,8.07,0,0,1-1.39,0h-.18a7.68,7.68,0,0,0-1.59,0h-.06c-.68,0-1.36,0-2.05,0l-.62-.06c-.51-.06-1-.18-1.5-.28s-1-.13-1.52-.23l-.69-.14C35.33,32.12,34.71,32,34.92,31.86Z"/><path class="cls-2" d="M189.38,34.64h-.18c-.15,0-.33.07-.43.08l-.76.11c-.41.05-.82.08-1.23.15a5.87,5.87,0,0,1-.82.09l-.32,0c-.21,0-.41,0-.62,0H185c-.62.07-.62.08-1.24.14s-1,.12-1.46.19l-.72.1c-.2,0-.43,0-.63,0a3.63,3.63,0,0,1-1.14,0,8.76,8.76,0,0,1-1.1-.26.19.19,0,0,0-.11.2s.3.26.36.29a2,2,0,0,0,.75.22c.26,0,.52,0,.76,0h.18a9.21,9.21,0,0,1,1.66,0h.05c.71,0,1.42-.06,2.13-.12.21,0,.43-.05.64-.09a15.67,15.67,0,0,0,1.54-.36c.52-.14,1-.2,1.56-.35l.7-.2C189,34.93,189.61,34.72,189.38,34.64Z"/><path class="cls-2" d="M33.89,34.64h.18c.15,0,.32.07.43.08l.75.11c.42.05.83.08,1.24.15a5.87,5.87,0,0,0,.82.09l.32,0c.21,0,.41,0,.62,0h.07c.62.07.62.08,1.24.14s1,.12,1.46.19l.72.1c.2,0,.43,0,.62,0a3.69,3.69,0,0,0,1.15,0,8.22,8.22,0,0,0,1.09-.26.18.18,0,0,1,.12.2s-.3.26-.36.29a2,2,0,0,1-.75.22c-.26,0-.52,0-.76,0h-.18a9.21,9.21,0,0,0-1.66,0H41c-.7,0-1.41-.06-2.12-.12-.21,0-.43-.05-.64-.09a15,15,0,0,1-1.54-.36c-.52-.14-1-.2-1.56-.35l-.7-.2C34.29,34.93,33.66,34.72,33.89,34.64Z"/><path class="cls-2" d="M190.14,37.15a.72.72,0,0,0-.2,0c-.16,0-.36.11-.47.13l-.83.18-.69.11c-.23,0-.45.07-.68.13s-.6.1-.9.13l-.36.06c-.23,0-.46.06-.68.07h-.09l-.68.1-.69.08-.81.1-.82.11c-.26,0-.53.07-.79.09s-.49,0-.7,0c-.86.12-1.75-.12-2.61.05a.17.17,0,0,0,0,.22,1.92,1.92,0,0,0,.46.13,9.56,9.56,0,0,0,1.61.06h.2a14.28,14.28,0,0,1,1.85,0h.06c.79,0,1.58-.07,2.37-.16l.72-.11a14.33,14.33,0,0,0,1.71-.45c.57-.16,1.15-.27,1.71-.45l.78-.27C189.7,37.48,190.4,37.21,190.14,37.15Z"/><path class="cls-2" d="M33.13,37.15a.72.72,0,0,1,.2,0c.16,0,.36.11.47.13.28.07.55.13.83.18l.69.11c.22,0,.45.07.68.13s.6.1.9.13l.36.06c.23,0,.45.06.68.07H38l.69.1c.17,0,.34.05.69.08l.81.1.82.11c.26,0,.53.07.79.09s.48,0,.7,0c.86.12,1.75-.12,2.61.05a.17.17,0,0,1,0,.22,1.92,1.92,0,0,1-.46.13,9.6,9.6,0,0,1-1.61.06h-.2A14.28,14.28,0,0,0,41,39H41c-.79,0-1.58-.07-2.37-.16l-.72-.11a14.33,14.33,0,0,1-1.71-.45c-.57-.16-1.15-.27-1.71-.45l-.78-.27C33.56,37.48,32.87,37.21,33.13,37.15Z"/><text class="cls-3" transform="translate(84.79 27.9)">Calender</text></g></g></svg>