<svg xmlns="http://www.w3.org/2000/svg" viewBox="0 0 240.71 39.58"><defs><style>.cls-1{fill:#fff3db;}.cls-2{fill:#423021;}.cls-3{font-size:14px;fill:#42210b;font-family:Papyrus-Regular, Papyrus;}</style></defs><g id="레이어_2" data-name="레이어 2"><g id="레이어_1-2" data-name="레이어 1"><path class="cls-1" d="M223.57,7.75a6.58,6.58,0,0,0-6.92-3.61,8.24,8.24,0,0,0-7.2,6c-.78,3.16-5.9,4.68-11.39,5.16-.35,3.36-.83,8-1.49,14.39v0a2.83,2.83,0,0,1-.32,1.07c-1.08,2.06-4.35,2.64-7.81,3.26-2.47.44-5,.89-6.14,1.89h0c.35.29,1.79.91,5.5,1.21a46.28,46.28,0,0,0,10.38-.32l.68-.12.53-.1.12,0c3.41-.71,5.56-1.85,6.15-3.27h0a1.82,1.82,0,0,0,.11-.3l.09-.35A9.63,9.63,0,0,1,214.1,26l.26,0h.2l.4,0h.66l.23,0,.36,0,.17,0a8.67,8.67,0,0,1,1.36.31h0l.44.16,0,0,.44.19h0a7.51,7.51,0,0,1,2.4,1.79l0,0a7.47,7.47,0,0,1,1,1.44l.1.18.12.22s0,.09.07.14a8.8,8.8,0,0,0,.49.82l.13.17,0,.06a1.56,1.56,0,0,0,.16.2l0,.05.18.22.09.1.08.09.52.53a20.7,20.7,0,0,0,7.34,4,38.08,38.08,0,0,0,5.4,1.35L232,24.67a.67.67,0,0,1,.12-.66l6.6-7.83C233.77,15.28,226,12.71,223.57,7.75Z"/><path class="cls-1" d="M17.14,7.75a6.57,6.57,0,0,1,6.92-3.61,8.24,8.24,0,0,1,7.2,6c.78,3.16,5.9,4.68,11.39,5.16.35,3.36.83,8,1.49,14.39v0a3,3,0,0,0,.32,1.07c1.09,2.06,4.35,2.64,7.81,3.26,2.48.44,5,.89,6.15,1.89h0c-.35.29-1.79.91-5.5,1.21a46.39,46.39,0,0,1-10.39-.32l-.67-.12-.53-.1-.12,0c-3.41-.71-5.57-1.85-6.16-3.27h0c0-.1-.07-.2-.1-.3l-.09-.35A9.64,9.64,0,0,0,26.6,26l-.26,0h-.2l-.39,0h-.66l-.23,0-.36,0-.17,0a8.42,8.42,0,0,0-1.36.31h0l-.45.16,0,0L22,26.7h0a7.44,7.44,0,0,0-2.41,1.79l0,0a8.45,8.45,0,0,0-1,1.44l-.09.18-.12.22-.07.14a9.09,9.09,0,0,1-.5.82l-.12.17,0,.06-.16.2,0,.05-.19.22-.09.1-.08.09c-.15.17-.32.34-.51.53a20.66,20.66,0,0,1-7.35,4,37.69,37.69,0,0,1-5.39,1.35L8.67,24.67A.69.69,0,0,0,8.55,24L2,16.18C6.94,15.28,14.71,12.71,17.14,7.75Z"/><path class="cls-2" d="M120.35,27.17h.07c5.74-.59,22.11-2.18,34.17-2.54l-.68,6.63h0a1.49,1.49,0,0,0,.31,1.05c1.47,2,8.25,3.24,18.37,1.76A82.71,82.71,0,0,0,181,32.5l-.34,3.23a1.18,1.18,0,0,0,.08.67c.92,2.12,9.37,2.64,14.86,2.19,3.95-.33,10.72-1.45,11.66-5.24a8.07,8.07,0,0,1,7-5.92A6.34,6.34,0,0,1,221,31c3.27,6.67,15.36,8.62,16.63,8.63h0a1.12,1.12,0,0,0,.27,0l.09,0,.14-.08.08-.06s0,0,.05-.06a.47.47,0,0,0,.06-.09l0,0,0,0,0-.07s0-.05,0-.08v0l0-.42a.78.78,0,0,0,0-.3l-4.95-13.67,7.12-8.45a.67.67,0,0,0-.42-1.09c-4.58-.64-13-3-15.36-7.88a7.88,7.88,0,0,0-8.26-4.35,9.57,9.57,0,0,0-8.36,7c-.44,1.77-3.18,3.14-7.72,3.84-.71.11-1.46.19-2.23.27.14-1.3.25-2.38.34-3.27.45-4.32.45-4.32.45-4.44,0-1.7-1.08-4.11-4.27-5.35-4.47-1.74-11.42-.57-12.8,1.07-.29.28-.29.29-.7,4.4L181,8.38l-1.34.27c-1.89.36-3.86.66-5.53.88l.64-6.12A1.68,1.68,0,0,0,174.25,2c-.7-.69-2.82-2.79-24.94-1.63-11.24.59-23.45,1.8-29,2.44C114.85,2.2,102.64,1,91.4.4,69.28-.76,67.16,1.34,66.46,2a1.62,1.62,0,0,0-.53,1.38l.63,6.12C64.9,9.31,62.93,9,61,8.65L59.7,8.38l-.21-2.05c-.41-4.11-.41-4.12-.7-4.4C57.41.29,50.45-.88,46,.86,42.8,2.1,41.7,4.51,41.72,6.21c0,.12,0,.12.45,4.44.09.89.2,2,.34,3.27-.78-.08-1.53-.16-2.24-.27C35.74,13,33,11.58,32.56,9.81a9.57,9.57,0,0,0-8.36-7,7.87,7.87,0,0,0-8.26,4.35C13.55,12,5.16,14.4.58,15a.67.67,0,0,0-.54.42.68.68,0,0,0,.12.67l7.12,8.45L2.33,38.25a.63.63,0,0,0,0,.3l0,.42v0s0,.05,0,.08l0,.07v0l0,0,.07.09a.15.15,0,0,0,0,.06.24.24,0,0,0,.08.06l.14.08.08,0a1.18,1.18,0,0,0,.27,0h0c1.26,0,13.36-2,16.63-8.63a6.33,6.33,0,0,1,6.64-3.52,8.09,8.09,0,0,1,7,5.92c.94,3.79,7.71,4.91,11.66,5.24C50.59,39,59,38.52,60,36.4a1.27,1.27,0,0,0,.08-.67L59.7,32.5a82.17,82.17,0,0,0,8.42,1.58c10.12,1.48,16.9.24,18.36-1.76a1.5,1.5,0,0,0,.32-1.05h0l-.69-6.63c12.07.36,28.43,1.95,34.18,2.54Zm0-23h.08c5.45-.63,17.69-1.86,28.95-2.45,18.73-1,23,.37,23.93,1.25.15.15.14.24.14.29l-2.22,21.41c-1.41-.84-5.74-2.07-22.07-1.29-11.49.54-23.92,1.83-28.81,2.37-4.88-.54-17.31-1.83-28.81-2.37-16.32-.78-20.65.45-22.06,1.29L67.26,3.27s0-.14.14-.29c.9-.88,5.2-2.23,23.93-1.25,11.26.59,23.49,1.82,29,2.45Zm73.89-2.07c2.54,1,3.42,2.81,3.41,4.08v0c0,.09-.08.81-.44,4.28-.3,2.89-.81,7.74-1.65,15.9a7.68,7.68,0,0,0-4.71-2.81l-.3-.07h-.06a16.91,16.91,0,0,0-3.43-.34c-.62,0-1.25,0-1.85.08a16.55,16.55,0,0,0-4.5,1c1-9.51,1.54-14.88,1.84-17.83.23-2.29.34-3.36.39-3.67.76-.92,6.92-2.39,11.3-.69Zm-147.77,0C50.85.41,57,1.88,57.76,2.8c.06.31.17,1.38.4,3.67.29,3,.83,8.32,1.84,17.83a16.55,16.55,0,0,0-4.5-1c-.61-.05-1.23-.08-1.85-.08a16.91,16.91,0,0,0-3.43.34h-.07l-.29.07a7.65,7.65,0,0,0-4.71,2.81c-.85-8.16-1.35-13-1.65-15.9-.36-3.47-.44-4.19-.44-4.28v0c0-1.27.86-3.09,3.41-4.08Zm117,22.56c6.12.37,7.35,1.48,7.35,1.75v0a1,1,0,0,1-.3.37c-1.35,1.14-5,1.84-8.05,2l-.83,0-1.36,0-.55,0a15.49,15.49,0,0,0-3.54.48,5.79,5.79,0,0,0-.77.25l.52-5.06C158.82,24.53,161.41,24.54,163.47,24.67Zm-78.71-.08.53,5.06a5.49,5.49,0,0,0-.78-.25A15.33,15.33,0,0,0,81,28.92l-.56,0-1.35,0-.83,0c-3-.18-6.71-.88-8-2a1,1,0,0,1-.3-.37v0c0-.27,1.23-1.38,7.34-1.75C79.3,24.54,81.89,24.53,84.76,24.59Zm99.46,2.74-.1-.06-.05,0-.36-.18-.11,0-.28-.13c-.51-.23-1.08-.46-1.71-.7l-.7-.29a10.7,10.7,0,0,1,4.21-1.15c-.09.94-.19,1.92-.29,3A6.57,6.57,0,0,0,184.22,27.33Zm-128.35.36c-.1-1-.19-2-.28-3a10.7,10.7,0,0,1,4.21,1.15l-.7.29c-.64.24-1.21.47-1.71.7L57.1,27l-.11,0-.35.18,0,0-.11.06Zm126.52,4.42c2.87-.9,3.52-1.74,3.61-2.53a1,1,0,0,0,0-.17c.17-1.72.32-3.3.47-4.76a15.1,15.1,0,0,1,1.64,0c1.94.11,5.37.67,6.52,3.2a3.14,3.14,0,0,1,.36,1.67c-.14,1.11-1.37,1.77-3,2.25l-.07,0-.16,0-.14,0-.08,0c-1.06.27-2.26.48-3.44.69a23.18,23.18,0,0,0-5.65,1.46l-.25.12ZM58.53,34.18l-.25-.12a23.27,23.27,0,0,0-5.66-1.46c-1.18-.21-2.37-.42-3.43-.69l-.09,0-.13,0-.17,0-.06,0c-1.66-.48-2.9-1.14-3-2.25a3.24,3.24,0,0,1,.36-1.67c1.16-2.53,4.59-3.09,6.53-3.2a15,15,0,0,1,1.64,0c.15,1.46.3,3,.46,4.76a1.11,1.11,0,0,0,0,.17c.09.79.73,1.63,3.6,2.53Zm120.68-8.44a.28.28,0,0,0,0,.09c0,.45.16,1.08,1.36,1.52,3.63,1.33,3.88,1.91,3.88,2s-.87.81-3.19,1.52a73.5,73.5,0,0,1-8.95,1.74l-1.51.2a54.68,54.68,0,0,1-10.34.22,10.7,10.7,0,0,1-4.7-1.33l-.11-.09-.08-.09,0,0h0v-.16c.24-.29,1.48-1,5.12-1,.41,0,.83,0,1.23,0,5-.19,8.94-1.3,10.13-2.82a1.76,1.76,0,0,0,.38-.89v0L174,10.9c1.77-.23,3.92-.55,6-.94l.9-.18C180.52,13.22,180,18.3,179.21,25.74ZM59.84,9.78l.9.18c2,.39,4.2.71,6,.94l1.63,15.69v0a1.79,1.79,0,0,0,.39.89c1.19,1.52,5.16,2.63,10.12,2.82.41,0,.82,0,1.24,0,3.64,0,4.87.71,5.12,1a.76.76,0,0,1,0,.16h0l0,0-.09.09-.11.09a10.65,10.65,0,0,1-4.7,1.33,54.7,54.7,0,0,1-10.34-.22l-1.51-.2a73.23,73.23,0,0,1-8.94-1.74c-2.33-.71-3.11-1.3-3.2-1.52s.25-.71,3.89-2c1.2-.44,1.4-1.07,1.36-1.52,0,0,0-.06,0-.09C60.71,18.3,60.19,13.22,59.84,9.78ZM232.16,24a.67.67,0,0,0-.12.66l4.86,13.42a38.08,38.08,0,0,1-5.4-1.35,20.7,20.7,0,0,1-7.34-4l-.52-.53-.08-.09-.09-.1-.18-.22,0-.05a1.56,1.56,0,0,1-.16-.2l0-.06-.13-.17a8.8,8.8,0,0,1-.49-.82s-.05-.09-.07-.14l-.12-.22-.1-.18a7.47,7.47,0,0,0-1-1.44l0,0a7.51,7.51,0,0,0-2.4-1.79h0l-.44-.19,0,0-.44-.16h0a8.67,8.67,0,0,0-1.36-.31l-.17,0-.36,0-.23,0H215l-.4,0h-.2l-.26,0a9.63,9.63,0,0,0-8.26,6.66l-.09.35a1.82,1.82,0,0,1-.11.3h0c-.59,1.42-2.74,2.56-6.15,3.27l-.12,0-.53.1-.68.12a46.28,46.28,0,0,1-10.38.32c-3.71-.3-5.15-.92-5.5-1.21h0c1.11-1,3.67-1.45,6.14-1.89,3.46-.62,6.73-1.2,7.81-3.26a2.83,2.83,0,0,0,.32-1.07v0c.66-6.39,1.14-11,1.49-14.39,5.49-.48,10.61-2,11.39-5.16a8.24,8.24,0,0,1,7.2-6,6.58,6.58,0,0,1,6.92,3.61c2.42,5,10.2,7.53,15.19,8.43ZM2,16.18c5-.9,12.76-3.47,15.19-8.43a6.57,6.57,0,0,1,6.92-3.61,8.24,8.24,0,0,1,7.2,6c.78,3.16,5.9,4.68,11.39,5.16.35,3.36.83,8,1.49,14.39v0a3,3,0,0,0,.32,1.07c1.09,2.06,4.35,2.64,7.81,3.26,2.48.44,5,.89,6.15,1.89h0c-.35.29-1.79.91-5.5,1.21a46.39,46.39,0,0,1-10.39-.32l-.67-.12-.53-.1-.12,0c-3.41-.71-5.57-1.85-6.16-3.27h0c0-.1-.07-.2-.1-.3l-.09-.35A9.64,9.64,0,0,0,26.6,26l-.26,0h-.2l-.39,0h-.66l-.23,0-.36,0-.17,0a8.42,8.42,0,0,0-1.36.31h0l-.45.16,0,0L22,26.7h0a7.44,7.44,0,0,0-2.41,1.79l0,0a8.45,8.45,0,0,0-1,1.44l-.09.18-.12.22-.07.14a9.09,9.09,0,0,1-.5.82l-.12.17,0,.06-.16.2,0,.05-.19.22-.09.1-.08.09c-.15.17-.32.34-.51.53a20.66,20.66,0,0,1-7.35,4,37.69,37.69,0,0,1-5.39,1.35L8.67,24.67A.69.69,0,0,0,8.55,24Z"/><path class="cls-1" d="M182.43,34.06a23.18,23.18,0,0,1,5.65-1.46c1.18-.21,2.38-.42,3.44-.69l.08,0,.14,0,.16,0,.07,0c1.66-.48,2.89-1.14,3-2.25a3.14,3.14,0,0,0-.36-1.67c-1.15-2.53-4.58-3.09-6.52-3.2a15.1,15.1,0,0,0-1.64,0c-.15,1.46-.3,3-.47,4.76a1,1,0,0,1,0,.17c-.09.79-.74,1.63-3.61,2.53l-.21,2.07Z"/><path class="cls-1" d="M58.28,34.06a23.27,23.27,0,0,0-5.66-1.46c-1.18-.21-2.37-.42-3.43-.69l-.09,0-.13,0-.17,0-.06,0c-1.66-.48-2.9-1.14-3-2.25a3.24,3.24,0,0,1,.36-1.67c1.16-2.53,4.59-3.09,6.53-3.2a15,15,0,0,1,1.64,0c.15,1.46.3,3,.46,4.76a1.11,1.11,0,0,0,0,.17c.09.79.73,1.63,3.6,2.53l.22,2.07Z"/><path class="cls-1" d="M174,10.9l-1.62,15.69v0a1.76,1.76,0,0,1-.38.89c-1.19,1.52-5.17,2.63-10.13,2.82-.4,0-.82,0-1.23,0-3.64,0-4.88.71-5.12,1v.16h0l0,0,.08.09.11.09a10.7,10.7,0,0,0,4.7,1.33,54.68,54.68,0,0,0,10.34-.22l1.51-.2a73.5,73.5,0,0,0,8.95-1.74c2.32-.71,3.11-1.3,3.19-1.52s-.25-.71-3.88-2c-1.2-.44-1.41-1.07-1.36-1.52a.28.28,0,0,1,0-.09c.79-7.44,1.31-12.52,1.66-16L180,10C177.92,10.35,175.77,10.67,174,10.9Z"/><path class="cls-1" d="M66.7,10.9l1.63,15.69v0a1.79,1.79,0,0,0,.39.89c1.19,1.52,5.16,2.63,10.12,2.82.41,0,.82,0,1.24,0,3.64,0,4.87.71,5.12,1a.76.76,0,0,1,0,.16h0l0,0-.09.09-.11.09a10.65,10.65,0,0,1-4.7,1.33,54.7,54.7,0,0,1-10.34-.22l-1.51-.2a73.23,73.23,0,0,1-8.94-1.74c-2.33-.71-3.11-1.3-3.2-1.52s.25-.71,3.89-2c1.2-.44,1.4-1.07,1.36-1.52,0,0,0-.06,0-.09-.79-7.44-1.31-12.52-1.66-16l.9.18C62.79,10.35,64.94,10.67,66.7,10.9Z"/><path class="cls-1" d="M156.19,29.4a15.49,15.49,0,0,1,3.54-.48l.55,0,1.36,0,.83,0c3-.18,6.7-.88,8.05-2a1,1,0,0,0,.3-.37v0c0-.27-1.23-1.38-7.35-1.75-2.06-.13-4.65-.14-7.53-.08l-.52,5.06A5.79,5.79,0,0,1,156.19,29.4Z"/><path class="cls-1" d="M84.51,29.4A15.33,15.33,0,0,0,81,28.92l-.56,0-1.35,0-.83,0c-3-.18-6.71-.88-8-2a1,1,0,0,1-.3-.37v0c0-.27,1.23-1.38,7.34-1.75,2.07-.13,4.66-.14,7.53-.08l.53,5.06A5.49,5.49,0,0,0,84.51,29.4Z"/><path class="cls-1" d="M180.91,25.89l.7.29c.63.24,1.2.47,1.71.7l.28.13.11,0,.36.18.05,0,.1.06a6.57,6.57,0,0,1,.61.36c.1-1,.2-2,.29-3A10.7,10.7,0,0,0,180.91,25.89Z"/><path class="cls-1" d="M59.8,25.89l-.7.29c-.64.24-1.21.47-1.71.7L57.1,27l-.11,0-.35.18,0,0-.11.06-.61.36c-.1-1-.19-2-.28-3A10.7,10.7,0,0,1,59.8,25.89Z"/><path class="cls-1" d="M120.35,25.76c4.89-.54,17.32-1.83,28.81-2.37,16.33-.78,20.66.45,22.07,1.29l2.22-21.41s0-.14-.14-.29c-.9-.88-5.2-2.23-23.93-1.25-11.26.59-23.5,1.82-28.95,2.45h-.15c-5.46-.63-17.69-1.86-28.95-2.45C72.6.75,68.3,2.1,67.4,3c-.15.15-.14.24-.14.29l2.22,21.41c1.41-.84,5.74-2.07,22.06-1.29C103,23.93,115.47,25.22,120.35,25.76Z"/><path class="cls-1" d="M182.94,2.8c-.05.31-.16,1.38-.39,3.67-.3,3-.84,8.32-1.84,17.83a16.55,16.55,0,0,1,4.5-1c.6-.05,1.23-.08,1.85-.08a16.91,16.91,0,0,1,3.43.34h.06l.3.07a7.68,7.68,0,0,1,4.71,2.81c.84-8.16,1.35-13,1.65-15.9.36-3.47.43-4.19.44-4.28v0c0-1.27-.87-3.09-3.41-4.08h0C189.86.41,183.7,1.88,182.94,2.8Z"/><path class="cls-1" d="M57.76,2.8c.06.31.17,1.38.4,3.67.29,3,.83,8.32,1.84,17.83a16.55,16.55,0,0,0-4.5-1c-.61-.05-1.23-.08-1.85-.08a16.91,16.91,0,0,0-3.43.34h-.07l-.29.07a7.65,7.65,0,0,0-4.71,2.81c-.85-8.16-1.35-13-1.65-15.9-.36-3.47-.44-4.19-.44-4.28v0c0-1.27.86-3.09,3.41-4.08h0C50.85.41,57,1.88,57.76,2.8Z"/><path class="cls-2" d="M215.51,7h0a3.18,3.18,0,0,1-.62.07,4.58,4.58,0,0,0-.63.1,12.21,12.21,0,0,0-1.18.49,4.13,4.13,0,0,1-.62.2,2.14,2.14,0,0,0-.6.22,1.92,1.92,0,0,0-.53.39,2,2,0,0,0-.19.22c-.05.06-.08.15-.14.19l-.08,0-.12,0-.08,0a.22.22,0,0,1-.2-.16.52.52,0,0,1,0-.3c0-.17.25-.26.37-.35a4.26,4.26,0,0,1,.78-.47,4.42,4.42,0,0,0,.57-.35A2.27,2.27,0,0,1,212.8,7c.63-.24.67-.11,1.31-.31s.64-.18,1.29-.32c.16,0,.3.18.35.32v.05c0,.08-.15.17-.21.22Z"/><path class="cls-2" d="M220.13,6.58c0,.11-.19.09-.5.11s-.36.07-.57.07-.37,0-.57,0l-.56,0c-.21,0-.4.06-.56,0s-.47-.12-.48-.24.13-.28.44-.36c.16-.05.38.1.6.08s.38-.18.58-.18a4,4,0,0,1,.61,0,2.83,2.83,0,0,1,.58.18C220,6.33,220.14,6.46,220.13,6.58Z"/><path class="cls-2" d="M222.21,7c0,.13-.34.24-.6.17s-.42-.3-.39-.44.28-.19.54-.11S222.25,6.81,222.21,7Z"/><path class="cls-2" d="M25.19,7h0a3.38,3.38,0,0,0,.63.07,4.22,4.22,0,0,1,.62.1,11.41,11.41,0,0,1,1.19.49,4.1,4.1,0,0,0,.61.2,2.18,2.18,0,0,1,.61.22,2.08,2.08,0,0,1,.53.39,1.24,1.24,0,0,1,.18.22c.06.06.09.15.15.19l.08,0,.12,0L30,9a.22.22,0,0,0,.2-.16.62.62,0,0,0,0-.3c0-.17-.25-.26-.37-.35a4.26,4.26,0,0,0-.78-.47,4.42,4.42,0,0,1-.57-.35A2.27,2.27,0,0,0,27.91,7c-.63-.24-.68-.11-1.31-.31S26,6.5,25.31,6.36c-.16,0-.31.18-.35.32v.05c0,.08.16.17.21.22Z"/><path class="cls-2" d="M20.58,6.58c0,.11.19.09.5.11s.36.07.57.07.37,0,.56,0l.56,0c.21,0,.41.06.56,0,.31,0,.48-.12.49-.24s-.13-.28-.44-.36-.39.1-.6.08S22.4,6,22.19,6a3.89,3.89,0,0,0-.6,0,2.65,2.65,0,0,0-.58.18C20.7,6.33,20.56,6.46,20.58,6.58Z"/><path class="cls-2" d="M18.5,7c0,.13.34.24.59.17s.43-.3.39-.44-.27-.19-.54-.11S18.45,6.81,18.5,7Z"/><path class="cls-2" d="M215.67,8.93h0c-.4.07-.83,0-1.24.1a2.59,2.59,0,0,0-.6.18l-.6.21c-.6.19-.64.07-1.23.3a2.92,2.92,0,0,0-.57.33l-.26.18a.63.63,0,0,1-.24.16h-.12l-.14,0-.08,0c-.17-.11,0-.39.05-.5s.28-.14.4-.2l.8-.34c.61-.23.56-.36,1.19-.56a2.66,2.66,0,0,1,.65-.12,3.7,3.7,0,0,0,.65-.09l.64-.13.64-.1c.16,0,.29.2.33.33v0c0,.09-.16.17-.22.21Z"/><path class="cls-2" d="M220.23,8.7c0,.11-.19.08-.5.1a4.31,4.31,0,0,1-.56,0c-.17,0-.36,0-.55,0l-.55-.06c-.21,0-.4,0-.56,0s-.46-.14-.47-.25.15-.28.45-.35a.56.56,0,0,1,.28,0,.81.81,0,0,0,.31.06c.18,0,.37-.18.58-.16s.41,0,.59,0a4.48,4.48,0,0,1,.56.2C220.11,8.43,220.24,8.58,220.23,8.7Z"/><path class="cls-2" d="M222.27,9.06c0,.13-.33.25-.59.17s-.41-.3-.38-.43.27-.19.53-.12S222.31,8.92,222.27,9.06Z"/><path class="cls-2" d="M25,8.93h0c.41.07.84,0,1.24.1a2.89,2.89,0,0,1,.61.18l.59.21c.6.19.65.07,1.24.3a3.25,3.25,0,0,1,.57.33l.25.18a.76.76,0,0,0,.25.16h.11l.15,0,.08,0c.16-.11,0-.39-.05-.5s-.28-.14-.4-.2l-.8-.34c-.61-.23-.56-.36-1.19-.56a2.83,2.83,0,0,0-.65-.12,3.58,3.58,0,0,1-.65-.09l-.64-.13c-.16,0-.32-.06-.65-.1-.16,0-.28.2-.32.33v0c0,.09.17.17.22.21Z"/><path class="cls-2" d="M20.48,8.7c0,.11.19.08.49.1a4.66,4.66,0,0,0,.56,0c.18,0,.37,0,.56,0l.55-.06c.21,0,.4,0,.55,0s.47-.14.47-.25-.14-.28-.45-.35a.54.54,0,0,0-.27,0,.85.85,0,0,1-.31.06c-.18,0-.38-.18-.58-.16s-.41,0-.59,0a4,4,0,0,0-.56.2C20.6,8.43,20.46,8.58,20.48,8.7Z"/><path class="cls-2" d="M18.43,9.06a.53.53,0,0,0,.59.17c.25-.07.41-.3.38-.43s-.27-.19-.53-.12S18.39,8.92,18.43,9.06Z"/><path class="cls-2" d="M215,11h0c-.39.07-.79,0-1.18.09-.58.15-.56.22-1.13.39a2.87,2.87,0,0,1-.59.12,2.07,2.07,0,0,0-.59.14A2.24,2.24,0,0,0,211,12a1.57,1.57,0,0,0-.18.19s-.07.12-.12.15-.05,0-.07,0a.45.45,0,0,0-.11,0h-.07a.23.23,0,0,1-.22-.14.42.42,0,0,1,0-.29c0-.17.25-.25.37-.33a4.9,4.9,0,0,1,.78-.36,3.28,3.28,0,0,0,.56-.27,2.06,2.06,0,0,1,.57-.26c.59-.17.63,0,1.23-.19s.6-.13,1.21-.23c.15,0,.27.2.31.33v0c0,.09-.15.17-.2.21Z"/><path class="cls-2" d="M219.34,10.63c0,.11-.17.1-.46.12a5.26,5.26,0,0,1-.53.09c-.17,0-.34,0-.53,0l-.52-.05a3.26,3.26,0,0,1-.52,0c-.29,0-.45-.12-.45-.24s.13-.28.41-.36.36.11.56.09.35-.18.54-.18a5.14,5.14,0,0,1,.56,0,2.44,2.44,0,0,1,.54.18C219.22,10.38,219.36,10.51,219.34,10.63Z"/><path class="cls-2" d="M221.3,10.86a.5.5,0,0,1-.55.21c-.24-.05-.41-.27-.38-.41s.24-.2.5-.14S221.33,10.72,221.3,10.86Z"/><path class="cls-2" d="M25.67,11h0c.38.07.79,0,1.17.09.59.15.57.22,1.14.39a2.75,2.75,0,0,0,.59.12,2,2,0,0,1,.58.14,1.89,1.89,0,0,1,.52.31,1.57,1.57,0,0,1,.18.19c.05,0,.08.12.13.15s0,0,.07,0l.11,0h.07a.21.21,0,0,0,.21-.14.49.49,0,0,0,0-.29c0-.17-.26-.25-.38-.33a4.44,4.44,0,0,0-.77-.36,3.28,3.28,0,0,1-.56-.27,2.22,2.22,0,0,0-.57-.26c-.6-.17-.63,0-1.23-.19s-.6-.13-1.21-.23c-.15,0-.28.2-.31.33v0c0,.09.15.17.2.21Z"/><path class="cls-2" d="M21.36,10.63c0,.11.18.1.47.12a5.26,5.26,0,0,0,.53.09c.16,0,.34,0,.52,0l.52-.05a3.45,3.45,0,0,0,.53,0c.28,0,.44-.12.45-.24s-.13-.28-.42-.36-.35.11-.55.09-.35-.18-.54-.18a5.09,5.09,0,0,0-.56,0,2.28,2.28,0,0,0-.54.18C21.48,10.38,21.35,10.51,21.36,10.63Z"/><path class="cls-2" d="M19.41,10.86c0,.13.31.27.55.21a.45.45,0,0,0,.38-.41c0-.13-.25-.2-.5-.14S19.38,10.72,19.41,10.86Z"/><path class="cls-2" d="M212.37,13c0,.12-.13.26-.49.4-.19.07-.44.12-.69.19s-.53.06-.74.11c-.39.08-.55.08-.59,0s.06-.27.43-.44A4.4,4.4,0,0,1,211,13a4.08,4.08,0,0,1,.72-.17C212.15,12.83,212.35,12.86,212.37,13Z"/><path class="cls-2" d="M213.38,12.45h0a5,5,0,0,1,.77,0,6.77,6.77,0,0,0,.78,0c.79,0,.79-.1,1.58-.08s.78.18,1.56.26a5.56,5.56,0,0,0,.82.05h.39a1.5,1.5,0,0,1,.37,0l.11.07.13.12A.13.13,0,0,1,220,13c.07.19-.26.31-.41.34a1.61,1.61,0,0,1-.52-.11c-.33-.07-.67-.11-1-.16-.77-.09-.78.05-1.54,0s-.76-.15-1.53-.12-.76.05-1.52.14c-.19,0-.34-.19-.39-.32v-.05c0-.09.21-.17.28-.23Z"/><path class="cls-2" d="M220.63,13.37c0-.13.39-.24.7-.13s.5.37.45.5-.32.14-.63,0S220.59,13.51,220.63,13.37Z"/><path class="cls-2" d="M28.34,13c0,.12.12.26.49.4.19.07.43.12.69.19s.53.06.74.11c.39.08.55.08.59,0s-.06-.27-.43-.44a4.53,4.53,0,0,0-.76-.17,3.8,3.8,0,0,0-.71-.17C28.55,12.83,28.36,12.86,28.34,13Z"/><path class="cls-2" d="M27.33,12.45h0a5.08,5.08,0,0,0-.78,0,6.77,6.77,0,0,1-.78,0c-.78,0-.78-.1-1.57-.08s-.78.18-1.57.26a5.51,5.51,0,0,1-.81.05H21.4a1.5,1.5,0,0,0-.37,0l-.12.07-.13.12s-.05,0-.06.07c-.07.19.27.31.42.34s.35-.08.51-.11c.34-.07.67-.11,1-.16.76-.09.77.05,1.53,0s.76-.15,1.53-.12.77.05,1.53.14c.18,0,.34-.19.38-.32v-.05c0-.09-.2-.17-.27-.23Z"/><path class="cls-2" d="M20.08,13.37c0-.13-.39-.24-.7-.13s-.5.37-.45.5.32.14.62,0S20.12,13.51,20.08,13.37Z"/><path class="cls-2" d="M212,15.16c0,.12-.13.25-.5.38-.2.07-.45.11-.71.18s-.53,0-.74.08c-.4.06-.56.07-.59,0s.07-.26.45-.43a5.67,5.67,0,0,1,.76-.15,4.75,4.75,0,0,1,.72-.14C211.83,15,212,15.05,212,15.16Z"/><path class="cls-2" d="M213.07,14.66h0a4.07,4.07,0,0,1,.78,0c.26,0,.52,0,.78,0,.79,0,.79-.08,1.58,0s.78.19,1.57.3a5.56,5.56,0,0,0,.82.05l.39,0a1.14,1.14,0,0,1,.37.05l.11.08a.69.69,0,0,1,.13.11.16.16,0,0,1,.06.08c.07.19-.27.3-.42.33s-.36-.09-.52-.12c-.33-.08-.67-.12-1-.18-.77-.1-.78,0-1.55,0s-.76-.17-1.53-.17-.77,0-1.54.11c-.19,0-.33-.19-.38-.33v0c0-.08.2-.17.28-.22Z"/><path class="cls-2" d="M220.33,15.73c0-.13.4-.24.71-.13s.49.38.45.51-.33.14-.63,0S220.29,15.86,220.33,15.73Z"/><path class="cls-2" d="M28.67,15.16c0,.12.13.25.5.38.19.07.44.11.7.18s.53,0,.75.08c.39.06.55.07.59,0s-.07-.26-.45-.43a6.39,6.39,0,0,0-.76-.15,4.75,4.75,0,0,0-.72-.14C28.88,15,28.69,15.05,28.67,15.16Z"/><path class="cls-2" d="M27.64,14.66h0a4.07,4.07,0,0,0-.78,0c-.26,0-.52,0-.78,0-.79,0-.79-.08-1.59,0s-.78.19-1.56.3a5.64,5.64,0,0,1-.82.05l-.39,0a1.14,1.14,0,0,0-.37.05l-.12.08-.13.11a.22.22,0,0,0-.05.08c-.07.19.27.3.41.33s.36-.09.52-.12c.34-.08.68-.12,1-.18.77-.1.78,0,1.54,0s.77-.17,1.54-.17.77,0,1.53.11c.19,0,.34-.19.38-.33v0c0-.08-.21-.17-.28-.22Z"/><path class="cls-2" d="M20.37,15.73c0-.13-.39-.24-.7-.13s-.5.38-.45.51.33.14.63,0S20.41,15.86,20.37,15.73Z"/><path class="cls-2" d="M212.08,17c0,.12-.13.26-.47.36s-.41.09-.66.14a5.87,5.87,0,0,1-.69,0c-.37,0-.52,0-.55-.07s.07-.25.42-.4a6.27,6.27,0,0,1,.71-.11,5.27,5.27,0,0,1,.68-.11C211.89,16.84,212.06,16.87,212.08,17Z"/><path class="cls-2" d="M213,16.53h0a3.47,3.47,0,0,1,.72,0c.24,0,.48.05.72.05a6.49,6.49,0,0,0,.74,0,4.58,4.58,0,0,1,.73,0c.74.06.72.19,1.44.29a4.87,4.87,0,0,0,.76.06h.37a1,1,0,0,1,.34,0l.1.07.12.11,0,.07c.06.2-.25.32-.39.34s-.33-.08-.48-.11c-.31-.07-.62-.12-.93-.17-.71-.1-.73,0-1.43,0a4.65,4.65,0,0,1-.71-.11,2.7,2.7,0,0,0-.71-.08l-.71,0c-.18,0-.36,0-.71,0-.18,0-.31-.2-.34-.34v-.05c0-.08.2-.16.27-.2Z"/><path class="cls-2" d="M219.75,17.64c0-.13.36-.25.69-.11a.58.58,0,0,1,.31.35.23.23,0,0,1-.06.27.25.25,0,0,1-.21,0,2.28,2.28,0,0,1-.29-.11C220,17.94,219.71,17.78,219.75,17.64Z"/><path class="cls-2" d="M28.63,17c0,.12.12.26.47.36a6.21,6.21,0,0,0,.66.14,5.76,5.76,0,0,0,.69,0c.37,0,.52,0,.55-.07s-.07-.25-.43-.4a5.62,5.62,0,0,0-.71-.11,4.89,4.89,0,0,0-.67-.11C28.82,16.84,28.64,16.87,28.63,17Z"/><path class="cls-2" d="M27.67,16.53h0a3.59,3.59,0,0,0-.73,0c-.24,0-.48.05-.72.05a6.29,6.29,0,0,1-.73,0,4.7,4.7,0,0,0-.74,0c-.73.06-.71.19-1.44.29a4.74,4.74,0,0,1-.75.06h-.37a1,1,0,0,0-.34,0l-.11.07a1.14,1.14,0,0,0-.11.11.19.19,0,0,0-.06.07c-.06.2.26.32.4.34s.33-.08.48-.11c.31-.07.62-.12.93-.17.71-.1.72,0,1.43,0a4.28,4.28,0,0,0,.7-.11,2.82,2.82,0,0,1,.71-.08c.36,0,.54,0,.72,0l.71,0c.17,0,.3-.2.34-.34v-.05c0-.08-.2-.16-.27-.2Z"/><path class="cls-2" d="M21,17.64c0-.13-.36-.25-.68-.11a.63.63,0,0,0-.32.35c0,.13,0,.24.06.27a.28.28,0,0,0,.22,0,1.77,1.77,0,0,0,.28-.11C20.74,17.94,21,17.78,21,17.64Z"/><path class="cls-2" d="M212,18.83c0,.12-.12.26-.44.37l-.61.18c-.24.06-.46.07-.66.11s-.48.12-.53,0,0-.26.34-.46a4.84,4.84,0,0,1,.69-.19,3.07,3.07,0,0,1,.66-.15C211.77,18.68,211.94,18.72,212,18.83Z"/><path class="cls-2" d="M212.9,18.38h0a13,13,0,0,1,1.4.12c.71.05.72,0,1.42,0s.69.22,1.39.32a4.41,4.41,0,0,0,.73,0c.11,0,.23,0,.35,0a1,1,0,0,1,.34,0l.1.06.12.11a.18.18,0,0,1,.05.07c.06.19-.24.32-.37.36s-.32-.07-.47-.09l-.92-.15c-.69-.1-.71,0-1.39-.05S215,19,214.31,19a12.71,12.71,0,0,0-1.38,0c-.16,0-.29-.21-.32-.35v-.05c0-.08.19-.15.26-.2Z"/><path class="cls-2" d="M219.41,19.55c0-.13.37-.23.66-.09s.4.43.32.54-.31.08-.56,0S219.37,19.69,219.41,19.55Z"/><path class="cls-2" d="M28.75,18.83c0,.12.12.26.44.37l.61.18c.23.06.46.07.65.11.34.1.49.12.54,0s0-.26-.35-.46a4.35,4.35,0,0,0-.68-.19,3.21,3.21,0,0,0-.66-.15C28.94,18.68,28.77,18.72,28.75,18.83Z"/><path class="cls-2" d="M27.81,18.38h0a13.18,13.18,0,0,0-1.41.12c-.71.05-.71,0-1.42,0s-.68.22-1.38.32a4.46,4.46,0,0,1-.73,0c-.12,0-.24,0-.35,0a1,1,0,0,0-.34,0,.33.33,0,0,0-.1.06.65.65,0,0,0-.12.11.13.13,0,0,0-.06.07c-.06.19.25.32.38.36s.32-.07.47-.09l.91-.15c.69-.1.71,0,1.4-.05s.68-.2,1.37-.24a12.52,12.52,0,0,1,1.37,0c.17,0,.3-.21.33-.35v-.05c0-.08-.2-.15-.27-.2Z"/><path class="cls-2" d="M21.3,19.55c0-.13-.38-.23-.66-.09s-.4.43-.32.54.31.08.55,0S21.34,19.69,21.3,19.55Z"/><path class="cls-2" d="M212.68,21c0,.13-.12.25-.43.34-.16.05-.37.07-.58.12s-.43,0-.59.06-.41.14-.49.05-.05-.28.29-.49a2.26,2.26,0,0,1,.68-.16,3.09,3.09,0,0,1,.62-.09C212.52,20.86,212.67,20.91,212.68,21Z"/><path class="cls-2" d="M213.58,20.63h0a9.45,9.45,0,0,1,1.3.18c.66.06.68,0,1.33.08s.63.24,1.28.38a3.82,3.82,0,0,0,.68.07l.33,0a.73.73,0,0,1,.3.05.23.23,0,0,1,.1.07l.1.1a.35.35,0,0,1,.05.08c0,.19-.25.31-.38.34s-.3-.08-.43-.12l-.84-.19c-.64-.14-.66,0-1.3-.11a12.83,12.83,0,0,0-1.26-.29l-.64,0h-.64c-.16,0-.27-.22-.29-.36v-.05c0-.09.18-.15.25-.19Z"/><path class="cls-2" d="M219.61,22c0-.14.33-.26.59-.18s.42.31.39.45-.28.17-.54.1S219.57,22.17,219.61,22Z"/><path class="cls-2" d="M28,21c0,.13.12.25.43.34s.38.07.59.12.42,0,.59.06.41.14.48.05.05-.28-.28-.49a2.26,2.26,0,0,0-.68-.16,3.19,3.19,0,0,0-.62-.09C28.19,20.86,28,20.91,28,21Z"/><path class="cls-2" d="M27.12,20.63h0a9.6,9.6,0,0,0-1.31.18c-.66.06-.67,0-1.33.08s-.63.24-1.27.38a4,4,0,0,1-.68.07l-.33,0a.81.81,0,0,0-.31.05.28.28,0,0,0-.09.07.94.94,0,0,0-.1.1.35.35,0,0,0-.05.08c-.05.19.24.31.37.34s.3-.08.44-.12l.84-.19c.63-.14.66,0,1.29-.11s.62-.23,1.26-.29c.32,0,.49,0,.65,0h.64c.16,0,.26-.22.29-.36v-.05c0-.09-.19-.15-.25-.19Z"/><path class="cls-2" d="M21.1,22c0-.14-.33-.26-.6-.18s-.42.31-.38.45.27.17.54.1S21.14,22.17,21.1,22Z"/><path class="cls-2" d="M212.19,23.75c0,.12-.13.24-.46.32-.17,0-.39.06-.62.09s-.46,0-.65,0c-.35,0-.49,0-.51-.13s.09-.24.43-.35a6,6,0,0,1,.67-.05,3.7,3.7,0,0,1,.63-.05C212,23.58,212.19,23.63,212.19,23.75Z"/><path class="cls-2" d="M213.12,23.35h0c.45,0,.9.13,1.34.15.69,0,.69,0,1.38,0s.66.21,1.33.33a5.51,5.51,0,0,0,.71.06l.34,0a.88.88,0,0,1,.32,0l.09.07.11.11a.22.22,0,0,1,.05.08c.05.19-.25.31-.38.33s-.31-.08-.45-.11-.58-.12-.87-.18c-.66-.11-.68,0-1.33-.06s-.65-.2-1.32-.24-.67,0-1.33,0c-.17,0-.28-.23-.3-.36v-.05c0-.09.2-.15.26-.2Z"/><path class="cls-2" d="M219.35,24.63c0-.14.35-.25.62-.15s.42.34.38.47-.29.16-.56.07S219.31,24.76,219.35,24.63Z"/><path class="cls-2" d="M28.51,23.75c0,.12.13.24.46.32s.39.06.63.09.46,0,.65,0,.48,0,.5-.13-.08-.24-.42-.35a6.34,6.34,0,0,0-.67-.05,3.78,3.78,0,0,0-.63-.05C28.68,23.58,28.52,23.63,28.51,23.75Z"/><path class="cls-2" d="M27.59,23.35h0c-.45,0-.89.13-1.34.15-.68,0-.69,0-1.37,0s-.66.21-1.33.33a5.51,5.51,0,0,1-.71.06l-.34,0a.88.88,0,0,0-.32,0l-.1.07-.1.11a.22.22,0,0,0-.05.08c0,.19.25.31.38.33s.31-.08.45-.11.58-.12.86-.18c.66-.11.68,0,1.34-.06s.65-.2,1.31-.24.67,0,1.34,0c.16,0,.27-.23.3-.36v-.05c0-.09-.19-.15-.26-.2Z"/><path class="cls-2" d="M21.36,24.63c0-.14-.36-.25-.63-.15s-.42.34-.37.47.29.16.55.07S21.4,24.76,21.36,24.63Z"/><path class="cls-2" d="M211.74,25.56c0,.11-.08.25-.34.34l-.49.14c-.18.05-.37,0-.51.06s-.38.09-.44,0,0-.26.24-.44a2.27,2.27,0,0,1,.57-.14,2.39,2.39,0,0,1,.53-.11C211.59,25.4,211.72,25.44,211.74,25.56Z"/><path class="cls-2" d="M212.46,25.1h0c.37-.05.75,0,1.11,0,.56-.05.56-.13,1.12-.17s.57.1,1.13.08a3.69,3.69,0,0,0,.58-.09l.28-.06a.59.59,0,0,1,.26,0l.09.05.11.08s0,0,.05.06-.13.36-.24.42-.26,0-.38,0h-.74c-.55,0-.54.15-1.1.18s-.56-.09-1.11,0-.55.06-1.1.13c-.14,0-.25-.2-.29-.34v-.05c0-.08.14-.16.19-.21Z"/><path class="cls-2" d="M217.73,25.25c0-.14.23-.33.46-.32a.41.41,0,0,1,.41.35c0,.14-.2.23-.43.22S217.73,25.39,217.73,25.25Z"/><path class="cls-2" d="M29,25.56c0,.11.09.25.35.34s.31.09.49.14.36,0,.51.06.38.09.44,0,0-.26-.24-.44a2.27,2.27,0,0,0-.57-.14,2.39,2.39,0,0,0-.53-.11C29.12,25.4,29,25.44,29,25.56Z"/><path class="cls-2" d="M28.25,25.1h0c-.37-.05-.75,0-1.12,0-.56-.05-.55-.13-1.12-.17s-.56.1-1.13.08a4.09,4.09,0,0,1-.58-.09L24,24.86a.59.59,0,0,0-.26,0,.31.31,0,0,0-.1.05l-.1.08-.06.06c-.08.17.14.36.24.42s.27,0,.38,0h.74c.56,0,.55.15,1.1.18s.56-.09,1.12,0,.55.06,1.1.13c.13,0,.25-.2.29-.34v-.05c0-.08-.14-.16-.19-.21Z"/><path class="cls-2" d="M23,25.25a.47.47,0,0,0-.47-.32.41.41,0,0,0-.4.35c0,.14.2.23.43.22S23,25.39,23,25.25Z"/><path class="cls-2" d="M198.55,16.54a.32.32,0,0,1-.21.34A1.62,1.62,0,0,1,198,17a1.46,1.46,0,0,1-.37,0c-.2,0-.28,0-.31-.15s0-.23.2-.33.24,0,.38,0a1.16,1.16,0,0,1,.34-.06C198.43,16.39,198.53,16.43,198.55,16.54Z"/><path class="cls-2" d="M199,16.1h0c.25-.05.51,0,.76,0s.36-.14.73-.21.39.07.77,0a1.28,1.28,0,0,0,.37-.14l.17-.09c.06,0,.12-.07.18-.06l.06,0,.09.07a.1.1,0,0,1,0,.05.46.46,0,0,1-.1.44c-.06.08-.17,0-.25,0l-.5.08c-.37.06-.34.19-.71.25s-.4-.06-.77,0l-.73.14c-.1,0-.2-.2-.23-.33v-.05c0-.09.08-.16.1-.21Z"/><path class="cls-2" d="M202.55,16a.32.32,0,0,1,.33-.32.29.29,0,0,1,.23.37.26.26,0,0,1-.29.19A.27.27,0,0,1,202.55,16Z"/><path class="cls-2" d="M42.16,16.54a.31.31,0,0,0,.21.34,1.39,1.39,0,0,0,.34.09,1.54,1.54,0,0,0,.38,0c.2,0,.28,0,.3-.15s0-.23-.2-.33-.24,0-.37,0a1.17,1.17,0,0,0-.35-.06C42.28,16.39,42.18,16.43,42.16,16.54Z"/><path class="cls-2" d="M41.72,16.1h0c-.24-.05-.51,0-.75,0s-.36-.14-.73-.21-.4.07-.77,0a1.28,1.28,0,0,1-.37-.14l-.18-.09s-.11-.07-.17-.06l-.07,0a.27.27,0,0,0-.08.07.12.12,0,0,0,0,.05.52.52,0,0,0,.1.44c.07.08.18,0,.26,0l.49.08c.37.06.35.19.72.25s.39-.06.76,0l.74.14c.09,0,.19-.2.23-.33v-.05c0-.09-.08-.16-.11-.21Z"/><path class="cls-2" d="M38.16,16a.33.33,0,0,0-.33-.32.3.3,0,0,0-.24.37.27.27,0,0,0,.3.19A.28.28,0,0,0,38.16,16Z"/><path class="cls-2" d="M198.2,18.31a.31.31,0,0,1-.2.33,1.33,1.33,0,0,1-.33.08c-.12,0-.25,0-.35,0s-.27,0-.29-.16a.29.29,0,0,1,.19-.32c.1,0,.23,0,.36,0a1,1,0,0,1,.32-.05C198.09,18.15,198.18,18.19,198.2,18.31Z"/><path class="cls-2" d="M198.62,17.87h0c.23-.05.48,0,.71,0s.34-.15.69-.21.38.06.73,0a.93.93,0,0,0,.34-.15l.17-.09s.1-.07.16-.06l.07,0a.27.27,0,0,1,.08.07.12.12,0,0,1,0,.05.52.52,0,0,1-.09.44c-.06.08-.17,0-.24,0l-.47.08c-.35.06-.32.2-.67.26s-.38-.06-.73,0l-.7.14c-.08,0-.18-.21-.22-.34v-.05c0-.08.08-.16.11-.2Z"/><path class="cls-2" d="M202,17.73a.32.32,0,0,1,.33-.31.29.29,0,0,1,.2.38.26.26,0,0,1-.29.18A.28.28,0,0,1,202,17.73Z"/><path class="cls-2" d="M42.5,18.31a.32.32,0,0,0,.21.33,1.24,1.24,0,0,0,.32.08c.13,0,.26,0,.36,0s.27,0,.29-.16,0-.23-.2-.32-.22,0-.35,0a1,1,0,0,0-.33-.05C42.62,18.15,42.53,18.19,42.5,18.31Z"/><path class="cls-2" d="M42.09,17.87h0c-.23-.05-.48,0-.71,0s-.33-.15-.68-.21-.38.06-.73,0a1,1,0,0,1-.35-.15l-.16-.09s-.11-.07-.17-.06l-.06,0-.09.07,0,.05a.52.52,0,0,0,.09.44c.06.08.16,0,.24,0l.46.08c.35.06.33.2.68.26s.37-.06.73,0l.7.14c.08,0,.18-.21.21-.34v-.05c0-.08-.07-.16-.1-.2Z"/><path class="cls-2" d="M38.73,17.73c0-.14-.15-.34-.33-.31a.29.29,0,0,0-.2.38.25.25,0,0,0,.28.18A.29.29,0,0,0,38.73,17.73Z"/><path class="cls-2" d="M198.31,21.44c0,.12-.06.26-.3.35a2.17,2.17,0,0,1-.44.11,2.46,2.46,0,0,1-.48,0c-.25,0-.36,0-.38-.13s0-.25.28-.35a3.32,3.32,0,0,1,.48,0,2,2,0,0,1,.45-.07C198.17,21.29,198.29,21.33,198.31,21.44Z"/><path class="cls-2" d="M198.91,21h0c.31-.06.64,0,1,0,.48-.08.47-.16,1-.23s.51.06,1,0a1.73,1.73,0,0,0,.49-.15l.23-.08c.07,0,.15-.08.22-.06a.19.19,0,0,1,.08,0l.11.07a.12.12,0,0,1,0,0c.09.16-.07.38-.15.45s-.23,0-.34,0l-.64.08c-.48.07-.46.2-.94.27s-.49-.06-1,0l-1,.17c-.12,0-.23-.2-.27-.33v-.05c0-.09.11-.17.16-.21Z"/><path class="cls-2" d="M203.49,20.76a.4.4,0,0,1,.35-.37.38.38,0,0,1,.4.29c0,.14-.14.25-.34.27S203.5,20.9,203.49,20.76Z"/><path class="cls-2" d="M42.4,21.44c0,.12.06.26.29.35a2.28,2.28,0,0,0,.45.11,2.46,2.46,0,0,0,.48,0c.25,0,.35,0,.38-.13s0-.25-.28-.35a3.32,3.32,0,0,0-.48,0,2.07,2.07,0,0,0-.45-.07C42.54,21.29,42.42,21.33,42.4,21.44Z"/><path class="cls-2" d="M41.8,21h0c-.31-.06-.65,0-1,0-.48-.08-.46-.16-1-.23s-.5.06-1,0a1.73,1.73,0,0,1-.49-.15l-.23-.08c-.07,0-.15-.08-.22-.06a.32.32,0,0,0-.09,0l-.1.07a.12.12,0,0,0,0,0c-.09.16.07.38.15.45s.23,0,.33,0l.64.08c.48.07.46.2.94.27s.5-.06,1,0l1,.17c.11,0,.23-.2.27-.33v-.05c0-.09-.11-.17-.15-.21Z"/><path class="cls-2" d="M37.22,20.76a.4.4,0,0,0-.35-.37.36.36,0,0,0-.4.29c0,.14.14.25.34.27S37.21,20.9,37.22,20.76Z"/><path class="cls-2" d="M197.84,23.51c0,.11,0,.25-.22.35a1.6,1.6,0,0,1-.37.13,2,2,0,0,1-.42,0c-.22,0-.32,0-.35-.11s0-.24.2-.35.27,0,.42-.07a1.6,1.6,0,0,1,.39-.1C197.7,23.37,197.81,23.39,197.84,23.51Z"/><path class="cls-2" d="M198.33,23h0c.27-.08.57,0,.85-.07s.4-.17.82-.25.44,0,.86,0a1.69,1.69,0,0,0,.43-.15l.19-.09a.36.36,0,0,1,.2-.06l.07,0,.1.07,0,.05a.45.45,0,0,1-.13.45c-.07.07-.19,0-.28,0l-.55.09c-.42.08-.4.21-.81.29s-.44-.05-.85,0-.41.1-.82.2c-.1,0-.22-.19-.26-.32l0-.05c0-.08.09-.16.12-.21Z"/><path class="cls-2" d="M202.32,22.72a.36.36,0,0,1,.37-.32.33.33,0,0,1,.28.38.31.31,0,0,1-.33.19C202.49,23,202.33,22.86,202.32,22.72Z"/><path class="cls-2" d="M42.86,23.51c0,.11,0,.25.22.35a1.88,1.88,0,0,0,.38.13,2,2,0,0,0,.42,0c.22,0,.31,0,.35-.11s0-.24-.21-.35-.27,0-.41-.07a1.72,1.72,0,0,0-.39-.1C43,23.37,42.89,23.39,42.86,23.51Z"/><path class="cls-2" d="M42.38,23h0c-.27-.08-.57,0-.84-.07-.42-.09-.4-.17-.82-.25s-.45,0-.87,0a1.77,1.77,0,0,1-.42-.15l-.2-.09a.33.33,0,0,0-.19-.06s-.05,0-.08,0l-.09.07a.12.12,0,0,0-.05.05c-.08.17.06.38.12.45s.2,0,.29,0l.55.09c.42.08.39.21.8.29s.44-.05.85,0,.41.1.82.2c.1,0,.22-.19.27-.32v-.05c0-.08-.08-.16-.11-.21Z"/><path class="cls-2" d="M38.38,22.72A.35.35,0,0,0,38,22.4a.33.33,0,0,0-.28.38.31.31,0,0,0,.33.19C38.22,23,38.38,22.86,38.38,22.72Z"/><path class="cls-2" d="M197.51,26.44c0,.12,0,.26-.21.36a2.3,2.3,0,0,1-.37.12,1.78,1.78,0,0,1-.4,0c-.22,0-.31,0-.34-.11s0-.24.19-.35.26,0,.41-.07a1.52,1.52,0,0,1,.37-.09C197.38,26.3,197.48,26.33,197.51,26.44Z"/><path class="cls-2" d="M198,26h0c.27-.06.56,0,.83,0s.4-.16.81-.22.43.07.84,0a1.66,1.66,0,0,0,.42-.12l.2-.08a.45.45,0,0,1,.19-.05l.07,0,.09.08,0,0a.46.46,0,0,1-.14.44c-.08.07-.2,0-.28,0l-.54.05c-.41.05-.39.18-.79.24s-.42-.07-.82,0l-.8.17c-.1,0-.21-.19-.25-.32l0-.05c0-.09.09-.17.12-.22Z"/><path class="cls-2" d="M201.89,25.86a.37.37,0,0,1,.31-.35.35.35,0,0,1,.33.32c0,.14-.13.24-.3.25S201.89,26,201.89,25.86Z"/><path class="cls-2" d="M43.19,26.44a.34.34,0,0,0,.22.36,2.53,2.53,0,0,0,.36.12,1.87,1.87,0,0,0,.41,0c.22,0,.31,0,.34-.11s0-.24-.2-.35-.26,0-.4-.07a1.48,1.48,0,0,0-.38-.09C43.33,26.3,43.22,26.33,43.19,26.44Z"/><path class="cls-2" d="M42.72,26h0c-.26-.06-.55,0-.82,0s-.4-.16-.81-.22-.43.07-.84,0a1.45,1.45,0,0,1-.42-.12l-.2-.08a.45.45,0,0,0-.19-.05l-.07,0-.09.08a.1.1,0,0,0,0,0,.46.46,0,0,0,.14.44c.08.07.19,0,.28,0l.54.05c.4.05.39.18.79.24s.42-.07.82,0l.8.17c.09,0,.21-.19.25-.32V26.2c0-.09-.08-.17-.11-.22Z"/><path class="cls-2" d="M38.82,25.86a.37.37,0,0,0-.32-.35.34.34,0,0,0-.32.32c0,.14.13.24.3.25S38.81,26,38.82,25.86Z"/><path class="cls-2" d="M197.07,29.43c0,.12,0,.26-.24.36a2.22,2.22,0,0,1-.39.13,2.1,2.1,0,0,1-.43,0c-.23,0-.32,0-.36-.11s0-.24.22-.36.28,0,.43-.07a1.73,1.73,0,0,1,.4-.09C196.92,29.29,197,29.32,197.07,29.43Z"/><path class="cls-2" d="M197.57,28.94h0c.28-.08.59,0,.87-.07s.42-.17.85-.25.46.05.89,0a2.28,2.28,0,0,0,.44-.15l.2-.09c.07,0,.14-.07.2-.06a.19.19,0,0,1,.08,0l.1.07s0,0,0,.06,0,.37-.12.44-.21,0-.3,0l-.57.08c-.43.07-.41.21-.83.28s-.46,0-.88,0-.43.1-.85.2c-.1,0-.22-.18-.27-.31v-.05c0-.09.09-.17.12-.22Z"/><path class="cls-2" d="M201.7,28.63a.38.38,0,0,1,.31-.37.34.34,0,0,1,.36.29c0,.14-.12.26-.29.28S201.72,28.77,201.7,28.63Z"/><path class="cls-2" d="M43.64,29.43c0,.12,0,.26.23.36a3,3,0,0,0,.39.13,2.19,2.19,0,0,0,.44,0c.22,0,.32,0,.35-.11s0-.24-.21-.36-.28,0-.43-.07a1.73,1.73,0,0,0-.4-.09C43.78,29.29,43.67,29.32,43.64,29.43Z"/><path class="cls-2" d="M43.14,28.94h0c-.28-.08-.59,0-.87-.07s-.42-.17-.85-.25-.46.05-.89,0a2.07,2.07,0,0,1-.44-.15l-.21-.09c-.06,0-.13-.07-.2-.06l-.07,0-.1.07s0,0-.05.06.06.37.13.44.2,0,.3,0l.57.08c.43.07.4.21.83.28s.45,0,.88,0l.85.2c.1,0,.22-.18.27-.31v-.05c0-.09-.09-.17-.12-.22Z"/><path class="cls-2" d="M39,28.63a.38.38,0,0,0-.32-.37.36.36,0,0,0-.36.29c0,.14.12.26.3.28S39,28.77,39,28.63Z"/><path class="cls-2" d="M195.49,31.76c0,.12-.06.26-.27.34a2,2,0,0,1-.41.08,2.82,2.82,0,0,1-.43,0c-.23,0-.32-.05-.33-.17s0-.23.26-.31.28,0,.43,0a2.08,2.08,0,0,1,.4-.05C195.36,31.61,195.47,31.65,195.49,31.76Z"/><path class="cls-2" d="M196,31.31h0c.28-.06.58,0,.86,0s.41-.17.83-.26.45,0,.87-.09a1.38,1.38,0,0,0,.41-.19l.19-.11c.06,0,.13-.09.2-.08l.08,0,.1.06.06.05c.09.15,0,.38-.09.45s-.2.05-.29.07l-.55.15c-.43.11-.4.24-.83.34s-.45,0-.88.06-.43.1-.86.18c-.11,0-.22-.2-.25-.33v-.05c0-.09.09-.17.13-.21Z"/><path class="cls-2" d="M200.07,30.81a.38.38,0,0,1,.32-.37.35.35,0,0,1,.35.31c0,.14-.14.24-.3.26S200.09,31,200.07,30.81Z"/><path class="cls-2" d="M45.22,31.76c0,.12.05.26.26.34a2.29,2.29,0,0,0,.41.08,2.81,2.81,0,0,0,.44,0c.23,0,.32-.05.33-.17s0-.23-.27-.31-.27,0-.42,0a2.08,2.08,0,0,0-.4-.05C45.35,31.61,45.24,31.65,45.22,31.76Z"/><path class="cls-2" d="M44.69,31.31h0c-.27-.06-.57,0-.85,0S43.41,31.1,43,31s-.45,0-.87-.09a1.28,1.28,0,0,1-.41-.19l-.2-.11c-.06,0-.12-.09-.19-.08l-.08,0-.11.06-.05.05c-.1.15,0,.38.08.45s.2.05.29.07l.56.15c.43.11.39.24.82.34s.46,0,.89.06.43.1.86.18c.11,0,.21-.2.25-.33v-.05c0-.09-.1-.17-.13-.21Z"/><path class="cls-2" d="M40.64,30.81a.39.39,0,0,0-.32-.37.34.34,0,0,0-.35.31c0,.14.13.24.3.26S40.61,31,40.64,30.81Z"/><path class="cls-2" d="M186.18,34.9c0,.12-.24.29-.87.47-.34.1-.76.19-1.2.3s-.89.14-1.25.22c-.67.14-.93.18-1,.07s.17-.3.82-.53a12.2,12.2,0,0,1,1.27-.29c.45-.11.85-.22,1.21-.27C185.85,34.79,186.16,34.79,186.18,34.9Z"/><path class="cls-2" d="M187.92,34.23h0c.87-.15,1.73-.14,2.6-.27,1.31-.18,1.29-.26,2.61-.44a9.52,9.52,0,0,1,1.33-.08h1.34c.47,0,.93,0,1.37-.06l.64-.06a2.88,2.88,0,0,1,.59-.07l.21,0,.26.05a.25.25,0,0,1,.13,0c.21.14-.26.4-.51.48a3.18,3.18,0,0,1-.93,0c-.6,0-1.18,0-1.75,0a6.67,6.67,0,0,0-1.3.13c-.32.06-.64.13-1.29.21-1.31.17-1.33,0-2.64.23s-1.3.19-2.6.4a.62.62,0,0,1-.63-.26v0c0-.09.35-.21.47-.27Z"/><path class="cls-2" d="M200.28,33.37c0-.13.44-.42,1-.55s1-.06,1,.08-.37.34-.91.47S200.31,33.51,200.28,33.37Z"/><path class="cls-2" d="M54.52,34.9c0,.12.24.29.88.47.33.1.75.19,1.2.3s.89.14,1.25.22c.66.14.93.18,1,.07s-.16-.3-.81-.53a12.82,12.82,0,0,0-1.27-.29c-.45-.11-.86-.22-1.21-.27C54.86,34.79,54.55,34.79,54.52,34.9Z"/><path class="cls-2" d="M52.79,34.23h0c-.86-.15-1.73-.14-2.59-.27-1.31-.18-1.3-.26-2.61-.44a9.52,9.52,0,0,0-1.33-.08H44.87q-.7,0-1.38-.06l-.63-.06a3,3,0,0,0-.59-.07l-.22,0-.25.05a.25.25,0,0,0-.13,0c-.22.14.26.4.5.48a3.27,3.27,0,0,0,.94,0c.59,0,1.18,0,1.75,0a6.76,6.76,0,0,1,1.3.13c.32.06.64.13,1.29.21,1.3.17,1.33,0,2.63.23s1.31.19,2.61.4a.62.62,0,0,0,.63-.26v0c0-.09-.35-.21-.48-.27Z"/><path class="cls-2" d="M40.42,33.37c0-.13-.43-.42-1-.55s-1-.06-1,.08.37.34.9.47S40.4,33.51,40.42,33.37Z"/><path class="cls-2" d="M188.22,36.09c0,.12-.2.26-.69.38-.26.06-.59.1-.93.17s-.69,0-1,.07c-.51.07-.72.08-.75,0s.13-.27.63-.44c.28-.09.64-.07,1-.14a7.67,7.67,0,0,1,.94-.14C188,35.94,188.2,36,188.22,36.09Z"/><path class="cls-2" d="M189.57,35.59h0c.67-.06,1.33,0,2,0,1-.06,1-.14,2-.21s1,.06,2,0a6.8,6.8,0,0,0,1-.19l.48-.12a1.9,1.9,0,0,1,.46-.1l.17,0,.2,0a.16.16,0,0,1,.1.05c.18.14-.17.4-.35.49a2.63,2.63,0,0,1-.7.09c-.44.06-.89.1-1.34.15-1,.09-1,.22-2,.29s-1-.06-2,0-1,.07-2,.16a.49.49,0,0,1-.47-.33v-.05c0-.09.28-.17.37-.22Z"/><path class="cls-2" d="M199.05,35.07c0-.14.32-.39.72-.5s.77,0,.81.13-.26.31-.67.42S199.08,35.21,199.05,35.07Z"/><path class="cls-2" d="M52.49,36.09c0,.12.19.26.68.38.27.06.59.1.94.17s.69,0,1,.07c.51.07.72.08.74,0s-.12-.27-.63-.44c-.27-.09-.63-.07-1-.14a8,8,0,0,0-.94-.14C52.75,35.94,52.5,36,52.49,36.09Z"/><path class="cls-2" d="M51.13,35.59h0c-.67-.06-1.34,0-2,0-1-.06-1-.14-2-.21s-1,.06-2,0a7.18,7.18,0,0,1-1-.19L43.55,35a1.71,1.71,0,0,0-.46-.1l-.16,0-.2,0a.22.22,0,0,0-.11.05c-.17.14.18.4.35.49a2.74,2.74,0,0,0,.7.09c.45.06.9.1,1.35.15,1,.09,1,.22,2,.29s1-.06,2,0,1,.07,2,.16a.5.5,0,0,0,.47-.33v-.05c0-.09-.28-.17-.38-.22Z"/><path class="cls-2" d="M41.66,35.07c0-.14-.32-.39-.72-.5s-.78,0-.82.13.27.31.68.42S41.63,35.21,41.66,35.07Z"/><path class="cls-2" d="M159.5,31.2c0,.11-.24.24-.78.26a7.45,7.45,0,0,1-1,0,8,8,0,0,1-1-.19c-.55-.11-.75-.17-.74-.28s.23-.21.77-.21c.3,0,.66.11,1,.14s.7,0,1,.07C159.26,31,159.5,31.07,159.5,31.2Z"/><path class="cls-2" d="M161,30.85h0c.35,0,.7,0,1,0a9.2,9.2,0,0,0,1,0c1.06-.09,1.05-.17,2.11-.3s1.07,0,2.12-.21c.36-.08.72-.19,1.06-.3l.5-.18a2.57,2.57,0,0,1,.47-.15,1.08,1.08,0,0,1,.18,0l.22,0,.11,0c.19.12-.15.41-.33.52a2.51,2.51,0,0,1-.73.17c-.46.12-.93.2-1.4.3-1.06.19-1,.32-2.11.48s-1.09,0-2.16.09-1.08.08-2.16.11a.53.53,0,0,1-.47-.37V31c0-.08.3-.14.41-.18Z"/><path class="cls-2" d="M170.89,29.73c0-.13.31-.43.72-.57s.82-.06.87.07-.26.34-.69.48S170.93,29.87,170.89,29.73Z"/><path class="cls-2" d="M81.2,31.2c0,.11.25.24.79.26a7.45,7.45,0,0,0,1,0,7.79,7.79,0,0,0,1-.19c.55-.11.76-.17.75-.28s-.23-.21-.78-.21c-.3,0-.65.11-1,.14s-.71,0-1,.07C81.45,31,81.2,31.07,81.2,31.2Z"/><path class="cls-2" d="M79.74,30.85h0q-.53,0-1,0a9,9,0,0,1-1,0c-1.07-.09-1.06-.17-2.11-.3s-1.07,0-2.12-.21c-.37-.08-.72-.19-1.07-.3l-.49-.18a2.84,2.84,0,0,0-.47-.15,1.08,1.08,0,0,0-.18,0l-.22,0-.11,0c-.2.12.15.41.33.52a2.45,2.45,0,0,0,.72.17c.47.12.94.2,1.4.3,1.06.19,1,.32,2.12.48s1.08,0,2.16.09,1.08.08,2.15.11a.5.5,0,0,0,.47-.37V31c0-.08-.31-.14-.41-.18Z"/><path class="cls-2" d="M69.82,29.73c0-.13-.31-.43-.73-.57s-.82-.06-.86.07.26.34.69.48S69.78,29.87,69.82,29.73Z"/><path class="cls-2" d="M162.11,32.7c0,.11-.18.24-.56.27a5.9,5.9,0,0,1-.73,0,4.51,4.51,0,0,1-.73-.14c-.39-.06-.54-.11-.54-.22s.15-.23.55-.26c.21,0,.47.07.74.08a5.09,5.09,0,0,1,.71,0C161.93,32.52,162.11,32.58,162.11,32.7Z"/><path class="cls-2" d="M163.16,32.35h0c.49,0,1,.11,1.49.09.76,0,.75-.12,1.5-.2s.77,0,1.52-.08a4.09,4.09,0,0,0,.75-.24l.34-.14a1,1,0,0,1,.33-.12h.13l.16,0,.08,0c.16.13-.07.4-.19.5a1.47,1.47,0,0,1-.52.13c-.33.08-.67.14-1,.21-.76.13-.74.26-1.51.35s-.79-.06-1.56,0-.77,0-1.54,0c-.19,0-.31-.23-.33-.36v-.06c0-.08.22-.14.29-.18Z"/><path class="cls-2" d="M170.24,31.73c-.05-.13.17-.4.45-.52s.6-.05.66.08-.14.32-.44.44S170.28,31.86,170.24,31.73Z"/><path class="cls-2" d="M78.6,32.7c0,.11.17.24.56.27a5.74,5.74,0,0,0,.72,0,4.65,4.65,0,0,0,.74-.14c.39-.06.54-.11.54-.22s-.16-.23-.55-.26c-.22,0-.47.07-.75.08a5.24,5.24,0,0,0-.71,0C78.77,32.52,78.6,32.58,78.6,32.7Z"/><path class="cls-2" d="M77.55,32.35h0c-.5,0-1,.11-1.49.09-.76,0-.75-.12-1.51-.2s-.76,0-1.51-.08a3.86,3.86,0,0,1-.75-.24l-.34-.14a1.1,1.1,0,0,0-.33-.12h-.13l-.16,0-.09,0c-.15.13.07.4.19.5a1.59,1.59,0,0,0,.53.13c.33.08.67.14,1,.21.77.13.75.26,1.52.35s.78-.06,1.55,0,.77,0,1.54,0c.19,0,.31-.23.34-.36v-.06c0-.08-.22-.14-.3-.18Z"/><path class="cls-2" d="M70.47,31.73c0-.13-.17-.4-.45-.52s-.6-.05-.66.08.14.32.44.44S70.43,31.86,70.47,31.73Z"/><path class="cls-2" d="M175.53,11a.33.33,0,0,1-.23.34,2.7,2.7,0,0,1-.36.09,1.2,1.2,0,0,1-.39,0c-.21,0-.29,0-.32-.14s0-.24.22-.33.25,0,.39,0a1.69,1.69,0,0,1,.36-.06C175.41,10.85,175.51,10.89,175.53,11Z"/><path class="cls-2" d="M176,10.56h0c.25-.05.53,0,.79,0s.38-.14.77-.19.41.08.8,0a1.42,1.42,0,0,0,.4-.12l.19-.08c.06,0,.12-.07.18,0a.13.13,0,0,1,.07,0,.27.27,0,0,1,.08.07l0,.05a.46.46,0,0,1-.13.44c-.07.07-.19,0-.27,0l-.52.06c-.39,0-.37.18-.76.23s-.4-.08-.79,0l-.78.13c-.09,0-.19-.21-.22-.34v-.05c0-.08.08-.16.12-.2Z"/><path class="cls-2" d="M179.73,10.51a.37.37,0,0,1,.29-.36.34.34,0,0,1,.32.31c0,.13-.11.24-.27.26S179.74,10.65,179.73,10.51Z"/><path class="cls-2" d="M65.18,11a.32.32,0,0,0,.23.34,2.36,2.36,0,0,0,.36.09,1.23,1.23,0,0,0,.39,0c.21,0,.29,0,.31-.14s0-.24-.21-.33-.25,0-.39,0a1.88,1.88,0,0,0-.37-.06C65.3,10.85,65.2,10.89,65.18,11Z"/><path class="cls-2" d="M64.7,10.56h0c-.26-.05-.53,0-.79,0s-.38-.14-.77-.19-.41.08-.81,0a1.52,1.52,0,0,1-.4-.12l-.18-.08c-.06,0-.12-.07-.18,0a.1.1,0,0,0-.07,0l-.09.07,0,.05a.46.46,0,0,0,.13.44c.07.07.18,0,.27,0l.51.06c.39,0,.38.18.76.23s.41-.08.8,0l.77.13c.1,0,.2-.21.23-.34v-.05c0-.08-.09-.16-.12-.2Z"/><path class="cls-2" d="M61,10.51a.31.31,0,1,0-.61,0c0,.13.12.24.28.26S61,10.65,61,10.51Z"/><path class="cls-2" d="M175.74,13.13c0,.12-.06.25-.25.32a2.81,2.81,0,0,1-.35.06,2.26,2.26,0,0,1-.39-.07c-.2,0-.28-.06-.29-.18s0-.23.24-.31.24,0,.38,0a1.53,1.53,0,0,1,.36,0C175.64,13,175.73,13,175.74,13.13Z"/><path class="cls-2" d="M176.25,12.73h0c.25,0,.51.09.77.07s.38-.11.77-.13.39.1.78.09a1.38,1.38,0,0,0,.4-.1l.19-.07c.05,0,.12-.06.18,0l.06,0,.08.07,0,.06a.46.46,0,0,1-.15.43c-.08.07-.18,0-.27,0l-.51,0c-.38,0-.38.16-.76.18s-.39-.11-.78-.08l-.76.06c-.1,0-.18-.21-.2-.35v-.05c0-.08.1-.15.14-.19Z"/><path class="cls-2" d="M179.89,13a.31.31,0,0,1,.42-.25.33.33,0,0,1,.19.28.24.24,0,0,1-.14.2l-.17,0a.17.17,0,0,1-.1,0A.35.35,0,0,1,179.89,13Z"/><path class="cls-2" d="M65,13.13a.32.32,0,0,0,.25.32,3,3,0,0,0,.36.06,2,2,0,0,0,.38-.07c.2,0,.29-.06.3-.18S66.2,13,66,13s-.24,0-.38,0a1.56,1.56,0,0,0-.36,0C65.07,13,65,13,65,13.13Z"/><path class="cls-2" d="M64.46,12.73h0c-.26,0-.52.09-.77.07s-.39-.11-.77-.13-.4.1-.79.09a1.4,1.4,0,0,1-.39-.1l-.19-.07c-.06,0-.12-.06-.18,0l-.07,0-.07.07,0,.06a.46.46,0,0,0,.15.43c.07.07.18,0,.26,0l.51,0c.39,0,.38.16.77.18s.39-.11.77-.08l.77.06c.09,0,.17-.21.2-.35v-.05c0-.08-.1-.15-.13-.19Z"/><path class="cls-2" d="M60.82,13a.31.31,0,0,0-.42-.25.3.3,0,0,0-.19.28.23.23,0,0,0,.13.2l.17,0a.22.22,0,0,0,.11,0A.35.35,0,0,0,60.82,13Z"/><path class="cls-2" d="M175.37,14.93a.31.31,0,0,1-.23.31,1.63,1.63,0,0,1-.34,0c-.13,0-.26-.06-.36-.07s-.27-.07-.28-.18a.28.28,0,0,1,.22-.3c.1,0,.23,0,.36,0a1.37,1.37,0,0,1,.34,0C175.27,14.76,175.36,14.81,175.37,14.93Z"/><path class="cls-2" d="M175.83,14.53h0c.23,0,.48.08.72.06s.36-.11.72-.15.37.1.73.07a1,1,0,0,0,.37-.12l.17-.07c.06,0,.11-.06.17-.05l.06,0,.08.07,0,.06a.51.51,0,0,1-.12.44c-.07.07-.17,0-.25,0l-.48,0c-.36,0-.35.16-.71.19s-.37-.09-.74-.06l-.72.07c-.09,0-.16-.22-.19-.35v0c0-.09.09-.15.12-.2Z"/><path class="cls-2" d="M179.26,14.64a.37.37,0,0,1,.27-.36c.15,0,.28.17.29.3a.26.26,0,0,1-.25.27A.28.28,0,0,1,179.26,14.64Z"/><path class="cls-2" d="M65.34,14.93a.29.29,0,0,0,.23.31,1.53,1.53,0,0,0,.34,0c.13,0,.25-.06.36-.07s.26-.07.28-.18a.29.29,0,0,0-.23-.3c-.1,0-.23,0-.36,0a1.37,1.37,0,0,0-.34,0C65.44,14.76,65.35,14.81,65.34,14.93Z"/><path class="cls-2" d="M64.87,14.53h0c-.24,0-.49.08-.72.06s-.36-.11-.72-.15-.37.1-.74.07a1,1,0,0,1-.36-.12l-.18-.07s-.11-.06-.16-.05l-.07,0-.07.07,0,.06a.48.48,0,0,0,.12.44c.06.07.17,0,.25,0l.48,0c.36,0,.35.16.71.19s.37-.09.73-.06l.72.07c.09,0,.17-.22.2-.35v0c0-.09-.09-.15-.12-.2Z"/><path class="cls-2" d="M61.44,14.64a.35.35,0,0,0-.26-.36c-.15,0-.29.17-.3.3a.26.26,0,0,0,.25.27A.28.28,0,0,0,61.44,14.64Z"/><path class="cls-2" d="M174.67,17a.32.32,0,0,1-.25.32,2,2,0,0,1-.37.06,2.09,2.09,0,0,1-.39-.07.35.35,0,0,1-.26-.11.59.59,0,0,1,0-.08.23.23,0,0,1,0-.14.13.13,0,0,1,.13-.06l.08,0a.1.1,0,0,1,0,.1,0,0,0,0,1,0,0l0,0h0v.06l0,0h0a.22.22,0,0,0,0-.08s0-.06,0-.09v-.05h0c.09,0,.24,0,.38,0a1.61,1.61,0,0,1,.37,0C174.56,16.84,174.66,16.89,174.67,17Z"/><path class="cls-2" d="M175.17,16.59h0c.25,0,.52.07.78.05s.39-.12.78-.16.4.09.8.05a1.38,1.38,0,0,0,.39-.13l.19-.07c.06,0,.13-.07.19,0a.1.1,0,0,1,.07,0l.09.07a.21.21,0,0,1,0,.06.48.48,0,0,1-.14.43c-.07.07-.18,0-.27,0l-.52.05c-.39,0-.38.18-.77.22s-.41-.09-.8-.05l-.78.08c-.1,0-.18-.21-.21-.35V16.8c0-.08.1-.15.14-.19Z"/><path class="cls-2" d="M178.89,16.69a.33.33,0,0,1,.41-.24.31.31,0,0,1,.14.45.3.3,0,0,1-.34.09A.3.3,0,0,1,178.89,16.69Z"/><path class="cls-2" d="M66,17a.32.32,0,0,0,.25.32,1.79,1.79,0,0,0,.37.06,2.26,2.26,0,0,0,.39-.07.33.33,0,0,0,.25-.11.2.2,0,0,0,0-.08.18.18,0,0,0,0-.14.13.13,0,0,0-.13-.06l-.08,0a.12.12,0,0,0,0,.1,0,0,0,0,0,0,0l0,0h0v.06l0,0h0s0,0,0-.08a.25.25,0,0,1,0-.09v-.05h0c-.1,0-.25,0-.38,0a1.61,1.61,0,0,0-.37,0C66.15,16.84,66.05,16.89,66,17Z"/><path class="cls-2" d="M65.53,16.59h0c-.26,0-.53.07-.78.05s-.39-.12-.78-.16-.41.09-.8.05a1.44,1.44,0,0,1-.4-.13l-.19-.07a.26.26,0,0,0-.19,0,.13.13,0,0,0-.07,0l-.08.07,0,.06c-.07.17.08.37.14.43s.18,0,.26,0l.53.05c.39,0,.37.18.77.22s.4-.09.8-.05l.78.08c.1,0,.18-.21.21-.35V16.8c0-.08-.09-.15-.13-.19Z"/><path class="cls-2" d="M61.82,16.69a.33.33,0,0,0-.41-.24.31.31,0,0,0-.14.45.29.29,0,0,0,.33.09A.31.31,0,0,0,61.82,16.69Z"/><path class="cls-2" d="M174.75,19.84c0,.12-.06.25-.27.33a1.83,1.83,0,0,1-.39.07.81.81,0,0,1-.22,0l-.18,0a.08.08,0,0,0-.1,0s0,0,0,0-.14-.09-.17-.17a.18.18,0,0,1,0-.16.31.31,0,0,1,.18-.15.38.38,0,0,1,.23,0,1.61,1.61,0,0,0,.22,0,2,2,0,0,1,.39,0C174.63,19.68,174.73,19.73,174.75,19.84Z"/><path class="cls-2" d="M175.28,19.41h0c.28,0,.57.05.84,0,.42-.05.41-.13.83-.19s.44.08.86,0a2.61,2.61,0,0,0,.43-.13l.2-.09a.39.39,0,0,1,.21,0,.13.13,0,0,1,.07,0l.09.07a.13.13,0,0,1,0,.06.44.44,0,0,1-.15.43c-.08.07-.2,0-.28,0l-.55.07c-.42.05-.41.18-.83.24s-.43-.07-.85,0l-.84.12c-.1,0-.2-.21-.23-.34v-.05c0-.09.1-.16.14-.2Z"/><path class="cls-2" d="M179.26,19.39a.37.37,0,0,1,.39-.29.34.34,0,0,1,.25.4.29.29,0,0,1-.35.16C179.4,19.64,179.25,19.53,179.26,19.39Z"/><path class="cls-2" d="M66,19.84c0,.12.06.25.26.33a2.09,2.09,0,0,0,.39.07.79.79,0,0,0,.22,0l.19,0a.08.08,0,0,1,.1,0s0,0,0,0,.14-.09.18-.17a.18.18,0,0,0,0-.16.3.3,0,0,0-.19-.15.35.35,0,0,0-.22,0,1.62,1.62,0,0,1-.22,0,2,2,0,0,0-.4,0C66.08,19.68,66,19.73,66,19.84Z"/><path class="cls-2" d="M65.43,19.41h0c-.27,0-.56.05-.84,0s-.41-.13-.83-.19-.43.08-.85,0a2.13,2.13,0,0,1-.43-.13L62.25,19a.34.34,0,0,0-.2,0A.1.1,0,0,0,62,19a.22.22,0,0,0-.09.07s0,0,0,.06a.46.46,0,0,0,.16.43c.08.07.19,0,.28,0l.55.07c.42.05.4.18.82.24s.44-.07.86,0l.84.12c.1,0,.19-.21.23-.34v-.05c0-.09-.1-.16-.13-.2Z"/><path class="cls-2" d="M61.45,19.39a.37.37,0,0,0-.39-.29.33.33,0,0,0-.25.4.28.28,0,0,0,.34.16A.31.31,0,0,0,61.45,19.39Z"/><path class="cls-2" d="M174.73,22c0,.11-.07.25-.27.31a1.84,1.84,0,0,1-.37.05c-.12,0-.23-.05-.31,0s-.19.06-.3,0a.15.15,0,0,1-.1-.15.35.35,0,0,1,.18-.29.9.9,0,0,1,.48-.07,1.27,1.27,0,0,1,.38,0C174.62,21.86,174.72,21.91,174.73,22Z"/><path class="cls-2" d="M175.24,21.63h0c.26,0,.53.08.79.06s.39-.11.79-.14.4.09.8.06a1.56,1.56,0,0,0,.41-.11l.19-.07a.45.45,0,0,1,.19-.05.18.18,0,0,1,.07.05l.08.07,0,.06a.49.49,0,0,1-.15.43c-.08.07-.19,0-.27,0l-.53,0c-.39,0-.38.16-.78.2s-.41-.1-.8-.07l-.8.07c-.09,0-.17-.22-.2-.35v-.05c0-.09.1-.15.14-.2Z"/><path class="cls-2" d="M179,21.79a.36.36,0,0,1,.36-.3.33.33,0,0,1,.25.38.29.29,0,0,1-.32.19A.31.31,0,0,1,179,21.79Z"/><path class="cls-2" d="M66,22a.32.32,0,0,0,.26.31,2.07,2.07,0,0,0,.37.05c.13,0,.24-.05.32,0s.18.06.3,0a.16.16,0,0,0,.1-.15.4.4,0,0,0-.19-.29c-.14-.1-.33-.06-.48-.07a1.2,1.2,0,0,0-.37,0C66.09,21.86,66,21.91,66,22Z"/><path class="cls-2" d="M65.46,21.63h0c-.26,0-.53.08-.79.06s-.39-.11-.79-.14-.41.09-.8.06a1.46,1.46,0,0,1-.41-.11l-.19-.07a.45.45,0,0,0-.19-.05.18.18,0,0,0-.07.05l-.09.07,0,.06a.46.46,0,0,0,.16.43c.08.07.19,0,.27,0L63,22c.4,0,.39.16.78.2s.41-.1.81-.07l.79.07c.1,0,.18-.22.2-.35v-.05c0-.09-.1-.15-.14-.2Z"/><path class="cls-2" d="M61.71,21.79a.34.34,0,0,0-.35-.3.32.32,0,0,0-.25.38.28.28,0,0,0,.32.19C61.58,22,61.72,21.93,61.71,21.79Z"/><path class="cls-2" d="M175.06,23.58a.29.29,0,0,1-.19.31,1.33,1.33,0,0,1-.3.06,1.6,1.6,0,0,1-.33-.07c-.17,0-.23-.06-.25-.18a.28.28,0,0,1,.19-.3c.09,0,.21,0,.32,0a.82.82,0,0,1,.3,0C175,23.41,175.05,23.46,175.06,23.58Z"/><path class="cls-2" d="M175.46,23.17h0c.21,0,.43.08.64,0s.31-.12.63-.15.34.09.66.05a1,1,0,0,0,.32-.12l.15-.08c.05,0,.1-.06.15-.05l.06,0a.46.46,0,0,0,.07.07.33.33,0,0,1,0,.06.52.52,0,0,1-.08.44c-.06.07-.16,0-.22,0l-.43.05c-.32,0-.31.17-.63.2s-.33-.09-.65-.05l-.64.08c-.08,0-.16-.21-.19-.35v-.05c0-.08.07-.15.1-.2Z"/><path class="cls-2" d="M178.52,23.24c0-.14.12-.34.29-.32s.24.25.19.38a.24.24,0,0,1-.48-.06Z"/><path class="cls-2" d="M65.64,23.58a.3.3,0,0,0,.2.31,1.22,1.22,0,0,0,.3.06,1.5,1.5,0,0,0,.32-.07c.17,0,.24-.06.25-.18a.27.27,0,0,0-.19-.3c-.08,0-.2,0-.32,0a.81.81,0,0,0-.3,0C65.74,23.41,65.66,23.46,65.64,23.58Z"/><path class="cls-2" d="M65.24,23.17h0c-.21,0-.43.08-.64,0s-.32-.12-.64-.15-.33.09-.65.05A1.1,1.1,0,0,1,63,23l-.15-.08s-.09-.06-.14-.05l-.06,0-.07.07s0,0,0,.06a.55.55,0,0,0,.09.44c.06.07.15,0,.22,0l.43.05c.32,0,.3.17.62.2s.34-.09.66-.05l.64.08c.08,0,.16-.21.18-.35v-.05c0-.08-.08-.15-.1-.2Z"/><path class="cls-2" d="M62.19,23.24c0-.14-.12-.34-.29-.32s-.24.25-.19.38a.26.26,0,0,0,.25.19A.28.28,0,0,0,62.19,23.24Z"/><path class="cls-2" d="M156.59,25.37c0,.12-.06.26-.26.33a1.87,1.87,0,0,1-.39.09,1.84,1.84,0,0,1-.42,0c-.22,0-.31,0-.34-.13s0-.24.24-.34.27,0,.42,0a2.17,2.17,0,0,1,.4-.05C156.47,25.22,156.57,25.26,156.59,25.37Z"/><path class="cls-2" d="M157.13,24.94h0c.28,0,.58.07.86,0,.43,0,.42-.11.85-.13s.44.1.87.09a1.65,1.65,0,0,0,.44-.1l.21-.07a.65.65,0,0,1,.2,0l.07.05.08.07.05.06a.45.45,0,0,1-.17.43c-.08.07-.2,0-.3,0l-.56,0c-.43,0-.42.16-.85.18s-.43-.11-.85-.08l-.85.09c-.1,0-.19-.21-.22-.34v-.05c0-.09.11-.16.14-.2Z"/><path class="cls-2" d="M161.18,25.13a.33.33,0,0,1,.45-.25.36.36,0,0,1,.21.3.21.21,0,0,1-.14.2l-.18,0a.14.14,0,0,1-.11,0C161.33,25.37,161.17,25.27,161.18,25.13Z"/><path class="cls-2" d="M84.12,25.37c0,.12,0,.26.26.33a1.73,1.73,0,0,0,.39.09,1.8,1.8,0,0,0,.41,0c.23,0,.32,0,.35-.13s0-.24-.24-.34a2.52,2.52,0,0,0-.43,0,2.08,2.08,0,0,0-.4-.05C84.24,25.22,84.13,25.26,84.12,25.37Z"/><path class="cls-2" d="M83.57,24.94h0c-.29,0-.58.07-.86,0-.43,0-.43-.11-.86-.13s-.44.1-.86.09a1.82,1.82,0,0,1-.45-.1l-.2-.07c-.07,0-.14-.05-.2,0a.18.18,0,0,0-.07.05l-.09.07,0,.06c-.07.17.09.37.17.43s.2,0,.29,0l.57,0c.42,0,.42.16.84.18s.43-.11.86-.08l.84.09c.1,0,.2-.21.23-.34v-.05c0-.09-.11-.16-.15-.2Z"/><path class="cls-2" d="M79.53,25.13a.33.33,0,0,0-.45-.25.34.34,0,0,0-.21.3.2.2,0,0,0,.14.2l.17,0a.17.17,0,0,0,.12,0C79.38,25.37,79.53,25.27,79.53,25.13Z"/><path class="cls-2" d="M156.38,26.93a.32.32,0,0,1-.25.31,1.77,1.77,0,0,1-.36.07,2.1,2.1,0,0,1-.37,0c-.2,0-.29,0-.32-.13s0-.24.2-.34a1.76,1.76,0,0,1,.41,0,1.89,1.89,0,0,1,.38,0C156.28,26.77,156.37,26.82,156.38,26.93Z"/><path class="cls-2" d="M156.9,26.54h0c.26,0,.52.1.78.08s.39-.1.78-.13.41.11.8.08a1.38,1.38,0,0,0,.4-.1l.19-.07c.06,0,.13-.06.19,0a.13.13,0,0,1,.07,0l.08.07,0,.06a.49.49,0,0,1-.15.43c-.08.07-.19,0-.27,0l-.52,0c-.4,0-.39.16-.78.18s-.41-.1-.8-.08l-.79.06c-.1,0-.17-.23-.19-.36v-.05c0-.09.11-.15.14-.19Z"/><path class="cls-2" d="M160.62,26.77a.34.34,0,0,1,.36-.3.33.33,0,0,1,.24.38.27.27,0,0,1-.32.18C160.75,27,160.61,26.9,160.62,26.77Z"/><path class="cls-2" d="M84.32,26.93a.33.33,0,0,0,.26.31,1.67,1.67,0,0,0,.35.07,2.22,2.22,0,0,0,.38,0c.2,0,.28,0,.32-.13s0-.24-.21-.34a1.71,1.71,0,0,0-.41,0,1.76,1.76,0,0,0-.38,0C84.43,26.77,84.33,26.82,84.32,26.93Z"/><path class="cls-2" d="M83.8,26.54h0c-.26,0-.52.1-.78.08s-.39-.1-.79-.13-.4.11-.79.08a1.53,1.53,0,0,1-.41-.1l-.19-.07c-.06,0-.12-.06-.18,0a.1.1,0,0,0-.07,0l-.08.07,0,.06a.46.46,0,0,0,.15.43c.07.07.18,0,.27,0l.52,0c.39,0,.39.16.78.18s.4-.1.8-.08l.79.06c.09,0,.17-.23.19-.36v-.05c0-.09-.1-.15-.14-.19Z"/><path class="cls-2" d="M80.09,26.77a.35.35,0,0,0-.36-.3.32.32,0,0,0-.24.38.27.27,0,0,0,.32.18A.3.3,0,0,0,80.09,26.77Z"/><path class="cls-2" d="M155.83,28.74a.31.31,0,0,1-.21.34,1.48,1.48,0,0,1-.35.09,1.54,1.54,0,0,1-.38,0c-.2,0-.28,0-.3-.14a.3.3,0,0,1,.2-.33c.1-.05.24,0,.37,0a1.22,1.22,0,0,1,.35-.06C155.71,28.59,155.81,28.63,155.83,28.74Z"/><path class="cls-2" d="M156.27,28.29h0c.24-.06.51,0,.76,0s.35-.16.72-.23.4,0,.77,0a1.31,1.31,0,0,0,.37-.15,1,1,0,0,1,.17-.1.37.37,0,0,1,.16-.07l.07,0a.47.47,0,0,1,.09.06s0,0,.05,0a.48.48,0,0,1-.07.45c-.06.08-.18,0-.26,0l-.49.1c-.37.08-.35.21-.72.29s-.4-.06-.77,0l-.74.16c-.09,0-.19-.2-.23-.33v0c0-.08.07-.16.1-.21Z"/><path class="cls-2" d="M159.83,28a.35.35,0,0,1,.23-.38c.16,0,.32.13.35.26a.26.26,0,0,1-.23.29A.27.27,0,0,1,159.83,28Z"/><path class="cls-2" d="M84.88,28.74a.3.3,0,0,0,.21.34,1.39,1.39,0,0,0,.34.09,1.54,1.54,0,0,0,.38,0c.2,0,.28,0,.31-.14s0-.24-.21-.33-.23,0-.37,0a1.17,1.17,0,0,0-.35-.06C85,28.59,84.9,28.63,84.88,28.74Z"/><path class="cls-2" d="M84.44,28.29h0c-.24-.06-.51,0-.75,0s-.35-.16-.73-.23-.39,0-.76,0a1.31,1.31,0,0,1-.37-.15l-.17-.1a.36.36,0,0,0-.17-.07l-.07,0a.24.24,0,0,0-.08.06l0,0a.46.46,0,0,0,.07.45c.06.08.18,0,.26,0l.49.1c.37.08.34.21.71.29s.4-.06.77,0l.74.16c.1,0,.2-.2.24-.33v0c0-.08-.08-.16-.11-.21Z"/><path class="cls-2" d="M80.88,28a.35.35,0,0,0-.24-.38c-.15,0-.31.13-.34.26a.26.26,0,0,0,.23.29A.28.28,0,0,0,80.88,28Z"/><path class="cls-2" d="M125.28,24.44c0,.11-.13.26-.5.38-.2.06-.45.1-.71.15a6.87,6.87,0,0,1-.76,0c-.4,0-.55,0-.58-.09s.1-.26.48-.38a6.74,6.74,0,0,1,.76-.1,5.65,5.65,0,0,1,.71-.11C125.07,24.3,125.26,24.32,125.28,24.44Z"/><path class="cls-2" d="M126.27,23.91h0c.5-.09,1,0,1.52-.12.77-.11.76-.19,1.53-.3s.78,0,1.55-.08a4.3,4.3,0,0,0,.79-.18l.37-.1a1.09,1.09,0,0,1,.35-.07.28.28,0,0,1,.13,0,.44.44,0,0,1,.16.06.14.14,0,0,1,.08.05c.13.15-.14.38-.27.46s-.37,0-.53.05l-1,.13c-.77.1-.75.23-1.52.33s-.78,0-1.54.1-.77.12-1.53.25c-.19,0-.34-.18-.39-.31v-.05c0-.09.2-.18.27-.23Z"/><path class="cls-2" d="M133.52,23.35c0-.14.27-.37.59-.4s.6.13.61.27-.23.27-.55.3S133.54,23.48,133.52,23.35Z"/><path class="cls-2" d="M115.43,24.44c0,.11.12.26.5.38a7.21,7.21,0,0,0,.71.15,6.7,6.7,0,0,0,.75,0c.4,0,.56,0,.58-.09s-.09-.26-.48-.38a6.86,6.86,0,0,0-.75-.1,5.94,5.94,0,0,0-.71-.11C115.64,24.3,115.45,24.32,115.43,24.44Z"/><path class="cls-2" d="M114.43,23.91h0c-.51-.09-1,0-1.53-.12-.76-.11-.75-.19-1.52-.3s-.79,0-1.56-.08a4.39,4.39,0,0,1-.78-.18l-.37-.1a1.1,1.1,0,0,0-.36-.07.31.31,0,0,0-.13,0l-.16.06s-.06,0-.07.05.14.38.27.46.37,0,.53.05l1,.13c.77.1.75.23,1.51.33s.79,0,1.55.1.76.12,1.52.25c.19,0,.35-.18.4-.31v-.05c0-.09-.2-.18-.27-.23Z"/><path class="cls-2" d="M107.18,23.35c0-.14-.26-.37-.58-.4s-.6.13-.61.27.23.27.55.3S107.17,23.48,107.18,23.35Z"/><path class="cls-2" d="M139,23c0,.11-.12.24-.41.31a4.48,4.48,0,0,1-.57.05,3.25,3.25,0,0,1-.58-.08c-.31,0-.43-.06-.44-.17s.1-.24.4-.31a4.05,4.05,0,0,1,.59,0,2.73,2.73,0,0,1,.56,0C138.8,22.82,139,22.87,139,23Z"/><path class="cls-2" d="M139.76,22.59h0c.39,0,.79.09,1.18.06.6,0,.6-.11,1.2-.14s.6.09,1.2.06a3.22,3.22,0,0,0,.62-.11l.29-.08a.68.68,0,0,1,.28,0,.26.26,0,0,1,.1,0l.12.07.06,0c.09.17-.13.38-.23.44s-.29,0-.42,0l-.79,0c-.6,0-.59.17-1.19.2s-.61-.1-1.21-.06l-1.2.07c-.15,0-.25-.22-.28-.36v-.05c0-.08.16-.15.22-.19Z"/><path class="cls-2" d="M145.4,22.69c0-.14.21-.34.46-.35a.43.43,0,0,1,.47.3c0,.14-.19.25-.44.26S145.4,22.83,145.4,22.69Z"/><path class="cls-2" d="M101.75,23c0,.11.12.24.42.31a4.32,4.32,0,0,0,.57.05,3.25,3.25,0,0,0,.58-.08c.31,0,.43-.06.44-.17s-.1-.24-.41-.31a4,4,0,0,0-.58,0,2.76,2.76,0,0,0-.56,0C101.9,22.82,101.76,22.87,101.75,23Z"/><path class="cls-2" d="M101,22.59h0c-.4,0-.79.09-1.19.06-.6,0-.59-.11-1.19-.14s-.61.09-1.21.06a3.12,3.12,0,0,1-.61-.11l-.29-.08a.68.68,0,0,0-.28,0,.21.21,0,0,0-.1,0l-.12.07a.15.15,0,0,0-.06,0c-.1.17.12.38.23.44s.29,0,.41,0l.8,0c.6,0,.59.17,1.19.2s.61-.1,1.21-.06l1.19.07c.15,0,.26-.22.28-.36v-.05c0-.08-.16-.15-.22-.19Z"/><path class="cls-2" d="M95.31,22.69c0-.14-.22-.34-.47-.35s-.46.16-.46.3.19.25.43.26S95.3,22.83,95.31,22.69Z"/><path class="cls-2" d="M150.35,22.47c0,.12-.11.24-.36.29a2.43,2.43,0,0,1-.49,0,2.25,2.25,0,0,1-.49-.09c-.27,0-.37-.08-.37-.19s.08-.24.35-.3a4.75,4.75,0,0,1,.5,0,3.83,3.83,0,0,1,.48,0C150.23,22.3,150.35,22.35,150.35,22.47Z"/><path class="cls-2" d="M151.05,22.11h0c.34,0,.67.13,1,.13.52,0,.52-.08,1-.07s.51.13,1,.15a2.49,2.49,0,0,0,.53-.07l.25,0a.67.67,0,0,1,.24,0l.09,0,.09.08,0,.06c.07.17-.14.36-.23.42s-.25,0-.36,0l-.68,0c-.51,0-.51.12-1,.11s-.51-.14-1-.14h-1c-.13,0-.21-.23-.23-.37V22.3c0-.08.15-.14.2-.18Z"/><path class="cls-2" d="M155.85,22.61a.4.4,0,0,1,.47-.29.42.42,0,0,1,.28.2.25.25,0,0,1,0,.25.23.23,0,0,1-.16.1.54.54,0,0,1-.22,0C156.05,22.85,155.85,22.75,155.85,22.61Z"/><path class="cls-2" d="M90.36,22.47c0,.12.1.24.36.29a2.33,2.33,0,0,0,.48,0,2.47,2.47,0,0,0,.5-.09c.26,0,.37-.08.37-.19s-.09-.24-.35-.3a4.75,4.75,0,0,0-.5,0,3.83,3.83,0,0,0-.48,0C90.48,22.3,90.36,22.35,90.36,22.47Z"/><path class="cls-2" d="M89.65,22.11h0c-.34,0-.68.13-1,.13-.51,0-.51-.08-1-.07s-.52.13-1,.15a2.33,2.33,0,0,1-.53-.07l-.26,0a.63.63,0,0,0-.24,0l-.08,0-.1.08,0,.06c-.07.17.14.36.23.42s.24,0,.35,0l.68,0c.51,0,.52.12,1,.11s.5-.14,1-.14h1c.12,0,.21-.23.22-.37V22.3c0-.08-.15-.14-.2-.18Z"/><path class="cls-2" d="M84.85,22.61a.4.4,0,0,0-.46-.29.38.38,0,0,0-.28.2.25.25,0,0,0,0,.25.23.23,0,0,0,.16.1.52.52,0,0,0,.22,0C84.65,22.85,84.86,22.75,84.85,22.61Z"/><path class="cls-2" d="M160.38,22.48c0,.12-.19.22-.57.23a6.79,6.79,0,0,1-.71-.06,5.16,5.16,0,0,1-.71-.19c-.37-.09-.52-.15-.51-.26s.17-.21.56-.22a5.84,5.84,0,0,1,.72.13,5.75,5.75,0,0,1,.7.09C160.23,22.29,160.39,22.37,160.38,22.48Z"/><path class="cls-2" d="M161.45,22.25h0c.49.05,1,.24,1.45.29.75.09.76,0,1.5.09s.74.22,1.48.3a4.17,4.17,0,0,0,.79,0h.37a1,1,0,0,1,.35,0l.12.06.13.1.07.07c.08.18-.22.34-.37.38s-.35-.05-.51-.07l-1-.11c-.75-.08-.77.05-1.51,0s-.74-.21-1.48-.3l-1.5-.16c-.18,0-.27-.27-.28-.41V22.4c0-.08.23-.11.31-.15Z"/><path class="cls-2" d="M168.4,23.49c0-.14.36-.28.69-.16a.72.72,0,0,1,.35.28.27.27,0,0,1,0,.27c-.08.12-.31.08-.58,0S168.37,23.62,168.4,23.49Z"/><path class="cls-2" d="M80.33,22.48c0,.12.19.22.57.23a7,7,0,0,0,.71-.06,5.41,5.41,0,0,0,.7-.19c.38-.09.53-.15.51-.26s-.16-.21-.55-.22a6,6,0,0,0-.73.13,5.56,5.56,0,0,0-.69.09C80.48,22.29,80.31,22.37,80.33,22.48Z"/><path class="cls-2" d="M79.26,22.25h0c-.49.05-1,.24-1.45.29-.75.09-.76,0-1.51.09s-.73.22-1.48.3a4.07,4.07,0,0,1-.78,0h-.37a1,1,0,0,0-.35,0l-.12.06-.14.1s0,0-.06.07.22.34.36.38.36-.05.52-.07l1-.11c.75-.08.76.05,1.51,0s.73-.21,1.48-.3l1.5-.16c.18,0,.27-.27.28-.41V22.4c0-.08-.23-.11-.31-.15Z"/><path class="cls-2" d="M72.31,23.49c0-.14-.37-.28-.69-.16a.67.67,0,0,0-.35.28.28.28,0,0,0,0,.27c.08.12.32.08.58,0S72.33,23.62,72.31,23.49Z"/><path class="cls-2" d="M124.83,4.3c0,.12-.15.26-.53.33a6.31,6.31,0,0,1-.72.08,4.24,4.24,0,0,1-.74,0c-.39,0-.55,0-.56-.16s.12-.23.51-.32c.21,0,.47,0,.75,0a6.54,6.54,0,0,1,.71,0C124.63,4.14,124.82,4.18,124.83,4.3Z"/><path class="cls-2" d="M125.84,3.86h0c.5,0,1,.05,1.51,0,.76-.07.75-.15,1.51-.21s.78.07,1.54,0a5.32,5.32,0,0,0,.78-.14c.12,0,.24-.07.37-.09a1.07,1.07,0,0,1,.35-.06l.13,0,.15.07.08,0c.12.16-.16.38-.29.45a1.35,1.35,0,0,1-.53,0l-1,.08c-.76.06-.75.19-1.51.25s-.77-.07-1.53,0l-1.52.12c-.19,0-.33-.2-.37-.34v0c0-.08.2-.16.28-.2Z"/><path class="cls-2" d="M133,3.7c0-.14.27-.35.59-.38s.59.15.6.29-.24.26-.56.28S133,3.84,133,3.7Z"/><path class="cls-2" d="M115.88,4.3c0,.12.15.26.53.33a6.38,6.38,0,0,0,.71.08,4.17,4.17,0,0,0,.74,0c.4,0,.56,0,.57-.16s-.13-.23-.51-.32c-.21,0-.48,0-.75,0a6.72,6.72,0,0,0-.71,0C116.07,4.14,115.89,4.18,115.88,4.3Z"/><path class="cls-2" d="M114.86,3.86h0c-.5,0-1,.05-1.5,0-.76-.07-.76-.15-1.52-.21s-.77.07-1.53,0a4.89,4.89,0,0,1-.78-.14l-.37-.09a1.07,1.07,0,0,0-.35-.06.5.5,0,0,0-.13,0l-.15.07-.08,0c-.12.16.15.38.29.45a1.3,1.3,0,0,0,.52,0l1,.08c.76.06.75.19,1.51.25s.77-.07,1.53,0l1.52.12c.19,0,.33-.2.36-.34v0c0-.08-.21-.16-.28-.2Z"/><path class="cls-2" d="M107.7,3.7c0-.14-.28-.35-.59-.38s-.59.15-.6.29.24.26.55.28S107.69,3.84,107.7,3.7Z"/><path class="cls-2" d="M136.65,3.53c0,.11-.11.24-.39.3a2.66,2.66,0,0,1-.52.06,3.65,3.65,0,0,1-.54-.08c-.29,0-.4-.07-.41-.18s.09-.24.37-.31a5.43,5.43,0,0,1,.55,0,3.17,3.17,0,0,1,.52,0C136.51,3.36,136.64,3.41,136.65,3.53Z"/><path class="cls-2" d="M137.4,3.14h0c.37,0,.73.1,1.1.08.56,0,.55-.1,1.11-.12s.56.11,1.12.1a2.72,2.72,0,0,0,.57-.1L141.6,3a.74.74,0,0,1,.26,0A.18.18,0,0,1,142,3l.11.07.05.06c.09.17-.12.37-.22.43s-.27,0-.39,0h-.74c-.55,0-.55.15-1.11.17s-.56-.11-1.11-.09l-1.11.06c-.14,0-.24-.22-.26-.36V3.34c0-.08.15-.15.2-.19Z"/><path class="cls-2" d="M142.63,3.38c0-.14.22-.34.45-.34a.42.42,0,0,1,.42.32c0,.14-.18.25-.41.25S142.64,3.52,142.63,3.38Z"/><path class="cls-2" d="M104.06,3.53c0,.11.11.24.38.3a2.67,2.67,0,0,0,.53.06,3.87,3.87,0,0,0,.54-.08c.29,0,.4-.07.41-.18s-.09-.24-.37-.31a5.43,5.43,0,0,0-.55,0,3.21,3.21,0,0,0-.52,0C104.2,3.36,104.06,3.41,104.06,3.53Z"/><path class="cls-2" d="M103.31,3.14h0c-.37,0-.73.1-1.1.08-.56,0-.56-.1-1.11-.12s-.57.11-1.12.1a2.82,2.82,0,0,1-.58-.1L99.11,3a.77.77,0,0,0-.26,0,.18.18,0,0,0-.09,0l-.11.07-.05.06c-.09.17.12.37.22.43s.27,0,.38,0h.74c.56,0,.56.15,1.11.17s.56-.11,1.12-.09l1.11.06c.14,0,.23-.22.26-.36V3.34c0-.08-.15-.15-.2-.19Z"/><path class="cls-2" d="M98.07,3.38c0-.14-.21-.34-.44-.34a.42.42,0,0,0-.42.32c0,.14.18.25.41.25S98.07,3.52,98.07,3.38Z"/><path class="cls-2" d="M147.32,2.94c0,.12-.15.23-.43.25s-.33,0-.52,0-.36,0-.52,0-.38.07-.44,0,0-.28.3-.43a1.84,1.84,0,0,1,.63-.05,2.12,2.12,0,0,1,.57,0C147.21,2.75,147.33,2.82,147.32,2.94Z"/><path class="cls-2" d="M148.14,2.65h0c.38,0,.74.16,1.13.17.57,0,.57-.08,1.15-.09s.57.1,1.15.07a4,4,0,0,0,.6-.12l.29-.07a.68.68,0,0,1,.28,0l.1.05.11.07.06.06c.08.17-.15.37-.25.43s-.27,0-.39,0l-.77,0c-.58,0-.57.17-1.16.19s-.59-.12-1.18-.12-.59,0-1.18,0c-.14,0-.21-.25-.22-.38v0c0-.09.17-.14.23-.17Z"/><path class="cls-2" d="M153.56,3c0-.14.26-.32.52-.28s.4.29.37.42-.24.18-.47.15S153.55,3.14,153.56,3Z"/><path class="cls-2" d="M93.38,2.94c0,.12.16.23.44.25s.33,0,.52,0,.36,0,.51,0,.38.07.44,0,0-.28-.3-.43a1.76,1.76,0,0,0-.62-.05,2.11,2.11,0,0,0-.57,0C93.5,2.75,93.37,2.82,93.38,2.94Z"/><path class="cls-2" d="M92.56,2.65h0c-.37,0-.74.16-1.12.17-.58,0-.57-.08-1.15-.09s-.58.1-1.16.07a4.25,4.25,0,0,1-.6-.12l-.28-.07a.68.68,0,0,0-.28,0,.31.31,0,0,0-.1.05l-.11.07a.17.17,0,0,0-.06.06c-.08.17.14.37.24.43s.28,0,.4,0l.76,0c.59,0,.58.17,1.17.19s.59-.12,1.18-.12.59,0,1.17,0c.15,0,.22-.25.23-.38v0c0-.09-.18-.14-.24-.17Z"/><path class="cls-2" d="M87.15,3c0-.14-.26-.32-.52-.28s-.41.29-.37.42.24.18.46.15S87.16,3.14,87.15,3Z"/><path class="cls-2" d="M158.44,2.44c0,.11-.13.23-.41.29l-.53,0a3,3,0,0,1-.55-.06c-.29,0-.41,0-.43-.14s.07-.25.37-.34a3.6,3.6,0,0,1,.57,0,2.58,2.58,0,0,1,.55,0C158.3,2.26,158.44,2.32,158.44,2.44Z"/><path class="cls-2" d="M159.25,2.11h0c.38,0,.75.18,1.13.21.57.06.58,0,1.15.05s.56.2,1.13.27a3,3,0,0,0,.6,0l.29,0a.57.57,0,0,1,.26,0,.19.19,0,0,1,.09.05l.1.09a.18.18,0,0,1,0,.07c.06.18-.18.35-.29.39s-.27,0-.39,0l-.76-.09c-.57-.07-.59.06-1.16,0s-.55-.2-1.12-.26l-1.14-.08c-.13,0-.21-.24-.23-.38v0c0-.08.18-.14.24-.17Z"/><path class="cls-2" d="M164.57,3.11c0-.14.27-.3.5-.27s.41.24.39.38-.22.21-.46.18S164.56,3.25,164.57,3.11Z"/><path class="cls-2" d="M82.27,2.44c0,.11.13.23.41.29l.53,0a3.09,3.09,0,0,0,.55-.06c.29,0,.41,0,.43-.14s-.07-.25-.37-.34a3.73,3.73,0,0,0-.58,0,2.48,2.48,0,0,0-.54,0C82.4,2.26,82.27,2.32,82.27,2.44Z"/><path class="cls-2" d="M81.46,2.11h0c-.39,0-.75.18-1.13.21-.58.06-.58,0-1.16.05s-.55.2-1.12.27a3,3,0,0,1-.6,0l-.29,0a.61.61,0,0,0-.27,0l-.09.05-.1.09a.43.43,0,0,0,0,.07c-.07.18.18.35.29.39s.27,0,.39,0l.76-.09c.57-.07.59.06,1.16,0s.55-.2,1.12-.26.57,0,1.13-.08c.14,0,.22-.24.23-.38v0c0-.08-.17-.14-.23-.17Z"/><path class="cls-2" d="M76.13,3.11c0-.14-.26-.3-.5-.27s-.4.24-.38.38.22.21.45.18S76.15,3.25,76.13,3.11Z"/><path class="cls-2" d="M168,3a.34.34,0,0,1-.31.25h-.35c-.13,0-.25-.09-.36-.1s-.27,0-.29-.17,0-.24.25-.32.26,0,.41,0a1.17,1.17,0,0,1,.39,0C168,2.83,168.05,2.9,168,3Z"/><path class="cls-2" d="M168.63,2.76h0c.26,0,.49.23.74.28s.41,0,.79.11.35.22.73.33a1.49,1.49,0,0,0,.42,0h.2c.06,0,.14,0,.19,0s0,0,0,.06l.05.1s0,0,0,.07c0,.18-.2.31-.28.35s-.18-.06-.26-.08l-.49-.15c-.38-.1-.41,0-.79-.07s-.34-.22-.72-.31l-.77-.15c-.09,0-.11-.25-.1-.39V2.92c0-.08.14-.12.19-.15Z"/><path class="cls-2" d="M172.1,4.09a.38.38,0,0,1,.41-.21.34.34,0,0,1,.17.41.27.27,0,0,1-.36.13A.29.29,0,0,1,172.1,4.09Z"/><path class="cls-2" d="M72.68,3a.34.34,0,0,0,.31.25h.35c.13,0,.25-.09.35-.1S74,3.12,74,3s0-.24-.25-.32-.27,0-.42,0a1.14,1.14,0,0,0-.38,0C72.74,2.83,72.66,2.9,72.68,3Z"/><path class="cls-2" d="M72.08,2.76h0c-.26,0-.48.23-.73.28s-.41,0-.79.11-.36.22-.74.33a1.39,1.39,0,0,1-.41,0h-.21c-.06,0-.13,0-.18,0a.15.15,0,0,0,0,.06l0,.1a.14.14,0,0,0,0,.07c0,.18.2.31.29.35s.17-.06.25-.08l.5-.15c.37-.1.41,0,.78-.07s.35-.22.73-.31l.76-.15c.1,0,.11-.25.1-.39V2.92c0-.08-.13-.12-.18-.15Z"/><path class="cls-2" d="M68.61,4.09a.38.38,0,0,0-.41-.21.34.34,0,0,0-.17.41.27.27,0,0,0,.35.13A.29.29,0,0,0,68.61,4.09Z"/><path class="cls-2" d="M188.73,25.8c0,.12-.18.22-.48.2a2.43,2.43,0,0,1-1.11-.3c-.29-.11-.4-.17-.38-.28s.15-.21.47-.2.35.12.56.16a3.26,3.26,0,0,1,.55.12C188.62,25.61,188.75,25.69,188.73,25.8Z"/><path class="cls-2" d="M189.61,25.61h0a10.24,10.24,0,0,1,1.14.39l.6.16a2.37,2.37,0,0,1,.6.23,1.8,1.8,0,0,1,.5.38,5.26,5.26,0,0,0,.46.44c.16.14.34.26.51.4l.25.22a.65.65,0,0,1,.2.26.49.49,0,0,1,0,.12c0,.05,0,.1,0,.15a.2.2,0,0,1,0,.08.21.21,0,0,1-.25,0,.91.91,0,0,1-.23-.09c-.11-.07-.13-.23-.2-.32a3.76,3.76,0,0,0-.52-.54,1.25,1.25,0,0,0-.49-.29c-.13-.06-.27-.11-.51-.24a3,3,0,0,1-.48-.3,1.59,1.59,0,0,0-.52-.24c-.57-.15-.57-.13-1.15-.25-.15,0-.19-.28-.19-.42v-.05c0-.08.2-.1.26-.13Z"/><path class="cls-2" d="M193.72,29.06c.07,0,.15.06.21.17a.52.52,0,0,1,0,.41.44.44,0,0,1-.28.27.25.25,0,0,1-.26,0c-.09-.1-.05-.27,0-.44S193.58,29.06,193.72,29.06Z"/><path class="cls-2" d="M52,25.8c0,.12.18.22.48.2a3.27,3.27,0,0,0,.56-.08,3,3,0,0,0,.54-.22c.3-.11.41-.17.39-.28s-.16-.21-.47-.2-.36.12-.57.16a3.35,3.35,0,0,0-.54.12C52.08,25.61,52,25.69,52,25.8Z"/><path class="cls-2" d="M51.1,25.61h0a10.24,10.24,0,0,0-1.14.39l-.61.16a2.34,2.34,0,0,0-.59.23,1.8,1.8,0,0,0-.5.38c-.12.12-.22.23-.46.44s-.34.26-.52.4a2.5,2.5,0,0,0-.24.22.65.65,0,0,0-.2.26.49.49,0,0,0,0,.12.77.77,0,0,0,0,.15s0,.06,0,.08a.23.23,0,0,0,.26,0,1.38,1.38,0,0,0,.23-.09c.11-.07.12-.23.2-.32a3.68,3.68,0,0,1,.51-.54,1.41,1.41,0,0,1,.49-.29c.14-.06.27-.11.52-.24a3.51,3.51,0,0,0,.48-.3,1.59,1.59,0,0,1,.52-.24c.56-.15.57-.13,1.15-.25.14,0,.19-.28.18-.42v-.05c0-.08-.19-.1-.26-.13Z"/><path class="cls-2" d="M47,29.06a.26.26,0,0,0-.21.17.56.56,0,0,0,0,.41.48.48,0,0,0,.29.27.23.23,0,0,0,.25,0c.1-.1.06-.27,0-.44S47.13,29.06,47,29.06Z"/><path class="cls-2" d="M188.64,27a.32.32,0,0,1-.29.26,1.73,1.73,0,0,1-.33,0,1.69,1.69,0,0,1-.34-.1c-.19,0-.26-.06-.28-.18a.29.29,0,0,1,.24-.3c.11,0,.25,0,.39,0a1.38,1.38,0,0,1,.36,0C188.57,26.77,188.65,26.83,188.64,27Z"/><path class="cls-2" d="M189.21,26.68h0a5.69,5.69,0,0,1,.71.32,3.59,3.59,0,0,1,.76.26.91.91,0,0,1,.3.27,1.83,1.83,0,0,0,.26.31,2.18,2.18,0,0,0,.34.26l.16.13c.05.05.12.09.13.16a.25.25,0,0,1,0,.08l0,.1s0,.05,0,.06a.54.54,0,0,1-.45.06c-.09,0-.07-.14-.11-.2a2.37,2.37,0,0,0-.29-.34.55.55,0,0,0-.3-.17,1,1,0,0,1-.31-.12c-.29-.16-.24-.28-.56-.4a5.38,5.38,0,0,0-.69-.18c-.08,0-.1-.25-.09-.39v-.05c0-.08.13-.12.18-.15Z"/><path class="cls-2" d="M191.71,29a.34.34,0,0,1,.39.25.31.31,0,0,1-.32.31.27.27,0,0,1-.25-.24A.31.31,0,0,1,191.71,29Z"/><path class="cls-2" d="M52.07,27a.31.31,0,0,0,.29.26,1.09,1.09,0,0,0,.67-.09c.18,0,.26-.06.27-.18s0-.24-.24-.3-.24,0-.38,0a1.31,1.31,0,0,0-.36,0C52.13,26.77,52.05,26.83,52.07,27Z"/><path class="cls-2" d="M51.5,26.68h0a6.43,6.43,0,0,0-.71.32,3.51,3.51,0,0,0-.75.26.81.81,0,0,0-.3.27,1.57,1.57,0,0,1-.27.31,1.72,1.72,0,0,1-.33.26l-.16.13c-.05.05-.12.09-.13.16s0,.05,0,.08l0,.1s0,.05,0,.06a.52.52,0,0,0,.44.06c.09,0,.08-.14.12-.2a1.87,1.87,0,0,1,.29-.34.56.56,0,0,1,.29-.17,1,1,0,0,0,.31-.12c.29-.16.24-.28.57-.4a5.23,5.23,0,0,1,.68-.18c.09,0,.1-.25.09-.39v-.05c0-.08-.14-.12-.18-.15Z"/><path class="cls-2" d="M49,29a.33.33,0,0,0-.39.25.31.31,0,0,0,.32.31.28.28,0,0,0,.25-.24A.31.31,0,0,0,49,29Z"/><path class="cls-2" d="M187.87,27.88a.3.3,0,0,1-.22.27.9.9,0,0,1-.25,0c-.1,0-.2-.08-.28-.1s-.21-.06-.22-.18a.28.28,0,0,1,.18-.3c.08,0,.19,0,.3,0a.92.92,0,0,1,.29,0C187.82,27.7,187.89,27.76,187.87,27.88Z"/><path class="cls-2" d="M188.38,27.62h0c.23.07.37.3.54.43l.27.2a.64.64,0,0,1,.24.25.53.53,0,0,1,.1.34,1.25,1.25,0,0,0,0,.34,1.6,1.6,0,0,0,.11.33,1.09,1.09,0,0,1,.05.17c0,.06,0,.12,0,.17s0,0-.05,0l-.09.05h-.07a.65.65,0,0,1-.39-.2c-.06-.06,0-.12,0-.17a1.76,1.76,0,0,0,0-.33c-.06-.25-.19-.2-.29-.39s0-.28-.23-.44a.57.57,0,0,0-.21-.13.77.77,0,0,0-.23-.09c-.05,0,0-.26,0-.39v-.05c0-.08.13-.12.18-.14Z"/><path class="cls-2" d="M189.24,30.16c.13.05.25.25.17.37s-.3.1-.4,0a.22.22,0,0,1-.08-.29A.26.26,0,0,1,189.24,30.16Z"/><path class="cls-2" d="M52.83,27.88a.32.32,0,0,0,.22.27,1,1,0,0,0,.26,0c.1,0,.19-.08.28-.1s.21-.06.22-.18a.28.28,0,0,0-.18-.3c-.09,0-.19,0-.3,0a.91.91,0,0,0-.29,0C52.88,27.7,52.82,27.76,52.83,27.88Z"/><path class="cls-2" d="M52.33,27.62h0c-.23.07-.38.3-.54.43l-.28.2a.82.82,0,0,0-.24.25.69.69,0,0,0-.1.34,1.15,1.15,0,0,1,0,.34,2.55,2.55,0,0,1-.11.33,1.09,1.09,0,0,0-.05.17.2.2,0,0,0,0,.17s0,0,0,0l.09.05h.07a.68.68,0,0,0,.39-.2c0-.06,0-.12,0-.17a1.2,1.2,0,0,1,0-.33c.06-.25.19-.2.3-.39s0-.28.22-.44a.79.79,0,0,1,.21-.13.91.91,0,0,1,.23-.09c.06,0,0-.26,0-.39v-.05a.28.28,0,0,0-.17-.14Z"/><path class="cls-2" d="M51.47,30.16c-.13.05-.26.25-.18.37s.3.1.41,0a.24.24,0,0,0,.08-.29A.26.26,0,0,0,51.47,30.16Z"/><path class="cls-2" d="M186.81,29a.51.51,0,0,1-.25.2h-.12a.13.13,0,0,1-.07,0h0l0-.15h0v0l0,0h0l-.06,0a.11.11,0,0,0-.08,0v.05a.08.08,0,0,1,0,.08s-.05.06-.14,0a.32.32,0,0,1-.14-.22.45.45,0,0,1,0-.2.31.31,0,0,1,.09-.11l.08,0,.08,0h.18a.54.54,0,0,1,.3.05C186.85,28.78,186.86,28.87,186.81,29Z"/><path class="cls-2" d="M187.33,29h0c.15.19.09.43.12.61a2.12,2.12,0,0,0,0,.28.65.65,0,0,1,0,.29c-.06.27-.19.23-.28.47a.76.76,0,0,0-.06.27.77.77,0,0,1,0,.15s0,.1,0,.12H187l-.06,0a.69.69,0,0,1-.28-.34c0-.07.07-.08.09-.11a1.19,1.19,0,0,0,.13-.25c.08-.2,0-.24,0-.42s.16-.17.14-.37a.43.43,0,0,0,0-.17.76.76,0,0,0-.08-.15s.12-.21.21-.31l0,0c.06,0,.16,0,.21,0Z"/><path class="cls-2" d="M186.58,31.17c.1.09.16.3.07.38s-.27,0-.35-.15-.08-.24,0-.29S186.48,31.07,186.58,31.17Z"/><path class="cls-2" d="M53.9,29a.43.43,0,0,0,.25.2h.12s0,0,.07,0h0l0-.15h0l0,0,0,0h0l.06,0a.11.11,0,0,1,.08,0v0s0,.05,0,.08a.13.13,0,0,0,0,.08s0,.06.13,0a.26.26,0,0,0,.14-.22.34.34,0,0,0,0-.2.31.31,0,0,0-.09-.11l-.08,0-.09,0h-.18a.58.58,0,0,0-.3.05C53.86,28.78,53.84,28.87,53.9,29Z"/><path class="cls-2" d="M53.37,29h0c-.14.19-.08.43-.11.61a1.81,1.81,0,0,1-.06.28.69.69,0,0,0,0,.29c.06.27.18.23.28.47a.76.76,0,0,1,.05.27c0,.05,0,.1,0,.15s0,.1.05.12h.16l.06,0a.66.66,0,0,0,.27-.34c0-.07-.06-.08-.08-.11a2,2,0,0,1-.14-.25c-.08-.2,0-.24,0-.42s-.16-.17-.14-.37a.43.43,0,0,1,.05-.17.76.76,0,0,1,.08-.15s-.13-.21-.22-.31l0,0a.36.36,0,0,0-.22,0Z"/><path class="cls-2" d="M54.13,31.17c-.1.09-.16.3-.07.38s.27,0,.35-.15.07-.24,0-.29S54.23,31.07,54.13,31.17Z"/><path class="cls-2" d="M228.83,13.91c-.06.1-.26.14-.62,0a5.37,5.37,0,0,1-.63-.32,4.72,4.72,0,0,1-.57-.45c-.31-.24-.42-.35-.36-.45s.24-.12.59,0a7,7,0,0,1,.61.4,5.35,5.35,0,0,1,.6.34C228.75,13.68,228.88,13.8,228.83,13.91Z"/><path class="cls-2" d="M229.9,14h0c.44.21.83.52,1.28.71.68.29.71.22,1.4.48a5.59,5.59,0,0,1,.67.29,2.1,2.1,0,0,0,.68.23,2,2,0,0,0,.74,0l.35-.06a1.32,1.32,0,0,1,.34,0l.12,0,.15.07s.06,0,.07.06-.16.37-.29.44a1.18,1.18,0,0,1-.53,0,5,5,0,0,1-1-.08,6.83,6.83,0,0,0-.77-.12,2.77,2.77,0,0,1-.75-.18c-.71-.27-.66-.39-1.35-.68s-.69-.29-1.37-.61c-.17-.08-.17-.34-.14-.48l0,0c.06-.07.26,0,.34,0Z"/><path class="cls-2" d="M236.42,16c0-.13.31-.33.65-.28s.53.33.48.46-.29.15-.57.11S236.42,16.18,236.42,16Z"/><path class="cls-2" d="M11.88,13.91c0,.1.26.14.61,0a4.76,4.76,0,0,0,.64-.32,4.72,4.72,0,0,0,.57-.45c.31-.24.41-.35.35-.45s-.23-.12-.59,0c-.19.08-.37.27-.6.4a4.58,4.58,0,0,0-.6.34C12,13.68,11.83,13.8,11.88,13.91Z"/><path class="cls-2" d="M10.81,14h0c-.44.21-.82.52-1.27.71-.68.29-.71.22-1.4.48a4.94,4.94,0,0,0-.67.29,2.08,2.08,0,0,1-.69.23,2,2,0,0,1-.73,0l-.36-.06a1.19,1.19,0,0,0-.33,0l-.13,0-.14.07a.24.24,0,0,0-.08.06c-.11.16.16.37.3.44a1.14,1.14,0,0,0,.52,0,5.11,5.11,0,0,0,1-.08,6.21,6.21,0,0,1,.77-.12,2.86,2.86,0,0,0,.75-.18c.71-.27.66-.39,1.35-.68s.69-.29,1.37-.61c.17-.08.17-.34.13-.48l0,0c0-.07-.25,0-.33,0Z"/><path class="cls-2" d="M4.28,16c0-.13-.3-.33-.64-.28s-.54.33-.49.46.3.15.57.11S4.28,16.18,4.28,16Z"/><path class="cls-2" d="M225.3,32.05c-.07.09-.29.06-.62-.19a5.53,5.53,0,0,1-.57-.54,5.34,5.34,0,0,1-.46-.66c-.24-.35-.31-.5-.22-.58s.27,0,.58.25.3.4.49.61a6.3,6.3,0,0,1,.52.54C225.28,31.79,225.38,32,225.3,32.05Z"/><path class="cls-2" d="M226.38,32.5l0,0c.41.32.76.73,1.2,1a14.78,14.78,0,0,0,1.41.77,7.3,7.3,0,0,1,.68.43,3.08,3.08,0,0,0,.69.41,5.7,5.7,0,0,0,.8.25l.39.08a1.36,1.36,0,0,1,.36.1l.11.08.12.13s.05.05.05.08c.07.2-.29.28-.46.29s-.36-.14-.53-.2a5.49,5.49,0,0,1-.51-.21c-.16-.07-.34-.13-.5-.21-.38-.17-.58-.23-.77-.3a3.32,3.32,0,0,1-.77-.32c-.72-.41-.65-.53-1.34-1A16.17,16.17,0,0,1,226,33a.44.44,0,0,1-.05-.51l0,0c.07,0,.26,0,.35,0Z"/><path class="cls-2" d="M232.87,36.31c0-.14.4-.24.73-.15s.53.35.5.49-.33.15-.66.06S232.83,36.44,232.87,36.31Z"/><path class="cls-2" d="M15.4,32.05c.08.09.3.06.63-.19a5.53,5.53,0,0,0,.57-.54,5.18,5.18,0,0,0,.45-.66c.25-.35.32-.5.23-.58s-.27,0-.58.25-.3.4-.5.61-.38.37-.52.54S15.32,32,15.4,32.05Z"/><path class="cls-2" d="M14.33,32.5l0,0c-.41.32-.75.73-1.19,1a14.78,14.78,0,0,1-1.41.77,7.3,7.3,0,0,0-.68.43,3,3,0,0,1-.7.41,5.31,5.31,0,0,1-.8.25l-.38.08a1.36,1.36,0,0,0-.36.1.31.31,0,0,0-.11.08.49.49,0,0,0-.12.13.16.16,0,0,0-.06.08c-.06.2.3.28.46.29s.37-.14.53-.2a3.89,3.89,0,0,0,.51-.21c.17-.07.34-.13.51-.21a7,7,0,0,1,.77-.3,3.5,3.5,0,0,0,.77-.32c.72-.41.65-.53,1.34-1s.68-.46,1.33-1a.42.42,0,0,0,0-.51l0,0c-.07,0-.27,0-.36,0Z"/><path class="cls-2" d="M7.83,36.31c0-.14-.4-.24-.72-.15s-.53.35-.5.49.32.15.65.06S7.87,36.44,7.83,36.31Z"/><path class="cls-2" d="M232,27.71c-.11,0-.27,0-.41-.26a4.43,4.43,0,0,1-.2-.47,2.64,2.64,0,0,1-.08-.52l0-.17.27.06c-.14.09-.22.1-.28,0a.31.31,0,0,1,0-.33l.12-.25.3.34.09.13a2.86,2.86,0,0,1,.14.51,3.45,3.45,0,0,1,.17.47C232.08,27.53,232.07,27.67,232,27.71Z"/><path class="cls-2" d="M232.56,28.28h0c.13.33.13.7.25,1,.19.51.27.48.45,1s.07.55.26,1.05a2.15,2.15,0,0,0,.27.49l.15.23a.57.57,0,0,1,.11.22.18.18,0,0,1,0,.1.56.56,0,0,1,0,.12.11.11,0,0,1,0,.07c-.14.13-.39,0-.48-.06s-.08-.25-.12-.35l-.25-.67c-.19-.5-.32-.46-.5-1s-.07-.55-.26-1.05l-.38-1c0-.12.14-.28.26-.35h0c.09,0,.19.09.25.12Z"/><path class="cls-2" d="M233.92,33.13c.13-.05.39.09.45.32a.39.39,0,0,1-.24.47c-.14,0-.26-.12-.31-.32S233.79,33.17,233.92,33.13Z"/><path class="cls-2" d="M8.74,27.71c.11,0,.27,0,.41-.26a4.43,4.43,0,0,0,.2-.47,2.58,2.58,0,0,0,.07-.52.55.55,0,0,0,0-.17l-.26.06c.14.09.21.1.28,0a.29.29,0,0,0,0-.33l-.11-.25-.3.34-.1.13a4.06,4.06,0,0,0-.14.51,3.28,3.28,0,0,0-.16.47C8.62,27.53,8.63,27.67,8.74,27.71Z"/><path class="cls-2" d="M8.15,28.28h0c-.13.33-.12.7-.25,1-.19.51-.26.48-.45,1s-.06.55-.25,1.05a3.36,3.36,0,0,1-.27.49l-.15.23a.59.59,0,0,0-.12.22.44.44,0,0,0,0,.1l0,.12a.25.25,0,0,0,0,.07c.13.13.39,0,.48-.06s.08-.25.12-.35l.25-.67c.19-.5.31-.46.5-1s.07-.55.25-1.05.19-.5.39-1c0-.12-.15-.28-.27-.35H8.41c-.08,0-.18.09-.24.12Z"/><path class="cls-2" d="M6.79,33.13a.42.42,0,0,0-.45.32.39.39,0,0,0,.23.47c.14,0,.27-.12.32-.32S6.92,33.17,6.79,33.13Z"/><path class="cls-2" d="M232.72,21.49c.08.09.08.26-.1.48a3.21,3.21,0,0,1-.37.36,2.49,2.49,0,0,1-.46.27c-.24.15-.35.19-.43.11s-.07-.24.1-.47a4.37,4.37,0,0,1,.43-.32,2.74,2.74,0,0,1,.39-.33C232.51,21.45,232.65,21.4,232.72,21.49Z"/><path class="cls-2" d="M233.05,20.73v0c.27-.24.62-.38.89-.62s.35-.42.76-.78.49-.27.9-.64a2.54,2.54,0,0,0,.37-.43,1.77,1.77,0,0,1,.16-.22c.05-.07.09-.16.17-.2l.09,0h.21c.18.07.15.35.11.47s-.2.17-.28.24l-.54.48c-.41.37-.32.47-.73.83s-.49.27-.9.63l-.81.73c-.1.09-.32,0-.42-.11l0,0c0-.07,0-.21,0-.28Z"/><path class="cls-2" d="M237.14,17.63a.47.47,0,0,1,.08-.54.44.44,0,0,1,.51-.09c.11.08.07.3-.1.48S237.24,17.73,237.14,17.63Z"/><path class="cls-2" d="M8,21.49c-.08.09-.07.26.1.48s.23.23.37.36a2.93,2.93,0,0,0,.47.27c.24.15.35.19.42.11s.08-.24-.09-.47-.29-.19-.43-.32a3.43,3.43,0,0,0-.39-.33C8.19,21.45,8.06,21.4,8,21.49Z"/><path class="cls-2" d="M7.66,20.73l0,0c-.26-.24-.61-.38-.88-.62s-.36-.42-.76-.78-.5-.27-.9-.64a2.16,2.16,0,0,1-.37-.43L4.57,18a.67.67,0,0,0-.17-.2l-.1,0H4.09c-.17.07-.14.35-.11.47s.2.17.29.24l.54.48c.41.37.32.47.73.83s.49.27.9.63l.81.73c.1.09.32,0,.42-.11l0,0c0-.07,0-.21,0-.28Z"/><path class="cls-2" d="M3.56,17.63a.46.46,0,0,0-.07-.54A.44.44,0,0,0,3,17c-.11.08-.07.3.09.48S3.47,17.73,3.56,17.63Z"/><path class="cls-2" d="M196.3,3.62l-.17-.14-.48-.25-.85-.42-.7-.33c-.24-.09-.48-.18-.74-.26s-.66-.2-1-.3l-.4-.09-.38-.09-.38-.08-.1,0c-.39-.06-.58-.07-.78-.09s-.39-.05-.79-.06h-.93l-.46,0-.46.06c-.3,0-.6.08-.9.14a6.51,6.51,0,0,0-.77.13,9.71,9.71,0,0,0-2.77.86.16.16,0,0,0,.08.21,2.4,2.4,0,0,0,.51-.07c.54-.11,1.12-.32,1.67-.43l.22,0a6.47,6.47,0,0,1,2-.2h.07c.42,0,.85,0,1.27,0s.84.05,1.26.11l.39,0,.38,0,.47.05.47.06c.31,0,.62.09.93.15a7.47,7.47,0,0,1,.93.24l.9.32c.28.1.56.19.83.31C195.71,3.54,196.46,3.85,196.3,3.62Z"/><path class="cls-2" d="M44.41,3.62a.66.66,0,0,1,.17-.14c.15-.09.36-.19.47-.25l.85-.42.71-.33.73-.26c.34-.09.66-.2,1-.3l.4-.09.38-.09.38-.08.09,0c.39-.06.59-.07.79-.09a7.77,7.77,0,0,1,.78-.06h.94l.46,0,.46.06a8.68,8.68,0,0,1,.89.14,6.68,6.68,0,0,1,.78.13,9.71,9.71,0,0,1,2.77.86.17.17,0,0,1-.08.21,2.4,2.4,0,0,1-.51-.07c-.55-.11-1.12-.32-1.68-.43l-.21,0a6.51,6.51,0,0,0-2-.2h-.06c-.43,0-.85,0-1.27,0s-.85.05-1.26.11l-.39,0-.38,0-.47.05-.47.06c-.32,0-.62.09-.94.15a7.32,7.32,0,0,0-.92.24l-.9.32c-.28.1-.56.19-.83.31C45,3.54,44.25,3.85,44.41,3.62Z"/><path class="cls-2" d="M196.11,5.43a.47.47,0,0,0-.1-.18,2.93,2.93,0,0,0-.4-.35,4.38,4.38,0,0,0-.81-.47A5.65,5.65,0,0,0,193.36,4q-.5-.09-1-.21L192,3.68l-.73-.14h-.09c-.74-.1-.74-.1-1.49-.17a15.05,15.05,0,0,0-1.78-.06l-.87.05a6.31,6.31,0,0,0-.76.07c-.46.09-.93.13-1.4.24a4.07,4.07,0,0,0-.68.2l-.17.07L184,4l-.09.06a.46.46,0,0,0-.13.18c0,.06,0,.14,0,.19s.15,0,.2,0a.21.21,0,0,1,.07-.07h.14a16.23,16.23,0,0,1,1.6-.38l.2,0a5.77,5.77,0,0,1,1.9,0h.07c.82,0,1.64.16,2.45.27l.76.08c.61.06,1.23.09,1.84.14a8.09,8.09,0,0,1,1.78.41,3.34,3.34,0,0,1,.74.35c.05,0,.22.14.37.24S196.14,5.57,196.11,5.43Z"/><path class="cls-2" d="M44.59,5.43a.51.51,0,0,1,.11-.18,2.44,2.44,0,0,1,.4-.35,4.08,4.08,0,0,1,.81-.47A5.65,5.65,0,0,1,47.35,4c.33-.06.64-.13,1-.21l.39-.07.72-.14h.09c.75-.1.75-.1,1.5-.17a14.89,14.89,0,0,1,1.77-.06l.88.05a6.51,6.51,0,0,1,.76.07c.46.09.93.13,1.4.24a4.07,4.07,0,0,1,.68.2l.16.07.08,0,.1.06a.44.44,0,0,1,.12.18.17.17,0,0,1,0,.19c-.14,0-.16,0-.2,0s0,0-.07-.07h-.14C56,4.2,55.48,4,54.94,3.94l-.21,0a5.76,5.76,0,0,0-1.9,0h-.06c-.82,0-1.64.16-2.46.27l-.75.08c-.62.06-1.23.09-1.84.14a8,8,0,0,0-1.78.41,3.34,3.34,0,0,0-.74.35,3.43,3.43,0,0,0-.37.24C44.69,5.49,44.56,5.57,44.59,5.43Z"/><path class="cls-2" d="M196.18,7a.62.62,0,0,0-.17-.12c-.16-.08-.37-.15-.48-.2l-.84-.37a11.75,11.75,0,0,0-1.39-.54l-.94-.31L192,5.32l-.72-.21-.09,0c-.74-.15-.74-.15-1.49-.28a11.85,11.85,0,0,0-1.78-.13,8.55,8.55,0,0,0-.88,0,6.34,6.34,0,0,0-.76,0c-.47.08-.94.11-1.41.2a3.19,3.19,0,0,0-1.32.49.16.16,0,0,0,.09.21,3.09,3.09,0,0,0,.48-.07c.52-.09,1.08-.27,1.62-.32h.2a5.57,5.57,0,0,1,1.91,0h.06a18.11,18.11,0,0,1,2.43.4l.75.14c.6.12,1.21.2,1.81.32s1.19.35,1.79.52c.28.08.55.16.82.26C195.61,6.94,196.35,7.18,196.18,7Z"/><path class="cls-2" d="M44.53,7a.5.5,0,0,1,.17-.12c.16-.08.37-.15.48-.2L46,6.28a11.11,11.11,0,0,1,1.39-.54l.94-.31.38-.11.72-.21.09,0L51,4.81a11.88,11.88,0,0,1,1.79-.13,8.68,8.68,0,0,1,.88,0,6.45,6.45,0,0,1,.76,0c.46.08.94.11,1.41.2a3.19,3.19,0,0,1,1.32.49.18.18,0,0,1-.09.21,3.09,3.09,0,0,1-.48-.07c-.52-.09-1.08-.27-1.62-.32h-.21a5.52,5.52,0,0,0-1.9,0h-.06a18.52,18.52,0,0,0-2.44.4l-.74.14c-.61.12-1.21.2-1.82.32s-1.19.35-1.78.52c-.28.08-.55.16-.83.26C45.1,6.94,44.35,7.18,44.53,7Z"/><path class="cls-2" d="M195.81,9.3a.79.79,0,0,0-.16-.14,4.07,4.07,0,0,0-.44-.27l-.8-.46-.66-.36a7.17,7.17,0,0,0-.69-.3c-.32-.11-.63-.23-.93-.35l-.39-.11-.36-.12-.36-.1-.09,0a7.23,7.23,0,0,0-.75-.14c-.19,0-.37-.07-.75-.11l-.45,0-.45,0h-.45l-.45,0c-.29,0-.58,0-.87.08a6.31,6.31,0,0,0-.76.08,9.41,9.41,0,0,0-2.74.62.18.18,0,0,0,.07.22,2.2,2.2,0,0,0,.5,0c.53-.06,1.1-.22,1.65-.29l.2,0a6.5,6.5,0,0,1,1.92-.06h.06c.41,0,.82,0,1.22.08s.81.12,1.21.2l.37.06.37.07.45.08.45.08c.3,0,.6.12.89.19a6.51,6.51,0,0,1,.88.3l.85.35c.26.12.53.22.79.35C195.24,9.2,196,9.53,195.81,9.3Z"/><path class="cls-2" d="M44.9,9.3a.79.79,0,0,1,.16-.14,4.07,4.07,0,0,1,.44-.27l.79-.46L47,8.07a7.17,7.17,0,0,1,.69-.3c.32-.11.62-.23.93-.35L49,7.31l.36-.12.36-.1.09,0a7.23,7.23,0,0,1,.75-.14c.19,0,.38-.07.76-.11l.45,0,.45,0h.45l.45,0c.29,0,.58,0,.87.08a6.14,6.14,0,0,1,.75.08,9.34,9.34,0,0,1,2.74.62.18.18,0,0,1-.07.22,2.11,2.11,0,0,1-.49,0c-.54-.06-1.1-.22-1.65-.29l-.21,0a6.43,6.43,0,0,0-1.91-.06h-.06c-.41,0-.82,0-1.23.08s-.81.12-1.21.2l-.37.06-.36.07-.45.08L49,8c-.3,0-.6.12-.9.19a6.38,6.38,0,0,0-.87.3l-.86.35c-.26.12-.52.22-.78.35C45.47,9.2,44.76,9.53,44.9,9.3Z"/><path class="cls-2" d="M194.37,11.2a.38.38,0,0,0-.13-.12c-.13-.09-.3-.18-.4-.24l-.69-.4-.58-.32L192,9.85a7.18,7.18,0,0,1-.81-.32l-.34-.1-.63-.21-.07,0-.66-.14L188.79,9c-.26,0-.53-.06-.79-.07h-.79c-.26,0-.51,0-.77,0a4.78,4.78,0,0,0-.66,0,8.32,8.32,0,0,0-2.44.41.2.2,0,0,0,0,.22,1.59,1.59,0,0,0,.44,0c.47,0,1-.13,1.46-.16h.18a5.56,5.56,0,0,1,1.68,0h.06a12.74,12.74,0,0,1,2.13.32l.64.13.79.15a6.93,6.93,0,0,1,.79.17,7.66,7.66,0,0,1,.77.25c.25.11.49.22.75.31s.47.19.69.3S194.49,11.42,194.37,11.2Z"/><path class="cls-2" d="M46.33,11.2a.58.58,0,0,1,.14-.12l.39-.24.7-.4.58-.32.61-.27c.27-.09.54-.2.81-.32l.34-.1.62-.21.08,0,.66-.14L51.92,9c.26,0,.52-.06.79-.07h.79c.25,0,.51,0,.76,0a4.83,4.83,0,0,1,.67,0,8.2,8.2,0,0,1,2.43.41.17.17,0,0,1,0,.22,1.5,1.5,0,0,1-.43,0c-.48,0-1-.13-1.46-.16h-.19a5.57,5.57,0,0,0-1.68,0h-.06a12.78,12.78,0,0,0-2.12.32l-.65.13-.78.15a6.93,6.93,0,0,0-.79.17,6.3,6.3,0,0,0-.77.25c-.25.11-.5.22-.75.31s-.47.19-.7.3S46.21,11.42,46.33,11.2Z"/><path class="cls-2" d="M195.75,12.6a.8.8,0,0,0-.16-.13l-.45-.23-.79-.39-.66-.31-.68-.26c-.32-.09-.62-.19-.92-.3l-.37-.1-.35-.1-.35-.09-.09,0c-.36-.07-.55-.09-.73-.12l-.73-.09a8.46,8.46,0,0,0-.87-.05h-.44l-.43,0c-.28,0-.57,0-.85.07a6,6,0,0,0-.73.07,9.65,9.65,0,0,0-2.67.52.17.17,0,0,0,.06.22,2.56,2.56,0,0,0,.48,0c.52,0,1.08-.18,1.61-.23l.2,0a6.82,6.82,0,0,1,1.86,0h.07a14.44,14.44,0,0,1,2.36.26l.72.1.88.14a8.5,8.5,0,0,1,.88.15,6.46,6.46,0,0,1,.86.24l.85.3.78.28C195.2,12.55,195.9,12.82,195.75,12.6Z"/><path class="cls-2" d="M45,12.6a.8.8,0,0,1,.16-.13l.45-.23.8-.39.66-.31.68-.26c.31-.09.61-.19.92-.3l.37-.1.35-.1.35-.09.09,0c.36-.07.54-.09.73-.12l.73-.09a8.46,8.46,0,0,1,.87-.05h.43l.44,0c.28,0,.56,0,.84.07a6,6,0,0,1,.74.07,9.65,9.65,0,0,1,2.67.52.19.19,0,0,1-.06.22,2.56,2.56,0,0,1-.48,0c-.53,0-1.08-.18-1.61-.23l-.21,0A6.81,6.81,0,0,0,53,11H53a14.44,14.44,0,0,0-2.37.26l-.72.1-.87.14a8.5,8.5,0,0,0-.88.15,6.59,6.59,0,0,0-.87.24l-.84.3c-.26.09-.53.18-.78.28S44.8,12.82,45,12.6Z"/><path class="cls-2" d="M194.54,14a.48.48,0,0,0-.15-.11l-.44-.18-.75-.33a10.5,10.5,0,0,0-1.24-.53c-.28-.09-.56-.2-.84-.31l-.34-.11-.64-.21-.08,0c-.66-.16-.67-.16-1.34-.28a8.94,8.94,0,0,0-1.63-.11l-.79,0a5.2,5.2,0,0,0-.69.06c-.42.08-.84.11-1.27.18a3,3,0,0,0-1.2.43.19.19,0,0,0,.08.21,2.32,2.32,0,0,0,.44,0c.48-.06,1-.22,1.47-.27l.19,0a4.91,4.91,0,0,1,1.71,0h.06a12.4,12.4,0,0,1,2.18.36l.66.14c.54.12,1.09.2,1.63.33s1.07.34,1.61.51l.75.22C194,14,194.7,14.2,194.54,14Z"/><path class="cls-2" d="M46.16,14a.55.55,0,0,1,.16-.11c.14-.07.33-.13.43-.18l.75-.33a10.65,10.65,0,0,1,1.25-.53c.28-.09.56-.2.83-.31l.34-.11.64-.21.08,0c.67-.16.67-.16,1.35-.28a8.83,8.83,0,0,1,1.62-.11l.8,0a5.36,5.36,0,0,1,.69.06c.41.08.84.11,1.27.18a2.94,2.94,0,0,1,1.19.43.17.17,0,0,1-.08.21,2.32,2.32,0,0,1-.44,0c-.47-.06-1-.22-1.47-.27l-.18,0a5,5,0,0,0-1.72,0h-.06a12.29,12.29,0,0,0-2.17.36l-.67.14c-.54.12-1.08.2-1.63.33s-1.06.34-1.6.51l-.75.22C46.69,14,46,14.2,46.16,14Z"/><path class="cls-2" d="M194.83,16.69a.5.5,0,0,0-.17-.12l-.45-.21-.8-.36-.65-.29c-.22-.08-.45-.17-.68-.24s-.6-.19-.9-.3l-.36-.09-.69-.2-.09,0c-.35-.08-.53-.11-.71-.14l-.71-.11a6.27,6.27,0,0,0-.86-.09c-.28,0-.56,0-.85,0h-.83a5.93,5.93,0,0,0-.73,0,10.83,10.83,0,0,0-2.67.22.18.18,0,0,0,0,.22,1.78,1.78,0,0,0,.47.06c.52,0,1.09-.05,1.62-.05h.2a7.13,7.13,0,0,1,1.84.12h.06a20.18,20.18,0,0,1,2.33.37l.71.13c.58.1,1.16.17,1.74.29a8.37,8.37,0,0,1,.86.23l.84.27.79.25C194.27,16.66,195,16.9,194.83,16.69Z"/><path class="cls-2" d="M45.88,16.69a.55.55,0,0,1,.16-.12c.15-.08.35-.16.46-.21l.79-.36.66-.29c.22-.08.44-.17.68-.24l.9-.3.36-.09.69-.2.08,0,.71-.14.72-.11a6.13,6.13,0,0,1,.85-.09c.29,0,.57,0,.86,0h.83a5.74,5.74,0,0,1,.72,0,10.83,10.83,0,0,1,2.67.22.17.17,0,0,1,0,.22,1.8,1.8,0,0,1-.48.06C57,15,56.44,15,55.91,15h-.2a7.1,7.1,0,0,0-1.84.12h-.06a20.18,20.18,0,0,0-2.33.37l-.71.13c-.58.1-1.16.17-1.74.29a7.74,7.74,0,0,0-.86.23c-.28.09-.56.19-.85.27l-.78.25C46.43,16.66,45.72,16.9,45.88,16.69Z"/><path class="cls-2" d="M195,18.12a.43.43,0,0,0-.18-.1c-.16-.06-.37-.11-.48-.15l-.84-.28c-.46-.16-.9-.33-1.38-.45a8.89,8.89,0,0,1-.92-.26l-.38-.09-.69-.19H190l-.72-.14-.73-.11a8.55,8.55,0,0,0-.87-.09q-.43,0-.87,0c-.28,0-.56,0-.84,0a6.06,6.06,0,0,0-.74,0,9.77,9.77,0,0,0-2.71.33.16.16,0,0,0,0,.22,1.85,1.85,0,0,0,.48,0c.53,0,1.09-.1,1.63-.11h.2a6.9,6.9,0,0,1,1.87.1h.06a21.39,21.39,0,0,1,2.38.37l.73.12c.59.1,1.19.17,1.78.26s1.18.28,1.78.4c.27.06.55.11.82.18C194.39,18.16,195.15,18.31,195,18.12Z"/><path class="cls-2" d="M45.75,18.12a.61.61,0,0,1,.18-.1c.16-.06.37-.11.49-.15l.84-.28c.46-.16.9-.33,1.38-.45.31-.07.62-.16.92-.26l.37-.09.7-.19h.09l.72-.14.73-.11a8.36,8.36,0,0,1,.86-.09q.44,0,.87,0c.29,0,.57,0,.85,0a6.06,6.06,0,0,1,.74,0,9.82,9.82,0,0,1,2.71.33.17.17,0,0,1,0,.22,1.88,1.88,0,0,1-.48,0c-.53,0-1.1-.1-1.63-.11h-.21a6.84,6.84,0,0,0-1.86.1h-.07a20.86,20.86,0,0,0-2.37.37l-.73.12c-.59.1-1.19.17-1.78.26s-1.18.28-1.78.4c-.27.06-.55.11-.82.18C46.31,18.16,45.56,18.31,45.75,18.12Z"/><path class="cls-2" d="M194.16,20.33a.5.5,0,0,0-.17-.13c-.15-.08-.35-.16-.46-.21l-.81-.38-.68-.3a7,7,0,0,0-.69-.25c-.32-.09-.62-.19-.93-.3l-.38-.09-.7-.2h-.09c-.37-.08-.55-.1-.74-.13l-.74-.1a8.48,8.48,0,0,0-.87-.06c-.3,0-.59,0-.88,0s-.57,0-.86,0-.51,0-.74,0a11.25,11.25,0,0,0-2.72.41.17.17,0,0,0,0,.22,2.57,2.57,0,0,0,.49,0c.53,0,1.11-.13,1.64-.15h.21a6.65,6.65,0,0,1,1.89,0H186a19.19,19.19,0,0,1,2.4.3l.73.11.89.14c.3,0,.6.09.89.15a8.75,8.75,0,0,1,.88.23l.87.29.8.27C193.59,20.29,194.32,20.54,194.16,20.33Z"/><path class="cls-2" d="M46.55,20.33a.56.56,0,0,1,.16-.13c.15-.08.36-.16.46-.21l.82-.38.67-.3c.23-.09.46-.18.7-.25s.62-.19.92-.3l.38-.09.71-.2h.09c.36-.08.55-.1.73-.13l.74-.1a8.67,8.67,0,0,1,.88-.06c.29,0,.59,0,.88,0s.57,0,.85,0,.52,0,.75,0a11.33,11.33,0,0,1,2.72.41.16.16,0,0,1,0,.22,2.46,2.46,0,0,1-.48,0c-.54,0-1.11-.13-1.65-.15h-.2a6.65,6.65,0,0,0-1.89,0h-.07a19.27,19.27,0,0,0-2.39.3l-.73.11-.9.14-.89.15a8.75,8.75,0,0,0-.88.23L48,20c-.27.09-.54.17-.8.27S46.38,20.54,46.55,20.33Z"/><path class="cls-2" d="M195.61,23.16a.79.79,0,0,0-.19-.15l-.51-.26L194,22.3l-.75-.34c-.26-.11-.52-.21-.79-.3l-1-.35L191,21.2l-.4-.12-.4-.1-.1,0c-.41-.09-.62-.12-.83-.15s-.42-.07-.83-.11-.66-.07-1-.08h-1c-.32,0-.64,0-1,.05a5.83,5.83,0,0,0-.84.06,11.67,11.67,0,0,0-3.06.51.14.14,0,0,0,0,.21,2,2,0,0,0,.55,0c.6,0,1.24-.17,1.85-.22h.23a8.07,8.07,0,0,1,2.14,0h.07c.45,0,.91.06,1.36.11s.9.12,1.35.21l.41.06.41.08.5.08.5.09c.34,0,.67.12,1,.19a10.31,10.31,0,0,1,1,.29l1,.35c.3.11.6.21.89.33C195,23.07,195.79,23.39,195.61,23.16Z"/><path class="cls-2" d="M45.1,23.16a.63.63,0,0,1,.19-.15l.51-.26.91-.45.75-.34c.26-.11.51-.21.78-.3s.7-.23,1-.35l.43-.11.4-.12.4-.1.1,0c.41-.09.62-.12.83-.15s.41-.07.83-.11.66-.07,1-.08h1c.32,0,.65,0,1,.05a5.69,5.69,0,0,1,.83.06,11.67,11.67,0,0,1,3.07.51.15.15,0,0,1,0,.21,2,2,0,0,1-.55,0c-.6,0-1.25-.17-1.85-.22h-.24a8,8,0,0,0-2.13,0h-.07c-.46,0-.91.06-1.36.11s-.9.12-1.35.21l-.41.06-.41.08-.51.08-.5.09c-.33,0-.66.12-1,.19s-.66.19-1,.29l-1,.35c-.3.11-.6.21-.89.33C45.73,23.07,44.92,23.39,45.1,23.16Z"/><path class="cls-2" d="M193.24,24.27a.29.29,0,0,0-.12-.13,3.14,3.14,0,0,0-.34-.22l-.61-.4-.5-.31a4.53,4.53,0,0,0-.54-.27l-.71-.32-.3-.11-.55-.22-.07,0-.59-.15-.59-.13a5.59,5.59,0,0,0-.7-.09,5.74,5.74,0,0,0-.71,0c-.23,0-.46,0-.69,0s-.42,0-.6,0a7.45,7.45,0,0,0-2.21.28.2.2,0,0,0,0,.22,1.61,1.61,0,0,0,.39,0c.43,0,.89-.07,1.32-.07h.16a4.52,4.52,0,0,1,1.51.11h0a11.83,11.83,0,0,1,1.88.39l.58.14c.46.11.93.2,1.4.34a5,5,0,0,1,.68.25l.66.31.61.28C192.78,24.21,193.33,24.47,193.24,24.27Z"/><path class="cls-2" d="M47.47,24.27a.33.33,0,0,1,.11-.13,3.16,3.16,0,0,1,.35-.22l.6-.4.51-.31a5.28,5.28,0,0,1,.53-.27c.25-.1.49-.21.72-.32l.3-.11.55-.22.07,0,.58-.15.59-.13a5.74,5.74,0,0,1,.71-.09,5.53,5.53,0,0,1,.71,0c.23,0,.46,0,.69,0s.41,0,.6,0a7.38,7.38,0,0,1,2.2.28.2.2,0,0,1,0,.22,1.56,1.56,0,0,1-.39,0c-.42,0-.88-.07-1.31-.07h-.17a4.48,4.48,0,0,0-1.5.11h-.05a12.19,12.19,0,0,0-1.89.39l-.57.14c-.47.11-.94.2-1.4.34a5,5,0,0,0-.68.25l-.67.31-.61.28C47.93,24.21,47.37,24.47,47.47,24.27Z"/><path class="cls-2" d="M168.7,4.14a.16.16,0,0,0,.07.09l.21.06.35.17a4.11,4.11,0,0,0,.56.27,1.08,1.08,0,0,1,.38.17l.15,0,.27.14h0l.58.18a4.16,4.16,0,0,0,.72.13l.36,0c.1,0,.2.07.3.07a.91.91,0,0,1,.53.17l.19.11a2,2,0,0,1,.22.13.48.48,0,0,0,.29-.07s0-.09,0-.16a.5.5,0,0,0,0-.19.73.73,0,0,0-.37-.35,3.15,3.15,0,0,0-.39-.14l-.08,0a1.55,1.55,0,0,1-.76-.32h0c-.33-.11-.65-.27-1-.41L171,4.17a4.25,4.25,0,0,0-.8,0c-.27,0-.51-.12-.78-.14-.12,0-.25,0-.37,0S168.63,4,168.7,4.14Z"/><path class="cls-2" d="M72,4.14a.18.18,0,0,1-.08.09c-.06,0-.15,0-.2.06l-.35.17a4.23,4.23,0,0,1-.57.27,1.12,1.12,0,0,0-.37.17l-.15,0a1.71,1.71,0,0,0-.27.14h0l-.58.18a4.34,4.34,0,0,1-.72.13l-.36,0a2.82,2.82,0,0,1-.31.07.9.9,0,0,0-.52.17l-.2.11c-.05,0-.12.06-.21.13a.51.51,0,0,1-.3-.07.21.21,0,0,1,0-.16.71.71,0,0,1,.43-.54A3.79,3.79,0,0,1,67.56,5l.09,0a1.59,1.59,0,0,0,.76-.32h0c.34-.11.66-.27,1-.41l.31-.07a4.35,4.35,0,0,1,.81,0c.27,0,.51-.12.78-.14s.24,0,.36,0S72.07,4,72,4.14Z"/><path class="cls-2" d="M168.6,5.86a.27.27,0,0,0,.08.07c.07,0,.16,0,.21,0l.37.1a2.66,2.66,0,0,0,.59.18,1.6,1.6,0,0,1,.39.11l.16,0a1.33,1.33,0,0,1,.28.1h0l.59.1a4.05,4.05,0,0,0,.7,0h.35c.1,0,.2,0,.3,0a1.11,1.11,0,0,1,.54.14l.27.09h.11a.3.3,0,0,1,.1,0,.76.76,0,0,0,.26-.18.18.18,0,0,0,0-.17.52.52,0,0,0-.11-.15l-.11-.08-.09,0a.49.49,0,0,0-.17-.06l-.36-.1-.08,0a1.53,1.53,0,0,1-.79-.27h0c-.35-.08-.68-.2-1-.28a1.84,1.84,0,0,0-.33,0,4.22,4.22,0,0,0-.79.07c-.27,0-.52,0-.78,0l-.36,0S168.51,5.67,168.6,5.86Z"/><path class="cls-2" d="M72.11,5.86a.22.22,0,0,1-.09.07c-.07,0-.16,0-.21,0l-.36.1a2.59,2.59,0,0,1-.6.18,1.9,1.9,0,0,0-.39.11l-.15,0a1.66,1.66,0,0,0-.29.1h0l-.59.1a4.17,4.17,0,0,1-.71,0h-.35a2.68,2.68,0,0,1-.3,0,1.11,1.11,0,0,0-.54.14,1.07,1.07,0,0,1-.27.09h-.1L67,7a.74.74,0,0,1-.25-.18.2.2,0,0,1,0-.17.76.76,0,0,1,.12-.15L67,6.37l.08,0a.64.64,0,0,1,.18-.06l.35-.1.09,0a1.56,1.56,0,0,0,.79-.27h0c.34-.08.68-.2,1-.28a1.73,1.73,0,0,1,.32,0,4.33,4.33,0,0,1,.8.07c.26,0,.52,0,.78,0l.36,0C71.87,5.62,72.2,5.67,72.11,5.86Z"/><path class="cls-2" d="M168.42,7.72s0,0,.08.07a1.62,1.62,0,0,0,.2,0l.35.11a3,3,0,0,0,.56.18,1.58,1.58,0,0,1,.37.11l.15,0a1.48,1.48,0,0,1,.27.1h0l.57.1a3.84,3.84,0,0,0,.68,0H172a1.37,1.37,0,0,0,.29,0,1,1,0,0,1,.53.1.87.87,0,0,0,.54.05.76.76,0,0,0,.15-.26c0-.06-.12-.19-.15-.21-.2-.19-.48-.17-.7-.23l-.08,0a1.52,1.52,0,0,1-.76-.22h0c-.33-.07-.65-.18-1-.26l-.31,0a3.91,3.91,0,0,0-.76.07c-.26,0-.5,0-.75,0l-.35,0C168.64,7.48,168.33,7.53,168.42,7.72Z"/><path class="cls-2" d="M72.29,7.72a.27.27,0,0,1-.08.07l-.2,0-.35.11a2.9,2.9,0,0,1-.57.18,1.5,1.5,0,0,0-.36.11l-.15,0a1.33,1.33,0,0,0-.28.1h0l-.57.1a3.92,3.92,0,0,1-.69,0h-.34a1.46,1.46,0,0,1-.29,0,1,1,0,0,0-.53.1.88.88,0,0,1-.54.05.76.76,0,0,1-.15-.26c0-.06.12-.19.15-.21.2-.19.48-.17.7-.23l.08,0a1.45,1.45,0,0,0,.75-.22h0c.33-.07.65-.18,1-.26l.31,0a4,4,0,0,1,.76.07c.25,0,.5,0,.75,0l.35,0S72.38,7.53,72.29,7.72Z"/><path class="cls-2" d="M167.34,9.39a.14.14,0,0,0,.1.07h.24a3.15,3.15,0,0,1,.42.09,4.23,4.23,0,0,0,.68.17,1.77,1.77,0,0,1,.44.11l.17,0a1.8,1.8,0,0,1,.33.1h0l.69.11a4.46,4.46,0,0,0,.82.05h.4c.11,0,.22.05.34,0a1.27,1.27,0,0,1,.6.18,1.17,1.17,0,0,0,.64.15.57.57,0,0,0,.15-.26s-.12-.2-.15-.23a1.94,1.94,0,0,0-.79-.35l-.1,0a2.52,2.52,0,0,1-.92-.28h0c-.4-.08-.78-.2-1.17-.3l-.36,0a5.57,5.57,0,0,0-.91.06c-.31,0-.6,0-.91,0l-.42.05S167.21,9.22,167.34,9.39Z"/><path class="cls-2" d="M73.37,9.39a.17.17,0,0,1-.1.07H73a3.15,3.15,0,0,0-.42.09,4.11,4.11,0,0,1-.67.17,1.67,1.67,0,0,0-.44.11l-.18,0A1.7,1.7,0,0,0,71,10h0l-.68.11a4.52,4.52,0,0,1-.82.05H69c-.11,0-.23.05-.34,0a1.31,1.31,0,0,0-.61.18,1.15,1.15,0,0,1-.63.15.6.6,0,0,1-.16-.26s.13-.2.16-.23a1.88,1.88,0,0,1,.79-.35l.1,0a2.52,2.52,0,0,0,.92-.28h0c.4-.08.77-.2,1.16-.3l.37,0a5.64,5.64,0,0,1,.91.06c.3,0,.6,0,.9,0l.42.05C73.12,9.13,73.5,9.22,73.37,9.39Z"/><path class="cls-2" d="M167.3,11.24a.11.11,0,0,0,.08.07c.07,0,.17,0,.22,0l.38.11a2.36,2.36,0,0,0,.62.2,1.42,1.42,0,0,1,.4.12l.17,0,.3.1h0l.62.09a3.84,3.84,0,0,0,.76,0l.37,0a1.77,1.77,0,0,0,.32,0,1.36,1.36,0,0,1,.6.07l.14,0h.11a.42.42,0,0,1,.21.06.49.49,0,0,0,.26-.16.19.19,0,0,0,0-.18.47.47,0,0,0-.11-.16.6.6,0,0,0-.25-.15l-.12,0h-.09l-.37,0-.09,0a1.52,1.52,0,0,1-.83-.2h0c-.35-.06-.7-.17-1.06-.25l-.33,0a4.54,4.54,0,0,0-.82.07c-.28,0-.54-.06-.81,0l-.38,0S167.21,11.05,167.3,11.24Z"/><path class="cls-2" d="M73.41,11.24a.18.18,0,0,1-.08.07c-.08,0-.17,0-.22,0l-.38.11a2.49,2.49,0,0,1-.62.2,1.59,1.59,0,0,0-.41.12l-.16,0-.3.1h0l-.63.09a3.74,3.74,0,0,1-.75,0l-.38,0a1.67,1.67,0,0,1-.32,0,1.3,1.3,0,0,0-.59.07l-.14,0h-.11a.46.46,0,0,0-.22.06.57.57,0,0,1-.26-.16.23.23,0,0,1,0-.18.47.47,0,0,1,.11-.16.63.63,0,0,1,.26-.15.56.56,0,0,1,.12,0h.09l.37,0,.09,0a1.49,1.49,0,0,0,.82-.2h0c.36-.06.71-.17,1.06-.25l.34,0a4.62,4.62,0,0,1,.82.07c.27,0,.53-.06.81,0l.38,0S73.5,11.05,73.41,11.24Z"/><path class="cls-2" d="M166.93,13.09a.22.22,0,0,0,.09.07,1,1,0,0,0,.23,0l.4.11a4.28,4.28,0,0,0,.66.17,2.36,2.36,0,0,1,.44.11l.17,0a3,3,0,0,1,.32.09h0l.67.07a4.18,4.18,0,0,0,.79,0l.4,0c.1,0,.23,0,.34,0a1.62,1.62,0,0,1,.62.06,1.09,1.09,0,0,0,.29,0h.12a.17.17,0,0,1,.12,0,.71.71,0,0,0,.24-.2.23.23,0,0,0,0-.18.51.51,0,0,0-.15-.15,1,1,0,0,0-.46-.14l-.39,0-.09,0a1.69,1.69,0,0,1-.88-.17h0c-.38-.06-.75-.15-1.13-.23h-.35a4.92,4.92,0,0,0-.86.09c-.29,0-.57,0-.86,0l-.39,0C167.18,12.85,166.82,12.91,166.93,13.09Z"/><path class="cls-2" d="M73.78,13.09a.22.22,0,0,1-.09.07,1.11,1.11,0,0,1-.23,0l-.41.11a3.76,3.76,0,0,1-.66.17,2.26,2.26,0,0,0-.43.11l-.17,0-.33.09h0l-.66.07a4.29,4.29,0,0,1-.8,0l-.39,0c-.11,0-.23,0-.34,0a1.67,1.67,0,0,0-.63.06,1,1,0,0,1-.29,0H68.2a.17.17,0,0,0-.12,0,.56.56,0,0,1-.24-.2.19.19,0,0,1,0-.18.7.7,0,0,1,.14-.15.67.67,0,0,1,.27-.11.63.63,0,0,1,.19,0c.14,0,.27,0,.4,0l.09,0a1.69,1.69,0,0,0,.88-.17h0c.38-.06.75-.15,1.13-.23h.35a5.13,5.13,0,0,1,.86.09c.29,0,.57,0,.85,0l.4,0C73.53,12.85,73.89,12.91,73.78,13.09Z"/><path class="cls-2" d="M166.93,14.59a.18.18,0,0,0,.09.08c.07,0,.17,0,.22.05s.27.07.4.12a3,3,0,0,0,.64.21,1.69,1.69,0,0,1,.42.13l.17,0a1.6,1.6,0,0,1,.31.1h0l.65.11a4.15,4.15,0,0,0,.79,0h.39c.11,0,.23,0,.33,0a1.44,1.44,0,0,1,.62.09l.27.06a2.33,2.33,0,0,0,.29,0,.43.43,0,0,0,.21-.21s0-.09-.06-.15l-.12-.13a.77.77,0,0,0-.43-.18c-.14,0-.27,0-.39-.06l-.1,0a1.71,1.71,0,0,1-.85-.22h0c-.37-.07-.73-.19-1.1-.28l-.35,0a6.06,6.06,0,0,0-.85.05c-.29,0-.56-.06-.85-.06-.13,0-.26,0-.39,0S166.84,14.41,166.93,14.59Z"/><path class="cls-2" d="M73.78,14.59a.18.18,0,0,1-.09.08c-.08,0-.17,0-.23.05l-.39.12a3.19,3.19,0,0,1-.64.21,1.47,1.47,0,0,0-.42.13l-.17,0a2,2,0,0,0-.32.1h0l-.65.11a4,4,0,0,1-.78,0h-.39c-.11,0-.23,0-.34,0a1.4,1.4,0,0,0-.61.09l-.27.06a2.51,2.51,0,0,1-.3,0,.47.47,0,0,1-.21-.21s0-.09.07-.15a.81.81,0,0,1,.12-.13.77.77,0,0,1,.43-.18c.14,0,.26,0,.39-.06l.09,0a1.75,1.75,0,0,0,.86-.22h0c.37-.07.73-.19,1.1-.28l.34,0a6.2,6.2,0,0,1,.86.05c.29,0,.56-.06.84-.06.13,0,.27,0,.4,0S73.87,14.41,73.78,14.59Z"/><path class="cls-2" d="M166.45,16.36s.05.06.08.08a1.67,1.67,0,0,0,.24.06l.42.14a3.49,3.49,0,0,0,.69.23,1.91,1.91,0,0,1,.45.13l.18,0a1.93,1.93,0,0,1,.34.11h0l.71.1a6,6,0,0,0,.85,0l.41,0a2.16,2.16,0,0,0,.36,0,1.68,1.68,0,0,1,.67.05,1.83,1.83,0,0,0,.33,0h.1c0-.12,0,0,0-.06h0v0h0l0,0h0l0,0s0,0,0,0a.57.57,0,0,1,0,.14.13.13,0,0,0,.05.06.09.09,0,0,0,.11,0,.54.54,0,0,0,.08-.08.32.32,0,0,0,0-.09.38.38,0,0,0,0-.1.54.54,0,0,0-.1-.24.53.53,0,0,0-.14-.12l-.09,0h-.05a3.08,3.08,0,0,0-.8-.1l-.1,0a2,2,0,0,1-.92-.16h0c-.39-.06-.78-.16-1.17-.24l-.36,0a6.79,6.79,0,0,0-.9,0c-.31,0-.59-.08-.89-.08h-.42S166.35,16.17,166.45,16.36Z"/><path class="cls-2" d="M74.26,16.36a.18.18,0,0,1-.09.08,1.4,1.4,0,0,1-.24.06l-.42.14a3.2,3.2,0,0,1-.68.23,1.67,1.67,0,0,0-.45.13l-.19,0a2.67,2.67,0,0,0-.34.11h0c-.35.06-.35.05-.7.1a6,6,0,0,1-.85,0l-.42,0a2.16,2.16,0,0,1-.36,0,1.64,1.64,0,0,0-.66.05,1.88,1.88,0,0,1-.34,0h-.09c0-.12,0,0,0-.06h0v0h0l0,0h0l0,0s0,0,0,0a1,1,0,0,1,0,.14s0,0,0,.06a.09.09,0,0,1-.11,0,.28.28,0,0,1-.08-.08.36.36,0,0,1,0-.09v-.1a.55.55,0,0,1,.09-.24.57.57,0,0,1,.15-.12l.09,0h0a3.15,3.15,0,0,1,.81-.1l.1,0a1.89,1.89,0,0,0,.91-.16h0c.39-.06.78-.16,1.17-.24l.36,0a6.79,6.79,0,0,1,.9,0c.3,0,.59-.08.89-.08h.41C74,16.15,74.35,16.17,74.26,16.36Z"/><path class="cls-2" d="M165.78,18.39a.14.14,0,0,0,.1.07,1.38,1.38,0,0,0,.26,0l.46.1a4.42,4.42,0,0,0,.74.16,1.63,1.63,0,0,1,.48.09l.2,0,.36.08h.05l.74,0a5.3,5.3,0,0,0,.89,0l.43-.05a2.38,2.38,0,0,0,.38,0c.48-.11.93.21,1.42-.06a.49.49,0,0,0,0-.29c0-.06-.2-.14-.24-.15a2.74,2.74,0,0,0-.86-.09l-.1,0a2.18,2.18,0,0,1-1-.13h0c-.42,0-.84-.12-1.26-.17h-.38a6,6,0,0,0-1,.12c-.32,0-.64,0-.95,0l-.44,0C166.06,18.15,165.66,18.21,165.78,18.39Z"/><path class="cls-2" d="M74.93,18.39a.17.17,0,0,1-.1.07,1.38,1.38,0,0,1-.26,0l-.46.1a4.89,4.89,0,0,1-.74.16,1.69,1.69,0,0,0-.49.09l-.19,0-.36.08h0l-.75,0a5.18,5.18,0,0,1-.88,0l-.44-.05a2.41,2.41,0,0,1-.38,0c-.47-.11-.92.21-1.41-.06a.49.49,0,0,1,0-.29c0-.06.2-.14.23-.15a2.77,2.77,0,0,1,.86-.09l.11,0a2.18,2.18,0,0,0,1-.13h0c.42,0,.84-.12,1.26-.17h.39a6.17,6.17,0,0,1,1,.12c.32,0,.63,0,1,0l.44,0C74.65,18.15,75.05,18.21,74.93,18.39Z"/><path class="cls-2" d="M166.45,20.16a.14.14,0,0,0,.1.05.81.81,0,0,0,.22,0l.38.07a4.27,4.27,0,0,0,.61.18,1.56,1.56,0,0,1,.4.13.51.51,0,0,1,.17,0l.31.1h0l.64.09a4.07,4.07,0,0,0,.78,0l.38,0a1.22,1.22,0,0,0,.33,0,1.59,1.59,0,0,1,.61,0,1,1,0,0,0,.29,0l.11,0H172a.48.48,0,0,0,.2-.22s0-.11-.06-.17a.47.47,0,0,0-.16-.12.86.86,0,0,0-.42-.1c-.13,0-.25,0-.37,0l-.09,0a1.52,1.52,0,0,1-.84-.15h0c-.36-.05-.71-.15-1.07-.23l-.33,0a5.76,5.76,0,0,0-.82.06c-.29,0-.56-.06-.85,0l-.4.07C166.65,19.88,166.3,20,166.45,20.16Z"/><path class="cls-2" d="M74.26,20.16a.14.14,0,0,1-.1.05.8.8,0,0,1-.22,0l-.38.07a4.69,4.69,0,0,1-.61.18,1.62,1.62,0,0,0-.41.13.45.45,0,0,0-.16,0l-.31.1h0l-.65.09a4,4,0,0,1-.77,0l-.38,0a1.22,1.22,0,0,1-.33,0,1.56,1.56,0,0,0-.61,0,1,1,0,0,1-.29,0l-.11,0h-.13a.56.56,0,0,1-.21-.22.21.21,0,0,1,.07-.17.58.58,0,0,1,.15-.12.9.9,0,0,1,.43-.1c.12,0,.25,0,.37,0l.09,0A1.55,1.55,0,0,0,70.5,20h0c.36-.05.72-.15,1.07-.23l.33,0a5.79,5.79,0,0,1,.83.06c.28,0,.56-.06.85,0l.4.07C74.06,19.88,74.41,20,74.26,20.16Z"/><path class="cls-2" d="M166.51,21.43a.22.22,0,0,0,.07.09,1,1,0,0,0,.2.07l.34.16a2.24,2.24,0,0,0,.57.26,2,2,0,0,1,.38.14l.15,0,.29.11h0l.6.09a3,3,0,0,0,.73,0l.36,0a1.61,1.61,0,0,0,.31,0c.38-.12.76.17,1.14-.13a.61.61,0,0,0,0-.3c0-.05-.17-.11-.19-.13a2.23,2.23,0,0,0-.68-.05h-.09a1.23,1.23,0,0,1-.77-.12h0a6.9,6.9,0,0,1-1-.22l-.3,0a6.56,6.56,0,0,0-.76,0c-.25,0-.49-.1-.74-.11l-.35,0C166.78,21.25,166.46,21.24,166.51,21.43Z"/><path class="cls-2" d="M74.19,21.43a.15.15,0,0,1-.06.09,1.65,1.65,0,0,1-.2.07l-.34.16A2.24,2.24,0,0,1,73,22a1.74,1.74,0,0,0-.38.14l-.16,0-.28.11h0l-.61.09a3,3,0,0,1-.73,0l-.35,0a1.58,1.58,0,0,1-.31,0c-.39-.12-.76.17-1.15-.13a.76.76,0,0,1,0-.3c0-.05.16-.11.19-.13a2.21,2.21,0,0,1,.68-.05H70a1.22,1.22,0,0,0,.77-.12h0a6.48,6.48,0,0,0,1-.22l.31,0a6.39,6.39,0,0,1,.75,0c.26,0,.49-.1.75-.11l.35,0S74.25,21.24,74.19,21.43Z"/><text class="cls-3" transform="translate(85.16 17.8)">Chat Room</text></g></g></svg>