<svg xmlns="http://www.w3.org/2000/svg" viewBox="0 0 202.99 42"><defs><style>.cls-1{fill:#fff3db;}.cls-2{fill:#423021;}.cls-3{font-size:14px;fill:#42210b;font-family:Papyrus-Regular, Papyrus;}</style></defs><g id="레이어_2" data-name="레이어 2"><g id="레이어_1-2" data-name="레이어 1"><path class="cls-1" d="M101.5,40.5c3.94-.15,9.48-.36,15.61-.66C124.28,39.48,132,39,139,38.43s12.57-1.24,16.48-1.93c1.7-.3,3-.58,3.92-.85,2.28-.65,2.74-1.17,2.84-1.35-.66-1-6.95-2.26-13.29-2.63-3-.17-4.75-1.14-4.74-2.59a1.36,1.36,0,0,1,0-.29l1.31-12.59c-9.63.91-23.66,1.79-44,2.61h0c-20.35-.82-34.38-1.7-44-2.61l1.31,12.59a1.36,1.36,0,0,1,0,.29c0,1.45-1.76,2.42-4.74,2.59-6.34.37-12.63,1.62-13.29,2.63.1.18.56.7,2.84,1.35,1,.27,2.22.55,3.92.85,3.91.69,9.45,1.34,16.48,1.93s14.7,1,21.87,1.41C92,40.14,97.55,40.35,101.5,40.5Z"/><path class="cls-1" d="M160.84,28.67c-8.83-2.27-13.85-1.11-14.93.15a.76.76,0,0,0-.1.14,1.29,1.29,0,0,0,0,.28,2.52,2.52,0,0,0,1.55.76,14.21,14.21,0,0,0,2,.24c1.11.08,10.07.71,13.23,2.49.12-1.25.24-2.42.35-3.53Z"/><path class="cls-1" d="M42.15,28.67C51,26.4,56,27.56,57.08,28.82a.76.76,0,0,1,.1.14,1.29,1.29,0,0,1,0,.28,2.52,2.52,0,0,1-1.55.76,14.1,14.1,0,0,1-2,.24c-1.12.08-10.08.71-13.24,2.49-.12-1.25-.24-2.42-.35-3.53Z"/><path class="cls-1" d="M147.94,5.89l-2.19,21.18a4.37,4.37,0,0,1,.49-.23l.06,0,.07,0A12.76,12.76,0,0,1,150,26h.18L151,26h1.62a39.49,39.49,0,0,1,8.65,1.34h0l1.66.38a77.54,77.54,0,0,0,9.33,1.79,20.64,20.64,0,0,0,3.89.13,13.56,13.56,0,0,0-2.3-.86c-3.32-1-3.77-2.34-3.74-3.07,0,0,0,0,0-.06v-.06L172,7.25c-3.27-.53-5.73-1.13-7.9-1.67-1.48-.36-2.87-.7-4.27-1-5.86-1-10.05-.39-11.46.67A1.05,1.05,0,0,0,147.94,5.89Z"/><path class="cls-1" d="M55.05,5.89l2.19,21.18a4.37,4.37,0,0,0-.49-.23l0,0-.08,0A12.76,12.76,0,0,0,53,26h-.18L52,26H50.39a39.58,39.58,0,0,0-8.65,1.34h0l-1.65.38a78.1,78.1,0,0,1-9.34,1.79,20.64,20.64,0,0,1-3.89.13,13.56,13.56,0,0,1,2.3-.86c3.32-1,3.77-2.34,3.74-3.07,0,0,0,0,0-.06v-.06L31,7.25c3.27-.53,5.73-1.13,7.9-1.67,1.48-.36,2.87-.7,4.27-1,5.86-1,10.05-.39,11.46.67A1,1,0,0,1,55.05,5.89Z"/><path class="cls-1" d="M171.86,25.4a.5.5,0,0,0-.19.23c0,.05,0,.08,0,.1h0a.6.6,0,0,0,.14.29v0l.06.06,0,0,.06.06,0,0,.08.08h0a5,5,0,0,0,1.13.65h0l.2.08.08,0,.17.07.09,0,.32.1.51.17a13.08,13.08,0,0,1,1.74.63,6.21,6.21,0,0,1,.63.29l.37-3.56C174.4,24.44,172.53,24.83,171.86,25.4Z"/><path class="cls-1" d="M31.13,25.4a.5.5,0,0,1,.19.23.46.46,0,0,1,0,.1h0a.6.6,0,0,1-.14.29v0l-.05.06,0,0L31,26.2l0,0-.08.08h0a5,5,0,0,1-1.13.65h0l-.2.08-.08,0-.17.07-.09,0-.32.1-.51.17a13.08,13.08,0,0,0-1.74.63,6.21,6.21,0,0,0-.63.29l-.36-3.56C28.59,24.44,30.46,24.83,31.13,25.4Z"/><path class="cls-2" d="M101.5,42h0c10-.36,24.63-1,37.2-2.08C162,38,163.18,35.83,163.63,35a1.37,1.37,0,0,0,.17-.75c.17-1.72.33-3.3.48-4.77A64.17,64.17,0,0,0,173.16,31c4,.34,4.76-.33,5-.95a1.05,1.05,0,0,0,0-.19l.5-4.85a34.13,34.13,0,0,1,6.4,1.89c5.08,2,11.66,5.26,14.21,9.55a.94.94,0,0,0,.6.55.68.68,0,0,0,.79-.85,4.9,4.9,0,0,0-.39-.9l-5.42-16.94,7.82-4.82a.66.66,0,0,0,.26-.84,7.45,7.45,0,0,0-.37-.69C198.13,4.82,180.75-1.16,174.85.19c-1.79.42-2.26,1.4-2.34,2.15l-.37,3.57c-3.18-.51-5.59-1.1-7.72-1.63-1.5-.37-2.91-.72-4.35-1-5.45-1-10.47-.6-12.5.92a2.19,2.19,0,0,0-1,1.52l-.94,9.09c-1.8.18-3.71.35-5.75.51-14,1.14-30.48,1.8-38.42,2.12-8-.32-24.44-1-38.43-2.12-2-.16-4-.33-5.75-.51l-.94-9.09a2.19,2.19,0,0,0-1-1.52c-2-1.52-7.05-1.9-12.5-.92-1.44.25-2.85.6-4.35,1C36.44,4.81,34,5.4,30.85,5.91l-.37-3.57C30.4,1.59,29.93.61,28.14.19,22.24-1.16,4.86,4.82.43,12a7.45,7.45,0,0,0-.37.69.66.66,0,0,0,.26.84l7.82,4.82L2.72,35.25a4.9,4.9,0,0,0-.39.9.7.7,0,0,0,.16.65.67.67,0,0,0,.63.2.94.94,0,0,0,.6-.55c2.55-4.29,9.13-7.56,14.21-9.55A34.13,34.13,0,0,1,24.33,25l.5,4.85a1.05,1.05,0,0,0,.05.19c.19.62.93,1.29,4.95.95a64.17,64.17,0,0,0,8.88-1.49c.15,1.47.31,3.05.48,4.77a1.37,1.37,0,0,0,.17.75c.45.8,1.64,2.93,24.91,4.89C76.84,41,91.44,41.64,101.47,42Zm0-23.19h0c20.35-.82,34.38-1.7,44-2.61l-1.31,12.59a1.36,1.36,0,0,0,0,.29c0,1.45,1.76,2.42,4.74,2.59,6.34.37,12.63,1.62,13.29,2.63-.1.18-.56.7-2.84,1.35-.95.27-2.22.55-3.92.85-3.91.69-9.45,1.34-16.48,1.93s-14.7,1-21.87,1.41c-6.13.3-11.67.51-15.61.66-4-.15-9.49-.36-15.62-.66C78.71,39.48,71,39,64,38.43S51.44,37.19,47.53,36.5c-1.7-.3-3-.58-3.92-.85-2.28-.65-2.74-1.17-2.84-1.35.66-1,6.95-2.26,13.29-2.63,3-.17,4.75-1.14,4.74-2.59a1.36,1.36,0,0,0,0-.29L57.46,16.2c9.63.91,23.66,1.79,44,2.61ZM159.83,4.63c1.4.25,2.79.59,4.27,1,2.17.54,4.63,1.14,7.9,1.67l-1.89,18.28v.06s0,0,0,.06c0,.73.42,2.09,3.74,3.07a13.56,13.56,0,0,1,2.3.86,20.64,20.64,0,0,1-3.89-.13,77.54,77.54,0,0,1-9.33-1.79l-1.66-.38h0a39.49,39.49,0,0,0-8.65-1.34H151l-.81.05H150a12.76,12.76,0,0,0-3.62.78l-.07,0-.06,0a4.37,4.37,0,0,0-.49.23l2.19-21.18a1.05,1.05,0,0,1,.43-.59C149.78,4.24,154,3.58,159.83,4.63ZM54.62,5.3a1,1,0,0,1,.43.59l2.19,21.18a4.37,4.37,0,0,0-.49-.23l0,0-.08,0A12.76,12.76,0,0,0,53,26h-.18L52,26H50.39a39.58,39.58,0,0,0-8.65,1.34h0l-1.65.38a78.1,78.1,0,0,1-9.34,1.79,20.64,20.64,0,0,1-3.89.13,13.56,13.56,0,0,1,2.3-.86c3.32-1,3.77-2.34,3.74-3.07,0,0,0,0,0-.06v-.06L31,7.25c3.27-.53,5.73-1.13,7.9-1.67,1.48-.36,2.87-.7,4.27-1C49,3.58,53.21,4.24,54.62,5.3Zm146.8,7.36v0l-7.73,4.77a.67.67,0,0,0-.29.77L198,32.6c-2.34-2.25-6.66-5.2-14.5-7.82a26.77,26.77,0,0,0-8.31-1.57,9.27,9.27,0,0,0-3.57.59l2.21-21.32c0-.17.07-.7,1.31-1C180.6.25,197.31,6,201.42,12.66ZM27.84,1.5c1.24.28,1.29.81,1.31,1L31.36,23.8a9.27,9.27,0,0,0-3.57-.59,26.77,26.77,0,0,0-8.31,1.57C11.64,27.4,7.32,30.35,5,32.6l4.6-14.38a.66.66,0,0,0-.29-.77L1.56,12.68v0C5.68,6,22.39.25,27.84,1.5ZM149.38,30.24a14.21,14.21,0,0,1-2-.24,2.52,2.52,0,0,1-1.55-.76,1.29,1.29,0,0,1,0-.28.76.76,0,0,1,.1-.14c1.08-1.26,6.1-2.42,14.93-.15l2.12.53c-.11,1.11-.23,2.28-.35,3.53C159.45,31,150.49,30.32,149.38,30.24Zm-109,2.49c-.12-1.25-.24-2.42-.35-3.53l2.12-.53C51,26.4,56,27.56,57.08,28.82a.76.76,0,0,1,.1.14,1.29,1.29,0,0,1,0,.28,2.52,2.52,0,0,1-1.55.76,14.1,14.1,0,0,1-2,.24C52.5,30.32,43.54,31,40.38,32.73Zm136-4.66a13.08,13.08,0,0,0-1.74-.63l-.51-.17-.32-.1-.09,0-.17-.07-.08,0-.2-.08h0a5,5,0,0,1-1.13-.65h0l-.08-.08,0,0-.06-.06,0,0-.06-.06v0a.6.6,0,0,1-.14-.29h0s0-.05,0-.1a.5.5,0,0,1,.19-.23c.67-.57,2.54-1,5.48-.6L177,28.36A6.21,6.21,0,0,0,176.34,28.07ZM26,28.36l-.36-3.56c2.93-.36,4.8,0,5.47.6a.5.5,0,0,1,.19.23.46.46,0,0,1,0,.1h0a.6.6,0,0,1-.14.29v0l-.05.06,0,0L31,26.2l0,0-.08.08h0a5,5,0,0,1-1.13.65h0l-.2.08-.08,0-.17.07-.09,0-.32.1-.51.17a13.08,13.08,0,0,0-1.74.63A6.21,6.21,0,0,0,26,28.36Z"/><path class="cls-1" d="M173.84,2.48,171.63,23.8a9.27,9.27,0,0,1,3.57-.59,26.77,26.77,0,0,1,8.31,1.57c7.84,2.62,12.16,5.57,14.5,7.82l-4.6-14.38a.67.67,0,0,1,.29-.77l7.73-4.77v0C197.31,6,180.6.25,175.15,1.5,173.91,1.78,173.86,2.31,173.84,2.48Z"/><path class="cls-1" d="M29.15,2.48,31.36,23.8a9.27,9.27,0,0,0-3.57-.59,26.77,26.77,0,0,0-8.31,1.57C11.64,27.4,7.32,30.35,5,32.6l4.6-14.38a.66.66,0,0,0-.29-.77L1.56,12.68v0C5.68,6,22.39.25,27.84,1.5,29.08,1.78,29.13,2.31,29.15,2.48Z"/><path class="cls-2" d="M157,6.07h0c-.73-.05-1.44-.22-2.18-.24a9.46,9.46,0,0,0-1.11,0l-.45,0-.66.05c-.55,0-.83,0-1.11,0a4.85,4.85,0,0,0-1.11.11,5.66,5.66,0,0,0-.56.13c-.18,0-.36.12-.54.19l-.51.19a2.78,2.78,0,0,1-.48.18h-.41l-.12,0c-.22-.11.13-.43.31-.55a2.39,2.39,0,0,1,.76-.22l.73-.18.75-.15c.55-.11.83-.16,1.11-.23a5,5,0,0,1,1.13-.18,4.14,4.14,0,0,1,.68,0l.46,0c.29,0,.57.06,1.14.06,1.13,0,1.13,0,2.26.11a.54.54,0,0,1,.46.41v0c0,.08-.33.11-.44.14Z"/><path class="cls-2" d="M165,7c0,.12-.31.06-.85,0-.29,0-.62,0-1-.07s-.63-.12-1-.18-.65-.15-1-.21-.7-.06-1-.13c-.52-.13-.79-.27-.77-.39s.31-.23.84-.21c.28,0,.62.21,1,.26s.65-.08,1,0,.69.1,1,.17.68.23,1,.32C164.75,6.73,165,6.9,165,7Z"/><path class="cls-2" d="M168.57,7.59c0,.13-.5.24-.95.15s-.8-.35-.77-.48.41-.17.87-.08S168.6,7.45,168.57,7.59Z"/><path class="cls-2" d="M46,6.07h0c.73-.05,1.44-.22,2.18-.24a9.46,9.46,0,0,1,1.11,0l.45,0,.66.05c.55,0,.83,0,1.11,0a4.85,4.85,0,0,1,1.11.11,5.07,5.07,0,0,1,.56.13c.18,0,.36.12.54.19l.51.19a2.78,2.78,0,0,0,.48.18h.42l.12,0c.21-.11-.14-.43-.32-.55A2.39,2.39,0,0,0,54.25,6l-.73-.18-.74-.15c-.56-.11-.84-.16-1.12-.23a5,5,0,0,0-1.13-.18,4.14,4.14,0,0,0-.68,0l-.46,0c-.29,0-.57.06-1.14.06-1.13,0-1.13,0-2.26.11a.54.54,0,0,0-.46.41v0c0,.08.33.11.44.14Z"/><path class="cls-2" d="M38,7c0,.12.31.06.85,0,.29,0,.62,0,1-.07s.63-.12,1-.18.66-.15,1-.21.7-.06,1-.13c.52-.13.79-.27.77-.39s-.3-.23-.84-.21c-.28,0-.62.21-1,.26s-.66-.08-1,0-.69.1-1,.17-.68.23-1,.32C38.24,6.73,38,6.9,38,7Z"/><path class="cls-2" d="M34.42,7.59c0,.13.5.24,1,.15s.79-.35.76-.48-.41-.17-.87-.08S34.39,7.45,34.42,7.59Z"/><path class="cls-2" d="M156.94,7.75h0c-.7,0-1.38-.23-2.07-.26-1.06,0-1.07,0-2.12,0-.52,0-.79,0-1.05,0a4.6,4.6,0,0,0-1,.05,5.16,5.16,0,0,0-1,.29,4,4,0,0,0-.48.19,3.38,3.38,0,0,1-.44.18h-.39a.2.2,0,0,1-.11,0c-.21-.1.09-.43.26-.55a2.25,2.25,0,0,1,.72-.23c.47-.12.94-.22,1.42-.3s.8-.13,1.07-.18a4.65,4.65,0,0,1,1.08-.12c1.08,0,1.08.13,2.15.17s1.07,0,2.13.13a.49.49,0,0,1,.43.4v0c0,.08-.31.12-.42.15Z"/><path class="cls-2" d="M164.56,8.47c0,.11-.3.06-.81,0-.27,0-.58,0-.93,0s-.61-.11-.94-.16L161,8.13c-.34-.06-.67,0-.93-.1-.49-.11-.75-.24-.74-.35s.29-.25.8-.25c.27,0,.59.19.94.23a9.3,9.3,0,0,1,1-.06c.33.05.66.08.95.15a8.45,8.45,0,0,1,.92.29C164.35,8.19,164.58,8.35,164.56,8.47Z"/><path class="cls-2" d="M168,9.08c0,.13-.48.22-.91.13s-.73-.36-.7-.5.39-.16.83-.06S168,8.94,168,9.08Z"/><path class="cls-2" d="M46.06,7.75h0c.7,0,1.38-.23,2.08-.26,1.06,0,1.06,0,2.11,0,.52,0,.79,0,1,0a4.6,4.6,0,0,1,1.05.05,5.16,5.16,0,0,1,1,.29,4,4,0,0,1,.48.19,3.38,3.38,0,0,0,.44.18h.39a.2.2,0,0,0,.11,0c.21-.1-.09-.43-.26-.55a2.25,2.25,0,0,0-.72-.23q-.7-.18-1.41-.3c-.54-.07-.81-.13-1.08-.18a4.65,4.65,0,0,0-1.08-.12c-1.08,0-1.08.13-2.15.17s-1.07,0-2.13.13a.5.5,0,0,0-.43.4v0c0,.08.31.12.42.15Z"/><path class="cls-2" d="M38.43,8.47c0,.11.3.06.81,0,.27,0,.59,0,.94,0l.93-.16L42,8.13c.34-.06.67,0,.93-.1.49-.11.75-.24.74-.35s-.29-.25-.8-.25c-.27,0-.59.19-.94.23a9.3,9.3,0,0,0-1-.06c-.33.05-.66.08-1,.15a8.45,8.45,0,0,0-.92.29C38.64,8.19,38.41,8.35,38.43,8.47Z"/><path class="cls-2" d="M35,9.08c0,.13.48.22.91.13s.73-.36.71-.5-.4-.16-.84-.06S35,8.94,35,9.08Z"/><path class="cls-2" d="M157.46,25.77h-.05a22.45,22.45,0,0,0-2.83-.42c-.37,0-.64,0-.87,0s-.41,0-.59,0l-1.45.12-.87.07-.59,0c-.18,0-.36,0-.59.05s-.5.07-.86.15a8.91,8.91,0,0,0-1.44.45l-.67.26a4.35,4.35,0,0,1-.63.25l-.23,0-.29,0h-.15c-.27-.08.19-.46.43-.61a4,4,0,0,1,1-.33c.31-.1.63-.18,1-.27l1-.23.86-.2.6-.14c.18,0,.36-.09.59-.13s.51-.09.89-.11a9.54,9.54,0,0,1,1.49,0l.61,0,.89.05c.37,0,.65,0,.88.05l.6.05c.37,0,.75.07,1.48.2a.67.67,0,0,1,.56.48v.05c-.06.08-.44.06-.59.08Z"/><path class="cls-2" d="M167.72,28.39c0,.11-.41,0-1.12-.08-.37-.06-.8-.1-1.28-.22s-.83-.25-1.27-.39-.83-.31-1.21-.45-.9-.26-1.24-.41c-.64-.27-1-.47-.93-.59s.42-.15,1.1,0c.36.09.76.39,1.22.53s.85.1,1.28.23.87.26,1.26.38.87.34,1.22.46C167.42,28.09,167.74,28.27,167.72,28.39Z"/><path class="cls-2" d="M172.44,29.08c0,.14-.61.25-1.22.16s-1.07-.36-1.05-.5.53-.15,1.13-.06S172.46,28.94,172.44,29.08Z"/><path class="cls-2" d="M45.53,25.77h0a22.45,22.45,0,0,1,2.83-.42c.37,0,.64,0,.87,0s.41,0,.59,0l1.45.12.87.07.59,0c.18,0,.37,0,.59.05s.5.07.86.15a8.91,8.91,0,0,1,1.44.45l.67.26a4.35,4.35,0,0,0,.63.25l.23,0,.29,0h.16c.26-.08-.2-.46-.44-.61a4,4,0,0,0-1-.33c-.31-.1-.63-.18-.95-.27l-1-.23-.86-.2-.6-.14c-.18,0-.36-.09-.59-.13s-.51-.09-.88-.11a9.66,9.66,0,0,0-1.5,0l-.61,0-.89.05c-.37,0-.65,0-.88.05l-.6.05c-.37,0-.75.07-1.48.2a.69.69,0,0,0-.56.48v.05c.06.08.44.06.59.08Z"/><path class="cls-2" d="M35.27,28.39c0,.11.41,0,1.12-.08.37-.06.8-.1,1.28-.22s.83-.25,1.27-.39.84-.31,1.22-.45.89-.26,1.23-.41c.64-.27,1-.47.93-.59s-.42-.15-1.1,0c-.36.09-.76.39-1.22.53s-.85.1-1.28.23-.87.26-1.26.38-.87.34-1.22.46C35.57,28.09,35.25,28.27,35.27,28.39Z"/><path class="cls-2" d="M30.55,29.08c0,.14.62.25,1.23.16s1.06-.36,1-.5-.52-.15-1.13-.06S30.53,28.94,30.55,29.08Z"/><path class="cls-2" d="M156.8,24.42h-.05a22.47,22.47,0,0,0-2.6-.29,12.3,12.3,0,0,0-1.34.07l-1.32.16-.79.09-.54,0a8.26,8.26,0,0,0-1.32.21,8.55,8.55,0,0,0-1.32.45l-.6.26a4,4,0,0,1-.57.23l-.22,0-.27,0h-.14c-.25-.09.16-.45.38-.6a3.75,3.75,0,0,1,.89-.31l.87-.27.87-.23c.67-.15,1-.25,1.33-.34l.54-.14c.21,0,.47-.09.81-.13s.6-.05.81-.06h.56c.34,0,.69,0,1.37,0s1,0,1.37.05.68,0,1.36.12a.62.62,0,0,1,.53.45v0c-.05.07-.4.09-.53.11Z"/><path class="cls-2" d="M166.23,26.6c0,.12-.38,0-1-.12-.34-.07-.73-.11-1.17-.23s-.74-.24-1.15-.36-.76-.26-1.11-.38-.83-.19-1.15-.31c-.59-.22-.9-.4-.87-.51s.38-.19,1-.08c.34.06.72.33,1.15.44s.78,0,1.18.16.81.23,1.17.35.79.34,1.11.48C166,26.28,166.27,26.49,166.23,26.6Z"/><path class="cls-2" d="M170.45,27.77c0,.13-.6.16-1.14,0s-.91-.48-.87-.62.5-.09,1,.07S170.49,27.63,170.45,27.77Z"/><path class="cls-2" d="M46.19,24.42h.05a22.47,22.47,0,0,1,2.6-.29,12.3,12.3,0,0,1,1.34.07l1.32.16.79.09.54,0a8.51,8.51,0,0,1,1.33.21,8.81,8.81,0,0,1,1.31.45l.6.26a4,4,0,0,0,.57.23l.22,0,.27,0h.14c.25-.09-.16-.45-.38-.6a3.75,3.75,0,0,0-.89-.31l-.87-.27-.87-.23c-.67-.15-1-.25-1.33-.34l-.54-.14c-.21,0-.46-.09-.81-.13s-.6-.05-.81-.06h-.56c-.34,0-.69,0-1.37,0s-1,0-1.36.05-.69,0-1.37.12a.62.62,0,0,0-.53.45v0c0,.07.4.09.53.11Z"/><path class="cls-2" d="M36.76,26.6c0,.12.38,0,1-.12.34-.07.73-.11,1.17-.23s.74-.24,1.15-.36.76-.26,1.11-.38.84-.19,1.15-.31c.59-.22.9-.4.88-.51s-.39-.19-1-.08c-.34.06-.71.33-1.15.44s-.78,0-1.18.16-.81.23-1.17.35-.79.34-1.11.48C37,26.28,36.73,26.49,36.76,26.6Z"/><path class="cls-2" d="M32.54,27.77c0,.13.6.16,1.14,0s.92-.48.88-.62-.51-.09-1,.07S32.5,27.63,32.54,27.77Z"/><path class="cls-2" d="M185.16,4.55l0,0c-.89-.27-1.74-.67-2.63-.94a13.74,13.74,0,0,0-1.37-.34L179.73,3l-1.36-.31a6.32,6.32,0,0,0-1.39-.2h-.36l-.37,0c-.24,0-.47,0-.71.08s-.44.09-.66.13a4.42,4.42,0,0,1-.63.14h-.5l-.14,0c-.25-.11.23-.44.48-.56a3.54,3.54,0,0,1,1-.16A11.2,11.2,0,0,1,177,2l1.45.07a8.1,8.1,0,0,1,1.43.19,9.32,9.32,0,0,1,1.38.4c.34.13.67.25,1.36.45l2.72.83a.68.68,0,0,1,.48.54l0,0c-.06.07-.43,0-.57,0Z"/><path class="cls-2" d="M194.69,8.11c-.06.1-.38-.1-1-.36l-.54-.21c-.2-.06-.4-.14-.62-.23l-1.13-.53c-.4-.17-.77-.35-1.12-.51s-.85-.28-1.17-.42c-.61-.29-.92-.49-.88-.6s.41-.15,1.06,0c.35.09.72.4,1.17.56s.81.13,1.22.3.83.34,1.18.53a6.56,6.56,0,0,1,.59.35l.49.34C194.52,7.72,194.75,8,194.69,8.11Z"/><path class="cls-2" d="M198.49,10.67c-.09.11-.63-.11-1.08-.48s-.73-.79-.65-.9.52.09,1,.46S198.58,10.57,198.49,10.67Z"/><path class="cls-2" d="M17.84,4.55l0,0c.9-.27,1.74-.67,2.63-.94.68-.2,1-.27,1.37-.34L23.26,3l1.36-.31A6.42,6.42,0,0,1,26,2.45h.36l.37,0c.24,0,.47,0,.71.08s.44.09.66.13a4.42,4.42,0,0,0,.63.14h.5l.14,0c.25-.11-.22-.44-.48-.56a3.54,3.54,0,0,0-1-.16A11.2,11.2,0,0,0,26,2l-1.44.07a8.07,8.07,0,0,0-1.44.19,9.32,9.32,0,0,0-1.38.4c-.34.13-.67.25-1.36.45L17.65,4a.65.65,0,0,0-.47.54v0c.06.07.43,0,.58,0Z"/><path class="cls-2" d="M8.3,8.11c.06.1.38-.1,1-.36l.54-.21c.2-.06.4-.14.62-.23l1.13-.53c.4-.17.77-.35,1.12-.51s.85-.28,1.17-.42c.61-.29.92-.49.88-.6s-.41-.15-1.06,0c-.35.09-.72.4-1.17.56s-.81.13-1.22.3-.82.34-1.18.53A6.56,6.56,0,0,0,9.54,7c-.17.12-.33.24-.49.34C8.47,7.72,8.24,8,8.3,8.11Z"/><path class="cls-2" d="M4.5,10.67c.09.11.64-.11,1.09-.48s.72-.79.64-.9-.52.09-1,.46S4.41,10.57,4.5,10.67Z"/><path class="cls-2" d="M185.45,6.29l0,0c-.88-.31-1.69-.74-2.58-1-1.35-.43-1.37-.36-2.74-.71-.68-.16-1-.26-1.36-.35a5.07,5.07,0,0,0-.56-.14,7.12,7.12,0,0,0-.82-.13,6.06,6.06,0,0,0-.73,0,5.7,5.7,0,0,0-.72,0,5.36,5.36,0,0,0-.69.06c-.2,0-.44.06-.64.06l-.23,0-.28-.05-.13,0c-.23-.15.29-.39.55-.48a4.16,4.16,0,0,1,1,0,17.33,17.33,0,0,1,1.91.1l.85.09.59.06a8,8,0,0,1,1.42.23c1.4.36,1.36.49,2.73.92s1.35.45,2.69.93a.68.68,0,0,1,.46.56l0,.05c-.07.06-.43,0-.58,0Z"/><path class="cls-2" d="M194.94,10.07c-.07.11-.39-.09-1-.36l-.54-.21c-.19-.07-.4-.15-.61-.25l-1.13-.54c-.4-.17-.76-.37-1.12-.52s-.84-.3-1.16-.46c-.6-.29-.91-.52-.86-.62s.41-.13,1.06,0c.34.11.71.41,1.15.58s.82.15,1.22.33.82.35,1.18.54c.21.12.4.24.58.36l.49.34C194.76,9.69,195,10,194.94,10.07Z"/><path class="cls-2" d="M198.72,12.68c-.1.11-.63-.13-1.09-.49s-.72-.79-.63-.91.53.09,1,.47S198.81,12.58,198.72,12.68Z"/><path class="cls-2" d="M17.54,6.29l.05,0c.88-.31,1.7-.74,2.58-1,1.35-.43,1.38-.36,2.74-.71.68-.16,1-.26,1.36-.35A5.07,5.07,0,0,1,24.83,4a7.12,7.12,0,0,1,.82-.13,6.06,6.06,0,0,1,.73,0,5.86,5.86,0,0,1,.73,0,5.36,5.36,0,0,1,.68.06c.2,0,.44.06.64.06l.23,0,.28-.05.14,0c.22-.15-.3-.39-.56-.48a4.16,4.16,0,0,0-1,0,17.33,17.33,0,0,0-1.91.1l-.85.09-.59.06a8,8,0,0,0-1.42.23c-1.4.36-1.36.49-2.73.92s-1.35.45-2.69.93a.65.65,0,0,0-.45.56v.05c.07.06.43,0,.58,0Z"/><path class="cls-2" d="M8.05,10.07c.07.11.39-.09,1-.36L9.6,9.5c.19-.07.4-.15.61-.25s.73-.35,1.13-.54.76-.37,1.12-.52.85-.3,1.16-.46c.6-.29.91-.52.87-.62s-.42-.13-1.07,0c-.34.11-.71.41-1.15.58s-.81.15-1.22.33-.82.35-1.17.54-.41.24-.59.36-.33.24-.49.34C8.23,9.69,8,10,8.05,10.07Z"/><path class="cls-2" d="M4.27,12.68c.1.11.63-.13,1.09-.49s.72-.79.64-.91-.54.09-1,.47S4.18,12.58,4.27,12.68Z"/><path class="cls-2" d="M182.9,24h-.05a23.73,23.73,0,0,0-2.73-.81,8.29,8.29,0,0,0-.86-.13c-.22,0-.4,0-.59-.05l-1.44-.09-1.45-.07a5.34,5.34,0,0,0-.59,0,7.93,7.93,0,0,0-.86.06,4.58,4.58,0,0,0-.74.13l-.37.08-.35.11-.68.22c-.2.07-.43.16-.63.21a1,1,0,0,1-.24,0l-.29,0a.36.36,0,0,1-.15,0c-.26-.09.21-.45.46-.59a4.52,4.52,0,0,1,1-.28l1-.2c.33,0,.65-.11,1-.14l.88-.1.6-.08a10,10,0,0,1,1.5,0,8,8,0,0,1,1.48.19l.6.13.86.16c.73.14,1.09.23,1.46.32s.72.18,1.42.4a.69.69,0,0,1,.5.55l0,0c-.07.06-.44,0-.59,0Z"/><path class="cls-2" d="M192.46,28.3c-.06.1-.39-.1-1-.42-.34-.16-.73-.32-1.16-.55l-1.13-.64c-.4-.21-.76-.44-1.11-.63s-.85-.37-1.16-.56c-.6-.34-.9-.58-.86-.68s.44-.11,1.1.13c.34.13.71.47,1.14.68s.83.22,1.23.44.81.43,1.16.65.76.56,1.06.78C192.28,27.92,192.52,28.21,192.46,28.3Z"/><path class="cls-2" d="M195.73,30.65l0,.05s0,0,0,0l.07,0v0l0,0h-.12l-.09-.05-.17-.09-.2-.12c-.51-.33-.82-.75-.74-.87s.54.06,1,.4l.19.12.19.15a.82.82,0,0,1,.19.25.57.57,0,0,1,0,.18.25.25,0,0,1,0,.09.28.28,0,0,1,0,.12A.34.34,0,0,1,196,31h-.14a.36.36,0,0,1-.2-.11.18.18,0,0,1-.05-.12.15.15,0,0,1,0-.08S195.72,30.64,195.73,30.65Z"/><path class="cls-2" d="M20.09,24h.05a23.73,23.73,0,0,1,2.73-.81,8.29,8.29,0,0,1,.86-.13c.22,0,.41,0,.59-.05l1.44-.09,1.45-.07a5.34,5.34,0,0,1,.59,0,7.93,7.93,0,0,1,.86.06,4.58,4.58,0,0,1,.74.13l.37.08.36.11.67.22c.2.07.43.16.63.21a1,1,0,0,0,.24,0l.29,0a.36.36,0,0,0,.15,0c.26-.09-.21-.45-.45-.59a4.61,4.61,0,0,0-1-.28l-1-.2c-.33,0-.65-.11-1-.14l-.88-.1-.6-.08a10,10,0,0,0-1.5,0,8,8,0,0,0-1.48.19l-.6.13-.86.16c-.73.14-1.09.23-1.45.32s-.73.18-1.43.4a.69.69,0,0,0-.5.55l0,0c.07.06.44,0,.59,0Z"/><path class="cls-2" d="M10.53,28.3c.06.1.39-.1,1-.42.34-.16.74-.32,1.16-.55l1.13-.64c.4-.21.76-.44,1.11-.63s.85-.37,1.16-.56c.6-.34.9-.58.86-.68s-.44-.11-1.1.13c-.34.13-.7.47-1.14.68s-.82.22-1.23.44-.81.43-1.16.65-.76.56-1.06.78C10.71,27.92,10.47,28.21,10.53,28.3Z"/><path class="cls-2" d="M7.26,30.65l0,.05s0,0,0,0l-.07,0v0l0,0h.12l.09-.05.17-.09a1.32,1.32,0,0,0,.2-.12c.51-.33.82-.75.75-.87s-.55.06-1.06.4l-.19.12L7,30.2a.67.67,0,0,0-.18.25.39.39,0,0,0,0,.18.25.25,0,0,0,0,.09.31.31,0,0,0,0,.12A.29.29,0,0,0,7,31H7.1a.43.43,0,0,0,.21-.11.25.25,0,0,0,0-.12.15.15,0,0,0,0-.08S7.28,30.64,7.26,30.65Z"/><path class="cls-2" d="M182.82,22.72h0a24.79,24.79,0,0,0-2.66-.7,11.1,11.1,0,0,0-1.4-.13l-1.39,0c-.7,0-1,0-1.4-.06a7.9,7.9,0,0,0-1.4,0c-.25,0-.48.08-.72.12s-.47.11-.7.18l-.66.2a4,4,0,0,1-.62.18.82.82,0,0,1-.22,0,2.61,2.61,0,0,1-.28,0,.34.34,0,0,1-.15,0c-.25-.1.22-.44.46-.57a3.74,3.74,0,0,1,1-.23c.31-.06.62-.13.94-.17s.62-.11.94-.13c.71-.08,1.07-.12,1.43-.18a9.34,9.34,0,0,1,1.43-.08,8.52,8.52,0,0,1,1.44.16c.35.06.7.13,1.41.24a22.48,22.48,0,0,1,2.8.59.66.66,0,0,1,.49.53l0,.05c-.06.07-.42,0-.57,0Z"/><path class="cls-2" d="M192,26.82c-.06.1-.37-.11-1-.43-.32-.17-.7-.32-1.11-.55s-.69-.41-1.07-.63-.73-.42-1.07-.6-.82-.34-1.12-.51c-.58-.32-.88-.54-.84-.65s.42-.13,1.06.09c.34.12.69.44,1.12.64s.8.2,1.19.41.78.42,1.12.64a12.44,12.44,0,0,1,1,.78C191.88,26.43,192.1,26.73,192,26.82Z"/><path class="cls-2" d="M195.74,29.5c-.09.11-.63-.1-1.09-.46s-.71-.8-.63-.92.53.1,1,.47S195.83,29.4,195.74,29.5Z"/><path class="cls-2" d="M20.18,22.72h0a24.79,24.79,0,0,1,2.66-.7,11.1,11.1,0,0,1,1.4-.13l1.39,0c.7,0,1,0,1.4-.06a7.89,7.89,0,0,1,1.4,0c.25,0,.48.08.72.12s.47.11.7.18l.66.2a4,4,0,0,0,.62.18.9.9,0,0,0,.23,0,2.61,2.61,0,0,0,.28,0,.32.32,0,0,0,.14,0c.25-.1-.22-.44-.46-.57a3.74,3.74,0,0,0-1-.23c-.31-.06-.62-.13-.94-.17s-.62-.11-.94-.13c-.71-.08-1.07-.12-1.42-.18a9.59,9.59,0,0,0-1.44-.08,8.52,8.52,0,0,0-1.44.16c-.35.06-.7.13-1.41.24a22.48,22.48,0,0,0-2.8.59.66.66,0,0,0-.49.53l0,.05c.06.07.42,0,.57,0Z"/><path class="cls-2" d="M11,26.82c.06.1.38-.11,1-.43.32-.17.7-.32,1.11-.55s.69-.41,1.07-.63.73-.42,1.07-.6.82-.34,1.12-.51c.59-.32.88-.54.84-.65s-.42-.13-1.06.09c-.34.12-.69.44-1.12.64s-.8.2-1.19.41-.78.42-1.12.64a12.44,12.44,0,0,0-1,.78C11.11,26.43,10.89,26.73,11,26.82Z"/><path class="cls-2" d="M7.25,29.5c.09.11.63-.1,1.09-.46s.71-.8.63-.92-.53.1-1,.47S7.16,29.4,7.25,29.5Z"/><path class="cls-2" d="M182.42,21.28h0L181.27,21a6.16,6.16,0,0,0-1.12-.22c-.29,0-.51-.06-.69-.07H179c-.29,0-.58,0-1.16,0s-.87-.06-1.16-.09a8.28,8.28,0,0,0-1.16-.05,11.57,11.57,0,0,0-1.2.15l-.56.11a3.26,3.26,0,0,1-.53.09l-.19,0-.24-.05-.11,0c-.2-.15.23-.39.43-.48a3.68,3.68,0,0,1,.82-.08l1.56-.1a8.55,8.55,0,0,0,1.18-.09,7.93,7.93,0,0,1,1.19,0,4.24,4.24,0,0,1,.7.06,4.56,4.56,0,0,1,.47.08l.48.08.69.1.7.08.47.07c.29.05.59.09,1.17.2a.56.56,0,0,1,.42.47v.05c0,.08-.35.07-.47.09Z"/><path class="cls-2" d="M190.41,23.71c0,.11-.32-.05-.85-.22-.28-.1-.61-.18-1-.32s-.62-.25-1-.39l-.94-.39a3.84,3.84,0,0,0-.52-.16,3.45,3.45,0,0,1-.45-.14c-.51-.21-.77-.39-.74-.51s.35-.17.9-.07a1.73,1.73,0,0,1,.46.19,3,3,0,0,0,.51.24c.31.1.69,0,1,.18s.69.26,1,.4.64.4.9.55C190.27,23.36,190.47,23.61,190.41,23.71Z"/><path class="cls-2" d="M193.74,25.53c-.08.11-.57,0-1-.24s-.64-.61-.57-.74.47,0,.88.26S193.82,25.41,193.74,25.53Z"/><path class="cls-2" d="M20.57,21.28h0L21.72,21a6.16,6.16,0,0,1,1.12-.22c.29,0,.51-.06.69-.07H24c.29,0,.58,0,1.16,0s.87-.06,1.16-.09a8.28,8.28,0,0,1,1.16-.05,11.57,11.57,0,0,1,1.2.15l.56.11a3.26,3.26,0,0,0,.53.09l.19,0,.24-.05.11,0c.2-.15-.22-.39-.43-.48a3.65,3.65,0,0,0-.81-.08l-1.57-.1A8.7,8.7,0,0,1,26.32,20a7.93,7.93,0,0,0-1.19,0,4.24,4.24,0,0,0-.7.06,4.56,4.56,0,0,0-.47.08l-.48.08-.69.1-.7.08-.47.07c-.29.05-.59.09-1.17.2a.56.56,0,0,0-.42.47v.05c.05.08.35.07.47.09Z"/><path class="cls-2" d="M12.58,23.71c.05.11.32-.05.85-.22.28-.1.61-.18,1-.32s.62-.25.95-.39l.94-.39a3.84,3.84,0,0,1,.52-.16,4.21,4.21,0,0,0,.46-.14c.5-.21.76-.39.73-.51s-.35-.17-.9-.07a1.87,1.87,0,0,0-.46.19,3,3,0,0,1-.51.24c-.31.1-.69,0-1,.18s-.69.26-1,.4-.64.4-.9.55C12.72,23.36,12.53,23.61,12.58,23.71Z"/><path class="cls-2" d="M9.25,25.53c.08.11.57,0,1-.24s.64-.61.57-.74-.47,0-.88.26S9.17,25.41,9.25,25.53Z"/><path class="cls-2" d="M115.05,39.56h0c-.85.06-1.69,0-2.55,0-1.29.06-1.29.14-2.58.19s-1.3-.09-2.6-.06c-.45,0-.9.06-1.34.12l-.63.07a3.08,3.08,0,0,1-.61,0l-.21,0-.25-.08-.12,0c-.19-.17.3-.37.54-.44a4.4,4.4,0,0,1,.89,0l1.72,0c1.29,0,1.29-.17,2.58-.22s1.3.09,2.59,0L115,39a.61.61,0,0,1,.58.33v.06c0,.08-.36.16-.49.21Z"/><path class="cls-2" d="M124.34,38.61c0,.11-.33.15-1,.25a11.09,11.09,0,0,1-1.11.21c-.36,0-.75.06-1.15.09s-.78,0-1.14,0-.81.11-1.14.1c-.61,0-.95-.09-1-.2s.3-.3.9-.4c.32-.05.75.07,1.17,0s.71-.24,1.11-.27.8-.08,1.16-.1.83,0,1.16,0C124,38.4,124.33,38.49,124.34,38.61Z"/><path class="cls-2" d="M128.5,38.1c0,.14-.47.38-1,.43s-1-.1-1-.24.41-.27,1-.33S128.49,38,128.5,38.1Z"/><path class="cls-2" d="M87.94,39.56h0c.85.06,1.69,0,2.55,0,1.29.06,1.29.14,2.59.19s1.3-.09,2.59-.06c.45,0,.9.06,1.34.12l.63.07a3.08,3.08,0,0,0,.61,0l.21,0,.25-.08a.33.33,0,0,0,.12,0c.19-.17-.3-.37-.54-.44a4.4,4.4,0,0,0-.89,0l-1.72,0c-1.29,0-1.29-.17-2.58-.22s-1.3.09-2.59,0L88,39a.61.61,0,0,0-.59.33v.06c0,.08.36.16.49.21Z"/><path class="cls-2" d="M78.65,38.61c0,.11.33.15.95.25a11.09,11.09,0,0,0,1.11.21c.37,0,.75.06,1.16.09s.77,0,1.13,0,.81.11,1.14.1c.61,0,1-.09,1-.2s-.3-.3-.9-.4c-.32-.05-.74.07-1.17,0s-.71-.24-1.11-.27-.8-.08-1.16-.1-.83,0-1.16,0C79,38.4,78.66,38.49,78.65,38.61Z"/><path class="cls-2" d="M74.49,38.1c0,.14.47.38,1,.43s1-.1,1-.24-.41-.27-1-.33S74.5,38,74.49,38.1Z"/><path class="cls-2" d="M144,37.51h-.06c-.54,0-1.08,0-1.62-.1s-1.06-.12-1.6-.14a13,13,0,0,0-1.62,0c-.4,0-.8.05-1.6.14-1.61.19-1.63.09-3.24.35-.57.09-1.12.2-1.68.3l-.81.13a4.09,4.09,0,0,1-.78,0l-.27,0-.32-.09a.59.59,0,0,1-.16-.07c-.22-.18.41-.34.7-.4a8.18,8.18,0,0,1,1.11,0c.71-.06,1.43-.15,2.14-.27,1.61-.25,1.58-.41,3.23-.61a8.18,8.18,0,0,1,1.67,0c.41,0,.83.06,1.65.09,1.64.07,1.63.08,3.26.1a.78.78,0,0,1,.71.37v.05c0,.08-.47.14-.63.18Z"/><path class="cls-2" d="M155.67,35.81c0,.11-.39.22-1.14.45-.4.12-.85.28-1.39.41s-.94.16-1.44.24-1,.12-1.43.17-1,.17-1.44.18c-.78,0-1.21-.06-1.22-.17s.38-.29,1.13-.43c.4-.07.94,0,1.47-.06s.88-.31,1.38-.39,1-.19,1.43-.26,1-.1,1.44-.16C155.24,35.68,155.65,35.69,155.67,35.81Z"/><path class="cls-2" d="M160.69,34.13c.05.12-.49.53-1.13.75s-1.23.21-1.27.07.44-.39,1.08-.61S160.64,34,160.69,34.13Z"/><path class="cls-2" d="M59,37.51h.06c.55,0,1.08,0,1.62-.1s1.06-.12,1.6-.14a13,13,0,0,1,1.62,0c.41,0,.8.05,1.6.14,1.61.19,1.63.09,3.24.35.57.09,1.12.2,1.68.3l.81.13a4.09,4.09,0,0,0,.78,0l.27,0,.32-.09a.59.59,0,0,0,.16-.07c.22-.18-.41-.34-.7-.4a8.12,8.12,0,0,0-1.11,0c-.71-.06-1.43-.15-2.14-.27-1.61-.25-1.58-.41-3.23-.61a8.18,8.18,0,0,0-1.67,0c-.41,0-.83.06-1.65.09-1.64.07-1.63.08-3.26.1a.78.78,0,0,0-.71.37v.05c0,.08.47.14.63.18Z"/><path class="cls-2" d="M47.32,35.81c0,.11.39.22,1.14.45.4.12.85.28,1.39.41s.94.16,1.44.24,1,.12,1.43.17,1,.17,1.44.18c.78,0,1.21-.06,1.22-.17s-.38-.29-1.13-.43c-.4-.07-.93,0-1.47-.06s-.88-.31-1.37-.39S50.42,36,50,36s-1-.1-1.44-.16C47.76,35.68,47.34,35.69,47.32,35.81Z"/><path class="cls-2" d="M42.3,34.13c0,.12.49.53,1.13.75s1.23.21,1.28.07-.45-.39-1.09-.61S42.35,34,42.3,34.13Z"/><path class="cls-2" d="M122.19,19.18h-.08c-1.43.06-2.83,0-4.26,0-2.17,0-2.17.12-4.34.15s-2.17-.1-4.34-.09c-.76,0-1.5,0-2.24.09l-1.07.06a8.53,8.53,0,0,1-1,0l-.35-.05-.42-.08a.72.72,0,0,1-.2-.05c-.32-.17.51-.37.91-.43a10.58,10.58,0,0,1,1.49,0h2.88c2.17,0,2.17-.14,4.34-.17s2.17.11,4.33.06,2.17-.06,4.34-.12a1.14,1.14,0,0,1,1,.33V19c-.05.09-.61.17-.82.22Z"/><path class="cls-2" d="M137.76,17.79c0,.11-.56.19-1.59.34-.54.09-1.15.23-1.87.31l-1.93.16c-.67.06-1.3.07-1.9.1s-1.36.15-1.9.15c-1,0-1.59-.06-1.6-.18s.51-.3,1.52-.42c.54-.07,1.24,0,1.95,0s1.21-.27,1.87-.33,1.34-.13,1.95-.17,1.37,0,1.92-.06C137.21,17.62,137.75,17.67,137.76,17.79Z"/><path class="cls-2" d="M144.69,16.71c0,.14-.78.46-1.68.6s-1.63,0-1.65-.09.68-.33,1.57-.47S144.67,16.58,144.69,16.71Z"/><path class="cls-2" d="M80.8,19.18h.08c1.43.06,2.84,0,4.27,0,2.16,0,2.16.12,4.33.15s2.17-.1,4.34-.09c.76,0,1.51,0,2.25.09l1.06.06a8.53,8.53,0,0,0,1,0l.35-.05.42-.08a.72.72,0,0,0,.2-.05c.32-.17-.51-.37-.91-.43a10.58,10.58,0,0,0-1.49,0H93.83c-2.17,0-2.17-.14-4.34-.17s-2.17.11-4.33.06-2.17-.06-4.33-.12a1.15,1.15,0,0,0-1,.33V19c0,.09.61.17.83.22Z"/><path class="cls-2" d="M65.23,17.79c0,.11.56.19,1.59.34.54.09,1.16.23,1.87.31l1.93.16c.67.06,1.3.07,1.9.1s1.36.15,1.9.15c1,0,1.59-.06,1.6-.18s-.51-.3-1.52-.42c-.54-.07-1.24,0-2,0s-1.21-.27-1.87-.33-1.34-.13-1.94-.17-1.38,0-1.93-.06C65.78,17.62,65.24,17.67,65.23,17.79Z"/><path class="cls-2" d="M58.3,16.71c0,.14.78.46,1.68.6s1.64,0,1.65-.09-.68-.33-1.57-.47S58.32,16.58,58.3,16.71Z"/><path class="cls-2" d="M160.73,10.31a.56.56,0,0,0-.19-.1c-.17-.05-.39-.08-.51-.11l-.89-.22a10.75,10.75,0,0,0-1.47-.33c-.33,0-.66-.1-1-.17l-.4-.05-.74-.11h-.09c-.75-.05-.76-.05-1.51-.08a13.33,13.33,0,0,0-1.79.08l-.87.09a6.31,6.31,0,0,0-.76.07,11.38,11.38,0,0,0-2.79.39.3.3,0,0,0,0,.3,2,2,0,0,0,.5.07A14,14,0,0,0,150,10h.21a7,7,0,0,1,1.94,0h.07c.83,0,1.66.07,2.48.15l.77,0c.62,0,1.23,0,1.86,0s1.24.14,1.86.19c.29,0,.58.05.86.09C160.15,10.46,160.94,10.53,160.73,10.31Z"/><path class="cls-2" d="M42.26,10.31a.56.56,0,0,1,.19-.1c.17-.05.39-.08.51-.11l.89-.22a10.75,10.75,0,0,1,1.47-.33c.34,0,.66-.1,1-.17l.4-.05.74-.11h.09L49,9.13a13.33,13.33,0,0,1,1.79.08l.87.09a6.31,6.31,0,0,1,.76.07,11.38,11.38,0,0,1,2.79.39.28.28,0,0,1,0,.3,2,2,0,0,1-.5.07A14,14,0,0,1,53,10H52.8a7,7,0,0,0-1.94,0h-.07c-.83,0-1.66.07-2.48.15l-.76,0c-.63,0-1.24,0-1.87,0s-1.23.14-1.86.19c-.29,0-.58.05-.86.09C42.84,10.46,42.05,10.53,42.26,10.31Z"/><path class="cls-2" d="M160,12.32a.61.61,0,0,0-.18-.11c-.17-.06-.38-.09-.49-.13l-.85-.25a9.71,9.71,0,0,0-1.41-.36c-.32-.05-.63-.12-.94-.2l-.38,0-.71-.14h-.09c-.73-.07-.73-.07-1.46-.11a11.08,11.08,0,0,0-1.73.06l-.84.08c-.23,0-.5,0-.73.06a11.65,11.65,0,0,0-2.69.39.29.29,0,0,0,0,.3,1.53,1.53,0,0,0,.49.07,15,15,0,0,0,1.63-.11h.2a6.51,6.51,0,0,1,1.87,0h.06a23.79,23.79,0,0,1,2.39.18l.73,0c.6,0,1.19,0,1.79,0s1.19.18,1.79.25c.27,0,.55.06.83.11C159.4,12.45,160.16,12.54,160,12.32Z"/><path class="cls-2" d="M43,12.32a.56.56,0,0,1,.19-.11c.16-.06.37-.09.48-.13l.85-.25A9.71,9.71,0,0,1,46,11.47c.32-.05.63-.12.94-.2l.38,0,.71-.14h.09c.73-.07.73-.07,1.46-.11a11.08,11.08,0,0,1,1.73.06l.84.08c.23,0,.5,0,.73.06a11.57,11.57,0,0,1,2.69.39.29.29,0,0,1,0,.3,1.51,1.51,0,0,1-.48.07,15.05,15.05,0,0,1-1.64-.11h-.2a6.51,6.51,0,0,0-1.87,0h-.06a23.79,23.79,0,0,0-2.39.18l-.73,0c-.6,0-1.19,0-1.79,0s-1.19.18-1.79.25c-.27,0-.55.06-.83.11C43.59,12.45,42.84,12.54,43,12.32Z"/><path class="cls-2" d="M160.14,14.44a.51.51,0,0,0-.18-.12c-.16-.06-.37-.11-.49-.15l-.84-.28a11.47,11.47,0,0,0-1.41-.43c-.31-.06-.62-.14-.93-.23l-.38-.07L155.2,13l-.09,0c-.73-.1-.73-.09-1.47-.16a11.24,11.24,0,0,0-1.74,0l-.85.05c-.23,0-.51,0-.74,0a11.78,11.78,0,0,0-2.72.26.29.29,0,0,0,0,.3,1.85,1.85,0,0,0,.49.1,15.21,15.21,0,0,0,1.65,0h.2a5.94,5.94,0,0,1,1.88.1h.07c.8.05,1.6.17,2.39.29l.74.07c.6.06,1.2.07,1.8.12s1.19.22,1.79.32c.27,0,.55.08.83.14C159.56,14.54,160.32,14.67,160.14,14.44Z"/><path class="cls-2" d="M42.85,14.44a.63.63,0,0,1,.18-.12c.16-.06.37-.11.49-.15l.84-.28a11.47,11.47,0,0,1,1.41-.43,9,9,0,0,0,.93-.23l.38-.07.71-.16.09,0c.73-.1.73-.09,1.47-.16a11.24,11.24,0,0,1,1.74,0l.85.05c.23,0,.51,0,.74,0a11.78,11.78,0,0,1,2.72.26.29.29,0,0,1,0,.3,1.85,1.85,0,0,1-.49.1,15,15,0,0,1-1.64,0H53a5.94,5.94,0,0,0-1.88.1h-.07c-.8.05-1.6.17-2.39.29l-.74.07c-.6.06-1.2.07-1.8.12s-1.19.22-1.79.32c-.27,0-.55.08-.83.14C43.43,14.54,42.67,14.67,42.85,14.44Z"/><path class="cls-2" d="M159.18,16.14A.37.37,0,0,0,159,16c-.15-.06-.34-.1-.44-.13l-.76-.27a10.81,10.81,0,0,0-1.26-.39,8.59,8.59,0,0,1-.84-.21l-.34-.07-.64-.15h-.07c-.66-.1-.66-.09-1.32-.16a11.75,11.75,0,0,0-1.57,0l-.76.05c-.21,0-.46,0-.67,0a9.65,9.65,0,0,0-2.45.23.32.32,0,0,0,0,.3,1.43,1.43,0,0,0,.43.11,14.62,14.62,0,0,0,1.48,0H150a5.34,5.34,0,0,1,1.69.11h.06c.72,0,1.44.16,2.15.27l.66.07c.54.05,1.08.05,1.62.08s1.06.2,1.6.28l.75.12C158.66,16.26,159.34,16.36,159.18,16.14Z"/><path class="cls-2" d="M43.81,16.14A.45.45,0,0,1,44,16c.15-.06.34-.1.44-.13l.76-.27a10.81,10.81,0,0,1,1.26-.39,8.59,8.59,0,0,0,.84-.21L47.6,15l.64-.15h.08c.65-.1.65-.09,1.31-.16a11.75,11.75,0,0,1,1.57,0l.76.05c.21,0,.46,0,.67,0a9.61,9.61,0,0,1,2.45.23.32.32,0,0,1,0,.3,1.43,1.43,0,0,1-.43.11,14.66,14.66,0,0,1-1.48,0H53a5.34,5.34,0,0,0-1.69.11h-.06c-.72,0-1.44.16-2.15.27l-.66.07c-.54.05-1.08.05-1.62.08s-1.06.2-1.6.28l-.75.12C44.33,16.26,43.65,16.36,43.81,16.14Z"/><path class="cls-2" d="M159.53,18.05a.51.51,0,0,0-.18-.12c-.15-.06-.36-.1-.47-.14l-.83-.28a9.05,9.05,0,0,0-1.37-.42c-.31-.06-.62-.14-.92-.23l-.37-.07-.69-.16h-.09l-1.44-.16a13.8,13.8,0,0,0-1.7,0l-.83,0c-.23,0-.5,0-.73,0a10.32,10.32,0,0,0-2.66.27.28.28,0,0,0,0,.3s.4.08.47.09a14.48,14.48,0,0,0,1.61,0h.2a6,6,0,0,1,1.84.09h.07a23.29,23.29,0,0,1,2.34.27l.72.07c.59.06,1.17.06,1.76.11s1.16.21,1.75.3l.81.14C159,18.16,159.71,18.28,159.53,18.05Z"/><path class="cls-2" d="M43.46,18.05a.51.51,0,0,1,.18-.12c.15-.06.36-.1.47-.14l.83-.28a9.05,9.05,0,0,1,1.37-.42c.31-.06.62-.14.92-.23l.37-.07.7-.16h.08l1.44-.16a13.8,13.8,0,0,1,1.7,0l.83,0c.23,0,.5,0,.73,0a10.32,10.32,0,0,1,2.66.27.28.28,0,0,1,0,.3s-.4.08-.47.09a14.48,14.48,0,0,1-1.61,0h-.2a6,6,0,0,0-1.84.09h-.06a23.15,23.15,0,0,0-2.35.27l-.72.07c-.58.06-1.17.06-1.76.11s-1.16.21-1.75.3l-.81.14C44,18.16,43.29,18.28,43.46,18.05Z"/><path class="cls-2" d="M159.45,20.42a.4.4,0,0,0-.17-.13c-.15-.07-.36-.13-.47-.18l-.83-.33-.68-.25a5.6,5.6,0,0,0-.7-.2c-.32-.07-.63-.15-.94-.24l-.38-.07-.71-.15h-.08l-.73-.08c-.19,0-.37,0-.74-.06a11,11,0,0,0-1.72,0q-.42,0-.84.06a5.86,5.86,0,0,0-.73,0A12.78,12.78,0,0,0,147,19a.27.27,0,0,0,0,.3,1.69,1.69,0,0,0,.48.11,12.82,12.82,0,0,0,1.64,0h.21a6.89,6.89,0,0,1,1.87.08h.07a23.68,23.68,0,0,1,2.38.24l.73.06c.59.05,1.18.05,1.78.1a6.47,6.47,0,0,1,.88.15c.29.07.58.15.87.2s.55.11.81.18S159.61,20.66,159.45,20.42Z"/><path class="cls-2" d="M43.54,20.42a.4.4,0,0,1,.17-.13c.15-.07.36-.13.47-.18l.83-.33.68-.25a5.6,5.6,0,0,1,.7-.2c.32-.07.63-.15.94-.24l.38-.07.71-.15h.09c.36-.05.54-.07.73-.08s.36,0,.73-.06a11,11,0,0,1,1.72,0q.42,0,.84.06a5.78,5.78,0,0,1,.73,0A12.93,12.93,0,0,1,56,19a.3.3,0,0,1,0,.3,1.69,1.69,0,0,1-.48.11,12.82,12.82,0,0,1-1.64,0h-.21a6.91,6.91,0,0,0-1.87.08h-.07a23.68,23.68,0,0,0-2.38.24l-.73.06c-.59.05-1.18.05-1.78.1a6.47,6.47,0,0,0-.88.15c-.29.07-.58.15-.87.2s-.55.11-.81.18C44.12,20.49,43.38,20.66,43.54,20.42Z"/><path class="cls-2" d="M158.19,22a.55.55,0,0,0-.17-.1,3.29,3.29,0,0,0-.44-.12l-.77-.24-.64-.19c-.21-.06-.43-.11-.65-.15a8.17,8.17,0,0,1-.86-.17l-.35,0-.65-.12h-.08l-.67,0-.67,0c-.26,0-.53,0-.79,0l-.79.09-.76.11a4.76,4.76,0,0,0-.66.09,8.68,8.68,0,0,0-2.43.49.32.32,0,0,0,.05.3,1.64,1.64,0,0,0,.45,0,12.29,12.29,0,0,0,1.47-.18H149a4.8,4.8,0,0,1,1.69-.05h.06a17.43,17.43,0,0,1,2.17.11l.67,0c.54,0,1.08,0,1.62,0s1.08.15,1.63.21l.75.09C157.66,22.16,158.35,22.24,158.19,22Z"/><path class="cls-2" d="M44.8,22a.55.55,0,0,1,.17-.1,3.75,3.75,0,0,1,.44-.12l.78-.24.63-.19c.21-.06.43-.11.65-.15a8.17,8.17,0,0,0,.86-.17l.35,0,.65-.12h.08l.67,0,.67,0c.26,0,.53,0,.79,0s.53.05.79.09l.76.11a4.76,4.76,0,0,1,.66.09,8.68,8.68,0,0,1,2.43.49.32.32,0,0,1,0,.3,1.64,1.64,0,0,1-.45,0,12.29,12.29,0,0,1-1.47-.18H54a4.79,4.79,0,0,0-1.69-.05h-.06a17.43,17.43,0,0,0-2.17.11l-.67,0c-.54,0-1.08,0-1.62,0s-1.08.15-1.63.21l-.75.09C45.33,22.16,44.64,22.24,44.8,22Z"/><text class="cls-3" transform="translate(77.11 33.12)">Gurumi</text></g></g></svg>