<svg xmlns="http://www.w3.org/2000/svg" viewBox="0 0 784.23 144.37"><g data-name="레이어 2"><path d="M397.72 61.29a106.5 106.5 0 00-7.5-4.08c-14.2-7-60-30.5-136.53-39.09-29.85-3.35-66.38-7.45-113.36 0C83.48 27.14 0 54.88.5 85.24c.33 19.47 34.81 34.22 56.24 41.8 58.82 20.82 122.71 22.1 182.73 5.09 69.18-19.61 117.5-44.24 151.34-66 17.79-11.42 54.85-37 111.05-52.64a360.22 360.22 0 0198-13 337.49 337.49 0 0176.6 9.19C700.14 15.28 783.52 35 783.73 61c.25 30.36-112.81 57.28-169.79 61.32-11.64.82-21.36.84-23.06.7A443.29 443.29 0 01495 104.67a443.92 443.92 0 01-97.28-43.38z" fill="none" stroke="#000" stroke-miterlimit="10" data-name="레이어 1"/></g></svg>