<svg xmlns="http://www.w3.org/2000/svg" viewBox="0 0 208.09 40.4"><defs><style>.cls-1{fill:#fff3db;}.cls-2{fill:#423021;}.cls-3{font-size:14px;fill:#42210b;font-family:Papyrus-Regular, Papyrus;}</style></defs><g id="레이어_2" data-name="레이어 2"><g id="레이어_1-2" data-name="레이어 1"><path class="cls-1" d="M181.83,28.12s.08.27.93.6a12.3,12.3,0,0,1,3,1.65c0-.28.06-.6.09-.95.08-.84.18-1.88.3-3.16A8.1,8.1,0,0,0,182,27.83C181.85,28,181.83,28.1,181.83,28.12Z"/><path class="cls-1" d="M26.26,28.12s-.08.27-.93.6a12.3,12.3,0,0,0-3,1.65c0-.28-.06-.6-.09-.95-.08-.84-.18-1.88-.31-3.16a8,8,0,0,1,4.17,1.57C26.24,28,26.26,28.1,26.26,28.12Z"/><path class="cls-1" d="M173,11.1c-.37,3.45-.91,8.66-1.69,16.53a1.46,1.46,0,0,1-.19.59c-.84,1.43-4.36,2.09-5.06,2.21a1.89,1.89,0,0,0-.71.22l.07.1c.34.41,1.53,1.21,4.05,1.93.34.1.7.19,1.06.27a37.93,37.93,0,0,0,4.95.74c1,.09,1.93.14,2.8.16q1.08,0,2.19,0c3.53-.13,4.64-.74,5-1,0,0,0,0,.06-.07l0,0h0a.61.61,0,0,0,0-.06v-.05a.39.39,0,0,0,0-.22c-.21-.52-1.22-1.43-3.37-2.28-1.09-.42-1.71-1-1.85-1.68a1.41,1.41,0,0,1,0-.42h0c.8-7.41,1.31-12.45,1.65-15.91A44,44,0,0,1,173,11.1Z"/><path class="cls-1" d="M35.13,11.1c.37,3.45.91,8.66,1.69,16.53a1.46,1.46,0,0,0,.19.59c.83,1.43,4.36,2.09,5.05,2.21a1.9,1.9,0,0,1,.72.22.86.86,0,0,0-.07.1c-.34.41-1.54,1.21-4.05,1.93-.35.1-.7.19-1.06.27a37.93,37.93,0,0,1-5,.74c-1,.09-1.93.14-2.8.16s-1.46,0-2.19,0c-3.54-.13-4.64-.74-5-1l-.07-.07,0,0h0a.61.61,0,0,1,0-.06v-.05a.32.32,0,0,1,0-.22c.21-.52,1.22-1.43,3.37-2.28,1.09-.42,1.71-1,1.85-1.68a1.85,1.85,0,0,0,0-.42h0C27,20.52,26.5,15.48,26.16,12A44.11,44.11,0,0,0,35.13,11.1Z"/><path class="cls-1" d="M188,38.89l1.21-.15c1.48-.2,3.48-.49,5.45-.84,1.61-.29,3.32-.66,5-1.12a9.75,9.75,0,0,0,1.49-.57,5.74,5.74,0,0,0,2.59-2.34l.11-.21.06-.15a1.8,1.8,0,0,0,.08-.21.49.49,0,0,1,0-.11A1.6,1.6,0,0,0,204,33l0-.1c0-.08,0-.16,0-.24a.15.15,0,0,1,0-.07,3.28,3.28,0,0,0-.12-1.32c-.58-1.93-2.92-3.51-6.6-4.45a29.68,29.68,0,0,0-8.5-.81c-.32,3.14-.76,7.34-1.34,13Z"/><path class="cls-1" d="M20.14,38.89l-1.21-.15c-1.49-.2-3.48-.49-5.45-.84-1.61-.29-3.32-.66-5-1.12A9.36,9.36,0,0,1,7,36.21a5.74,5.74,0,0,1-2.59-2.34,2.12,2.12,0,0,1-.11-.21l-.06-.15a1.8,1.8,0,0,1-.08-.21.49.49,0,0,1,0-.11L4.06,33a.36.36,0,0,0,0-.1,2,2,0,0,1,0-.24s0,0,0-.07a3.28,3.28,0,0,1,.12-1.32C4.69,29.32,7,27.74,10.7,26.8A29.79,29.79,0,0,1,19.21,26c.32,3.14.76,7.34,1.34,13Z"/><path class="cls-1" d="M165.7,29l.1,0a15.84,15.84,0,0,0,3-.89,2.22,2.22,0,0,0,.87-.59c-.1-.14-.71-.76-4.17-1.44l-.32,3.05h0Z"/><path class="cls-1" d="M42.38,29l-.09,0a16.25,16.25,0,0,1-3-.89,2.15,2.15,0,0,1-.86-.59c.1-.14.71-.76,4.17-1.44l.32,3.05h0Z"/><path class="cls-1" d="M104,23.67c3.73-.12,14.38-.42,26.07-.47,12-.1,25,0,31.32.77a34.71,34.71,0,0,1,7.76,1.57,5.93,5.93,0,0,1,.9.38c1.08-10.87,1.68-16.31,2-19,.17-1.57.26-2.36.26-2.6h0c-.33-.61-3.42-2.65-29.41-2.94-16.16-.19-33.82.37-38.84.54h0c-5-.17-22.69-.73-38.85-.54-26,.29-29.08,2.33-29.41,2.94h0c0,.24.09,1,.26,2.6.3,2.68.9,8.12,2,19a5.52,5.52,0,0,1,.9-.38A34.71,34.71,0,0,1,46.66,24C53,23.21,65.93,23.1,78,23.2,89.67,23.25,100.32,23.55,104,23.67Z"/><path class="cls-1" d="M181.83,26a12.07,12.07,0,0,1,3.78-1.14,30.75,30.75,0,0,1,11.49.35c3.65.77,6.25,2.13,7.58,3.92l2-19.78c.19-1.88-1-3.45-3.54-4.68-5.93-2.85-16.53-2.5-19-.11l-.06.06-.07.08a35.91,35.91,0,0,0-.56,4.71C183.23,12.54,182.74,17.61,181.83,26Z"/><path class="cls-1" d="M26.25,26a12.07,12.07,0,0,0-3.78-1.14A30.7,30.7,0,0,0,11,25.23c-3.65.77-6.25,2.13-7.58,3.92l-2-19.78c-.19-1.88,1-3.45,3.54-4.68,5.93-2.85,16.52-2.5,19-.11l.07.06.07.08a35.91,35.91,0,0,1,.56,4.71C24.86,12.54,25.35,17.61,26.25,26Z"/><path class="cls-2" d="M104,25.08h0c9.62-.24,28.89-.64,43.19-.37,6.24.17,11.29.46,15,.88l1.92.24-.47,4.62h0v0a1.38,1.38,0,0,0,.2.84c1.66,2.86,10.93,4.23,16.86,4,3.18-.15,5.18-.73,6-1.73l-.63,6.11v.2a.3.3,0,0,0,0,.1v0l.06.11,0,0,.06.07h0l0,0,0,.05.05,0s0,0,.06,0l0,0h0l.05,0h.22a78.7,78.7,0,0,0,13.27-2.24,7.93,7.93,0,0,0,5-3.56,5,5,0,0,0,.61-1.9h0l2.4-23.18c.25-2.47-1.23-4.55-4.29-6-6.11-2.95-17.41-2.88-20.48.14l0,0c-.55.52-.55.52-1,5.63,0,.42-.09.88-.14,1.39a44.1,44.1,0,0,1-9-.93c.12-1.11.22-2,.3-2.68.33-3,.33-3,.12-3.37v0c-.48-.9-2.09-2-10.32-2.8-5-.47-11.77-.76-20.26-.85C126.77-.15,109.11.41,104,.58,99,.41,81.32-.15,65.16,0,56.67.13,49.85.42,44.9.89c-8.23.77-9.84,1.9-10.32,2.8v0c-.21.36-.21.36.12,3.37.08.69.17,1.57.29,2.68a43.93,43.93,0,0,1-8.95.93c-.05-.51-.1-1-.14-1.39-.49-5.11-.49-5.11-1-5.63l-.05,0C21.73.61,10.43.54,4.31,3.49,1.26,5-.23,7,0,9.51l2.4,23.18h0A5,5,0,0,0,3,34.6a7.93,7.93,0,0,0,5,3.56A78.7,78.7,0,0,0,21.26,40.4h.22l.05,0h0l.05,0,.06,0,0,0,.06-.05,0,0h0l.06-.07,0,0a.54.54,0,0,0,.05-.11v0l0-.1v-.2l-.63-6.11c.77,1,2.77,1.58,6,1.73,5.92.27,15.2-1.1,16.86-4a1.45,1.45,0,0,0,.2-.84v0h0l-.48-4.62,1.93-.24c3.74-.42,8.79-.71,15-.88,14.3-.27,33.57.13,43.19.37Zm0-23.16h0c5-.17,22.68-.73,38.84-.54,26,.29,29.08,2.33,29.41,2.94h0c0,.24-.09,1-.26,2.6-.3,2.68-.9,8.12-2,19a5.93,5.93,0,0,0-.9-.38A34.71,34.71,0,0,0,161.43,24c-6.32-.76-19.27-.87-31.32-.77-11.69.05-22.34.35-26.07.47-3.72-.12-14.37-.42-26.06-.47-12-.1-25,0-31.32.77a34.71,34.71,0,0,0-7.76,1.57,5.52,5.52,0,0,0-.9.38c-1.08-10.87-1.68-16.31-2-19-.17-1.57-.26-2.36-.26-2.6h0c.33-.61,3.42-2.65,29.41-2.94C81.33,1.19,99,1.75,104,1.92Zm80.05,2.8.07-.08.06-.06c2.44-2.39,13-2.74,19,.11,2.54,1.23,3.73,2.8,3.54,4.68l-2,19.78c-1.33-1.79-3.93-3.15-7.58-3.92a30.75,30.75,0,0,0-11.49-.35A12.07,12.07,0,0,0,181.83,26c.91-8.41,1.4-13.48,1.7-16.59A35.91,35.91,0,0,1,184.09,4.72ZM24.56,9.43c.3,3.11.79,8.18,1.69,16.59a12.07,12.07,0,0,0-3.78-1.14A30.7,30.7,0,0,0,11,25.23c-3.65.77-6.25,2.13-7.58,3.92l-2-19.78c-.19-1.88,1-3.45,3.54-4.68,5.93-2.85,16.52-2.5,19-.11l.07.06.07.08A35.91,35.91,0,0,1,24.56,9.43ZM165.21,29.11l.32-3.05c3.46.68,4.07,1.3,4.17,1.44a2.22,2.22,0,0,1-.87.59,15.84,15.84,0,0,1-3,.89l-.1,0-.45.1Zm-122.37,0-.46-.1-.09,0a16.25,16.25,0,0,1-3-.89,2.15,2.15,0,0,1-.86-.59c.1-.14.71-.76,4.17-1.44l.32,3.05Zm143,.32c0,.35-.07.67-.09.95a12.3,12.3,0,0,0-3-1.65c-.85-.33-.93-.6-.93-.6s0-.12.19-.29a8.1,8.1,0,0,1,4.17-1.57C186.07,27.54,186,28.58,185.89,29.42Zm-164-3.16a8,8,0,0,1,4.17,1.57c.18.17.2.27.2.29s-.08.27-.93.6a12.3,12.3,0,0,0-3,1.65c0-.28-.06-.6-.09-.95C22.12,28.58,22,27.54,21.89,26.26Zm175.49.54c3.68.94,6,2.52,6.6,4.45a3.28,3.28,0,0,1,.12,1.32.15.15,0,0,0,0,.07c0,.08,0,.16,0,.24l0,.1a1.6,1.6,0,0,1-.05.21.49.49,0,0,0,0,.11,1.8,1.8,0,0,1-.08.21l-.06.15-.11.21a5.74,5.74,0,0,1-2.59,2.34,9.75,9.75,0,0,1-1.49.57c-1.67.46-3.38.83-5,1.12-2,.35-4,.64-5.45.84l-1.21.15-.41,0c.58-5.61,1-9.81,1.34-12.95A29.68,29.68,0,0,1,197.38,26.8ZM19.21,26c.32,3.14.76,7.34,1.34,13l-.41,0-1.21-.15c-1.49-.2-3.48-.49-5.45-.84-1.61-.29-3.32-.66-5-1.12A9.36,9.36,0,0,1,7,36.21a5.74,5.74,0,0,1-2.59-2.34,2.12,2.12,0,0,1-.11-.21l-.06-.15a1.8,1.8,0,0,1-.08-.21.49.49,0,0,1,0-.11L4.06,33a.36.36,0,0,0,0-.1,2,2,0,0,1,0-.24s0,0,0-.07a3.28,3.28,0,0,1,.12-1.32C4.69,29.32,7,27.74,10.7,26.8A29.79,29.79,0,0,1,19.21,26Zm161.07,1.94h0a1.41,1.41,0,0,0,0,.42c.14.69.76,1.26,1.85,1.68,2.15.85,3.16,1.76,3.37,2.28a.39.39,0,0,1,0,.22v.05a.61.61,0,0,1,0,.06h0l0,0s0,0-.06.07c-.33.31-1.44.92-5,1q-1.11,0-2.19,0c-.87,0-1.81-.07-2.8-.16a37.93,37.93,0,0,1-4.95-.74c-.36-.08-.72-.17-1.06-.27-2.52-.72-3.71-1.52-4.05-1.93l-.07-.1a1.89,1.89,0,0,1,.71-.22c.7-.12,4.22-.78,5.06-2.21a1.46,1.46,0,0,0,.19-.59c.78-7.87,1.32-13.08,1.69-16.53a44,44,0,0,0,9,.92C181.59,15.48,181.08,20.52,180.28,27.93ZM26.16,12a44.11,44.11,0,0,0,9-.92c.37,3.45.91,8.66,1.69,16.53a1.46,1.46,0,0,0,.19.59c.83,1.43,4.36,2.09,5.05,2.21a1.9,1.9,0,0,1,.72.22.86.86,0,0,0-.07.1c-.34.41-1.54,1.21-4.05,1.93-.35.1-.7.19-1.06.27a37.93,37.93,0,0,1-5,.74c-1,.09-1.93.14-2.8.16s-1.46,0-2.19,0c-3.54-.13-4.64-.74-5-1l-.07-.07,0,0h0a.61.61,0,0,1,0-.06v-.05a.32.32,0,0,1,0-.22c.21-.52,1.22-1.43,3.37-2.28,1.09-.42,1.71-1,1.85-1.68a1.85,1.85,0,0,0,0-.42h0C27,20.52,26.5,15.48,26.16,12Z"/><path class="cls-2" d="M174.65,12.63c-.05.11-.2.18-.48.11a2.6,2.6,0,0,1-.48-.2,2.61,2.61,0,0,1-.42-.36c-.21-.19-.28-.28-.22-.38s.22-.14.47,0,.25.2.42.29a3.4,3.4,0,0,1,.43.22C174.6,12.42,174.69,12.52,174.65,12.63Z"/><path class="cls-2" d="M175.45,12.53h0c.33.09.63.3,1,.38.52.11.54,0,1.06.12s.51.21,1,.28a2.62,2.62,0,0,0,.56,0l.27,0a.43.43,0,0,1,.25,0l.08.05.1.09,0,.06c.06.18-.17.35-.27.4s-.26,0-.37-.05l-.71-.08c-.54-.08-.56.06-1.1,0s-.52-.22-1-.33-.54-.12-1.07-.27c-.13,0-.14-.29-.11-.42l0,0c0-.08.18-.09.25-.12Z"/><path class="cls-2" d="M180.31,13.78a.4.4,0,0,1,.53-.2.42.42,0,0,1,.25.24.29.29,0,0,1,0,.25.38.38,0,0,1-.43,0C180.47,14,180.29,13.91,180.31,13.78Z"/><path class="cls-2" d="M33.44,12.63c0,.11.2.18.47.11a2.67,2.67,0,0,0,.49-.2,2.15,2.15,0,0,0,.41-.36c.22-.19.29-.28.22-.38s-.21-.14-.46,0a4,4,0,0,0-.42.29,3.59,3.59,0,0,0-.44.22C33.49,12.42,33.4,12.52,33.44,12.63Z"/><path class="cls-2" d="M32.63,12.53h0c-.33.09-.63.3-1,.38-.52.11-.54,0-1.06.12s-.51.21-1,.28a2.61,2.61,0,0,1-.56,0l-.27,0c-.08,0-.18,0-.25,0l-.09.05-.09.09s0,0,0,.06c-.06.18.16.35.27.4s.25,0,.37-.05l.71-.08c.54-.08.56.06,1.1,0s.52-.22,1.05-.33.54-.12,1.07-.27c.13,0,.13-.29.11-.42l0,0c0-.08-.19-.09-.25-.12Z"/><path class="cls-2" d="M27.78,13.78a.43.43,0,0,0-.78,0,.29.29,0,0,0,0,.25c.09.11.26.1.43,0S27.8,13.91,27.78,13.78Z"/><path class="cls-2" d="M174.58,13.88c0,.1-.2.18-.46.11a1.73,1.73,0,0,1-.88-.5c-.23-.16-.3-.24-.25-.35s.19-.16.45-.09.27.18.44.26a3.67,3.67,0,0,1,.44.21C174.53,13.67,174.63,13.77,174.58,13.88Z"/><path class="cls-2" d="M175.38,13.81h0c.32.11.59.34.92.44.49.15.52.07,1,.19s.48.24,1,.31a1.87,1.87,0,0,0,.53,0l.26,0c.07,0,.16,0,.23,0l.08,0,.1.08.05.06c.07.17-.13.37-.23.43s-.26,0-.37,0-.47,0-.71-.07c-.53-.08-.55.05-1.08-.06s-.49-.26-1-.41-.51-.15-1-.33c-.12-.05-.12-.3-.08-.43l0-.05c0-.07.19-.08.25-.1Z"/><path class="cls-2" d="M180.05,15.08c0-.14.18-.33.39-.36a.4.4,0,0,1,.42.29c0,.13-.14.25-.37.28S180.05,15.22,180.05,15.08Z"/><path class="cls-2" d="M33.51,13.88c0,.1.2.18.46.11a1.73,1.73,0,0,0,.88-.5c.22-.16.3-.24.25-.35s-.19-.16-.45-.09-.27.18-.44.26a3.67,3.67,0,0,0-.44.21C33.55,13.67,33.46,13.77,33.51,13.88Z"/><path class="cls-2" d="M32.71,13.81h0c-.31.11-.59.34-.91.44-.5.15-.52.07-1,.19s-.48.24-1,.31a2,2,0,0,1-.54,0l-.25,0a.48.48,0,0,0-.24,0l-.08,0-.09.08,0,.06c-.08.17.13.37.23.43s.25,0,.37,0,.47,0,.71-.07c.52-.08.55.05,1.08-.06s.49-.26,1-.41.51-.15,1-.33c.12-.05.11-.3.08-.43l0-.05c0-.07-.19-.08-.25-.1Z"/><path class="cls-2" d="M28,15.08c0-.14-.18-.33-.39-.36a.42.42,0,0,0-.43.29c0,.13.15.25.37.28S28,15.22,28,15.08Z"/><path class="cls-2" d="M174.43,15.78c0,.11-.19.18-.43.12a2.51,2.51,0,0,1-.42-.16,2.3,2.3,0,0,1-.37-.3c-.2-.14-.26-.22-.21-.33s.18-.16.42-.11.24.17.39.24a3.8,3.8,0,0,1,.4.19C174.4,15.58,174.48,15.67,174.43,15.78Z"/><path class="cls-2" d="M175.16,15.69h0a7.71,7.71,0,0,0,.82.39,5.51,5.51,0,0,0,.9.1c.45.05.45.18.91.2a1.61,1.61,0,0,0,.49-.07l.24,0c.07,0,.15-.05.22,0l.08,0,.09.09a.15.15,0,0,1,0,.06c.06.17-.13.36-.22.41s-.22,0-.32,0l-.63,0c-.48,0-.49.12-1,.06s-.47-.21-.95-.32-.47-.13-.92-.29c-.11,0-.1-.28-.06-.42v0c0-.08.18-.09.24-.11Z"/><path class="cls-2" d="M179.39,16.69a.39.39,0,0,1,.43-.28.35.35,0,0,1,.3.38c0,.14-.2.2-.38.18S179.38,16.83,179.39,16.69Z"/><path class="cls-2" d="M33.65,15.78c.05.11.2.18.43.12a2.59,2.59,0,0,0,.43-.16,2.2,2.2,0,0,0,.36-.3c.2-.14.27-.22.22-.33s-.18-.16-.42-.11-.24.17-.4.24a2.85,2.85,0,0,0-.39.19C33.69,15.58,33.61,15.67,33.65,15.78Z"/><path class="cls-2" d="M32.93,15.69h0a7.71,7.71,0,0,1-.82.39,5.63,5.63,0,0,1-.91.1c-.44.05-.44.18-.91.2a1.59,1.59,0,0,1-.48-.07l-.24,0c-.07,0-.15-.05-.22,0l-.08,0-.09.09a.09.09,0,0,0,0,.06c-.06.17.13.36.22.41s.22,0,.32,0l.63,0c.48,0,.49.12,1,.06s.47-.21.94-.32.47-.13.93-.29c.11,0,.1-.28.06-.42l0,0c0-.08-.17-.09-.23-.11Z"/><path class="cls-2" d="M28.69,16.69a.38.38,0,0,0-.42-.28.35.35,0,0,0-.3.38c0,.14.2.2.38.18S28.7,16.83,28.69,16.69Z"/><path class="cls-2" d="M189.3,27a.32.32,0,0,1-.24.31,2.35,2.35,0,0,1-.34.06,1.27,1.27,0,0,1-.36-.08c-.19,0-.27,0-.29-.17s.05-.23.23-.31.23,0,.36,0a1.45,1.45,0,0,1,.35,0C189.19,26.85,189.29,26.9,189.3,27Z"/><path class="cls-2" d="M189.77,26.62h0c.24,0,.49.09.73.07s.37-.1.74-.13.37.11.74.09a1.34,1.34,0,0,0,.38-.1l.17-.07c.06,0,.12-.06.17,0a.18.18,0,0,1,.07.05.46.46,0,0,1,.07.07s0,0,0,.06a.48.48,0,0,1-.14.43c-.07.07-.18,0-.25,0l-.49,0c-.36,0-.36.15-.72.17s-.37-.1-.74-.08l-.73.07c-.09,0-.16-.22-.19-.36v-.05c0-.08.09-.15.12-.19Z"/><path class="cls-2" d="M193.24,26.82a.35.35,0,0,1,.28-.34c.16,0,.28.19.29.33a.25.25,0,0,1-.27.24A.27.27,0,0,1,193.24,26.82Z"/><path class="cls-2" d="M18.79,27a.32.32,0,0,0,.24.31,2.35,2.35,0,0,0,.34.06,1.27,1.27,0,0,0,.36-.08c.19,0,.27,0,.28-.17s0-.23-.22-.31-.23,0-.37,0a1.35,1.35,0,0,0-.34,0C18.89,26.85,18.8,26.9,18.79,27Z"/><path class="cls-2" d="M18.32,26.62h0c-.24,0-.49.09-.73.07s-.36-.1-.73-.13-.37.11-.74.09a1.34,1.34,0,0,1-.38-.1l-.18-.07s-.11-.06-.17,0l-.06.05a.46.46,0,0,0-.07.07.13.13,0,0,0,0,.06.46.46,0,0,0,.14.43c.07.07.17,0,.25,0l.49,0c.36,0,.35.15.72.17s.37-.1.74-.08l.73.07c.08,0,.16-.22.19-.36v-.05c0-.08-.09-.15-.12-.19Z"/><path class="cls-2" d="M14.85,26.82a.35.35,0,0,0-.29-.34c-.15,0-.28.19-.28.33a.25.25,0,0,0,.27.24A.27.27,0,0,0,14.85,26.82Z"/><path class="cls-2" d="M189.46,28.15c0,.12-.07.25-.28.31a2.23,2.23,0,0,1-.39,0,1.65,1.65,0,0,1-.41-.09c-.21,0-.3-.07-.3-.19s.06-.23.27-.29.26,0,.41,0a2.63,2.63,0,0,1,.39,0C189.36,28,189.46,28,189.46,28.15Z"/><path class="cls-2" d="M190,27.76h0c.27,0,.54.09.82.07s.41-.1.82-.14.42.1.84.07a1.33,1.33,0,0,0,.42-.12l.19-.08c.06,0,.13-.06.19,0a.1.1,0,0,1,.07,0l.09.07a.1.1,0,0,1,0,.05.44.44,0,0,1-.13.44c-.08.07-.2,0-.29,0l-.55.05c-.41,0-.4.16-.82.2s-.42-.1-.84-.08l-.83.07c-.1,0-.18-.23-.2-.36V28c0-.09.11-.15.15-.19Z"/><path class="cls-2" d="M193.92,27.88a.28.28,0,0,1,.11-.22.32.32,0,0,1,.38,0,.33.33,0,0,1,.12.37.18.18,0,0,1-.22.11c-.07,0-.12-.05-.17,0s-.06,0-.07,0l-.07-.08A.27.27,0,0,1,193.92,27.88Z"/><path class="cls-2" d="M18.62,28.15c0,.12.08.25.29.31a2.13,2.13,0,0,0,.39,0,1.65,1.65,0,0,0,.41-.09c.21,0,.3-.07.3-.19s-.07-.23-.28-.29-.25,0-.4,0a2.66,2.66,0,0,0-.39,0C18.73,28,18.63,28,18.62,28.15Z"/><path class="cls-2" d="M18.07,27.76h0c-.27,0-.55.09-.82.07s-.41-.1-.82-.14-.42.1-.84.07a1.33,1.33,0,0,1-.42-.12l-.2-.08a.31.31,0,0,0-.19,0s0,0-.07,0l-.08.07,0,.05a.46.46,0,0,0,.14.44c.08.07.2,0,.28,0l.56.05c.41,0,.4.16.82.2s.42-.1.84-.08l.83.07c.1,0,.18-.23.2-.36V28c0-.09-.11-.15-.15-.19Z"/><path class="cls-2" d="M14.17,27.88a.26.26,0,0,0-.12-.22.3.3,0,0,0-.37,0,.32.32,0,0,0-.12.37.18.18,0,0,0,.22.11.38.38,0,0,1,.17,0s.06,0,.07,0l.07-.08A.27.27,0,0,0,14.17,27.88Z"/><path class="cls-2" d="M189.7,29.82c0,.11-.07.25-.32.33a4.61,4.61,0,0,1-.48.09,2.67,2.67,0,0,1-.51,0c-.27,0-.37,0-.39-.15s.06-.24.32-.33.32,0,.5,0a3,3,0,0,1,.48-.05C189.56,29.66,189.69,29.7,189.7,29.82Z"/><path class="cls-2" d="M190.36,29.38h0c.34-.05.68,0,1,0,.51-.06.5-.14,1-.21s.53.07,1,0A1.93,1.93,0,0,0,194,29l.25-.08a.5.5,0,0,1,.24-.06l.09,0,.11.08a.12.12,0,0,1,.05.05c.08.17-.1.37-.19.44s-.24,0-.34,0l-.68.09c-.51.06-.5.2-1,.26s-.53-.07-1,0l-1,.14c-.12,0-.23-.21-.27-.34v0c0-.09.12-.16.17-.21Z"/><path class="cls-2" d="M195.19,29.28a.41.41,0,0,1,.5-.24.42.42,0,0,1,.24.21.28.28,0,0,1,0,.25.35.35,0,0,1-.41.09C195.35,29.54,195.18,29.42,195.19,29.28Z"/><path class="cls-2" d="M18.38,29.82c0,.11.08.25.33.33a4.16,4.16,0,0,0,.48.09,2.67,2.67,0,0,0,.51,0c.26,0,.37,0,.39-.15s-.06-.24-.32-.33-.32,0-.5,0a3.13,3.13,0,0,0-.48-.05C18.52,29.66,18.4,29.7,18.38,29.82Z"/><path class="cls-2" d="M17.73,29.38h0c-.34-.05-.69,0-1,0-.51-.06-.5-.14-1-.21s-.52.07-1,0a1.93,1.93,0,0,1-.52-.15l-.25-.08a.54.54,0,0,0-.25-.06l-.09,0-.1.08-.06.05c-.08.17.11.37.2.44s.23,0,.34,0l.68.09c.51.06.49.2,1,.26s.53-.07,1,0l1,.14c.12,0,.23-.21.27-.34v0c0-.09-.12-.16-.17-.21Z"/><path class="cls-2" d="M12.89,29.28c0-.13-.24-.31-.49-.24a.44.44,0,0,0-.25.21.27.27,0,0,0,0,.25.35.35,0,0,0,.41.09C12.73,29.54,12.9,29.42,12.89,29.28Z"/><path class="cls-2" d="M189.82,32.06c0,.11-.16.25-.56.33a7.13,7.13,0,0,1-.77.09,4.85,4.85,0,0,1-.79,0c-.42,0-.59,0-.6-.14s.13-.24.54-.34a6.76,6.76,0,0,1,.8,0,5.61,5.61,0,0,1,.76-.06C189.61,31.9,189.81,31.94,189.82,32.06Z"/><path class="cls-2" d="M190.91,31.62h0c.53-.05,1.07.05,1.61,0,.81-.06.81-.14,1.62-.18s.83.08,1.64,0a4.86,4.86,0,0,0,.84-.12l.4-.07a1.65,1.65,0,0,1,.38-.05l.13,0a.8.8,0,0,1,.16.08l.08.05c.13.17-.18.37-.33.44a1.5,1.5,0,0,1-.56,0l-1.08.05c-.81,0-.8.17-1.62.22s-.82-.09-1.63,0l-1.62.12c-.2,0-.35-.21-.38-.34v-.05c0-.09.22-.16.3-.21Z"/><path class="cls-2" d="M198.57,31.62c0-.14.31-.34.65-.35s.61.18.62.32-.27.24-.61.25S198.57,31.76,198.57,31.62Z"/><path class="cls-2" d="M18.27,32.06c0,.11.16.25.56.33a7.13,7.13,0,0,0,.77.09,4.85,4.85,0,0,0,.79,0c.42,0,.58,0,.6-.14s-.13-.24-.55-.34a6.64,6.64,0,0,0-.8,0,5.5,5.5,0,0,0-.76-.06C18.47,31.9,18.28,31.94,18.27,32.06Z"/><path class="cls-2" d="M17.18,31.62h0c-.54-.05-1.07.05-1.61,0-.82-.06-.81-.14-1.63-.18s-.82.08-1.63,0a4.6,4.6,0,0,1-.84-.12L11,31.3a1.65,1.65,0,0,0-.38-.05l-.13,0a.8.8,0,0,0-.16.08l-.08.05c-.13.17.18.37.32.44a1.56,1.56,0,0,0,.57,0l1.08.05c.81,0,.8.17,1.61.22s.83-.09,1.64,0l1.62.12c.2,0,.34-.21.38-.34v-.05c0-.09-.22-.16-.3-.21Z"/><path class="cls-2" d="M9.52,31.62c0-.14-.31-.34-.65-.35s-.61.18-.62.32.27.24.61.25S9.52,31.76,9.52,31.62Z"/><path class="cls-2" d="M189.94,34.24c0,.12-.12.26-.45.35s-.39.07-.63.11a4.66,4.66,0,0,1-.66,0c-.35,0-.49,0-.5-.13s.09-.24.42-.35a6.53,6.53,0,0,1,.67,0,3.88,3.88,0,0,1,.63-.08C189.76,34.09,189.92,34.13,189.94,34.24Z"/><path class="cls-2" d="M190.82,33.78h0c.45-.05.9,0,1.34,0,.68-.07.67-.14,1.35-.2s.68.08,1.36,0a4.46,4.46,0,0,0,.7-.12l.33-.07a.88.88,0,0,1,.32,0,.28.28,0,0,1,.12,0l.13.08.06.06c.1.17-.16.36-.28.42s-.32,0-.46,0l-.89.05c-.68,0-.67.18-1.34.23s-.68-.08-1.35,0-.67.07-1.34.15c-.16,0-.3-.2-.33-.34v0c0-.08.18-.16.24-.21Z"/><path class="cls-2" d="M197.17,33.81c0-.14.31-.31.6-.25s.47.33.42.46-.27.15-.53.1S197.16,34,197.17,33.81Z"/><path class="cls-2" d="M18.15,34.24c0,.12.12.26.45.35a6.19,6.19,0,0,0,.63.11,4.51,4.51,0,0,0,.65,0c.35,0,.49,0,.51-.13s-.09-.24-.43-.35a6.15,6.15,0,0,0-.66,0,4,4,0,0,0-.63-.08C18.33,34.09,18.17,34.13,18.15,34.24Z"/><path class="cls-2" d="M17.27,33.78h0c-.44-.05-.89,0-1.34,0-.67-.07-.66-.14-1.34-.2s-.69.08-1.36,0a4.1,4.1,0,0,1-.7-.12l-.33-.07a.88.88,0,0,0-.32,0,.28.28,0,0,0-.12,0l-.13.08-.07.06c-.09.17.17.36.29.42s.32,0,.46,0l.89.05c.67,0,.66.18,1.33.23s.69-.08,1.36,0,.67.07,1.34.15c.16,0,.29-.2.33-.34v0c0-.08-.18-.16-.24-.21Z"/><path class="cls-2" d="M10.92,33.81c0-.14-.31-.31-.61-.25s-.46.33-.41.46.27.15.53.1S10.93,34,10.92,33.81Z"/><path class="cls-2" d="M188.64,37.42c0,.11-.09.27-.39.39s-.37.11-.6.17a4.84,4.84,0,0,1-.63,0c-.34,0-.48,0-.51-.08s.06-.25.38-.38a4.43,4.43,0,0,1,.63-.12c.23,0,.42-.11.6-.13S188.61,37.31,188.64,37.42Z"/><path class="cls-2" d="M189.44,36.87h0c.42-.1.86-.06,1.28-.15.65-.13.63-.21,1.28-.34s.67,0,1.31-.11a3.82,3.82,0,0,0,.66-.19l.31-.11a.74.74,0,0,1,.29-.08.27.27,0,0,1,.12,0l.13,0,.08.05c.12.16-.1.39-.21.46s-.31.05-.45.07l-.85.15c-.65.11-.62.24-1.26.36s-.67,0-1.31.13-.64.14-1.27.28c-.16,0-.31-.17-.36-.3v-.05c0-.08.15-.18.2-.23Z"/><path class="cls-2" d="M195.56,36.15c0-.13.21-.36.48-.4s.51.12.53.26-.18.26-.45.3S195.58,36.29,195.56,36.15Z"/><path class="cls-2" d="M19.45,37.42c0,.11.08.27.39.39s.37.11.59.17a5.1,5.1,0,0,0,.64,0c.34,0,.48,0,.5-.08s-.06-.25-.37-.38a4.72,4.72,0,0,0-.63-.12c-.23,0-.43-.11-.6-.13C19.64,37.28,19.47,37.31,19.45,37.42Z"/><path class="cls-2" d="M18.65,36.87h0c-.42-.1-.86-.06-1.29-.15-.64-.13-.62-.21-1.27-.34s-.67,0-1.32-.11a3.72,3.72,0,0,1-.65-.19L13.78,36a.79.79,0,0,0-.3-.08.23.23,0,0,0-.11,0l-.14,0-.07.05c-.12.16.1.39.21.46s.31.05.44.07l.86.15c.64.11.62.24,1.26.36s.67,0,1.31.13.63.14,1.27.28c.16,0,.31-.17.36-.3v-.05c0-.08-.15-.18-.21-.23Z"/><path class="cls-2" d="M12.53,36.15c0-.13-.21-.36-.48-.4s-.51.12-.53.26.18.26.45.3S12.5,36.29,12.53,36.15Z"/><path class="cls-2" d="M170.89,31.75c0,.11-.27.18-.74.08a6.7,6.7,0,0,1-.86-.26,6.42,6.42,0,0,1-.83-.41c-.44-.23-.6-.33-.55-.44s.25-.15.71,0c.26.07.53.24.85.36s.59.17.83.28C170.73,31.53,170.93,31.63,170.89,31.75Z"/><path class="cls-2" d="M172.23,31.73h0a6.78,6.78,0,0,1,.88.25,8.93,8.93,0,0,0,.89.23c.93.14.94.06,1.87.16s.92.21,1.86.25a7.63,7.63,0,0,0,1-.07l.46-.07a1.64,1.64,0,0,1,.44,0l.15,0,.18.07a.33.33,0,0,1,.1.06c.14.16-.21.37-.38.44a2.08,2.08,0,0,1-.66,0c-.42,0-.85,0-1.27,0-.95,0-1,.09-1.91,0s-.94-.23-1.88-.38-.94-.16-1.88-.36a.49.49,0,0,1-.31-.46v-.05c.05-.07.3-.07.4-.09Z"/><path class="cls-2" d="M181,32.77c0-.14.34-.35.72-.4s.72.1.74.24-.28.28-.68.32S181,32.91,181,32.77Z"/><path class="cls-2" d="M37.2,31.75c0,.11.26.18.73.08a7.31,7.31,0,0,0,.87-.26,6.42,6.42,0,0,0,.83-.41c.44-.23.6-.33.55-.44s-.25-.15-.71,0c-.26.07-.53.24-.85.36s-.6.17-.83.28C37.36,31.53,37.16,31.63,37.2,31.75Z"/><path class="cls-2" d="M35.85,31.73h0a6.78,6.78,0,0,0-.88.25,9.12,9.12,0,0,1-.9.23c-.92.14-.93.06-1.86.16s-.93.21-1.87.25a7.91,7.91,0,0,1-1-.07l-.46-.07a1.53,1.53,0,0,0-.43,0l-.15,0-.19.07s-.07,0-.09.06.21.37.38.44a2.08,2.08,0,0,0,.66,0c.42,0,.84,0,1.27,0,1,0,1,.09,1.91,0s.94-.23,1.88-.38.94-.16,1.87-.36a.49.49,0,0,0,.32-.46v-.05c0-.07-.3-.07-.4-.09Z"/><path class="cls-2" d="M27.13,32.77c0-.14-.34-.35-.72-.4s-.73.1-.75.24.29.28.68.32S27.12,32.91,27.13,32.77Z"/><path class="cls-2" d="M173.19,30.22c0,.12-.2.22-.54.19a4.19,4.19,0,0,1-.64-.1,4.64,4.64,0,0,1-.62-.26c-.34-.13-.46-.2-.43-.31s.18-.19.53-.16c.19,0,.4.14.63.19a5.32,5.32,0,0,1,.62.14C173.06,30,173.21,30.11,173.19,30.22Z"/><path class="cls-2" d="M174.17,30h0c.44.06.85.25,1.3.3.67.08.68,0,1.35.06s.66.18,1.34.22a3.26,3.26,0,0,0,.7-.06l.34,0a.82.82,0,0,1,.31,0l.11.05.13.07.07.06c.09.17-.17.37-.29.43s-.33,0-.48,0l-.91,0c-.68,0-.69.09-1.38,0s-.67-.19-1.35-.27l-1.36-.18c-.17,0-.23-.27-.23-.41v-.05c0-.08.22-.11.29-.14Z"/><path class="cls-2" d="M180.47,30.88c0-.14.26-.33.54-.34s.52.17.52.31-.22.25-.5.26S180.47,31,180.47,30.88Z"/><path class="cls-2" d="M34.9,30.22c0,.12.19.22.54.19a4.19,4.19,0,0,0,.64-.1,4.64,4.64,0,0,0,.62-.26c.33-.13.46-.2.43-.31s-.18-.19-.53-.16c-.19,0-.4.14-.64.19a5.61,5.61,0,0,0-.61.14C35,30,34.88,30.11,34.9,30.22Z"/><path class="cls-2" d="M33.92,30h0c-.44.06-.86.25-1.3.3-.67.08-.68,0-1.35.06s-.67.18-1.34.22a3.35,3.35,0,0,1-.71-.06l-.33,0a.82.82,0,0,0-.31,0l-.11.05-.13.07-.07.06c-.1.17.16.37.29.43s.33,0,.47,0l.91,0c.69,0,.7.09,1.38,0s.68-.19,1.36-.27L34,30.64c.16,0,.23-.27.23-.41v-.05c0-.08-.21-.11-.28-.14Z"/><path class="cls-2" d="M27.62,30.88c0-.14-.26-.33-.54-.34s-.52.17-.52.31.21.25.5.26S27.62,31,27.62,30.88Z"/><path class="cls-2" d="M174.79,27.56a.32.32,0,0,1-.33.24,1.63,1.63,0,0,1-.37,0,2.23,2.23,0,0,1-.3-.13c-.14,0-.2,0-.29-.08a.16.16,0,0,1-.05-.17.35.35,0,0,1,.26-.22c.16-.06.32,0,.47.06a1.21,1.21,0,0,1,.36.07C174.72,27.38,174.81,27.45,174.79,27.56Z"/><path class="cls-2" d="M175.38,27.3h0c.26,0,.49.2.74.23s.4,0,.79,0,.37.18.76.22a1.19,1.19,0,0,0,.42,0l.19,0c.06,0,.13,0,.19,0l.06.05.06.08a.09.09,0,0,1,0,.07c0,.17-.13.35-.21.4s-.18,0-.27,0l-.52-.06c-.39-.05-.41.09-.8,0s-.37-.18-.76-.23l-.79-.11c-.09,0-.12-.25-.11-.39v-.05c0-.08.13-.12.17-.16Z"/><path class="cls-2" d="M179,28.17c0-.14.22-.3.29-.31s0,0,.05,0l0,.06c.05,0,.15,0,.22,0s.13.08.08.21a.4.4,0,0,1-.32.22.34.34,0,0,1-.28-.07A.25.25,0,0,1,179,28.17Z"/><path class="cls-2" d="M33.3,27.56c0,.12.12.23.33.24a1.71,1.71,0,0,0,.37,0c.12,0,.21-.11.3-.13s.19,0,.28-.08a.13.13,0,0,0,.05-.17.35.35,0,0,0-.25-.22c-.16-.06-.33,0-.47.06a1.21,1.21,0,0,0-.36.07C33.36,27.38,33.28,27.45,33.3,27.56Z"/><path class="cls-2" d="M32.71,27.3h0c-.26,0-.49.2-.75.23s-.4,0-.78,0-.38.18-.77.22a1.15,1.15,0,0,1-.41,0l-.2,0c-.06,0-.13,0-.18,0l-.06.05-.07.08,0,.07c0,.17.14.35.21.4s.19,0,.27,0l.52-.06c.4-.05.41.09.81,0s.37-.18.76-.23l.78-.11c.1,0,.12-.25.12-.39v-.05c0-.08-.13-.12-.18-.16Z"/><path class="cls-2" d="M29.11,28.17c0-.14-.21-.3-.28-.31a0,0,0,0,0,0,0l-.05.06s-.14,0-.21,0-.13.08-.08.21a.39.39,0,0,0,.32.22.31.31,0,0,0,.27-.07A.19.19,0,0,0,29.11,28.17Z"/><path class="cls-2" d="M175.14,24.61a.3.3,0,0,1-.34.2,1.31,1.31,0,0,1-.36-.08c-.13,0-.22-.16-.31-.22s-.23-.17-.19-.28.14-.19.34-.18.2.12.33.16a1.42,1.42,0,0,1,.33.11C175.1,24.42,175.17,24.5,175.14,24.61Z"/><path class="cls-2" d="M175.72,24.39h0c.23.05.44.23.68.28s.38,0,.74,0,.35.18.72.22a1.31,1.31,0,0,0,.39-.05l.18-.05c.06,0,.12-.05.18,0a.1.1,0,0,1,.05,0l.07.08a.16.16,0,0,1,0,.07.47.47,0,0,1-.18.41c-.08.07-.18,0-.26,0l-.51,0c-.38,0-.39.1-.77.05s-.36-.18-.74-.25l-.75-.15c-.09,0-.09-.26-.07-.4v-.05c0-.08.14-.11.18-.14Z"/><path class="cls-2" d="M179.14,25.21a1.77,1.77,0,0,1,0-.23v-.05h0l.08.06h-.05s0,0,0,0,.06,0,.06-.07h0v0l-.07-.09a.14.14,0,0,1,0-.11.2.2,0,0,1,.18-.06.35.35,0,0,1,.31.36.45.45,0,0,1,0,.16.49.49,0,0,1-.1.13.29.29,0,0,1-.18.07A.15.15,0,0,1,179.14,25.21Z"/><path class="cls-2" d="M33,24.61a.3.3,0,0,0,.34.2,1.33,1.33,0,0,0,.35-.08,1.29,1.29,0,0,0,.32-.22c.17-.11.23-.17.19-.28a.31.31,0,0,0-.34-.18c-.11,0-.2.12-.33.16a1.28,1.28,0,0,0-.33.11C33,24.42,32.92,24.5,33,24.61Z"/><path class="cls-2" d="M32.37,24.39h0c-.23.05-.44.23-.68.28s-.38,0-.74,0-.35.18-.72.22a1.31,1.31,0,0,1-.39-.05l-.19-.05c-.05,0-.12-.05-.17,0l-.06,0-.06.08a.16.16,0,0,0,0,.07.43.43,0,0,0,.18.41c.08.07.18,0,.26,0l.51,0c.37,0,.39.1.77.05s.36-.18.74-.25l.75-.15c.09,0,.09-.26.07-.4v-.05c0-.08-.14-.11-.18-.14Z"/><path class="cls-2" d="M29,25.21a1.77,1.77,0,0,0,0-.23l0-.05h0l-.08.06h.05s0,0,0,0a.1.1,0,0,1-.06-.07h0v0a.47.47,0,0,1,.06-.09.09.09,0,0,0,0-.11.18.18,0,0,0-.18-.06.35.35,0,0,0-.3.36.45.45,0,0,0,0,.16.34.34,0,0,0,.1.13.29.29,0,0,0,.18.07A.16.16,0,0,0,29,25.21Z"/><path class="cls-2" d="M174.83,21.33a.3.3,0,0,1-.35.17,1.28,1.28,0,0,1-.33-.11c-.12-.06-.2-.19-.28-.25s-.2-.2-.15-.3a.3.3,0,0,1,.35-.14c.11,0,.18.13.3.19a1.4,1.4,0,0,1,.3.14C174.82,21.14,174.88,21.23,174.83,21.33Z"/><path class="cls-2" d="M175.42,21.18h0c.22.07.4.27.63.34s.36,0,.71.1.32.21.67.28a1,1,0,0,0,.38,0l.18,0a.3.3,0,0,1,.16,0s0,0,.05.05a.22.22,0,0,0,0,.08l0,.07a.41.41,0,0,1-.19.41c-.09.05-.18,0-.26-.05l-.48-.08c-.36-.07-.39.06-.75,0s-.33-.22-.69-.32-.36-.1-.71-.22c-.08,0-.06-.27,0-.41l0,0c0-.08.14-.1.19-.13Z"/><path class="cls-2" d="M178.63,22.21a.82.82,0,0,1,0-.23.25.25,0,0,1,0-.16s.06,0,.13,0l.22-.06a.15.15,0,0,1,.16.12.31.31,0,0,1-.06.31.34.34,0,0,1-.26.15A.15.15,0,0,1,178.63,22.21Z"/><path class="cls-2" d="M33.25,21.33a.31.31,0,0,0,.36.17,1.28,1.28,0,0,0,.33-.11c.12-.06.2-.19.28-.25s.2-.2.14-.3A.29.29,0,0,0,34,20.7c-.1,0-.18.13-.29.19a1.51,1.51,0,0,0-.31.14C33.27,21.14,33.21,21.23,33.25,21.33Z"/><path class="cls-2" d="M32.67,21.18h0c-.23.07-.4.27-.63.34s-.37,0-.71.1-.32.21-.67.28a1,1,0,0,1-.38,0l-.18,0a.3.3,0,0,0-.16,0l-.05.05a.56.56,0,0,1-.05.08l0,.07a.41.41,0,0,0,.19.41c.09.05.18,0,.25-.05l.49-.08c.36-.07.39.06.75,0s.33-.22.69-.32l.7-.22c.09,0,.06-.27,0-.41l0,0c0-.08-.15-.1-.19-.13Z"/><path class="cls-2" d="M29.46,22.21a.82.82,0,0,0,0-.23c0-.08,0-.13,0-.16s-.06,0-.13,0l-.22-.06a.16.16,0,0,0-.17.12.37.37,0,0,0,.06.31.36.36,0,0,0,.27.15A.16.16,0,0,0,29.46,22.21Z"/><path class="cls-2" d="M174.79,18.81a.3.3,0,0,1-.24.25.83.83,0,0,1-.26,0,.19.19,0,0,1-.12-.07l-.06,0-.08-.06s-.08-.07-.07-.1,0,0,.06-.05l.07-.06s0,0,0-.06a1,1,0,0,0,0-.12s0,0,0-.06h0l0,0,.13.06a.62.62,0,0,1,.25.05C174.76,18.63,174.81,18.69,174.79,18.81Z"/><path class="cls-2" d="M175.22,18.53h0c.17,0,.32.18.5.21s.27,0,.54,0,.24.18.5.23a1,1,0,0,0,.29,0l.14,0s.09,0,.13,0l0,0a.2.2,0,0,1,0,.08.64.64,0,0,1,0,.07.6.6,0,0,1-.19.39c-.07.06-.13,0-.18,0l-.35-.06c-.27-.05-.29.08-.56,0s-.24-.17-.5-.22l-.53-.09c-.07,0-.07-.25-.05-.38V18.7c0-.09.1-.13.13-.17Z"/><path class="cls-2" d="M177.62,19.39c0-.14.16-.31.27-.29s.17.22.14.36a.21.21,0,0,1-.24.2A.23.23,0,0,1,177.62,19.39Z"/><path class="cls-2" d="M33.3,18.81a.3.3,0,0,0,.24.25.77.77,0,0,0,.25,0,.19.19,0,0,0,.13-.07l.06,0,.08-.06a.15.15,0,0,0,.07-.1s0,0-.06-.05L34,18.65a.33.33,0,0,1,0-.06,1,1,0,0,1,0-.12s0,0,0-.06h0l-.06,0a.52.52,0,0,1-.13.06.6.6,0,0,0-.24.05C33.33,18.63,33.28,18.69,33.3,18.81Z"/><path class="cls-2" d="M32.87,18.53h0c-.18,0-.32.18-.5.21s-.28,0-.54,0-.24.18-.51.23A.89.89,0,0,1,31,19l-.14,0c-.05,0-.1,0-.13,0a.1.1,0,0,0,0,0l0,.08a.14.14,0,0,0,0,.07.56.56,0,0,0,.19.39c.06.06.12,0,.18,0l.35-.06c.27-.05.29.08.55,0s.24-.17.51-.22l.53-.09c.06,0,.06-.25.05-.38V18.7c0-.09-.1-.13-.14-.17Z"/><path class="cls-2" d="M30.47,19.39c0-.14-.17-.31-.28-.29s-.16.22-.13.36a.21.21,0,0,0,.24.2A.23.23,0,0,0,30.47,19.39Z"/><path class="cls-2" d="M111.63,22.56c0,.11-.32.26-1.1.35-.42,0-.93.07-1.48.1s-1.06,0-1.5,0c-.81,0-1.12,0-1.13-.14s.28-.24,1.08-.34c.43-.05,1,0,1.52,0s1-.07,1.46-.06C111.26,22.41,111.63,22.44,111.63,22.56Z"/><path class="cls-2" d="M113.76,22.09h.06c1-.06,2,0,3.07,0,1.56-.08,1.56-.17,3.13-.2a10.74,10.74,0,0,1,1.58.1c.39,0,.78.1,1.56.14.54,0,1.08,0,1.61,0l.77,0a4.45,4.45,0,0,1,.73,0,1,1,0,0,1,.25.06l.3.09a.46.46,0,0,1,.14.07c.22.18-.39.34-.68.38a5.71,5.71,0,0,1-1.08-.07l-2.07-.12a13.44,13.44,0,0,0-1.55,0c-.39,0-.78,0-1.55,0-1.55,0-1.56-.09-3.11,0l-3.12.18a.74.74,0,0,1-.7-.33v-.05c0-.09.43-.17.59-.22Z"/><path class="cls-2" d="M128.4,22.63c0-.14.63-.29,1.28-.25s1.15.26,1.15.4-.54.2-1.19.16S128.39,22.77,128.4,22.63Z"/><path class="cls-2" d="M96.45,22.56c0,.11.33.26,1.11.35.42,0,.93.07,1.47.1s1.07,0,1.51,0c.81,0,1.12,0,1.13-.14s-.28-.24-1.08-.34c-.44-.05-1,0-1.53,0s-1-.07-1.45-.06C96.83,22.41,96.46,22.44,96.45,22.56Z"/><path class="cls-2" d="M94.32,22.09h0c-1-.06-2,0-3.07,0-1.56-.08-1.56-.17-3.14-.2a10.58,10.58,0,0,0-1.57.1c-.39,0-.78.1-1.56.14-.54,0-1.08,0-1.62,0l-.77,0a4.33,4.33,0,0,0-.72,0,1,1,0,0,0-.25.06l-.3.09a.37.37,0,0,0-.14.07c-.22.18.39.34.68.38a5.55,5.55,0,0,0,1.07-.07L85,22.51a13.62,13.62,0,0,1,1.56,0c.39,0,.78,0,1.55,0,1.55,0,1.55-.09,3.11,0l3.12.18a.75.75,0,0,0,.7-.33v-.05c0-.09-.44-.17-.59-.22Z"/><path class="cls-2" d="M79.69,22.63c0-.14-.63-.29-1.28-.25s-1.16.26-1.15.4.54.2,1.18.16S79.7,22.77,79.69,22.63Z"/><path class="cls-2" d="M135.43,22.44c0,.12-.17.25-.59.29a6,6,0,0,1-.77,0,7.54,7.54,0,0,1-.79-.11c-.42,0-.58-.09-.58-.21s.15-.23.57-.28c.23,0,.51.05.8.05a6.37,6.37,0,0,1,.77,0C135.24,22.27,135.43,22.33,135.43,22.44Z"/><path class="cls-2" d="M136.56,22.09h0c.54,0,1.07.12,1.61.12.82,0,.82-.08,1.63-.08s.82.13,1.64.13a6,6,0,0,0,.85-.08l.4-.06a1.63,1.63,0,0,1,.38,0l.13.05.16.07.08.06c.12.17-.2.37-.35.43a1.76,1.76,0,0,1-.56,0h-1.09c-.82,0-.82.14-1.64.14s-.81-.14-1.63-.14h-1.64c-.2,0-.33-.23-.35-.37v0c0-.08.23-.14.31-.18Z"/><path class="cls-2" d="M144.23,22.5c0-.14.32-.33.66-.33s.61.19.61.33-.27.24-.61.24S144.23,22.64,144.23,22.5Z"/><path class="cls-2" d="M72.65,22.44c0,.12.18.25.59.29a6.2,6.2,0,0,0,.78,0,7.32,7.32,0,0,0,.78-.11c.42,0,.59-.09.59-.21s-.15-.23-.57-.28c-.23,0-.51.05-.8.05a6.37,6.37,0,0,0-.77,0C72.84,22.27,72.65,22.33,72.65,22.44Z"/><path class="cls-2" d="M71.53,22.09h0c-.54,0-1.07.12-1.61.12-.82,0-.82-.08-1.64-.08s-.81.13-1.63.13a6,6,0,0,1-.85-.08l-.4-.06a1.63,1.63,0,0,0-.38,0l-.13.05-.16.07-.08.06c-.12.17.2.37.35.43a1.76,1.76,0,0,0,.56,0h1.09c.81,0,.81.14,1.63.14s.82-.14,1.64-.14h1.64c.2,0,.32-.23.35-.37v0c0-.08-.23-.14-.31-.18Z"/><path class="cls-2" d="M63.86,22.5c0-.14-.32-.33-.66-.33s-.61.19-.61.33.27.24.61.24S63.86,22.64,63.86,22.5Z"/><path class="cls-2" d="M152.83,22.76c0,.12-.32.23-1,.24-.37,0-.83,0-1.32,0s-.94-.12-1.33-.16c-.72-.07-1-.12-1-.24s.27-.22,1-.24c.39,0,.86.08,1.36.09s.93,0,1.3.07C152.51,22.57,152.83,22.65,152.83,22.76Z"/><path class="cls-2" d="M154.77,22.51h0c.91,0,1.81.24,2.73.32,1.39.12,1.4,0,2.79.18s1.37.3,2.76.49c.48.08,1,.12,1.44.16l.68.06a3.51,3.51,0,0,1,.65.09,1.45,1.45,0,0,1,.22.09l.24.13a.41.41,0,0,1,.12.09c.16.21-.4.29-.66.29a3.9,3.9,0,0,1-.94-.18c-.6-.11-1.21-.2-1.82-.3-1.37-.2-1.39-.06-2.77-.23s-1.37-.27-2.75-.39-1.39-.1-2.78-.19a.65.65,0,0,1-.58-.4v0c0-.08.4-.12.55-.15Z"/><path class="cls-2" d="M167.67,24.62c0-.13.61-.2,1.17-.05s1,.46.93.59-.51.11-1.07,0S167.64,24.76,167.67,24.62Z"/><path class="cls-2" d="M55.26,22.76c0,.12.32.23,1,.24.37,0,.82,0,1.31,0s.95-.12,1.34-.16c.71-.07,1-.12,1-.24s-.27-.22-1-.24c-.39,0-.86.08-1.36.09s-.93,0-1.3.07C55.58,22.57,55.25,22.65,55.26,22.76Z"/><path class="cls-2" d="M53.32,22.51h0c-.92,0-1.81.24-2.73.32-1.39.12-1.4,0-2.79.18s-1.37.3-2.76.49c-.48.08-1,.12-1.44.16l-.69.06a3.52,3.52,0,0,0-.64.09,1.45,1.45,0,0,0-.22.09l-.25.13a.53.53,0,0,0-.11.09c-.17.21.4.29.65.29a4,4,0,0,0,1-.18c.6-.11,1.21-.2,1.81-.3,1.38-.2,1.4-.06,2.78-.23s1.36-.27,2.75-.39,1.39-.1,2.78-.19a.65.65,0,0,0,.58-.4v0c0-.08-.41-.12-.55-.15Z"/><path class="cls-2" d="M40.42,24.62c0-.13-.61-.2-1.18-.05s-1,.46-.92.59.51.11,1.07,0S40.45,24.76,40.42,24.62Z"/><path class="cls-2" d="M109.71,2.38c0,.12-.21.26-.71.34-.26,0-.59.07-.94.09a9.55,9.55,0,0,1-1-.05c-.52,0-.72,0-.73-.15s.17-.24.69-.33c.28,0,.62,0,1,0s.67-.06.94,0C109.46,2.23,109.7,2.27,109.71,2.38Z"/><path class="cls-2" d="M111.07,1.94h0c.66-.05,1.32,0,2,0,1-.07,1-.15,2-.22s1,.06,2,0c.35,0,.69-.09,1-.15l.49-.1a2.52,2.52,0,0,1,.47-.06l.16,0,.2.06a.46.46,0,0,1,.1.05c.16.16-.21.38-.39.46a2.7,2.7,0,0,1-.7,0l-1.33.09c-1,.06-1,.2-2,.26s-1-.06-2,0l-2,.14a.47.47,0,0,1-.46-.34v0c0-.08.28-.16.38-.21Z"/><path class="cls-2" d="M120.5,1.72c0-.14.37-.36.79-.39s.76.14.77.28-.32.26-.74.29S120.51,1.86,120.5,1.72Z"/><path class="cls-2" d="M98.38,2.38c0,.12.2.26.7.34.27,0,.6.07,1,.09a9.2,9.2,0,0,0,1-.05c.52,0,.73,0,.73-.15s-.17-.24-.68-.33c-.28,0-.62,0-1,0s-.67-.06-.94,0C98.63,2.23,98.39,2.27,98.38,2.38Z"/><path class="cls-2" d="M97,1.94h0c-.66-.05-1.32,0-2,0-1-.07-1-.15-2-.22s-1,.06-2,0c-.35,0-.69-.09-1-.15l-.49-.1A2.52,2.52,0,0,0,89,1.4l-.16,0-.2.06a.46.46,0,0,0-.1.05c-.16.16.21.38.39.46a2.7,2.7,0,0,0,.7,0L91,2.14c1,.06,1,.2,2,.26s1-.06,2,0l2,.14a.47.47,0,0,0,.46-.34v0c0-.08-.28-.16-.38-.21Z"/><path class="cls-2" d="M87.59,1.72c0-.14-.37-.36-.79-.39s-.76.14-.77.28.32.26.73.29S87.58,1.86,87.59,1.72Z"/><path class="cls-2" d="M128,2.19c0,.12-.21.25-.71.29a9,9,0,0,1-.94,0c-.36,0-.68-.09-1-.11-.51,0-.71-.09-.71-.2s.19-.23.7-.28c.28,0,.61,0,1,0s.66,0,.93,0C127.75,2,128,2.08,128,2.19Z"/><path class="cls-2" d="M129.35,1.84h0c.65,0,1.3.12,2,.12,1,0,1-.08,2-.08s1,.12,2,.12a8.93,8.93,0,0,0,1-.08l.48-.06a2.48,2.48,0,0,1,.47,0l.16,0,.19.08.09.06c.15.17-.23.37-.41.43a2.66,2.66,0,0,1-.69,0h-1.32c-1,0-1,.14-2,.14s-1-.13-2-.13h-2a.5.5,0,0,1-.43-.37V2c0-.08.28-.14.38-.18Z"/><path class="cls-2" d="M138.67,2.24c0-.14.39-.33.8-.33s.75.19.75.33-.33.24-.75.24S138.67,2.38,138.67,2.24Z"/><path class="cls-2" d="M80.1,2.19c0,.12.22.25.72.29a9,9,0,0,0,.94,0c.35,0,.68-.09,1-.11.51,0,.71-.09.71-.2s-.19-.23-.7-.28c-.28,0-.61,0-1,0s-.66,0-.93,0C80.33,2,80.1,2.08,80.1,2.19Z"/><path class="cls-2" d="M78.73,1.84h0c-.66,0-1.3.12-2,.12-1,0-1-.08-2-.08s-1,.12-2,.12a8.76,8.76,0,0,1-1-.08l-.49-.06a2.32,2.32,0,0,0-.46,0l-.16,0L70.44,2l-.1.06c-.14.17.24.37.42.43a2.66,2.66,0,0,0,.69,0h1.32c1,0,1,.14,2,.14s1-.13,2-.13h2a.5.5,0,0,0,.44-.37V2c0-.08-.29-.14-.39-.18Z"/><path class="cls-2" d="M69.42,2.24c0-.14-.39-.33-.8-.33s-.75.19-.75.33.33.24.75.24S69.42,2.38,69.42,2.24Z"/><path class="cls-2" d="M146.62,2.09c0,.12-.21.24-.71.31-.27,0-.6,0-.95.05a9.17,9.17,0,0,1-1-.06c-.52,0-.72-.05-.73-.17s.18-.23.69-.31a8.15,8.15,0,0,1,1,0c.35,0,.67,0,.94,0C146.38,1.92,146.62,2,146.62,2.09Z"/><path class="cls-2" d="M148,1.71h0c.66,0,1.31.13,2,.14,1,0,1-.06,2,0s1,.17,2,.23a9.2,9.2,0,0,0,1.05,0l.49,0a1.93,1.93,0,0,1,.48,0,.47.47,0,0,1,.15.06l.19.09a.22.22,0,0,1,.09.07c.13.18-.27.34-.46.39a2.79,2.79,0,0,1-.69-.07L154,2.49c-1-.06-1,.07-2,0s-1-.17-2-.19-1,0-2,0a.49.49,0,0,1-.44-.37V1.91c0-.08.28-.14.38-.18Z"/><path class="cls-2" d="M157.4,2.58c0-.14.43-.29.84-.25s.73.28.71.42-.36.2-.77.15S157.39,2.72,157.4,2.58Z"/><path class="cls-2" d="M61.47,2.09c0,.12.21.24.71.31.27,0,.6,0,1,.05a9.34,9.34,0,0,0,1-.06c.51,0,.72-.05.72-.17s-.17-.23-.68-.31a8.15,8.15,0,0,0-1,0c-.36,0-.67,0-.94,0C61.7,1.92,61.47,2,61.47,2.09Z"/><path class="cls-2" d="M60.08,1.71h0c-.67,0-1.32.13-2,.14-1,0-1-.06-2,0s-1,.17-2,.23a9,9,0,0,1-1,0l-.5,0A1.85,1.85,0,0,0,52,2a.52.52,0,0,0-.16.06l-.18.09a.22.22,0,0,0-.09.07c-.13.18.27.34.46.39a2.67,2.67,0,0,0,.68-.07l1.33-.09c1-.06,1,.07,2,0s1-.17,2-.19,1,0,2,0A.5.5,0,0,0,60.52,2V1.91c0-.08-.28-.14-.39-.18Z"/><path class="cls-2" d="M50.69,2.58c0-.14-.43-.29-.85-.25s-.72.28-.71.42.36.2.78.15S50.7,2.72,50.69,2.58Z"/><path class="cls-2" d="M162.91,3.11c0,.12-.21.22-.61.2a5.64,5.64,0,0,1-.76-.07,5.77,5.77,0,0,1-.75-.2c-.4-.09-.56-.15-.54-.26s.17-.21.59-.22a6.7,6.7,0,0,1,.77.14,4.8,4.8,0,0,1,.75.11C162.75,2.91,162.92,3,162.91,3.11Z"/><path class="cls-2" d="M164.06,2.93h0c.52.07,1,.29,1.53.39.8.14.81.07,1.6.22s.76.29,1.55.47a5.71,5.71,0,0,0,.83.11l.4,0a1.15,1.15,0,0,1,.37.06.41.41,0,0,1,.11.07l.14.12a.18.18,0,0,1,0,.07c.08.2-.27.31-.43.33s-.37-.1-.53-.14l-1-.24c-.78-.18-.8,0-1.59-.21s-.75-.28-1.54-.43-.79-.13-1.58-.26c-.19,0-.28-.28-.29-.42v0c0-.08.25-.1.34-.13Z"/><path class="cls-2" d="M171.34,4.89c0-.13.39-.25.75-.09a.65.65,0,0,1,.34.36.26.26,0,0,1,0,.28.23.23,0,0,1-.23,0,1.75,1.75,0,0,1-.34-.14C171.58,5.19,171.3,5,171.34,4.89Z"/><path class="cls-2" d="M45.18,3.11c0,.12.21.22.61.2a5.51,5.51,0,0,0,.75-.07,5.36,5.36,0,0,0,.75-.2c.41-.09.56-.15.55-.26s-.17-.21-.59-.22a6.7,6.7,0,0,0-.77.14,4.62,4.62,0,0,0-.75.11C45.34,2.91,45.16,3,45.18,3.11Z"/><path class="cls-2" d="M44,2.93h0c-.52.07-1,.29-1.54.39-.79.14-.8.07-1.59.22s-.77.29-1.55.47a5.71,5.71,0,0,1-.83.11l-.4,0a1.15,1.15,0,0,0-.37.06l-.12.07-.13.12s0,0-.06.07c-.07.2.28.31.43.33s.37-.1.54-.14l1-.24c.78-.18.81,0,1.59-.21s.76-.28,1.55-.43l1.58-.26c.19,0,.28-.28.28-.42v0c0-.08-.25-.1-.34-.13Z"/><path class="cls-2" d="M36.75,4.89c0-.13-.4-.25-.75-.09a.71.71,0,0,0-.35.36.25.25,0,0,0,0,.28s.14,0,.23,0a1.75,1.75,0,0,0,.34-.14C36.5,5.19,36.78,5,36.75,4.89Z"/><path class="cls-2" d="M203.24,6.24a.42.42,0,0,0-.15-.19,2.56,2.56,0,0,0-.51-.33,6.56,6.56,0,0,0-1-.49A8.17,8.17,0,0,0,200,4.69c-.37-.08-.73-.18-1.09-.29l-.44-.09-.82-.22-.1,0c-.85-.16-.85-.15-1.71-.29a15.44,15.44,0,0,0-2-.16c-.33,0-.67,0-1,0a8.42,8.42,0,0,0-.87,0c-.27,0-.54,0-.81,0s-.54,0-.81,0a4.26,4.26,0,0,0-1.59.28.26.26,0,0,0,.05.3,2,2,0,0,0,.56.06c.62,0,1.29-.08,1.92-.07h.24a7.41,7.41,0,0,1,2.2.17h.07c.95.1,1.87.29,2.8.47l.87.14c.7.11,1.41.15,2.12.23a13.71,13.71,0,0,1,2.06.46,5.59,5.59,0,0,1,.89.33l.47.22C203.14,6.35,203.3,6.4,203.24,6.24Z"/><path class="cls-2" d="M4.84,6.24A.54.54,0,0,1,5,6.05a2.85,2.85,0,0,1,.5-.33,7.23,7.23,0,0,1,1-.49,8.17,8.17,0,0,1,1.65-.54c.37-.08.73-.18,1.09-.29l.44-.09.82-.22.1,0c.85-.16.85-.15,1.71-.29a15.44,15.44,0,0,1,2-.16c.33,0,.66,0,1,0a8.42,8.42,0,0,1,.87,0c.27,0,.54,0,.81,0s.54,0,.81,0a4.3,4.3,0,0,1,1.59.28.26.26,0,0,1-.05.3,2,2,0,0,1-.57.06c-.62,0-1.29-.08-1.92-.07h-.24a7.37,7.37,0,0,0-2.19.17h-.08c-.94.1-1.87.29-2.8.47L10.68,5c-.7.11-1.41.15-2.12.23a13.71,13.71,0,0,0-2.06.46,5.7,5.7,0,0,0-.9.33l-.47.22C5,6.35,4.79,6.4,4.84,6.24Z"/><path class="cls-2" d="M202.61,7.57a.33.33,0,0,0-.12-.2,1.66,1.66,0,0,0-.48-.29c-.3-.14-.6-.23-.89-.35a14.65,14.65,0,0,0-1.44-.54c-.33-.1-.66-.21-1-.33l-.39-.11-.74-.24-.09,0c-.38-.1-.57-.13-.76-.17L196,5.17A12.89,12.89,0,0,0,194.11,5h-.91a6.94,6.94,0,0,0-.79,0,5.86,5.86,0,0,1-.73,0h-.74c-.24,0-.49,0-.73.07a3.55,3.55,0,0,0-.7.22.28.28,0,0,0,.05.29,1.66,1.66,0,0,0,.51.07,6.24,6.24,0,0,0,.86,0c.29,0,.59,0,.87,0H192a6.25,6.25,0,0,1,2,.18h.06a19.09,19.09,0,0,1,2.5.51c.26,0,.52.09.77.15.63.12,1.26.19,1.9.3s1.24.33,1.87.48a6.63,6.63,0,0,1,.85.2l.4.16C202.49,7.65,202.62,7.73,202.61,7.57Z"/><path class="cls-2" d="M5.48,7.57a.37.37,0,0,1,.11-.2,1.84,1.84,0,0,1,.49-.29c.3-.14.59-.23.88-.35.49-.19,1-.4,1.45-.54.33-.1.65-.21,1-.33l.39-.11.74-.24.09,0c.38-.1.57-.13.76-.17l.77-.15A12.75,12.75,0,0,1,14,5h.91a6.94,6.94,0,0,1,.79,0,5.86,5.86,0,0,0,.73,0h.73c.25,0,.49,0,.73.07a3.35,3.35,0,0,1,.7.22.24.24,0,0,1-.05.29,1.66,1.66,0,0,1-.51.07,6.24,6.24,0,0,1-.86,0c-.29,0-.58,0-.86,0h-.22a6.25,6.25,0,0,0-2,.18H14a19.79,19.79,0,0,0-2.5.51c-.25,0-.51.09-.76.15-.63.12-1.27.19-1.9.3S7.63,7.07,7,7.22a6.47,6.47,0,0,0-.84.2c-.06,0-.26.09-.41.16S5.46,7.73,5.48,7.57Z"/><path class="cls-2" d="M202.59,9.18a.52.52,0,0,0-.17-.15c-.15-.09-.36-.18-.47-.24l-.83-.45L200.44,8c-.23-.11-.47-.21-.71-.3s-.64-.23-1-.37l-.39-.11L197.66,7l-.1,0c-.38-.1-.57-.13-.76-.17L196,6.64a9.24,9.24,0,0,0-.92-.1c-.3,0-.61,0-.92,0s-.59,0-.89,0a5,5,0,0,0-.78,0,9.79,9.79,0,0,0-2.86.33.3.3,0,0,0,0,.3,2.62,2.62,0,0,0,.51.07c.56,0,1.15-.08,1.72-.08h.21a5.88,5.88,0,0,1,2,.13h.07a16,16,0,0,1,2.47.44l.75.14.93.16.92.17a5.64,5.64,0,0,1,.91.28l.89.32c.28.1.56.19.83.3C202,9.17,202.73,9.45,202.59,9.18Z"/><path class="cls-2" d="M5.5,9.18A.59.59,0,0,1,5.66,9c.15-.09.36-.18.47-.24L7,8.34,7.65,8a7.56,7.56,0,0,1,.71-.3,9.85,9.85,0,0,0,1-.37l.39-.11L10.43,7l.09,0c.38-.1.58-.13.77-.17l.77-.13c.3,0,.61-.08.91-.1s.62,0,.92,0,.6,0,.9,0a5,5,0,0,1,.78,0,9.82,9.82,0,0,1,2.86.33.28.28,0,0,1-.05.3,2.41,2.41,0,0,1-.5.07c-.56,0-1.16-.08-1.72-.08H16a5.88,5.88,0,0,0-2,.13h-.07a15.77,15.77,0,0,0-2.47.44l-.76.14-.92.16-.93.17a5.53,5.53,0,0,0-.9.28l-.89.32c-.28.1-.56.19-.83.3C6.11,9.17,5.36,9.45,5.5,9.18Z"/><path class="cls-2" d="M201.48,10.88a.37.37,0,0,0-.14-.14c-.14-.09-.33-.17-.43-.23l-.74-.4-.62-.33a5.17,5.17,0,0,0-.64-.28c-.29-.1-.58-.22-.86-.34l-.35-.11-.65-.24-.09,0c-.34-.09-.51-.12-.68-.16l-.7-.13a7.64,7.64,0,0,0-.82-.1,7.87,7.87,0,0,0-.84,0h-.81a5.45,5.45,0,0,0-.7,0,9,9,0,0,0-2.59.23.27.27,0,0,0,0,.3s.39.09.45.1c.5.06,1,0,1.55,0h.2a5.24,5.24,0,0,1,1.76.16h.06a15.16,15.16,0,0,1,2.23.44l.68.14c.55.11,1.11.18,1.67.3a7.76,7.76,0,0,1,.82.25c.27.1.53.21.8.29s.51.17.75.27S201.61,11.13,201.48,10.88Z"/><path class="cls-2" d="M6.6,10.88a.41.41,0,0,1,.15-.14c.14-.09.33-.17.42-.23l.75-.4.62-.33a4.59,4.59,0,0,1,.64-.28c.29-.1.57-.22.85-.34l.36-.11L11,8.81l.08,0,.69-.16.69-.13a7.83,7.83,0,0,1,.83-.1,7.81,7.81,0,0,1,.83,0H15a5.61,5.61,0,0,1,.71,0,9,9,0,0,1,2.59.23.32.32,0,0,1,0,.3,1.56,1.56,0,0,1-.46.1c-.5.06-1,0-1.55,0H16a5.28,5.28,0,0,0-1.77.16h-.06A15.29,15.29,0,0,0,12,9.6l-.68.14c-.56.11-1.12.18-1.67.3a7.1,7.1,0,0,0-.82.25c-.27.1-.53.21-.81.29l-.75.27C7.17,10.89,6.48,11.13,6.6,10.88Z"/><path class="cls-2" d="M201,12.8a.37.37,0,0,0-.1-.18,1.7,1.7,0,0,0-.39-.31,6.26,6.26,0,0,0-.77-.4c-.42-.19-.82-.4-1.26-.55a7.64,7.64,0,0,1-.83-.35l-.34-.12q-.32-.12-.63-.27l-.08,0c-.66-.22-.66-.22-1.33-.41a9.09,9.09,0,0,0-1.64-.29l-.81-.06a5.7,5.7,0,0,0-.71,0c-.44,0-.88,0-1.32,0a2.57,2.57,0,0,0-1.27.34.31.31,0,0,0,.08.29s.39,0,.45,0c.48,0,1-.11,1.5-.1l.19,0a4,4,0,0,1,1.71.26h.06a16.87,16.87,0,0,1,2.17.65l.67.2c.55.15,1.12.25,1.68.37s1.09.35,1.65.49a4,4,0,0,1,.71.25l.35.17C200.84,12.88,201,12.94,201,12.8Z"/><path class="cls-2" d="M7.13,12.8a.34.34,0,0,1,.09-.18,1.73,1.73,0,0,1,.4-.31,6.26,6.26,0,0,1,.77-.4c.42-.19.82-.4,1.26-.55a8.58,8.58,0,0,0,.83-.35l.34-.12q.31-.12.63-.27l.08,0c.66-.22.66-.22,1.33-.41A8.94,8.94,0,0,1,14.5,9.9c.27,0,.54,0,.81-.06a5.54,5.54,0,0,1,.71,0c.43,0,.87,0,1.32,0a2.5,2.5,0,0,1,1.26.34.3.3,0,0,1-.07.29s-.39,0-.45,0c-.49,0-1-.11-1.5-.1l-.19,0a4.08,4.08,0,0,0-1.72.26h-.06a17.21,17.21,0,0,0-2.16.65l-.67.2c-.55.15-1.12.25-1.68.37s-1.1.35-1.65.49a4,4,0,0,0-.71.25l-.35.17C7.25,12.88,7.13,12.94,7.13,12.8Z"/><path class="cls-2" d="M201.83,15.17a.38.38,0,0,0-.15-.16c-.14-.11-.34-.2-.44-.27l-.8-.48-.65-.38c-.23-.12-.45-.22-.69-.32s-.63-.25-.93-.39l-.38-.12-.71-.26-.09,0-.75-.18c-.19,0-.38-.08-.76-.14a6.88,6.88,0,0,0-.9-.1l-.46,0h-.45c-.29,0-.59,0-.88,0a6.52,6.52,0,0,0-.77,0,9.13,9.13,0,0,0-2.8.41.26.26,0,0,0,.06.29,1.6,1.6,0,0,0,.5.06c.54,0,1.12-.11,1.67-.13h.21a5.64,5.64,0,0,1,1.92.1h.07c.41,0,.81.1,1.22.17s.8.17,1.19.27l.37.07.37.08.9.18c.3,0,.6.12.9.19a6.51,6.51,0,0,1,.88.3c.28.12.57.25.86.36s.53.21.79.33S202,15.43,201.83,15.17Z"/><path class="cls-2" d="M6.25,15.17A.45.45,0,0,1,6.4,15c.15-.11.35-.2.45-.27l.79-.48.66-.38A7.27,7.27,0,0,1,9,13.56c.32-.12.62-.25.93-.39l.38-.12.71-.26.09,0c.37-.1.56-.14.75-.18l.76-.14a6.88,6.88,0,0,1,.9-.1l.45,0h.46c.29,0,.59,0,.88,0a6.61,6.61,0,0,1,.77,0,9.13,9.13,0,0,1,2.8.41.28.28,0,0,1-.06.29,1.6,1.6,0,0,1-.5.06c-.54,0-1.12-.11-1.67-.13h-.21a5.62,5.62,0,0,0-1.92.1h-.07c-.41,0-.81.1-1.22.17l-1.2.27-.36.07-.37.08-.9.18c-.3,0-.6.12-.9.19a6.51,6.51,0,0,0-.88.3c-.29.12-.57.25-.86.36s-.53.21-.79.33S6.13,15.43,6.25,15.17Z"/><path class="cls-2" d="M200,17a.33.33,0,0,0-.15-.13c-.15-.08-.34-.15-.45-.2l-.77-.38a10.43,10.43,0,0,0-1.26-.61c-.3-.11-.58-.24-.85-.37l-.35-.13c-.22-.08-.44-.17-.65-.27l-.08,0-.69-.21-.69-.18a7.6,7.6,0,0,0-.83-.16,7.42,7.42,0,0,0-.84-.1l-.82-.05a5.79,5.79,0,0,0-.72,0,4.85,4.85,0,0,1-.66,0c-.22,0-.44,0-.67,0a4.85,4.85,0,0,0-.66,0,3,3,0,0,0-.65.17.32.32,0,0,0,0,.3,1.71,1.71,0,0,0,.46.1c.5.06,1.05,0,1.56,0l.2,0a5.11,5.11,0,0,1,1.77.27h.06a17,17,0,0,1,2.22.61l.69.18c.56.15,1.13.25,1.69.38s1.1.39,1.66.57l.78.24C199.47,17,200.18,17.23,200,17Z"/><path class="cls-2" d="M8.05,17a.43.43,0,0,1,.16-.13c.14-.08.34-.15.44-.2l.77-.38a9.88,9.88,0,0,1,1.27-.61c.29-.11.57-.24.85-.37l.35-.13c.22-.08.43-.17.65-.27l.08,0,.68-.21.69-.18a8.09,8.09,0,0,1,.83-.16,8,8,0,0,1,.84-.1l.83-.05a5.63,5.63,0,0,1,.71,0,5,5,0,0,0,.67,0c.22,0,.44,0,.67,0a4.85,4.85,0,0,1,.66,0,3,3,0,0,1,.65.17.32.32,0,0,1,0,.3,1.71,1.71,0,0,1-.46.1c-.51.06-1.05,0-1.56,0l-.2,0a5.11,5.11,0,0,0-1.77.27h-.06a17.53,17.53,0,0,0-2.23.61l-.68.18c-.56.15-1.13.25-1.7.38s-1.1.39-1.66.57c-.26.08-.52.15-.77.24S7.91,17.23,8.05,17Z"/><path class="cls-2" d="M200.72,18.85a.42.42,0,0,0-.16-.12c-.15-.07-.35-.12-.45-.16l-.78-.31c-.43-.17-.83-.36-1.28-.49a8.51,8.51,0,0,1-.85-.29l-.35-.1-.64-.22-.08,0c-.67-.17-.67-.16-1.34-.31a12.5,12.5,0,0,0-1.61-.24l-.79-.08c-.22,0-.47-.08-.69-.08-.44,0-.87-.06-1.32-.07a2,2,0,0,0-1.27.3.29.29,0,0,0,.08.29,1.51,1.51,0,0,0,.43,0c.47,0,1-.05,1.47,0l.19,0a5.22,5.22,0,0,1,1.72.35h.06c.74.16,1.47.37,2.2.57l.68.15c.56.11,1.13.16,1.69.25s1.1.29,1.66.41c.26.05.52.1.77.17S200.88,19.08,200.72,18.85Z"/><path class="cls-2" d="M7.37,18.85a.42.42,0,0,1,.16-.12c.15-.07.34-.12.45-.16l.78-.31A13,13,0,0,1,10,17.77a8.51,8.51,0,0,0,.85-.29l.35-.1.64-.22.08,0c.67-.17.67-.16,1.34-.31a12.5,12.5,0,0,1,1.61-.24l.79-.08c.22,0,.47-.08.69-.08.44,0,.87-.06,1.31-.07a2.05,2.05,0,0,1,1.28.3.34.34,0,0,1-.08.29,1.58,1.58,0,0,1-.44,0c-.46,0-1-.05-1.46,0l-.19,0a5.22,5.22,0,0,0-1.72.35H15c-.74.16-1.47.37-2.21.57l-.68.15c-.55.11-1.12.16-1.68.25s-1.1.29-1.66.41c-.26.05-.52.1-.78.17C7.92,18.94,7.21,19.08,7.37,18.85Z"/><path class="cls-2" d="M200,21.26a.41.41,0,0,0-.15-.14c-.14-.09-.34-.16-.44-.22l-.76-.39-.63-.32a4.8,4.8,0,0,0-.66-.27c-.29-.1-.58-.22-.86-.34l-.36-.11-.66-.23-.09,0-.69-.17-.7-.13a8.09,8.09,0,0,0-.84-.12c-.28,0-.56,0-.83,0h-.82a5.77,5.77,0,0,0-.72,0,8.92,8.92,0,0,0-2.63.15.3.3,0,0,0,0,.29c0,.06.4.11.46.12.51.07,1.06,0,1.58,0h.19a5.43,5.43,0,0,1,1.79.21h.06a18.87,18.87,0,0,1,2.26.47l.69.14c.56.12,1.13.19,1.7.3s1.1.36,1.65.53l.77.25C199.45,21.28,200.15,21.51,200,21.26Z"/><path class="cls-2" d="M8.07,21.26a.41.41,0,0,1,.15-.14c.14-.09.34-.16.44-.22l.76-.39.63-.32a5.24,5.24,0,0,1,.65-.27c.3-.1.59-.22.87-.34l.36-.11.66-.23.08,0,.7-.17.7-.13a7.9,7.9,0,0,1,.83-.12c.28,0,.56,0,.84,0h.82a5.63,5.63,0,0,1,.71,0,8.9,8.9,0,0,1,2.63.15.28.28,0,0,1,0,.29c0,.06-.4.11-.46.12-.51.07-1.06,0-1.58,0h-.2a5.37,5.37,0,0,0-1.78.21h-.06a18.87,18.87,0,0,0-2.26.47l-.69.14c-.57.12-1.13.19-1.7.3s-1.1.36-1.66.53l-.76.25C8.64,21.28,7.93,21.51,8.07,21.26Z"/><path class="cls-2" d="M201.26,23.67a.61.61,0,0,0-.16-.17c-.16-.11-.39-.21-.5-.28l-.88-.5a9.39,9.39,0,0,0-1.5-.72c-.35-.12-.69-.25-1-.39l-.42-.12-.79-.25-.1,0a15.72,15.72,0,0,0-1.67-.28,10.94,10.94,0,0,0-2,0l-1,.06c-.26,0-.57,0-.83,0a19.71,19.71,0,0,0-3.07.2.27.27,0,0,0,0,.3,2,2,0,0,0,.54.12,13.11,13.11,0,0,0,1.88,0H190a8.42,8.42,0,0,1,2.13.07h.08a17.1,17.1,0,0,1,2.67.34l.81.14c.66.12,1.32.2,2,.35a18.21,18.21,0,0,1,1.92.68,9.37,9.37,0,0,1,.87.36C200.62,23.6,201.41,24,201.26,23.67Z"/><path class="cls-2" d="M6.82,23.67A.9.9,0,0,1,7,23.5c.16-.11.38-.21.5-.28.29-.17.58-.34.88-.5A9,9,0,0,1,9.87,22c.35-.12.69-.25,1-.39l.42-.12.79-.25.1,0a15.72,15.72,0,0,1,1.67-.28,10.92,10.92,0,0,1,2,0c.32,0,.64,0,.95.06s.58,0,.83,0a19.55,19.55,0,0,1,3.07.2.25.25,0,0,1,0,.3,2.14,2.14,0,0,1-.54.12,13.11,13.11,0,0,1-1.88,0h-.23a8.51,8.51,0,0,0-2.14.07h-.07a17,17,0,0,0-2.67.34l-.81.14c-.66.12-1.33.2-2,.35a18.21,18.21,0,0,0-1.92.68c-.29.11-.59.22-.88.36C7.46,23.6,6.68,24,6.82,23.67Z"/><path class="cls-2" d="M201,25.36a.63.63,0,0,0-.19-.15c-.16-.09-.39-.18-.51-.24l-.91-.42-.74-.35c-.25-.11-.5-.21-.76-.3s-.69-.23-1-.37c-.14,0-.28-.07-.41-.12l-.78-.26-.1,0-.8-.18-.82-.16c-.32-.06-.64-.11-1-.14l-1-.07-.95,0c-.26,0-.57-.05-.82,0a13.12,13.12,0,0,0-3.07.09.27.27,0,0,0,0,.3,2.06,2.06,0,0,0,.53.12c.59.09,1.24,0,1.84.07l.23,0a7.39,7.39,0,0,1,2.09.25H192a21.29,21.29,0,0,1,2.64.54l.81.16c.66.13,1.32.22,2,.36s1.29.4,1.95.59c.29.1.6.18.89.29C200.39,25.36,201.21,25.62,201,25.36Z"/><path class="cls-2" d="M7.05,25.36a.57.57,0,0,1,.18-.15c.17-.09.4-.18.52-.24l.9-.42.74-.35c.25-.11.51-.21.77-.3s.68-.23,1-.37l.41-.12.78-.26.09,0,.81-.18.81-.16c.32-.06.65-.11,1-.14l1-.07.95,0c.27,0,.57-.05.83,0a13,13,0,0,1,3.06.09.25.25,0,0,1,0,.3,2.16,2.16,0,0,1-.53.12c-.6.09-1.24,0-1.84.07l-.23,0a7.34,7.34,0,0,0-2.09.25h-.08a21.67,21.67,0,0,0-2.64.54l-.8.16c-.66.13-1.33.22-2,.36s-1.29.4-1.94.59c-.3.1-.6.18-.9.29C7.69,25.36,6.87,25.62,7.05,25.36Z"/><text class="cls-3" transform="translate(75.56 17.15)">Post Box</text></g></g></svg>