<svg xmlns="http://www.w3.org/2000/svg" xmlns:xlink="http://www.w3.org/1999/xlink" viewBox="0 0 234.8 234.62"><defs><style>.cls-1{mask:url(#mask);filter:url(#luminosity-noclip-3);}.cls-2,.cls-4{mix-blend-mode:multiply;}.cls-2{fill:url(#linear-gradient);}.cls-3{mask:url(#mask-2);filter:url(#luminosity-noclip-4);}.cls-4{fill:url(#linear-gradient-2);}.cls-5{fill:url(#linear-gradient-3);}.cls-6{fill:url(#linear-gradient-4);}.cls-7{fill:url(#linear-gradient-5);}.cls-8{fill:url(#linear-gradient-6);}.cls-9{fill:url(#linear-gradient-7);}.cls-10{fill:url(#linear-gradient-8);}.cls-11{fill:url(#linear-gradient-9);}.cls-12{fill:url(#linear-gradient-10);}.cls-13{fill:url(#linear-gradient-11);}.cls-14{fill:url(#linear-gradient-12);}.cls-15{fill:url(#linear-gradient-13);}.cls-16{fill:url(#linear-gradient-14);}.cls-17{fill:url(#linear-gradient-15);}.cls-18{fill:url(#linear-gradient-16);}.cls-19{fill:url(#linear-gradient-17);}.cls-20{fill:url(#linear-gradient-18);}.cls-21{fill:url(#linear-gradient-19);}.cls-22{fill:url(#linear-gradient-20);}.cls-23{fill:url(#linear-gradient-21);}.cls-24{fill:url(#linear-gradient-22);}.cls-25{fill:url(#linear-gradient-23);}.cls-26{fill:url(#linear-gradient-24);}.cls-27{fill:url(#linear-gradient-25);}.cls-28{fill:url(#linear-gradient-26);}.cls-29{fill:url(#linear-gradient-27);}.cls-30{fill:url(#linear-gradient-28);}.cls-31{fill:url(#linear-gradient-29);}.cls-32{fill:url(#linear-gradient-30);}.cls-33{fill:url(#linear-gradient-31);}.cls-34{fill:url(#linear-gradient-32);}.cls-35{fill:url(#linear-gradient-33);}.cls-36{fill:url(#linear-gradient-34);}.cls-37{fill:url(#linear-gradient-35);}.cls-38{fill:url(#linear-gradient-36);}.cls-39{fill:url(#linear-gradient-37);}.cls-40{fill:url(#linear-gradient-38);}.cls-41{fill:url(#linear-gradient-39);}.cls-42{fill:url(#linear-gradient-40);}.cls-43{fill:url(#linear-gradient-41);}.cls-44{fill:url(#linear-gradient-42);}.cls-45{fill:url(#linear-gradient-43);}.cls-46{fill:url(#linear-gradient-44);}.cls-47{fill:url(#linear-gradient-45);}.cls-48{fill:url(#linear-gradient-46);}.cls-49{fill:url(#linear-gradient-47);}.cls-50{fill:url(#linear-gradient-48);}.cls-51{fill:url(#linear-gradient-49);}.cls-52{fill:url(#linear-gradient-50);}.cls-53{fill:url(#linear-gradient-51);}.cls-54{fill:url(#linear-gradient-52);}.cls-55{fill:url(#linear-gradient-53);}.cls-56{fill:url(#linear-gradient-54);}.cls-57{fill:url(#linear-gradient-55);}.cls-58{fill:url(#linear-gradient-56);}.cls-59{fill:url(#linear-gradient-57);}.cls-60{fill:url(#linear-gradient-58);}.cls-61{fill:url(#linear-gradient-59);}.cls-62{fill:url(#linear-gradient-60);}.cls-63{fill:url(#linear-gradient-61);}.cls-64{fill:url(#linear-gradient-62);}.cls-65{fill:url(#linear-gradient-63);}.cls-66{fill:url(#linear-gradient-64);}.cls-67{fill:url(#linear-gradient-65);}.cls-68{fill:url(#linear-gradient-66);}.cls-69{fill:url(#linear-gradient-67);}.cls-70{fill:url(#linear-gradient-68);}.cls-71{fill:url(#linear-gradient-69);}.cls-72{fill:url(#linear-gradient-70);}.cls-73{fill:url(#linear-gradient-71);}.cls-74{fill:url(#linear-gradient-72);}.cls-75{fill:url(#linear-gradient-73);}.cls-76{fill:url(#linear-gradient-74);}.cls-77{fill:url(#linear-gradient-75);}.cls-78{fill:url(#linear-gradient-76);}.cls-79{fill:url(#linear-gradient-77);}.cls-80{fill:url(#linear-gradient-78);}.cls-81{fill:#191919;}.cls-82{fill:url(#linear-gradient-79);}.cls-83{mask:url(#mask-3);}.cls-84{fill:url(#linear-gradient-80);}.cls-85{fill:url(#linear-gradient-81);}.cls-86{fill:url(#linear-gradient-82);}.cls-87{mask:url(#mask-4);}.cls-88{fill:url(#linear-gradient-83);}.cls-89{fill:url(#linear-gradient-84);}.cls-90{fill:url(#linear-gradient-85);}.cls-91{fill:url(#linear-gradient-86);}.cls-92{fill:url(#linear-gradient-87);}.cls-93{fill:url(#linear-gradient-88);}.cls-94{fill:url(#linear-gradient-89);}.cls-95{fill:url(#linear-gradient-90);}.cls-96{fill:url(#linear-gradient-91);}.cls-97{fill:url(#linear-gradient-92);}.cls-98{fill:url(#linear-gradient-93);}.cls-99{fill:#fff;}.cls-100{filter:url(#luminosity-noclip-2);}.cls-101{filter:url(#luminosity-noclip);}</style><filter id="luminosity-noclip" x="13.79" y="-8494.81" width="209.48" height="32766" filterUnits="userSpaceOnUse" color-interpolation-filters="sRGB"><feFlood flood-color="#fff" result="bg"/><feBlend in="SourceGraphic" in2="bg"/></filter><mask id="mask" x="13.79" y="-8494.81" width="209.48" height="32766" maskUnits="userSpaceOnUse"><g class="cls-101"/></mask><linearGradient id="linear-gradient" x1="-1013.15" y1="1510.47" x2="-1117.9" y2="1691.89" gradientTransform="translate(1719.71 1182.11) rotate(90)" gradientUnits="userSpaceOnUse"><stop offset="0" stop-color="#fff"/><stop offset="0.54"/><stop offset="1" stop-color="#f1f1f1"/></linearGradient><filter id="luminosity-noclip-2" x="56.63" y="-8494.81" width="121.47" height="32766" filterUnits="userSpaceOnUse" color-interpolation-filters="sRGB"><feFlood flood-color="#fff" result="bg"/><feBlend in="SourceGraphic" in2="bg"/></filter><mask id="mask-2" x="56.63" y="-8494.81" width="121.47" height="32766" maskUnits="userSpaceOnUse"><g class="cls-100"/></mask><linearGradient id="linear-gradient-2" x1="-1125.53" y1="1602.35" x2="-1004.15" y2="1602.35" xlink:href="#linear-gradient"/><linearGradient id="linear-gradient-3" x1="-1073.47" y1="1307.18" x2="-1118.05" y2="1235.67" gradientTransform="translate(1623.49 866.65) rotate(77.15)" gradientUnits="userSpaceOnUse"><stop offset="0" stop-color="#e4c084"/><stop offset="1" stop-color="#121212"/></linearGradient><linearGradient id="linear-gradient-4" x1="-1070.52" y1="1305.33" x2="-1115.79" y2="1232.71" xlink:href="#linear-gradient-3"/><linearGradient id="linear-gradient-5" x1="-876.49" y1="1408.98" x2="-928.07" y2="1339.77" gradientTransform="matrix(0.14, 0.99, -0.99, 0.14, 1633.59, 784.91)" xlink:href="#linear-gradient-3"/><linearGradient id="linear-gradient-6" x1="-675.97" y1="1495.43" x2="-733.19" y2="1430.61" gradientTransform="translate(1650.13 705.56) rotate(86.65)" xlink:href="#linear-gradient-3"/><linearGradient id="linear-gradient-7" x1="-467.93" y1="1564.52" x2="-530.01" y2="1504.96" gradientTransform="translate(1672.82 626.7) rotate(91.4)" xlink:href="#linear-gradient-3"/><linearGradient id="linear-gradient-8" x1="-255.97" y1="1615.64" x2="-321.98" y2="1562.07" gradientTransform="translate(1701.67 550.78) rotate(96.15)" xlink:href="#linear-gradient-3"/><linearGradient id="linear-gradient-9" x1="-40.66" y1="1650.12" x2="-109.55" y2="1603.1" gradientTransform="translate(1737.83 477.48) rotate(100.89)" xlink:href="#linear-gradient-3"/><linearGradient id="linear-gradient-10" x1="176.81" y1="1665.29" x2="106.15" y2="1625.21" gradientTransform="translate(1778.83 406.94) rotate(105.65)" xlink:href="#linear-gradient-3"/><linearGradient id="linear-gradient-11" x1="395.11" y1="1663.42" x2="323.84" y2="1630.47" gradientTransform="matrix(-0.35, 0.94, -0.94, -0.35, 1826.6, 339.77)" xlink:href="#linear-gradient-3"/><linearGradient id="linear-gradient-12" x1="610.64" y1="1642.83" x2="539.94" y2="1617" gradientTransform="translate(1878.71 277.86) rotate(115.14)" xlink:href="#linear-gradient-3"/><linearGradient id="linear-gradient-13" x1="824.5" y1="1604.73" x2="755.53" y2="1585.84" gradientTransform="translate(1936.35 219.73) rotate(119.89)" xlink:href="#linear-gradient-3"/><linearGradient id="linear-gradient-14" x1="1034.58" y1="1550.26" x2="968.46" y2="1537.92" gradientTransform="matrix(-0.57, 0.82, -0.82, -0.57, 1999.57, 166.8)" xlink:href="#linear-gradient-3"/><linearGradient id="linear-gradient-15" x1="1237.52" y1="1477.12" x2="1175.29" y2="1470.78" gradientTransform="translate(2064.98 119.57) rotate(129.39)" xlink:href="#linear-gradient-3"/><linearGradient id="linear-gradient-16" x1="1434.63" y1="1388.32" x2="1377.21" y2="1387.24" gradientTransform="matrix(-0.7, 0.72, -0.72, -0.7, 2135.18, 77.6)" xlink:href="#linear-gradient-3"/><linearGradient id="linear-gradient-17" x1="1623.19" y1="1283.99" x2="1571.39" y2="1287.32" gradientTransform="matrix(-0.75, 0.66, -0.66, -0.75, 2208.55, 41.93)" xlink:href="#linear-gradient-3"/><linearGradient id="linear-gradient-18" x1="1803.31" y1="1163.53" x2="1757.75" y2="1170.28" gradientTransform="translate(2284.74 11.21) rotate(143.64)" xlink:href="#linear-gradient-3"/><linearGradient id="linear-gradient-19" x1="1971.99" y1="1029.93" x2="1933.16" y2="1039.02" gradientTransform="matrix(-0.85, 0.52, -0.52, -0.85, 2363.15, -11.99)" xlink:href="#linear-gradient-3"/><linearGradient id="linear-gradient-20" x1="2128.78" y1="882.52" x2="2096.97" y2="892.81" gradientTransform="matrix(-0.89, 0.45, -0.45, -0.89, 2442.85, -29.01)" xlink:href="#linear-gradient-3"/><linearGradient id="linear-gradient-21" x1="2273.23" y1="723.86" x2="2248.53" y2="734.18" gradientTransform="matrix(-0.93, 0.38, -0.38, -0.93, 2524.26, -38.74)" xlink:href="#linear-gradient-3"/><linearGradient id="linear-gradient-22" x1="2403.87" y1="553.25" x2="2386.19" y2="562.43" gradientTransform="translate(2605.87 -42.32) rotate(162.63)" xlink:href="#linear-gradient-3"/><linearGradient id="linear-gradient-23" x1="2519.89" y1="373.6" x2="2508.93" y2="380.5" gradientTransform="translate(2687.46 -38.37) rotate(167.38)" xlink:href="#linear-gradient-3"/><linearGradient id="linear-gradient-24" x1="2619.92" y1="184.29" x2="2615.22" y2="187.82" gradientTransform="matrix(-0.99, 0.14, -0.14, -0.99, 2767.7, -28.47)" xlink:href="#linear-gradient-3"/><linearGradient id="linear-gradient-25" x1="2707.16" y1="-13.48" x2="2704.95" y2="-11.51" gradientTransform="matrix(-1, 0.05, -0.05, -1, 2848.09, -11.58)" xlink:href="#linear-gradient-3"/><linearGradient id="linear-gradient-26" x1="2780.85" y1="-222.08" x2="2773.93" y2="-214.81" gradientTransform="translate(2926.58 11.23) rotate(-178.37)" xlink:href="#linear-gradient-3"/><linearGradient id="linear-gradient-27" x1="2836.47" y1="-434.8" x2="2825.78" y2="-421.51" gradientTransform="translate(3002.34 41.55) rotate(-173.63)" xlink:href="#linear-gradient-3"/><linearGradient id="linear-gradient-28" x1="2874.16" y1="-652.38" x2="2860.73" y2="-632.54" gradientTransform="translate(3075.68 77.4) rotate(-168.88)" xlink:href="#linear-gradient-3"/><linearGradient id="linear-gradient-29" x1="2893.05" y1="-872.86" x2="2878" y2="-846.09" gradientTransform="translate(3145.7 118.71) rotate(-164.13)" xlink:href="#linear-gradient-3"/><linearGradient id="linear-gradient-30" x1="2894.42" y1="-1093.6" x2="2878.93" y2="-1059.73" gradientTransform="translate(3212.6 166.61) rotate(-159.38)" xlink:href="#linear-gradient-3"/><linearGradient id="linear-gradient-31" x1="2875.66" y1="-1314.15" x2="2860.89" y2="-1273.2" gradientTransform="translate(3274.48 218.72) rotate(-154.63)" xlink:href="#linear-gradient-3"/><linearGradient id="linear-gradient-32" x1="2839.59" y1="-1531.49" x2="2826.7" y2="-1483.66" gradientTransform="matrix(-0.86, -0.5, 0.5, -0.86, 3332.08, 277.01)" xlink:href="#linear-gradient-3"/><linearGradient id="linear-gradient-33" x1="2784.9" y1="-1745.55" x2="2774.99" y2="-1691.25" gradientTransform="translate(3384.74 339.22) rotate(-145.13)" xlink:href="#linear-gradient-3"/><linearGradient id="linear-gradient-34" x1="2713.15" y1="-1954.61" x2="2707.26" y2="-1894.42" gradientTransform="matrix(-0.77, -0.64, 0.64, -0.77, 3432.78, 405.91)" xlink:href="#linear-gradient-3"/><linearGradient id="linear-gradient-35" x1="2623.42" y1="-2155.17" x2="2622.46" y2="-2089.81" gradientTransform="matrix(-0.71, -0.7, 0.7, -0.71, 3473.48, 476.54)" xlink:href="#linear-gradient-3"/><linearGradient id="linear-gradient-36" x1="2517.91" y1="-2348.91" x2="2522.66" y2="-2279.26" gradientTransform="translate(3509.75 550.32) rotate(-130.88)" xlink:href="#linear-gradient-3"/><linearGradient id="linear-gradient-37" x1="2395.58" y1="-2532.46" x2="2406.68" y2="-2459.52" gradientTransform="translate(3539 626.12) rotate(-126.14)" xlink:href="#linear-gradient-3"/><linearGradient id="linear-gradient-38" x1="2258.62" y1="-2705.68" x2="2276.53" y2="-2630.54" gradientTransform="matrix(-0.52, -0.85, 0.85, -0.52, 3562.6, 704.16)" xlink:href="#linear-gradient-3"/><linearGradient id="linear-gradient-39" x1="2107.94" y1="-2864.88" x2="2132.92" y2="-2788.68" gradientTransform="translate(3577.94 784.34) rotate(-116.64)" xlink:href="#linear-gradient-3"/><linearGradient id="linear-gradient-40" x1="1944.7" y1="-3012.83" x2="1976.83" y2="-2936.76" gradientTransform="matrix(-0.37, -0.93, 0.93, -0.37, 3588.64, 865.49)" xlink:href="#linear-gradient-3"/><linearGradient id="linear-gradient-41" x1="1769.51" y1="-3145.76" x2="1808.68" y2="-3070.98" gradientTransform="translate(3591.9 946.94) rotate(-107.14)" xlink:href="#linear-gradient-3"/><linearGradient id="linear-gradient-42" x1="1584.17" y1="-3262.97" x2="1630.08" y2="-3190.63" gradientTransform="translate(3587.9 1028.49) rotate(-102.39)" xlink:href="#linear-gradient-3"/><linearGradient id="linear-gradient-43" x1="1390.03" y1="-3364.46" x2="1442.18" y2="-3295.62" gradientTransform="translate(3577.41 1109.62) rotate(-97.64)" xlink:href="#linear-gradient-3"/><linearGradient id="linear-gradient-44" x1="1188.21" y1="-3449.21" x2="1245.94" y2="-3384.86" gradientTransform="translate(3560.18 1189.47) rotate(-92.89)" xlink:href="#linear-gradient-3"/><linearGradient id="linear-gradient-45" x1="980" y1="-3517.47" x2="1042.5" y2="-3458.46" gradientTransform="matrix(0.03, -1, 1, 0.03, 3537.27, 1267.6)" xlink:href="#linear-gradient-3"/><linearGradient id="linear-gradient-46" x1="767.14" y1="-3567.22" x2="833.47" y2="-3514.26" gradientTransform="translate(3507.06 1343.19) rotate(-83.4)" xlink:href="#linear-gradient-3"/><linearGradient id="linear-gradient-47" x1="551.9" y1="-3598.75" x2="621.02" y2="-3552.38" gradientTransform="translate(3469.95 1416.59) rotate(-78.65)" xlink:href="#linear-gradient-3"/><linearGradient id="linear-gradient-48" x1="333.98" y1="-3613.03" x2="404.75" y2="-3573.63" gradientTransform="translate(3428.35 1486.1) rotate(-73.9)" xlink:href="#linear-gradient-3"/><linearGradient id="linear-gradient-49" x1="116.87" y1="-3609.08" x2="188.14" y2="-3576.81" gradientTransform="translate(3380.31 1552.74) rotate(-69.15)" xlink:href="#linear-gradient-3"/><linearGradient id="linear-gradient-50" x1="-99.01" y1="-3587.6" x2="-28.43" y2="-3562.45" gradientTransform="translate(3327.43 1615.41) rotate(-64.4)" xlink:href="#linear-gradient-3"/><linearGradient id="linear-gradient-51" x1="-312.92" y1="-3547.2" x2="-244.18" y2="-3528.96" gradientTransform="matrix(0.51, -0.86, 0.86, 0.51, 3269.27, 1671.68)" xlink:href="#linear-gradient-3"/><linearGradient id="linear-gradient-52" x1="-521.89" y1="-3490.84" x2="-456.1" y2="-3479.1" gradientTransform="matrix(0.58, -0.82, 0.82, 0.58, 3207.3, 1724.89)" xlink:href="#linear-gradient-3"/><linearGradient id="linear-gradient-53" x1="-725.22" y1="-3416.2" x2="-663.41" y2="-3410.39" gradientTransform="translate(3140.12 1771.38) rotate(-50.16)" xlink:href="#linear-gradient-3"/><linearGradient id="linear-gradient-54" x1="-921.37" y1="-3326.05" x2="-864.45" y2="-3325.44" gradientTransform="matrix(0.7, -0.71, 0.71, 0.7, 3069.85, 1813.2)" xlink:href="#linear-gradient-3"/><linearGradient id="linear-gradient-55" x1="-1108.95" y1="-3219.58" x2="-1057.71" y2="-3223.28" gradientTransform="translate(2995.67 1848.5) rotate(-40.66)" xlink:href="#linear-gradient-3"/><linearGradient id="linear-gradient-56" x1="-1287.77" y1="-3098.88" x2="-1242.85" y2="-3105.9" gradientTransform="matrix(0.81, -0.59, 0.59, 0.81, 2920.24, 1877.87)" xlink:href="#linear-gradient-3"/><linearGradient id="linear-gradient-57" x1="-1454.92" y1="-2963.2" x2="-1416.76" y2="-2972.46" gradientTransform="translate(2840.99 1900.31) rotate(-31.16)" xlink:href="#linear-gradient-3"/><linearGradient id="linear-gradient-58" x1="-1610.84" y1="-2814.84" x2="-1579.72" y2="-2825.18" gradientTransform="matrix(0.9, -0.44, 0.44, 0.9, 2761.13, 1916.35)" xlink:href="#linear-gradient-3"/><linearGradient id="linear-gradient-59" x1="-1753.79" y1="-2654.89" x2="-1729.78" y2="-2665.15" gradientTransform="matrix(0.93, -0.37, 0.37, 0.93, 2680.22, 1926.46)" xlink:href="#linear-gradient-3"/><linearGradient id="linear-gradient-60" x1="-1882.8" y1="-2482.98" x2="-1865.78" y2="-2491.99" gradientTransform="translate(2598.13 1928.62) rotate(-16.91)" xlink:href="#linear-gradient-3"/><linearGradient id="linear-gradient-61" x1="-1997.51" y1="-2301.74" x2="-1987.17" y2="-2308.35" gradientTransform="translate(2516.62 1924.57) rotate(-12.16)" xlink:href="#linear-gradient-3"/><linearGradient id="linear-gradient-62" x1="-2097.31" y1="-2111.71" x2="-2093.17" y2="-2114.87" gradientTransform="matrix(0.99, -0.13, 0.13, 0.99, 2436.18, 1913.51)" xlink:href="#linear-gradient-3"/><linearGradient id="linear-gradient-63" x1="-2182.59" y1="-1913.12" x2="-2179.89" y2="-1915.56" gradientTransform="matrix(1, -0.05, 0.05, 1, 2356.07, 1896.75)" xlink:href="#linear-gradient-3"/><linearGradient id="linear-gradient-64" x1="-2254.62" y1="-1704.1" x2="-2247.29" y2="-1711.93" gradientTransform="translate(2278.29 1872.16) rotate(2.08)" xlink:href="#linear-gradient-3"/><linearGradient id="linear-gradient-65" x1="-2308.95" y1="-1490.31" x2="-2297.94" y2="-1504.21" gradientTransform="matrix(0.99, 0.12, -0.12, 0.99, 2202.85, 1842.08)" xlink:href="#linear-gradient-3"/><linearGradient id="linear-gradient-66" x1="-2344.48" y1="-1272.3" x2="-2330.85" y2="-1292.8" gradientTransform="matrix(0.98, 0.2, -0.2, 0.98, 2129.39, 1805.29)" xlink:href="#linear-gradient-3"/><linearGradient id="linear-gradient-67" x1="-2362.06" y1="-1053.23" x2="-2346.93" y2="-1080.67" gradientTransform="matrix(0.96, 0.28, -0.28, 0.96, 2059.59, 1764.2)" xlink:href="#linear-gradient-3"/><linearGradient id="linear-gradient-68" x1="-2361.13" y1="-831.62" x2="-2345.65" y2="-866.18" gradientTransform="matrix(0.93, 0.36, -0.36, 0.93, 1993.99, 1715.25)" xlink:href="#linear-gradient-3"/><linearGradient id="linear-gradient-69" x1="-2341.3" y1="-611.43" x2="-2326.65" y2="-653.06" gradientTransform="translate(1932.11 1661.6) rotate(25.82)" xlink:href="#linear-gradient-3"/><linearGradient id="linear-gradient-70" x1="-2303.36" y1="-394.78" x2="-2290.7" y2="-443.25" gradientTransform="translate(1874.76 1604.37) rotate(30.58)" xlink:href="#linear-gradient-3"/><linearGradient id="linear-gradient-71" x1="-2246.93" y1="-180.9" x2="-2237.36" y2="-235.8" gradientTransform="translate(1822.59 1541.05) rotate(35.32)" xlink:href="#linear-gradient-3"/><linearGradient id="linear-gradient-72" x1="-2172.55" y1="26.74" x2="-2167.09" y2="-33.98" gradientTransform="translate(1775.25 1474.19) rotate(40.08)" xlink:href="#linear-gradient-3"/><linearGradient id="linear-gradient-73" x1="-2081.69" y1="227.99" x2="-2081.24" y2="162.17" gradientTransform="matrix(0.71, 0.7, -0.7, 0.71, 1734.68, 1403.48)" xlink:href="#linear-gradient-3"/><linearGradient id="linear-gradient-74" x1="-1973.93" y1="420.45" x2="-1979.27" y2="350.44" gradientTransform="matrix(0.65, 0.76, -0.76, 0.65, 1699.53, 1329.68)" xlink:href="#linear-gradient-3"/><linearGradient id="linear-gradient-75" x1="-1851.01" y1="602.8" x2="-1862.75" y2="529.6" gradientTransform="matrix(0.58, 0.81, -0.81, 0.58, 1670.82, 1253.85)" xlink:href="#linear-gradient-3"/><linearGradient id="linear-gradient-76" x1="-1712.33" y1="774.26" x2="-1730.91" y2="698.97" gradientTransform="matrix(0.51, 0.86, -0.86, 0.51, 1647.96, 1174.96)" xlink:href="#linear-gradient-3"/><linearGradient id="linear-gradient-77" x1="-1560.15" y1="933.48" x2="-1585.82" y2="857.24" gradientTransform="translate(1631.99 1094.62) rotate(63.82)" xlink:href="#linear-gradient-3"/><linearGradient id="linear-gradient-78" x1="-1395.51" y1="1079.73" x2="-1428.33" y2="1003.73" gradientTransform="translate(1623.24 1013.17) rotate(68.57)" xlink:href="#linear-gradient-3"/><linearGradient id="linear-gradient-79" x1="-1125.53" y1="1602.35" x2="-1004.15" y2="1602.35" gradientTransform="translate(1719.71 1182.11) rotate(90)" gradientUnits="userSpaceOnUse"><stop offset="0" stop-color="#b68d5d"/><stop offset="0.07" stop-color="#bd9463"/><stop offset="0.51" stop-color="#e4c084"/><stop offset="1" stop-color="#b68d5d"/></linearGradient><filter id="luminosity-noclip-3" x="13.79" y="11.93" width="209.48" height="209.32" filterUnits="userSpaceOnUse" color-interpolation-filters="sRGB"><feFlood flood-color="#fff" result="bg"/><feBlend in="SourceGraphic" in2="bg"/></filter><mask id="mask-3" x="13.79" y="11.93" width="209.48" height="209.32" maskUnits="userSpaceOnUse"><g class="cls-1"><path class="cls-2" d="M13.79,116.59A104.78,104.78,0,0,1,215,75.85,104.76,104.76,0,0,1,22,157.33,104,104,0,0,1,13.79,116.59Zm208.6,0A103.87,103.87,0,0,0,45.09,43.21,103.82,103.82,0,0,0,192,190,103,103,0,0,0,222.39,116.59Z"/></g></mask><linearGradient id="linear-gradient-80" x1="-1013.15" y1="1510.47" x2="-1117.9" y2="1691.89" gradientTransform="translate(1719.71 1182.11) rotate(90)" gradientUnits="userSpaceOnUse"><stop offset="0" stop-color="#e2b673"/><stop offset="0.54"/><stop offset="1" stop-color="#d0a86b"/></linearGradient><linearGradient id="linear-gradient-81" x1="-966.01" y1="1602.1" x2="-956.6" y2="1602.1" xlink:href="#linear-gradient-79"/><linearGradient id="linear-gradient-82" x1="-1174.01" y1="1602.1" x2="-1165.48" y2="1602.1" xlink:href="#linear-gradient-79"/><filter id="luminosity-noclip-4" x="56.63" y="56.59" width="121.47" height="121.37" filterUnits="userSpaceOnUse" color-interpolation-filters="sRGB"><feFlood flood-color="#fff" result="bg"/><feBlend in="SourceGraphic" in2="bg"/></filter><mask id="mask-4" x="56.63" y="56.59" width="121.47" height="121.37" maskUnits="userSpaceOnUse"><g class="cls-3"><path class="cls-4" d="M56.63,117.27A60.74,60.74,0,1,1,117.37,178,60.78,60.78,0,0,1,56.63,117.27Zm120.59,0a59.86,59.86,0,1,0-59.85,59.81A59.9,59.9,0,0,0,177.22,117.27Z"/></g></mask><linearGradient id="linear-gradient-83" x1="-1125.53" y1="1602.35" x2="-1004.15" y2="1602.35" xlink:href="#linear-gradient-80"/><linearGradient id="linear-gradient-84" x1="-1094.52" y1="1602.35" x2="-1035.16" y2="1602.35" xlink:href="#linear-gradient-79"/><linearGradient id="linear-gradient-85" x1="-1068.07" y1="1708.71" x2="-1061.61" y2="1702.26" xlink:href="#linear-gradient-79"/><linearGradient id="linear-gradient-86" x1="1598.97" y1="792.02" x2="1605.42" y2="785.57" gradientTransform="translate(-566.25 1719.47) rotate(-90)" xlink:href="#linear-gradient-79"/><linearGradient id="linear-gradient-87" x1="-995.45" y1="1678.58" x2="-989" y2="1672.13" xlink:href="#linear-gradient-79"/><linearGradient id="linear-gradient-88" x1="1672.04" y1="1679.04" x2="1678.5" y2="1672.59" gradientTransform="matrix(0, -1, -1, 0, 1719.71, 1719.47)" xlink:href="#linear-gradient-79"/><linearGradient id="linear-gradient-89" x1="2021.33" y1="1012.93" x2="2027.78" y2="1006.48" gradientTransform="translate(-818.1 2215.84) rotate(-90)" xlink:href="#linear-gradient-79"/><linearGradient id="linear-gradient-90" x1="-239.8" y1="1674.12" x2="-233.35" y2="1667.67" gradientTransform="translate(1862.5 279.63) rotate(90)" xlink:href="#linear-gradient-79"/><linearGradient id="linear-gradient-91" x1="-1182.11" y1="1702.23" x2="-1147.18" y2="1702.23" xlink:href="#linear-gradient-79"/><linearGradient id="linear-gradient-92" x1="-1176.35" y1="1702.13" x2="-1152.9" y2="1702.13" xlink:href="#linear-gradient-79"/><linearGradient id="linear-gradient-93" x1="-982.57" y1="1502.46" x2="-947.5" y2="1502.46" xlink:href="#linear-gradient-79"/></defs><g id="레이어_2" data-name="레이어 2"><g id="레이어_1-2" data-name="레이어 1"><path class="cls-5" d="M116.93,117.27A.41.41,0,0,1,117,117l45.57-72.45a.45.45,0,0,1,.61-.14.46.46,0,0,1,.14.61l-45.58,72.45a.44.44,0,0,1-.81-.24Z"/><path class="cls-6" d="M116.93,117.28A.44.44,0,0,1,117,117l51.42-68.43a.44.44,0,0,1,.61-.09.44.44,0,0,1,.09.62l-51.42,68.43a.44.44,0,0,1-.61.09A.44.44,0,0,1,116.93,117.28Z"/><path class="cls-7" d="M116.93,117.28a.48.48,0,0,1,.11-.3L174,53a.44.44,0,1,1,.65.58l-56.91,64a.44.44,0,0,1-.62,0A.41.41,0,0,1,116.93,117.28Z"/><path class="cls-8" d="M116.93,117.28a.43.43,0,0,1,.14-.32l62-59a.44.44,0,0,1,.61.64l-62,59a.44.44,0,0,1-.62,0A.46.46,0,0,1,116.93,117.28Z"/><path class="cls-9" d="M116.93,117.28a.48.48,0,0,1,.16-.35l66.7-53.68a.43.43,0,0,1,.61.07.42.42,0,0,1-.06.61l-66.69,53.69a.44.44,0,0,1-.62-.07A.41.41,0,0,1,116.93,117.28Z"/><path class="cls-10" d="M116.93,117.28a.47.47,0,0,1,.19-.37l70.92-48a.44.44,0,0,1,.61.12.45.45,0,0,1-.12.61l-70.91,48a.44.44,0,0,1-.61-.12A.37.37,0,0,1,116.93,117.28Z"/><path class="cls-11" d="M116.93,117.28a.44.44,0,0,1,.22-.39L191.8,74.94a.44.44,0,0,1,.43.77l-74.65,42a.43.43,0,0,1-.59-.17A.42.42,0,0,1,116.93,117.28Z"/><path class="cls-12" d="M116.93,117.28a.44.44,0,0,1,.26-.4l77.86-35.64a.44.44,0,0,1,.37.8l-77.87,35.63a.43.43,0,0,1-.58-.21A.39.39,0,0,1,116.93,117.28Z"/><path class="cls-13" d="M116.93,117.28a.45.45,0,0,1,.29-.42l80.55-29.07a.44.44,0,0,1,.56.27.43.43,0,0,1-.26.56l-80.55,29.07a.44.44,0,0,1-.56-.27A.35.35,0,0,1,116.93,117.28Z"/><path class="cls-14" d="M116.93,117.28a.44.44,0,0,1,.32-.43l82.69-22.3a.43.43,0,1,1,.22.84L117.48,117.7a.44.44,0,0,1-.53-.31A.23.23,0,0,1,116.93,117.28Z"/><path class="cls-15" d="M116.93,117.27a.45.45,0,0,1,.36-.43l84.24-15.39a.46.46,0,0,1,.52.36.45.45,0,0,1-.36.51l-84.24,15.39a.44.44,0,0,1-.51-.36A.19.19,0,0,1,116.93,117.27Z"/><path class="cls-16" d="M116.93,117.27a.43.43,0,0,1,.4-.43l85.23-8.37a.44.44,0,1,1,.08.87l-85.23,8.37a.44.44,0,0,1-.48-.39Z"/><path class="cls-17" d="M116.93,117.28a.44.44,0,0,1,.43-.44L203,115.55a.43.43,0,0,1,.45.43.46.46,0,0,1-.43.45l-85.63,1.28a.43.43,0,0,1-.45-.43Z"/><path class="cls-18" d="M116.93,117.28v0a.44.44,0,0,1,.47-.41l85.44,5.8a.44.44,0,1,1-.06.87l-85.44-5.8A.44.44,0,0,1,116.93,117.28Z"/><path class="cls-19" d="M116.93,117.28v-.07a.46.46,0,0,1,.51-.37l84.67,12.85a.43.43,0,0,1,.36.5.44.44,0,0,1-.5.37L117.3,117.71A.44.44,0,0,1,116.93,117.28Z"/><path class="cls-20" d="M116.93,117.28a.41.41,0,0,1,0-.11.44.44,0,0,1,.53-.32l83.32,19.81a.44.44,0,1,1-.21.85L117.27,117.7A.45.45,0,0,1,116.93,117.28Z"/><path class="cls-21" d="M116.93,117.28a.59.59,0,0,1,0-.14.44.44,0,0,1,.56-.28l81.38,26.63a.44.44,0,1,1-.27.83l-81.39-26.63A.44.44,0,0,1,116.93,117.28Z"/><path class="cls-22" d="M116.93,117.28a.57.57,0,0,1,0-.18.45.45,0,0,1,.58-.23l78.9,33.27a.45.45,0,0,1,.24.58.44.44,0,0,1-.58.23l-78.9-33.27A.43.43,0,0,1,116.93,117.28Z"/><path class="cls-23" d="M116.93,117.27a.53.53,0,0,1,0-.2.43.43,0,0,1,.59-.18l75.88,39.68a.44.44,0,0,1,.18.59.44.44,0,0,1-.59.19l-75.87-39.69A.43.43,0,0,1,116.93,117.27Z"/><path class="cls-24" d="M116.93,117.27A.39.39,0,0,1,117,117a.44.44,0,0,1,.6-.14l72.33,45.83a.44.44,0,0,1,.14.61.45.45,0,0,1-.61.13l-72.33-45.82A.46.46,0,0,1,116.93,117.27Z"/><path class="cls-25" d="M116.93,117.28A.44.44,0,0,1,117,117a.43.43,0,0,1,.61-.08l68.28,51.65a.42.42,0,0,1,.09.61.45.45,0,0,1-.62.09L117.1,117.63A.46.46,0,0,1,116.93,117.28Z"/><path class="cls-26" d="M116.93,117.28a.48.48,0,0,1,.11-.3.44.44,0,0,1,.62,0l63.77,57.12a.44.44,0,0,1-.59.66L117.08,117.6A.41.41,0,0,1,116.93,117.28Z"/><path class="cls-27" d="M116.93,117.28a.43.43,0,0,1,.14-.32.44.44,0,0,1,.62,0l58.81,62.21a.44.44,0,0,1,0,.62.46.46,0,0,1-.63,0l-58.81-62.2A.46.46,0,0,1,116.93,117.28Z"/><path class="cls-28" d="M116.93,117.28a.46.46,0,0,1,.17-.35.43.43,0,0,1,.61.07l53.46,66.86a.43.43,0,0,1-.68.54L117,117.55A.41.41,0,0,1,116.93,117.28Z"/><path class="cls-29" d="M116.93,117.28a.45.45,0,0,1,.19-.37.44.44,0,0,1,.61.12l47.74,71.05a.44.44,0,0,1-.12.61.45.45,0,0,1-.61-.12l-47.74-71A.44.44,0,0,1,116.93,117.28Z"/><path class="cls-30" d="M116.93,117.28a.43.43,0,0,1,.23-.39.43.43,0,0,1,.59.17l41.69,74.75a.44.44,0,0,1-.77.43L117,117.49A.42.42,0,0,1,116.93,117.28Z"/><path class="cls-31" d="M116.93,117.28a.44.44,0,0,1,.84-.19L153.12,195a.44.44,0,0,1-.8.36L117,117.46A.39.39,0,0,1,116.93,117.28Z"/><path class="cls-32" d="M116.93,117.28a.45.45,0,0,1,.29-.42.44.44,0,0,1,.56.27l28.77,80.6a.43.43,0,0,1-.26.56.44.44,0,0,1-.56-.27L117,117.42A.39.39,0,0,1,116.93,117.28Z"/><path class="cls-33" d="M116.93,117.28a.44.44,0,0,1,.86-.12l22,82.71a.44.44,0,0,1-.85.22l-22-82.7A.45.45,0,0,1,116.93,117.28Z"/><path class="cls-34" d="M116.93,117.27a.45.45,0,0,1,.36-.43.44.44,0,0,1,.51.36l15.07,84.24a.45.45,0,0,1-.36.51.45.45,0,0,1-.51-.36l-15.06-84.24A.19.19,0,0,1,116.93,117.27Z"/><path class="cls-35" d="M116.93,117.27a.43.43,0,0,1,.4-.43.44.44,0,0,1,.48.39l8,85.2a.44.44,0,1,1-.87.08l-8-85.19Z"/><path class="cls-36" d="M116.93,117.28a.44.44,0,0,1,.88,0l1,85.57h0a.44.44,0,0,1-.44.44.44.44,0,0,1-.44-.43l-.95-85.57Z"/><path class="cls-37" d="M110.79,202.63v0l6.14-85.36a.44.44,0,0,1,.47-.4.44.44,0,0,1,.41.47l-6.15,85.35a.44.44,0,0,1-.87,0Z"/><path class="cls-38" d="M103.73,201.83s0-.05,0-.07l13.2-84.55a.43.43,0,1,1,.86.13l-13.19,84.55a.44.44,0,0,1-.88-.06Z"/><path class="cls-39" d="M96.77,200.45a.43.43,0,0,1,0-.11l20.15-83.17a.44.44,0,0,1,.86.21L97.64,200.55a.44.44,0,0,1-.53.32A.45.45,0,0,1,96.77,200.45Z"/><path class="cls-40" d="M90,198.49a.39.39,0,0,1,0-.14l27-81.21a.44.44,0,0,1,.84.27l-27,81.22a.45.45,0,0,1-.56.28A.44.44,0,0,1,90,198.49Z"/><path class="cls-41" d="M83.32,196a.51.51,0,0,1,0-.17L117,117.1a.44.44,0,0,1,.57-.23.43.43,0,0,1,.23.58l-33.61,78.7a.45.45,0,0,1-.58.24A.46.46,0,0,1,83.32,196Z"/><path class="cls-42" d="M76.91,192.93a.46.46,0,0,1,0-.2l40-75.66a.44.44,0,0,1,.78.41l-40,75.66a.44.44,0,0,1-.83-.21Z"/><path class="cls-43" d="M70.78,189.36a.44.44,0,0,1,.07-.24L117,117a.44.44,0,0,1,.74.47L71.59,189.6a.45.45,0,0,1-.61.13A.44.44,0,0,1,70.78,189.36Z"/><path class="cls-44" d="M65,185.3a.44.44,0,0,1,.09-.27l52-68a.44.44,0,0,1,.62-.08.43.43,0,0,1,.08.61l-52,68a.43.43,0,0,1-.61.08A.42.42,0,0,1,65,185.3Z"/><path class="cls-45" d="M59.51,180.76a.46.46,0,0,1,.11-.29L117,117a.44.44,0,0,1,.66.59L60.27,181.06a.44.44,0,0,1-.62,0A.47.47,0,0,1,59.51,180.76Z"/><path class="cls-46" d="M54.45,175.8a.46.46,0,0,1,.13-.33L117.07,117a.44.44,0,0,1,.6.64L55.18,176.12a.43.43,0,0,1-.73-.32Z"/><path class="cls-47" d="M49.81,170.43a.46.46,0,0,1,.17-.35l67.12-53.15a.43.43,0,0,1,.61.07.44.44,0,0,1-.07.62L50.52,170.77a.43.43,0,0,1-.61-.07A.41.41,0,0,1,49.81,170.43Z"/><path class="cls-48" d="M45.64,164.69a.44.44,0,0,1,.19-.36l71.3-47.42a.44.44,0,1,1,.48.73L46.32,165.06a.44.44,0,0,1-.61-.13A.42.42,0,0,1,45.64,164.69Z"/><path class="cls-49" d="M42,158.63a.45.45,0,0,1,.23-.38l75-41.36a.43.43,0,0,1,.59.17.44.44,0,0,1-.17.6L42.61,159a.44.44,0,0,1-.6-.17A.39.39,0,0,1,42,158.63Z"/><path class="cls-50" d="M38.79,152.29a.43.43,0,0,1,.25-.4l78.15-35a.43.43,0,0,1,.58.22.44.44,0,0,1-.22.58l-78.15,35a.44.44,0,0,1-.58-.22A.57.57,0,0,1,38.79,152.29Z"/><path class="cls-51" d="M36.15,145.7a.44.44,0,0,1,.3-.41l80.77-28.43a.44.44,0,0,1,.3.83L36.74,146.12a.44.44,0,0,1-.56-.27A.4.4,0,0,1,36.15,145.7Z"/><path class="cls-52" d="M34.07,138.92a.45.45,0,0,1,.33-.42l82.86-21.65a.44.44,0,0,1,.53.31.43.43,0,0,1-.31.54L34.62,139.35a.44.44,0,0,1-.53-.32A.36.36,0,0,1,34.07,138.92Z"/><path class="cls-53" d="M32.57,132a.44.44,0,0,1,.36-.43l84.36-14.72a.44.44,0,1,1,.15.87L33.08,132.43a.44.44,0,0,1-.51-.36Z"/><path class="cls-54" d="M31.64,125a.43.43,0,0,1,.4-.43l85.29-7.69a.44.44,0,0,1,.48.4.44.44,0,0,1-.4.47l-85.3,7.69a.44.44,0,0,1-.47-.4Z"/><path class="cls-55" d="M31.29,117.88a.44.44,0,0,1,.44-.44l85.64-.6a.43.43,0,0,1,.44.43h0a.44.44,0,0,1-.44.43l-85.64.61a.44.44,0,0,1-.44-.44Z"/><path class="cls-56" d="M31.54,110.8v0a.43.43,0,0,1,.47-.4l85.39,6.48a.44.44,0,1,1-.06.87l-85.4-6.48A.43.43,0,0,1,31.54,110.8Z"/><path class="cls-57" d="M32.37,103.75v-.07a.43.43,0,0,1,.5-.36l84.57,13.52a.44.44,0,0,1-.14.87L32.74,104.19A.44.44,0,0,1,32.37,103.75Z"/><path class="cls-58" d="M33.78,96.8a.34.34,0,0,1,0-.1.43.43,0,0,1,.53-.32l83.15,20.47a.44.44,0,1,1-.21.85L34.11,97.23A.44.44,0,0,1,33.78,96.8Z"/><path class="cls-59" d="M35.76,90a.32.32,0,0,1,0-.14.44.44,0,0,1,.56-.28l81.17,27.28a.45.45,0,0,1,.28.56.45.45,0,0,1-.56.27L36.06,90.41A.43.43,0,0,1,35.76,90Z"/><path class="cls-60" d="M38.3,83.37a.55.55,0,0,1,0-.17.45.45,0,0,1,.58-.23l78.63,33.9a.44.44,0,0,1-.34.81L38.56,83.78A.45.45,0,0,1,38.3,83.37Z"/><path class="cls-61" d="M41.37,77a.42.42,0,0,1,.06-.21A.44.44,0,0,1,42,76.6l75.56,40.29a.44.44,0,0,1,.18.59.44.44,0,0,1-.6.18L41.61,77.37A.44.44,0,0,1,41.37,77Z"/><path class="cls-62" d="M45,70.87a.39.39,0,0,1,.07-.23.43.43,0,0,1,.61-.13l72,46.4a.44.44,0,0,1,.13.6.43.43,0,0,1-.61.13l-72-46.4A.43.43,0,0,1,45,70.87Z"/><path class="cls-63" d="M49.06,65.08a.41.41,0,0,1,.1-.27.44.44,0,0,1,.61-.08l67.87,52.2a.44.44,0,1,1-.54.69L49.24,65.43A.44.44,0,0,1,49.06,65.08Z"/><path class="cls-64" d="M53.62,59.65a.45.45,0,0,1,.74-.33L117.67,117a.44.44,0,0,1-.6.65L53.76,60A.45.45,0,0,1,53.62,59.65Z"/><path class="cls-65" d="M58.61,54.61a.44.44,0,0,1,.76-.3L117.69,117a.43.43,0,0,1,0,.62.44.44,0,0,1-.62,0L58.73,54.91A.46.46,0,0,1,58.61,54.61Z"/><path class="cls-66" d="M64,50a.43.43,0,0,1,.78-.27L117.71,117a.44.44,0,0,1-.69.55L64.1,50.27A.46.46,0,0,1,64,50Z"/><path class="cls-67" d="M69.76,45.85a.44.44,0,0,1,.81-.24L117.74,117a.45.45,0,0,1-.13.61.44.44,0,0,1-.61-.12L69.83,46.09A.42.42,0,0,1,69.76,45.85Z"/><path class="cls-68" d="M75.84,42.19a.43.43,0,0,1,.23-.38.44.44,0,0,1,.6.17l41.08,75.08a.44.44,0,0,1-.77.43L75.9,42.4A.37.37,0,0,1,75.84,42.19Z"/><path class="cls-69" d="M82.2,39.05a.45.45,0,0,1,.26-.4.43.43,0,0,1,.58.23l34.73,78.22a.44.44,0,0,1-.22.58.45.45,0,0,1-.58-.23L82.24,39.23A.58.58,0,0,1,82.2,39.05Z"/><path class="cls-70" d="M88.8,36.45a.46.46,0,0,1,.3-.42.45.45,0,0,1,.56.27l28.12,80.83a.44.44,0,0,1-.83.29L88.83,36.59A.32.32,0,0,1,88.8,36.45Z"/><path class="cls-71" d="M95.6,34.4a.44.44,0,0,1,.86-.11l21.33,82.88a.44.44,0,1,1-.85.21L95.61,34.51A.41.41,0,0,1,95.6,34.4Z"/><path class="cls-72" d="M102.54,32.92a.43.43,0,0,1,.36-.43.44.44,0,0,1,.51.36L117.8,117.2a.44.44,0,0,1-.36.51.43.43,0,0,1-.5-.36L102.54,33Z"/><path class="cls-73" d="M109.57,32a.45.45,0,0,1,.41-.44.44.44,0,0,1,.47.4l7.36,85.26a.44.44,0,0,1-.4.47.45.45,0,0,1-.48-.4l-7.35-85.25S109.57,32,109.57,32Z"/><path class="cls-74" d="M116.66,31.7a.44.44,0,0,1,.88,0l.27,85.57h0a.44.44,0,0,1-.88,0l-.27-85.58Z"/><path class="cls-75" d="M116.93,117.28v0l6.83-85.3a.44.44,0,0,1,.47-.4.43.43,0,0,1,.4.47l-6.82,85.3a.44.44,0,0,1-.48.4A.43.43,0,0,1,116.93,117.28Z"/><path class="cls-76" d="M116.93,117.28a.22.22,0,0,1,0-.08L130.8,32.76a.44.44,0,0,1,.51-.36.44.44,0,0,1,.36.5L117.8,117.35a.43.43,0,0,1-.5.36A.44.44,0,0,1,116.93,117.28Z"/><path class="cls-77" d="M116.93,117.28a.37.37,0,0,1,0-.11l20.82-83a.44.44,0,1,1,.85.22l-20.81,83a.44.44,0,0,1-.54.32A.44.44,0,0,1,116.93,117.28Z"/><path class="cls-78" d="M116.93,117.28a.77.77,0,0,1,0-.15l27.63-81a.43.43,0,0,1,.55-.27.44.44,0,0,1,.28.56l-27.62,81a.44.44,0,0,1-.86-.14Z"/><path class="cls-79" d="M116.93,117.28a.39.39,0,0,1,0-.18l34.24-78.44a.43.43,0,0,1,.58-.22A.43.43,0,0,1,152,39l-34.24,78.44a.44.44,0,0,1-.84-.17Z"/><path class="cls-80" d="M116.93,117.27a.46.46,0,0,1,0-.2L157.6,41.73a.44.44,0,0,1,.78.42l-40.62,75.33a.44.44,0,0,1-.83-.21Z"/><ellipse class="cls-81" cx="117.37" cy="117.27" rx="60.3" ry="60.25"/><path class="cls-82" d="M56.63,117.27A60.74,60.74,0,1,1,117.37,178,60.78,60.78,0,0,1,56.63,117.27Zm120.59,0a59.86,59.86,0,1,0-59.85,59.81A59.9,59.9,0,0,0,177.22,117.27Z"/><g class="cls-83"><path class="cls-84" d="M13.79,116.59A104.78,104.78,0,0,1,215,75.85,104.76,104.76,0,0,1,22,157.33,104,104,0,0,1,13.79,116.59Zm208.6,0A103.87,103.87,0,0,0,45.09,43.21,103.82,103.82,0,0,0,192,190,103,103,0,0,0,222.39,116.59Z"/></g><path class="cls-81" d="M118.27,225a4.27,4.27,0,1,1,3.55-4.87A4.26,4.26,0,0,1,118.27,225Z"/><path class="cls-85" d="M112.9,220.8a4.7,4.7,0,1,1,5.44,4.66,4.72,4.72,0,0,1-5.39-3.92A4.68,4.68,0,0,1,112.9,220.8Zm8.54,0a4.3,4.3,0,0,0,0-.61,3.83,3.83,0,1,0-6,3.69,3.77,3.77,0,0,0,2.85.69h0a3.79,3.79,0,0,0,2.5-1.53A3.74,3.74,0,0,0,121.44,220.82Z"/><path class="cls-86" d="M118.27,16.59a4.27,4.27,0,1,1,3.55-4.88A4.27,4.27,0,0,1,118.27,16.59Z"/><g class="cls-87"><path class="cls-88" d="M56.63,117.27A60.74,60.74,0,1,1,117.37,178,60.78,60.78,0,0,1,56.63,117.27Zm120.59,0a59.86,59.86,0,1,0-59.85,59.81A59.9,59.9,0,0,0,177.22,117.27Z"/></g><ellipse class="cls-81" cx="117.37" cy="117.27" rx="29.26" ry="29.24"/><path class="cls-89" d="M87.66,117.27A29.71,29.71,0,1,1,117.37,147,29.73,29.73,0,0,1,87.66,117.27Zm58.53,0a28.83,28.83,0,1,0-28.82,28.8A28.84,28.84,0,0,0,146.19,117.27Z"/><path class="cls-81" d="M11.89,120.49a4,4,0,0,1-1.59-2.6,4.3,4.3,0,0,1,0-.62h8a4,4,0,0,1-3.36,3.92A4,4,0,0,1,11.89,120.49Z"/><path class="cls-90" d="M14.94,121.78a4.57,4.57,0,0,0,3-1.82,4.62,4.62,0,0,0,.82-3.4,4.56,4.56,0,0,0-9.07.7,4.36,4.36,0,0,0,.05.72,4.56,4.56,0,0,0,5.22,3.8Zm-3-1.29a4,4,0,0,1-1.59-2.6,4.3,4.3,0,0,1,0-.62h8a4,4,0,0,1-3.36,3.92A4,4,0,0,1,11.89,120.49Z"/><path class="cls-81" d="M224.88,114.06a4,4,0,0,1,1.59,2.6,4.17,4.17,0,0,1,0,.61h-7.95a4,4,0,0,1,6.32-3.2Z"/><path class="cls-91" d="M221.83,112.77a4.56,4.56,0,1,0,5.27,4.51,4.36,4.36,0,0,0,0-.72,4.57,4.57,0,0,0-5.22-3.79Zm3,1.29a4,4,0,0,1,1.59,2.6,4.17,4.17,0,0,1,0,.61h-7.95a4,4,0,0,1,6.32-3.2Z"/><path class="cls-81" d="M40.84,191.74a4,4,0,1,1,7.5-1.86,4,4,0,0,1-.47,1.86,4.47,4.47,0,0,0-1-1,4.29,4.29,0,0,0-6,.94Z"/><path class="cls-92" d="M45.06,194.39a4.49,4.49,0,0,0,3-1.82c.09-.12.18-.26.27-.4a4.58,4.58,0,1,0-6.64,1.4,4.5,4.5,0,0,0,2.68.88A4.25,4.25,0,0,0,45.06,194.39Zm-3.92-6.84a4,4,0,0,1,7.2,2.33,4,4,0,0,1-.47,1.86,4.47,4.47,0,0,0-1-1,4.29,4.29,0,0,0-6,.94l-.06.1A4,4,0,0,1,41.14,187.55Z"/><path class="cls-81" d="M40.38,42.35a4,4,0,1,0,7.5,1.86,3.89,3.89,0,0,0-.47-1.86,4.1,4.1,0,0,1-1,1,4.29,4.29,0,0,1-6-.94Z"/><path class="cls-93" d="M43.89,39.64a4.55,4.55,0,0,0-3.68,7.24,4.45,4.45,0,0,0,3,1.82,4.56,4.56,0,0,0,4.66-6.78c-.09-.14-.17-.28-.26-.4a4.53,4.53,0,0,0-3-1.82A4.37,4.37,0,0,0,43.89,39.64Zm-3.51,2.71.06.1a4.29,4.29,0,0,0,6,.94,4.1,4.1,0,0,0,1-1,3.89,3.89,0,0,1,.47,1.86,4,4,0,1,1-7.5-1.86Z"/><path class="cls-81" d="M195.12,189.43a4,4,0,1,1-7.5,1.86,3.89,3.89,0,0,1,.47-1.86,4.1,4.1,0,0,0,1,1,4.29,4.29,0,0,0,6-.94Z"/><path class="cls-94" d="M190.89,186.78a4.53,4.53,0,0,0-3,1.82c-.09.12-.17.26-.26.4a4.56,4.56,0,0,0,4.66,6.78,4.45,4.45,0,0,0,3-1.82,4.53,4.53,0,0,0,.88-2.68,4.56,4.56,0,0,0-4.56-4.56A4.37,4.37,0,0,0,190.89,186.78Zm3.93,6.84a4,4,0,0,1-7.2-2.33,3.89,3.89,0,0,1,.47-1.86,4.1,4.1,0,0,0,1,1,4.29,4.29,0,0,0,6-.94l.06-.1A4,4,0,0,1,194.82,193.62Z"/><path class="cls-81" d="M188.08,44.9a4,4,0,0,1,5.86-5.06,3.93,3.93,0,0,1,1.64,3.2,4,4,0,0,1-.46,1.86,4.32,4.32,0,0,0-1-1,4.28,4.28,0,0,0-6,.94Z"/><path class="cls-95" d="M192.31,47.55a4.53,4.53,0,0,0,3-1.82,3.94,3.94,0,0,0,.26-.4,4.56,4.56,0,1,0-7.9,0,4.43,4.43,0,0,0,1.26,1.4,4.51,4.51,0,0,0,2.69.88A4.34,4.34,0,0,0,192.31,47.55Zm-3.93-6.84a4,4,0,0,1,5.56-.87,3.93,3.93,0,0,1,1.64,3.2,4,4,0,0,1-.46,1.86,4.32,4.32,0,0,0-1-1,4.28,4.28,0,0,0-6,.94l-.07.1A4,4,0,0,1,188.38,40.71Z"/><path class="cls-81" d="M14.9,20.13l2.77,12.74L20.46,20l12.43-2.7L20.4,14.62c-.82-3.78-2.73-12.55-2.73-12.55L15,14.54,2.07,17.34Z"/><path class="cls-96" d="M0,17.34l14.59-3.17L17.67,0l3.1,14.26L35,17.34,20.83,20.41,17.67,34.93,14.53,20.49ZM17.67,4.13,15.33,14.91,4.13,17.34l11.14,2.42,2.4,11,2.42-11.13,10.74-2.33L20,15Z"/><path class="cls-81" d="M14,17.52,7.44,27.75l10.31-6.62,10,6.41-6.44-10L27.77,7.43l-10,6.44L7.4,7.22Z"/><path class="cls-97" d="M5.94,5.76l11.81,7.59L29.23,6,21.81,17.52,29.19,29,17.75,21.65,6,29.21,13.5,17.52ZM26.31,8.89l-8.56,5.5L8.86,8.68l5.68,8.84L8.9,26.29l8.85-5.68,8.52,5.47-5.51-8.56Z"/><path class="cls-81" d="M214.91,221.33l2.34,11.15,2.34-11.15,5.52,3.6-3.6-5.51,11.15-2.34-11.15-2.34,3.6-5.52-5.52,3.6-2.34-11.14s-1.41,6.69-2.34,11.14l-5.52-3.6,3.6,5.52-11.15,2.34L213,219.42l-3.6,5.51Z"/><path class="cls-98" d="M199.7,217.08l12.57-2.64-4.39-6.73,6.73,4.4,2.64-12.57,2.64,12.57,6.73-4.4-4.39,6.73,12.57,2.64-12.57,2.64,4.39,6.72-6.73-4.39-2.64,12.57-2.64-12.57-6.73,4.39,4.39-6.72Zm14-2-9.74,2,9.74,2-2.81,4.3,4.31-2.8,2,9.72,2.05-9.72,4.3,2.8-2.81-4.3,9.74-2-9.74-2,2.81-4.31-4.3,2.81-2.05-9.73-2,9.73-4.31-2.81Z"/><polygon class="cls-81" points="107.14 100.44 92.74 92.19 105.83 105.27 107.14 100.44"/><polygon class="cls-81" points="92.27 92.67 100.52 107.05 105.35 105.74 92.27 92.67"/><polygon class="cls-81" points="128.91 105.27 141.99 92.19 127.59 100.44 128.91 105.27"/><polygon class="cls-81" points="113.76 103.46 117.03 102.58 117.03 66.55 107.92 100.12 113.76 103.46"/><polygon class="cls-81" points="105.52 106.39 100.86 107.65 103.79 112.76 105.52 106.39"/><polygon class="cls-81" points="120.97 103.46 126.81 100.12 117.7 66.55 117.7 102.58 120.97 103.46"/><polygon class="cls-81" points="118.17 116.94 128.16 116.94 124.52 110.6 118.17 116.94"/><polygon class="cls-81" points="100.19 107.83 66.6 116.94 102.66 116.94 103.54 113.67 100.19 107.83"/><polygon class="cls-81" points="129.31 116.94 131.38 116.94 130.72 114.49 129.31 116.94"/><polygon class="cls-81" points="103.35 116.94 105.42 116.94 104.02 114.49 103.35 116.94"/><polygon class="cls-81" points="106.57 116.94 116.56 116.94 110.21 110.6 106.57 116.94"/><polygon class="cls-81" points="130.47 113.58 128.56 106.56 125.01 110.11 128.74 116.6 130.47 113.58"/><polygon class="cls-81" points="134.21 107.05 142.47 92.67 129.38 105.74 134.21 107.05"/><polygon class="cls-81" points="106.47 105.44 112.85 103.71 107.74 100.78 106.47 105.44"/><polygon class="cls-81" points="117.7 105.34 120.15 103.93 117.7 103.27 117.7 105.34"/><polygon class="cls-81" points="121.89 103.71 128.26 105.44 127 100.78 121.89 103.71"/><polygon class="cls-81" points="130.94 112.76 133.87 107.65 129.21 106.39 130.94 112.76"/><polygon class="cls-81" points="124.54 109.64 128.09 106.08 121.06 104.18 118.04 105.91 124.54 109.64"/><polygon class="cls-81" points="131.19 113.67 132.07 116.94 168.13 116.94 134.54 107.83 131.19 113.67"/><polygon class="cls-81" points="124.05 110.13 117.7 106.49 117.7 116.47 124.05 110.13"/><polygon class="cls-81" points="110.19 109.64 116.69 105.91 113.67 104.18 106.64 106.08 110.19 109.64"/><polygon class="cls-81" points="106 116.6 109.72 110.11 106.17 106.56 104.26 113.58 106 116.6"/><polygon class="cls-81" points="117.03 106.49 110.69 110.13 117.03 116.47 117.03 106.49"/><polygon class="cls-81" points="114.58 103.93 117.03 105.34 117.03 103.27 114.58 103.93"/><polygon class="cls-81" points="116.56 117.61 106.57 117.61 110.21 123.95 116.56 117.61"/><polygon class="cls-81" points="105.42 117.61 103.35 117.61 104.02 120.06 105.42 117.61"/><polygon class="cls-81" points="103.79 121.79 100.86 126.89 105.52 128.16 103.79 121.79"/><polygon class="cls-81" points="134.54 126.71 168.13 117.61 132.07 117.61 131.19 120.88 134.54 126.71"/><polygon class="cls-81" points="127.59 134.11 141.99 142.35 128.91 129.28 127.59 134.11"/><polygon class="cls-81" points="128.16 117.61 118.17 117.61 124.52 123.95 128.16 117.61"/><polygon class="cls-81" points="102.66 117.61 66.6 117.61 100.19 126.71 103.54 120.88 102.66 117.61"/><polygon class="cls-81" points="100.52 127.49 92.27 141.88 105.35 128.8 100.52 127.49"/><polygon class="cls-81" points="120.97 131.08 117.7 131.97 117.7 168 126.81 134.43 120.97 131.08"/><polygon class="cls-81" points="105.83 129.28 92.74 142.35 107.14 134.11 105.83 129.28"/><polygon class="cls-81" points="113.76 131.08 107.92 134.43 117.03 168 117.03 131.97 113.76 131.08"/><polygon class="cls-81" points="131.38 117.61 129.31 117.61 130.72 120.06 131.38 117.61"/><polygon class="cls-81" points="104.26 120.97 106.17 127.99 109.72 124.44 106 117.94 104.26 120.97"/><polygon class="cls-81" points="110.69 124.42 117.03 128.06 117.03 118.08 110.69 124.42"/><polygon class="cls-81" points="121.06 130.37 128.09 128.46 124.54 124.91 118.04 128.63 121.06 130.37"/><polygon class="cls-81" points="117.7 128.06 124.05 124.42 117.7 118.08 117.7 128.06"/><polygon class="cls-81" points="128.74 117.94 125.01 124.44 128.56 127.99 130.47 120.97 128.74 117.94"/><polygon class="cls-81" points="129.21 128.16 133.87 126.89 130.94 121.79 129.21 128.16"/><polygon class="cls-81" points="120.15 130.61 117.7 129.21 117.7 131.28 120.15 130.61"/><polygon class="cls-81" points="142.47 141.88 134.21 127.49 129.38 128.8 142.47 141.88"/><polygon class="cls-81" points="128.26 129.11 121.89 130.84 127 133.76 128.26 129.11"/><polygon class="cls-81" points="113.67 130.37 116.69 128.63 110.19 124.91 106.64 128.46 113.67 130.37"/><polygon class="cls-81" points="112.85 130.84 106.47 129.11 107.74 133.76 112.85 130.84"/><polygon class="cls-81" points="117.03 129.21 114.58 130.61 117.03 131.28 117.03 129.21"/><path class="cls-99" d="M117.69,170.59l9.72-35.82,16.43,9.41a.35.35,0,0,0,.4-.05.33.33,0,0,0,0-.41l-9.41-16.41,35.85-9.71a.35.35,0,0,0,.24-.33.33.33,0,0,0-.24-.32l-35.85-9.72,9.41-16.41a.33.33,0,0,0-.45-.45l-16.43,9.4L117.69,64a.33.33,0,0,0-.32-.24A.35.35,0,0,0,117,64l-9.72,35.82-16.43-9.4a.32.32,0,0,0-.4,0,.33.33,0,0,0,0,.4l9.41,16.41L64,117a.33.33,0,0,0-.24.32.35.35,0,0,0,.24.33l35.85,9.71-9.41,16.41a.36.36,0,0,0,0,.41.35.35,0,0,0,.4.05l16.43-9.41L117,170.59a.34.34,0,0,0,.33.25A.33.33,0,0,0,117.69,170.59Zm16.18-62.94-2.93,5.11-1.73-6.37Zm-12-3.94,5.11-2.93,1.26,4.66Zm6.2,2.37-3.55,3.56-6.5-3.73,3-1.73Zm-7.94-2.15-2.45,1.41v-2.07ZM117,105.34l-2.45-1.41,2.45-.66Zm-10.56.1,1.27-4.66,5.11,2.93Zm7.2-1.26,3,1.73-6.5,3.73-3.55-3.56Zm-4,5.93L106,116.6l-1.74-3,1.91-7Zm7.31-3.62v10l-6.35-6.35Zm.67,0,6.35,3.63-6.35,6.35Zm7.31,3.62,3.55-3.55,1.91,7-1.74,3Zm9.2-3.06-4.83-1.31,13.08-13.07ZM142,92.19l-13.08,13.08-1.31-4.83Zm-15.18,7.93L121,103.46l-3.27-.88v-36ZM117,66.55v36l-3.27.88-5.84-3.34Zm-9.89,33.89-1.31,4.83L92.74,92.19ZM92.27,92.67l13.08,13.07-4.83,1.31Zm13.25,13.72-1.73,6.37-2.93-5.11ZM66.6,116.94l33.6-9.11,3.34,5.84-.88,3.27Zm36.75,0,.66-2.45,1.41,2.45Zm3.22,0,3.64-6.34,6.35,6.34Zm11.6,0,6.35-6.34,3.64,6.34Zm11.14,0,1.41-2.45.66,2.45Zm2.77,0-.89-3.27,3.35-5.84,33.59,9.11Zm-4.48,17.17,1.31-4.83L142,142.35ZM125,124.44l3.72-6.49,1.74,3-1.91,7Zm3.08,4-7,1.91-3-1.74,6.5-3.72Zm-10.39-.4v-10l6.35,6.34Zm-.67,0-6.35-3.64,6.35-6.34Zm-7.31-3.62L106.17,128l-1.91-7,1.74-3Zm.47.47,6.5,3.72-3,1.74-7-1.91Zm2.66,5.93-5.11,2.92-1.27-4.65Zm1.73-.23,2.45-1.4v2.07Zm3.12-1.4,2.45,1.4-2.45.67Zm10.56-.1L127,133.76l-5.11-2.92Zm14.2,12.77L129.38,128.8l4.83-1.31Zm-13.25-13.72,1.73-6.37,2.93,5.1Zm38.92-10.55-33.59,9.1-3.35-5.83.89-3.27Zm-36.75,0-.66,2.45-1.41-2.45Zm-3.22,0L124.52,124l-6.35-6.34Zm-11.6,0L110.21,124l-3.64-6.34Zm-11.14,0L104,120.06l-.66-2.45Zm-38.82,0h36.06l.88,3.27-3.34,5.83Zm34.26,9.28,2.93-5.1,1.73,6.37Zm-.34.6,4.83,1.31L92.27,141.88Zm-7.78,14.86,13.09-13.07,1.31,4.83Zm15.18-7.92,5.84-3.35L117,132v36ZM117.7,132l3.27-.89,5.84,3.35L117.7,168Z"/></g></g></svg>