<svg xmlns="http://www.w3.org/2000/svg" xmlns:xlink="http://www.w3.org/1999/xlink" viewBox="0 0 227.95 247.4"><defs><style>.cls-1{mask:url(#mask);filter:url(#luminosity-noclip-3);}.cls-2,.cls-4{mix-blend-mode:multiply;}.cls-2{fill:url(#linear-gradient);}.cls-3{mask:url(#mask-2);filter:url(#luminosity-noclip-4);}.cls-4{fill:url(#linear-gradient-2);}.cls-5{fill:url(#radial-gradient);}.cls-6{fill:url(#radial-gradient-2);}.cls-7{fill:url(#radial-gradient-3);}.cls-8{fill:url(#radial-gradient-4);}.cls-9{fill:url(#radial-gradient-5);}.cls-10{fill:url(#radial-gradient-6);}.cls-11{fill:url(#radial-gradient-7);}.cls-12{fill:url(#radial-gradient-8);}.cls-13{fill:url(#radial-gradient-9);}.cls-14{fill:url(#radial-gradient-10);}.cls-15{fill:url(#radial-gradient-11);}.cls-16{fill:url(#radial-gradient-12);}.cls-17{fill:url(#radial-gradient-13);}.cls-18{fill:url(#radial-gradient-14);}.cls-19{fill:url(#radial-gradient-15);}.cls-20{fill:url(#radial-gradient-16);}.cls-21{fill:url(#radial-gradient-17);}.cls-22{fill:url(#radial-gradient-18);}.cls-23{fill:url(#radial-gradient-19);}.cls-24{fill:url(#radial-gradient-20);}.cls-25{fill:url(#radial-gradient-21);}.cls-26{fill:url(#radial-gradient-22);}.cls-27{fill:url(#radial-gradient-23);}.cls-28{fill:url(#radial-gradient-24);}.cls-29{fill:url(#radial-gradient-25);}.cls-30{fill:url(#radial-gradient-26);}.cls-31{fill:url(#radial-gradient-27);}.cls-32{fill:url(#radial-gradient-28);}.cls-33{fill:url(#radial-gradient-29);}.cls-34{fill:url(#radial-gradient-30);}.cls-35{fill:url(#radial-gradient-31);}.cls-36{fill:url(#radial-gradient-32);}.cls-37{fill:url(#radial-gradient-33);}.cls-38{fill:url(#radial-gradient-34);}.cls-39{fill:url(#radial-gradient-35);}.cls-40{fill:url(#radial-gradient-36);}.cls-41{fill:url(#radial-gradient-37);}.cls-42{fill:url(#radial-gradient-38);}.cls-43{fill:url(#radial-gradient-39);}.cls-44{fill:url(#radial-gradient-40);}.cls-45{fill:url(#radial-gradient-41);}.cls-46{fill:url(#radial-gradient-42);}.cls-47{fill:url(#radial-gradient-43);}.cls-48{fill:url(#radial-gradient-44);}.cls-49{fill:url(#radial-gradient-45);}.cls-50{fill:url(#radial-gradient-46);}.cls-51{fill:url(#radial-gradient-47);}.cls-52{fill:url(#radial-gradient-48);}.cls-53{fill:url(#radial-gradient-49);}.cls-54{fill:url(#radial-gradient-50);}.cls-55{fill:url(#radial-gradient-51);}.cls-56{fill:url(#radial-gradient-52);}.cls-57{fill:url(#radial-gradient-53);}.cls-58{fill:url(#radial-gradient-54);}.cls-59{fill:url(#radial-gradient-55);}.cls-60{fill:url(#radial-gradient-56);}.cls-61{fill:url(#radial-gradient-57);}.cls-62{fill:url(#radial-gradient-58);}.cls-63{fill:url(#radial-gradient-59);}.cls-64{fill:url(#radial-gradient-60);}.cls-65{fill:url(#radial-gradient-61);}.cls-66{fill:url(#radial-gradient-62);}.cls-67{fill:url(#radial-gradient-63);}.cls-68{fill:url(#radial-gradient-64);}.cls-69{fill:url(#radial-gradient-65);}.cls-70{fill:url(#radial-gradient-66);}.cls-71{fill:url(#radial-gradient-67);}.cls-72{fill:url(#radial-gradient-68);}.cls-73{fill:url(#radial-gradient-69);}.cls-74{fill:url(#radial-gradient-70);}.cls-75{fill:url(#radial-gradient-71);}.cls-76{fill:url(#radial-gradient-72);}.cls-77{fill:url(#radial-gradient-73);}.cls-78{fill:url(#radial-gradient-74);}.cls-79{fill:url(#radial-gradient-75);}.cls-80{fill:url(#radial-gradient-76);}.cls-81{mask:url(#mask-3);}.cls-82{fill:url(#linear-gradient-3);}.cls-83{fill:#191919;}.cls-84{fill:url(#linear-gradient-4);}.cls-85{fill:url(#linear-gradient-5);}.cls-86{fill:url(#linear-gradient-6);}.cls-87{fill:url(#linear-gradient-7);}.cls-88{fill:url(#linear-gradient-8);}.cls-89{mask:url(#mask-4);}.cls-90{fill:url(#linear-gradient-9);}.cls-91{fill:#fff;}.cls-92{filter:url(#luminosity-noclip-2);}.cls-93{filter:url(#luminosity-noclip);}</style><filter id="luminosity-noclip" x="7.97" y="-8504.21" width="216.37" height="32766" filterUnits="userSpaceOnUse" color-interpolation-filters="sRGB"><feFlood flood-color="#fff" result="bg"/><feBlend in="SourceGraphic" in2="bg"/></filter><mask id="mask" x="7.97" y="-8504.21" width="216.37" height="32766" maskUnits="userSpaceOnUse"><g class="cls-93"/></mask><linearGradient id="linear-gradient" x1="39.69" y1="199.27" x2="192.62" y2="46.33" gradientUnits="userSpaceOnUse"><stop offset="0" stop-color="#fff"/><stop offset="0.54"/><stop offset="1" stop-color="#f1f1f1"/></linearGradient><filter id="luminosity-noclip-2" x="68.46" y="-8504.21" width="94.29" height="32766" filterUnits="userSpaceOnUse" color-interpolation-filters="sRGB"><feFlood flood-color="#fff" result="bg"/><feBlend in="SourceGraphic" in2="bg"/></filter><mask id="mask-2" x="68.46" y="-8504.21" width="94.29" height="32766" maskUnits="userSpaceOnUse"><g class="cls-92"/></mask><linearGradient id="linear-gradient-2" x1="115.61" y1="46.13" x2="115.61" y2="198.73" gradientUnits="userSpaceOnUse"><stop offset="0" stop-color="#b3b3b3"/><stop offset="0.54"/><stop offset="1" stop-color="#b3b3b3"/></linearGradient><radialGradient id="radial-gradient" cx="-7945.84" cy="3039.66" r="103.56" gradientTransform="matrix(0.25, 0.21, -0.21, 0.25, 2754.44, 973.64)" gradientUnits="userSpaceOnUse"><stop offset="0.06" stop-color="#121212"/><stop offset="0.21" stop-color="#151514"/><stop offset="0.34" stop-color="#201e1a"/><stop offset="0.47" stop-color="#322d23"/><stop offset="0.59" stop-color="#4b4131"/><stop offset="0.7" stop-color="#6c5c43"/><stop offset="0.82" stop-color="#947d58"/><stop offset="0.93" stop-color="#c2a471"/><stop offset="1" stop-color="#e4c084"/></radialGradient><radialGradient id="radial-gradient-2" cx="-8699.28" cy="-2760.45" r="94.97" gradientTransform="matrix(0.02, 0.33, -0.33, 0.02, -569.68, 2988.56)" xlink:href="#radial-gradient"/><radialGradient id="radial-gradient-3" cx="-7167.92" cy="4233.31" r="103.58" gradientTransform="matrix(0.21, 0.25, -0.25, 0.21, 2708.07, 948.43)" xlink:href="#radial-gradient"/><radialGradient id="radial-gradient-4" cx="-6696.51" cy="4788.01" r="93.27" gradientTransform="matrix(-0.21, 0.25, -0.25, -0.21, -93.67, 2769.19)" xlink:href="#radial-gradient"/><radialGradient id="radial-gradient-5" cx="-8663.38" cy="-2764.36" r="103.21" gradientTransform="translate(2970.78 982.36) scale(0.33 0.33)" xlink:href="#radial-gradient"/><radialGradient id="radial-gradient-6" cx="-5654.1" cy="5751.58" r="95.85" gradientTransform="matrix(-0.21, 0.25, -0.25, -0.21, 375.86, 2713.18)" xlink:href="#radial-gradient"/><radialGradient id="radial-gradient-7" cx="-8641.3" cy="-2754.87" r="103.42" gradientTransform="translate(2970.78 982.36) scale(0.33 0.33)" xlink:href="#radial-gradient"/><radialGradient id="radial-gradient-8" cx="-4460.05" cy="6532.26" r="95.86" gradientTransform="matrix(-0.21, 0.25, -0.25, -0.21, 829.24, 2583.51)" xlink:href="#radial-gradient"/><radialGradient id="radial-gradient-9" cx="-3827.63" cy="6834.64" r="103.57" gradientTransform="matrix(0.07, 0.32, -0.32, 0.07, 2600.12, 834.12)" xlink:href="#radial-gradient"/><radialGradient id="radial-gradient-10" cx="-3149.06" cy="7116.57" r="85.12" gradientTransform="matrix(-0.21, 0.25, -0.25, -0.21, 1255.25, 2387.41)" xlink:href="#radial-gradient"/><radialGradient id="radial-gradient-11" cx="-2478.16" cy="7296.13" r="103.57" gradientTransform="matrix(0.02, 0.33, -0.33, 0.02, 2578.41, 785.77)" xlink:href="#radial-gradient"/><radialGradient id="radial-gradient-12" cx="-1775.2" cy="7450.14" r="95.85" gradientTransform="matrix(-0.21, 0.25, -0.25, -0.21, 1638.25, 2116.82)" xlink:href="#radial-gradient"/><radialGradient id="radial-gradient-13" cx="-1076.45" cy="7530.75" r="103.56" gradientTransform="matrix(-0.04, 0.33, -0.33, -0.04, 2565.42, 735.28)" xlink:href="#radial-gradient"/><radialGradient id="radial-gradient-14" cx="-348.18" cy="7577.56" r="86.75" gradientTransform="matrix(-0.21, 0.25, -0.25, -0.21, 1972.73, 1794.6)" xlink:href="#radial-gradient"/><radialGradient id="radial-gradient-15" cx="351.8" cy="7529.82" r="103.58" gradientTransform="matrix(-0.09, 0.31, -0.31, -0.09, 2561.25, 682.2)" xlink:href="#radial-gradient"/><radialGradient id="radial-gradient-16" cx="1088.21" cy="7477.84" r="69.22" gradientTransform="matrix(-0.21, 0.25, -0.25, -0.21, 2246.52, 1423.54)" xlink:href="#radial-gradient"/><radialGradient id="radial-gradient-17" cx="1756.21" cy="7295.16" r="103.58" gradientTransform="matrix(-0.14, 0.29, -0.3, -0.14, 2565.45, 629.93)" xlink:href="#radial-gradient"/><radialGradient id="radial-gradient-18" cx="2451.1" cy="7106.03" r="90.78" gradientTransform="matrix(-0.21, 0.25, -0.25, -0.21, 2453.17, 1006.77)" xlink:href="#radial-gradient"/><radialGradient id="radial-gradient-19" cx="3102.54" cy="6830.83" r="103.59" gradientTransform="matrix(-0.19, 0.27, -0.27, -0.19, 2578.39, 578.95)" xlink:href="#radial-gradient"/><radialGradient id="radial-gradient-20" cx="3766.8" cy="6547.74" r="76.66" gradientTransform="matrix(-0.21, 0.25, -0.25, -0.21, 2585.86, 567.57)" xlink:href="#radial-gradient"/><radialGradient id="radial-gradient-21" cx="4349.36" cy="6149.15" r="103.57" gradientTransform="matrix(-0.23, 0.23, -0.23, -0.23, 2598.6, 531.19)" xlink:href="#radial-gradient"/><radialGradient id="radial-gradient-22" cx="4936.73" cy="5739.7" r="95.84" gradientTransform="matrix(-0.25, -0.21, 0.21, -0.25, 179.52, 2610.13)" xlink:href="#radial-gradient"/><radialGradient id="radial-gradient-23" cx="5470.7" cy="5272.79" r="103.57" gradientTransform="matrix(-0.27, 0.19, -0.19, -0.27, 2627.25, 487.22)" xlink:href="#radial-gradient"/><radialGradient id="radial-gradient-24" cx="6000.32" cy="4790.61" r="79.64" gradientTransform="matrix(-0.25, -0.21, 0.21, -0.25, 636.97, 2602.3)" xlink:href="#radial-gradient"/><radialGradient id="radial-gradient-25" cx="-8576.31" cy="-2568.88" r="103.32" gradientTransform="translate(2970.78 982.36) scale(0.33 0.33)" xlink:href="#radial-gradient"/><radialGradient id="radial-gradient-26" cx="6861.24" cy="3652.62" r="89.41" gradientTransform="matrix(-0.25, -0.21, 0.21, -0.25, 1094.64, 2507.98)" xlink:href="#radial-gradient"/><radialGradient id="radial-gradient-27" cx="7209.47" cy="3024.52" r="103.56" gradientTransform="matrix(-0.31, 0.09, -0.09, -0.31, 2704.33, 415.14)" xlink:href="#radial-gradient"/><radialGradient id="radial-gradient-28" cx="7524.78" cy="2391.19" r="95.84" gradientTransform="matrix(-0.25, -0.21, 0.21, -0.25, 1526.59, 2341)" xlink:href="#radial-gradient"/><radialGradient id="radial-gradient-29" cx="7777.89" cy="1719.13" r="103.57" gradientTransform="matrix(-0.33, 0.04, -0.04, -0.32, 2750.94, 390.06)" xlink:href="#radial-gradient"/><radialGradient id="radial-gradient-30" cx="7987.87" cy="1040.48" r="95.85" gradientTransform="matrix(-0.25, -0.21, 0.21, -0.25, 1922.82, 2106.49)" xlink:href="#radial-gradient"/><radialGradient id="radial-gradient-31" cx="8121.47" cy="336.97" r="103.58" gradientTransform="matrix(-0.33, -0.01, 0.01, -0.33, 2800.69, 373.18)" xlink:href="#radial-gradient"/><radialGradient id="radial-gradient-32" cx="8226.07" cy="-349.94" r="84.28" gradientTransform="matrix(-0.25, -0.21, 0.21, -0.25, 2268.6, 1808.9)" xlink:href="#radial-gradient"/><radialGradient id="radial-gradient-33" cx="8234.13" cy="-1084.97" r="103.57" gradientTransform="matrix(-0.32, -0.07, 0.07, -0.32, 2853.18, 363.86)" xlink:href="#radial-gradient"/><radialGradient id="radial-gradient-34" cx="8206.84" cy="-1787.94" r="95.85" gradientTransform="matrix(-0.25, -0.21, 0.21, -0.25, 2565.02, 1453.31)" xlink:href="#radial-gradient"/><radialGradient id="radial-gradient-35" cx="8109.43" cy="-2504.46" r="103.58" gradientTransform="matrix(-0.31, -0.12, 0.12, -0.31, 2905.86, 363.91)" xlink:href="#radial-gradient"/><radialGradient id="radial-gradient-36" cx="7972.22" cy="-3183.9" r="90.12" gradientTransform="matrix(-0.25, -0.21, 0.21, -0.25, 2811.95, 998.91)" xlink:href="#radial-gradient"/><radialGradient id="radial-gradient-37" cx="7750.45" cy="-3881.21" r="103.57" gradientTransform="matrix(-0.28, -0.17, 0.17, -0.28, 2957.59, 372.56)" xlink:href="#radial-gradient"/><radialGradient id="radial-gradient-38" cx="-8711.38" cy="-2481.78" r="102.52" gradientTransform="matrix(0, 0.33, -0.33, 0, -657.41, 3035.38)" xlink:href="#radial-gradient"/><radialGradient id="radial-gradient-39" cx="-8723.35" cy="-2761.04" r="95.39" gradientTransform="translate(2896.06 1191.39) rotate(4.24) scale(0.33 0.33)" xlink:href="#radial-gradient"/><radialGradient id="radial-gradient-40" cx="-8721.16" cy="-2497.26" r="92.1" gradientTransform="translate(-439.19 3085.62) rotate(84.74) scale(0.33 0.33)" xlink:href="#radial-gradient"/><radialGradient id="radial-gradient-41" cx="-8701.25" cy="-2496.33" r="92.77" gradientTransform="translate(2882.62 1243.48) rotate(5.33) scale(0.33 0.33)" xlink:href="#radial-gradient"/><radialGradient id="radial-gradient-42" cx="6816.55" cy="-11995.75" r="103.58" gradientTransform="matrix(-0.21, 0.25, 0.25, 0.21, 4543.43, 948.43)" xlink:href="#radial-gradient"/><radialGradient id="radial-gradient-43" cx="-8749.3" cy="-2773.44" r="107.25" gradientTransform="translate(2672.44 1638.4) rotate(13.76) scale(0.33 0.33)" xlink:href="#radial-gradient"/><radialGradient id="radial-gradient-44" cx="4908.7" cy="-13033.18" r="103.58" gradientTransform="matrix(-0.17, 0.28, 0.28, 0.17, 4585.45, 916.4)" xlink:href="#radial-gradient"/><radialGradient id="radial-gradient-45" cx="-8766.38" cy="-2750.04" r="95.6" gradientTransform="translate(2381.51 2043.9) rotate(23.27) scale(0.33 0.33)" xlink:href="#radial-gradient"/><radialGradient id="radial-gradient-46" cx="-8781.33" cy="-2754.87" r="103.42" gradientTransform="translate(2970.78 982.36) scale(0.33 0.33)" xlink:href="#radial-gradient"/><radialGradient id="radial-gradient-47" cx="-8786" cy="-2739.61" r="95.78" gradientTransform="matrix(0.28, 0.18, -0.18, 0.28, 2027.14, 2397.96)" xlink:href="#radial-gradient"/><radialGradient id="radial-gradient-48" cx="-8801.54" cy="-2741.87" r="103.55" gradientTransform="translate(2970.78 982.36) scale(0.33 0.33)" xlink:href="#radial-gradient"/><radialGradient id="radial-gradient-49" cx="-8793.43" cy="-2714.85" r="85.12" gradientTransform="translate(1623.74 2689.44) rotate(42.27) scale(0.33 0.33)" xlink:href="#radial-gradient"/><radialGradient id="radial-gradient-50" cx="-1450.85" cy="-14100.76" r="103.57" gradientTransform="matrix(-0.02, 0.33, 0.33, 0.02, 4673.08, 785.77)" xlink:href="#radial-gradient"/><radialGradient id="radial-gradient-51" cx="-8818.79" cy="-2709.83" r="95.83" gradientTransform="matrix(0.2, 0.26, -0.26, 0.2, 1172.52, 2914.21)" xlink:href="#radial-gradient"/><radialGradient id="radial-gradient-52" cx="-3589.29" cy="-13743.33" r="103.56" gradientTransform="matrix(0.04, 0.33, 0.33, -0.04, 4686.08, 735.28)" xlink:href="#radial-gradient"/><radialGradient id="radial-gradient-53" cx="-8819.77" cy="-2685.1" r="86.61" gradientTransform="translate(699.47 3060.16) rotate(61.26) scale(0.33 0.33)" xlink:href="#radial-gradient"/><radialGradient id="radial-gradient-54" cx="-5642.18" cy="-13036.88" r="103.58" gradientTransform="matrix(0.09, 0.31, 0.31, -0.09, 4690.24, 682.2)" xlink:href="#radial-gradient"/><radialGradient id="radial-gradient-55" cx="-8804.55" cy="-2658.57" r="68.87" gradientTransform="translate(214.88 3122.85) rotate(70.75) scale(0.33 0.33)" xlink:href="#radial-gradient"/><radialGradient id="radial-gradient-56" cx="-7549.67" cy="-12003.74" r="103.58" gradientTransform="matrix(0.14, 0.29, 0.3, -0.14, 4686.04, 629.93)" xlink:href="#radial-gradient"/><radialGradient id="radial-gradient-57" cx="-8838.57" cy="-2648.26" r="90.13" gradientTransform="matrix(0.06, 0.32, -0.32, 0.06, -289.31, 3116.76)" xlink:href="#radial-gradient"/><radialGradient id="radial-gradient-58" cx="-9259.69" cy="-10668.68" r="103.59" gradientTransform="matrix(0.19, 0.27, 0.27, -0.19, 4673.11, 578.95)" xlink:href="#radial-gradient"/><radialGradient id="radial-gradient-59" cx="-8820.25" cy="-2627.27" r="75.71" gradientTransform="matrix(0, 0.33, -0.33, 0, -764.92, 3016.97)" xlink:href="#radial-gradient"/><radialGradient id="radial-gradient-60" cx="-10725.78" cy="-9069.94" r="103.57" gradientTransform="matrix(0.23, 0.23, 0.23, -0.23, 4652.9, 531.19)" xlink:href="#radial-gradient"/><radialGradient id="radial-gradient-61" cx="-8845.87" cy="-2605.18" r="95.21" gradientTransform="translate(2796.55 1436.05) rotate(9.23) scale(0.33 0.33)" xlink:href="#radial-gradient"/><radialGradient id="radial-gradient-62" cx="-11908.14" cy="-7250.97" r="103.57" gradientTransform="matrix(0.27, 0.19, 0.19, -0.27, 4624.25, 487.22)" xlink:href="#radial-gradient"/><radialGradient id="radial-gradient-63" cx="-8818.79" cy="-2590.98" r="79.27" gradientTransform="translate(2545.22 1865.6) rotate(18.73) scale(0.33 0.33)" xlink:href="#radial-gradient"/><radialGradient id="radial-gradient-64" cx="12843.68" cy="-2568.88" r="103.32" gradientTransform="matrix(-0.33, 0, 0, 0.33, 4280.71, 982.36)" xlink:href="#radial-gradient"/><radialGradient id="radial-gradient-65" cx="-8823.62" cy="-2567.54" r="89.25" gradientTransform="matrix(0.29, 0.16, -0.15, 0.29, 2229.08, 2250.25)" xlink:href="#radial-gradient"/><radialGradient id="radial-gradient-66" cx="-13301.95" cy="-3158.34" r="103.56" gradientTransform="matrix(0.31, 0.09, 0.09, -0.31, 4547.17, 415.14)" xlink:href="#radial-gradient"/><radialGradient id="radial-gradient-67" cx="-8819.56" cy="-2544.58" r="95.83" gradientTransform="matrix(0.26, 0.2, -0.2, 0.26, 1855.77, 2577.42)" xlink:href="#radial-gradient"/><radialGradient id="radial-gradient-68" cx="-13473.33" cy="-996.16" r="103.57" gradientTransform="matrix(0.33, 0.04, 0.04, -0.32, 4500.56, 390.06)" xlink:href="#radial-gradient"/><radialGradient id="radial-gradient-69" cx="-8804.55" cy="-2528.19" r="95.85" gradientTransform="translate(1436.96 2834.83) rotate(47.23) scale(0.33 0.33)" xlink:href="#radial-gradient"/><radialGradient id="radial-gradient-70" cx="-13285.91" cy="1168.14" r="103.58" gradientTransform="matrix(0.33, -0.01, -0.01, -0.33, 4450.81, 373.18)" xlink:href="#radial-gradient"/><radialGradient id="radial-gradient-71" cx="-8778.06" cy="-2528.19" r="84.2" gradientTransform="translate(979.93 3013.88) rotate(56.74) scale(0.33 0.33)" xlink:href="#radial-gradient"/><radialGradient id="radial-gradient-72" cx="-12743.24" cy="3266.23" r="103.57" gradientTransform="matrix(0.32, -0.07, -0.07, -0.32, 4398.31, 363.86)" xlink:href="#radial-gradient"/><radialGradient id="radial-gradient-73" cx="-8767.52" cy="-2503.88" r="95.62" gradientTransform="matrix(0.13, 0.3, -0.3, 0.13, 504.42, 3122.55)" xlink:href="#radial-gradient"/><radialGradient id="radial-gradient-74" cx="-11863.13" cy="5250.29" r="103.58" gradientTransform="matrix(0.31, -0.12, -0.12, -0.31, 4345.64, 363.91)" xlink:href="#radial-gradient"/><radialGradient id="radial-gradient-75" cx="-8741.97" cy="-2503.88" r="89.6" gradientTransform="matrix(0.07, 0.32, -0.32, 0.07, -44.11, 3138.54)" xlink:href="#radial-gradient"/><radialGradient id="radial-gradient-76" cx="-10666.75" cy="7057.89" r="103.57" gradientTransform="matrix(0.28, -0.17, -0.17, -0.28, 4293.9, 372.56)" xlink:href="#radial-gradient"/><filter id="luminosity-noclip-3" x="7.97" y="14.7" width="216.37" height="216.19" filterUnits="userSpaceOnUse" color-interpolation-filters="sRGB"><feFlood flood-color="#fff" result="bg"/><feBlend in="SourceGraphic" in2="bg"/></filter><mask id="mask-3" x="7.97" y="14.7" width="216.37" height="216.19" maskUnits="userSpaceOnUse"><g class="cls-1"><path class="cls-2" d="M116.15,230.9a108,108,0,1,1,42.11-8.5A107.55,107.55,0,0,1,116.15,230.9Zm0-215.32A107,107,0,1,0,157.92,24,106.71,106.71,0,0,0,116.15,15.58Z"/></g></mask><linearGradient id="linear-gradient-3" x1="39.69" y1="199.27" x2="192.62" y2="46.33" gradientUnits="userSpaceOnUse"><stop offset="0" stop-color="#e2b673"/><stop offset="0.54"/><stop offset="1" stop-color="#d0a86b"/></linearGradient><linearGradient id="linear-gradient-4" x1="62.23" y1="122.43" x2="168.99" y2="122.43" gradientUnits="userSpaceOnUse"><stop offset="0" stop-color="#b68d5d"/><stop offset="0.07" stop-color="#bd9463"/><stop offset="0.51" stop-color="#e4c084"/><stop offset="1" stop-color="#b68d5d"/></linearGradient><linearGradient id="linear-gradient-5" x1="221.03" y1="125.35" x2="226.76" y2="119.62" xlink:href="#linear-gradient-4"/><linearGradient id="linear-gradient-6" x1="1.23" y1="125.45" x2="7.18" y2="119.5" xlink:href="#linear-gradient-4"/><linearGradient id="linear-gradient-7" x1="3865.42" y1="379.08" x2="3902.75" y2="379.08" gradientTransform="translate(4000.03 604.34) rotate(179.95)" xlink:href="#linear-gradient-4"/><linearGradient id="linear-gradient-8" x1="105.29" y1="801.12" x2="127.72" y2="801.12" gradientTransform="translate(-0.63 -785.55)" xlink:href="#linear-gradient-4"/><filter id="luminosity-noclip-4" x="68.46" y="46.13" width="94.29" height="152.59" filterUnits="userSpaceOnUse" color-interpolation-filters="sRGB"><feFlood flood-color="#fff" result="bg"/><feBlend in="SourceGraphic" in2="bg"/></filter><mask id="mask-4" x="68.46" y="46.13" width="94.29" height="152.59" maskUnits="userSpaceOnUse"><g class="cls-3"><path class="cls-4" d="M115.61,198.73l-47.15-76.3.14-.23,47-76.07,47.14,76.3-.14.23Zm-46.12-76.3,46.12,74.63,46.11-74.63L115.61,47.81Z"/></g></mask><linearGradient id="linear-gradient-9" x1="115.61" y1="46.13" x2="115.61" y2="198.73" xlink:href="#linear-gradient-3"/></defs><g id="레이어_2" data-name="레이어 2"><g id="레이어_1-2" data-name="레이어 1"><path class="cls-5" d="M116.26,122.38l-.15-11.7H117l.15,11.7Zm-.17-13.16,0-1.17h0l-.15-11.71h.88l.17,12.88Zm-.19-14.34L115.73,82h.88l.15,11.7h0l0,1.17Zm-.19-14.33-.16-12.88h.88l.15,11.7h0v1.17Zm-.18-14.34-.17-12.87h.88l.15,11.7h0l0,1.17Zm-.19-14.34L115.17,39h.88l.15,11.7h0l0,1.17Zm-.19-14.33V36.37h0l-.12-9h.88L116,37.53Z"/><rect class="cls-6" x="76.12" y="78.15" width="87.81" height="0.88" transform="translate(32.74 192.45) rotate(-85.74)"/><path class="cls-7" d="M117.13,122.45l-.87-.14.92-5.78.87.14Zm1.15-7.23-.87-.14.18-1.15.87.14Zm.32-2-.87-.14.92-5.78.87.14Zm1.14-7.23-.86-.13.18-1.16.87.14Zm.32-2-.86-.14.91-5.78.87.14Zm1.15-7.22-.87-.14.19-1.16.86.14Zm.32-2-.87-.13.92-5.78.87.13Zm1.15-7.22-.87-.14.18-1.15.87.13Zm.32-2-.87-.14.92-5.78.86.14Zm1.14-7.23-.86-.14.18-1.15.87.14Zm.32-2-.86-.14.91-5.78.87.14ZM125.61,69l-.87-.13.19-1.16.86.14Zm.32-2-.87-.14L126,61l.87.14Zm1.15-7.22-.87-.14.18-1.16.87.14Zm.32-2-.87-.13.92-5.78.86.13Zm1.14-7.22-.87-.14.19-1.15.87.13Zm.32-2-.86-.14.91-5.78.87.14ZM130,41.24l-.87-.14.18-1.15.87.14Zm.32-2-.87-.14.92-5.78.87.14ZM131.48,32l-.87-.13.18-1.16.87.14Zm.32-2-.87-.14.22-1.39.87.13Z"/><rect class="cls-8" x="84.18" y="80.41" width="85.51" height="0.88" transform="translate(18.25 184.95) rotate(-76.26)"/><path class="cls-9" d="M117.11,122.52l-.83-.28,3.72-11.1.83.28ZM121.3,110l-.84-.28,4.09-12.21.83.28-3.71,11.1-.34-.11.34.11Zm4.55-13.6-.83-.27L129.1,84l.84.28-3.72,11.09-.42-.13.42.13Zm4.55-13.59-.83-.28,4.09-12.21.83.28-3.72,11.1-.44-.15.44.15ZM135,69.24l-.84-.28,4.09-12.2L139,57l-3.71,11.1-.47-.15.47.15Zm4.55-13.59-.83-.28,4.08-12.21.84.28-3.72,11.1-.5-.17.5.17Zm4.55-13.6-.83-.28,3.24-9.66.83.27-2.87,8.56L144,40.8l.41.14Z"/><rect class="cls-10" x="90.17" y="81.56" width="87.91" height="0.88" transform="translate(5.85 172.87) rotate(-66.75)"/><path class="cls-11" d="M117.09,122.58l-.78-.41,5.5-10.33.77.41ZM123.27,111l-.77-.41.55-1,.38.21-.38-.21,5.5-10.33.77.41ZM130,98.3l-.78-.41,6.05-11.37.78.41-5.5,10.34-.29-.16.29.16Zm6.73-12.66-.77-.41.55-1,.47.25-.47-.25L142,73.86l.77.41ZM143.48,73l-.78-.41,6.05-11.37.78.41L144,72l-.39-.21L144,72Zm6.74-12.66-.78-.41.55-1,.78.41-.78-.41,5.5-10.34.77.41ZM157,47.66l-.77-.41,4.78-9,.78.41-4.24,8-.48-.26.48.26Z"/><rect class="cls-12" x="96.6" y="84.98" width="87.91" height="0.88" transform="translate(-7.29 157.47) rotate(-57.27)"/><path class="cls-13" d="M117.05,122.64l-.7-.53,3.56-4.64.7.53Zm4.45-5.8-.69-.53.71-.93.7.53Zm1.25-1.62-.7-.54,3.57-4.64.7.53Zm4.46-5.81-.7-.53.71-.93.7.53Zm1.24-1.62-.69-.54,3.56-4.64.7.53Zm4.46-5.81-.7-.53.72-.93.69.54Zm1.25-1.62-.7-.54L137,95.18l.69.54Zm4.45-5.8-.69-.54.71-.93.7.54Zm1.25-1.63-.7-.53,3.57-4.65.7.54Zm4.46-5.8-.7-.54.71-.93.7.54Zm1.25-1.63-.7-.53,3.56-4.65.7.54ZM150,79.7l-.69-.54.71-.92.7.53Zm1.25-1.63-.7-.53,3.57-4.64.69.53Zm4.46-5.8-.7-.53.71-.93.7.53ZM157,70.65l-.69-.54,3.56-4.64.7.53Zm4.46-5.81-.7-.53.72-.93.69.53Zm1.25-1.62-.7-.54L165.55,58l.69.53Zm4.45-5.81-.69-.53.71-.93.7.53Zm1.25-1.62-.7-.54,3.57-4.64.7.54ZM172.84,50l-.7-.53.71-.93.7.54Zm1.25-1.62-.7-.53.86-1.13.7.54Z"/><rect class="cls-14" x="104" y="93.08" width="77.99" height="0.88" transform="translate(-22.35 136.58) rotate(-47.78)"/><path class="cls-15" d="M117,122.7l-.6-.64,4.28-4,.6.65Zm5.35-5-.6-.64.86-.8.6.64Zm1.5-1.4-.6-.64,4.28-4,.6.64Zm5.35-5-.6-.64.86-.8.6.64Zm1.5-1.39-.6-.65,4.29-4,.6.64Zm5.36-5-.6-.65.85-.79.6.64Zm1.5-1.4-.6-.64,4.28-4,.6.64Zm5.35-5-.6-.64.86-.8.59.64Zm1.5-1.4-.6-.64,4.28-4,.6.64Zm5.35-5-.6-.64.86-.8.6.65Zm1.5-1.39-.6-.64,4.28-4,.6.65Zm5.35-5-.6-.64.86-.8.6.64Zm1.5-1.4-.6-.64,4.29-4,.59.64Zm5.36-5-.6-.64.85-.8.6.64ZM165,78l-.59-.65,4.28-4,.6.64Zm5.36-5-.6-.65.86-.79.59.64Zm1.5-1.4-.6-.64,4.28-4,.6.64Zm5.35-5-.6-.64.86-.8.6.64Zm1.5-1.4-.6-.64,4.28-4,.6.64Zm5.35-5-.6-.64.86-.8.6.65Zm1.5-1.39-.6-.65,1-1,.6.64Z"/><rect class="cls-16" x="107.33" y="94.73" width="87.94" height="0.88" transform="translate(-26.42 114.19) rotate(-38.28)"/><path class="cls-17" d="M116.94,122.74l-.48-.73,9.76-6.46.49.73Zm11-7.27-.49-.73,1-.64.48.73Zm1.71-1.13-.49-.73,9.77-6.46.48.73Zm11-7.26-.48-.74,1-.64.48.73Zm1.71-1.14-.48-.73,9.76-6.46.49.73Zm11-7.26-.48-.74,1-.64.49.73ZM155,97.54l-.49-.73,9.77-6.46.49.73Zm11-7.26-.49-.74,1-.64.48.73Zm1.71-1.13-.49-.74L177,82l.48.73Zm11-7.27-.48-.74,1-.64.49.73Zm1.71-1.13-.48-.74,9.76-6.46.49.74Zm11-7.27-.49-.73,1-.65.49.73Zm1.71-1.13-.49-.73,3.14-2.08.48.73Z"/><rect class="cls-18" x="111.86" y="102.82" width="79.52" height="0.88" transform="translate(-30.98 85.75) rotate(-28.78)"/><path class="cls-19" d="M116.88,122.78l-.36-.8,3.21-1.43.36.8Zm4.54-2-.35-.8,4.28-1.9.35.8Zm5.62-2.5-.36-.8,4.28-1.9.36.8-3.21,1.43-.19-.43.19.43Zm5.62-2.5-.36-.8,4.28-1.9.36.8-3.21,1.43-.18-.4.18.4Zm5.62-2.5-.36-.8L139,112l.18.4L139,112l3.21-1.43.36.8Zm5.61-2.5-.35-.8,4.28-1.9.35.8L145,110.28l-.16-.36.16.36Zm5.62-2.5-.36-.8,4.28-1.9.36.8-3.21,1.43-.18-.4.18.4Zm5.62-2.5-.36-.8,1.07-.48.36.81-.36-.81,3.21-1.42.36.8Zm5.61-2.5-.35-.8,1.07-.48.18.41-.18-.41,3.21-1.42.35.8Zm5.62-2.5L166,100l4.28-1.9.36.8-3.21,1.43-.18-.4.18.4Zm5.62-2.5-.36-.8,4.28-1.9.36.8-3.21,1.43-.18-.4.18.4Zm5.62-2.5-.36-.8,1.07-.48.14.33-.14-.33,3.21-1.42.36.8Zm5.61-2.5-.35-.8,4.28-1.9.35.8-3.21,1.43-.2-.45.2.45Zm5.62-2.5-.36-.8,4.28-1.9.36.8-3.21,1.43-.18-.4.18.4Zm5.62-2.5-.36-.8,1.07-.48.21.48-.21-.48,3.21-1.42.36.8Zm5.61-2.5-.35-.8,1.07-.48.11.25-.11-.25,2.63-1.17.36.8Z"/><rect class="cls-20" x="114.99" y="111.51" width="63.28" height="0.88" transform="translate(-28.74 54.71) rotate(-19.28)"/><path class="cls-21" d="M116.81,122.8l-.22-.85,5.67-1.46.22.85ZM123.9,121l-.22-.85,1.13-.29.22.85Zm2-.51-.22-.85,5.67-1.47.22.85Zm7.09-1.84-.22-.85,1.13-.29.22.85Zm2-.51-.22-.85,5.67-1.47.22.85Zm7.09-1.83-.22-.85,1.13-.3.22.85Zm2-.52-.22-.85,5.67-1.46.22.85Zm7.09-1.83-.22-.85,1.13-.29.22.85Zm2-.51-.22-.85,5.67-1.47.22.85Zm7.09-1.84-.22-.85,1.13-.29.22.85Zm2-.51-.22-.85,5.67-1.47.22.85Zm7.09-1.83-.22-.85,1.14-.3.22.85Zm2-.52-.22-.85,5.67-1.46.22.85Zm7.08-1.83-.22-.85,1.14-.29.22.85Zm2-.51-.22-.85,5.67-1.47.22.85Zm7.08-1.83-.22-.85,1.14-.3.22.85Zm2-.52-.22-.85,5.67-1.46.22.85Zm7.09-1.83-.22-.85,1.13-.29.22.85Zm2-.51-.22-.85,5.67-1.47.22.85Zm7.09-1.84-.22-.85,1.13-.29.22.85Zm2-.51-.22-.85,1.37-.36.22.85Z"/><rect class="cls-22" x="116.16" y="114.89" width="83.24" height="0.88" transform="translate(-17.29 28.46) rotate(-9.77)"/><path class="cls-23" d="M116.74,122.81l-.08-.87,11.67-1,.07.87Zm13.12-1.15-.07-.87,12.83-1.13.08.88Zm14.3-1.25-.08-.87,12.83-1.13.08.87Zm14.29-1.25-.08-.88,12.84-1.12.07.87Zm14.29-1.26-.07-.87,12.83-1.13.08.88Zm14.3-1.25-.08-.87,12.83-1.13.08.87Zm14.29-1.25-.08-.88,10.17-.89.07.88-9,.78,0-.43,0,.43Z"/><rect class="cls-24" x="116.7" y="121.75" width="70.16" height="0.88" transform="translate(-0.64 0.8) rotate(-0.3)"/><path class="cls-25" d="M211.49,130.24l-10.17-.79.07-.88,1.17.09,0,.44,0-.44,9,.71Zm-11.63-.91-12.84-1,.07-.88,1.16.09,0,.44,0-.44,11.68.92Zm-14.3-1.12-12.85-1,.07-.88,1.17.09,0,.46,0-.46,11.68.92Zm-14.31-1.12-12.84-1,.07-.87,1.17.09,0,.44,0-.44,11.67.92ZM157,126l-12.84-1,.06-.87,1.17.09,0,.44,0-.44,11.68.92Zm-14.3-1.12-12.85-1,.07-.87,1.17.09,0,.44,0-.44,11.67.91Zm-14.31-1.12-11.68-.92.07-.87,11.68.91Z"/><rect class="cls-26" x="159.74" y="85.45" width="0.88" height="87.96" transform="translate(6.74 266.78) rotate(-80.78)"/><path class="cls-27" d="M208.89,145.76l-1.37-.34.21-.85,1.38.34Zm-2.22-.55-1.14-.28.21-.85,1.14.28Zm-2.56-.64-5.68-1.41.21-.85,5.68,1.41ZM197.57,143l-1.13-.28.21-.86,1.14.29Zm-2.55-.64-5.69-1.41.22-.85,5.68,1.41Zm-6.54-1.62-1.13-.29.21-.85,1.13.28Zm-2.56-.64-5.68-1.41.21-.85,5.69,1.41Zm-6.53-1.63-1.14-.28.21-.85,1.14.28Zm-2.56-.63-5.68-1.42.21-.85,5.68,1.42Zm-6.53-1.63-1.14-.28.21-.85,1.14.28Zm-2.56-.63-5.68-1.42.21-.85,5.68,1.42Zm-6.54-1.63-1.13-.28.21-.85,1.14.28Zm-2.55-.64L153,131.85l.22-.85,5.68,1.41Zm-6.54-1.62-1.14-.28.22-.86,1.13.29Zm-2.56-.64-5.68-1.41.21-.85,5.69,1.41ZM143,129.38l-1.14-.29.21-.85,1.14.29Zm-2.56-.64-5.68-1.41.21-.86,5.68,1.42Zm-6.53-1.63-1.14-.28L133,126l1.14.28Zm-2.56-.63-5.69-1.42.22-.85,5.68,1.42Zm-6.54-1.63-1.13-.28.21-.85L125,124Zm-2.55-.63-5.69-1.42.21-.85,5.69,1.41Z"/><rect class="cls-28" x="150.86" y="97.61" width="0.88" height="72.93" transform="translate(-24.24 234.35) rotate(-71.28)"/><path class="cls-29" d="M203.77,160.65l-1.3-.57.35-.8,1.3.56Zm-2.11-.92-1.07-.46.35-.81,1.07.47Zm-2.41-1-5.38-2.33.35-.8,5.38,2.33ZM193.07,156l-1.08-.46.35-.81,1.08.47ZM190.65,155l-5.37-2.33.35-.8,5.37,2.33Zm-6.18-2.68-1.07-.46.35-.81,1.07.47Zm-2.41-1.05-5.37-2.33.35-.8,5.37,2.33Zm-6.18-2.68-1.07-.47.35-.8,1.07.47Zm-2.42-1-5.37-2.33.35-.8,5.37,2.33Zm-6.18-2.68-1.07-.47.35-.8,1.07.47Zm-2.41-1.05-5.37-2.33.35-.8,5.37,2.33Zm-6.18-2.68-1.07-.47.35-.8,1.07.47ZM156.27,140l-5.37-2.33.35-.8,5.37,2.33Zm-6.17-2.68-1.08-.47.35-.8,1.08.47Zm-2.42-1L142.31,134l.35-.81L148,135.5Zm-6.18-2.68-1.07-.47.35-.8,1.07.47Zm-2.42-1.05-5.37-2.33.35-.81,5.37,2.34Zm-6.17-2.68-1.08-.47.35-.8,1.08.47Zm-2.42-1-5.37-2.33.35-.81,5.37,2.34Zm-6.18-2.68-1.07-.47.35-.8,1.07.46Zm-2.42-1-5.37-2.33.35-.81,5.37,2.34Z"/><rect class="cls-30" x="152.44" y="100.76" width="0.88" height="81.98" transform="translate(-44.3 209.48) rotate(-61.79)"/><path class="cls-31" d="M196.25,174.48l-3.15-2,.48-.73,3.15,2ZM192.36,172l-1-.63.48-.74,1,.64Zm-2.21-1.43-9.82-6.37.48-.74,9.82,6.37Zm-10.56-6.85-1-.63.48-.74,1,.64Zm-2.21-1.43-9.83-6.37.48-.74,9.83,6.37Zm-10.56-6.85-1-.63.48-.74,1,.64ZM164.61,154l-9.83-6.37.48-.74,9.82,6.37ZM154,147.11l-1-.64.48-.73,1,.63Zm-2.21-1.43L142,139.31l.47-.74,9.83,6.37Zm-10.56-6.85-1-.64.48-.73,1,.63Zm-2.21-1.43L129.23,131l.48-.74,9.83,6.37Zm-10.56-6.85-1-.64.48-.73,1,.63Zm-2.21-1.43-9.83-6.37.48-.74,9.82,6.37Z"/><rect class="cls-32" x="151.11" y="105.3" width="0.88" height="87.94" transform="translate(-59.23 177.89) rotate(-52.3)"/><path class="cls-33" d="M186.56,186.88l-1-1,.59-.64,1,.95Zm-1.69-1.55-.87-.79.6-.65.86.79Zm-2-1.78-4.32-4,.6-.65,4.32,4ZM178,179l-.87-.79.6-.65.86.79Zm-2-1.78-4.32-3.95.6-.65,4.32,4Zm-5-4.54-.87-.79.59-.65.87.79Zm-2-1.78L164.78,167l.59-.65,4.32,3.95Zm-5-4.55-.86-.79.59-.64.87.79Zm-1.94-1.77-4.32-4,.59-.64,4.32,3.95Zm-5-4.55-.86-.79.59-.65.87.79Zm-1.94-1.78L151,154.31l.59-.65,4.32,4Zm-5-4.54-.86-.79.59-.65.86.79Zm-1.94-1.78L144.05,148l.59-.65,4.32,3.95Zm-5-4.54-.86-.79.59-.65.86.79Zm-1.94-1.78-4.32-4,.59-.65,4.32,3.95Zm-5-4.55-.87-.79.6-.64.86.79Zm-2-1.77-4.32-4,.6-.65,4.32,4Zm-5-4.55-.87-.79.6-.65.86.8Zm-2-1.78L123.31,129l.6-.64,4.32,4Zm-5-4.54-.87-.79.59-.65.87.79Zm-2-1.78-4.32-4,.59-.65,4.32,4Z"/><rect class="cls-34" x="146.19" y="110.67" width="0.88" height="87.93" transform="translate(-66.02 140.8) rotate(-42.8)"/><path class="cls-35" d="M175,197.51l-2.31-2.95.69-.55,2.31,3Zm-2.86-3.65-.72-.92.69-.54.73.92Zm-1.62-2.07-7.22-9.22.7-.54,7.21,9.22Zm-7.76-9.91L162,181l.69-.54.73.92Zm-1.62-2.08-7.22-9.21.7-.54,7.21,9.21Zm-7.76-9.91-.72-.92.69-.54.73.92Zm-1.62-2.07-7.22-9.22.7-.54,7.21,9.22ZM144,157.91l-.72-.92.69-.54.72.92Zm-1.62-2.07-7.22-9.22.7-.54,7.21,9.21Zm-7.76-9.91-.72-.93.69-.54.72.92ZM133,143.85l-7.22-9.22.69-.54,7.22,9.22Zm-7.76-9.91-.72-.92.69-.54.72.92Zm-1.62-2.07-7.22-9.22.69-.54,7.22,9.22Z"/><rect class="cls-36" x="137.51" y="116.04" width="0.88" height="77.19" transform="translate(-62.25 101.13) rotate(-33.3)"/><path class="cls-37" d="M161.74,206.09l-.67-1.24.77-.42.68,1.24Zm-1.09-2-.56-1,.77-.42.56,1Zm-1.26-2.31-2.8-5.14.77-.42,2.8,5.14Zm-3.22-5.91-.56-1,.78-.42.55,1Zm-1.26-2.32-2.79-5.14.77-.42,2.8,5.15Zm-3.21-5.91-.56-1,.77-.41.56,1Zm-1.26-2.31-2.8-5.14.77-.42,2.8,5.14Zm-3.22-5.91-.56-1,.77-.42.56,1ZM146,177.08l-2.79-5.14.77-.42,2.79,5.14Zm-3.21-5.91-.56-1,.77-.42.56,1Zm-1.26-2.31-2.8-5.14.77-.42,2.8,5.14Zm-3.22-5.92-.56-1,.77-.42.56,1ZM137,160.63l-2.8-5.14.78-.42,2.79,5.14Zm-3.21-5.91-.56-1,.77-.42.56,1Zm-1.26-2.31-2.8-5.15.77-.42,2.8,5.15Zm-3.22-5.92-.56-1,.77-.42.56,1Zm-1.26-2.31-2.8-5.14.78-.42,2.79,5.14Zm-3.22-5.91-.56-1,.78-.42.56,1ZM123.59,136l-2.8-5.14.77-.42,2.8,5.14ZM120.37,130l-.56-1,.77-.42.56,1Zm-1.26-2.31-2.8-5.14.77-.42,2.8,5.14Z"/><rect class="cls-38" x="134.06" y="118.64" width="0.88" height="87.91" transform="translate(-54.17 68.1) rotate(-23.8)"/><path class="cls-39" d="M147.3,212.37l-2.94-8.53.41-.14-.41.14-.38-1.11.83-.28,3.32,9.63Zm-3.8-11-4.2-12.17.83-.29.38,1.11-.38.13.38-.13,3.82,11.06Zm-4.68-13.55-4.2-12.17.83-.29.38,1.11-.3.1.3-.1,3.82,11.06Zm-4.68-13.56-4.2-12.17.83-.28.38,1.1-.41.15.41-.15L135,174Zm-4.68-13.55-4.2-12.17.83-.29.38,1.11-.34.12.34-.12,3.82,11.06Zm-4.68-13.55L121,136.07l.42-.14-.42.14-.38-1.1.83-.29,4.2,12.17Zm-4.68-13.56-3.82-11.06.83-.29,3.82,11.07Z"/><rect class="cls-40" x="125.69" y="121.3" width="0.88" height="82.58" transform="translate(-33.59 32.84) rotate(-13.11)"/><path class="cls-41" d="M132,216.18l-1.49-8.9h0l-.2-1.15.87-.15.19,1.16-.44.07.44-.07,1.5,8.9Zm-1.93-11.49-1.94-11.55h0L128,192l.86-.15L129,193l-.45.07L129,193,131,204.54Zm-2.38-14.14-2.13-12.7.87-.14.19,1.15-.48.08.48-.08,1.94,11.54Zm-2.37-14.14-1.94-11.54.43-.08-.43.08-.2-1.16.87-.14,2.13,12.69ZM123,162.27,121,150.73l.44-.08-.44.08-.19-1.16.86-.14,2.14,12.69Zm-2.38-14.14-1.94-11.54.4-.07-.4.07-.19-1.16.86-.14,2.14,12.7ZM118.21,134l-1.94-11.54.86-.15,1.94,11.55Z"/><rect class="cls-42" x="68.6" y="169.39" width="94.91" height="0.88" transform="translate(-55.34 283.56) rotate(-89.22)"/><rect class="cls-43" x="111.7" y="34.3" width="0.88" height="88.2" transform="translate(-5.49 8.51) rotate(-4.24)"/><rect class="cls-44" x="70.29" y="164.32" width="85.13" height="0.88" transform="translate(-61.56 262.03) rotate(-84.74)"/><rect class="cls-45" x="118.94" y="122.19" width="0.88" height="85.74" transform="translate(-14.8 11.79) rotate(-5.33)"/><path class="cls-46" d="M115,122.45l-.92-5.78.87-.14.92,5.78Zm-1.15-7.23-.18-1.15.87-.14.18,1.15Zm-.32-2-.91-5.78.86-.14.92,5.78ZM112.42,106l-.19-1.15.87-.14.18,1.16Zm-.32-2-.92-5.78.87-.14.91,5.78ZM111,96.73l-.18-1.16.87-.14.18,1.16Zm-.32-2-.92-5.78.87-.13.92,5.78Zm-1.15-7.22-.18-1.16.87-.13.18,1.15Zm-.32-2-.91-5.78.86-.14.92,5.78ZM108,78.23l-.19-1.15.87-.14.19,1.15Zm-.32-2-.92-5.78.87-.14.91,5.78ZM106.55,69l-.18-1.15.87-.14.18,1.16Zm-.32-2-.92-5.78.87-.14.92,5.78Zm-1.14-7.22-.19-1.16.87-.14L106,59.6Zm-.33-2-.91-5.78.87-.13.91,5.78Zm-1.14-7.22-.18-1.16.86-.13.19,1.15Zm-.32-2-.92-5.78.87-.14.92,5.78Zm-1.15-7.23L102,40.09l.87-.14L103,41.1Zm-.32-2-.91-5.78.86-.14.92,5.78ZM100.69,32l-.19-1.15.87-.14.18,1.16Zm-.32-2-.23-1.4.87-.13.22,1.39Z"/><rect class="cls-47" x="103.19" y="24.88" width="0.88" height="98.92" transform="translate(-14.71 26.79) rotate(-13.76)"/><path class="cls-48" d="M115.05,122.52l-3.72-11.1.83-.28,3.72,11.1ZM110.87,110l-.38-1.11.84-.28.37,1.11Zm-.66-1.94L106.5,97l.83-.28,3.72,11.1ZM106,95.6l-.37-1.11.83-.28.38,1.11Zm-.65-1.94-3.71-11.1.83-.28,3.72,11.1ZM101.2,81.17l-.37-1.11.83-.27.37,1.1Zm-.65-1.94-3.72-11.1.84-.28L101.38,79ZM96.37,66.75,96,65.64l.83-.28.37,1.11Zm-.65-2L92,53.7l.84-.27,3.71,11.09ZM91.54,52.32l-.37-1.11.83-.28L92.37,52Zm-.65-2L87.17,39.28,88,39l3.72,11.1ZM86.71,37.89l-.38-1.11.84-.28.37,1.11ZM86.06,36l-1.2-3.57.84-.27,1.19,3.56Z"/><rect class="cls-49" x="97.6" y="38.05" width="0.88" height="87.91" transform="translate(-24.42 45.39) rotate(-23.27)"/><path class="cls-50" d="M115.08,122.58l-5.5-10.33.77-.41,5.5,10.33ZM108.89,111l-6-11.37.78-.41,5.5,10.33-.39.21.39-.21.54,1ZM102.15,98.3l-.55-1,.3-.16-.3.16L96.11,86.93l.77-.41,6.05,11.37ZM95.42,85.64l-6-11.37.77-.41,5.5,10.33-.47.25.47-.25.55,1ZM88.68,73l-.55-1,.39-.21-.39.21-5.5-10.34.78-.41,6,11.37ZM82,60.32,75.9,49l.77-.41,5.5,10.34-.77.41.77-.41.55,1ZM75.21,47.66l-.55-1,.48-.26-.48.26-4.24-8,.78-.41,4.79,9Z"/><rect class="cls-51" x="91.17" y="41.46" width="0.88" height="87.91" transform="translate(-31.65 63.17) rotate(-32.77)"/><path class="cls-52" d="M115.11,122.64,108,113.36l.7-.54,7.13,9.29Zm-8-10.44L99.25,102l.7-.53,7.13,9.29-.45.34.45-.34.71.92Zm-8.73-11.38-.71-.93.36-.27-.36.27-7.13-9.28.69-.54,7.85,10.22ZM89.63,89.45l-.72-.93.35-.27-.35.27-7.13-9.29.7-.53,7.84,10.21ZM80.89,78.07,73.05,67.86l.7-.53,7.13,9.28-.35.27.35-.27.71.93ZM72.16,66.7,64.31,56.48,65,56l7.13,9.29-.35.26.35-.26.71.92ZM63.42,55.32l-6.21-8.08.7-.54,5.5,7.16-.25.19.25-.19.71.93Z"/><rect class="cls-53" x="88.73" y="54.53" width="0.88" height="77.99" transform="translate(-39.72 84.29) rotate(-42.27)"/><path class="cls-54" d="M115.16,122.7l-8.56-8,.6-.65,8.56,8Zm-9.63-9-.86-.8.6-.64.86.8Zm-1.5-1.4-8.57-8,.6-.64,8.57,8Zm-9.64-9-.85-.8.59-.64.86.8Zm-1.5-1.4-8.56-8,.6-.64,8.56,8Zm-9.63-9-.86-.8.6-.64.86.8Zm-1.5-1.39-8.57-8,.6-.64,8.57,8Zm-9.64-9-.85-.8.59-.65.86.8Zm-1.5-1.4-8.56-8,.6-.65,8.56,8Zm-9.63-9-.86-.8.6-.64.86.8Zm-1.5-1.4-8.57-8,.6-.64,8.57,8Zm-9.64-9L49,61l.59-.64.86.8Zm-1.5-1.4L45.6,57.87l.6-.64L49,59.79Z"/><rect class="cls-55" x="80.42" y="51.2" width="0.88" height="87.94" transform="translate(-43.93 99.78) rotate(-51.77)"/><path class="cls-56" d="M115.22,122.74l-9.77-6.46.49-.73,9.77,6.46Zm-11-7.27-1-.64.48-.73,1,.64Zm-1.71-1.13-9.76-6.46.48-.73,9.77,6.46Zm-11-7.27-1-.64.49-.73,1,.64Zm-1.71-1.13-9.77-6.46.49-.73,9.76,6.46Zm-11-7.26-1-.65.49-.73,1,.64Zm-1.71-1.13-9.76-6.47.48-.73,9.77,6.46Zm-11-7.27-1-.65.48-.73,1,.64Zm-1.7-1.13-9.77-6.47.48-.73,9.77,6.46Zm-11-7.27-1-.65L53,80.5l1,.65Zm-1.71-1.13L42,74.29l.49-.74L52.22,80Zm-11-7.27-1-.65.48-.73,1,.65ZM39,72.35l-3.13-2.08.48-.73,3.14,2.08Z"/><rect class="cls-57" x="80.1" y="63.5" width="0.88" height="79.52" transform="translate(-48.73 124.23) rotate(-61.26)"/><path class="cls-58" d="M115.28,122.78l-5.35-2.38.36-.81,5.35,2.39Zm-6.68-3-1.07-.47.35-.81L109,119Zm-1.88-.83-5.35-2.38.36-.8,5.35,2.38ZM100,116,99,115.52l.36-.81,1.06.48Zm-1.87-.83-5.35-2.38.35-.8,5.35,2.38Zm-6.69-3-1.07-.47.36-.81,1.07.48Zm-1.87-.83L84.26,109l.35-.8L90,110.55Zm-6.69-3-1.07-.47.36-.81,1.07.48Zm-1.87-.83-5.35-2.38.35-.8,5.35,2.38Zm-6.69-3-1.07-.47.36-.81,1.07.48Zm-1.87-.83-5.35-2.38.35-.8,5.35,2.38Zm-6.69-3-1.07-.47.36-.81,1.07.48Zm-1.87-.83-5.35-2.38.35-.8,5.35,2.38Zm-6.69-3-1.07-.47.36-.81,1.07.48Zm-1.87-.83L50,93.73l.36-.8,5.35,2.38Zm-6.69-3-1.07-.47.36-.8,1.07.47Zm-1.87-.83-5.35-2.38.36-.8,5.35,2.38Zm-6.69-3-1.07-.47.36-.8,1.07.47Zm-1.87-.83L32.9,86.11l.36-.8,5.35,2.38Zm-6.69-3L30.49,85l.36-.8,1.07.47Zm-1.87-.83L28.4,84.1l.35-.8,1.3.58Z"/><rect class="cls-59" x="85.09" y="80.31" width="0.88" height="63.28" transform="matrix(0.33, -0.94, 0.94, 0.33, -48.36, 155.79)"/><path class="cls-60" d="M115.35,122.8,104,119.87l.22-.85L115.57,122Zm-12.75-3.3-1.14-.29.11-.43-.11.43-11.34-2.93.22-.85,12.48,3.22Zm-13.89-3.59-12.48-3.23.22-.85,11.34,2.94-.08.32.08-.32,1.14.29Zm-13.89-3.59-1.14-.3.11-.42-.11.42-11.34-2.93.22-.85L75,111.47Zm-13.9-3.6L48.45,105.5l.22-.85L60,107.58l-.07.26.07-.26,1.14.29ZM47,105.13l-12.47-3.22.22-.85L46.12,104l-.07.28.07-.28,1.13.29Zm-13.89-3.59L23.27,99l.22-.85,8.74,2.27-.12.47.12-.47,1.13.29Z"/><rect class="cls-61" x="73.94" y="73.7" width="0.88" height="83.24" transform="translate(-51.88 169.09) rotate(-80.24)"/><path class="cls-62" d="M115.42,122.81l-11.66-1,.07-.87,11.67,1Zm-13.12-1.15-12.84-1.12.08-.88,12.83,1.13ZM88,120.41l-12.83-1.13.08-.87,12.83,1.13Zm-14.29-1.25L60.88,118l.07-.87,12.84,1.12ZM59.42,117.9l-12.84-1.12.08-.88L59.49,117Zm-14.3-1.25-12.83-1.13.08-.87,12.83,1.13ZM30.83,115.4l-1.17-.11,0-.43,0,.43-9-.78.08-.88,10.16.89Z"/><rect class="cls-63" x="79.95" y="87.11" width="0.88" height="70.16" transform="translate(-42.22 201.95) rotate(-89.71)"/><path class="cls-64" d="M20.67,130.24l-.07-.87,9-.71,0,.44,0-.44,1.17-.09.07.88Zm11.63-.91-.07-.87,11.68-.92,0,.44,0-.44,1.16-.09.07.88Zm14.3-1.12-.07-.87,11.68-.92,0,.46,0-.46,1.17-.09.07.88Zm14.31-1.12-.07-.87,11.68-.92,0,.44,0-.44,1.16-.09.07.87ZM75.21,126l-.07-.87,11.68-.92,0,.44,0-.44,1.17-.09.07.87Zm14.31-1.12-.07-.88,11.67-.91,0,.44,0-.44,1.17-.09.07.87Zm14.3-1.12-.07-.88,11.68-.91.07.87Z"/><rect class="cls-65" x="28.01" y="128.99" width="87.96" height="0.88" transform="translate(-19.82 13.21) rotate(-9.23)"/><path class="cls-66" d="M23.27,145.77l-.22-.86,9.9-2.46.22.85-1.14.28-.11-.42.11.42ZM34.59,143l-.22-.85L46.88,139l.21.85-1.14.28-.1-.42.1.42Zm13.92-3.46-.21-.86,12.5-3.11.21.85-1.13.29-.11-.42.11.42ZM62.43,136l-.21-.85,12.5-3.11.22.85-1.14.28-.11-.42.11.42Zm13.93-3.46-.22-.85,12.51-3.11.21.85-1.14.28-.1-.43.1.43Zm13.92-3.47-.21-.85,12.5-3.11.21.85-1.13.29-.1-.37.1.37Zm13.92-3.46-.21-.85L115.36,122l.21.85Z"/><rect class="cls-67" x="44.4" y="133.64" width="72.93" height="0.88" transform="translate(-38.78 33.07) rotate(-18.73)"/><path class="cls-68" d="M28.39,160.65l-.35-.81,1.3-.56.35.8Zm2.11-.92-.35-.8,1.07-.47.35.81Zm2.42-1-.35-.8,5.37-2.33.35.8ZM39.09,156l-.35-.8,1.08-.47.35.81ZM41.51,155l-.35-.8,5.37-2.33.35.8Zm6.18-2.68-.35-.8,1.07-.47.35.81Zm2.41-1.05-.35-.8,5.38-2.33.35.8Zm6.18-2.68-.35-.8,1.08-.47.35.8Zm2.42-1-.35-.8,5.37-2.33.35.8Zm6.18-2.68-.35-.8,1.07-.47.35.8Zm2.41-1.05-.35-.8,5.38-2.33.35.8Zm6.18-2.68-.35-.8,1.08-.47.35.8ZM75.89,140l-.35-.8,5.37-2.33.35.8Zm6.18-2.68-.35-.8,1.07-.47.35.8Zm2.41-1-.35-.8,5.37-2.34.35.81Zm6.18-2.68-.35-.8,1.07-.47.35.8Zm2.42-1.05-.35-.8,5.37-2.34.35.81Zm6.17-2.68-.35-.8,1.08-.47.35.8Zm2.42-1-.35-.8,5.37-2.34.35.81Zm6.18-2.68-.35-.81,1.07-.46.35.8Zm2.42-1-.35-.8,5.37-2.34.35.81Z"/><rect class="cls-69" x="38.29" y="141.31" width="81.98" height="0.88" transform="translate(-57.63 54.37) rotate(-28.23)"/><path class="cls-70" d="M35.91,174.48l-.48-.74,3.15-2,.48.73ZM39.8,172l-.48-.73,1-.64.48.74ZM42,170.52l-.48-.74,9.83-6.37.47.74Zm10.56-6.85-.48-.73,1-.64.47.74Zm2.21-1.43-.48-.74,9.83-6.37.48.74Zm10.56-6.85-.47-.73,1-.64.48.74ZM67.55,154l-.47-.74,9.82-6.37.48.74Zm10.57-6.85-.48-.74,1-.63.48.73Zm2.21-1.43-.48-.74,9.83-6.37.47.74Zm10.56-6.85-.48-.74,1-.63.47.73Zm2.21-1.43-.48-.74,9.83-6.37.48.74Zm10.57-6.85-.48-.74,1-.63.48.73Zm2.21-1.43-.48-.74,9.82-6.37.48.74Z"/><rect class="cls-71" x="36.64" y="148.83" width="87.94" height="0.88" transform="translate(-74.51 80.6) rotate(-37.75)"/><path class="cls-72" d="M45.6,186.88l-.59-.65,1-.95.6.64Zm1.69-1.55-.59-.65.86-.79.6.65Zm2-1.78-.6-.64L53,179l.6.65Zm5-4.54-.59-.65.87-.79.59.65Zm1.95-1.78-.59-.65,4.31-4,.6.65Zm5-4.54-.6-.65.87-.79.59.65Zm1.94-1.78-.59-.65,4.32-3.95.59.65Zm5-4.55-.6-.64.87-.79.59.64ZM70,164.59l-.59-.65L73.7,160l.59.64Zm5-4.55-.59-.65.86-.79.59.65Zm1.94-1.78-.59-.64,4.32-4,.59.65Zm5-4.54-.59-.65.86-.79.59.65Zm1.94-1.78-.59-.65,4.32-3.95.59.65Zm5-4.54-.59-.65L89,146l.6.65Zm1.95-1.78-.6-.65L94.43,141l.6.65Zm5-4.55-.59-.64.86-.79.6.64Zm2-1.77-.6-.65,4.32-4,.6.65Zm5-4.55-.59-.64.87-.8.59.65Zm2-1.78-.59-.64,4.32-4,.59.64Zm5-4.54-.6-.65.87-.79.59.65Zm1.94-1.78-.59-.65,4.32-4,.59.65Z"/><rect class="cls-73" x="41.56" y="154.2" width="87.93" height="0.88" transform="translate(-86.07 112.43) rotate(-47.23)"/><path class="cls-74" d="M57.21,197.51l-.69-.54,5.56-7.1.69.54Zm5.56-7.1-.69-.54.72-.93.69.54Zm1.63-2.08-.7-.54,7.22-9.22.69.54Zm7.21-9.22-.69-.54.72-.92.69.54ZM73.24,177l-.7-.54,7.94-10.14.69.54Zm8.84-11.29-.7-.54L88.6,156l.42.33L88.6,156l.72-.93.69.55Zm8.83-11.3-.69-.54,7.22-9.22.69.54Zm7.22-9.22-.69-.54.72-.92.69.54Zm1.62-2.07-.69-.54,7.22-9.22.69.54Zm7.22-9.22-.69-.54.72-.92.69.54Zm1.62-2.07-.69-.54,7.22-9.22.69.54Z"/><rect class="cls-75" x="55.61" y="154.19" width="77.19" height="0.88" transform="matrix(0.55, -0.84, 0.84, 0.55, -86.76, 148.59)"/><path class="cls-76" d="M70.42,206.09l-.78-.42.68-1.24.77.42Zm1.09-2-.77-.42.56-1,.77.42Zm1.26-2.31-.77-.42,2.8-5.14.77.42ZM76,195.85l-.77-.42.56-1,.77.42Zm1.26-2.32-.77-.41L79.27,188l.77.42Zm3.21-5.91-.77-.42.56-1,.77.42Zm1.26-2.31-.77-.42,2.8-5.14.77.42Zm3.22-5.91-.77-.42.56-1,.77.42Zm1.26-2.32-.77-.42,2.79-5.14.78.42Zm3.21-5.91-.77-.42.56-1,.77.42Zm1.26-2.31-.77-.42,2.8-5.14.77.42Zm3.22-5.92-.77-.41.56-1,.77.42Zm1.26-2.31-.77-.42,2.79-5.14.78.42Zm3.22-5.91-.78-.42.56-1,.78.42Zm1.25-2.31-.77-.42,2.8-5.15.77.42Zm3.22-5.92-.77-.42.56-1,.77.42Zm1.26-2.31-.77-.42,2.8-5.14.77.42Zm3.22-5.91-.77-.42.55-1,.78.42Zm1.26-2.32-.78-.42,2.8-5.14.77.42Zm3.21-5.91-.77-.42.56-1,.77.42Zm1.26-2.31-.77-.42,2.8-5.14.77.42Z"/><rect class="cls-77" x="53.71" y="162.15" width="87.91" height="0.88" transform="translate(-90.49 186.5) rotate(-66.25)"/><path class="cls-78" d="M84.86,212.37l-.83-.29,3.32-9.63.83.28-.38,1.11-.41-.14.41.14Zm3.8-11-.83-.29L91.65,190l.38.13-.38-.13.38-1.11.83.29Zm4.68-13.55-.83-.29,3.82-11.06.3.1-.3-.1.38-1.11.83.29ZM98,174.24l-.83-.28L101,162.89l.42.15-.42-.15.38-1.1.83.28Zm4.68-13.55-.83-.29,3.82-11.06.34.12-.34-.12.38-1.11.83.29Zm4.68-13.55-.83-.29,4.2-12.17.83.29-.38,1.1-.42-.14.42.14Zm4.68-13.56-.83-.28,3.82-11.07.83.29Z"/><rect class="cls-79" x="64.74" y="162.15" width="82.58" height="0.88" transform="translate(-76.34 229.08) rotate(-76.92)"/><path class="cls-80" d="M100.14,216.18l-.87-.14,1.5-8.9.44.07-.44-.07L101,206l.87.15Zm1.93-11.49-.87-.15,2.14-12.7.87.15-.2,1.15-.43-.07.43.07Zm2.38-14.14-.87-.15,2.14-12.69.86.14-.19,1.15-.43-.07.43.07Zm2.38-14.14-.87-.15,1.94-11.54.44.08-.44-.08.19-1.15.87.14Zm2.37-14.14-.86-.15,1.94-11.54.44.08-.44-.08.19-1.15.87.14Zm2.38-14.14-.87-.14,2.14-12.7.86.14-.19,1.16-.39-.07.39.07ZM114,134l-.87-.14L115,122.3l.87.15Z"/><g class="cls-81"><path class="cls-82" d="M116.15,230.9a108,108,0,1,1,42.11-8.5A107.55,107.55,0,0,1,116.15,230.9Zm0-215.32A107,107,0,1,0,157.92,24,106.71,106.71,0,0,0,116.15,15.58Z"/></g><polygon class="cls-83" points="115.61 36.88 62.74 122.43 115.61 207.98 168.47 122.43 115.61 36.88"/><path class="cls-84" d="M115.61,208.82,62.23,122.43l.14-.23,53.24-86.15L169,122.43l-.15.23ZM63.26,122.43l52.35,84.72L168,122.43,115.61,37.72Z"/><path class="cls-85" d="M219.85,122.49a4.05,4.05,0,1,1,4.05,4A4,4,0,0,1,219.85,122.49Z"/><path class="cls-86" d="M0,122.47a4.21,4.21,0,1,1,4.21,4.2A4.2,4.2,0,0,1,0,122.47Z"/><path class="cls-83" d="M111,226.25l-12,2.52,12,2.5-3.85,5.91,5.91-3.86,2.52,12,2.5-12,5.92,3.86-3.87-5.91,12-2.52-12-2.5,3.86-5.91-5.92,3.86-2.52-11.95-2.5,12-5.92-3.86Z"/><path class="cls-87" d="M115.62,247.4,112.8,234l-7.12,4.66,4.65-7.13-13.39-2.8L110.32,226l-4.66-7.12,7.13,4.65,2.8-13.37,2.82,13.36,7.13-4.66-4.65,7.13,13.38,2.8-13.38,2.82,4.67,7.12L118.42,234Zm-2.22-14.8,2.22,10.53,2.2-10.53,4.71,3.06-3.07-4.7L130,228.74l-10.55-2.2,3.07-4.7-4.7,3.07-2.23-10.53-2.2,10.53-4.71-3.06,3.08,4.7-10.54,2.22,10.54,2.2-3.06,4.7Z"/><path class="cls-83" d="M125.93,29.59a14.9,14.9,0,0,1-5.68,1.11,15.13,15.13,0,1,1,5.68-29.16,15.13,15.13,0,0,0,0,28.05Z"/><path class="cls-88" d="M120.25,31.14a15.57,15.57,0,1,1,0-31.14,15.39,15.39,0,0,1,5.85,1.14l1,.4-1,.41a14.69,14.69,0,0,0,0,27.24l1,.4-1,.41A15.59,15.59,0,0,1,120.25,31.14Zm0-30.26a14.69,14.69,0,1,0,4.51,28.67,15.57,15.57,0,0,1,0-28A14.56,14.56,0,0,0,120.25.88Z"/><g class="cls-89"><path class="cls-90" d="M115.61,198.73l-47.15-76.3.14-.23,47-76.07,47.14,76.3-.14.23Zm-46.12-76.3,46.12,74.63,46.11-74.63L115.61,47.81Z"/></g><path class="cls-83" d="M101.23,82.85l1,3.12,2.89,4.47-.34.22-1.31-2L101,94.57l19,8.43-9.37-14.45a.2.2,0,0,1,0-.11l.09-3-2.15-2.58L100,74.35l-.49,1,1.74,7.42Z"/><path class="cls-83" d="M111,85.41l0,.78,5.7.1,5.61-1.13-3.72-.84-3.93-.11h0l-5.47-1.12,1.83,2.2A.21.21,0,0,1,111,85.41Z"/><path class="cls-83" d="M123.1,90.76l.07.09,3.12,7.38a.17.17,0,0,1,0,.12l-3.06,16.31-1.16,5.89,10.14-26-1.94-3.41-3.38-1.29a.15.15,0,0,1-.09-.06l-3.59-4.42-6,1.21Z"/><polygon class="cls-83" points="93.06 85.56 94.41 84.87 90.66 80.74 89.67 80.49 90.25 83.46 93.06 85.56"/><polygon class="cls-83" points="96.88 88.92 89.96 83.75 79.3 77.84 97.78 91.62 96.88 88.92"/><path class="cls-83" d="M117.27,144.11l28.86-26.89-24.46,5.71,1.54,7.9a.17.17,0,0,1,0,.1l-1.85,6,0,.05-2.85,4.15Z"/><polygon class="cls-83" points="111 86.6 110.95 88.38 120.37 102.92 122.55 90.88 116.66 86.69 111 86.6"/><path class="cls-83" d="M120.24,118.22a.19.19,0,0,1-.07.12l-4.44,3.25,5.3,15,1.77-5.77-1.57-8.05a.11.11,0,0,1,0-.08v0h0l1.6-8.12,3-16.25-3-7.07-2.21,12.2,1.15,7.14v.07Z"/><path class="cls-83" d="M146.5,116.71l-1.44-2.23s0,0,0,0l-2-5.36-1.15-1.84v0l-3.71-7.83-2.73-3.51-2.92-1.07-10.8,27.68Z"/><path class="cls-83" d="M98.25,92.36l-3.08,1.27-.08,0A.17.17,0,0,1,95,93.6l-3.7-2.94,2.62,11,6.62-7.09,2.61-6.2-9.19-2.15,3.25,2.42a.23.23,0,0,1,.07.1l1.11,3.38A.19.19,0,0,1,98.25,92.36Z"/><polygon class="cls-83" points="106.97 102.83 103.62 103 102.61 105.76 105.68 105.86 106.97 102.83"/><path class="cls-83" d="M120.09,103.51,100.86,95l-2.53,25.45Zm-18,2.38,1.16-3.16a.23.23,0,0,1,.18-.13l2.67-.13.07-1.11.4,0-.06,1.06.54,0,0-1,.4,0,0,1.21h0a.19.19,0,0,1,0,.07L106,106.14a.21.21,0,0,1-.19.13l-3.49-.11a.2.2,0,0,1-.17-.09A.22.22,0,0,1,102.13,105.89Z"/><path class="cls-83" d="M103,87.9l-1.12-1.73,0,0-.92-3-4.7,1.61-1.37.41-1.18.6Z"/><polygon class="cls-83" points="122.82 155.97 133.23 152.55 143.65 148.02 149.73 141.05 117.14 144.82 122.82 155.97"/><path class="cls-83" d="M116.65,144.55l1.46-3.57,0,0,2.63-3.83-5.22-14.8-1.42,9.91v0l-2.36,8-.23,7.66.75,1.61Z"/><path class="cls-83" d="M112.39,167.34l3.74,3.21,3.34.1-2.84-4.32a.19.19,0,0,1,0-.19l2.77-6.15s0,0,0,0l2.42-3-10.33,6.14Z"/><polygon class="cls-83" points="112.21 150.2 112.2 150.19 109.42 155.56 109.69 161.35 111.29 162.77 122.45 156.14 116.78 145.02 112.21 150.2"/><path class="cls-83" d="M149.86,122.45a.2.2,0,0,1-.18-.12l-1-2.19-1.54,0a.19.19,0,0,1-.19-.17l-.32-2.65L117.6,144.36l32.48-3.76,4-9.61.14-4.59-3.12-3.91Z"/><polygon class="cls-83" points="95.13 93.21 97.76 92.12 79.04 78.15 91.07 89.98 95.13 93.21"/><polygon class="cls-83" points="119.86 118.06 121.43 110.63 120.33 103.83 106.54 114.55 112.83 120.88 115.49 121.26 119.86 118.06"/><polygon class="cls-83" points="100.42 95.25 93.95 102.17 92.38 105.89 97.96 120.01 100.42 95.25"/><path class="cls-83" d="M87.15,103.12,82,107.56l.68,6.28,1,3.37.1-3.45a.14.14,0,0,1,0-.1l1.59-2.39,0,0,4.37-3.67a.21.21,0,0,1,.24,0,.2.2,0,0,1,.09.22L88.94,113a.31.31,0,0,1,0,.1l-1.26,1.37,3.05-1.58L92,105.85s0,0,0,0h0l1.47-3.5Z"/><path class="cls-83" d="M92.61,107.56l1.18,8.36a.2.2,0,0,1-.06.18l-5,4.73,9.07-.16Z"/><path class="cls-83" d="M90.85,90.66l-1.63,2.67-.6,4.8v0l-1.26,4.52,6.16-.79Z"/><path class="cls-83" d="M98.26,121,95.59,131.4l4.51-1h.08l4.08.56,2.55-5.71a.16.16,0,0,1,.06-.08l5.56-4.09-6.21-6.25Z"/><polygon class="cls-83" points="88.53 121.24 89.61 128.15 95.19 131.29 97.82 121.08 88.53 121.24"/><path class="cls-91" d="M151.39,122.16a.22.22,0,0,0-.15-.08l-1.24,0-.94-2.19a.22.22,0,0,0-.19-.12l-1.49,0-.35-2.87h0v0a.08.08,0,0,0,0,0h0l-1.58-2.46-2-5.35,0,0L142.28,107l-3.71-7.85,0,0-2.78-3.58a.21.21,0,0,0-.1-.06l-3.08-1.13-2-3.49a.18.18,0,0,0-.1-.09l-3.41-1.3L123.46,85a.19.19,0,0,0-.11-.07l-4.68-1h0l-3.93-.12-6-1.23-8.66-8.71a.2.2,0,0,0-.18-.06.21.21,0,0,0-.15.11l-.65,1.35a.2.2,0,0,0,0,.13l1.71,7.32-4.73,1.61-1.26.38-3.88-4.28a.39.39,0,0,0-.11-.06L89.46,80a.19.19,0,0,0-.19,0,.2.2,0,0,0-.06.19l.57,2.93L76.86,76a.2.2,0,0,0-.26.06.19.19,0,0,0,0,.26L90.68,90.17l-1.83,3a.11.11,0,0,0,0,.08l-.6,4.83L86.9,102.8l-5.25,4.52a.2.2,0,0,0-.06.18l.69,6.4a.08.08,0,0,0,0,0l1.38,4.59a.19.19,0,0,0,.22.14.19.19,0,0,0,.18-.19l.14-4.65,1.54-2.31,3.87-3.25-1.07,4.63-2,2.18a.2.2,0,0,0,0,.26.2.2,0,0,0,.25.06L91,113.24a.22.22,0,0,0,.11-.14l1.07-5.94,1.23,8.72-5.23,4.93a.21.21,0,0,0-.07.18l1.16,7.32a.18.18,0,0,0,.1.15l6,3.36a.14.14,0,0,0,.14,0l4.71-1.06,4.2.57a.18.18,0,0,0,.21-.11l2.59-5.8,5.63-4.15,2.44.34-1.5,10.52-2.36,8s0,0,0,.06l-.23,7.73a.3.3,0,0,0,0,.1l.82,1.75L109,155.42a.2.2,0,0,0,0,.11l.28,5.93a.21.21,0,0,0,.07.14l1.72,1.53.92,4.36a.21.21,0,0,0,.07.11l3.85,3.31a.29.29,0,0,0,.13.05l3.8.11A.21.21,0,0,0,120,171a.2.2,0,0,0,0-.21l-3-4.55,2.71-6,3.1-3.79,10.53-3.46h0l10.47-4.55.07-.05,6.45-7.4s0,0,0-.06l4.09-9.75a.14.14,0,0,0,0-.07l.14-4.7a.19.19,0,0,0,0-.13ZM135.48,95.88l2.73,3.51,3.71,7.83v0l1.15,1.84,2,5.36s0,0,0,0l1.44,2.23-24.74,5.78,10.8-27.68Zm-14.79,7.58,2.21-12.2,3,7.07-3,16.25-1.6,8.12h0v0a.11.11,0,0,0,0,.08l1.57,8.05L121,136.63l-5.3-15,4.44-3.25a.19.19,0,0,0,.07-.12l1.6-7.55v-.07ZM98.36,92.11l-1.11-3.38a.23.23,0,0,0-.07-.1l-3.25-2.42,9.19,2.15-2.61,6.2-6.62,7.09-2.62-11L95,93.6a.17.17,0,0,0,.12.05l.08,0,3.08-1.27A.19.19,0,0,0,98.36,92.11Zm2.5,2.86,19.23,8.54L98.33,120.42Zm19.51,8L111,88.38l0-1.78,5.66.1,5.89,4.18Zm1,34.08,0-.05,1.85-6a.17.17,0,0,0,0-.1l-1.54-7.9,24.46-5.71-28.86,26.89,1.21-3Zm5.48-47.19a.15.15,0,0,0,.09.06l3.38,1.29,1.94,3.41-10.14,26,1.16-5.89,3.06-16.31a.17.17,0,0,0,0-.12l-3.12-7.38-.07-.09-5.87-4.16,6-1.21ZM114.63,84.2h0l3.93.11,3.72.84-5.61,1.13-5.7-.1,0-.78a.21.21,0,0,0-.05-.13l-1.83-2.2ZM99.49,75.37l.49-1,8.5,8.55,2.15,2.58-.09,3a.2.2,0,0,0,0,.11L119.94,103l-19-8.43,2.48-5.92,1.31,2,.34-.22L102.19,86l-1-3.12v-.06Zm-4.68,9.75,1.37-.41,4.7-1.61.92,3,0,0L103,87.9l-9.32-2.18Zm-5.14-4.63,1,.25,3.75,4.13-1.35.69-2.81-2.1ZM90,83.75l6.92,5.17.89,2.7L79.3,77.84ZM79,78.15l18.72,14-2.63,1.09L91.07,90Zm9.58,20v0l.6-4.8,1.63-2.67,2.67,11.23-6.16.79ZM92,105.81s0,0,0,0l-1.28,7.08-3.05,1.58,1.26-1.37a.31.31,0,0,0,0-.1l1.22-5.27a.2.2,0,0,0-.09-.22.21.21,0,0,0-.24,0l-4.37,3.67,0,0-1.59,2.39a.14.14,0,0,0,0,.1l-.1,3.45-1-3.37L82,107.56l5.15-4.44,6.3-.81L92,105.81Zm2-3.64,6.47-6.92L98,120l-5.58-14.12Zm-.22,13.93a.2.2,0,0,0,.06-.18l-1.18-8.36,5.17,13.11-9.07.16Zm1.46,15.19-5.58-3.14-1.08-6.91,9.29-.16Zm11.68-6.15a.16.16,0,0,0-.06.08l-2.55,5.71-4.08-.56h-.08l-4.51,1L98.26,121l8-6.19,6.21,6.25Zm6-4.26-6.29-6.33,13.79-10.72,1.1,6.8-1.57,7.43-4.37,3.2Zm-1.29,27,.23-7.66,2.36-8v0l1.42-9.91,5.22,14.8-2.63,3.83,0,0-1.46,3.57-4.36,4.93ZM119.41,160s0,0,0,0l-2.77,6.15a.19.19,0,0,0,0,.19l2.84,4.32-3.34-.1-3.74-3.21-.89-4.22L121.83,157Zm-8.12,2.82-1.6-1.42-.27-5.79,2.78-5.37h0l4.57-5.18,5.67,11.12ZM143.65,148l-10.42,4.53L122.82,156l-5.68-11.15,32.59-3.77Zm10.46-17-4,9.61-32.48,3.76,29.08-27.09.32,2.65a.19.19,0,0,0,.19.17l1.54,0,1,2.19a.2.2,0,0,0,.18.12l1.27,0,3.12,3.91Z"/><path class="cls-91" d="M102.32,106.16l3.49.11a.21.21,0,0,0,.19-.13l1.47-3.45a.19.19,0,0,0,0-.07h0l0-1.21-.4,0,0,1-.54,0,.06-1.06-.4,0-.07,1.11-2.67.13a.23.23,0,0,0-.18.13l-1.16,3.16a.22.22,0,0,0,0,.18A.2.2,0,0,0,102.32,106.16Zm1.3-3.16,3.35-.17-1.29,3-3.07-.1Z"/></g></g></svg>