<svg xmlns="http://www.w3.org/2000/svg" xmlns:xlink="http://www.w3.org/1999/xlink" viewBox="0 0 223.23 220.76"><defs><style>.cls-1{mask:url(#mask);filter:url(#luminosity-noclip-7);}.cls-10,.cls-12,.cls-2,.cls-4,.cls-6,.cls-8{mix-blend-mode:multiply;}.cls-2{fill:url(#linear-gradient);}.cls-3{mask:url(#mask-2);filter:url(#luminosity-noclip-12);}.cls-4{fill:url(#linear-gradient-2);}.cls-5{mask:url(#mask-3);filter:url(#luminosity-noclip-8);}.cls-6{fill:url(#linear-gradient-3);}.cls-7{mask:url(#mask-4);filter:url(#luminosity-noclip-9);}.cls-8{fill:url(#linear-gradient-4);}.cls-9{mask:url(#mask-5);filter:url(#luminosity-noclip-10);}.cls-10{fill:url(#linear-gradient-5);}.cls-11{mask:url(#mask-6);filter:url(#luminosity-noclip-11);}.cls-12{fill:url(#linear-gradient-6);}.cls-13{fill:url(#radial-gradient);}.cls-14{fill:url(#radial-gradient-2);}.cls-15{fill:url(#radial-gradient-3);}.cls-16{fill:url(#radial-gradient-4);}.cls-17{fill:url(#radial-gradient-5);}.cls-18{fill:url(#radial-gradient-6);}.cls-19{fill:url(#radial-gradient-7);}.cls-20{fill:url(#radial-gradient-8);}.cls-21{fill:url(#radial-gradient-9);}.cls-22{fill:url(#radial-gradient-10);}.cls-23{fill:url(#radial-gradient-11);}.cls-24{fill:url(#radial-gradient-12);}.cls-25{fill:url(#radial-gradient-13);}.cls-26{fill:url(#radial-gradient-14);}.cls-27{fill:url(#radial-gradient-15);}.cls-28{fill:url(#radial-gradient-16);}.cls-29{fill:url(#radial-gradient-17);}.cls-30{fill:url(#radial-gradient-18);}.cls-31{fill:url(#radial-gradient-19);}.cls-32{fill:url(#radial-gradient-20);}.cls-33{fill:url(#radial-gradient-21);}.cls-34{fill:url(#radial-gradient-22);}.cls-35{fill:url(#radial-gradient-23);}.cls-36{fill:url(#radial-gradient-24);}.cls-37{fill:url(#radial-gradient-25);}.cls-38{fill:url(#radial-gradient-26);}.cls-39{fill:url(#radial-gradient-27);}.cls-40{fill:url(#radial-gradient-28);}.cls-41{fill:url(#radial-gradient-29);}.cls-42{fill:url(#radial-gradient-30);}.cls-43{fill:url(#radial-gradient-31);}.cls-44{fill:url(#radial-gradient-32);}.cls-45{fill:url(#radial-gradient-33);}.cls-46{fill:url(#radial-gradient-34);}.cls-47{fill:url(#radial-gradient-35);}.cls-48{fill:url(#radial-gradient-36);}.cls-49{fill:url(#radial-gradient-37);}.cls-50{fill:url(#radial-gradient-38);}.cls-51{fill:url(#radial-gradient-39);}.cls-52{fill:url(#radial-gradient-40);}.cls-53{fill:url(#radial-gradient-41);}.cls-54{fill:url(#radial-gradient-42);}.cls-55{fill:url(#radial-gradient-43);}.cls-56{fill:url(#radial-gradient-44);}.cls-57{fill:url(#radial-gradient-45);}.cls-58{fill:url(#radial-gradient-46);}.cls-59{fill:url(#radial-gradient-47);}.cls-60{fill:url(#radial-gradient-48);}.cls-61{fill:url(#radial-gradient-49);}.cls-62{fill:url(#radial-gradient-50);}.cls-63{fill:url(#radial-gradient-51);}.cls-64{fill:url(#radial-gradient-52);}.cls-65{fill:url(#radial-gradient-53);}.cls-66{fill:url(#radial-gradient-54);}.cls-67{fill:url(#radial-gradient-55);}.cls-68{fill:url(#radial-gradient-56);}.cls-69{fill:url(#radial-gradient-57);}.cls-70{fill:url(#radial-gradient-58);}.cls-71{fill:url(#radial-gradient-59);}.cls-72{fill:url(#radial-gradient-60);}.cls-73{fill:url(#radial-gradient-61);}.cls-74{fill:url(#radial-gradient-62);}.cls-75{fill:url(#radial-gradient-63);}.cls-76{fill:url(#radial-gradient-64);}.cls-77{fill:url(#radial-gradient-65);}.cls-78{fill:url(#radial-gradient-66);}.cls-79{fill:url(#radial-gradient-67);}.cls-80{fill:url(#radial-gradient-68);}.cls-81{fill:url(#radial-gradient-69);}.cls-82{fill:url(#radial-gradient-70);}.cls-83{fill:url(#radial-gradient-71);}.cls-84{fill:url(#radial-gradient-72);}.cls-85{fill:url(#radial-gradient-73);}.cls-86{fill:url(#radial-gradient-74);}.cls-87{fill:url(#radial-gradient-75);}.cls-88{fill:url(#radial-gradient-76);}.cls-89{fill:#191919;}.cls-90{fill:url(#linear-gradient-7);}.cls-91{mask:url(#mask-7);}.cls-92{fill:url(#linear-gradient-8);}.cls-93{mask:url(#mask-8);}.cls-94{fill:url(#linear-gradient-9);}.cls-95{mask:url(#mask-9);}.cls-96{fill:url(#linear-gradient-10);}.cls-97{fill:url(#linear-gradient-11);}.cls-98{mask:url(#mask-10);}.cls-99{fill:url(#linear-gradient-12);}.cls-100{mask:url(#mask-11);}.cls-101{fill:url(#linear-gradient-13);}.cls-102{fill:url(#linear-gradient-14);}.cls-103{fill:url(#linear-gradient-15);}.cls-104{fill:url(#linear-gradient-16);}.cls-105{fill:url(#linear-gradient-17);}.cls-106{mask:url(#mask-12);}.cls-107{fill:url(#linear-gradient-18);}.cls-108{fill:url(#linear-gradient-19);}.cls-109{fill:url(#linear-gradient-20);}.cls-110{fill:url(#linear-gradient-21);}.cls-111{fill:url(#linear-gradient-22);}.cls-112{fill:url(#linear-gradient-23);}.cls-113{fill:url(#linear-gradient-24);}.cls-114{fill:url(#linear-gradient-25);}.cls-115{fill:url(#linear-gradient-26);}.cls-116{fill:url(#linear-gradient-27);}.cls-117{fill:url(#linear-gradient-28);}.cls-118{fill:url(#linear-gradient-29);}.cls-119{fill:url(#linear-gradient-30);}.cls-120{fill:url(#linear-gradient-31);}.cls-121{fill:url(#linear-gradient-32);}.cls-122{fill:url(#linear-gradient-33);}.cls-123{fill:url(#linear-gradient-34);}.cls-124{fill:url(#linear-gradient-35);}.cls-125{fill:url(#linear-gradient-36);}.cls-126{fill:url(#linear-gradient-37);}.cls-127{fill:url(#linear-gradient-38);}.cls-128{fill:#fff;}.cls-129{filter:url(#luminosity-noclip-6);}.cls-130{filter:url(#luminosity-noclip-5);}.cls-131{filter:url(#luminosity-noclip-4);}.cls-132{filter:url(#luminosity-noclip-3);}.cls-133{filter:url(#luminosity-noclip-2);}.cls-134{filter:url(#luminosity-noclip);}</style><filter id="luminosity-noclip" x="39.41" y="-8290.89" width="144.4" height="32766" filterUnits="userSpaceOnUse" color-interpolation-filters="sRGB"><feFlood flood-color="#fff" result="bg"/><feBlend in="SourceGraphic" in2="bg"/></filter><mask id="mask" x="39.41" y="-8290.89" width="144.4" height="32766" maskUnits="userSpaceOnUse"><g class="cls-134"/></mask><linearGradient id="linear-gradient" x1="-2310.14" y1="3664.63" x2="-2208.04" y2="3766.74" gradientTransform="translate(1141.57 4335.14) rotate(135)" gradientUnits="userSpaceOnUse"><stop offset="0" stop-color="#fff"/><stop offset="0.54"/><stop offset="1" stop-color="#f1f1f1"/></linearGradient><filter id="luminosity-noclip-2" x="49.44" y="-8290.89" width="124.34" height="32766" filterUnits="userSpaceOnUse" color-interpolation-filters="sRGB"><feFlood flood-color="#fff" result="bg"/><feBlend in="SourceGraphic" in2="bg"/></filter><mask id="mask-2" x="49.44" y="-8290.89" width="124.34" height="32766" maskUnits="userSpaceOnUse"><g class="cls-133"/></mask><linearGradient id="linear-gradient-2" x1="-809.62" y1="4653.78" x2="-722.03" y2="4741.37" gradientTransform="translate(-654.22 4807.95) rotate(180)" xlink:href="#linear-gradient"/><filter id="luminosity-noclip-3" x="39.79" y="-8290.89" width="71.21" height="32766" filterUnits="userSpaceOnUse" color-interpolation-filters="sRGB"><feFlood flood-color="#fff" result="bg"/><feBlend in="SourceGraphic" in2="bg"/></filter><mask id="mask-3" x="39.79" y="-8290.89" width="71.21" height="32766" maskUnits="userSpaceOnUse"><g class="cls-132"/></mask><linearGradient id="linear-gradient-3" x1="-2579.84" y1="2037.08" x2="-2579.84" y2="1965.87" gradientTransform="translate(2076.87 2731.08) rotate(90)" gradientUnits="userSpaceOnUse"><stop offset="0"/><stop offset="0" stop-color="#030303"/><stop offset="0.09" stop-color="#444"/><stop offset="0.17" stop-color="#7d7d7d"/><stop offset="0.25" stop-color="#acacac"/><stop offset="0.32" stop-color="#d0d0d0"/><stop offset="0.39" stop-color="#eaeaea"/><stop offset="0.45" stop-color="#fafafa"/><stop offset="0.5" stop-color="#fff"/><stop offset="0.57" stop-color="#fbfbfb"/><stop offset="0.63" stop-color="#efefef"/><stop offset="0.7" stop-color="#dcdcdc"/><stop offset="0.76" stop-color="silver"/><stop offset="0.82" stop-color="#9d9d9d"/><stop offset="0.88" stop-color="#717171"/><stop offset="0.95" stop-color="#3f3f3f"/><stop offset="1" stop-color="#0c0c0c"/></linearGradient><filter id="luminosity-noclip-4" x="110.38" y="-8290.89" width="73.05" height="32766" filterUnits="userSpaceOnUse" color-interpolation-filters="sRGB"><feFlood flood-color="#fff" result="bg"/><feBlend in="SourceGraphic" in2="bg"/></filter><mask id="mask-4" x="110.38" y="-8290.89" width="73.05" height="32766" maskUnits="userSpaceOnUse"><g class="cls-131"/></mask><linearGradient id="linear-gradient-4" x1="-2579.84" y1="1966.49" x2="-2579.84" y2="1893.44" xlink:href="#linear-gradient-3"/><filter id="luminosity-noclip-5" x="112.23" y="-8290.89" width="71.21" height="32766" filterUnits="userSpaceOnUse" color-interpolation-filters="sRGB"><feFlood flood-color="#fff" result="bg"/><feBlend in="SourceGraphic" in2="bg"/></filter><mask id="mask-5" x="112.23" y="-8290.89" width="71.21" height="32766" maskUnits="userSpaceOnUse"><g class="cls-130"/></mask><linearGradient id="linear-gradient-5" x1="2012.64" y1="2915.06" x2="2012.64" y2="2843.85" gradientTransform="translate(-2731.63 2082.16) rotate(-90)" xlink:href="#linear-gradient-3"/><filter id="luminosity-noclip-6" x="39.8" y="-8290.89" width="73.05" height="32766" filterUnits="userSpaceOnUse" color-interpolation-filters="sRGB"><feFlood flood-color="#fff" result="bg"/><feBlend in="SourceGraphic" in2="bg"/></filter><mask id="mask-6" x="39.8" y="-8290.89" width="73.05" height="32766" maskUnits="userSpaceOnUse"><g class="cls-129"/></mask><linearGradient id="linear-gradient-6" x1="2012.64" y1="2844.47" x2="2012.64" y2="2771.42" gradientTransform="translate(-2731.63 2082.16) rotate(-90)" xlink:href="#linear-gradient-3"/><radialGradient id="radial-gradient" cx="-8672.92" cy="-2423.83" r="120.01" gradientTransform="translate(2953.73 844.19) scale(0.33 0.33)" gradientUnits="userSpaceOnUse"><stop offset="0" stop-color="#121212"/><stop offset="0.16" stop-color="#151514"/><stop offset="0.3" stop-color="#201e1a"/><stop offset="0.43" stop-color="#322d23"/><stop offset="0.56" stop-color="#4b4131"/><stop offset="0.69" stop-color="#6c5c43"/><stop offset="0.81" stop-color="#947d58"/><stop offset="0.92" stop-color="#c2a471"/><stop offset="1" stop-color="#e4c084"/></radialGradient><radialGradient id="radial-gradient-2" cx="-8658.85" cy="-2410.51" r="111" gradientTransform="translate(-456.98 2947.21) rotate(85.77) scale(0.33 0.33)" xlink:href="#radial-gradient"/><radialGradient id="radial-gradient-3" cx="-8644.16" cy="-2421.76" r="120.28" xlink:href="#radial-gradient"/><radialGradient id="radial-gradient-4" cx="-6224.66" cy="4850.19" r="108.89" gradientTransform="matrix(0.19, 0.26, -0.27, 0.19, 2608.96, 773.3)" xlink:href="#radial-gradient"/><radialGradient id="radial-gradient-5" cx="-8616.88" cy="-2415.08" r="120.56" xlink:href="#radial-gradient"/><radialGradient id="radial-gradient-6" cx="-5139.25" cy="5725.96" r="111.91" gradientTransform="matrix(0.15, 0.29, -0.29, 0.15, 2562.92, 729.18)" xlink:href="#radial-gradient"/><radialGradient id="radial-gradient-7" cx="-8591.07" cy="-2403.99" r="120.77" xlink:href="#radial-gradient"/><radialGradient id="radial-gradient-8" cx="-3923.67" cy="6410.82" r="111.89" gradientTransform="matrix(0.1, 0.31, -0.31, 0.1, 2524.62, 678.62)" xlink:href="#radial-gradient"/><radialGradient id="radial-gradient-9" cx="-8567.44" cy="-2388.79" r="120.9" xlink:href="#radial-gradient"/><radialGradient id="radial-gradient-10" cx="-2595.56" cy="6901.2" r="99.36" gradientTransform="matrix(0.04, 0.32, -0.32, 0.04, 2495.67, 621.2)" xlink:href="#radial-gradient"/><radialGradient id="radial-gradient-11" cx="-8546.64" cy="-2369.91" r="120.92" xlink:href="#radial-gradient"/><radialGradient id="radial-gradient-12" cx="-1233.49" cy="7135.11" r="111.88" gradientTransform="matrix(-0.01, 0.33, -0.33, -0.01, 2475.47, 560.71)" xlink:href="#radial-gradient"/><radialGradient id="radial-gradient-13" cx="-8529.25" cy="-2347.84" r="120.85" xlink:href="#radial-gradient"/><radialGradient id="radial-gradient-14" cx="172.02" cy="7169.52" r="101.24" gradientTransform="matrix(-0.07, 0.32, -0.32, -0.06, 2466.53, 497.95)" xlink:href="#radial-gradient"/><radialGradient id="radial-gradient-15" cx="-8515.73" cy="-2323.21" r="120.68" xlink:href="#radial-gradient"/><radialGradient id="radial-gradient-16" cx="1552.35" cy="6954.2" r="106.82" gradientTransform="matrix(-0.12, 0.3, -0.31, -0.12, 2468.27, 433.47)" xlink:href="#radial-gradient"/><radialGradient id="radial-gradient-17" cx="-8506.47" cy="-2296.69" r="120.43" xlink:href="#radial-gradient"/><radialGradient id="radial-gradient-18" cx="2881.74" cy="6525.26" r="105.96" gradientTransform="matrix(-0.17, 0.28, -0.28, -0.17, 2481.39, 371.25)" xlink:href="#radial-gradient"/><radialGradient id="radial-gradient-19" cx="-8501.7" cy="-2269" r="120.14" xlink:href="#radial-gradient"/><radialGradient id="radial-gradient-20" cx="4118.48" cy="5868.44" r="112.48" gradientTransform="matrix(-0.21, 0.25, -0.25, -0.21, 2503.13, 319.88)" xlink:href="#radial-gradient"/><radialGradient id="radial-gradient-21" cx="-8501.57" cy="-2240.91" r="120.12" xlink:href="#radial-gradient"/><radialGradient id="radial-gradient-22" cx="5226.23" cy="5024.84" r="111.89" gradientTransform="matrix(-0.25, 0.21, -0.21, -0.25, 2534.8, 256.44)" xlink:href="#radial-gradient"/><radialGradient id="radial-gradient-23" cx="-8506.08" cy="-2213.17" r="120.42" xlink:href="#radial-gradient"/><radialGradient id="radial-gradient-24" cx="6193.1" cy="4010.66" r="110.15" gradientTransform="matrix(-0.28, 0.17, -0.17, -0.28, 2576.36, 206.58)" xlink:href="#radial-gradient"/><radialGradient id="radial-gradient-25" cx="-8515.1" cy="-2186.57" r="120.67" xlink:href="#radial-gradient"/><radialGradient id="radial-gradient-26" cx="6977.15" cy="2855.49" r="104.36" gradientTransform="matrix(-0.3, 0.12, -0.12, -0.3, 2624.5, 164.54)" xlink:href="#radial-gradient"/><radialGradient id="radial-gradient-27" cx="-8528.38" cy="-2161.81" r="120.84" xlink:href="#radial-gradient"/><radialGradient id="radial-gradient-28" cx="7543.97" cy="1575.13" r="111.89" gradientTransform="matrix(-0.32, 0.07, -0.07, -0.32, 2678.5, 131.59)" xlink:href="#radial-gradient"/><radialGradient id="radial-gradient-29" cx="-8545.57" cy="-2139.59" r="120.92" xlink:href="#radial-gradient"/><radialGradient id="radial-gradient-30" cx="7909.57" cy="220.92" r="111.9" gradientTransform="matrix(-0.33, 0.01, -0.01, -0.33, 2739.31, 106.68)" xlink:href="#radial-gradient"/><radialGradient id="radial-gradient-31" cx="-8566.19" cy="-2120.51" r="120.9" xlink:href="#radial-gradient"/><radialGradient id="radial-gradient-32" cx="8050.76" cy="-1155.97" r="100.66" gradientTransform="matrix(-0.33, -0.04, 0.04, -0.32, 2801.88, 93.34)" xlink:href="#radial-gradient"/><radialGradient id="radial-gradient-33" cx="-8589.68" cy="-2105.09" r="120.78" xlink:href="#radial-gradient"/><radialGradient id="radial-gradient-34" cx="7939.03" cy="-2562.85" r="111.9" gradientTransform="matrix(-0.31, -0.09, 0.09, -0.31, 2865.68, 90.1)" xlink:href="#radial-gradient"/><radialGradient id="radial-gradient-35" cx="-8615.39" cy="-2093.76" r="120.57" xlink:href="#radial-gradient"/><radialGradient id="radial-gradient-36" cx="7618.41" cy="-3914.09" r="105.19" gradientTransform="matrix(-0.29, -0.14, 0.14, -0.29, 2929.41, 97.56)" xlink:href="#radial-gradient"/><radialGradient id="radial-gradient-37" cx="-8642.61" cy="-2086.83" r="120.3" xlink:href="#radial-gradient"/><radialGradient id="radial-gradient-38" cx="-8673" cy="-2084.74" r="119.85" gradientTransform="translate(-528.43 3016.68) rotate(89.22) scale(0.33 0.33)" xlink:href="#radial-gradient"/><radialGradient id="radial-gradient-39" cx="-8686.99" cy="-2411.2" r="111.49" gradientTransform="matrix(0.33, 0.02, -0.02, 0.32, 2887.43, 1053.86)" xlink:href="#radial-gradient"/><radialGradient id="radial-gradient-40" cx="-8684.42" cy="-2102.83" r="107.64" xlink:href="#radial-gradient"/><radialGradient id="radial-gradient-41" cx="-8661.16" cy="-2101.75" r="108.42" xlink:href="#radial-gradient"/><radialGradient id="radial-gradient-42" cx="-8701.67" cy="-2421.76" r="120.28" xlink:href="#radial-gradient"/><radialGradient id="radial-gradient-43" cx="-8713.26" cy="-2409.07" r="113.2" xlink:href="#radial-gradient"/><radialGradient id="radial-gradient-44" cx="-8728.96" cy="-2415.08" r="120.56" xlink:href="#radial-gradient"/><radialGradient id="radial-gradient-45" cx="-8737.29" cy="-2398.34" r="111.65" xlink:href="#radial-gradient"/><radialGradient id="radial-gradient-46" cx="-8754.77" cy="-2403.99" r="120.77" xlink:href="#radial-gradient"/><radialGradient id="radial-gradient-47" cx="-8760.23" cy="-2386.15" r="111.82" xlink:href="#radial-gradient"/><radialGradient id="radial-gradient-48" cx="-8778.4" cy="-2388.79" r="120.89" xlink:href="#radial-gradient"/><radialGradient id="radial-gradient-49" cx="-8768.91" cy="-2357.2" r="99.35" xlink:href="#radial-gradient"/><radialGradient id="radial-gradient-50" cx="-8799.19" cy="-2369.91" r="120.92" xlink:href="#radial-gradient"/><radialGradient id="radial-gradient-51" cx="-8798.56" cy="-2351.33" r="111.87" xlink:href="#radial-gradient"/><radialGradient id="radial-gradient-52" cx="-8816.59" cy="-2347.84" r="120.85" xlink:href="#radial-gradient"/><radialGradient id="radial-gradient-53" cx="-8799.71" cy="-2322.43" r="101.11" xlink:href="#radial-gradient"/><radialGradient id="radial-gradient-54" cx="-8830.11" cy="-2323.21" r="120.68" xlink:href="#radial-gradient"/><radialGradient id="radial-gradient-55" cx="-8816.7" cy="-2303.57" r="106.47" xlink:href="#radial-gradient"/><radialGradient id="radial-gradient-56" cx="-8839.37" cy="-2296.69" r="120.43" xlink:href="#radial-gradient"/><radialGradient id="radial-gradient-57" cx="-8821.68" cy="-2279.35" r="105.31" xlink:href="#radial-gradient"/><radialGradient id="radial-gradient-58" cx="-8844.14" cy="-2269" r="120.14" xlink:href="#radial-gradient"/><radialGradient id="radial-gradient-59" cx="-8825.86" cy="-2254.82" r="106.61" gradientTransform="matrix(0, 0.33, -0.33, 0, -660.17, 3005.56)" xlink:href="#radial-gradient"/><radialGradient id="radial-gradient-60" cx="-8844.27" cy="-2240.91" r="120.12" xlink:href="#radial-gradient"/><radialGradient id="radial-gradient-61" cx="-8830.22" cy="-2228.99" r="111.25" xlink:href="#radial-gradient"/><radialGradient id="radial-gradient-62" cx="-8839.76" cy="-2213.17" r="120.42" xlink:href="#radial-gradient"/><radialGradient id="radial-gradient-63" cx="-8812.75" cy="-2207.58" r="103.17" xlink:href="#radial-gradient"/><radialGradient id="radial-gradient-64" cx="-8830.74" cy="-2186.57" r="120.67" xlink:href="#radial-gradient"/><radialGradient id="radial-gradient-65" cx="-8804.21" cy="-2184.99" r="104.21" xlink:href="#radial-gradient"/><radialGradient id="radial-gradient-66" cx="-8817.45" cy="-2161.81" r="120.84" xlink:href="#radial-gradient"/><radialGradient id="radial-gradient-67" cx="-8799.45" cy="-2158.15" r="111.87" xlink:href="#radial-gradient"/><radialGradient id="radial-gradient-68" cx="-8800.26" cy="-2139.59" r="120.92" xlink:href="#radial-gradient"/><radialGradient id="radial-gradient-69" cx="-8781.91" cy="-2138.99" r="111.9" xlink:href="#radial-gradient"/><radialGradient id="radial-gradient-70" cx="-8779.64" cy="-2120.51" r="120.9" xlink:href="#radial-gradient"/><radialGradient id="radial-gradient-71" cx="-8754.89" cy="-2132.98" r="103.37" xlink:href="#radial-gradient"/><radialGradient id="radial-gradient-72" cx="-8756.16" cy="-2105.09" r="120.78" xlink:href="#radial-gradient"/><radialGradient id="radial-gradient-73" cx="-8738.62" cy="-2110.57" r="111.66" xlink:href="#radial-gradient"/><radialGradient id="radial-gradient-74" cx="-8730.45" cy="-2093.76" r="120.57" xlink:href="#radial-gradient"/><radialGradient id="radial-gradient-75" cx="-8708.76" cy="-2110.57" r="104.67" xlink:href="#radial-gradient"/><radialGradient id="radial-gradient-76" cx="-8703.23" cy="-2086.83" r="120.3" xlink:href="#radial-gradient"/><linearGradient id="linear-gradient-7" x1="33.96" y1="110.38" x2="189.27" y2="110.38" gradientUnits="userSpaceOnUse"><stop offset="0" stop-color="#b68d5d"/><stop offset="0.07" stop-color="#bd9463"/><stop offset="0.51" stop-color="#e4c084"/><stop offset="1" stop-color="#b68d5d"/></linearGradient><filter id="luminosity-noclip-7" x="39.41" y="38.66" width="144.4" height="143.45" filterUnits="userSpaceOnUse" color-interpolation-filters="sRGB"><feFlood flood-color="#fff" result="bg"/><feBlend in="SourceGraphic" in2="bg"/></filter><mask id="mask-7" x="39.41" y="38.66" width="144.4" height="143.45" maskUnits="userSpaceOnUse"><g class="cls-1"><path class="cls-2" d="M111.61,182.1a72,72,0,0,1-51-21,71.39,71.39,0,0,1,0-101.44,72.56,72.56,0,0,1,102.11,0,71.41,71.41,0,0,1,0,101.44A72,72,0,0,1,111.61,182.1Zm0-142.57A71.1,71.1,0,0,0,61.18,60.28a70.52,70.52,0,0,0,0,100.2,71.67,71.67,0,0,0,100.87,0,70.52,70.52,0,0,0,0-100.2A71.14,71.14,0,0,0,111.61,39.53Z"/></g></mask><linearGradient id="linear-gradient-8" x1="-2310.14" y1="3664.63" x2="-2208.04" y2="3766.74" gradientTransform="translate(1141.57 4335.14) rotate(135)" gradientUnits="userSpaceOnUse"><stop offset="0" stop-color="#e2b673"/><stop offset="0.54"/><stop offset="1" stop-color="#d0a86b"/></linearGradient><filter id="luminosity-noclip-8" x="39.79" y="115.74" width="71.21" height="71" filterUnits="userSpaceOnUse" color-interpolation-filters="sRGB"><feFlood flood-color="#fff" result="bg"/><feBlend in="SourceGraphic" in2="bg"/></filter><mask id="mask-8" x="39.79" y="115.74" width="71.21" height="71" maskUnits="userSpaceOnUse"><g class="cls-5"><polygon class="cls-6" points="110.38 186.74 39.79 116.36 40.41 115.74 111 186.13 110.38 186.74"/></g></mask><linearGradient id="linear-gradient-9" x1="-2579.84" y1="2037.08" x2="-2579.84" y2="1965.87" gradientTransform="translate(2076.87 2731.08) rotate(90)" gradientUnits="userSpaceOnUse"><stop offset="0"/><stop offset="0.06" stop-color="#292115"/><stop offset="0.14" stop-color="#604e31"/><stop offset="0.23" stop-color="#8f7349"/><stop offset="0.31" stop-color="#b3905b"/><stop offset="0.38" stop-color="#cda568"/><stop offset="0.45" stop-color="#ddb270"/><stop offset="0.5" stop-color="#e2b673"/><stop offset="0.58" stop-color="#deb371"/><stop offset="0.66" stop-color="#d2aa6c"/><stop offset="0.73" stop-color="#bf9a64"/><stop offset="0.81" stop-color="#a38558"/><stop offset="0.88" stop-color="#806949"/><stop offset="0.96" stop-color="#554836"/><stop offset="1" stop-color="#373029"/></linearGradient><filter id="luminosity-noclip-9" x="110.38" y="115.74" width="73.05" height="71.01" filterUnits="userSpaceOnUse" color-interpolation-filters="sRGB"><feFlood flood-color="#fff" result="bg"/><feBlend in="SourceGraphic" in2="bg"/></filter><mask id="mask-9" x="110.38" y="115.74" width="73.05" height="71.01" maskUnits="userSpaceOnUse"><g class="cls-7"><polygon class="cls-8" points="111 186.75 110.38 186.12 182.82 115.74 183.43 116.36 111 186.75"/></g></mask><linearGradient id="linear-gradient-10" x1="-2579.84" y1="1966.49" x2="-2579.84" y2="1893.44" xlink:href="#linear-gradient-9"/><linearGradient id="linear-gradient-11" x1="-2556.7" y1="1974.38" x2="-2539.44" y2="1957.11" gradientTransform="translate(2076.87 2731.08) rotate(90)" xlink:href="#linear-gradient-7"/><filter id="luminosity-noclip-10" x="112.23" y="34.02" width="71.21" height="71" filterUnits="userSpaceOnUse" color-interpolation-filters="sRGB"><feFlood flood-color="#fff" result="bg"/><feBlend in="SourceGraphic" in2="bg"/></filter><mask id="mask-10" x="112.23" y="34.02" width="71.21" height="71" maskUnits="userSpaceOnUse"><g class="cls-9"><polygon class="cls-10" points="182.81 105.02 112.22 34.63 112.85 34.02 183.44 104.4 182.81 105.02"/></g></mask><linearGradient id="linear-gradient-12" x1="2012.64" y1="2915.06" x2="2012.64" y2="2843.85" gradientTransform="translate(-2731.63 2082.16) rotate(-90)" xlink:href="#linear-gradient-9"/><filter id="luminosity-noclip-11" x="39.8" y="34.01" width="73.05" height="71.01" filterUnits="userSpaceOnUse" color-interpolation-filters="sRGB"><feFlood flood-color="#fff" result="bg"/><feBlend in="SourceGraphic" in2="bg"/></filter><mask id="mask-11" x="39.8" y="34.01" width="73.05" height="71.01" maskUnits="userSpaceOnUse"><g class="cls-11"><polygon class="cls-12" points="40.41 105.02 39.8 104.4 112.23 34.01 112.84 34.64 40.41 105.02"/></g></mask><linearGradient id="linear-gradient-13" x1="2012.64" y1="2844.47" x2="2012.64" y2="2771.42" gradientTransform="translate(-2731.63 2082.16) rotate(-90)" xlink:href="#linear-gradient-9"/><linearGradient id="linear-gradient-14" x1="2035.78" y1="2852.36" x2="2053.05" y2="2835.09" gradientTransform="translate(-2731.63 2082.16) rotate(-90)" xlink:href="#linear-gradient-7"/><linearGradient id="linear-gradient-15" x1="33.96" y1="110.38" x2="189.27" y2="110.38" xlink:href="#linear-gradient-7"/><linearGradient id="linear-gradient-16" x1="178.8" y1="114.71" x2="187.45" y2="106.05" xlink:href="#linear-gradient-7"/><linearGradient id="linear-gradient-17" x1="35.77" y1="114.71" x2="44.43" y2="106.05" xlink:href="#linear-gradient-7"/><filter id="luminosity-noclip-12" x="49.44" y="48.62" width="124.34" height="123.52" filterUnits="userSpaceOnUse" color-interpolation-filters="sRGB"><feFlood flood-color="#fff" result="bg"/><feBlend in="SourceGraphic" in2="bg"/></filter><mask id="mask-12" x="49.44" y="48.62" width="124.34" height="123.52" maskUnits="userSpaceOnUse"><g class="cls-3"><path class="cls-4" d="M111.61,172.14c-34.28,0-62.17-27.71-62.17-61.76s27.89-61.76,62.17-61.76,62.17,27.71,62.17,61.76S145.89,172.14,111.61,172.14Zm0-122.65c-33.79,0-61.29,27.32-61.29,60.89s27.5,60.89,61.29,60.89S172.9,144,172.9,110.38,145.41,49.49,111.61,49.49Z"/></g></mask><linearGradient id="linear-gradient-18" x1="-809.62" y1="4653.78" x2="-722.03" y2="4741.37" gradientTransform="translate(-654.22 4807.95) rotate(180)" xlink:href="#linear-gradient-8"/><linearGradient id="linear-gradient-19" x1="66.16" y1="72.59" x2="66.16" y2="65.18" xlink:href="#linear-gradient-7"/><linearGradient id="linear-gradient-20" x1="-811.28" y1="4659.79" x2="-811.28" y2="4652.37" gradientTransform="translate(-654.22 4807.95) rotate(180)" xlink:href="#linear-gradient-7"/><linearGradient id="linear-gradient-21" x1="-1103.69" y1="1222.79" x2="-1104.36" y2="1220.28" gradientTransform="translate(1800.11 -12.9) rotate(45)" xlink:href="#linear-gradient-7"/><linearGradient id="linear-gradient-22" x1="-1103.67" y1="1219.02" x2="-1104.35" y2="1216.5" gradientTransform="translate(1800.11 -12.9) rotate(45)" xlink:href="#linear-gradient-7"/><linearGradient id="linear-gradient-23" x1="-1105.72" y1="1220.32" x2="-1106.06" y2="1219.04" gradientTransform="translate(1800.11 -12.9) rotate(45)" xlink:href="#linear-gradient-7"/><linearGradient id="linear-gradient-24" x1="-1101.94" y1="1220.32" x2="-1102.29" y2="1219.02" gradientTransform="translate(1800.11 -12.9) rotate(45)" xlink:href="#linear-gradient-7"/><linearGradient id="linear-gradient-25" x1="160.23" y1="69.7" x2="159.79" y2="68.07" xlink:href="#linear-gradient-7"/><linearGradient id="linear-gradient-26" x1="154.32" y1="69.7" x2="153.88" y2="68.07" xlink:href="#linear-gradient-7"/><linearGradient id="linear-gradient-27" x1="157.57" y1="73.7" x2="156.56" y2="69.92" xlink:href="#linear-gradient-7"/><linearGradient id="linear-gradient-28" x1="157.57" y1="67.81" x2="156.56" y2="64.07" xlink:href="#linear-gradient-7"/><linearGradient id="linear-gradient-29" x1="157.65" y1="71.14" x2="156.43" y2="66.58" xlink:href="#linear-gradient-7"/><linearGradient id="linear-gradient-30" x1="-1109.28" y1="1345.76" x2="-1109.95" y2="1343.24" gradientTransform="translate(1800.11 -12.9) rotate(45)" xlink:href="#linear-gradient-7"/><linearGradient id="linear-gradient-31" x1="-1109.27" y1="1341.98" x2="-1109.94" y2="1339.46" gradientTransform="translate(1800.11 -12.9) rotate(45)" xlink:href="#linear-gradient-7"/><linearGradient id="linear-gradient-32" x1="-1111.31" y1="1343.29" x2="-1111.66" y2="1342.01" gradientTransform="translate(1800.11 -12.9) rotate(45)" xlink:href="#linear-gradient-7"/><linearGradient id="linear-gradient-33" x1="-1107.53" y1="1343.28" x2="-1107.88" y2="1341.99" gradientTransform="translate(1800.11 -12.9) rotate(45)" xlink:href="#linear-gradient-7"/><linearGradient id="linear-gradient-34" x1="69.33" y1="152.69" x2="68.89" y2="151.06" xlink:href="#linear-gradient-7"/><linearGradient id="linear-gradient-35" x1="63.41" y1="152.69" x2="62.98" y2="151.06" xlink:href="#linear-gradient-7"/><linearGradient id="linear-gradient-36" x1="66.67" y1="156.69" x2="65.66" y2="152.91" xlink:href="#linear-gradient-7"/><linearGradient id="linear-gradient-37" x1="66.66" y1="150.8" x2="65.66" y2="147.06" xlink:href="#linear-gradient-7"/><linearGradient id="linear-gradient-38" x1="66.6" y1="153.58" x2="65.68" y2="150.13" xlink:href="#linear-gradient-7"/></defs><g id="레이어_2" data-name="레이어 2"><g id="레이어_1-2" data-name="레이어 1"><path class="cls-13" d="M111.9,110.46l-.16-11.64h.88l.15,11.64Zm-.17-13.09,0-1.16h0l-.15-11.64h.88l.16,12.8Zm-.19-14.25-.17-12.8h.88l.15,11.63h0l0,1.17Zm-.19-14.25-.17-12.8h.88l.16,11.63h0v1.16Zm-.18-14.26,0-1.16h0L111,41.81h.88L112,54.6ZM111,40.36l0-1.16h0l-.15-11.64h.88l.17,12.8Zm-.19-14.25V24.94h0l-.16-11.63h.88l.17,12.8Zm-.18-14.25,0-1.17h0L110.45,0h.88l.15,11.84Z"/><rect class="cls-14" x="65.19" y="59.13" width="102.06" height="0.88" transform="translate(48.25 171.08) rotate(-85.77)"/><path class="cls-15" d="M112.77,110.52l-.87-.13.92-5.75.87.14Zm1.15-7.18-.87-.14.18-1.15.87.14Zm.32-2-.87-.14.91-5.74.87.13Zm1.14-7.18-.87-.14.19-1.15.86.14Zm.32-2-.87-.13.92-5.75.87.14ZM116.85,85l-.87-.14.18-1.14.87.13Zm.32-2-.87-.14.92-5.74.87.13Zm1.14-7.18-.86-.14.18-1.15.87.14Zm.33-2-.87-.14.91-5.75.87.14Zm1.14-7.19-.87-.13.19-1.15.86.13Zm.32-2-.87-.13.92-5.75.87.14Zm1.15-7.18-.87-.14.18-1.15.87.14Zm.32-2-.87-.14.92-5.74.86.13Zm1.14-7.18-.86-.14.18-1.15.87.14Zm.32-2-.86-.13.91-5.75.87.14ZM124.18,39l-.87-.13.19-1.15.86.13Zm.32-2-.87-.14.92-5.74.87.13Zm1.15-7.18-.87-.14L125,28.5l.87.14Zm.32-2-.87-.14.92-5.75.86.14Zm1.14-7.19-.86-.13.18-1.15.87.14Zm.32-2-.86-.13.91-5.75.87.14Zm1.15-7.18-.87-.14.18-1.15.87.14Zm.32-2L128,9.25,129,3.51l.87.13Zm1.15-7.18-.87-.14.12-.79.87.14Z"/><polygon class="cls-16" points="112.84 110.56 111.98 110.35 135.76 13.82 136.62 14.03 112.84 110.56"/><path class="cls-17" d="M112.75,110.59l-.83-.27,3.72-11,.83.28Zm4.18-12.41-.83-.28,4.09-12.14L121,86Zm4.56-13.52-.84-.28.38-1.1.83.28-.83-.28,3.71-11,.84.27ZM126,71.14l-.83-.27,4.09-12.14.83.28-3.72,11-.45-.15.45.15Zm4.55-13.51-.83-.28.37-1.1h0l3.72-11,.83.28-3.72,11-.41-.13.41.13Zm4.56-13.52-.84-.28L138.4,31.7l.83.27Zm4.55-13.52-.83-.27L143,18.18l.84.28Zm4.55-13.51-.83-.28.37-1.1.47.15-.47-.15L147.2,5.56l.84.28Z"/><polygon class="cls-18" points="112.81 110.63 112.01 110.28 152.6 16.42 153.41 16.77 112.81 110.63"/><path class="cls-19" d="M112.72,110.66l-.77-.41,5.5-10.28.77.41Zm6.19-11.56-.78-.41,6.05-11.3.78.41-5.5,10.27-.42-.22.42.22Zm6.74-12.59-.78-.4,6-11.31.77.41L126.2,85.49l-.39-.21.39.21Zm6.73-12.58-.77-.41,6-11.3.78.41Zm6.74-12.59-.78-.41,6-11.3.78.41Zm6.73-12.58-.77-.41,6-11.3.77.41-5.5,10.27-.38-.2.38.2Zm6.74-12.59-.78-.41,6.05-11.3.78.41-5.5,10.28-.42-.22.42.22Zm6.73-12.58-.77-.41.55-1,.31.16-.31-.16,5.05-9.44.78.41Z"/><polygon class="cls-20" points="112.78 110.69 112.04 110.22 167.67 24.3 168.41 24.77 112.78 110.69"/><path class="cls-21" d="M112.68,110.72l-.69-.53,3.56-4.62.7.53Zm4.46-5.77-.7-.53.72-.92.69.53Zm1.25-1.62-.7-.53,3.57-4.61.69.53Zm4.45-5.77-.69-.53.71-.92.7.53ZM124.09,96l-.7-.53L127,90.8l.7.53Zm4.46-5.77-.7-.53.71-.93.7.54Zm1.25-1.62-.7-.53,3.56-4.61.7.53Zm4.45-5.77-.7-.53.72-.92.7.53Zm1.25-1.61-.7-.53L138.37,76l.69.53ZM140,75.41l-.7-.53L140,74l.7.53Zm1.24-1.62-.69-.53,3.56-4.61.7.53ZM145.66,68l-.7-.53.72-.92.69.53Zm1.25-1.61-.7-.53,3.57-4.62.69.53Zm4.45-5.77-.69-.53.71-.93.7.53ZM152.61,59l-.7-.53,3.57-4.61.7.53Zm4.46-5.77-.7-.53.71-.92.7.53Zm1.25-1.61-.7-.53,3.56-4.62.7.53Zm4.45-5.77-.7-.53.72-.93.69.53ZM164,44.25l-.7-.53,3.57-4.62.69.54Zm4.45-5.77-.69-.53.71-.92.7.53Zm1.25-1.61-.69-.54,3.56-4.61.7.53Zm4.46-5.77-.7-.53.71-.93.7.53Zm1.25-1.62-.7-.53,3.56-4.62.7.54Zm4.45-5.77-.69-.53.48-.63.7.53Z"/><polygon class="cls-22" points="112.74 110.75 112.09 110.16 173.41 43.09 174.06 43.67 112.74 110.75"/><path class="cls-23" d="M112.64,110.77l-.6-.64,4.28-4,.6.63Zm5.35-5-.6-.64.86-.79.6.64Zm1.5-1.39-.6-.63,4.28-4,.6.64Zm5.35-5-.6-.63.86-.8.6.64Zm1.5-1.39-.6-.63,4.28-4,.6.64Zm5.35-5-.6-.63.86-.8.6.64Zm1.5-1.38-.6-.64,4.29-4,.6.64Zm5.36-5-.6-.64.85-.8.6.64ZM140,85.38l-.59-.64,4.28-4,.6.64Zm5.36-5-.6-.64.86-.8.59.64ZM146.9,79l-.6-.64,4.28-4,.6.64Zm5.35-5-.6-.64.86-.79.6.63Zm1.5-1.39-.6-.64,4.28-4,.6.64Zm5.35-5-.6-.64.86-.79.6.63Zm1.5-1.39-.6-.64,4.29-4,.59.64Zm5.36-5-.6-.64.85-.79.6.64ZM167.45,60l-.6-.64,4.29-4,.6.64Zm5.36-5-.6-.64.86-.79.59.64Zm1.5-1.39-.6-.64L178,49l.6.64Zm5.35-5-.6-.64.86-.79.6.64Zm1.5-1.39-.6-.64,4.28-4,.6.63Zm5.35-5-.6-.64.86-.79.6.64Zm1.5-1.39-.6-.64,4.28-4,.6.63Zm5.35-5-.59-.64.58-.54.6.64Z"/><polygon class="cls-24" points="112.68 110.8 112.14 110.11 192.89 46.86 193.43 47.54 112.68 110.8"/><path class="cls-25" d="M112.58,110.82l-.49-.73,9.77-6.42.48.72Zm11-7.23-.49-.73,1-.64.48.73Zm1.7-1.12-.48-.73,9.77-6.42L135,96Zm11-7.23-.48-.73,1-.64.49.73ZM138,94.12l-.48-.73L147.25,87l.49.73Zm11-7.23-.49-.73,1-.64.48.73Zm1.71-1.12-.49-.73L160,78.61l.48.73Zm11-7.23-.48-.73,1-.64.48.73Zm1.71-1.12-.48-.73,9.76-6.43.49.73Zm11-7.23-.48-.73,1-.64.49.73Zm1.71-1.13-.49-.72,9.77-6.43.49.73Zm11-7.22-.49-.73,1-.64.48.73Zm1.71-1.13-.49-.72L198,53.56l.48.73Zm11-7.22-.48-.73,1-.64.49.73Zm1.71-1.13-.48-.72,3.84-2.53.49.72Z"/><polygon class="cls-26" points="112.62 110.84 112.2 110.07 193.7 65.63 194.13 66.4 112.62 110.84"/><path class="cls-27" d="M112.51,110.85l-.35-.8,3.21-1.42.35.8Zm4.55-2-.36-.8,1.07-.47.18.4-.18-.4,3.21-1.42.36.8Zm5.62-2.49-.36-.79,4.28-1.9.36.8Zm5.62-2.48-.36-.8,1.07-.47.18.4-.18-.4,3.21-1.42.36.79Zm5.61-2.49-.35-.79,1.07-.48.15.35-.15-.35,3.21-1.42.35.8Zm5.62-2.48-.36-.8,4.28-1.89.36.79Zm5.62-2.49-.36-.8,1.07-.47.21.47-.21-.47,3.21-1.42.36.8Zm5.61-2.48-.35-.8,1.07-.47.19.43-.19-.43,3.21-1.42L155,92Zm5.62-2.49-.36-.8,1.07-.47.36.8-.36-.8,3.21-1.42.36.8ZM162,89l-.36-.79,1.07-.48.18.4-.18-.4,3.21-1.42.36.8Zm5.62-2.48-.36-.8,1.07-.47.18.4-.18-.4,3.21-1.42.36.8ZM173.23,84l-.35-.79,1.07-.48.15.35-.15-.35,3.21-1.42.35.8Zm5.62-2.48-.36-.8,1.07-.47.14.29-.14-.29,3.21-1.42.36.79ZM184.47,79l-.36-.79,1.07-.48.21.47-.21-.47,3.21-1.42.36.8Zm5.62-2.48-.36-.8,1.07-.47.19.43-.19-.43L194,73.84l.35.79ZM195.7,74l-.36-.8,1.07-.47.36.8-.36-.8,3.21-1.42.36.8Zm5.62-2.48-.36-.8,1.07-.48.18.4-.18-.4,3.21-1.42.36.8Zm5.62-2.49-.36-.8,1.07-.47.18.4-.18-.4,3.21-1.42.36.8Zm5.61-2.49-.35-.79,1.53-.68.36.79Z"/><polygon class="cls-28" points="112.56 110.86 112.27 110.04 204.91 77.88 205.2 78.71 112.56 110.86"/><path class="cls-29" d="M112.45,110.88l-.22-.85,5.67-1.46.22.85Zm7.08-1.83-.22-.84,1.14-.29.22.84Zm2-.51-.22-.84,5.67-1.46.22.85Zm7.08-1.82-.22-.84,1.14-.3.22.85Zm2-.51-.22-.84,5.67-1.46.22.84Zm7.09-1.82-.22-.85,1.13-.29.22.85Zm2-.51-.22-.85,5.67-1.45.22.84Zm7.09-1.82-.22-.85,1.13-.29.22.84Zm2-.51-.22-.85,5.67-1.46.22.85Zm7.09-1.83-.22-.84,1.13-.29.22.84Zm2-.51-.22-.84,5.67-1.46.22.84Zm7.09-1.82-.22-.84,1.13-.3.22.85Zm2-.51-.22-.84,5.67-1.46.22.84ZM174,95.06l-.22-.85,1.13-.29.22.85Zm2-.51-.22-.85,5.67-1.46.22.85ZM183,92.73l-.22-.85,1.14-.29.22.84Zm2-.52-.22-.84,5.67-1.46.22.85Zm7.08-1.82-.22-.84,1.14-.29.22.84Zm2-.51-.22-.84,5.67-1.46.22.84Zm7.08-1.82-.22-.85,1.14-.29.22.85Zm2-.51-.22-.85,5.67-1.45.22.84Zm7.09-1.82-.22-.85,1.13-.29.22.85Zm2-.51-.22-.85,5.67-1.46.22.85Zm7.09-1.83-.22-.84.78-.2.22.84Z"/><polygon class="cls-30" points="112.48 110.88 112.34 110.02 208.24 93.63 208.39 94.49 112.48 110.88"/><path class="cls-31" d="M112.37,110.89l-.07-.87L124,109l.07.87Zm13.13-1.15-.08-.87,12.84-1.11.08.86-11.67,1,0-.43,0,.43Zm14.29-1.24-.07-.87,12.83-1.12.08.87-11.67,1,0-.44,0,.44Zm14.3-1.25-.08-.87,12.84-1.12.07.87-11.67,1-.05-.58.05.58ZM168.38,106l-.08-.87,1.17-.11,0,.44,0-.44,11.67-1,.08.87Zm14.29-1.25-.07-.87,12.83-1.12.08.87-11.67,1-.08-.87.08.87Zm14.3-1.25-.08-.87,12.84-1.11.07.87-11.67,1-.07-.87.07.87Zm14.29-1.24-.08-.87,11.89-1,.08.87Z"/><rect class="cls-32" x="112.33" y="109.8" width="103.35" height="0.87" transform="translate(-0.43 0.64) rotate(-0.22)"/><path class="cls-33" d="M223.16,119.52l-11.9-.92.07-.87,1.17.09,0,.58,0-.58,10.73.83Zm-13.36-1-12.84-1,.07-.87,1.17.09,0,.44,0-.44,11.67.91Zm-14.3-1.11-12.84-1,.06-.87,1.17.09,0,.43,0-.43,11.68.91Zm-14.3-1.12-11.68-.91.07-.87,11.67.91Zm-11.68-.91-1.17-.09.07-.87,1.17.09Zm-2.63-.2-12.84-1,.07-.87,1.16.09,0,.59,0-.59,11.68.91ZM152.59,114l-12.85-1,.07-.87,1.17.09,0,.43,0-.43,11.68.91Zm-14.31-1.12-12.84-1,.07-.87,1.16.09,0,.44,0-.44,11.68.91ZM124,111.8l-11.68-.91.07-.87,11.68.91Z"/><polygon class="cls-34" points="213.84 127.27 112.34 110.88 112.48 110.02 213.98 126.41 213.84 127.27"/><path class="cls-35" d="M220.13,137.56l-.78-.19.22-.85.78.2Zm-2.2-.54-5.68-1.41.21-.84,5.68,1.4Zm-6.53-1.62-1.14-.28.21-.84,1.14.28Zm-2.56-.63-5.68-1.4.21-.85,5.68,1.4Zm-6.54-1.62-1.13-.28.21-.84,1.14.28Zm-2.55-.63-5.69-1.4.22-.85,5.68,1.41Zm-6.54-1.61-1.13-.29.21-.84,1.13.28Zm-2.56-.64-5.68-1.4.21-.85,5.69,1.41Zm-6.53-1.61-1.14-.28.21-.85,1.14.28Zm-2.56-.64-5.68-1.4.21-.85,5.68,1.41ZM175,126.41l-1.14-.28.21-.85,1.14.28Zm-2.56-.63-5.68-1.41.21-.85,5.68,1.41Zm-6.54-1.62-1.13-.28L165,123l1.14.28Zm-2.55-.63-5.69-1.41.22-.85,5.68,1.41Zm-6.54-1.62-1.14-.28.22-.85,1.13.28Zm-2.56-.63-5.68-1.41.21-.84,5.69,1.4Zm-6.53-1.62-1.14-.28.21-.85,1.14.28Zm-2.56-.63-5.68-1.41.21-.84,5.68,1.4Zm-6.53-1.62-1.14-.28.21-.85,1.14.29Zm-2.56-.63-5.68-1.41.21-.84,5.68,1.4Zm-6.54-1.62-1.13-.28.21-.84,1.13.28Zm-2.55-.63-5.69-1.4.21-.85,5.69,1.4Zm-6.54-1.62-1.14-.28.22-.84,1.13.28Zm-2.56-.63-5.68-1.4.21-.85,5.68,1.41Z"/><polygon class="cls-36" points="208.12 143.15 112.27 110.87 112.55 110.04 208.4 142.32 208.12 143.15"/><path class="cls-37" d="M214.15,154.86l-.73-.32.35-.8.73.32Zm-2.08-.9-5.37-2.31.35-.8,5.37,2.31Zm-6.17-2.66-1.08-.46.35-.8,1.08.46Zm-2.42-1-5.37-2.32.35-.8,5.37,2.32Zm-6.18-2.67-1.07-.46.35-.8,1.07.46Zm-2.42-1-5.37-2.32.35-.8,5.37,2.32Zm-6.17-2.67-1.08-.46.35-.8,1.08.46Zm-2.42-1-5.37-2.32.35-.8,5.37,2.32Zm-6.18-2.67-1.07-.46.35-.8,1.07.46Zm-2.42-1-5.37-2.32.35-.8,5.37,2.32Zm-6.17-2.66-1.08-.47.35-.8,1.08.46Zm-2.42-1.05-5.37-2.32.35-.8,5.37,2.32Zm-6.18-2.66-1.07-.47.35-.8,1.07.47Zm-2.41-1-5.38-2.31.35-.8,5.38,2.31Zm-6.18-2.66-1.08-.47.35-.8,1.08.47Zm-2.42-1-5.37-2.32.35-.8,5.37,2.31Zm-6.18-2.67-1.07-.46.35-.8,1.07.46Zm-2.41-1L137.94,122l.35-.8,5.38,2.32Zm-6.18-2.67-1.08-.46.35-.8,1.08.46Zm-2.42-1-5.37-2.32.35-.8,5.37,2.32Zm-6.18-2.67-1.07-.46.35-.8,1.07.46Zm-2.41-1-5.37-2.32.35-.8,5.37,2.32ZM120,114.21l-1.07-.46.35-.8,1.07.46Zm-2.42-1-5.37-2.32.35-.8,5.37,2.32Z"/><polygon class="cls-38" points="196.66 155.87 112.2 110.84 112.62 110.07 197.07 155.1 196.66 155.87"/><path class="cls-39" d="M205.38,170.94l-3.87-2.49.48-.73,3.87,2.49Zm-4.6-3-1-.64.48-.73,1,.63Zm-2.22-1.43-9.82-6.33.48-.73,9.82,6.33ZM188,159.74l-1-.63.48-.73,1,.63Zm-2.21-1.42L176,152l.47-.73,9.83,6.34Zm-10.56-6.81-1-.63.47-.74,1,.64ZM173,150.09l-9.83-6.34.48-.73,9.83,6.33Zm-10.57-6.81-1-.64.48-.73,1,.63Zm-2.21-1.43-9.82-6.33.48-.73,9.82,6.33ZM149.68,135l-1-.63.48-.73,1,.63Zm-2.21-1.42-9.83-6.33.48-.74,9.83,6.34Zm-10.56-6.81-1-.63.48-.73,1,.63Zm-2.21-1.42-9.83-6.34.48-.73,9.82,6.33Zm-10.57-6.81-1-.64.48-.73,1,.64Zm-2.21-1.43-9.82-6.33.47-.73,9.83,6.33Z"/><polygon class="cls-40" points="193.48 173.3 112.14 110.8 112.68 110.11 194.02 172.61 193.48 173.3"/><path class="cls-41" d="M194.06,185.37l-.6-.54.6-.65.59.54Zm-1.68-1.52-4.32-3.93.6-.65L193,183.2Zm-5-4.52-.87-.79.6-.64.86.78Zm-1.95-1.77-4.32-3.93.6-.64,4.32,3.93Zm-5-4.52-.87-.78.59-.65.87.79Zm-1.95-1.77-4.32-3.92.6-.65,4.31,3.93Zm-5-4.51-.86-.79.59-.64.87.78ZM171.65,165l-4.32-3.93.59-.64,4.32,3.92Zm-5-4.52-.86-.78.59-.65.87.79Zm-1.94-1.77-4.32-3.93.59-.64,4.32,3.93Zm-5-4.51-.86-.79.59-.64.86.78Zm-1.94-1.77-4.32-3.93.59-.64,4.32,3.92Zm-5-4.52-.86-.79.59-.64.86.79Zm-1.94-1.77-4.32-3.93.59-.64,4.32,3.93Zm-5-4.52-.87-.78.6-.65.86.79ZM144,139.85l-4.32-3.93.6-.65,4.32,3.93Zm-5-4.52-.87-.79.6-.64.86.78Zm-1.95-1.77-4.32-3.93.6-.64,4.32,3.93Zm-5-4.52-.87-.78.59-.65.87.79Zm-1.95-1.77-4.32-3.92.6-.65,4.31,3.93Zm-5-4.51-.86-.79.59-.64.87.78ZM123.27,121,119,117.06l.59-.64,4.32,3.93Zm-5-4.52-.86-.78L118,115l.87.79Zm-1.94-1.77L112,110.78l.59-.65,4.32,3.93Z"/><polygon class="cls-42" points="181.93 185.73 112.09 110.75 112.73 110.16 182.57 185.14 181.93 185.73"/><path class="cls-43" d="M180.49,197.74l-2.84-3.61.7-.54,2.84,3.61Zm-3.38-4.3-.72-.92.69-.53.72.91Zm-1.62-2.06-7.22-9.17.7-.54,7.21,9.17Zm-7.76-9.85-.72-.92.69-.54.72.92Zm-1.62-2.07-7.22-9.16.69-.54,7.22,9.17Zm-7.76-9.85-.72-.92.69-.53.72.91Zm-1.62-2.06-7.22-9.17.69-.54,7.22,9.17ZM149,157.69l-.72-.91.69-.54.72.92Zm-1.62-2.06-7.22-9.16.69-.54L148,155.1Zm-7.76-9.85-.72-.92.69-.53.72.91ZM138,143.72l-7.22-9.17.69-.54,7.22,9.17Zm-7.76-9.86-.72-.91.69-.54.72.92Zm-1.62-2.06-7.22-9.16.69-.54,7.22,9.17ZM120.83,122l-.72-.92.69-.53.72.91Zm-1.62-2.06L112,110.72l.69-.54,7.22,9.17Z"/><polygon class="cls-44" points="162.76 187.44 112.04 110.69 112.78 110.21 163.49 186.97 162.76 187.44"/><path class="cls-45" d="M165.06,207.71l-.38-.7.77-.42.38.7Zm-1.08-2-2.8-5.11.77-.42,2.8,5.11Zm-3.22-5.88-.56-1,.77-.42.56,1Zm-1.26-2.3-2.79-5.11.77-.41,2.79,5.11Zm-3.21-5.87-.56-1,.77-.41.56,1Zm-1.26-2.3-2.8-5.12.77-.41,2.8,5.11Zm-3.22-5.88-.56-1,.77-.42.56,1Zm-1.26-2.3-2.8-5.11.78-.42,2.79,5.11Zm-3.22-5.88-.55-1,.77-.42.56,1Zm-1.25-2.3-2.8-5.11.77-.42,2.8,5.11Zm-3.22-5.88-.56-1,.77-.42.56,1Zm-1.26-2.3-2.8-5.11.78-.42,2.79,5.11ZM138.38,159l-.56-1,.78-.42.56,1Zm-1.25-2.3-2.8-5.11.77-.41,2.8,5.11Zm-3.22-5.87-.56-1,.77-.41.56,1Zm-1.26-2.3-2.8-5.12.77-.41,2.8,5.11Zm-3.22-5.88-.56-1,.77-.42.56,1Zm-1.26-2.3-2.79-5.11.77-.42,2.8,5.11ZM125,134.43l-.56-1,.77-.42.56,1Zm-1.26-2.3L120.9,127l.77-.42,2.8,5.11Zm-3.22-5.88-.56-1,.77-.42.56,1Zm-1.26-2.3-2.79-5.11.77-.42,2.79,5.11ZM116,118.07l-.56-1,.77-.42.56,1Zm-1.26-2.3-2.8-5.11.77-.42,2.8,5.12Z"/><polygon class="cls-46" points="153.48 204.11 112.01 110.63 112.81 110.28 154.28 203.76 153.48 204.11"/><path class="cls-47" d="M148.18,215l-3.89-11.2.83-.29.39,1.1-.53.18.53-.18,3.5,10.11Zm-4.36-12.58-4.21-12.1.83-.28.39,1.1-.42.14.42-.14,3.82,11ZM139.14,189l-3.82-11,.42-.15-.42.15-.39-1.1.84-.29,4.2,12.1Zm-4.68-13.48-4.2-12.1.83-.28.38,1.1-.31.1.31-.1,3.82,11ZM129.78,162l-4.2-12.1.83-.29.38,1.1-.42.15.42-.15,3.82,11Zm-4.68-13.48-4.2-12.1.83-.28.38,1.1-.38.13.38-.13,3.82,11Zm-4.68-13.47-3.82-11,.43-.15-.43.15-.38-1.1.83-.28,4.2,12.1Zm-4.68-13.47-3.82-11,.83-.29,3.82,11Z"/><polygon class="cls-48" points="133.88 204.03 111.98 110.55 112.84 110.36 134.73 203.84 133.88 204.03"/><path class="cls-49" d="M130.32,219.46l-1.78-10.54h0l-.19-1.14.86-.15.2,1.15-.45.07.45-.07,1.78,10.54Zm-2.22-13.12-1.94-11.47.44-.08-.44.08-.19-1.15.87-.15L129,206.2Zm-2.37-14.06-1.94-11.47.43-.07-.43.07-.2-1.15.87-.14,2.13,12.62Zm-2.38-14.05-1.94-11.48h0l-.19-1.14.86-.15.2,1.15-.44.07.44-.07,1.94,11.47ZM121,164.17l-2.13-12.62.87-.15.19,1.15-.42.07.42-.07L121.84,164Zm-2.37-14.06-1.94-11.47.43-.07-.43.07-.2-1.15.87-.14L119.46,150Zm-2.38-14.05-1.94-11.48.43-.07-.43.07-.19-1.15.86-.14,2.14,12.62ZM113.84,122l-1.94-11.47.87-.15,1.94,11.48Z"/><rect class="cls-50" x="56.43" y="165.16" width="110.31" height="0.88" transform="translate(-55.51 274.94) rotate(-89.22)"/><rect class="cls-51" x="106.56" y="8.08" width="0.88" height="102.51" transform="translate(-4.12 8.13) rotate(-4.27)"/><polygon class="cls-52" points="103.71 209.01 102.84 208.93 111.97 110.41 112.85 110.49 103.71 209.01"/><polygon class="cls-53" points="119.68 209.72 110.38 110.49 111.25 110.41 120.56 209.64 119.68 209.72"/><path class="cls-54" d="M110.46,110.52l-.92-5.74.87-.14.92,5.75Zm-1.15-7.18-.18-1.15.87-.14.18,1.15Zm-.32-2-.92-5.75.87-.13.92,5.74Zm-1.14-7.18L107.66,93l.87-.14.18,1.15Zm-.32-2-.92-5.74.87-.14.91,5.75ZM106.38,85l-.18-1.15.86-.13.19,1.14Zm-.32-2-.92-5.75.87-.13.92,5.74Zm-1.15-7.18-.18-1.15.87-.14.18,1.15Zm-.32-2L103.68,68l.86-.14.92,5.75Zm-1.14-7.19-.19-1.15.87-.13.18,1.15Zm-.32-2-.92-5.74.87-.14.91,5.75ZM102,57.37l-.18-1.15.86-.14.19,1.15Zm-.32-2-.92-5.75.87-.13.92,5.74Zm-1.15-7.18L100.33,47l.87-.14.18,1.15Zm-.32-2-.91-5.74.86-.14.92,5.75ZM99.05,39l-.19-1.15.87-.13.19,1.15Zm-.32-2-.92-5.75.87-.13.91,5.74Zm-1.15-7.18-.18-1.15.87-.14.18,1.15Zm-.32-2L96.34,22l.87-.14.92,5.75Zm-1.15-7.19-.18-1.14.87-.14L97,20.46Zm-.32-2-.91-5.74.87-.14.91,5.75ZM94.65,11.4l-.18-1.15.86-.14.19,1.15Zm-.32-2-.92-5.75.87-.13.92,5.74ZM93.18,2.21l-.12-.79.86-.14.13.79Z"/><polygon class="cls-55" points="110.39 110.56 85.55 9.72 86.4 9.51 111.24 110.35 110.39 110.56"/><path class="cls-56" d="M110.48,110.59l-3.72-11,.83-.28,3.72,11Zm-4.19-12.41-.37-1.11.84-.27.37,1.1Zm-.65-1.93-3.71-11,.83-.27,3.72,11Zm-4.18-12.42-.37-1.1.83-.28.38,1.11Zm-.65-1.93-3.72-11,.84-.28,3.71,11ZM96.63,69.49l-.37-1.1.83-.28.37,1.1ZM96,67.56l-3.72-11,.84-.27,3.71,11ZM91.8,55.14,91.43,54l.83-.28.37,1.11Zm-.65-1.93-3.72-11,.83-.28,3.72,11ZM87,40.8l-.38-1.1.84-.28.37,1.1Zm-.65-1.93-3.72-11,.83-.27,3.72,11ZM82.13,26.46l-.37-1.11.84-.27.37,1.1Zm-.65-1.94-3.71-11,.83-.28,3.72,11ZM77.3,12.11,76.93,11l.83-.28.38,1.1Zm-.65-1.93L75.19,5.84,76,5.56,77.49,9.9Z"/><polygon class="cls-57" points="110.41 110.63 69.82 16.77 70.63 16.42 111.22 110.28 110.41 110.63"/><path class="cls-58" d="M110.5,110.66,105,100.38l.77-.41,5.5,10.28ZM104.32,99.1l-.55-1,.39-.2-.39.2L98.27,87.8l.77-.41,6,11.3ZM97.58,86.51l-6-11.3.78-.41,6,11.31ZM90.85,73.93l-6-11.3.77-.41,6.05,11.3ZM84.11,61.34l-6-11.3.78-.41,5.5,10.28-.27.14.27-.14.55,1ZM77.37,48.76l-6-11.3.77-.41,6.05,11.3ZM70.64,36.17l-6-11.3.78-.41,6,11.3ZM63.9,23.59,58.3,13.12l.78-.41,5,9.44-.47.25.47-.25.55,1Z"/><polygon class="cls-59" points="110.45 110.69 54.82 24.77 55.56 24.3 111.19 110.22 110.45 110.69"/><path class="cls-60" d="M110.54,110.72l-7.13-9.23.7-.53,7.13,9.23Zm-8-10.39L94.68,90.18l.7-.53,7.84,10.15ZM93.79,89l-.71-.92.34-.26-.34.26L86,78.87l.69-.53,7.85,10.15Zm-8.74-11.3-.71-.93.35-.26-.35.26-7.13-9.23.7-.53,7.84,10.15ZM76.32,66.41l-.71-.93.32-.24-.32.24-7.13-9.23.69-.53L77,65.88ZM67.59,55.1,59.74,44.94l.7-.53,7.13,9.23-.32.25.32-.25.71.93ZM58.85,43.79,51,33.64l.7-.54,7.13,9.24-.35.26.35-.26.71.92ZM50.12,32.48l-7.26-9.4.69-.53L50.1,31l-.35.26L50.1,31l.72.92Z"/><polygon class="cls-61" points="110.49 110.75 49.17 43.67 49.82 43.09 111.14 110.16 110.49 110.75"/><path class="cls-62" d="M110.59,110.77,102,102.84l.6-.64,8.56,7.93ZM101,101.84l-.86-.79.6-.64.86.8Zm-1.5-1.38-8.57-7.94.6-.64,8.57,7.94Zm-9.64-8.93-.86-.8.6-.63.86.79Zm-1.5-1.39L79.76,82.2l.6-.64,8.56,7.94Zm-9.63-8.93-.86-.79.6-.64.85.79Zm-1.5-1.39-8.57-7.94.6-.63,8.57,7.93Zm-9.64-8.93-.86-.79.6-.64.86.79Zm-1.5-1.39-8.56-7.93.6-.64,8.56,7.94Zm-9.63-8.92-.86-.8.6-.64.85.8Zm-1.5-1.39-8.57-7.94.6-.64,8.57,7.94Zm-9.64-8.93-.86-.8.6-.63.86.79Zm-1.5-1.39-8.56-7.94.6-.64,8.56,7.94Zm-9.63-8.93-.86-.79.6-.64.85.79Zm-1.5-1.39-3.38-3.12.6-.64,3.38,3.12Z"/><polygon class="cls-63" points="110.55 110.8 29.8 47.54 30.34 46.86 111.09 110.11 110.55 110.8"/><path class="cls-64" d="M110.65,110.82l-9.77-6.43.49-.72,9.76,6.42Zm-11-7.23-1-.64.48-.73,1,.64ZM98,102.47,88.19,96l.48-.72,9.77,6.42ZM87,95.24l-1-.64.48-.73,1,.64Zm-1.71-1.12-9.77-6.43L76,87l9.76,6.43Zm-11-7.23-1-.64.49-.73,1,.64Zm-1.71-1.12-9.77-6.43.49-.73L73.05,85Zm-11-7.23-1-.64.48-.73,1,.64Zm-1.71-1.12L50.1,71l.48-.73,9.77,6.43Zm-11-7.23-1-.64.49-.73,1,.64Zm-1.71-1.13L37.4,62.64l.49-.73,9.76,6.43Zm-11-7.22-1-.64.49-.73,1,.64Zm-1.71-1.13-9.76-6.42.48-.73L35,60Zm-11-7.22-1-.64.48-.73,1,.64Zm-1.71-1.13-3.85-2.53.49-.72,3.84,2.53Z"/><polygon class="cls-65" points="110.61 110.84 29.1 66.4 29.52 65.63 111.03 110.07 110.61 110.84"/><path class="cls-66" d="M110.71,110.85l-5.35-2.37.36-.79,5.35,2.36Zm-6.68-3-1.07-.47.35-.8,1.07.48Zm-1.88-.83L96.8,104.7l.36-.8,5.35,2.37Zm-6.68-3-1.07-.48.35-.8,1.07.48Zm-1.88-.83-5.35-2.37.36-.8L94,102.48Zm-6.68-3-1.07-.48.35-.79,1.07.47ZM85,99.49l-5.35-2.37.36-.8,5.35,2.37Zm-6.68-3-1.07-.47.35-.8,1.07.47Zm-1.88-.83-5.34-2.37.35-.79,5.35,2.36Zm-6.68-3-1.07-.47.36-.8,1.07.48Zm-1.87-.83-5.35-2.36.35-.8,5.35,2.37Zm-6.69-3-1.07-.47.36-.8,1.07.48Zm-1.87-.82L54,85.76l.35-.8,5.35,2.37Zm-6.69-3-1.07-.48L52,83.9l1.07.47Zm-1.87-.83L45.45,82l.35-.8,5.35,2.37Zm-6.69-3L43,80.91l.36-.8,1.07.47Zm-1.87-.83-5.35-2.37.35-.79,5.35,2.36Zm-6.69-3-1.07-.47.36-.8,1.07.47Zm-1.87-.83L28.33,74.4l.36-.8L34,76ZM27,73.8l-1.07-.47.36-.8,1.07.48ZM25.12,73l-5.35-2.37.36-.8,5.35,2.37Zm-6.69-3-1.07-.48.36-.79,1.07.47Zm-1.87-.83-5.35-2.37.36-.8,5.35,2.37Zm-6.69-3-.73-.33.35-.79.74.32Z"/><polygon class="cls-67" points="110.67 110.86 18.03 78.71 18.32 77.88 110.96 110.04 110.67 110.86"/><path class="cls-68" d="M110.78,110.88,99.44,108l.22-.84L111,110ZM98,107.6l-12.48-3.21.22-.85,11.34,2.92-.11.42.11-.42,1.14.29ZM84.13,104,83,103.73l.13-.48-.13.48-11.34-2.91.22-.85,12.47,3.21Zm-13.89-3.57-1.13-.29.1-.4-.1.4L57.77,97.24,58,96.4l12.47,3.21ZM56.35,96.88,43.88,93.67l.22-.84,11.34,2.91-.1.37.1-.37,1.13.3ZM42.46,93.31,30,90.1l.22-.84,11.34,2.91-.11.42.11-.42,1.13.29ZM28.57,89.74l-1.13-.3.11-.42-.11.42L16.1,86.53l.22-.85,12.47,3.21ZM14.68,86.16l-1.13-.29.09-.34-.09.34L3.13,83.19l.22-.84,11.55,3Z"/><polygon class="cls-69" points="110.74 110.88 14.84 94.49 14.99 93.63 110.89 110.02 110.74 110.88"/><path class="cls-70" d="M110.85,110.89l-11.66-1,.07-.87,11.67,1Zm-13.12-1.15-1.17-.1,0-.43,0,.43-11.67-1,.08-.86,12.83,1.11Zm-14.3-1.24-1.16-.1,0-.44,0,.44-11.67-1,.08-.87,12.83,1.12Zm-14.29-1.25-1.17-.1,0-.43,0,.43-11.66-1,.07-.87,12.84,1.12ZM54.85,106l-1.17-.11,0-.43,0,.43-11.67-1,.08-.87,12.83,1.12Zm-14.3-1.25-12.83-1.12.08-.87,12.83,1.12Zm-14.29-1.25L13.43,102.4l.07-.87,12.84,1.11ZM12,102.27l-11.89-1,.08-.87,11.88,1Z"/><rect class="cls-71" x="61.06" y="60.84" width="0.87" height="98.8" transform="translate(-49 171.27) rotate(-89.76)"/><path class="cls-72" d="M.07,119.52,0,118.65l10.73-.83,0,.43,0-.43,1.16-.09.07.87Zm13.35-1-.07-.87L25,116.7l0,.44,0-.44,1.17-.09.07.87Zm14.31-1.11-.07-.87,11.68-.91h0l1.16-.09.07.87-1.17.09,0-.4,0,.4ZM42,116.25l-.07-.87,11.68-.91.07.87Zm11.68-.91-.07-.87,1.17-.09.07.87Zm2.63-.2-.07-.87,11.67-.91,0,.45,0-.45,1.17-.09.07.87ZM70.64,114l-.07-.87,11.68-.91,0,.43,0-.43,1.17-.09.06.87Zm14.3-1.12-.06-.87,11.67-.91.07.87ZM96.62,112l-.07-.87,1.17-.09.07.87Zm2.63-.2-.07-.87,11.68-.91.07.87Z"/><polygon class="cls-73" points="9.39 127.27 9.24 126.41 110.75 110.02 110.89 110.88 9.39 127.27"/><path class="cls-74" d="M3.09,137.56l-.21-.84,11.58-2.87.21.85-1.13.28-.09-.32.09.32Zm13-3.21-.21-.85,12.5-3.09.22.85-1.14.28-.12-.49.12.49ZM30,130.91l-.22-.85,11.37-2.81.12.48-.12-.48,1.14-.28.21.84Zm13.92-3.45-.21-.84,11.36-2.82.12.48-.12-.48,1.14-.28.21.85ZM57.86,124l-.21-.85L69,120.36l.1.42-.1-.42,1.13-.28.21.85Zm13.93-3.44-.22-.85,11.37-2.81.09.37-.09-.37,1.14-.28.21.84Zm13.92-3.45-.21-.85,11.36-2.81.11.43-.11-.43,1.14-.28.21.85Zm13.92-3.44-.21-.85L110.79,110l.21.85Z"/><polygon class="cls-75" points="20.9 141.2 20.62 140.37 110.67 110.04 110.96 110.87 20.9 141.2"/><path class="cls-76" d="M9.07,154.86l-.35-.8.74-.32.35.8Zm2.09-.9-.36-.8,5.38-2.31.35.8Zm6.17-2.66-.35-.8,1.08-.46.35.8Zm2.42-1-.35-.8,5.37-2.32.35.8Zm6.18-2.67-.35-.8,1.07-.46.35.8Zm2.41-1-.35-.8,5.38-2.32.35.8Zm6.18-2.67-.35-.8,1.08-.46.35.8Zm2.42-1-.35-.8L42,139.72l.35.8Zm6.18-2.67-.35-.8,1.07-.46.35.8Zm2.41-1-.35-.8L50.55,136l.35.8Zm6.18-2.66-.35-.81,1.07-.46.35.8Zm2.42-1.05-.35-.8,5.37-2.32.35.8Zm6.18-2.66L60,132l1.07-.47.35.8Zm2.41-1-.35-.8,5.37-2.31.35.8Zm6.18-2.66-.35-.8,1.07-.47.35.8Zm2.42-1L71,127.2l5.37-2.31.35.8Zm6.17-2.67-.35-.8,1.08-.46.35.8Zm2.42-1-.35-.8,5.37-2.32.35.8Zm6.18-2.67-.35-.8,1.07-.46.35.8Zm2.42-1-.35-.8,5.37-2.32.35.8Zm6.17-2.67-.35-.8,1.08-.46.35.8Zm2.42-1-.35-.8,5.37-2.32.35.8Zm6.18-2.67-.35-.8L104,113l.35.8Zm2.42-1-.35-.8,5.37-2.32.35.8Z"/><polygon class="cls-77" points="26.57 155.87 26.16 155.1 110.61 110.07 111.02 110.84 26.57 155.87"/><path class="cls-78" d="M17.85,170.94l-.48-.73,3.87-2.49.47.73Zm4.6-3-.48-.74,1-.63.47.73Zm2.21-1.43-.48-.73L34,159.49l.48.73Zm10.57-6.81-.48-.73,1-.63.48.73Zm2.21-1.42-.48-.73,9.82-6.34.48.73ZM48,151.51l-.48-.73,1-.64.48.74Zm2.21-1.42-.48-.74L59.56,143l.48.73Zm10.56-6.81-.48-.74,1-.63.48.73ZM63,141.85l-.47-.73,9.82-6.33.48.73ZM73.55,135l-.48-.73,1-.63.48.73Zm2.21-1.42-.48-.73,9.83-6.34.47.74Zm10.56-6.81-.48-.73,1-.63.48.73Zm2.21-1.42-.48-.74,9.83-6.33.48.73Zm10.56-6.81-.47-.73,1-.64.48.73Zm2.21-1.43-.47-.73,9.82-6.33.48.73Z"/><polygon class="cls-79" points="29.75 173.3 29.21 172.61 110.55 110.11 111.08 110.8 29.75 173.3"/><path class="cls-80" d="M29.17,185.37l-.59-.65.59-.54.59.65Zm1.67-1.52-.59-.65,4.32-3.93.59.65Zm5-4.52-.59-.65.86-.78.59.64Zm1.94-1.77-.59-.64L41.48,173l.59.64Zm5-4.52-.59-.64.86-.79.6.65Zm2-1.77-.6-.64,4.32-3.93.6.65Zm5-4.51-.59-.65.86-.78.6.64ZM51.58,165l-.6-.65,4.32-3.92.6.64Zm5-4.52-.59-.64.87-.79.59.65Zm2-1.77-.59-.64,4.32-3.93.59.64Zm5-4.51-.6-.65.87-.78.59.64Zm1.94-1.77-.59-.65,4.32-3.92.59.64Zm5-4.52-.6-.64.87-.79.59.64Zm1.94-1.77-.59-.64L76,141.56l.59.64Zm5-4.52-.59-.64.86-.79.59.65Zm1.94-1.76-.59-.65L83,135.27l.59.65Zm5-4.52-.59-.65.86-.78.59.64Zm1.94-1.77-.59-.64L89.86,129l.59.64Zm5-4.52-.59-.64.86-.79.6.65Zm2-1.77-.6-.64,4.32-3.93.6.65Zm5-4.51-.59-.65.86-.78.6.64ZM100,121l-.6-.64,4.32-3.93.6.64Zm5-4.52-.59-.64.87-.79.59.65Zm2-1.77-.59-.64,4.32-3.93.59.65Z"/><polygon class="cls-81" points="41.3 185.73 40.66 185.14 110.49 110.16 111.14 110.75 41.3 185.73"/><path class="cls-82" d="M42.73,197.74,42,197.2l6.63-8.42.69.54Zm6.63-8.42-.69-.54.72-.92.69.54ZM51,187.25l-.7-.53,7.22-9.17.35.27-.35-.27.72-.92.69.54ZM59.83,176l-.7-.54,7.94-10.08.69.53-.72.92-.37-.29.37.29Zm8.83-11.23-.69-.54,7.22-9.16.3.23-.3-.23.72-.92.69.54Zm8.84-11.23-.69-.54L84.75,143l.69.54-.72.91-.25-.19.25.19Zm8.84-11.23-.69-.53,7.22-9.17.32.25-.32-.25.72-.92.69.54Zm8.84-11.22-.69-.54,7.94-10.08.69.53-.72.92-.35-.27.35.27ZM104,119.89l-.69-.54,7.22-9.17.69.54Z"/><polygon class="cls-83" points="59.06 189.59 58.32 189.11 110.45 110.21 111.18 110.69 59.06 189.59"/><path class="cls-84" d="M58.17,207.71l-.78-.42.39-.7.77.42Zm1.08-2-.77-.42,2.79-5.11.78.42Zm3.22-5.88-.78-.41.56-1,.78.42Zm1.25-2.3-.77-.41,2.8-5.11.77.41Zm3.22-5.87-.77-.42.56-1,.77.41Zm1.26-2.3-.77-.42,2.8-5.11.77.41Zm3.22-5.88-.77-.42.55-1,.78.42Zm1.26-2.3-.78-.42,2.8-5.11.77.42Zm3.21-5.88-.77-.42.56-1,.77.42Zm1.26-2.3-.77-.42,2.8-5.11.77.42Zm3.22-5.88-.77-.42.56-1,.77.42Zm1.26-2.3-.78-.42,2.8-5.11.77.42ZM84.84,159l-.77-.41.56-1,.77.42Zm1.26-2.3-.77-.41,2.8-5.11.77.41Zm3.22-5.87-.77-.42.56-1,.77.41Zm1.26-2.3-.77-.42L92.6,143l.78.41Zm3.21-5.88-.77-.42.56-1,.77.42Zm1.26-2.3-.77-.42,2.8-5.11.77.42Zm3.22-5.88L97.5,134l.56-1,.77.42Zm1.26-2.3-.77-.42,2.79-5.11.78.42Zm3.22-5.88-.78-.42.56-1,.78.42ZM104,124l-.77-.42,2.8-5.11.77.42Zm3.22-5.88-.77-.41.56-1,.77.42Zm1.26-2.3-.77-.41,2.8-5.12.77.42Z"/><polygon class="cls-85" points="69.75 204.11 68.95 203.76 110.42 110.28 111.22 110.63 69.75 204.11"/><path class="cls-86" d="M75,215l-.83-.28,3.89-11.21.83.29-.38,1.1-.55-.19.55.19Zm4.37-12.58-.83-.28,3.82-11,.42.14-.42-.14.38-1.1.83.28ZM84.09,189l-.83-.29,3.82-11,.42.15-.42-.15.38-1.1.83.29Zm4.68-13.48-.83-.28,4.2-12.1.83.28-.38,1.1-.33-.11.33.11ZM93.45,162l-.83-.29,3.82-11,.41.15-.41-.15.38-1.1.83.29Zm4.68-13.48-.83-.28,4.2-12.1.83.28-.38,1.1-.42-.14.42.14Zm4.68-13.47-.83-.28,3.82-11,.45.15-.45-.15.38-1.1.83.28Zm4.68-13.47-.83-.29,3.82-11,.83.29Z"/><polygon class="cls-87" points="89.35 204.03 88.49 203.84 110.39 110.36 111.24 110.55 89.35 204.03"/><path class="cls-88" d="M92.9,219.46l-.86-.14,2-11.69.87.15-.19,1.14-.29,0,.29,0Zm2.22-13.12-.86-.14,2.13-12.63.87.15Zm2.38-14.06-.87-.14,2.14-12.62.86.14-.19,1.15-.43-.07.43.07Zm2.38-14.05-.87-.15,2.13-12.62.87.14-.19,1.15-.44-.07.44.07Zm2.37-14.06-.86-.14,2.13-12.63.87.15Zm2.38-14.06-.87-.14,1.94-11.48.87.15Zm1.94-11.47-.87-.15.2-1.14.86.14Zm.44-2.58-.87-.15,2.14-12.62.86.14-.19,1.15-.4-.06.4.06ZM109.38,122l-.86-.14,1.94-11.48.86.15Z"/><path class="cls-89" d="M188.83,110.38a76.67,76.67,0,0,1-77.21,76.71c-42.65,0-77.22-34.35-77.22-76.71S69,33.67,111.62,33.67a76.66,76.66,0,0,1,77.21,76.71Z"/><path class="cls-90" d="M111.62,187.52A77.42,77.42,0,0,1,56.7,164.93a76.8,76.8,0,0,1,0-109.1,77.4,77.4,0,1,1,54.92,131.69Zm0-153.41A76.51,76.51,0,0,0,57.33,56.45a75.91,75.91,0,0,0,0,107.86,76.52,76.52,0,1,0,54.29-130.2Z"/><g class="cls-91"><path class="cls-92" d="M111.61,182.1a72,72,0,0,1-51-21,71.39,71.39,0,0,1,0-101.44,72.56,72.56,0,0,1,102.11,0,71.41,71.41,0,0,1,0,101.44A72,72,0,0,1,111.61,182.1Zm0-142.57A71.1,71.1,0,0,0,61.18,60.28a70.52,70.52,0,0,0,0,100.2,71.67,71.67,0,0,0,100.87,0,70.52,70.52,0,0,0,0-100.2A71.14,71.14,0,0,0,111.61,39.53Z"/></g><g class="cls-93"><polygon class="cls-94" points="110.38 186.74 39.79 116.36 40.41 115.74 111 186.13 110.38 186.74"/></g><g class="cls-95"><polygon class="cls-96" points="111 186.75 110.38 186.12 182.82 115.74 183.43 116.36 111 186.75"/></g><path class="cls-89" d="M112.33,186.7a78.45,78.45,0,0,1-12.72-1l4.9-1.22-4.9-4.71,6.56,1.86-1.88-6.51L109,180l1.65-6.58,1.66,6.58,4.74-4.87-1.87,6.51,6.56-1.86-4.91,4.71L123,186A78.4,78.4,0,0,1,112.33,186.7Z"/><path class="cls-97" d="M112.33,187.13a79.2,79.2,0,0,1-12.79-1l-2.09-.34,6.18-1.54L98,178.83l7.49,2.13-2.14-7.44,5.41,5.56,1.89-7.51,1.89,7.51,5.42-5.56L115.86,181l7.49-2.13-5.6,5.38,7.57,1.88-2.25.31A78.34,78.34,0,0,1,112.33,187.13Zm-10.48-1.58a78.51,78.51,0,0,0,18.76.27L116,184.68l4.21-4.05-5.63,1.6,1.61-5.6-4.08,4.18-1.42-5.64-1.42,5.64-4.07-4.18,1.6,5.6-5.63-1.6,4.21,4.05Z"/><g class="cls-98"><polygon class="cls-99" points="182.81 105.02 112.22 34.63 112.85 34.02 183.44 104.4 182.81 105.02"/></g><g class="cls-100"><polygon class="cls-101" points="40.41 105.02 39.8 104.4 112.23 34.01 112.84 34.64 40.41 105.02"/></g><path class="cls-89" d="M110.9,34.06a78.23,78.23,0,0,1,12.71,1l-4.89,1.22,4.9,4.71-6.56-1.86,1.88,6.51-4.75-4.87-1.65,6.58-1.66-6.58-4.75,4.87L108,39.17,101.45,41l4.9-4.71-6.13-1.53A78.29,78.29,0,0,1,110.9,34.06Z"/><path class="cls-102" d="M112.54,49.19l-1.9-7.51-5.41,5.56,2.14-7.44-7.49,2.13,5.6-5.38-7.57-1.88,2.25-.31a79.67,79.67,0,0,1,23.53.31l2.08.34-6.18,1.54,5.6,5.38L117.7,39.8l2.14,7.44-5.41-5.56ZM111.11,40l1.43,5.64L114,40,118,44.13l-1.61-5.6,5.64,1.6-4.21-4.05,3.53-.87a78.51,78.51,0,0,0-18.76-.27l4.61,1.14L103,40.13l5.63-1.6L107,44.13Z"/><path class="cls-103" d="M111.62,187.52A77.42,77.42,0,0,1,56.7,164.93a76.8,76.8,0,0,1,0-109.1A77.75,77.75,0,0,1,188.22,97.66c.11.65.21,1.32.31,2a77,77,0,0,1,.74,10.54v.13a76.55,76.55,0,0,1-1.05,12.67v0A77.11,77.11,0,0,1,162.08,169,78,78,0,0,1,111.62,187.52Zm0-153.41A76.55,76.55,0,0,0,57.33,56.45a75.91,75.91,0,0,0,0,107.86,76.85,76.85,0,0,0,130-41.33v0a76.21,76.21,0,0,0,1-12.56v-.13a75.28,75.28,0,0,0-.73-10.42c-.1-.72-.2-1.38-.31-2a76.18,76.18,0,0,0-25.85-45.4A77,77,0,0,0,111.62,34.11Z"/><ellipse class="cls-89" cx="183.12" cy="110.38" rx="5.71" ry="5.67"/><path class="cls-104" d="M183.12,116.48a6.1,6.1,0,1,1,6.15-6.1A6.13,6.13,0,0,1,183.12,116.48Zm0-11.33a5.23,5.23,0,1,0,5.27,5.23A5.25,5.25,0,0,0,183.12,105.15Z"/><ellipse class="cls-89" cx="40.1" cy="110.38" rx="5.71" ry="5.67"/><path class="cls-105" d="M40.1,116.48a6.1,6.1,0,1,1,6.15-6.1A6.12,6.12,0,0,1,40.1,116.48Zm0-11.33a5.23,5.23,0,1,0,5.27,5.23A5.25,5.25,0,0,0,40.1,105.15Z"/><g class="cls-106"><path class="cls-107" d="M111.61,172.14c-34.28,0-62.17-27.71-62.17-61.76s27.89-61.76,62.17-61.76,62.17,27.71,62.17,61.76S145.89,172.14,111.61,172.14Zm0-122.65c-33.79,0-61.29,27.32-61.29,60.89s27.5,60.89,61.29,60.89S172.9,144,172.9,110.38,145.41,49.49,111.61,49.49Z"/></g><path class="cls-108" d="M62.43,68.88a3.73,3.73,0,1,1,3.73,3.71A3.72,3.72,0,0,1,62.43,68.88Z"/><path class="cls-89" d="M66.16,73.17a4.29,4.29,0,1,1,4.32-4.28A4.3,4.3,0,0,1,66.16,73.17Zm0-7.41a3.13,3.13,0,1,0,3.15,3.13A3.14,3.14,0,0,0,66.16,65.76Z"/><path class="cls-109" d="M160.8,151.88a3.74,3.74,0,1,1-3.74-3.71A3.72,3.72,0,0,1,160.8,151.88Z"/><path class="cls-89" d="M157.06,156.16a4.29,4.29,0,1,1,4.32-4.28A4.3,4.3,0,0,1,157.06,156.16Zm0-7.41a3.13,3.13,0,1,0,3.15,3.13A3.14,3.14,0,0,0,157.06,148.75Z"/><path class="cls-110" d="M155.07,71.26a.4.4,0,0,1-.31-.13.41.41,0,0,1,0-.61L156,69.25a.44.44,0,0,1,.62.62l-1.27,1.26A.43.43,0,0,1,155.07,71.26Z"/><path class="cls-111" d="M157.75,68.6a.44.44,0,0,1-.32-.13.43.43,0,0,1,0-.61l1.28-1.27a.44.44,0,0,1,.62.62l-1.27,1.26A.43.43,0,0,1,157.75,68.6Z"/><path class="cls-112" d="M156.32,68.62a.42.42,0,0,1-.31-.13l-1.25-1.24a.42.42,0,0,1,0-.62.44.44,0,0,1,.62,0l1.25,1.25a.44.44,0,0,1-.31.74Z"/><path class="cls-113" d="M159,71.31a.46.46,0,0,1-.31-.13l-1.3-1.29a.44.44,0,0,1,.62-.62l1.3,1.29a.44.44,0,0,1,0,.62A.48.48,0,0,1,159,71.31Z"/><path class="cls-114" d="M161.59,69.32h-3.16a.44.44,0,0,1-.44-.44.43.43,0,0,1,.44-.43h3.16a.43.43,0,0,1,.44.43A.44.44,0,0,1,161.59,69.32Z"/><path class="cls-115" d="M155.66,69.32h-3.12a.44.44,0,0,1-.44-.44.43.43,0,0,1,.44-.43h3.12a.44.44,0,0,1,.44.43A.44.44,0,0,1,155.66,69.32Z"/><path class="cls-116" d="M157.06,73.82a.44.44,0,0,1-.43-.44V70.24a.44.44,0,1,1,.87,0v3.14A.44.44,0,0,1,157.06,73.82Z"/><path class="cls-117" d="M157.06,67.92a.43.43,0,0,1-.43-.43v-3.1a.44.44,0,1,1,.87,0v3.1A.43.43,0,0,1,157.06,67.92Z"/><path class="cls-118" d="M158.76,68.55l-1.41-1.39a.44.44,0,0,0-.62,0l-1.4,1.39a.44.44,0,0,0,0,.62l1.4,1.4a.48.48,0,0,0,.31.13.44.44,0,0,0,.31-.13l1.41-1.4A.44.44,0,0,0,158.76,68.55Z"/><path class="cls-119" d="M64.16,154.25a.44.44,0,0,1-.31-.74l1.28-1.27a.44.44,0,0,1,.62.62l-1.27,1.26A.44.44,0,0,1,64.16,154.25Z"/><path class="cls-120" d="M66.84,151.59a.44.44,0,0,1-.31-.74l1.28-1.27a.44.44,0,1,1,.62.62l-1.28,1.26A.4.4,0,0,1,66.84,151.59Z"/><path class="cls-121" d="M65.42,151.61a.43.43,0,0,1-.31-.12l-1.26-1.25a.44.44,0,0,1,0-.62.45.45,0,0,1,.63,0l1.25,1.25a.44.44,0,0,1,0,.62A.47.47,0,0,1,65.42,151.61Z"/><path class="cls-122" d="M68.12,154.3a.44.44,0,0,1-.31-.13l-1.3-1.29a.44.44,0,1,1,.62-.62l1.3,1.29a.44.44,0,0,1,0,.62A.48.48,0,0,1,68.12,154.3Z"/><path class="cls-123" d="M70.69,152.31H67.52a.44.44,0,1,1,0-.87h3.17a.44.44,0,1,1,0,.87Z"/><path class="cls-124" d="M64.76,152.31H61.63a.44.44,0,0,1,0-.87h3.13a.44.44,0,1,1,0,.87Z"/><path class="cls-125" d="M66.16,156.81a.44.44,0,0,1-.44-.44v-3.14a.44.44,0,0,1,.44-.44.44.44,0,0,1,.44.44v3.14A.43.43,0,0,1,66.16,156.81Z"/><path class="cls-126" d="M66.16,150.92a.44.44,0,0,1-.44-.44v-3.1a.44.44,0,0,1,.44-.44.44.44,0,0,1,.44.44v3.1A.44.44,0,0,1,66.16,150.92Z"/><path class="cls-127" d="M67.86,151.54l-1.41-1.39a.43.43,0,0,0-.62,0l-1.41,1.39a.44.44,0,0,0,0,.62l1.41,1.4a.48.48,0,0,0,.31.13.46.46,0,0,0,.31-.13l1.41-1.4a.44.44,0,0,0,.13-.31A.48.48,0,0,0,67.86,151.54Z"/><path class="cls-128" d="M65.15,110.89l13.51,17.33h0L91.6,141.06l20,16.18,20.07-16.16h0l12.88-12.79h0l.2-.23v0l13.36-17.14-13.29-22,2.35-2.34-9.77-14.69-10-2.6-11.51-5.72h-8.56l-11.5,5.72-10,2.6L76.1,86.53l2.35,2.34L65.21,110.79Zm32.05-23,1.36,1.9L95,93.47l-6.07-1.75ZM83.84,93.67l-2.76-5.74,2.25-5.22,13,5.23Zm14.93-3.55h0l11.47,8.68-1.5,11.28L89.47,99.81l0-.16Zm.25-.23,9.74-2.55,2.68,2.42-1.15,8.66Zm25.55.25h0l4.8,4.9v.08h.08l4.36,4.45-19.22,10.56-1.5-11.31Zm-11.5,8.28-1.15-8.66,2.68-2.42,9.73,2.55Zm22.32-6.14-5.84,2.41-4.75-4.85L126,88.23Zm-8.65-4.08,13.81-5.49,2,4.44-3,6.52ZM137.06,111l-10.34,12.23,7.39-23Zm-2.68-11L157,110.45l-19.66.12Zm-.56,0-7.63,23.76-10.42-5h0l0,0-1.08-8.16ZM97.13,124.19l.15-.24h0l10.21-4.83-1.32,5.12.09.19L111.5,127l-.25,4.44-5.34,7.95Zm8.44,15.29L92.09,133l4.85-8.42Zm5.85-7.7,5.83,8-5.57,2.7-5.59-2.7h0Zm.17-.35.25-4.43,5.26-2.58.1-.19-1.32-5.12L126.05,124l-8.53,15.48Zm14.71-7.11,5,8.64L118,139.39Zm-9.47-.14-5.15,2.52-5.15-2.52,1.36-5.3h7.58Zm-9.22-5.53,0,0h0l-10.55,5-.26-.32L92,109.66l-2.42-9.4,19.1,10.19Zm-15.93-8.9,4.48,12.87L86.3,111l2.93-10.69Zm-5.63.82H66.26L89,99.92h0Zm0,.67,10.39,12.29.11.31-17.49,4Zm-6.94,17,17.58-4.05,0,0-5,8.76-2.89,4.87Zm12.69,12.61-2.77-2.75,2.85-4.81,6.27,3-3.08,7.18Zm3.55,2.87,3.11-7.25,7.09,3.43,0,.07.14.09-3.22,9.39Zm16.17,13.11-8.81-7.14,3.28-9.58,5.58,2.7.08,0,5.78-2.8,0,0,2.94,9.6Zm9.16-7.38-2.9-9.47h0l0,0v0l7.09-3.43,3,7.25Zm10.69-8.6-3.29,2.65-2.93-7.18,6.25-3,2.48,5Zm2.77-2.76-2.43-4.94h0l-5.11-8.89,17.47,4Zm-7.56-14.2,10.66-12.62,7,16.63Zm31.05-13-13.1,16.81-7.05-16.76,20.1-.12Zm-.4-.66-23-10.74L130,95.18l19.72,2.6Zm-7.73-12.79-19.45-2.56,5.67-2.35,0-.08,4,1.7,1.84-4,2.9-1.19Zm-2.84-10.93-2.07,2.06v0l-2.87,1.18,1.18-2.53-2.19-4.89L126,88.11l11.26-15.75Zm-9.64-14.37-12.5,17.48L118.3,88l9.07-18.38Zm-10-2.66L118,87.87,114.77,87l6.88-20.27Zm-15.2-5.58h4l5.53,2.74L114.4,87.06l-2.53,2.29,0-.13Zm3.54,54.67H108l3.71-28Zm-8-54.67h4.1V89.22l0,.13L109,87.06l-6.22-20.87ZM96,69.56l6.48-3.22L108.59,87l-3.18.84L97,69.2l-.32.14L105.07,88l-6.26,1.63L86.29,72.08ZM76.54,86.48,86,72.27,97.17,87.9l-14-5.63L80.7,87.94l.78,1.62-2.6-.74h0Zm2.27,2.46-.06.19,2.93.85,2,4.14,4.78-2.19,5.77,1.67L73.71,97.39Zm-5.34,8.84,21.13-3.9-5.46,5.58-.17.08-.17-.09-.12.22L65.86,110.38Zm12.38,13.14-7.09,16.86L65.61,110.92Z"/></g></g></svg>