<svg xmlns="http://www.w3.org/2000/svg" xmlns:xlink="http://www.w3.org/1999/xlink" viewBox="0 0 230.76 231.29"><defs><style>.cls-1{mask:url(#mask);filter:url(#luminosity-noclip-3);}.cls-2,.cls-4{mix-blend-mode:multiply;}.cls-2{fill:url(#linear-gradient);}.cls-3{mask:url(#mask-2);filter:url(#luminosity-noclip-4);}.cls-4{fill:url(#linear-gradient-2);}.cls-5{fill:url(#radial-gradient);}.cls-6{fill:url(#radial-gradient-2);}.cls-7{fill:url(#radial-gradient-3);}.cls-8{fill:url(#radial-gradient-4);}.cls-9{fill:url(#radial-gradient-5);}.cls-10{fill:url(#radial-gradient-6);}.cls-11{fill:url(#radial-gradient-7);}.cls-12{fill:url(#radial-gradient-8);}.cls-13{fill:url(#radial-gradient-9);}.cls-14{fill:url(#radial-gradient-10);}.cls-15{fill:url(#radial-gradient-11);}.cls-16{fill:url(#radial-gradient-12);}.cls-17{fill:url(#radial-gradient-13);}.cls-18{fill:url(#radial-gradient-14);}.cls-19{fill:url(#radial-gradient-15);}.cls-20{fill:url(#radial-gradient-16);}.cls-21{fill:url(#radial-gradient-17);}.cls-22{fill:url(#radial-gradient-18);}.cls-23{fill:url(#radial-gradient-19);}.cls-24{fill:url(#radial-gradient-20);}.cls-25{fill:url(#radial-gradient-21);}.cls-26{fill:url(#radial-gradient-22);}.cls-27{fill:url(#radial-gradient-23);}.cls-28{fill:url(#radial-gradient-24);}.cls-29{fill:url(#radial-gradient-25);}.cls-30{fill:url(#radial-gradient-26);}.cls-31{fill:url(#radial-gradient-27);}.cls-32{fill:url(#radial-gradient-28);}.cls-33{fill:url(#radial-gradient-29);}.cls-34{fill:url(#radial-gradient-30);}.cls-35{fill:url(#radial-gradient-31);}.cls-36{fill:url(#radial-gradient-32);}.cls-37{fill:url(#radial-gradient-33);}.cls-38{fill:url(#radial-gradient-34);}.cls-39{fill:url(#radial-gradient-35);}.cls-40{fill:url(#radial-gradient-36);}.cls-41{fill:url(#radial-gradient-37);}.cls-42{fill:url(#radial-gradient-38);}.cls-43{fill:url(#radial-gradient-39);}.cls-44{fill:url(#radial-gradient-40);}.cls-45{fill:url(#radial-gradient-41);}.cls-46{fill:url(#radial-gradient-42);}.cls-47{fill:url(#radial-gradient-43);}.cls-48{fill:url(#radial-gradient-44);}.cls-49{fill:url(#radial-gradient-45);}.cls-50{fill:url(#radial-gradient-46);}.cls-51{fill:url(#radial-gradient-47);}.cls-52{fill:url(#radial-gradient-48);}.cls-53{fill:url(#radial-gradient-49);}.cls-54{fill:url(#radial-gradient-50);}.cls-55{fill:url(#radial-gradient-51);}.cls-56{fill:url(#radial-gradient-52);}.cls-57{fill:url(#radial-gradient-53);}.cls-58{fill:url(#radial-gradient-54);}.cls-59{fill:url(#radial-gradient-55);}.cls-60{fill:url(#radial-gradient-56);}.cls-61{fill:url(#radial-gradient-57);}.cls-62{fill:url(#radial-gradient-58);}.cls-63{fill:url(#radial-gradient-59);}.cls-64{fill:url(#radial-gradient-60);}.cls-65{fill:url(#radial-gradient-61);}.cls-66{fill:url(#radial-gradient-62);}.cls-67{fill:url(#radial-gradient-63);}.cls-68{fill:url(#radial-gradient-64);}.cls-69{fill:url(#radial-gradient-65);}.cls-70{fill:url(#radial-gradient-66);}.cls-71{fill:url(#radial-gradient-67);}.cls-72{fill:url(#radial-gradient-68);}.cls-73{fill:url(#radial-gradient-69);}.cls-74{fill:url(#radial-gradient-70);}.cls-75{fill:url(#radial-gradient-71);}.cls-76{fill:url(#radial-gradient-72);}.cls-77{fill:url(#radial-gradient-73);}.cls-78{fill:url(#radial-gradient-74);}.cls-79{fill:url(#radial-gradient-75);}.cls-80{fill:url(#radial-gradient-76);}.cls-81{mask:url(#mask-3);}.cls-82{fill:url(#linear-gradient-3);}.cls-83{fill:#191919;}.cls-84{fill:url(#radial-gradient-77);}.cls-85{fill:url(#radial-gradient-78);}.cls-86{fill:url(#linear-gradient-4);}.cls-87{fill:url(#linear-gradient-5);}.cls-88{fill:url(#linear-gradient-6);}.cls-89{fill:url(#linear-gradient-7);}.cls-90{mask:url(#mask-4);}.cls-91{fill:url(#linear-gradient-8);}.cls-92{fill:#fff;}.cls-93{filter:url(#luminosity-noclip-2);}.cls-94{filter:url(#luminosity-noclip);}</style><filter id="luminosity-noclip" x="3.62" y="-8307.15" width="223.52" height="32766" filterUnits="userSpaceOnUse" color-interpolation-filters="sRGB"><feFlood flood-color="#fff" result="bg"/><feBlend in="SourceGraphic" in2="bg"/></filter><mask id="mask" x="3.62" y="-8307.15" width="223.52" height="32766" maskUnits="userSpaceOnUse"><g class="cls-94"/></mask><linearGradient id="linear-gradient" x1="-468.25" y1="1388.8" x2="-342.68" y2="1171.31" gradientTransform="translate(1307.21 -502.78) rotate(45)" gradientUnits="userSpaceOnUse"><stop offset="0" stop-color="#fff"/><stop offset="0.54"/><stop offset="1" stop-color="#f1f1f1"/></linearGradient><filter id="luminosity-noclip-2" x="53.11" y="-8307.15" width="124.55" height="32766" filterUnits="userSpaceOnUse" color-interpolation-filters="sRGB"><feFlood flood-color="#fff" result="bg"/><feBlend in="SourceGraphic" in2="bg"/></filter><mask id="mask-2" x="53.11" y="-8307.15" width="124.55" height="32766" maskUnits="userSpaceOnUse"><g class="cls-93"/></mask><linearGradient id="linear-gradient-2" x1="71.39" y1="159.64" x2="159.38" y2="71.65" gradientTransform="matrix(1, 0, 0, 1, 0, 0)" xlink:href="#linear-gradient"/><radialGradient id="radial-gradient" cx="-9689.35" cy="-2055.05" r="102.98" gradientTransform="matrix(0.33, 0.01, -0.01, 0.33, 3235.62, 851.63)" gradientUnits="userSpaceOnUse"><stop offset="0" stop-color="#121212"/><stop offset="0.16" stop-color="#151514"/><stop offset="0.3" stop-color="#201e1a"/><stop offset="0.43" stop-color="#322d23"/><stop offset="0.56" stop-color="#4b4131"/><stop offset="0.69" stop-color="#6c5c43"/><stop offset="0.81" stop-color="#947d58"/><stop offset="0.92" stop-color="#c2a471"/><stop offset="1" stop-color="#e4c084"/></radialGradient><radialGradient id="radial-gradient-2" cx="-9701.39" cy="-2087.69" r="125.76" xlink:href="#radial-gradient"/><radialGradient id="radial-gradient-3" cx="-9715.42" cy="-1256.79" r="102.99" gradientTransform="matrix(0.33, 0.04, -0.04, 0.33, 3204.83, 845.78)" xlink:href="#radial-gradient"/><radialGradient id="radial-gradient-4" cx="-9704.73" cy="-473.25" r="125.76" gradientTransform="matrix(0.32, 0.06, -0.06, 0.32, 3175.28, 837.35)" xlink:href="#radial-gradient"/><radialGradient id="radial-gradient-5" cx="-9584.69" cy="353.94" r="102.98" gradientTransform="matrix(0.31, 0.09, -0.09, 0.31, 3146.25, 826.84)" xlink:href="#radial-gradient"/><radialGradient id="radial-gradient-6" cx="-9441.49" cy="1122.74" r="125.74" gradientTransform="matrix(0.31, 0.12, -0.12, 0.31, 3119.36, 813.83)" xlink:href="#radial-gradient"/><radialGradient id="radial-gradient-7" cx="-9190.81" cy="1920.48" r="102.97" gradientTransform="matrix(0.3, 0.14, -0.14, 0.3, 3092.09, 798.53)" xlink:href="#radial-gradient"/><radialGradient id="radial-gradient-8" cx="-8918.15" cy="2649.76" r="125.74" gradientTransform="matrix(0.28, 0.17, -0.17, 0.28, 3066.68, 781.06)" xlink:href="#radial-gradient"/><radialGradient id="radial-gradient-9" cx="-8542.31" cy="3399.31" r="102.97" gradientTransform="matrix(0.27, 0.19, -0.19, 0.27, 3042.89, 761.33)" xlink:href="#radial-gradient"/><radialGradient id="radial-gradient-10" cx="-8150.06" cy="4071.17" r="125.74" gradientTransform="matrix(0.25, 0.21, -0.21, 0.25, 3021.23, 739.95)" xlink:href="#radial-gradient"/><radialGradient id="radial-gradient-11" cx="-7658.81" cy="4753.19" r="102.97" gradientTransform="matrix(0.23, 0.23, -0.23, 0.23, 3000.54, 716.54)" xlink:href="#radial-gradient"/><radialGradient id="radial-gradient-12" cx="-7158.69" cy="5347.44" r="125.76" gradientTransform="matrix(0.21, 0.25, -0.25, 0.21, 2982.87, 691.36)" xlink:href="#radial-gradient"/><radialGradient id="radial-gradient-13" cx="-6563.94" cy="5942.85" r="102.98" gradientTransform="matrix(0.19, 0.26, -0.27, 0.19, 2966.23, 665.32)" xlink:href="#radial-gradient"/><radialGradient id="radial-gradient-14" cx="-5967.85" cy="6442.14" r="125.76" gradientTransform="matrix(0.17, 0.28, -0.28, 0.17, 2952.65, 637.54)" xlink:href="#radial-gradient"/><radialGradient id="radial-gradient-15" cx="-5291" cy="6935.29" r="102.97" gradientTransform="matrix(0.15, 0.29, -0.29, 0.15, 2940.94, 609.42)" xlink:href="#radial-gradient"/><radialGradient id="radial-gradient-16" cx="-4615.03" cy="7324.51" r="125.75" gradientTransform="matrix(0.12, 0.3, -0.3, 0.12, 2931.55, 579.75)" xlink:href="#radial-gradient"/><radialGradient id="radial-gradient-17" cx="-3867.15" cy="7704.05" r="102.98" gradientTransform="matrix(0.1, 0.31, -0.31, 0.1, 2925, 549.59)" xlink:href="#radial-gradient"/><radialGradient id="radial-gradient-18" cx="-3135.26" cy="7969.51" r="125.75" gradientTransform="matrix(0.07, 0.32, -0.32, 0.07, 2920.21, 519.03)" xlink:href="#radial-gradient"/><radialGradient id="radial-gradient-19" cx="-2341.77" cy="8227.03" r="102.97" gradientTransform="matrix(0.04, 0.32, -0.32, 0.04, 2919.4, 488.82)" xlink:href="#radial-gradient"/><radialGradient id="radial-gradient-20" cx="-1566.03" cy="8362.75" r="125.75" gradientTransform="matrix(0.02, 0.33, -0.33, 0.02, 2919.25, 457.15)" xlink:href="#radial-gradient"/><radialGradient id="radial-gradient-21" cx="-744.68" cy="8485.74" r="102.97" gradientTransform="matrix(-0.01, 0.33, -0.33, -0.01, 2922.94, 426.9)" xlink:href="#radial-gradient"/><radialGradient id="radial-gradient-22" cx="40.71" cy="8493.98" r="125.74" gradientTransform="matrix(-0.04, 0.33, -0.33, -0.04, 2928.95, 396.78)" xlink:href="#radial-gradient"/><radialGradient id="radial-gradient-23" cx="870.03" cy="8483.3" r="102.97" gradientTransform="matrix(-0.07, 0.32, -0.32, -0.07, 2937.46, 367)" xlink:href="#radial-gradient"/><radialGradient id="radial-gradient-24" cx="1654.65" cy="8357.2" r="125.76" gradientTransform="matrix(-0.09, 0.31, -0.31, -0.09, 2948.78, 337.67)" xlink:href="#radial-gradient"/><radialGradient id="radial-gradient-25" cx="2463.95" cy="8213.89" r="102.97" gradientTransform="matrix(-0.12, 0.31, -0.31, -0.12, 2961.73, 310.38)" xlink:href="#radial-gradient"/><radialGradient id="radial-gradient-26" cx="3219.44" cy="7957.94" r="125.76" gradientTransform="matrix(-0.14, 0.29, -0.3, -0.14, 2977.7, 283.42)" xlink:href="#radial-gradient"/><radialGradient id="radial-gradient-27" cx="3993.05" cy="7688.16" r="102.99" gradientTransform="matrix(-0.17, 0.28, -0.28, -0.17, 2995.8, 258.23)" xlink:href="#radial-gradient"/><radialGradient id="radial-gradient-28" cx="4696.86" cy="7304.84" r="125.77" gradientTransform="matrix(-0.19, 0.27, -0.27, -0.19, 3015.29, 234.56)" xlink:href="#radial-gradient"/><radialGradient id="radial-gradient-29" cx="5410.63" cy="6915.49" r="103" gradientTransform="matrix(-0.21, 0.25, -0.25, -0.21, 3037.19, 212.91)" xlink:href="#radial-gradient"/><radialGradient id="radial-gradient-30" cx="6041.53" cy="6415.21" r="125.74" gradientTransform="matrix(-0.23, 0.23, -0.23, -0.23, 3059.48, 192.95)" xlink:href="#radial-gradient"/><radialGradient id="radial-gradient-31" cx="6678.66" cy="5912.68" r="102.96" gradientTransform="matrix(-0.25, 0.21, -0.21, -0.25, 3084.32, 174.31)" xlink:href="#radial-gradient"/><radialGradient id="radial-gradient-32" cx="7225.19" cy="5317.57" r="125.75" gradientTransform="matrix(-0.27, 0.19, -0.19, -0.27, 3110.81, 159.01)" xlink:href="#radial-gradient"/><radialGradient id="radial-gradient-33" cx="7771.5" cy="4720.42" r="102.98" gradientTransform="matrix(-0.28, 0.17, -0.17, -0.28, 3139.02, 144.25)" xlink:href="#radial-gradient"/><radialGradient id="radial-gradient-34" cx="8216.89" cy="4035.83" r="125.76" gradientTransform="matrix(-0.29, 0.14, -0.14, -0.29, 3167.57, 132.89)" xlink:href="#radial-gradient"/><radialGradient id="radial-gradient-35" cx="8647.45" cy="3363.19" r="102.97" gradientTransform="matrix(-0.3, 0.12, -0.12, -0.3, 3196.87, 123.77)" xlink:href="#radial-gradient"/><radialGradient id="radial-gradient-36" cx="8976.4" cy="2611.36" r="125.74" gradientTransform="matrix(-0.31, 0.09, -0.09, -0.31, 3226.67, 117.39)" xlink:href="#radial-gradient"/><radialGradient id="radial-gradient-37" cx="9284.84" cy="1880.98" r="102.96" gradientTransform="matrix(-0.32, 0.07, -0.07, -0.32, 3256.89, 113.5)" xlink:href="#radial-gradient"/><radialGradient id="radial-gradient-38" cx="9494.16" cy="1081.82" r="125.75" gradientTransform="matrix(-0.33, 0.04, -0.04, -0.32, 3288.4, 111.91)" xlink:href="#radial-gradient"/><radialGradient id="radial-gradient-39" cx="9679.06" cy="310.93" r="102.98" gradientTransform="matrix(-0.33, 0.01, -0.01, -0.33, 3319.79, 112.51)" xlink:href="#radial-gradient"/><radialGradient id="radial-gradient-40" cx="9750.77" cy="-513.48" r="125.76" gradientTransform="matrix(-0.33, -0.01, 0.01, -0.33, 3349.81, 116.9)" xlink:href="#radial-gradient"/><radialGradient id="radial-gradient-41" cx="9802.39" cy="-1296.64" r="102.98" gradientTransform="matrix(-0.33, -0.04, 0.04, -0.33, 3380.56, 122.73)" xlink:href="#radial-gradient"/><radialGradient id="radial-gradient-42" cx="9742.5" cy="-2130.75" r="125.75" gradientTransform="matrix(-0.32, -0.07, 0.07, -0.32, 3410.21, 131.01)" xlink:href="#radial-gradient"/><radialGradient id="radial-gradient-43" cx="9657.07" cy="-2907.08" r="102.97" gradientTransform="matrix(-0.31, -0.09, 0.09, -0.31, 3438.68, 142.06)" xlink:href="#radial-gradient"/><radialGradient id="radial-gradient-44" cx="9466.38" cy="-3723.32" r="125.75" gradientTransform="matrix(-0.31, -0.12, 0.12, -0.31, 3466.79, 155.51)" xlink:href="#radial-gradient"/><radialGradient id="radial-gradient-45" cx="9249.68" cy="-4467.46" r="103" gradientTransform="matrix(-0.29, -0.14, 0.14, -0.29, 3493.03, 171.95)" xlink:href="#radial-gradient"/><radialGradient id="radial-gradient-46" cx="8929.34" cy="-5245.31" r="125.75" gradientTransform="matrix(-0.28, -0.17, 0.17, -0.28, 3518.39, 188.88)" xlink:href="#radial-gradient"/><radialGradient id="radial-gradient-47" cx="8586.51" cy="-5946.66" r="102.95" gradientTransform="matrix(-0.27, -0.19, 0.19, -0.27, 3541.5, 208)" xlink:href="#radial-gradient"/><radialGradient id="radial-gradient-48" cx="8149.2" cy="-6662.61" r="125.75" gradientTransform="matrix(-0.25, -0.21, 0.21, -0.25, 3563.48, 230.34)" xlink:href="#radial-gradient"/><radialGradient id="radial-gradient-49" cx="7698.46" cy="-7291" r="102.97" gradientTransform="matrix(-0.23, -0.23, 0.23, -0.23, 3583.87, 253.87)" xlink:href="#radial-gradient"/><radialGradient id="radial-gradient-50" cx="7147.77" cy="-7926.84" r="125.76" gradientTransform="matrix(-0.21, -0.25, 0.25, -0.21, 3601.43, 279.15)" xlink:href="#radial-gradient"/><radialGradient id="radial-gradient-51" cx="6590.81" cy="-8469.57" r="102.98" gradientTransform="matrix(-0.19, -0.27, 0.27, -0.19, 3617.35, 305.29)" xlink:href="#radial-gradient"/><radialGradient id="radial-gradient-52" cx="5951.93" cy="-9013.27" r="125.75" gradientTransform="matrix(-0.17, -0.28, 0.28, -0.17, 3632.02, 333.18)" xlink:href="#radial-gradient"/><radialGradient id="radial-gradient-53" cx="5305.78" cy="-9451.92" r="102.98" gradientTransform="matrix(-0.14, -0.29, 0.29, -0.14, 3642.58, 361.45)" xlink:href="#radial-gradient"/><radialGradient id="radial-gradient-54" cx="4590.92" cy="-9884" r="125.76" gradientTransform="matrix(-0.12, -0.3, 0.31, -0.12, 3651.81, 391.31)" xlink:href="#radial-gradient"/><radialGradient id="radial-gradient-55" cx="3882.04" cy="-10208.92" r="102.99" gradientTransform="matrix(-0.09, -0.31, 0.31, -0.09, 3658.4, 421.73)" xlink:href="#radial-gradient"/><radialGradient id="radial-gradient-56" cx="3103.18" cy="-10520.57" r="125.76" gradientTransform="matrix(-0.07, -0.32, 0.32, -0.07, 3661.78, 451.81)" xlink:href="#radial-gradient"/><radialGradient id="radial-gradient-57" cx="2348.81" cy="-10719.28" r="102.97" gradientTransform="matrix(-0.04, -0.32, 0.33, -0.04, 3663.77, 482.44)" xlink:href="#radial-gradient"/><radialGradient id="radial-gradient-58" cx="1534.91" cy="-10903.58" r="125.75" gradientTransform="matrix(-0.01, -0.33, 0.33, -0.01, 3662.84, 513.83)" xlink:href="#radial-gradient"/><radialGradient id="radial-gradient-59" cx="751.65" cy="-10969.44" r="102.97" gradientTransform="matrix(0.01, -0.33, 0.33, 0.01, 3659.03, 543.92)" xlink:href="#radial-gradient"/><radialGradient id="radial-gradient-60" cx="-76.68" cy="-11020.74" r="125.73" gradientTransform="matrix(0.04, -0.32, 0.33, 0.04, 3653.05, 574.01)" xlink:href="#radial-gradient"/><radialGradient id="radial-gradient-61" cx="-863.73" cy="-10952.65" r="102.97" gradientTransform="matrix(0.07, -0.32, 0.32, 0.07, 3643.89, 603.89)" xlink:href="#radial-gradient"/><radialGradient id="radial-gradient-62" cx="-1686.23" cy="-10869.46" r="125.77" gradientTransform="matrix(0.09, -0.31, 0.31, 0.09, 3632.04, 632.68)" xlink:href="#radial-gradient"/><radialGradient id="radial-gradient-63" cx="-2454.05" cy="-10671.09" r="102.97" gradientTransform="matrix(0.12, -0.3, 0.3, 0.12, 3619.47, 660.39)" xlink:href="#radial-gradient"/><radialGradient id="radial-gradient-64" cx="-3247.81" cy="-10456.04" r="125.76" gradientTransform="matrix(0.14, -0.29, 0.29, 0.14, 3603.16, 686.33)" xlink:href="#radial-gradient"/><radialGradient id="radial-gradient-65" cx="-3976.87" cy="-10130.29" r="102.97" gradientTransform="matrix(0.17, -0.28, 0.28, 0.17, 3585.61, 711.48)" xlink:href="#radial-gradient"/><radialGradient id="radial-gradient-66" cx="-4720.23" cy="-9791.48" r="125.74" gradientTransform="matrix(0.19, -0.27, 0.27, 0.19, 3565.93, 735.29)" xlink:href="#radial-gradient"/><radialGradient id="radial-gradient-67" cx="-5388.97" cy="-9344.19" r="102.97" gradientTransform="matrix(0.21, -0.25, 0.25, 0.21, 3543.87, 757.26)" xlink:href="#radial-gradient"/><radialGradient id="radial-gradient-68" cx="-6062.44" cy="-8892.18" r="125.74" gradientTransform="matrix(0.23, -0.23, 0.23, 0.23, 3520.66, 777.73)" xlink:href="#radial-gradient"/><radialGradient id="radial-gradient-69" cx="-6652.27" cy="-8337.53" r="102.96" gradientTransform="matrix(0.25, -0.21, 0.21, 0.25, 3495.72, 795.47)" xlink:href="#radial-gradient"/><radialGradient id="radial-gradient-70" cx="-7237.77" cy="-7783.6" r="125.74" gradientTransform="matrix(0.27, -0.19, 0.19, 0.27, 3469.14, 811.67)" xlink:href="#radial-gradient"/><radialGradient id="radial-gradient-71" cx="-7731.87" cy="-7135.43" r="102.99" gradientTransform="matrix(0.28, -0.17, 0.17, 0.28, 3440.81, 824.3)" xlink:href="#radial-gradient"/><radialGradient id="radial-gradient-72" cx="-8214.37" cy="-6496.17" r="125.74" gradientTransform="matrix(0.29, -0.14, 0.14, 0.29, 3412.93, 835.33)" xlink:href="#radial-gradient"/><radialGradient id="radial-gradient-73" cx="-8598.61" cy="-5771.86" r="102.96" gradientTransform="matrix(0.31, -0.12, 0.12, 0.31, 3383.43, 844.3)" xlink:href="#radial-gradient"/><radialGradient id="radial-gradient-74" cx="-8965.25" cy="-5065.6" r="125.73" gradientTransform="matrix(0.31, -0.09, 0.09, 0.31, 3353.38, 850.72)" xlink:href="#radial-gradient"/><radialGradient id="radial-gradient-75" cx="-9228.14" cy="-4283.6" r="102.99" gradientTransform="matrix(0.32, -0.07, 0.07, 0.32, 3322.02, 854.01)" xlink:href="#radial-gradient"/><radialGradient id="radial-gradient-76" cx="-9469.32" cy="-3531.02" r="125.76" gradientTransform="matrix(0.33, -0.04, 0.04, 0.33, 3290.89, 855.99)" xlink:href="#radial-gradient"/><filter id="luminosity-noclip-3" x="3.62" y="3.97" width="223.52" height="223.35" filterUnits="userSpaceOnUse" color-interpolation-filters="sRGB"><feFlood flood-color="#fff" result="bg"/><feBlend in="SourceGraphic" in2="bg"/></filter><mask id="mask-3" x="3.62" y="3.97" width="223.52" height="223.35" maskUnits="userSpaceOnUse"><g class="cls-1"><path class="cls-2" d="M56.68,227.32a74.05,74.05,0,0,1-9.9-.65c-11.84-1.61-21.59-6.17-29-13.54S5.89,196,4.27,184.2C2.72,172.8,4,160,7.92,146c8.17-28.63,27-58.73,53-84.74s56.15-44.82,84.81-53c14-4,26.82-5.2,38.22-3.65,11.85,1.62,21.59,6.17,29,13.54s11.94,17.11,13.55,28.94c1.55,11.39.33,24.24-3.65,38.19-8.17,28.64-27,58.73-53,84.74S113.66,214.86,85,223A104.07,104.07,0,0,1,56.68,227.32ZM174.08,4.85A103.11,103.11,0,0,0,146,9.12C117.48,17.24,87.5,36,61.57,61.88c-53.45,53.41-72.8,121-43.13,150.63,7.24,7.23,16.81,11.7,28.46,13.29,11.28,1.54,24,.32,37.86-3.63,28.52-8.12,58.5-26.85,84.43-52.76s44.68-55.86,52.8-84.36c3.95-13.83,5.17-26.56,3.63-37.83C224,35.58,219.56,26,212.32,18.78S195.51,7.08,183.87,5.49A74.09,74.09,0,0,0,174.08,4.85Z"/></g></mask><linearGradient id="linear-gradient-3" x1="-468.25" y1="1388.8" x2="-342.68" y2="1171.31" gradientTransform="translate(1307.21 -502.78) rotate(45)" gradientUnits="userSpaceOnUse"><stop offset="0" stop-color="#e2b673"/><stop offset="0.54"/><stop offset="1" stop-color="#d0a86b"/></linearGradient><radialGradient id="radial-gradient-77" cx="-9253.45" cy="-3071.03" r="246.24" gradientTransform="matrix(0.33, -0.03, 0.03, 0.33, 3216.49, 882.99)" gradientUnits="userSpaceOnUse"><stop offset="0.06" stop-color="#191919"/><stop offset="0.21" stop-color="#1c1c1b"/><stop offset="0.35" stop-color="#272520"/><stop offset="0.47" stop-color="#39332a"/><stop offset="0.59" stop-color="#524837"/><stop offset="0.71" stop-color="#736348"/><stop offset="0.83" stop-color="#9b845d"/><stop offset="0.94" stop-color="#c9aa76"/><stop offset="1" stop-color="#e4c084"/></radialGradient><radialGradient id="radial-gradient-78" cx="-9558.29" cy="-2242.45" r="215.75" gradientTransform="translate(3247.63 849.82) scale(0.33 0.33)" xlink:href="#radial-gradient-77"/><linearGradient id="linear-gradient-4" x1="13.3" y1="217.65" x2="23.02" y2="207.93" gradientUnits="userSpaceOnUse"><stop offset="0" stop-color="#b68d5d"/><stop offset="0.07" stop-color="#bd9463"/><stop offset="0.51" stop-color="#e4c084"/><stop offset="1" stop-color="#b68d5d"/></linearGradient><linearGradient id="linear-gradient-5" x1="0.77" y1="179.98" x2="7.52" y2="179.98" xlink:href="#linear-gradient-4"/><linearGradient id="linear-gradient-6" x1="224.04" y1="49.21" x2="228.19" y2="45.06" xlink:href="#linear-gradient-4"/><linearGradient id="linear-gradient-7" x1="198.19" y1="19.24" x2="225.55" y2="19.24" xlink:href="#linear-gradient-4"/><filter id="luminosity-noclip-4" x="53.11" y="53.42" width="124.55" height="124.45" filterUnits="userSpaceOnUse" color-interpolation-filters="sRGB"><feFlood flood-color="#fff" result="bg"/><feBlend in="SourceGraphic" in2="bg"/></filter><mask id="mask-4" x="53.11" y="53.42" width="124.55" height="124.45" maskUnits="userSpaceOnUse"><g class="cls-3"><path class="cls-4" d="M115.38,177.87a62.23,62.23,0,1,1,62.27-62.22A62.31,62.31,0,0,1,115.38,177.87Zm0-123.57a61.35,61.35,0,1,0,61.4,61.35A61.44,61.44,0,0,0,115.38,54.3Z"/></g></mask><linearGradient id="linear-gradient-8" x1="71.39" y1="159.64" x2="159.38" y2="71.65" gradientTransform="matrix(1, 0, 0, 1, 0, 0)" xlink:href="#linear-gradient-3"/></defs><g id="레이어_2" data-name="레이어 2"><g id="레이어_1-2" data-name="레이어 1"><path class="cls-5" d="M115.37,116.08a.47.47,0,0,1-.32-.14L50.53,47.37a.44.44,0,0,1,0-.62.43.43,0,0,1,.62,0l64.52,68.57a.43.43,0,0,1,0,.62A.42.42,0,0,1,115.37,116.08Z"/><path class="cls-6" d="M115.37,116.08a.44.44,0,0,1-.34-.16L43.28,25.74a.44.44,0,0,1,.69-.55l71.75,90.18a.44.44,0,0,1-.07.62A.47.47,0,0,1,115.37,116.08Z"/><path class="cls-7" d="M115.37,116.08a.42.42,0,0,1-.36-.2L62.7,37.62a.43.43,0,0,1,.12-.61.44.44,0,0,1,.61.12l52.31,78.27a.43.43,0,0,1-.37.68Z"/><path class="cls-8" d="M115.37,116.08a.44.44,0,0,1-.38-.22L59.11,15.08a.45.45,0,0,1,.18-.6.44.44,0,0,1,.59.18l55.88,100.77a.44.44,0,0,1-.17.6A.42.42,0,0,1,115.37,116.08Z"/><path class="cls-9" d="M115.37,116.08a.46.46,0,0,1-.4-.26L76.3,30a.44.44,0,1,1,.8-.36l38.67,85.82a.44.44,0,0,1-.22.58A.39.39,0,0,1,115.37,116.08Z"/><path class="cls-10" d="M115.37,116.08a.43.43,0,0,1-.41-.29L76.49,7.18a.44.44,0,0,1,.83-.29L115.79,115.5a.44.44,0,0,1-.27.56A.39.39,0,0,1,115.37,116.08Z"/><path class="cls-11" d="M115.37,116.08a.44.44,0,0,1-.42-.33l-24-91a.44.44,0,0,1,.31-.53.43.43,0,0,1,.54.31l24,91a.44.44,0,0,1-.32.53Z"/><path class="cls-12" d="M115.37,116.08a.44.44,0,0,1-.43-.36L94.94,2.26a.43.43,0,0,1,.35-.51.44.44,0,0,1,.51.36l20,113.46a.45.45,0,0,1-.36.51Z"/><path class="cls-13" d="M115.37,116.08a.45.45,0,0,1-.44-.4L106.33,22a.43.43,0,0,1,.39-.48.44.44,0,0,1,.48.4l8.61,93.72a.45.45,0,0,1-.4.48Z"/><path class="cls-14" d="M115.37,116.08a.43.43,0,0,1-.43-.44L114.83.44a.44.44,0,0,1,.44-.44h0a.44.44,0,0,1,.44.44l.1,115.2a.43.43,0,0,1-.44.44Z"/><path class="cls-15" d="M115.37,116.08h0a.45.45,0,0,1-.41-.47l7-93.86a.45.45,0,0,1,.47-.41.44.44,0,0,1,.41.47l-7,93.86A.45.45,0,0,1,115.37,116.08Z"/><path class="cls-16" d="M115.38,116.08h-.07a.44.44,0,0,1-.37-.5L133,1.79a.45.45,0,0,1,.51-.37.43.43,0,0,1,.36.5l-18,113.79A.44.44,0,0,1,115.38,116.08Z"/><path class="cls-17" d="M115.37,116.08h-.1a.44.44,0,0,1-.32-.53l22.39-91.42a.44.44,0,1,1,.85.2L115.8,115.74A.44.44,0,0,1,115.37,116.08Z"/><path class="cls-18" d="M115.37,116.08a.3.3,0,0,1-.13,0,.43.43,0,0,1-.28-.55L151.55,6.25A.44.44,0,0,1,152.1,6a.44.44,0,0,1,.28.56L115.79,115.78A.43.43,0,0,1,115.37,116.08Z"/><path class="cls-19" d="M115.37,116.08a.35.35,0,0,1-.17,0,.43.43,0,0,1-.23-.57L152.15,29a.44.44,0,0,1,.81.35l-37.18,86.47A.46.46,0,0,1,115.37,116.08Z"/><path class="cls-20" d="M115.37,116.08a.35.35,0,0,1-.2,0,.42.42,0,0,1-.18-.59L169.12,13.71a.44.44,0,0,1,.59-.18.45.45,0,0,1,.18.6L115.76,115.85A.43.43,0,0,1,115.37,116.08Z"/><path class="cls-21" d="M115.37,116.08a.44.44,0,0,1-.37-.68l51-79.16a.44.44,0,0,1,.6-.13.43.43,0,0,1,.13.61l-50.95,79.16A.43.43,0,0,1,115.37,116.08Z"/><path class="cls-22" d="M115.37,116.08a.43.43,0,0,1-.26-.09.42.42,0,0,1-.08-.61L185.21,24a.44.44,0,1,1,.7.54l-70.19,91.4A.43.43,0,0,1,115.37,116.08Z"/><path class="cls-23" d="M115.37,116.08a.46.46,0,0,1-.29-.11.43.43,0,0,1,0-.62l63.32-69.68a.44.44,0,0,1,.62,0,.43.43,0,0,1,0,.62L115.7,115.94A.47.47,0,0,1,115.37,116.08Z"/><path class="cls-24" d="M115.37,116.08a.43.43,0,0,1-.32-.14.45.45,0,0,1,0-.62l84.32-78.58a.45.45,0,0,1,.62,0,.43.43,0,0,1,0,.62L115.67,116A.46.46,0,0,1,115.37,116.08Z"/><path class="cls-25" d="M115.37,116.08a.42.42,0,0,1-.34-.17.43.43,0,0,1,.07-.61l74-58.28a.44.44,0,0,1,.55.69l-74,58.28A.44.44,0,0,1,115.37,116.08Z"/><path class="cls-26" d="M115.37,116.08a.44.44,0,0,1-.24-.8l96.14-63.6a.44.44,0,0,1,.61.12.45.45,0,0,1-.12.61L115.62,116A.45.45,0,0,1,115.37,116.08Z"/><path class="cls-27" d="M115.37,116.08a.44.44,0,0,1-.21-.82L197.73,70a.44.44,0,0,1,.6.18.43.43,0,0,1-.17.59L115.58,116A.5.5,0,0,1,115.37,116.08Z"/><path class="cls-28" d="M115.37,116.08a.44.44,0,0,1-.4-.26.44.44,0,0,1,.23-.58L220.52,68.36a.45.45,0,0,1,.58.23.44.44,0,0,1-.22.58L115.55,116.05A.52.52,0,0,1,115.37,116.08Z"/><path class="cls-29" d="M115.37,116.08a.43.43,0,0,1-.41-.29.44.44,0,0,1,.27-.56l88.92-31a.44.44,0,0,1,.29.83l-88.92,31A.4.4,0,0,1,115.37,116.08Z"/><path class="cls-30" d="M115.37,116.08a.44.44,0,0,1-.11-.86L226.89,86.35a.44.44,0,0,1,.53.31.44.44,0,0,1-.31.54L115.48,116.07Z"/><path class="cls-31" d="M115.37,116.08a.44.44,0,0,1-.07-.87l92.83-16a.44.44,0,0,1,.5.35.44.44,0,0,1-.35.51l-92.83,16Z"/><path class="cls-32" d="M115.37,116.08a.43.43,0,0,1-.43-.4.43.43,0,0,1,.4-.47L230.2,105.14a.44.44,0,1,1,.07.87L115.41,116.08Z"/><path class="cls-33" d="M115.37,116.08a.44.44,0,0,1,0-.88l94.19-.44h0a.44.44,0,0,1,0,.88l-94.2.44Z"/><path class="cls-34" d="M230.32,125.09h0l-114.95-9a.44.44,0,0,1-.4-.47.43.43,0,0,1,.47-.4l115,9a.44.44,0,0,1,.4.47A.45.45,0,0,1,230.32,125.09Z"/><path class="cls-35" d="M208.35,131.18h-.08l-93-15.1a.44.44,0,1,1,.14-.86l93,15.1a.43.43,0,0,1,.36.5A.44.44,0,0,1,208.35,131.18Z"/><path class="cls-36" d="M227.26,143.92l-.11,0L115.27,116.07a.44.44,0,1,1,.21-.85l111.89,27.83a.44.44,0,0,1-.11.87Z"/><path class="cls-37" d="M204.58,146.3l-.14,0-89.21-30.22a.44.44,0,0,1,.28-.84l89.21,30.23a.44.44,0,0,1-.14.85Z"/><path class="cls-38" d="M221.13,162a.57.57,0,0,1-.18,0L115.2,116.05a.44.44,0,0,1,.35-.81l105.75,45.9a.44.44,0,0,1-.17.84Z"/><path class="cls-39" d="M198.36,160.59a.35.35,0,0,1-.2-.05l-83-44.51a.44.44,0,0,1,.42-.78l83,44.52a.42.42,0,0,1,.18.59A.43.43,0,0,1,198.36,160.59Z"/><path class="cls-40" d="M212.1,178.79a.42.42,0,0,1-.24-.07L115.14,116a.43.43,0,1,1,.47-.73L212.34,178a.44.44,0,0,1-.24.81Z"/><path class="cls-41" d="M189.87,173.67a.43.43,0,0,1-.26-.09L115.1,116a.44.44,0,0,1,.54-.7l74.5,57.59a.44.44,0,0,1,.08.62A.43.43,0,0,1,189.87,173.67Z"/><path class="cls-42" d="M200.42,193.88a.44.44,0,0,1-.3-.12l-85-77.79a.44.44,0,0,1,.59-.65l85.05,77.8a.44.44,0,0,1,0,.62A.43.43,0,0,1,200.42,193.88Z"/><path class="cls-43" d="M179.34,185.16A.47.47,0,0,1,179,185l-64-69.08a.45.45,0,0,1,0-.62.43.43,0,0,1,.62,0l64,69.09a.44.44,0,0,1,0,.62A.46.46,0,0,1,179.34,185.16Z"/><path class="cls-44" d="M186.41,206.83a.44.44,0,0,1-.35-.16l-71-90.76a.43.43,0,0,1,.07-.61.44.44,0,0,1,.62.07l71,90.75a.44.44,0,0,1-.07.62A.46.46,0,0,1,186.41,206.83Z"/><path class="cls-45" d="M167.06,194.76a.45.45,0,0,1-.37-.2L115,115.88a.44.44,0,0,1,.12-.61.45.45,0,0,1,.61.13l51.69,78.68a.45.45,0,0,1-.13.61A.42.42,0,0,1,167.06,194.76Z"/><path class="cls-46" d="M170.45,217.3a.43.43,0,0,1-.39-.23L115,115.85a.43.43,0,0,1,.17-.59.44.44,0,0,1,.6.17l55.07,101.22a.44.44,0,0,1-.17.6A.54.54,0,0,1,170.45,217.3Z"/><path class="cls-47" d="M153.36,202.21a.46.46,0,0,1-.41-.27l-38-86.12a.44.44,0,0,1,.23-.58.43.43,0,0,1,.57.22l38,86.13a.44.44,0,0,1-.23.58A.47.47,0,0,1,153.36,202.21Z"/><path class="cls-48" d="M153,225a.43.43,0,0,1-.42-.29L115,115.79a.44.44,0,1,1,.83-.29l37.6,108.91a.44.44,0,0,1-.27.56A.36.36,0,0,1,153,225Z"/><path class="cls-49" d="M138.61,207.29a.44.44,0,0,1-.42-.33L115,115.75a.43.43,0,0,1,.31-.53.44.44,0,0,1,.54.31L139,206.74a.43.43,0,0,1-.32.53Z"/><path class="cls-50" d="M134.47,229.7a.44.44,0,0,1-.43-.37l-19.1-113.61a.44.44,0,1,1,.87-.15l19.1,113.62a.43.43,0,0,1-.36.5Z"/><path class="cls-51" d="M123.23,209.87a.44.44,0,0,1-.44-.4l-7.86-93.79a.44.44,0,0,1,.88-.08l7.86,93.79a.44.44,0,0,1-.4.48Z"/><path class="cls-52" d="M115.45,231.29a.44.44,0,0,1-.44-.44l-.07-115.21a.43.43,0,0,1,.43-.43h0a.43.43,0,0,1,.44.43l.08,115.21a.44.44,0,0,1-.44.44Z"/><path class="cls-53" d="M107.64,209.88h0a.44.44,0,0,1-.4-.47l7.73-93.81a.45.45,0,0,1,.48-.4.45.45,0,0,1,.4.48l-7.74,93.8A.43.43,0,0,1,107.64,209.88Z"/><path class="cls-54" d="M96.42,229.73h-.07a.44.44,0,0,1-.36-.5l19-113.65a.44.44,0,0,1,.87.15l-19,113.64A.45.45,0,0,1,96.42,229.73Z"/><path class="cls-55" d="M92.25,207.32h-.11a.44.44,0,0,1-.31-.54L115,115.53a.43.43,0,0,1,.53-.31.43.43,0,0,1,.32.53L92.68,207A.44.44,0,0,1,92.25,207.32Z"/><path class="cls-56" d="M77.92,225a.39.39,0,0,1-.15,0,.45.45,0,0,1-.27-.56L115,115.5a.44.44,0,0,1,.83.29l-37.46,109A.43.43,0,0,1,77.92,225Z"/><path class="cls-57" d="M77.5,202.26a.47.47,0,0,1-.17,0,.44.44,0,0,1-.23-.58L115,115.46a.44.44,0,0,1,.8.36L77.9,202A.43.43,0,0,1,77.5,202.26Z"/><path class="cls-58" d="M60.44,217.37a.38.38,0,0,1-.21-.05.43.43,0,0,1-.18-.59L115,115.44a.44.44,0,1,1,.77.41L60.82,217.14A.43.43,0,0,1,60.44,217.37Z"/><path class="cls-59" d="M63.79,194.83a.42.42,0,0,1-.24-.07.45.45,0,0,1-.13-.61L115,115.4a.45.45,0,0,1,.61-.13.44.44,0,0,1,.13.61L64.16,194.63A.45.45,0,0,1,63.79,194.83Z"/><path class="cls-60" d="M44.46,206.93a.46.46,0,0,1-.27-.09.44.44,0,0,1-.07-.62L115,115.37a.43.43,0,0,1,.61-.07.42.42,0,0,1,.08.61L44.81,206.76A.46.46,0,0,1,44.46,206.93Z"/><path class="cls-61" d="M51.49,185.25a.46.46,0,0,1-.3-.12.45.45,0,0,1,0-.62l63.88-69.17a.43.43,0,0,1,.62,0,.44.44,0,0,1,0,.62L51.82,185.11A.47.47,0,0,1,51.49,185.25Z"/><path class="cls-62" d="M30.43,194a.47.47,0,0,1-.32-.14.44.44,0,0,1,0-.62l84.94-77.91a.44.44,0,1,1,.59.65L30.73,193.88A.46.46,0,0,1,30.43,194Z"/><path class="cls-63" d="M41,173.77a.46.46,0,0,1-.35-.17.43.43,0,0,1,.08-.62l74.42-57.69a.45.45,0,0,1,.62.08.44.44,0,0,1-.08.62L41.21,173.67A.39.39,0,0,1,41,173.77Z"/><path class="cls-64" d="M18.73,178.92a.45.45,0,0,1-.37-.2.45.45,0,0,1,.13-.61l96.64-62.83a.43.43,0,0,1,.61.13.42.42,0,0,1-.13.6L19,178.85A.4.4,0,0,1,18.73,178.92Z"/><path class="cls-65" d="M32.44,160.7a.43.43,0,0,1-.39-.23.44.44,0,0,1,.18-.59l82.93-44.63a.44.44,0,1,1,.42.78L32.65,160.65A.41.41,0,0,1,32.44,160.7Z"/><path class="cls-66" d="M9.68,162.12a.44.44,0,0,1-.17-.84l105.69-46a.44.44,0,0,1,.35.81l-105.69,46A.57.57,0,0,1,9.68,162.12Z"/><path class="cls-67" d="M26.21,146.42a.44.44,0,0,1-.14-.86l89.16-30.33a.44.44,0,0,1,.56.27.44.44,0,0,1-.28.56L26.35,146.4Z"/><path class="cls-68" d="M3.53,144.07a.45.45,0,0,1-.43-.34.44.44,0,0,1,.32-.53l111.85-28a.44.44,0,1,1,.21.85l-111.85,28Z"/><path class="cls-69" d="M22.42,131.3a.44.44,0,0,1-.07-.87l92.95-15.22a.44.44,0,1,1,.14.86L22.49,131.3Z"/><path class="cls-70" d="M.44,125.24a.44.44,0,0,1,0-.88l114.94-9.15a.44.44,0,0,1,.07.87L.47,125.24Z"/><path class="cls-71" d="M115.37,116.08h0l-94.19-.31a.44.44,0,0,1-.44-.44.44.44,0,0,1,.44-.44h0l94.19.31a.44.44,0,0,1,.44.44A.44.44,0,0,1,115.37,116.08Z"/><path class="cls-72" d="M115.38,116.08h0L.46,106.16a.42.42,0,0,1-.39-.47.44.44,0,0,1,.47-.4l114.87,9.92a.44.44,0,0,1,0,.87Z"/><path class="cls-73" d="M115.37,116.08h-.07L22.45,100.23a.43.43,0,0,1-.36-.5.44.44,0,0,1,.51-.36l92.85,15.84a.44.44,0,0,1,.36.5A.45.45,0,0,1,115.37,116.08Z"/><path class="cls-74" d="M115.37,116.08h-.1L3.61,87.35a.44.44,0,0,1-.32-.54.43.43,0,0,1,.53-.31l111.66,28.72a.44.44,0,0,1-.11.86Z"/><path class="cls-75" d="M115.37,116.08l-.14,0-89-30.94a.43.43,0,0,1-.27-.55.44.44,0,0,1,.56-.27l89,30.93a.43.43,0,0,1,.27.55A.45.45,0,0,1,115.37,116.08Z"/><path class="cls-76" d="M115.37,116.08a.47.47,0,0,1-.17,0L9.81,69.31a.44.44,0,0,1-.22-.58.45.45,0,0,1,.58-.23l105.38,46.74a.45.45,0,0,1,.23.58A.45.45,0,0,1,115.37,116.08Z"/><path class="cls-77" d="M115.37,116.08a.54.54,0,0,1-.21,0L32.53,70.85a.43.43,0,0,1-.18-.59.45.45,0,0,1,.6-.18l82.63,45.18a.44.44,0,0,1-.21.82Z"/><path class="cls-78" d="M115.37,116.08a.44.44,0,0,1-.24-.07L18.91,52.54a.44.44,0,0,1,.48-.74l96.23,63.48a.44.44,0,0,1-.25.8Z"/><path class="cls-79" d="M115.37,116.08a.46.46,0,0,1-.27-.09l-74-58.18a.44.44,0,0,1-.07-.62.43.43,0,0,1,.61-.07l74,58.18a.43.43,0,0,1,.08.61A.46.46,0,0,1,115.37,116.08Z"/><path class="cls-80" d="M115.37,116.08a.46.46,0,0,1-.29-.11L30.65,37.5a.45.45,0,0,1,0-.62.44.44,0,0,1,.62,0l84.42,78.47a.44.44,0,0,1,0,.62A.43.43,0,0,1,115.37,116.08Z"/><g class="cls-81"><path class="cls-82" d="M56.68,227.32a74.05,74.05,0,0,1-9.9-.65c-11.84-1.61-21.59-6.17-29-13.54S5.89,196,4.27,184.2C2.72,172.8,4,160,7.92,146c8.17-28.63,27-58.73,53-84.74s56.15-44.82,84.81-53c14-4,26.82-5.2,38.22-3.65,11.85,1.62,21.59,6.17,29,13.54s11.94,17.11,13.55,28.94c1.55,11.39.33,24.24-3.65,38.19-8.17,28.64-27,58.73-53,84.74S113.66,214.86,85,223A104.07,104.07,0,0,1,56.68,227.32ZM174.08,4.85A103.11,103.11,0,0,0,146,9.12C117.48,17.24,87.5,36,61.57,61.88c-53.45,53.41-72.8,121-43.13,150.63,7.24,7.23,16.81,11.7,28.46,13.29,11.28,1.54,24,.32,37.86-3.63,28.52-8.12,58.5-26.85,84.43-52.76s44.68-55.86,52.8-84.36c3.95-13.83,5.17-26.56,3.63-37.83C224,35.58,219.56,26,212.32,18.78S195.51,7.08,183.87,5.49A74.09,74.09,0,0,0,174.08,4.85Z"/></g><ellipse class="cls-83" cx="115.38" cy="115.65" rx="80.25" ry="80.18"/><path class="cls-84" d="M115.29,196.27c-2.6,0-5.23-.13-7.82-.38l.09-.87a80.55,80.55,0,0,0,11.63.28l0,.88C117.93,196.24,116.6,196.27,115.29,196.27Zm5.12-.16-.06-.87,1.17-.09.06.88Zm2.35-.18-.08-.87a80.38,80.38,0,0,0,11.48-1.9l.2.86A82.05,82.05,0,0,1,122.76,195.93Zm-16.46-.16-1.17-.14.11-.87,1.16.14Zm-2.33-.3A80.85,80.85,0,0,1,92.46,193l.25-.84a80.43,80.43,0,0,0,11.38,2.48Zm31.54-1.74-.22-.85,1.12-.29.23.84C136.27,193.54,135.89,193.64,135.51,193.73Zm2.27-.61-.24-.85a79.66,79.66,0,0,0,10.91-4l.36.8A81.44,81.44,0,0,1,137.78,193.12Zm-46.45-.49-1.12-.36.27-.84,1.12.36Zm-2.24-.74a80.5,80.5,0,0,1-10.81-4.64l.4-.78a78.86,78.86,0,0,0,10.7,4.59Zm60.79-3.34-.37-.79,1-.51.39.79Zm2.11-1-.4-.79a79.94,79.94,0,0,0,9.95-6l.51.71A81.81,81.81,0,0,1,152,187.52Zm-74.76-.82c-.34-.19-.69-.37-1-.57l.43-.76,1,.56Zm-2.06-1.15A81.6,81.6,0,0,1,65.43,179l.54-.69a81.1,81.1,0,0,0,9.64,6.52Zm87.83-4.8-.52-.71.93-.7.53.7Zm1.87-1.42-.54-.69a80.81,80.81,0,0,0,8.64-7.79l.64.61A81.51,81.51,0,0,1,164.87,179.33Zm-100.36-1.1-.91-.75.57-.67.9.74Zm-1.8-1.51a81.59,81.59,0,0,1-8.33-8.3l.66-.58a78.85,78.85,0,0,0,8.24,8.21Zm111.71-6.12-.65-.59.79-.86.65.59Zm1.57-1.74-.66-.58a79.83,79.83,0,0,0,7-9.27l.74.48A80.73,80.73,0,0,1,176,168.86ZM53.61,167.53l-.75-.91.68-.55.74.89Zm-1.49-1.82A81.42,81.42,0,0,1,45.51,156l.76-.44a78.84,78.84,0,0,0,6.54,9.6Zm131.61-7.21L183,158c.21-.33.41-.66.61-1l.75.45C184.15,157.83,183.94,158.16,183.73,158.5Zm1.23-2-.76-.44a80.2,80.2,0,0,0,5.16-10.43l.81.33A80,80,0,0,1,185,156.48Zm-140-1.5c-.2-.34-.38-.69-.57-1l.77-.42.56,1Zm-1.12-2.07a79.81,79.81,0,0,1-4.66-10.79l.83-.29a79.44,79.44,0,0,0,4.61,10.68Zm146.8-8.06-.82-.32.42-1.09.82.3Zm.82-2.21-.83-.3a79.54,79.54,0,0,0,3.09-11.21l.86.17A78.7,78.7,0,0,1,191.43,142.64ZM38.77,141l-.36-1.12.84-.27c.11.37.23.74.35,1.11Zm-.71-2.25a81.29,81.29,0,0,1-2.52-11.48l.87-.12a78.43,78.43,0,0,0,2.5,11.35Zm156.71-8.62-.86-.16c.07-.38.13-.76.2-1.14l.86.14C194.91,129.37,194.84,129.75,194.77,130.14Zm.39-2.32-.87-.13a80.23,80.23,0,0,0,.9-11.59h.88A80.5,80.5,0,0,1,195.16,127.82Zm-159.78-1.7L35.23,125l.88-.1c0,.38.09.77.14,1.15Zm-.27-2.34c-.07-.62-.12-1.25-.17-1.88-.17-2.11-.25-4.24-.25-6.34,0-1.8.06-3.62.18-5.41l.88.06c-.12,1.77-.18,3.57-.18,5.35,0,2.08.08,4.19.24,6.27,0,.62.11,1.25.17,1.86Zm160.08-8.85c0-.39,0-.77,0-1.16l.88,0c0,.39,0,.78,0,1.17Zm-.06-2.33c0-1-.1-2.09-.18-3.14a81.25,81.25,0,0,0-1.1-8.41l.86-.16a80.3,80.3,0,0,1,1.11,8.5c.09,1.06.15,2.13.19,3.18ZM35.84,109.05,35,109c0-.39.07-.78.1-1.17l.88.09C35.9,108.27,35.87,108.66,35.84,109.05Zm.22-2.32-.87-.1a80.86,80.86,0,0,1,2.15-11.56l.85.22A80.59,80.59,0,0,0,36.06,106.73Zm157.57-6.82q-.12-.59-.24-1.14l.86-.19.24,1.15Zm-.49-2.28a79.75,79.75,0,0,0-3.44-11.11l.82-.32A81.45,81.45,0,0,1,194,97.43ZM38.5,94.16l-.84-.23c.1-.38.21-.76.32-1.14l.84.25C38.71,93.42,38.61,93.79,38.5,94.16Zm.66-2.23-.83-.27a80.16,80.16,0,0,1,4.31-10.94l.79.38A81.73,81.73,0,0,0,39.16,91.93Zm150.11-6.49-.45-1.07.81-.34.45,1.08Zm-.92-2.14a78.67,78.67,0,0,0-5.48-10.24l.74-.47A79.9,79.9,0,0,1,189.16,83ZM44,80.06l-.79-.39q.27-.54.54-1l.78.4C44.3,79.36,44.12,79.71,44,80.06ZM45,78l-.77-.42a81.43,81.43,0,0,1,6.3-9.92l.71.52A79.83,79.83,0,0,0,45,78Zm137.22-5.91c-.21-.32-.42-.65-.64-1l.73-.49.65,1Zm-1.3-1.92a78.37,78.37,0,0,0-7.32-9l.64-.6a83,83,0,0,1,7.41,9.13ZM52,67.24l-.7-.53.72-.93.69.54C52.43,66.63,52.19,66.93,52,67.24Zm1.44-1.83-.68-.55a80.51,80.51,0,0,1,8.05-8.57l.6.65A80.76,80.76,0,0,0,53.4,65.41Zm119.42-5.13-.81-.83.62-.62.82.84Zm-1.64-1.65a80.52,80.52,0,0,0-8.89-7.5l.52-.71a82.19,82.19,0,0,1,9,7.58Zm-109-2.47-.59-.66.88-.77.58.66ZM64,54.63,63.42,54a80.67,80.67,0,0,1,9.52-6.9l.46.75A79.74,79.74,0,0,0,64,54.63Zm97.36-4.18-1-.66.5-.73,1,.67Zm-1.92-1.31a79.61,79.61,0,0,0-10.15-5.7l.38-.8a79.38,79.38,0,0,1,10.25,5.77Zm-85-1.94-.45-.75,1-.6.44.76Zm2-1.16L76,45.27a80,80,0,0,1,10.66-5l.31.82A78.85,78.85,0,0,0,76.4,46ZM148.21,43l-1.06-.48.35-.8,1.08.48ZM146.07,42a79.46,79.46,0,0,0-11-3.69l.22-.85a81.64,81.64,0,0,1,11.16,3.73ZM88,40.71l-.3-.83,1.11-.39.29.83Zm2.2-.76L90,39.11a82.46,82.46,0,0,1,11.41-2.87l.15.87A79.24,79.24,0,0,0,90.23,40Zm43.67-1.89-1.14-.27.19-.85,1.15.26Zm-2.29-.51A78.26,78.26,0,0,0,120.08,36l0-.88a81.62,81.62,0,0,1,11.66,1.54Zm-29-.63-.14-.87,1.17-.18.12.87Zm2.31-.34-.12-.87c1.41-.18,2.85-.33,4.27-.44,2.49-.2,5-.28,7.48-.24v.88c-2.45,0-4.94,0-7.4.23C107.78,36.25,106.36,36.4,105,36.58ZM118.91,36l-1.16,0,0-.88,1.17.05Z"/><path class="cls-85" d="M115.37,186.29h-.85l0-.88h1.16v.88h-.33Zm-2,0-1.18,0,0-.88,1.16,0Zm5.3,0,0-.87a70.66,70.66,0,0,0,11.52-1.49l.19.86A70.31,70.31,0,0,1,118.65,186.21Zm-9.42-.19a70,70,0,0,1-11.6-2l.22-.85a69.15,69.15,0,0,0,11.46,2Zm24-2-.22-.85,1.13-.3.23.84Zm2.28-.63-.25-.84,1.11-.34.26.84Zm-40.67-.15-1.12-.36.26-.83,1.12.35Zm-2.25-.73-1.11-.39.29-.83,1.11.39Zm46.83-.41-.29-.82a70.34,70.34,0,0,0,10.56-4.84l.43.77A70.69,70.69,0,0,1,139.37,182.11Zm-50.7-1a71.35,71.35,0,0,1-10.49-5.34l.46-.75A70.12,70.12,0,0,0,89,180.26Zm63.93-5.35-.47-.75,1-.62.47.74Zm2-1.27-.49-.73,1-.66.5.73Zm-78.87-.33-1-.67.5-.71,1,.66Zm-1.93-1.35-1-.7.53-.71.94.7Zm84.15-.71-.53-.7a70,70,0,0,0,8.67-7.74l.64.61A70.89,70.89,0,0,1,157.93,172.06Zm-87.41-1.82a71.06,71.06,0,0,1-8.45-8.19l.67-.58a69.2,69.2,0,0,0,8.33,8.09Zm98.17-8.19-.66-.58.75-.88.68.56Zm1.52-1.8-.68-.56c.24-.3.49-.6.73-.91l.69.55Zm-110-.46c-.25-.3-.49-.61-.73-.92l.69-.54.72.91Zm-1.45-1.86-.69-1,.71-.51c.23.31.45.63.69.94Zm114-1-.71-.52a69.36,69.36,0,0,0,6-10l.79.39A71.19,71.19,0,0,1,172.72,157ZM56.37,154.57a71.66,71.66,0,0,1-5.65-10.31l.8-.36a70.83,70.83,0,0,0,5.58,10.18Zm123.68-10.34-.8-.36c.16-.35.31-.71.46-1.07l.81.35C180.37,143.51,180.21,143.87,180.05,144.23Zm.92-2.17-.81-.33c.14-.36.29-.73.42-1.09l.82.32C181.26,141.32,181.12,141.69,181,142.06Zm-131.38-.51c-.15-.37-.29-.73-.43-1.1l.83-.31c.13.36.27.73.41,1.09Zm-.83-2.21-.39-1.11.84-.28c.12.37.25.73.38,1.1Zm133.65-1.16-.84-.28a68.29,68.29,0,0,0,2.77-11.28l.87.14A71,71,0,0,1,182.41,138.18ZM47.49,135.42a70.42,70.42,0,0,1-2.33-11.52l.87-.11a69.9,69.9,0,0,0,2.31,11.39Zm138.12-11.58-.88-.1c.05-.38.09-.77.13-1.16l.87.09Zm.23-2.34-.88-.07.09-1.16.88,0Zm-141-.53c0-.39-.05-.79-.08-1.18l.88-.05c0,.39,0,.77.08,1.16Zm-.14-2.35,0-1.18.87,0c0,.39,0,.77,0,1.16Zm141.32-1.24-.88,0c0-.56,0-1.14,0-1.71a70.7,70.7,0,0,0-.69-9.88l.86-.12a70.8,70.8,0,0,1,.71,10C186.08,116.23,186.07,116.81,186.06,117.38Zm-140.5-1.73h-.88a71.57,71.57,0,0,1,1-11.72l.87.14A69.87,69.87,0,0,0,45.56,115.65ZM184,102.9c-.07-.38-.15-.76-.22-1.14l.86-.18c.07.39.15.77.22,1.16Zm-137-1.68L46.2,101c.08-.39.16-.77.25-1.15l.86.19C47.22,100.46,47.14,100.84,47.06,101.22Zm136.52-.6c-.09-.38-.17-.76-.26-1.13l.85-.21c.09.39.18.77.26,1.15ZM47.57,99l-.85-.21c.09-.38.19-.76.29-1.14l.85.22Zm135-2.28a70.43,70.43,0,0,0-4.08-10.87l.79-.38a69.94,69.94,0,0,1,4.13,11ZM48.66,95l-.84-.26a70.54,70.54,0,0,1,4.41-10.91l.78.39A70.23,70.23,0,0,0,48.66,95ZM177.21,83.21c-.18-.35-.37-.69-.55-1l.77-.42c.19.34.37.69.56,1ZM54.38,81.68l-.77-.42c.19-.35.39-.69.59-1l.76.44Zm121.71-.51c-.19-.33-.38-.67-.58-1l.76-.45.59,1ZM55.55,79.67l-.75-.46.62-1,.74.47C56,79,55.75,79.34,55.55,79.67ZM174,77.7a70.2,70.2,0,0,0-7.12-9.18l.65-.59a71.92,71.92,0,0,1,7.21,9.29ZM57.76,76.24,57,75.75a71.53,71.53,0,0,1,7.44-9.12l.63.61A71,71,0,0,0,57.76,76.24Zm107.09-9.82c-.27-.28-.55-.55-.83-.82l.62-.63.83.83ZM67.17,65.19l-.61-.64.86-.8.59.64Zm96-.39-.85-.79.59-.65.86.8ZM68.87,63.61,68.29,63l.88-.78.58.66Zm91.26-1.51a71.28,71.28,0,0,0-9.5-6.69l.44-.75a70.62,70.62,0,0,1,9.63,6.76ZM72,61l-.55-.69a71.18,71.18,0,0,1,9.79-6.52l.42.77A70,70,0,0,0,72,61Zm76.09-7c-.34-.18-.68-.36-1-.53l.4-.79,1.05.55ZM84.22,53.2l-.39-.79,1.06-.51.38.79ZM146,52.93l-1.06-.5.38-.79c.35.16.71.33,1.06.51ZM86.32,52.2,86,51.4,87,50.92l.35.8Zm56-1a69.31,69.31,0,0,0-11.07-3.56l.2-.86a71.09,71.09,0,0,1,11.21,3.61Zm-52.23-.64-.32-.81A70.23,70.23,0,0,1,101,46.46l.18.86A69.48,69.48,0,0,0,90.06,50.61Zm38.31-3.52-1.14-.21.15-.86,1.16.21Zm-24.31-.29-.14-.87,1.16-.18.13.87C104.83,46.67,104.44,46.73,104.06,46.8Zm22-.1-1.15-.17.12-.87,1.16.17Zm-19.72-.24-.11-.87,1.17-.14.1.87ZM122,46.2a70.46,70.46,0,0,0-11.62-.14l-.07-.88a73.42,73.42,0,0,1,11.77.14Z"/><ellipse class="cls-86" cx="18.16" cy="212.79" rx="6.87" ry="6.87"/><path class="cls-83" d="M1.21,180a2.94,2.94,0,1,1,2.93,2.94A2.93,2.93,0,0,1,1.21,180Z"/><path class="cls-87" d="M4.14,183.36A3.38,3.38,0,1,1,7.52,180,3.38,3.38,0,0,1,4.14,183.36Zm0-5.88a2.5,2.5,0,1,0,2.5,2.5A2.5,2.5,0,0,0,4.14,177.48Z"/><circle class="cls-88" cx="226.12" cy="47.13" r="2.94"/><path class="cls-83" d="M215.06,21l8.35-1.75-8.35-1.76,2.69-4.13-4.13,2.7L211.87,7.7l-1.76,8.35L206,13.35l2.7,4.13-8.36,1.76L208.68,21,206,25.12l4.13-2.7,1.76,8.35,1.75-8.35,4.13,2.7Z"/><path class="cls-89" d="M211.87,32.91l-2.05-9.77-5.35,3.49L208,21.29l-9.77-2.05L208,17.18l-3.49-5.34,5.35,3.49,2.05-9.76,2,9.76,5.35-3.49-3.49,5.34,9.77,2.06-9.77,2.05,3.49,5.34-5.35-3.49ZM210.41,21.7l1.46,6.93,1.45-6.93,2.92,1.91-1.9-2.92,6.93-1.45-6.93-1.46,1.9-2.92-2.92,1.91-1.45-6.93-1.46,6.93-2.92-1.91,1.91,2.92-6.94,1.46,6.94,1.45-1.91,2.92Z"/><g class="cls-90"><path class="cls-91" d="M115.38,177.87a62.23,62.23,0,1,1,62.27-62.22A62.31,62.31,0,0,1,115.38,177.87Zm0-123.57a61.35,61.35,0,1,0,61.4,61.35A61.44,61.44,0,0,0,115.38,54.3Z"/></g><polygon class="cls-83" points="69.47 90.89 69.47 140.52 83.19 115.58 69.47 90.89"/><polygon class="cls-83" points="69.84 142.37 114.35 168.04 99 142.37 69.84 142.37"/><polygon class="cls-83" points="99.33 89.8 70.42 89.8 114.27 114.58 99.33 89.8"/><polygon class="cls-83" points="115.04 167.76 115.04 116.86 99.65 142 115.04 167.76"/><polygon class="cls-83" points="114.25 116.74 70.42 141.63 99.01 141.63 114.25 116.74"/><polygon class="cls-83" points="114.37 63.23 69.59 89.06 99 89.06 114.37 63.23"/><path class="cls-83" d="M99.86,89.24,115,114.42V63.55L99.8,89.16A.16.16,0,0,1,99.86,89.24Z"/><polygon class="cls-83" points="114.23 115.9 83.86 115.9 70.06 140.98 114.23 115.9"/><polygon class="cls-83" points="70.07 90.45 83.81 115.15 113.78 115.15 70.07 90.45"/><polygon class="cls-83" points="131.75 141.63 160.34 141.63 116.48 116.69 131.75 141.63"/><polygon class="cls-83" points="116.46 168.07 161 142.37 131.7 142.37 116.46 168.07"/><polygon class="cls-83" points="161.25 89.06 116.44 63.2 131.7 89.06 161.25 89.06"/><polygon class="cls-83" points="161.38 140.54 161.38 90.86 147.7 115.48 161.38 140.54"/><path class="cls-83" d="M130.92,89.2,115.78,63.56v50.76L130.9,89.24S130.91,89.21,130.92,89.2Z"/><polygon class="cls-83" points="115.78 116.97 115.78 167.75 131.08 141.95 115.78 116.97"/><polygon class="cls-83" points="117.04 115.15 147.03 115.15 160.78 90.4 117.04 115.15"/><polygon class="cls-83" points="147.09 115.9 116.59 115.9 160.8 141.03 147.09 115.9"/><polygon class="cls-83" points="131.43 89.8 116.46 114.63 160.34 89.8 131.43 89.8"/><path class="cls-92" d="M161.93,88.6,115.61,61.87a.35.35,0,0,0-.37,0L68.91,88.59a.37.37,0,0,0-.19.33v.28a.54.54,0,0,0-.07.13.38.38,0,0,0,.07.33v52.11a.37.37,0,0,0-.07.32.61.61,0,0,0,.07.14v.14a.37.37,0,0,0,.19.32l46.24,26.68a.42.42,0,0,0,.26.1.35.35,0,0,0,.21-.06l46.31-26.72a.37.37,0,0,0,.19-.32V88.92A.35.35,0,0,0,161.93,88.6ZM114.37,63.23,99,89.06H69.59ZM83.86,115.9h30.37L70.06,141Zm0-.75L70.07,90.45l43.71,24.7Zm30.44,1.59L99,141.63H70.42ZM70.42,89.8H99.33l14.94,24.78Zm-1,1.09,13.72,24.68-13.72,25Zm.37,51.48H99l15.35,25.68ZM115,167.76,99.65,142,115,116.87Zm0-53.34L99.86,89.24a.16.16,0,0,0-.06-.08L115,63.55Zm46.21-25.36H131.7L116.44,63.2ZM116.59,115.9h30.5L160.8,141Zm43.75,25.73H131.75l-15.27-24.94Zm-43.88-27,15-24.83h28.91Zm30.58.52H117L160.78,90.4ZM115.78,63.56,130.92,89.2s0,0,0,0l-15.12,25.08Zm0,53.41,15.3,25-15.3,25.8Zm.68,51.1,15.24-25.7H161Zm44.92-27.53L147.7,115.48l13.68-24.62Z"/></g></g></svg>