<svg xmlns="http://www.w3.org/2000/svg" xmlns:xlink="http://www.w3.org/1999/xlink" viewBox="0 0 218.13 250.83"><defs><style>.cls-1{mask:url(#mask);filter:url(#luminosity-noclip-2);}.cls-2{mix-blend-mode:multiply;fill:url(#linear-gradient);}.cls-3{mask:url(#mask-2);}.cls-4{fill:url(#linear-gradient-2);}.cls-5{fill:url(#linear-gradient-3);}.cls-6{fill:url(#linear-gradient-4);}.cls-7{fill:url(#linear-gradient-5);}.cls-8{fill:url(#linear-gradient-6);}.cls-9{fill:url(#linear-gradient-7);}.cls-10{fill:url(#linear-gradient-8);}.cls-11{fill:url(#linear-gradient-9);}.cls-12{fill:url(#linear-gradient-10);}.cls-13{fill:url(#linear-gradient-11);}.cls-14{fill:url(#linear-gradient-12);}.cls-15{fill:url(#linear-gradient-13);}.cls-16{fill:url(#linear-gradient-14);}.cls-17{fill:url(#linear-gradient-15);}.cls-18{fill:url(#linear-gradient-16);}.cls-19{fill:url(#linear-gradient-17);}.cls-20{fill:url(#linear-gradient-18);}.cls-21{fill:url(#linear-gradient-19);}.cls-22{fill:url(#linear-gradient-20);}.cls-23{fill:url(#linear-gradient-21);}.cls-24{fill:url(#linear-gradient-22);}.cls-25{fill:url(#linear-gradient-23);}.cls-26{fill:url(#linear-gradient-24);}.cls-27{fill:url(#linear-gradient-25);}.cls-28{fill:url(#linear-gradient-26);}.cls-29{fill:url(#linear-gradient-27);}.cls-30{fill:url(#linear-gradient-28);}.cls-31{fill:url(#linear-gradient-29);}.cls-32{fill:url(#linear-gradient-30);}.cls-33{fill:url(#linear-gradient-31);}.cls-34{fill:url(#linear-gradient-32);}.cls-35{fill:url(#linear-gradient-33);}.cls-36{fill:url(#linear-gradient-34);}.cls-37{fill:url(#linear-gradient-35);}.cls-38{fill:url(#linear-gradient-36);}.cls-39{fill:url(#linear-gradient-37);}.cls-40{fill:url(#linear-gradient-38);}.cls-41{fill:url(#linear-gradient-39);}.cls-42{fill:url(#linear-gradient-40);}.cls-43{fill:url(#linear-gradient-41);}.cls-44{fill:url(#linear-gradient-42);}.cls-45{fill:url(#linear-gradient-43);}.cls-46{fill:url(#linear-gradient-44);}.cls-47{fill:url(#linear-gradient-45);}.cls-48{fill:url(#linear-gradient-46);}.cls-49{fill:url(#linear-gradient-47);}.cls-50{fill:url(#linear-gradient-48);}.cls-51{fill:url(#linear-gradient-49);}.cls-52{fill:url(#linear-gradient-50);}.cls-53{fill:url(#linear-gradient-51);}.cls-54{fill:url(#linear-gradient-52);}.cls-55{fill:url(#linear-gradient-53);}.cls-56{fill:url(#linear-gradient-54);}.cls-57{fill:url(#linear-gradient-55);}.cls-58{fill:url(#linear-gradient-56);}.cls-59{fill:url(#linear-gradient-57);}.cls-60{fill:url(#linear-gradient-58);}.cls-61{fill:url(#linear-gradient-59);}.cls-62{fill:url(#linear-gradient-60);}.cls-63{fill:url(#linear-gradient-61);}.cls-64{fill:url(#linear-gradient-62);}.cls-65{fill:url(#linear-gradient-63);}.cls-66{fill:url(#linear-gradient-64);}.cls-67{fill:url(#linear-gradient-65);}.cls-68{fill:url(#linear-gradient-66);}.cls-69{fill:url(#linear-gradient-67);}.cls-70{fill:url(#linear-gradient-68);}.cls-71{fill:url(#linear-gradient-69);}.cls-72{fill:url(#linear-gradient-70);}.cls-73{fill:url(#linear-gradient-71);}.cls-74{fill:url(#linear-gradient-72);}.cls-75{fill:url(#linear-gradient-73);}.cls-76{fill:url(#linear-gradient-74);}.cls-77{fill:url(#linear-gradient-75);}.cls-78{fill:url(#linear-gradient-76);}.cls-79{fill:url(#linear-gradient-77);}.cls-80{fill:url(#linear-gradient-78);}.cls-81{fill:url(#linear-gradient-79);}.cls-82{fill:url(#linear-gradient-80);}.cls-83{fill:#191919;}.cls-84{fill:url(#linear-gradient-81);}.cls-85{fill:url(#linear-gradient-82);}.cls-86{fill:url(#linear-gradient-83);}.cls-87{fill:url(#linear-gradient-84);}.cls-88{fill:url(#linear-gradient-85);}.cls-89{fill:url(#linear-gradient-86);}.cls-90{fill:url(#linear-gradient-87);}.cls-91{fill:url(#linear-gradient-88);}.cls-92{fill:#fff;}.cls-93{filter:url(#luminosity-noclip);}</style><filter id="luminosity-noclip" x="51.39" y="-8012.03" width="115.35" height="32766" filterUnits="userSpaceOnUse" color-interpolation-filters="sRGB"><feFlood flood-color="#fff" result="bg"/><feBlend in="SourceGraphic" in2="bg"/></filter><mask id="mask" x="51.39" y="-8012.03" width="115.35" height="32766" maskUnits="userSpaceOnUse"><g class="cls-93"/></mask><linearGradient id="linear-gradient" x1="165.29" y1="28.04" x2="52.85" y2="222.79" gradientUnits="userSpaceOnUse"><stop offset="0" stop-color="#fff"/><stop offset="0.54"/><stop offset="1" stop-color="#f1f1f1"/></linearGradient><filter id="luminosity-noclip-2" x="51.39" y="0" width="115.35" height="250.83" filterUnits="userSpaceOnUse" color-interpolation-filters="sRGB"><feFlood flood-color="#fff" result="bg"/><feBlend in="SourceGraphic" in2="bg"/></filter><mask id="mask-2" x="51.39" y="0" width="115.35" height="250.83" maskUnits="userSpaceOnUse"><g class="cls-1"><path class="cls-2" d="M109.07,250.83c-15.47,0-30-13.09-40.87-36.86s-16.81-55.11-16.81-88.56,6-64.89,16.81-88.55S93.6,0,109.07,0s30,13.09,40.87,36.86,16.8,55.11,16.8,88.55-6,64.9-16.8,88.56S124.54,250.83,109.07,250.83Zm0-249.95c-31.32,0-56.8,55.86-56.8,124.53S77.75,250,109.07,250s56.79-55.87,56.79-124.54S140.38.88,109.07.88Z"/></g></mask><linearGradient id="linear-gradient-2" x1="165.29" y1="28.04" x2="52.85" y2="222.79" gradientUnits="userSpaceOnUse"><stop offset="0" stop-color="#e2b673"/><stop offset="0.54"/><stop offset="1" stop-color="#d0a86b"/></linearGradient><linearGradient id="linear-gradient-3" x1="128.3" y1="103.02" x2="172.27" y2="103.02" gradientTransform="translate(-57.67 -5.87) rotate(2.28)" gradientUnits="userSpaceOnUse"><stop offset="0" stop-color="#e4c084"/><stop offset="0.07" stop-color="#ba9d6d"/><stop offset="0.16" stop-color="#877352"/><stop offset="0.26" stop-color="#5d503b"/><stop offset="0.35" stop-color="#3c3529"/><stop offset="0.44" stop-color="#25221c"/><stop offset="0.52" stop-color="#171615"/><stop offset="0.59" stop-color="#121212"/></linearGradient><linearGradient id="linear-gradient-4" x1="123.2" y1="96.11" x2="172.28" y2="96.11" xlink:href="#linear-gradient-3"/><linearGradient id="linear-gradient-5" x1="259.94" y1="91.28" x2="300.19" y2="91.28" gradientTransform="matrix(0.99, 0.12, -0.12, 0.99, -174.41, -24.92)" xlink:href="#linear-gradient-3"/><linearGradient id="linear-gradient-6" x1="377.21" y1="66.01" x2="426.28" y2="66.01" gradientTransform="translate(-288.54 -53.94) rotate(11.77)" xlink:href="#linear-gradient-3"/><linearGradient id="linear-gradient-7" x1="511.45" y1="40.21" x2="551.7" y2="40.21" gradientTransform="translate(-401.36 -92.2) rotate(16.52)" xlink:href="#linear-gradient-3"/><linearGradient id="linear-gradient-8" x1="623.89" y1="-6.21" x2="672.95" y2="-6.21" gradientTransform="matrix(0.93, 0.36, -0.36, 0.93, -509.56, -139.3)" xlink:href="#linear-gradient-3"/><linearGradient id="linear-gradient-9" x1="751.27" y1="-51.61" x2="791.51" y2="-51.61" gradientTransform="translate(-614.22 -196.14) rotate(26.02)" xlink:href="#linear-gradient-3"/><linearGradient id="linear-gradient-10" x1="855.64" y1="-117.46" x2="904.7" y2="-117.46" gradientTransform="translate(-713.39 -260.73) rotate(30.77)" xlink:href="#linear-gradient-3"/><linearGradient id="linear-gradient-11" x1="972.11" y1="-180.98" x2="1012.34" y2="-180.98" gradientTransform="translate(-806.14 -334.03) rotate(35.52)" xlink:href="#linear-gradient-3"/><linearGradient id="linear-gradient-12" x1="1063.93" y1="-264.7" x2="1112.97" y2="-264.7" gradientTransform="translate(-892.57 -413.35) rotate(40.26)" xlink:href="#linear-gradient-3"/><linearGradient id="linear-gradient-13" x1="1168.46" y1="-346.55" x2="1208.68" y2="-346.55" gradientTransform="translate(-973.7 -500.64) rotate(45.02)" xlink:href="#linear-gradient-3"/><linearGradient id="linear-gradient-14" x1="1247.2" y1="-445.88" x2="1296.24" y2="-445.88" gradientTransform="matrix(0.65, 0.76, -0.76, 0.65, -1046.54, -594.19)" xlink:href="#linear-gradient-3"/><linearGradient id="linear-gradient-15" x1="1335.23" y1="-540.94" x2="1375.45" y2="-540.94" gradientTransform="translate(-1110.61 -693.61) rotate(54.51)" xlink:href="#linear-gradient-3"/><linearGradient id="linear-gradient-16" x1="1396.92" y1="-653.73" x2="1445.96" y2="-653.73" gradientTransform="matrix(0.51, 0.86, -0.86, 0.51, -1167.14, -797.44)" xlink:href="#linear-gradient-3"/><linearGradient id="linear-gradient-17" x1="1466.94" y1="-761.51" x2="1507.16" y2="-761.51" gradientTransform="translate(-1214.78 -905.48) rotate(64.01)" xlink:href="#linear-gradient-3"/><linearGradient id="linear-gradient-18" x1="1509.83" y1="-884" x2="1558.86" y2="-884" gradientTransform="matrix(0.36, 0.93, -0.93, 0.36, -1252.98, -1017.24)" xlink:href="#linear-gradient-3"/><linearGradient id="linear-gradient-19" x1="1560.59" y1="-1000.01" x2="1600.81" y2="-1000.01" gradientTransform="translate(-1281.87 -1131.89) rotate(73.51)" xlink:href="#linear-gradient-3"/><linearGradient id="linear-gradient-20" x1="1584.15" y1="-1129.74" x2="1633.18" y2="-1129.74" gradientTransform="translate(-1301.43 -1249.11) rotate(78.26)" xlink:href="#linear-gradient-3"/><linearGradient id="linear-gradient-21" x1="1613.88" y1="-1250.66" x2="1654.1" y2="-1250.66" gradientTransform="matrix(0.12, 0.99, -0.99, 0.12, -1310.66, -1366.53)" xlink:href="#linear-gradient-3"/><linearGradient id="linear-gradient-22" x1="1616.8" y1="-1383.24" x2="1665.84" y2="-1383.24" gradientTransform="matrix(0.04, 1, -1, 0.04, -1309.88, -1485.56)" xlink:href="#linear-gradient-3"/><linearGradient id="linear-gradient-23" x1="1626.39" y1="-1506.71" x2="1666.62" y2="-1506.71" gradientTransform="translate(-1300.07 -1603.94) rotate(92.5)" xlink:href="#linear-gradient-3"/><linearGradient id="linear-gradient-24" x1="1606.48" y1="-1639.54" x2="1655.53" y2="-1639.54" gradientTransform="translate(-1280.21 -1719.76) rotate(97.25)" xlink:href="#linear-gradient-3"/><linearGradient id="linear-gradient-25" x1="1595" y1="-1760.83" x2="1635.24" y2="-1760.83" gradientTransform="translate(-1250.56 -1834.84) rotate(102)" xlink:href="#linear-gradient-3"/><linearGradient id="linear-gradient-26" x1="1554.29" y1="-1891.2" x2="1603.35" y2="-1891.2" gradientTransform="translate(-1212.7 -1946.38) rotate(106.75)" xlink:href="#linear-gradient-3"/><linearGradient id="linear-gradient-27" x1="1522.28" y1="-2007.44" x2="1562.53" y2="-2007.44" gradientTransform="translate(-1164.49 -2055.17) rotate(111.5)" xlink:href="#linear-gradient-3"/><linearGradient id="linear-gradient-28" x1="1461.59" y1="-2129.55" x2="1510.66" y2="-2129.55" gradientTransform="translate(-1107.54 -2158.21) rotate(116.24)" xlink:href="#linear-gradient-3"/><linearGradient id="linear-gradient-29" x1="1409.65" y1="-2238.03" x2="1449.9" y2="-2238.03" gradientTransform="matrix(-0.52, 0.86, -0.86, -0.52, -1042.94, -2257.68)" xlink:href="#linear-gradient-3"/><linearGradient id="linear-gradient-30" x1="1331" y1="-2350.8" x2="1380.07" y2="-2350.8" gradientTransform="matrix(-0.58, 0.81, -0.81, -0.58, -969.73, -2351.01)" xlink:href="#linear-gradient-3"/><linearGradient id="linear-gradient-31" x1="1260.5" y1="-2447.02" x2="1300.76" y2="-2447.02" gradientTransform="translate(-889.76 -2437.48) rotate(130.49)" xlink:href="#linear-gradient-3"/><linearGradient id="linear-gradient-32" x1="1165.19" y1="-2546.45" x2="1214.28" y2="-2546.45" gradientTransform="translate(-801.88 -2517.28) rotate(135.24)" xlink:href="#linear-gradient-3"/><linearGradient id="linear-gradient-33" x1="1079.43" y1="-2628.68" x2="1119.69" y2="-2628.68" gradientTransform="translate(-708.59 -2589.92) rotate(139.99)" xlink:href="#linear-gradient-3"/><linearGradient id="linear-gradient-34" x1="969.53" y1="-2711.71" x2="1018.62" y2="-2711.71" gradientTransform="matrix(-0.82, 0.58, -0.58, -0.82, -608.61, -2653.26)" xlink:href="#linear-gradient-3"/><linearGradient id="linear-gradient-35" x1="871.08" y1="-2776.91" x2="911.34" y2="-2776.91" gradientTransform="translate(-504.2 -2709.34) rotate(149.49)" xlink:href="#linear-gradient-3"/><linearGradient id="linear-gradient-36" x1="749.54" y1="-2843.63" x2="798.63" y2="-2843.63" gradientTransform="translate(-395.53 -2756.83) rotate(154.24)" xlink:href="#linear-gradient-3"/><linearGradient id="linear-gradient-37" x1="640.32" y1="-2889.71" x2="680.59" y2="-2889.71" gradientTransform="matrix(-0.93, 0.36, -0.36, -0.93, -283.91, -2794.35)" xlink:href="#linear-gradient-3"/><linearGradient id="linear-gradient-38" x1="509.88" y1="-2936.57" x2="558.96" y2="-2936.57" gradientTransform="translate(-169.29 -2822.84) rotate(163.73)" xlink:href="#linear-gradient-3"/><linearGradient id="linear-gradient-39" x1="394.66" y1="-2963.28" x2="434.92" y2="-2963.28" gradientTransform="translate(-51.99 -2842.26) rotate(168.49)" xlink:href="#linear-gradient-3"/><linearGradient id="linear-gradient-40" x1="259.63" y1="-2989.04" x2="308.72" y2="-2989.04" gradientTransform="translate(66.46 -2850.78) rotate(173.23)" xlink:href="#linear-gradient-3"/><linearGradient id="linear-gradient-41" x1="140.02" y1="-2994.49" x2="180.27" y2="-2994.49" gradientTransform="translate(184.23 -2850.4) rotate(177.98)" xlink:href="#linear-gradient-3"/><linearGradient id="linear-gradient-42" x1="2.92" y1="-2999.96" x2="52" y2="-2999.96" gradientTransform="translate(302.33 -2840.38) rotate(-177.27)" xlink:href="#linear-gradient-3"/><linearGradient id="linear-gradient-43" x1="-116.09" y1="-2983.56" x2="-75.83" y2="-2983.56" gradientTransform="translate(418.9 -2819.7) rotate(-172.52)" xlink:href="#linear-gradient-3"/><linearGradient id="linear-gradient-44" x1="-251.44" y1="-2967.03" x2="-202.37" y2="-2967.03" gradientTransform="translate(533.28 -2789.44) rotate(-167.77)" xlink:href="#linear-gradient-3"/><linearGradient id="linear-gradient-45" x1="-366.82" y1="-2930.21" x2="-326.57" y2="-2930.21" gradientTransform="translate(645.17 -2750.32) rotate(-163.02)" xlink:href="#linear-gradient-3"/><linearGradient id="linear-gradient-46" x1="-497.4" y1="-2893.83" x2="-448.34" y2="-2893.83" gradientTransform="translate(752.94 -2702.68) rotate(-158.27)" xlink:href="#linear-gradient-3"/><linearGradient id="linear-gradient-47" x1="-605.47" y1="-2836.33" x2="-565.23" y2="-2836.33" gradientTransform="translate(856.83 -2644.78) rotate(-153.52)" xlink:href="#linear-gradient-3"/><linearGradient id="linear-gradient-48" x1="-726.79" y1="-2780.39" x2="-677.74" y2="-2780.39" gradientTransform="matrix(-0.86, -0.52, 0.52, -0.86, 955.79, -2579.36)" xlink:href="#linear-gradient-3"/><linearGradient id="linear-gradient-49" x1="-825.71" y1="-2704.59" x2="-785.48" y2="-2704.59" gradientTransform="translate(1048.07 -2506.26) rotate(-144.03)" xlink:href="#linear-gradient-3"/><linearGradient id="linear-gradient-50" x1="-935.64" y1="-2630.81" x2="-886.6" y2="-2630.81" gradientTransform="translate(1134.58 -2425.64) rotate(-139.28)" xlink:href="#linear-gradient-3"/><linearGradient id="linear-gradient-51" x1="-1021.08" y1="-2538.32" x2="-980.85" y2="-2538.32" gradientTransform="matrix(-0.7, -0.71, 0.71, -0.7, 1213.91, -2337.99)" xlink:href="#linear-gradient-3"/><linearGradient id="linear-gradient-52" x1="-1115.82" y1="-2448.82" x2="-1066.78" y2="-2448.82" gradientTransform="matrix(-0.64, -0.77, 0.77, -0.64, 1286.34, -2243.31)" xlink:href="#linear-gradient-3"/><linearGradient id="linear-gradient-53" x1="-1185.56" y1="-2341.74" x2="-1145.34" y2="-2341.74" gradientTransform="matrix(-0.57, -0.82, 0.82, -0.57, 1349.79, -2143.58)" xlink:href="#linear-gradient-3"/><linearGradient id="linear-gradient-54" x1="-1264.64" y1="-2238.99" x2="-1215.61" y2="-2238.99" gradientTransform="matrix(-0.5, -0.86, 0.86, -0.5, 1404.63, -2039.42)" xlink:href="#linear-gradient-3"/><linearGradient id="linear-gradient-55" x1="-1315.81" y1="-2121.06" x2="-1275.59" y2="-2121.06" gradientTransform="matrix(-0.43, -0.9, 0.9, -0.43, 1451.98, -1930.12)" xlink:href="#linear-gradient-3"/><linearGradient id="linear-gradient-56" x1="-1376.41" y1="-2008.33" x2="-1327.38" y2="-2008.33" gradientTransform="translate(1488.83 -1818.63) rotate(-110.79)" xlink:href="#linear-gradient-3"/><linearGradient id="linear-gradient-57" x1="-1408.19" y1="-1882.17" x2="-1367.97" y2="-1882.17" gradientTransform="translate(1517.74 -1703.21) rotate(-106.03)" xlink:href="#linear-gradient-3"/><linearGradient id="linear-gradient-58" x1="-1448.23" y1="-1762.99" x2="-1399.19" y2="-1762.99" gradientTransform="translate(1536.23 -1586.66) rotate(-101.29)" xlink:href="#linear-gradient-3"/><linearGradient id="linear-gradient-59" x1="-1460.17" y1="-1630.47" x2="-1419.95" y2="-1630.47" gradientTransform="translate(1544.07 -1468.82) rotate(-96.54)" xlink:href="#linear-gradient-3"/><linearGradient id="linear-gradient-60" x1="-1478.41" y1="-1507.97" x2="-1429.36" y2="-1507.97" gradientTransform="translate(1543.25 -1349.84) rotate(-91.79)" xlink:href="#linear-gradient-3"/><linearGradient id="linear-gradient-61" x1="-1469.6" y1="-1374.37" x2="-1429.38" y2="-1374.37" gradientTransform="matrix(0.05, -1, 1, 0.05, 1532.22, -1232.84)" xlink:href="#linear-gradient-3"/><linearGradient id="linear-gradient-62" x1="-1467.15" y1="-1251.72" x2="-1418.1" y2="-1251.72" gradientTransform="translate(1511.55 -1116.34) rotate(-82.29)" xlink:href="#linear-gradient-3"/><linearGradient id="linear-gradient-63" x1="-1436.43" y1="-1120.2" x2="-1396.19" y2="-1120.2" gradientTransform="translate(1481.51 -1001.8) rotate(-77.54)" xlink:href="#linear-gradient-3"/><linearGradient id="linear-gradient-64" x1="-1412.25" y1="-1000.72" x2="-1363.19" y2="-1000.72" gradientTransform="translate(1441.14 -889.55) rotate(-72.79)" xlink:href="#linear-gradient-3"/><linearGradient id="linear-gradient-65" x1="-1361.47" y1="-875" x2="-1321.23" y2="-875" gradientTransform="translate(1393.25 -781.98) rotate(-68.04)" xlink:href="#linear-gradient-3"/><linearGradient id="linear-gradient-66" x1="-1317.43" y1="-762.76" x2="-1268.35" y2="-762.76" gradientTransform="translate(1335.22 -678.02) rotate(-63.29)" xlink:href="#linear-gradient-3"/><linearGradient id="linear-gradient-67" x1="-1247.52" y1="-645.17" x2="-1207.27" y2="-645.17" gradientTransform="translate(1269.83 -580.38) rotate(-58.55)" xlink:href="#linear-gradient-3"/><linearGradient id="linear-gradient-68" x1="-1184.77" y1="-542.9" x2="-1135.69" y2="-542.9" gradientTransform="translate(1195.18 -487.52) rotate(-53.8)" xlink:href="#linear-gradient-3"/><linearGradient id="linear-gradient-69" x1="-1097.05" y1="-437.31" x2="-1056.8" y2="-437.31" gradientTransform="matrix(0.66, -0.76, 0.76, 0.66, 1114.74, -401.76)" xlink:href="#linear-gradient-3"/><linearGradient id="linear-gradient-70" x1="-1017.77" y1="-348.91" x2="-968.68" y2="-348.91" gradientTransform="translate(1026.49 -322.09) rotate(-44.3)" xlink:href="#linear-gradient-3"/><linearGradient id="linear-gradient-71" x1="-914.38" y1="-256.79" x2="-874.12" y2="-256.79" gradientTransform="matrix(0.77, -0.64, 0.64, 0.77, 932.09, -251.47)" xlink:href="#linear-gradient-3"/><linearGradient id="linear-gradient-72" x1="-821.54" y1="-184.2" x2="-772.46" y2="-184.2" gradientTransform="translate(832.61 -187.89) rotate(-34.81)" xlink:href="#linear-gradient-3"/><linearGradient id="linear-gradient-73" x1="-704.2" y1="-110.47" x2="-663.93" y2="-110.47" gradientTransform="matrix(0.87, -0.5, 0.5, 0.87, 727.85, -131.82)" xlink:href="#linear-gradient-3"/><linearGradient id="linear-gradient-74" x1="-599.17" y1="-54.61" x2="-550.08" y2="-54.61" gradientTransform="translate(617.93 -86.25) rotate(-25.3)" xlink:href="#linear-gradient-3"/><linearGradient id="linear-gradient-75" x1="-472.55" y1="1.01" x2="-432.28" y2="1.01" gradientTransform="translate(505.73 -49.24) rotate(-20.56)" xlink:href="#linear-gradient-3"/><linearGradient id="linear-gradient-76" x1="-360.08" y1="36.07" x2="-310.99" y2="36.07" gradientTransform="matrix(0.96, -0.27, 0.27, 0.96, 391.17, -21.52)" xlink:href="#linear-gradient-3"/><linearGradient id="linear-gradient-77" x1="-226.22" y1="72.14" x2="-185.96" y2="72.14" gradientTransform="translate(273.72 -3.96) rotate(-11.06)" xlink:href="#linear-gradient-3"/><linearGradient id="linear-gradient-78" x1="-108.26" y1="87.08" x2="-59.17" y2="87.08" gradientTransform="translate(155.64 4.03) rotate(-6.31)" xlink:href="#linear-gradient-3"/><linearGradient id="linear-gradient-79" x1="34.06" y1="125.41" x2="184.07" y2="125.41" gradientUnits="userSpaceOnUse"><stop offset="0" stop-color="#b68d5d"/><stop offset="0.07" stop-color="#bd9463"/><stop offset="0.51" stop-color="#e4c084"/><stop offset="1" stop-color="#b68d5d"/></linearGradient><linearGradient id="linear-gradient-80" x1="3.64" y1="125.41" x2="214.49" y2="125.41" xlink:href="#linear-gradient-79"/><linearGradient id="linear-gradient-81" x1="91.52" y1="21.59" x2="126.62" y2="21.59" xlink:href="#linear-gradient-79"/><linearGradient id="linear-gradient-82" x1="91.52" y1="229.24" x2="126.62" y2="229.24" xlink:href="#linear-gradient-79"/><linearGradient id="linear-gradient-83" x1="2010.46" y1="-2381.8" x2="2019.87" y2="-2381.8" gradientTransform="translate(-555.58 -2979.78) rotate(126.07)" xlink:href="#linear-gradient-79"/><linearGradient id="linear-gradient-84" x1="210.41" y1="125.41" x2="218.13" y2="125.41" xlink:href="#linear-gradient-79"/><linearGradient id="linear-gradient-85" x1="-680.27" y1="-3028.13" x2="-672.55" y2="-3028.13" gradientTransform="translate(-672.55 -2902.71) rotate(180)" xlink:href="#linear-gradient-79"/><linearGradient id="linear-gradient-86" x1="-190.57" y1="-2740.22" x2="-181.15" y2="-2740.22" gradientTransform="translate(1646.24 -2124.75) rotate(-143.93)" xlink:href="#linear-gradient-79"/><linearGradient id="linear-gradient-87" x1="-549.07" y1="-539.29" x2="-539.65" y2="-539.29" gradientTransform="translate(791.21 77.07) rotate(-53.93)" xlink:href="#linear-gradient-79"/><linearGradient id="linear-gradient-88" x1="1651.93" y1="-180.7" x2="1661.35" y2="-180.7" gradientTransform="translate(-1410.61 -777.97) rotate(36.07)" xlink:href="#linear-gradient-79"/></defs><g id="레이어_2" data-name="레이어 2"><g id="레이어_1-2" data-name="레이어 1"><g class="cls-3"><path class="cls-4" d="M109.07,250.83c-15.47,0-30-13.09-40.87-36.86s-16.81-55.11-16.81-88.56,6-64.89,16.81-88.55S93.6,0,109.07,0s30,13.09,40.87,36.86,16.8,55.11,16.8,88.55-6,64.9-16.8,88.56S124.54,250.83,109.07,250.83Zm0-249.95c-31.32,0-56.8,55.86-56.8,124.53S77.75,250,109.07,250s56.79-55.87,56.79-124.54S140.38.88,109.07.88Z"/></g><path class="cls-5" d="M109.09,125.84a.47.47,0,0,1-.33-.14L67.42,81a.43.43,0,0,1,0-.62.44.44,0,0,1,.62,0l41.35,44.73a.45.45,0,0,1,0,.62A.46.46,0,0,1,109.09,125.84Z"/><path class="cls-6" d="M109.09,125.84a.46.46,0,0,1-.35-.17L62.84,66.91a.43.43,0,0,1,.07-.61.44.44,0,0,1,.62.07l45.91,58.76a.45.45,0,0,1-.08.62A.46.46,0,0,1,109.09,125.84Z"/><path class="cls-7" d="M109.09,125.84a.43.43,0,0,1-.37-.2L75.32,74.7a.44.44,0,0,1,.74-.48l33.4,50.94a.45.45,0,0,1-.13.61A.44.44,0,0,1,109.09,125.84Z"/><path class="cls-8" d="M109.09,125.84a.43.43,0,0,1-.39-.23L73.13,60.09a.44.44,0,0,1,.77-.42l35.58,65.52a.45.45,0,0,1-.18.6A.41.41,0,0,1,109.09,125.84Z"/><path class="cls-9" d="M109.09,125.84a.44.44,0,0,1-.4-.26L84.16,69.83a.44.44,0,0,1,.23-.58.42.42,0,0,1,.57.23l24.53,55.74a.43.43,0,0,1-.23.58A.33.33,0,0,1,109.09,125.84Z"/><path class="cls-10" d="M109.09,125.84a.45.45,0,0,1-.42-.29L84.41,55.06a.44.44,0,1,1,.83-.29l24.26,70.49a.44.44,0,0,1-.27.56Z"/><path class="cls-11" d="M109.09,125.84a.44.44,0,0,1-.43-.33l-15-59a.44.44,0,0,1,.85-.21l15,59a.44.44,0,0,1-.31.54Z"/><path class="cls-12" d="M109.09,125.84a.43.43,0,0,1-.43-.36L96.36,52a.44.44,0,0,1,.87-.14l12.29,73.52a.44.44,0,0,1-.36.51Z"/><path class="cls-13" d="M109.09,125.84a.44.44,0,0,1-.44-.4l-5-60.69a.44.44,0,1,1,.88-.07l5,60.68a.44.44,0,0,1-.41.48Z"/><path class="cls-14" d="M109.09,125.84h0a.44.44,0,0,1-.44-.44l0-74.54a.44.44,0,0,1,.44-.44h0a.44.44,0,0,1,.44.44l0,74.54A.44.44,0,0,1,109.09,125.84Z"/><path class="cls-15" d="M109.09,125.84h0a.44.44,0,0,1-.4-.48l5.06-60.68a.44.44,0,0,1,.88.07l-5.06,60.69A.44.44,0,0,1,109.09,125.84Z"/><path class="cls-16" d="M109.09,125.84H109a.44.44,0,0,1-.36-.51L121,51.81a.44.44,0,1,1,.87.15l-12.33,73.52A.43.43,0,0,1,109.09,125.84Z"/><path class="cls-17" d="M109.09,125.84H109a.44.44,0,0,1-.32-.54l15-59a.44.44,0,0,1,.54-.31.44.44,0,0,1,.32.53l-15,59A.44.44,0,0,1,109.09,125.84Z"/><path class="cls-18" d="M109.09,125.84l-.14,0a.44.44,0,0,1-.28-.56L133,54.78a.44.44,0,1,1,.83.29l-24.3,70.48A.43.43,0,0,1,109.09,125.84Z"/><path class="cls-19" d="M109.09,125.84a.39.39,0,0,1-.18,0,.44.44,0,0,1-.22-.58l24.55-55.73a.45.45,0,0,1,.58-.23.44.44,0,0,1,.22.58l-24.55,55.74A.44.44,0,0,1,109.09,125.84Z"/><path class="cls-20" d="M109.09,125.84a.41.41,0,0,1-.21,0,.45.45,0,0,1-.18-.6l35.61-65.5a.44.44,0,1,1,.77.42l-35.6,65.5A.45.45,0,0,1,109.09,125.84Z"/><path class="cls-21" d="M109.09,125.84a.4.4,0,0,1-.24-.07.44.44,0,0,1-.13-.61l33.42-50.92a.44.44,0,0,1,.61-.13.45.45,0,0,1,.13.61l-33.43,50.92A.42.42,0,0,1,109.09,125.84Z"/><path class="cls-22" d="M109.09,125.84a.44.44,0,0,1-.27-.09.44.44,0,0,1-.08-.62L154.68,66.4a.44.44,0,1,1,.69.54l-45.93,58.73A.46.46,0,0,1,109.09,125.84Z"/><path class="cls-23" d="M109.09,125.84a.42.42,0,0,1-.3-.12.43.43,0,0,1,0-.62l41.37-44.71a.44.44,0,0,1,.62,0,.43.43,0,0,1,0,.62L109.41,125.7A.45.45,0,0,1,109.09,125.84Z"/><path class="cls-24" d="M109.09,125.84a.44.44,0,0,1-.3-.76l55-50.36a.44.44,0,0,1,.59.65l-55,50.36A.48.48,0,0,1,109.09,125.84Z"/><path class="cls-25" d="M109.09,125.84a.46.46,0,0,1-.35-.17.44.44,0,0,1,.08-.62L157,87.77a.44.44,0,0,1,.54.7l-48.19,37.28A.46.46,0,0,1,109.09,125.84Z"/><path class="cls-26" d="M109.09,125.84a.43.43,0,0,1-.24-.8l62.57-40.6a.43.43,0,0,1,.6.13.42.42,0,0,1-.13.6l-62.56,40.6A.44.44,0,0,1,109.09,125.84Z"/><path class="cls-27" d="M109.09,125.84a.43.43,0,0,1-.39-.23.45.45,0,0,1,.18-.6l53.68-28.82a.45.45,0,0,1,.6.18A.44.44,0,0,1,163,97L109.3,125.79A.54.54,0,0,1,109.09,125.84Z"/><path class="cls-28" d="M109.09,125.84a.44.44,0,0,1-.18-.84l68.42-29.72a.43.43,0,0,1,.57.22.44.44,0,0,1-.22.58l-68.42,29.73A.47.47,0,0,1,109.09,125.84Z"/><path class="cls-29" d="M109.09,125.84A.44.44,0,0,1,109,125l57.71-19.57a.43.43,0,0,1,.55.27.44.44,0,0,1-.27.56l-57.71,19.58Z"/><path class="cls-30" d="M109.09,125.84A.44.44,0,0,1,109,125l72.39-18a.44.44,0,0,1,.53.32.44.44,0,0,1-.32.53l-72.38,18Z"/><path class="cls-31" d="M109.09,125.84A.44.44,0,0,1,109,125l60.15-9.8a.44.44,0,0,1,.5.37.43.43,0,0,1-.36.5l-60.15,9.79Z"/><path class="cls-32" d="M109.09,125.84a.44.44,0,0,1-.44-.4.43.43,0,0,1,.4-.47l74.38-5.86a.44.44,0,0,1,.47.4.43.43,0,0,1-.41.47l-74.37,5.86Z"/><path class="cls-33" d="M170,126.1h0l-60.94-.26a.44.44,0,0,1-.44-.44.44.44,0,0,1,.44-.44h0l60.94.26a.44.44,0,0,1,.44.44A.44.44,0,0,1,170,126.1Z"/><path class="cls-34" d="M183.41,132.33h0l-74.32-6.49a.44.44,0,1,1,.08-.87l74.32,6.48a.44.44,0,0,1,0,.88Z"/><path class="cls-35" d="M169.15,136.14h-.07L109,125.83a.43.43,0,0,1-.36-.5.45.45,0,0,1,.51-.36l60.07,10.3a.44.44,0,0,1,.36.51A.45.45,0,0,1,169.15,136.14Z"/><path class="cls-36" d="M181.32,144.49h-.11L109,125.83a.44.44,0,1,1,.22-.85l72.23,18.65a.44.44,0,0,1-.11.86Z"/><path class="cls-37" d="M166.63,145.9a.39.39,0,0,1-.15,0l-57.54-20.07a.43.43,0,0,1-.27-.55.44.44,0,0,1,.56-.27l57.54,20.06a.44.44,0,0,1,.27.56A.43.43,0,0,1,166.63,145.9Z"/><path class="cls-38" d="M177.25,156.15a.58.58,0,0,1-.18,0L108.91,125.8a.43.43,0,0,1-.22-.58.44.44,0,0,1,.58-.22l68.16,30.31a.43.43,0,0,1,.22.58A.44.44,0,0,1,177.25,156.15Z"/><path class="cls-39" d="M162.53,155.12a.37.37,0,0,1-.21-.06l-53.44-29.27a.44.44,0,1,1,.42-.77l53.44,29.27a.44.44,0,0,1,.17.6A.45.45,0,0,1,162.53,155.12Z"/><path class="cls-40" d="M171.31,167a.51.51,0,0,1-.24-.07l-62.22-41.13a.44.44,0,1,1,.48-.73l62.22,41.12a.44.44,0,0,1-.24.81Z"/><path class="cls-41" d="M157,163.53a.39.39,0,0,1-.27-.1l-47.87-37.68a.44.44,0,1,1,.54-.69l47.87,37.68a.44.44,0,0,1,.07.62A.42.42,0,0,1,157,163.53Z"/><path class="cls-42" d="M163.66,176.66a.46.46,0,0,1-.29-.11l-54.58-50.83a.43.43,0,0,1,0-.62.45.45,0,0,1,.62,0L164,175.9a.44.44,0,0,1,0,.62A.43.43,0,0,1,163.66,176.66Z"/><path class="cls-43" d="M150.08,170.9a.47.47,0,0,1-.33-.14l-41-45.06a.44.44,0,0,1,0-.62.43.43,0,0,1,.62,0l41,45.06a.43.43,0,0,1,0,.62A.46.46,0,0,1,150.08,170.9Z"/><path class="cls-44" d="M154.52,185a.4.4,0,0,1-.34-.17l-45.44-59.12a.44.44,0,0,1,.7-.53l45.43,59.12a.43.43,0,0,1-.08.61A.44.44,0,0,1,154.52,185Z"/><path class="cls-45" d="M142.08,177a.43.43,0,0,1-.37-.2l-33-51.2a.44.44,0,0,1,.74-.48l33,51.21a.43.43,0,0,1-.14.6A.39.39,0,0,1,142.08,177Z"/><path class="cls-46" d="M144.14,191.65a.44.44,0,0,1-.39-.24l-35-65.8a.44.44,0,0,1,.18-.59.44.44,0,0,1,.6.18L144.53,191a.44.44,0,0,1-.19.59A.36.36,0,0,1,144.14,191.65Z"/><path class="cls-47" d="M133.17,181.78a.46.46,0,0,1-.41-.26l-24.08-56a.44.44,0,0,1,.23-.57.43.43,0,0,1,.58.23l24.08,55.94a.43.43,0,0,1-.23.57A.35.35,0,0,1,133.17,181.78Z"/><path class="cls-48" d="M132.79,196.52a.45.45,0,0,1-.42-.3l-23.7-70.68a.44.44,0,0,1,.84-.28l23.7,70.68a.45.45,0,0,1-.28.56A.34.34,0,0,1,132.79,196.52Z"/><path class="cls-49" d="M123.6,185a.44.44,0,0,1-.43-.33l-14.51-59.14A.45.45,0,0,1,109,125a.44.44,0,0,1,.53.33L124,184.44a.44.44,0,0,1-.33.53Z"/><path class="cls-50" d="M120.79,199.46a.43.43,0,0,1-.43-.37l-11.7-73.62a.43.43,0,0,1,.36-.5.44.44,0,0,1,.5.36L121.23,199a.45.45,0,0,1-.37.51Z"/><path class="cls-51" d="M113.63,186.57a.44.44,0,0,1-.43-.41l-4.55-60.73a.44.44,0,0,1,.4-.47.45.45,0,0,1,.48.41l4.54,60.72a.43.43,0,0,1-.4.47Z"/><path class="cls-52" d="M108.48,200.38h0a.43.43,0,0,1-.43-.44l.61-74.54a.44.44,0,1,1,.88,0L108.92,200A.44.44,0,0,1,108.48,200.38Z"/><path class="cls-53" d="M103.54,186.48h0a.43.43,0,0,1-.39-.48l5.54-60.64a.45.45,0,0,1,.48-.4.45.45,0,0,1,.4.48L104,186.08A.44.44,0,0,1,103.54,186.48Z"/><path class="cls-54" d="M96.18,199.26H96.1a.44.44,0,0,1-.36-.51l12.92-73.41a.44.44,0,1,1,.86.15L96.61,198.9A.45.45,0,0,1,96.18,199.26Z"/><path class="cls-55" d="M93.6,184.74l-.11,0a.44.44,0,0,1-.31-.53l15.48-58.9a.43.43,0,0,1,.54-.31.44.44,0,0,1,.31.53L94,184.41A.44.44,0,0,1,93.6,184.74Z"/><path class="cls-56" d="M84.23,196.12a.39.39,0,0,1-.15,0,.44.44,0,0,1-.27-.56l24.87-70.28a.43.43,0,1,1,.82.29L84.64,195.83A.43.43,0,0,1,84.23,196.12Z"/><path class="cls-57" d="M84.09,181.38a.39.39,0,0,1-.18,0,.44.44,0,0,1-.22-.58l25-55.54a.44.44,0,0,1,.8.36l-25,55.54A.44.44,0,0,1,84.09,181.38Z"/><path class="cls-58" d="M73,191.06a.54.54,0,0,1-.21-.05.44.44,0,0,1-.17-.6l36.12-65.22a.44.44,0,1,1,.77.43L73.35,190.83A.43.43,0,0,1,73,191.06Z"/><path class="cls-59" d="M75.26,176.49a.42.42,0,0,1-.24-.07.44.44,0,0,1-.12-.61l33.82-50.65a.44.44,0,0,1,.61-.12.42.42,0,0,1,.12.6L75.63,176.3A.44.44,0,0,1,75.26,176.49Z"/><path class="cls-60" d="M62.69,184.21a.49.49,0,0,1-.28-.09.44.44,0,0,1-.07-.62l46.41-58.37a.43.43,0,0,1,.61-.07.44.44,0,0,1,.07.62L63,184A.42.42,0,0,1,62.69,184.21Z"/><path class="cls-61" d="M67.36,170.22a.42.42,0,0,1-.3-.12.43.43,0,0,1,0-.62l41.73-44.38a.43.43,0,0,1,.62,0,.44.44,0,0,1,0,.62L67.68,170.08A.41.41,0,0,1,67.36,170.22Z"/><path class="cls-62" d="M53.69,175.76a.43.43,0,0,1-.33-.15.44.44,0,0,1,0-.62l55.41-49.91a.44.44,0,1,1,.58.65L54,175.65A.46.46,0,0,1,53.69,175.76Z"/><path class="cls-63" d="M60.6,162.73a.43.43,0,0,1-.35-.17.43.43,0,0,1,.09-.61l48.48-36.9a.44.44,0,1,1,.53.7l-48.48,36.9A.43.43,0,0,1,60.6,162.73Z"/><path class="cls-64" d="M46.2,165.94a.44.44,0,0,1-.37-.2.45.45,0,0,1,.13-.61L108.85,125a.44.44,0,0,1,.48.74l-62.89,40.1A.44.44,0,0,1,46.2,165.94Z"/><path class="cls-65" d="M55.17,154.24a.44.44,0,0,1-.2-.83L108.88,125a.45.45,0,0,1,.6.19.44.44,0,0,1-.19.59L55.38,154.18A.42.42,0,0,1,55.17,154.24Z"/><path class="cls-66" d="M40.44,155a.44.44,0,0,1-.17-.84L108.92,125a.43.43,0,0,1,.57.23.44.44,0,0,1-.23.58L40.61,155A.47.47,0,0,1,40.44,155Z"/><path class="cls-67" d="M51.22,145a.44.44,0,0,1-.41-.3.44.44,0,0,1,.28-.56L109,125a.44.44,0,0,1,.28.84L51.36,144.93A.32.32,0,0,1,51.22,145Z"/><path class="cls-68" d="M36.56,143.3a.44.44,0,0,1-.42-.33.43.43,0,0,1,.32-.53L109,125a.44.44,0,0,1,.53.32.44.44,0,0,1-.33.53L36.67,143.29Z"/><path class="cls-69" d="M48.86,135.15a.44.44,0,0,1-.07-.87L109,125a.43.43,0,1,1,.13.86l-60.22,9.32Z"/><path class="cls-70" d="M34.67,131.11a.44.44,0,0,1,0-.88L109.06,125a.43.43,0,0,1,.47.4.45.45,0,0,1-.41.47l-74.41,5.27Z"/><path class="cls-71" d="M109.09,125.84h0l-60.94-.74a.45.45,0,0,1-.43-.45.44.44,0,0,1,.44-.43h0l60.94.74a.44.44,0,1,1,0,.88Z"/><path class="cls-72" d="M109.09,125.84h0l-74.27-7.08a.44.44,0,1,1,.09-.87L109.13,125a.44.44,0,0,1,.4.48A.45.45,0,0,1,109.09,125.84Z"/><path class="cls-73" d="M109.09,125.84H109L49,115.05a.44.44,0,1,1,.15-.86l60,10.78a.44.44,0,0,1-.08.87Z"/><path class="cls-74" d="M109.09,125.84H109L36.9,106.6a.42.42,0,0,1-.31-.53.44.44,0,0,1,.53-.32L109.2,125a.43.43,0,0,1,.31.54A.44.44,0,0,1,109.09,125.84Z"/><path class="cls-75" d="M109.09,125.84a.4.4,0,0,1-.15,0L51.56,105.29a.44.44,0,1,1,.3-.82L109.24,125a.44.44,0,0,1,.26.56A.43.43,0,0,1,109.09,125.84Z"/><path class="cls-76" d="M109.09,125.84a.39.39,0,0,1-.18,0L41,95a.44.44,0,0,1-.22-.58.45.45,0,0,1,.59-.22L109.27,125a.44.44,0,0,1,.22.58A.42.42,0,0,1,109.09,125.84Z"/><path class="cls-77" d="M109.09,125.84a.43.43,0,0,1-.22-.06l-53.2-29.7a.44.44,0,1,1,.43-.76L109.3,125a.44.44,0,0,1-.21.82Z"/><path class="cls-78" d="M109.09,125.84a.45.45,0,0,1-.25-.07L47,84.15a.45.45,0,0,1-.12-.61.44.44,0,0,1,.61-.12L109.33,125a.43.43,0,0,1,.12.61A.44.44,0,0,1,109.09,125.84Z"/><path class="cls-79" d="M109.09,125.84a.42.42,0,0,1-.28-.1L61.24,87.68a.44.44,0,0,1,.55-.69l47.57,38.07a.44.44,0,0,1-.27.78Z"/><path class="cls-80" d="M109.09,125.84a.42.42,0,0,1-.3-.12L54.62,74.47a.44.44,0,1,1,.6-.64l54.17,51.25a.45.45,0,0,1,0,.63A.44.44,0,0,1,109.09,125.84Z"/><path class="cls-81" d="M109.07,200.36a75,75,0,1,1,53-22A74.57,74.57,0,0,1,109.07,200.36Zm0-149A74.09,74.09,0,1,0,161.48,73,73.67,73.67,0,0,0,109.07,51.35Z"/><path class="cls-82" d="M109.07,230.76a105.12,105.12,0,1,1,41-8.28A104.89,104.89,0,0,1,109.07,230.76Zm0-209.81a104.25,104.25,0,1,0,40.69,8.21A103.92,103.92,0,0,0,109.07,21Z"/><path class="cls-83" d="M113.33,23.93l11.15-2.34-11.15-2.34,3.6-5.52-5.52,3.6L109.07,6.19l-2.35,11.14-5.51-3.6,3.6,5.52L93.65,21.59l11.16,2.34-3.6,5.51,5.51-3.6L109.07,37s1.4-6.69,2.34-11.15l5.52,3.6Z"/><path class="cls-84" d="M109.07,39.13l-2.64-12.57L99.69,31l4.4-6.72L91.52,21.59,104.09,19,99.7,12.23l6.73,4.39,2.64-12.57,2.64,12.57,6.73-4.39L114,19l12.58,2.64L114,24.23l4.4,6.72-6.73-4.39Zm-2-14,2,9.73,2-9.73,4.31,2.8-2.81-4.3,9.73-2-9.73-2,2.81-4.31-4.31,2.81-2-9.73-2,9.73-4.3-2.8,2.81,4.3-9.74,2,9.74,2-2.81,4.3Z"/><path class="cls-83" d="M113.33,231.58l11.15-2.34-11.15-2.34,3.6-5.52-5.52,3.6-2.34-11.14L106.72,225l-5.51-3.6,3.6,5.52-11.16,2.34,11.16,2.34-3.6,5.51,5.51-3.6,2.35,11.15s1.4-6.69,2.34-11.15l5.52,3.6Z"/><path class="cls-85" d="M109.07,246.78l-2.64-12.57-6.74,4.39,4.4-6.72-12.57-2.64,12.57-2.64-4.39-6.73,6.73,4.4,2.64-12.57,2.64,12.57,6.73-4.4L114,226.6l12.58,2.64L114,231.88l4.4,6.72-6.73-4.39Zm-2-14,2,9.72,2-9.72,4.31,2.8-2.81-4.3,9.73-2-9.73-2,2.81-4.31-4.31,2.81-2-9.73-2,9.73-4.3-2.81,2.81,4.31-9.74,2,9.74,2-2.81,4.3Z"/><path class="cls-83" d="M185.82,47.79a4.27,4.27,0,1,1-6,.93A4.27,4.27,0,0,1,185.82,47.79Z"/><path class="cls-86" d="M183.3,55.94a4.7,4.7,0,0,1-3.8-7.47,4.72,4.72,0,0,1,6.58-1h0a4.71,4.71,0,0,1-2.78,8.51Zm0-8.53a3,3,0,0,0-.6.05,3.82,3.82,0,0,0-1.66,6.87,3.83,3.83,0,0,0,4.51-6.19h0A3.8,3.8,0,0,0,183.31,47.41Z"/><path class="cls-83" d="M217.26,129.11a4.57,4.57,0,0,1-1.48.52,4.27,4.27,0,1,1,1.48-7.91,4.26,4.26,0,0,0,0,7.39Z"/><path class="cls-87" d="M215.11,130.12a4.7,4.7,0,1,1,2.37-8.78l.65.38-.65.38a3.83,3.83,0,0,0,0,6.63l.65.38-.65.38a4.66,4.66,0,0,1-1.63.57A4.52,4.52,0,0,1,215.11,130.12Zm0-8.53a3.81,3.81,0,0,0-3.78,4.42,3.76,3.76,0,0,0,1.53,2.5,3.83,3.83,0,0,0,2.84.69,5.06,5.06,0,0,0,.67-.17,4.64,4.64,0,0,1-1.64-2.88,4.73,4.73,0,0,1,1.64-4.35A3.83,3.83,0,0,0,215.12,121.59Z"/><path class="cls-83" d="M.88,121.72a4.09,4.09,0,0,1,1.47-.52,4.27,4.27,0,1,1-1.47,7.91A4.28,4.28,0,0,0,3,124.75,4.25,4.25,0,0,0,.88,121.72Z"/><path class="cls-88" d="M3,130.12a4.73,4.73,0,0,1-2.35-.63L0,129.11l.66-.38a3.87,3.87,0,0,0,1.87-3.91A3.82,3.82,0,0,0,.66,122.1L0,121.72l.66-.38a4.68,4.68,0,0,1,1.62-.57,4.67,4.67,0,0,1,3.51.84,4.7,4.7,0,0,1,1,6.58,4.66,4.66,0,0,1-3.08,1.87A4.4,4.4,0,0,1,3,130.12ZM1.75,129a3.91,3.91,0,0,0,1.86.17,3.84,3.84,0,0,0,3.19-4.38,3.79,3.79,0,0,0-1.53-2.5,3.82,3.82,0,0,0-2.85-.69,3.55,3.55,0,0,0-.66.17,4.73,4.73,0,0,1,1.64,2.88A4.74,4.74,0,0,1,1.75,129Z"/><path class="cls-83" d="M186.75,202.1a4.27,4.27,0,1,1-.93-6A4.26,4.26,0,0,1,186.75,202.1Z"/><path class="cls-89" d="M183.3,204.3a4.77,4.77,0,0,1-2.77-.9,4.71,4.71,0,1,1,6.58-1h0A4.7,4.7,0,0,1,183.3,204.3Zm0-8.54a4,4,0,0,0-.6.05,3.83,3.83,0,0,0-1.66,6.88,3.84,3.84,0,0,0,5.35-.84h0a3.84,3.84,0,0,0-3.09-6.09Z"/><path class="cls-83" d="M32.32,203a4.27,4.27,0,1,1,6-.94A4.26,4.26,0,0,1,32.32,203Z"/><path class="cls-90" d="M34.82,204.3a4.71,4.71,0,0,1-2.76-.9h0a4.72,4.72,0,0,1-1-6.58,4.71,4.71,0,1,1,3.8,7.48Zm-2.24-1.61a3.83,3.83,0,1,0-.85-5.35,3.84,3.84,0,0,0,.85,5.35Z"/><path class="cls-83" d="M31.38,48.72a4.27,4.27,0,1,1,.94,6A4.27,4.27,0,0,1,31.38,48.72Z"/><path class="cls-91" d="M34.82,55.94a4.7,4.7,0,1,1,2.78-8.51,4.7,4.7,0,0,1-2.78,8.51Zm0-8.53A3.86,3.86,0,0,0,31.73,49h0a3.85,3.85,0,1,0,3.11-1.57Z"/><polygon class="cls-83" points="67.3 78.49 63.57 84.86 65.12 91.44 67.52 84.32 67.3 78.49"/><polygon class="cls-83" points="98.6 110.18 95.37 107.13 94.33 113.38 98.6 110.18"/><path class="cls-83" d="M69.7,91.65a.23.23,0,0,1,0-.14h0L72.25,86l-3.2,2.71a.2.2,0,0,1-.18,0,.19.19,0,0,1-.13-.13L67.7,85l-2.39,7.06,5.47,3.24Z"/><path class="cls-83" d="M75,86.69l-1-5.12-1,3.79s0,0,0,0h0l-2.5,5.43Z"/><polygon class="cls-83" points="65.37 92.53 67.32 100.79 70.82 95.76 65.37 92.53"/><path class="cls-83" d="M88.5,116.49l3.76,5.93,1.57-4.66-5.62-3.63h-5l5.21,2.29A.16.16,0,0,1,88.5,116.49Z"/><path class="cls-83" d="M67.66,77.82h0l.2,5.43,1.82-5.65-2.62-5.25.6,5.45Z"/><polygon class="cls-83" points="95.02 106.91 88.68 106.09 93.95 113.33 95.02 106.91"/><path class="cls-83" d="M92.37,104.29a.14.14,0,0,1-.06-.12l-.41-5.28-3.35,6.8,6.13.79Z"/><polygon class="cls-83" points="74.94 95.65 71.2 95.88 67.72 100.89 79.19 97.02 74.94 95.65"/><polygon class="cls-83" points="104.7 125.35 94.16 117.98 91.67 125.35 104.7 125.35"/><path class="cls-83" d="M68.4,101.06h4.93l14.28,4.38-7.87-8.21Z"/><polygon class="cls-83" points="80.46 97.44 88.13 105.43 88.94 100.18 80.46 97.44"/><polygon class="cls-83" points="91.84 98.14 91.1 88.61 88.64 104.64 91.84 98.14"/><polygon class="cls-83" points="122.75 107.14 119.53 110.18 123.78 113.36 122.75 107.14"/><path class="cls-83" d="M94.26,117.58l11,7.68,3.58-6.73L101.68,113h0l-2.78-2.54-4.63,3.47Z"/><polygon class="cls-83" points="127.03 88.61 126.29 98.17 129.5 104.69 127.03 88.61"/><path class="cls-83" d="M112.84,125.26l11-7.68v-3.67l-4.63-3.47L116.46,113h0l-7.14,5.54Z"/><path class="cls-83" d="M145.22,85.46a.21.21,0,0,1-.06-.1l-1-3.79-1,5.12,4.63,4.21-2.5-5.4Z"/><path class="cls-83" d="M150.52,78l0,0a.24.24,0,0,1,0-.12l.61-5.45-2.63,5.25,1.87,5.8Z"/><polygon class="cls-83" points="112.96 125.73 112.96 139.56 119.45 125.73 112.96 125.73"/><path class="cls-83" d="M109,144.18a.18.18,0,0,1,.15.08l3.39,4.47V125.59l-3.51-6.7-3.57,6.7v23.17l3.39-4.5a.18.18,0,0,1,.15-.08Z"/><path class="cls-83" d="M116.28,157.47l-7.21-9.28-7.21,9.28,3.38,1.57,3.66-5.83a.21.21,0,0,1,.17-.09.21.21,0,0,1,.17.1l3.16,6.05Z"/><polygon class="cls-83" points="105.12 139.53 105.12 125.73 98.66 125.73 105.12 139.53"/><polygon class="cls-83" points="115.78 113.03 102.36 113.03 109.07 118.23 115.78 113.03"/><polygon class="cls-83" points="105.59 159.21 109.07 160.83 112.06 159.44 109.05 153.69 105.59 159.21"/><path class="cls-83" d="M117.16,155.42l-4.49-5.94a.18.18,0,0,1-.08-.09l-3.55-4.7-3.57,4.75h0l-4.5,6,.65,1.73,7.3-9.39a.19.19,0,0,1,.3,0l7.3,9.39Z"/><polygon class="cls-83" points="133.69 122.56 138.76 119.44 127.3 122.67 133.69 122.56"/><polygon class="cls-83" points="113.38 125.35 126.46 125.35 123.97 117.98 113.38 125.35"/><polygon class="cls-83" points="129.2 100.18 130.01 105.48 137.75 97.41 129.2 100.18"/><path class="cls-83" d="M125.83,104.17a.23.23,0,0,1-.06.12l-2.31,2.18,6.11-.78-3.34-6.78Z"/><polygon class="cls-83" points="139.86 118.74 140.77 114.32 127.2 122.3 139.86 118.74"/><path class="cls-83" d="M126.43,122.31l14.44-8.5,1-5L136,114.08l0,0h0l-6,2.64Z"/><path class="cls-83" d="M129.71,116.49a.16.16,0,0,1,.09-.07l5.21-2.29h-5.08l-5.63,3.63,1.58,4.68Z"/><polygon class="cls-83" points="124.17 113.35 129.46 106.09 123.1 106.91 124.17 113.35"/><polygon class="cls-83" points="150.67 84.32 153.04 91.35 154.57 84.86 150.88 78.57 150.67 84.32"/><path class="cls-83" d="M88.2,116.75l-6-2.62h0a.19.19,0,0,1-.13,0l-5.85-5.29,1,5h0l14.39,8.42Z"/><path class="cls-83" d="M149.4,88.63a.21.21,0,0,1-.13.13.2.2,0,0,1-.18,0L146,86.09l2.5,5.42,0,0a.24.24,0,0,1,0,.12l-1.08,3.67,5.52-3.27-2.41-7.15Z"/><polygon class="cls-83" points="150.83 100.74 152.75 92.57 147.36 95.76 150.83 100.74"/><path class="cls-83" d="M130.6,105.42l14.2-4.35h5l-11.34-3.82Z"/><polygon class="cls-83" points="143.19 95.65 138.98 97.02 150.47 100.89 146.99 95.89 143.19 95.65"/><polygon class="cls-83" points="77.36 114.27 78.27 118.71 91 122.25 77.36 114.27"/><polygon class="cls-83" points="105.12 140.44 98.24 125.73 91.6 125.73 91.6 130.22 105.12 148.74 105.12 140.44"/><polygon class="cls-83" points="94.76 139.84 94.76 164.96 99.82 170.01 98.17 148.99 94.76 139.84"/><polygon class="cls-83" points="105.07 149.33 92.07 131.51 100.81 155 105.07 149.33"/><polygon class="cls-83" points="85.4 122.95 91.29 125.29 92.08 122.95 85.4 122.95"/><polygon class="cls-83" points="126.85 125.29 132.7 122.96 126.1 123.07 126.85 125.29"/><polygon class="cls-83" points="79.3 119.4 84.45 122.56 90.73 122.57 79.3 119.4"/><path class="cls-83" d="M101.48,157.71a.18.18,0,0,1-.1-.11l-2.72-7.3,1.58,20.13,8.44,8.44-5.79-20.5Z"/><polygon class="cls-83" points="112.96 140.46 112.96 148.75 126.54 130.22 126.54 125.73 119.88 125.73 112.96 140.46"/><polygon class="cls-83" points="117.32 155 126.07 131.51 113.02 149.31 117.32 155"/><polygon class="cls-83" points="121.27 145.49 119.98 166.19 127.27 157.49 123.51 139.47 121.27 145.49"/><path class="cls-83" d="M109.15,161.21a.13.13,0,0,1-.08,0,.11.11,0,0,1-.08,0l-5.64-2.63,5.72,20.24,5.72-20.24Z"/><path class="cls-83" d="M116.76,157.6a.22.22,0,0,1-.1.11l-1.42.66-5.75,20.35,10.08-12,1.24-20Z"/><path class="cls-92" d="M150.91,77.86v0h0l0,0,.72-6.46a.19.19,0,0,0-.14-.2.17.17,0,0,0-.22.1l-3.15,6.28a.22.22,0,0,0,0,.14l2.16,6.71-1.11,3.89-3.52-3,0,0h0l-.05,0-1.19-4.53a.2.2,0,0,0-.19-.14.19.19,0,0,0-.18.16l-1.21,6a.19.19,0,0,0,.06.18L148,91.65,146.9,95.5l-3.72-.23a.09.09,0,0,0-.07,0l-14,4.51-2-12.88a.19.19,0,0,0-.19-.16h0a.2.2,0,0,0-.18.18l-1.33,17.14-2.66,2.5a.19.19,0,0,0-.07.06,0,0,0,0,1,0,0l-3.6,3.4-2.85,2.6H101.87L99,110.05l-6.34-6L91.35,86.93a.19.19,0,0,0-.18-.18h0a.2.2,0,0,0-.19.16L89,99.79,75,95.28H75l-3.71.23-1.13-3.85,5.23-4.75a.19.19,0,0,0,.06-.18l-1.21-6a.2.2,0,0,0-.19-.16.2.2,0,0,0-.19.14L72.62,85.2l-3.6,3-1.11-3.89,2.16-6.71a.17.17,0,0,0,0-.14l-3.14-6.28a.19.19,0,0,0-.23-.1.18.18,0,0,0-.13.2l.71,6.46-4.07,7a.14.14,0,0,0,0,.14L67,101.3s0,0,0,0,0,0,0,0l0,0,0,0,.06,0h6L88.14,106l5.73,7.87v3.45l-5.5-3.55a.23.23,0,0,0-.11,0h-6l-6.23-5.63a.18.18,0,0,0-.22,0,.22.22,0,0,0-.1.21l2.18,10.63a.18.18,0,0,0,.09.12l6.28,3.87h0l6.89,2.74v4.61s0,.05,0,.07l3.16,8.46V165a.24.24,0,0,0,.05.14l14.5,14.49h0a.21.21,0,0,0,.11,0h0a.18.18,0,0,0,.09,0h0l0,0,18.42-22a.22.22,0,0,0,0-.16l-3.91-18.7,3.15-8.45a.17.17,0,0,0,0-.07v-4.61l6.89-2.74h0l6.29-3.87a.2.2,0,0,0,.08-.12l2.18-10.63a.19.19,0,0,0-.32-.18l-6.23,5.63h-6a.19.19,0,0,0-.1,0l-5.51,3.55v-3.45L130,106l14.9-4.56h6a.18.18,0,0,0,.18-.07.17.17,0,0,0,0-.2l2.09-8.88a.2.2,0,0,0,.08-.21l0,0L155,84.87a.23.23,0,0,0,0-.14Zm-2.46-.26,2.63-5.25-.61,5.45a.24.24,0,0,0,0,.12l0,0-.2,5.44Zm-5.31,9.09,1-5.12,1,3.79a.21.21,0,0,0,.06.1l.05,0,2.5,5.4ZM127,88.61l2.47,16.08-3.21-6.53Zm-4.28,18.53,1,6.22-4.26-3.18Zm-6.3,5.85h0l2.79-2.54,4.63,3.47v3.67l-11,7.68-3.53-6.73,7.14-5.54ZM113,125.73h6.49L113,139.56Zm-3.72,27.49a.21.21,0,0,0-.17-.1.21.21,0,0,0-.17.09L105.24,159l-3.38-1.57,7.21-9.28,7.21,9.28-3.88,1.8Zm2.81,6.22-3,1.39-3.48-1.62,3.46-5.52Zm-2.83-11.68a.19.19,0,0,0-.3,0l-7.3,9.39-.65-1.73,4.5-6h0l3.57-4.75,3.55,4.7a.18.18,0,0,0,.08.09l4.49,5.94-.64,1.73Zm-4.1-8.23-6.46-13.8h6.46Zm.38,9.23V125.59l3.57-6.7,3.51,6.7v23.14l-3.39-4.47a.18.18,0,0,0-.15-.08h0a.18.18,0,0,0-.15.08ZM115.78,113l-6.71,5.2-6.71-5.2Zm-14.11,0h0l7.14,5.54-3.58,6.73-11-7.68v-3.67l4.63-3.47Zm-3.07-2.8-4.27,3.2,1-6.25ZM91.1,88.61l.74,9.53-3.2,6.5ZM73,85.39s0,0,0,0l1-3.79,1,5.12-4.54,4.13L73,85.39Zm-5.9-13,2.62,5.25-1.82,5.65-.2-5.43h0v0ZM63.57,84.86l3.73-6.37.22,5.83-2.4,7.12ZM67.7,85l1,3.64a.19.19,0,0,0,.13.13.2.2,0,0,0,.18,0L72.25,86l-2.54,5.5h0a.23.23,0,0,0,0,.14l1.08,3.64-5.47-3.24Zm-2.33,7.54,5.45,3.23-3.5,5Zm5.83,3.35,3.74-.23L79.19,97l-11.47,3.87Zm2.13,5.19H68.4l11.34-3.82,7.87,8.21Zm14.8,4.36-7.67-8,8.48,2.74Zm3.77-6.54.41,5.28a.14.14,0,0,0,.06.12l2.31,2.19-6.13-.79Zm-3.22,7.2,6.34.82L94,113.33ZM94.16,118l10.54,7.37h-13Zm-6-3.85,5.62,3.63-1.57,4.66-3.76-5.93a.16.16,0,0,0-.09-.07l-5.21-2.29Zm-10.95-.35-1-5,5.85,5.29a.19.19,0,0,0,.13,0h0l6,2.62,3.46,5.44-14.39-8.42Zm.1.49,13.64,8-12.73-3.54Zm1.94,5.13,11.43,3.17H84.45ZM85.4,123h6.68l-.79,2.34Zm6.2,2.78h6.64l6.88,14.71v8.3L91.6,130.22Zm.47,5.79,13,17.81L100.82,155ZM94.76,165V139.84L98.17,149l1.65,21Zm5.48,5.48L98.66,150.3l2.72,7.3a.18.18,0,0,0,.1.11l1.41.66,5.79,20.5Zm8.83,8.39-5.72-20.24,5.64,2.63a.11.11,0,0,0,.08,0,.13.13,0,0,0,.08,0l5.64-2.63Zm.42-.1,5.75-20.35,1.42-.66a.22.22,0,0,0,.1-.11l4-10.87-1.24,20Zm17.78-21.23-7.29,8.7,1.29-20.7,2.24-6Zm-10-2.49-4.3-5.69,13-17.8Zm9.22-24.78L113,148.75v-8.29l6.92-14.73h6.66Zm.31-4.93-.75-2.22,6.6-.11Zm6.83-2.73-6.38.11,11.46-3.23Zm6.18-3.82L127.2,122.3l13.57-8ZM136,114.11l0,0,5.86-5.29-1,5-14.44,8.5,3.57-5.56,6-2.64Zm-6.06,0H135l-5.21,2.29a.16.16,0,0,0-.09.07l-3.83,6-1.58-4.68Zm-3.47,11.22H113.38L124,118Zm-2.29-12-1.07-6.44,6.36-.82Zm-.71-6.88,2.31-2.18a.23.23,0,0,0,.06-.12l.4-5.26,3.34,6.78Zm5.74-6.29,8.55-2.77L130,105.48Zm15.66.88h-.06l-14.2,4.35,7.85-8.18,11.34,3.82ZM139,97l4.21-1.36,3.8.24,3.48,5Zm11.85,3.73-3.47-5,5.39-3.19Zm-3.48-5.42,1.08-3.67a.24.24,0,0,0,0-.12l0,0L146,86.09l3.12,2.63a.2.2,0,0,0,.18,0,.21.21,0,0,0,.13-.13l1.06-3.73,2.41,7.15Zm5.69-4-2.37-7,.21-5.75,3.69,6.29Z"/></g></g></svg>