<svg xmlns="http://www.w3.org/2000/svg" xmlns:xlink="http://www.w3.org/1999/xlink" viewBox="0 0 215.66 250.83"><defs><style>.cls-1{mask:url(#mask);filter:url(#luminosity-noclip-2);}.cls-2{mix-blend-mode:multiply;fill:url(#linear-gradient);}.cls-3{fill:url(#radial-gradient);}.cls-4{fill:url(#radial-gradient-2);}.cls-5{fill:url(#radial-gradient-3);}.cls-6{fill:url(#radial-gradient-4);}.cls-7{fill:url(#radial-gradient-5);}.cls-8{fill:url(#radial-gradient-6);}.cls-9{fill:url(#radial-gradient-7);}.cls-10{fill:url(#radial-gradient-8);}.cls-11{fill:url(#radial-gradient-9);}.cls-12{fill:url(#radial-gradient-10);}.cls-13{fill:url(#radial-gradient-11);}.cls-14{fill:url(#radial-gradient-12);}.cls-15{fill:url(#radial-gradient-13);}.cls-16{fill:url(#radial-gradient-14);}.cls-17{fill:url(#radial-gradient-15);}.cls-18{fill:url(#radial-gradient-16);}.cls-19{fill:url(#radial-gradient-17);}.cls-20{fill:url(#radial-gradient-18);}.cls-21{fill:url(#radial-gradient-19);}.cls-22{fill:url(#radial-gradient-20);}.cls-23{fill:url(#radial-gradient-21);}.cls-24{fill:url(#radial-gradient-22);}.cls-25{fill:url(#radial-gradient-23);}.cls-26{fill:url(#radial-gradient-24);}.cls-27{fill:url(#radial-gradient-25);}.cls-28{fill:url(#radial-gradient-26);}.cls-29{fill:url(#radial-gradient-27);}.cls-30{fill:url(#radial-gradient-28);}.cls-31{fill:url(#radial-gradient-29);}.cls-32{fill:url(#radial-gradient-30);}.cls-33{fill:url(#radial-gradient-31);}.cls-34{fill:url(#radial-gradient-32);}.cls-35{fill:url(#radial-gradient-33);}.cls-36{fill:url(#radial-gradient-34);}.cls-37{fill:url(#radial-gradient-35);}.cls-38{fill:url(#radial-gradient-36);}.cls-39{fill:url(#radial-gradient-37);}.cls-40{fill:url(#radial-gradient-38);}.cls-41{fill:url(#radial-gradient-39);}.cls-42{fill:url(#radial-gradient-40);}.cls-43{fill:url(#radial-gradient-41);}.cls-44{fill:url(#radial-gradient-42);}.cls-45{fill:url(#radial-gradient-43);}.cls-46{fill:url(#radial-gradient-44);}.cls-47{fill:url(#radial-gradient-45);}.cls-48{fill:url(#radial-gradient-46);}.cls-49{fill:url(#radial-gradient-47);}.cls-50{fill:url(#radial-gradient-48);}.cls-51{fill:url(#radial-gradient-49);}.cls-52{fill:url(#radial-gradient-50);}.cls-53{fill:url(#radial-gradient-51);}.cls-54{fill:url(#radial-gradient-52);}.cls-55{fill:url(#radial-gradient-53);}.cls-56{fill:url(#radial-gradient-54);}.cls-57{fill:url(#radial-gradient-55);}.cls-58{fill:url(#radial-gradient-56);}.cls-59{fill:url(#radial-gradient-57);}.cls-60{fill:url(#radial-gradient-58);}.cls-61{fill:url(#radial-gradient-59);}.cls-62{fill:url(#radial-gradient-60);}.cls-63{fill:url(#radial-gradient-61);}.cls-64{fill:url(#radial-gradient-62);}.cls-65{fill:url(#radial-gradient-63);}.cls-66{fill:url(#radial-gradient-64);}.cls-67{fill:url(#radial-gradient-65);}.cls-68{fill:url(#radial-gradient-66);}.cls-69{fill:url(#radial-gradient-67);}.cls-70{fill:url(#radial-gradient-68);}.cls-71{fill:url(#radial-gradient-69);}.cls-72{fill:url(#radial-gradient-70);}.cls-73{fill:url(#radial-gradient-71);}.cls-74{fill:url(#radial-gradient-72);}.cls-75{fill:url(#radial-gradient-73);}.cls-76{fill:url(#radial-gradient-74);}.cls-77{fill:url(#radial-gradient-75);}.cls-78{fill:url(#radial-gradient-76);}.cls-79{fill:url(#linear-gradient-2);}.cls-80{mask:url(#mask-2);}.cls-81{fill:url(#linear-gradient-3);}.cls-82{fill:#191919;}.cls-83{fill:url(#linear-gradient-4);}.cls-84{fill:url(#linear-gradient-5);}.cls-85{fill:url(#linear-gradient-6);}.cls-86{fill:url(#linear-gradient-7);}.cls-87{fill:url(#linear-gradient-8);}.cls-88{fill:url(#linear-gradient-9);}.cls-89{fill:url(#linear-gradient-10);}.cls-90{fill:url(#linear-gradient-11);}.cls-91{fill:url(#linear-gradient-12);}.cls-92{fill:url(#linear-gradient-13);}.cls-93{fill:#fff;}.cls-94{filter:url(#luminosity-noclip);}</style><filter id="luminosity-noclip" x="37.79" y="-8316.92" width="140.08" height="32766" filterUnits="userSpaceOnUse" color-interpolation-filters="sRGB"><feFlood flood-color="#fff" result="bg"/><feBlend in="SourceGraphic" in2="bg"/></filter><mask id="mask" x="37.79" y="-8316.92" width="140.08" height="32766" maskUnits="userSpaceOnUse"><g class="cls-94"/></mask><linearGradient id="linear-gradient" x1="50.75" y1="224.28" x2="164.91" y2="26.55" gradientUnits="userSpaceOnUse"><stop offset="0" stop-color="#fff"/><stop offset="0.54"/><stop offset="1" stop-color="#f1f1f1"/></linearGradient><radialGradient id="radial-gradient" cx="-9701.72" cy="-2038.08" r="96.31" gradientTransform="matrix(0.33, 0.01, -0.01, 0.33, 3234.41, 858.22)" gradientUnits="userSpaceOnUse"><stop offset="0.06" stop-color="#121212"/><stop offset="0.21" stop-color="#151514"/><stop offset="0.34" stop-color="#201e1a"/><stop offset="0.47" stop-color="#322d23"/><stop offset="0.59" stop-color="#4b4131"/><stop offset="0.7" stop-color="#6c5c43"/><stop offset="0.82" stop-color="#947d58"/><stop offset="0.93" stop-color="#c2a471"/><stop offset="1" stop-color="#e4c084"/></radialGradient><radialGradient id="radial-gradient-2" cx="-9712.97" cy="-2068.57" r="117.58" xlink:href="#radial-gradient"/><radialGradient id="radial-gradient-3" cx="-9728.26" cy="-1237.87" r="96.31" gradientTransform="matrix(0.33, 0.04, -0.04, 0.33, 3203.88, 852.44)" xlink:href="#radial-gradient"/><radialGradient id="radial-gradient-4" cx="-9715.99" cy="-451.32" r="117.59" gradientTransform="matrix(0.32, 0.06, -0.06, 0.32, 3174.58, 844.11)" xlink:href="#radial-gradient"/><radialGradient id="radial-gradient-5" cx="-9596.98" cy="375.63" r="96.3" gradientTransform="matrix(0.31, 0.09, -0.09, 0.31, 3145.8, 833.71)" xlink:href="#radial-gradient"/><radialGradient id="radial-gradient-6" cx="-9451.97" cy="1147.4" r="117.57" gradientTransform="matrix(0.31, 0.12, -0.12, 0.31, 3119.15, 820.83)" xlink:href="#radial-gradient"/><radialGradient id="radial-gradient-7" cx="-9202.1" cy="1944.82" r="96.29" gradientTransform="matrix(0.3, 0.14, -0.14, 0.3, 3092.1, 805.69)" xlink:href="#radial-gradient"/><radialGradient id="radial-gradient-8" cx="-8927.4" cy="2676.98" r="117.57" gradientTransform="matrix(0.28, 0.17, -0.17, 0.28, 3066.9, 788.38)" xlink:href="#radial-gradient"/><radialGradient id="radial-gradient-9" cx="-8552.17" cy="3426.09" r="96.29" gradientTransform="matrix(0.27, 0.19, -0.19, 0.27, 3043.31, 768.85)" xlink:href="#radial-gradient"/><radialGradient id="radial-gradient-10" cx="-8157.76" cy="4100.76" r="117.56" gradientTransform="matrix(0.25, 0.21, -0.21, 0.25, 3021.82, 747.67)" xlink:href="#radial-gradient"/><radialGradient id="radial-gradient-11" cx="-7666.85" cy="4782.16" r="96.29" gradientTransform="matrix(0.23, 0.23, -0.23, 0.23, 3001.29, 724.47)" xlink:href="#radial-gradient"/><radialGradient id="radial-gradient-12" cx="-7164.33" cy="5378.99" r="117.58" gradientTransform="matrix(0.21, 0.25, -0.25, 0.21, 2983.77, 699.52)" xlink:href="#radial-gradient"/><radialGradient id="radial-gradient-13" cx="-6569.84" cy="5973.66" r="96.3" gradientTransform="matrix(0.19, 0.26, -0.27, 0.19, 2967.25, 673.72)" xlink:href="#radial-gradient"/><radialGradient id="radial-gradient-14" cx="-5971.2" cy="6475.36" r="117.59" gradientTransform="matrix(0.17, 0.28, -0.28, 0.17, 2953.77, 646.2)" xlink:href="#radial-gradient"/><radialGradient id="radial-gradient-15" cx="-5294.48" cy="6967.58" r="96.29" gradientTransform="matrix(0.15, 0.29, -0.29, 0.15, 2942.14, 618.33)" xlink:href="#radial-gradient"/><radialGradient id="radial-gradient-16" cx="-4615.85" cy="7359" r="117.58" gradientTransform="matrix(0.12, 0.3, -0.3, 0.12, 2932.82, 588.93)" xlink:href="#radial-gradient"/><radialGradient id="radial-gradient-17" cx="-3867.99" cy="7737.39" r="96.3" gradientTransform="matrix(0.1, 0.31, -0.31, 0.1, 2926.3, 559.03)" xlink:href="#radial-gradient"/><radialGradient id="radial-gradient-18" cx="-3133.37" cy="8004.82" r="117.57" gradientTransform="matrix(0.07, 0.32, -0.32, 0.07, 2921.52, 528.74)" xlink:href="#radial-gradient"/><radialGradient id="radial-gradient-19" cx="-2339.85" cy="8260.97" r="96.3" gradientTransform="matrix(0.04, 0.32, -0.32, 0.04, 2920.71, 498.81)" xlink:href="#radial-gradient"/><radialGradient id="radial-gradient-20" cx="-1561.33" cy="8398.43" r="117.57" gradientTransform="matrix(0.02, 0.33, -0.33, 0.02, 2920.53, 467.4)" xlink:href="#radial-gradient"/><radialGradient id="radial-gradient-21" cx="-739.93" cy="8519.81" r="96.29" gradientTransform="matrix(-0.01, 0.33, -0.33, -0.01, 2924.17, 437.41)" xlink:href="#radial-gradient"/><radialGradient id="radial-gradient-22" cx="48.24" cy="8529.56" r="117.56" gradientTransform="matrix(-0.04, 0.33, -0.33, -0.04, 2930.11, 407.56)" xlink:href="#radial-gradient"/><radialGradient id="radial-gradient-23" cx="877.6" cy="8517.04" r="96.29" gradientTransform="matrix(-0.07, 0.32, -0.32, -0.07, 2938.52, 378.03)" xlink:href="#radial-gradient"/><radialGradient id="radial-gradient-24" cx="1664.97" cy="8392.21" r="117.58" gradientTransform="matrix(-0.09, 0.31, -0.31, -0.09, 2949.73, 348.94)" xlink:href="#radial-gradient"/><radialGradient id="radial-gradient-25" cx="2474.24" cy="8246.83" r="96.29" gradientTransform="matrix(-0.12, 0.31, -0.31, -0.12, 2962.54, 321.88)" xlink:href="#radial-gradient"/><radialGradient id="radial-gradient-26" cx="3232.39" cy="7991.94" r="117.59" gradientTransform="matrix(-0.14, 0.29, -0.3, -0.14, 2978.36, 295.15)" xlink:href="#radial-gradient"/><radialGradient id="radial-gradient-27" cx="4005.89" cy="7719.88" r="96.31" gradientTransform="matrix(-0.17, 0.28, -0.28, -0.17, 2996.29, 270.16)" xlink:href="#radial-gradient"/><radialGradient id="radial-gradient-28" cx="4712.25" cy="7337.41" r="117.59" gradientTransform="matrix(-0.19, 0.27, -0.27, -0.19, 3015.59, 246.69)" xlink:href="#radial-gradient"/><radialGradient id="radial-gradient-29" cx="5425.79" cy="6945.57" r="96.32" gradientTransform="matrix(-0.21, 0.25, -0.25, -0.21, 3037.29, 225.22)" xlink:href="#radial-gradient"/><radialGradient id="radial-gradient-30" cx="6059.09" cy="6445.95" r="117.57" gradientTransform="matrix(-0.23, 0.23, -0.23, -0.23, 3059.36, 205.42)" xlink:href="#radial-gradient"/><radialGradient id="radial-gradient-31" cx="6695.82" cy="5940.77" r="96.29" gradientTransform="matrix(-0.25, 0.21, -0.21, -0.25, 3083.97, 186.92)" xlink:href="#radial-gradient"/><radialGradient id="radial-gradient-32" cx="7244.59" cy="5346.17" r="117.57" gradientTransform="matrix(-0.27, 0.19, -0.19, -0.27, 3110.22, 171.74)" xlink:href="#radial-gradient"/><radialGradient id="radial-gradient-33" cx="7790.32" cy="4746.21" r="96.3" gradientTransform="matrix(-0.28, 0.17, -0.17, -0.28, 3138.17, 157.09)" xlink:href="#radial-gradient"/><radialGradient id="radial-gradient-34" cx="8237.75" cy="4061.99" r="117.58" gradientTransform="matrix(-0.29, 0.14, -0.14, -0.29, 3166.47, 145.81)" xlink:href="#radial-gradient"/><radialGradient id="radial-gradient-35" cx="8667.52" cy="3386.44" r="96.29" gradientTransform="matrix(-0.3, 0.12, -0.12, -0.3, 3195.5, 136.74)" xlink:href="#radial-gradient"/><radialGradient id="radial-gradient-36" cx="8998.3" cy="2634.89" r="117.57" gradientTransform="matrix(-0.31, 0.09, -0.09, -0.31, 3225.03, 130.4)" xlink:href="#radial-gradient"/><radialGradient id="radial-gradient-37" cx="9305.72" cy="1901.52" r="96.28" gradientTransform="matrix(-0.32, 0.07, -0.07, -0.32, 3254.98, 126.53)" xlink:href="#radial-gradient"/><radialGradient id="radial-gradient-38" cx="9516.66" cy="1102.58" r="117.58" gradientTransform="matrix(-0.33, 0.04, -0.04, -0.32, 3286.22, 124.93)" xlink:href="#radial-gradient"/><radialGradient id="radial-gradient-39" cx="9700.31" cy="328.66" r="96.3" gradientTransform="matrix(-0.33, 0.01, -0.01, -0.33, 3317.35, 125.5)" xlink:href="#radial-gradient"/><radialGradient id="radial-gradient-40" cx="9773.39" cy="-495.55" r="117.58" gradientTransform="matrix(-0.33, -0.01, 0.01, -0.33, 3347.11, 129.83)" xlink:href="#radial-gradient"/><radialGradient id="radial-gradient-41" cx="9823.53" cy="-1281.74" r="96.3" gradientTransform="matrix(-0.33, -0.04, 0.04, -0.33, 3377.59, 135.59)" xlink:href="#radial-gradient"/><radialGradient id="radial-gradient-42" cx="9764.78" cy="-2115.64" r="117.58" gradientTransform="matrix(-0.32, -0.07, 0.07, -0.32, 3406.99, 143.78)" xlink:href="#radial-gradient"/><radialGradient id="radial-gradient-43" cx="9677.63" cy="-2894.95" r="96.29" gradientTransform="matrix(-0.31, -0.09, 0.09, -0.31, 3435.22, 154.71)" xlink:href="#radial-gradient"/><radialGradient id="radial-gradient-44" cx="9487.85" cy="-3710.92" r="117.58" gradientTransform="matrix(-0.31, -0.12, 0.12, -0.31, 3463.09, 168.03)" xlink:href="#radial-gradient"/><radialGradient id="radial-gradient-45" cx="9269.22" cy="-4457.97" r="96.32" gradientTransform="matrix(-0.29, -0.14, 0.14, -0.29, 3489.11, 184.32)" xlink:href="#radial-gradient"/><radialGradient id="radial-gradient-46" cx="8949.58" cy="-5235.46" r="117.57" gradientTransform="matrix(-0.28, -0.17, 0.17, -0.28, 3514.26, 201.08)" xlink:href="#radial-gradient"/><radialGradient id="radial-gradient-47" cx="8604.59" cy="-5939.61" r="96.28" gradientTransform="matrix(-0.27, -0.19, 0.19, -0.27, 3537.18, 220)" xlink:href="#radial-gradient"/><radialGradient id="radial-gradient-48" cx="8167.78" cy="-6655.06" r="117.57" gradientTransform="matrix(-0.25, -0.21, 0.21, -0.25, 3558.98, 242.14)" xlink:href="#radial-gradient"/><radialGradient id="radial-gradient-49" cx="7714.72" cy="-7286.11" r="96.3" gradientTransform="matrix(-0.23, -0.23, 0.23, -0.23, 3579.21, 265.45)" xlink:href="#radial-gradient"/><radialGradient id="radial-gradient-50" cx="7164.36" cy="-7921.3" r="117.59" gradientTransform="matrix(-0.21, -0.25, 0.25, -0.21, 3596.63, 290.5)" xlink:href="#radial-gradient"/><radialGradient id="radial-gradient-51" cx="6604.91" cy="-8466.52" r="96.3" gradientTransform="matrix(-0.19, -0.27, 0.27, -0.19, 3612.43, 316.4)" xlink:href="#radial-gradient"/><radialGradient id="radial-gradient-52" cx="5966.21" cy="-9009.38" r="117.58" gradientTransform="matrix(-0.17, -0.28, 0.28, -0.17, 3627, 344.04)" xlink:href="#radial-gradient"/><radialGradient id="radial-gradient-53" cx="5317.44" cy="-9450.31" r="96.3" gradientTransform="matrix(-0.14, -0.29, 0.29, -0.14, 3637.48, 372.05)" xlink:href="#radial-gradient"/><radialGradient id="radial-gradient-54" cx="4602.66" cy="-9881.35" r="117.58" gradientTransform="matrix(-0.12, -0.3, 0.31, -0.12, 3646.65, 401.65)" xlink:href="#radial-gradient"/><radialGradient id="radial-gradient-55" cx="3891.06" cy="-10208.34" r="96.31" gradientTransform="matrix(-0.09, -0.31, 0.31, -0.09, 3653.2, 431.8)" xlink:href="#radial-gradient"/><radialGradient id="radial-gradient-56" cx="3112.2" cy="-10518.73" r="117.59" gradientTransform="matrix(-0.07, -0.32, 0.32, -0.07, 3656.57, 461.61)" xlink:href="#radial-gradient"/><radialGradient id="radial-gradient-57" cx="2355.07" cy="-10719.28" r="96.29" gradientTransform="matrix(-0.04, -0.32, 0.33, -0.04, 3658.56, 491.97)" xlink:href="#radial-gradient"/><radialGradient id="radial-gradient-58" cx="1541.12" cy="-10902.09" r="117.58" gradientTransform="matrix(-0.01, -0.33, 0.33, -0.01, 3657.67, 523.09)" xlink:href="#radial-gradient"/><radialGradient id="radial-gradient-59" cx="755.07" cy="-10969.55" r="96.29" gradientTransform="matrix(0.01, -0.33, 0.33, 0.01, 3653.91, 552.91)" xlink:href="#radial-gradient"/><radialGradient id="radial-gradient-60" cx="-73.3" cy="-11019.12" r="117.56" gradientTransform="matrix(0.04, -0.32, 0.33, 0.04, 3648.01, 582.74)" xlink:href="#radial-gradient"/><radialGradient id="radial-gradient-61" cx="-863.12" cy="-10952.41" r="96.29" gradientTransform="matrix(0.07, -0.32, 0.32, 0.07, 3638.94, 612.37)" xlink:href="#radial-gradient"/><radialGradient id="radial-gradient-62" cx="-1685.62" cy="-10867.25" r="117.6" gradientTransform="matrix(0.09, -0.31, 0.31, 0.09, 3627.21, 640.92)" xlink:href="#radial-gradient"/><radialGradient id="radial-gradient-63" cx="-2456.14" cy="-10670.03" r="96.29" gradientTransform="matrix(0.12, -0.3, 0.3, 0.12, 3614.77, 668.4)" xlink:href="#radial-gradient"/><radialGradient id="radial-gradient-64" cx="-3249.84" cy="-10452.8" r="117.58" gradientTransform="matrix(0.14, -0.29, 0.29, 0.14, 3598.62, 694.11)" xlink:href="#radial-gradient"/><radialGradient id="radial-gradient-65" cx="-3981.51" cy="-10127.99" r="96.29" gradientTransform="matrix(0.17, -0.28, 0.28, 0.17, 3581.25, 719.05)" xlink:href="#radial-gradient"/><radialGradient id="radial-gradient-66" cx="-4724.69" cy="-9786.79" r="117.57" gradientTransform="matrix(0.19, -0.27, 0.27, 0.19, 3561.76, 742.67)" xlink:href="#radial-gradient"/><radialGradient id="radial-gradient-67" cx="-5395.92" cy="-9340.23" r="96.3" gradientTransform="matrix(0.21, -0.25, 0.25, 0.21, 3539.9, 764.47)" xlink:href="#radial-gradient"/><radialGradient id="radial-gradient-68" cx="-6069.05" cy="-8885.64" r="117.57" gradientTransform="matrix(0.23, -0.23, 0.23, 0.23, 3516.91, 784.78)" xlink:href="#radial-gradient"/><radialGradient id="radial-gradient-69" cx="-6661.2" cy="-8331.57" r="96.28" gradientTransform="matrix(0.25, -0.21, 0.21, 0.25, 3492.2, 802.38)" xlink:href="#radial-gradient"/><radialGradient id="radial-gradient-70" cx="-7246.2" cy="-7774.89" r="117.56" gradientTransform="matrix(0.27, -0.19, 0.19, 0.27, 3465.86, 818.46)" xlink:href="#radial-gradient"/><radialGradient id="radial-gradient-71" cx="-7742.45" cy="-7127.15" r="96.31" gradientTransform="matrix(0.28, -0.17, 0.17, 0.28, 3437.79, 830.99)" xlink:href="#radial-gradient"/><radialGradient id="radial-gradient-72" cx="-8224.25" cy="-6485.03" r="117.57" gradientTransform="matrix(0.29, -0.14, 0.14, 0.29, 3410.16, 841.94)" xlink:href="#radial-gradient"/><radialGradient id="radial-gradient-73" cx="-8610.41" cy="-5761.03" r="96.29" gradientTransform="matrix(0.31, -0.12, 0.12, 0.31, 3380.93, 850.86)" xlink:href="#radial-gradient"/><radialGradient id="radial-gradient-74" cx="-8976.14" cy="-5051.82" r="117.56" gradientTransform="matrix(0.31, -0.09, 0.09, 0.31, 3351.14, 857.24)" xlink:href="#radial-gradient"/><radialGradient id="radial-gradient-75" cx="-9240.74" cy="-4270.06" r="96.31" gradientTransform="matrix(0.32, -0.07, 0.07, 0.32, 3320.05, 860.52)" xlink:href="#radial-gradient"/><radialGradient id="radial-gradient-76" cx="-9480.78" cy="-3514.46" r="117.58" gradientTransform="matrix(0.33, -0.04, 0.04, 0.33, 3289.2, 862.5)" xlink:href="#radial-gradient"/><linearGradient id="linear-gradient-2" x1="104.82" y1="236.02" x2="110.77" y2="230.08" gradientUnits="userSpaceOnUse"><stop offset="0" stop-color="#b68d5d"/><stop offset="0.07" stop-color="#bd9463"/><stop offset="0.51" stop-color="#e4c084"/><stop offset="1" stop-color="#b68d5d"/></linearGradient><filter id="luminosity-noclip-2" x="37.79" y="0" width="140.08" height="250.83" filterUnits="userSpaceOnUse" color-interpolation-filters="sRGB"><feFlood flood-color="#fff" result="bg"/><feBlend in="SourceGraphic" in2="bg"/></filter><mask id="mask-2" x="37.79" y="0" width="140.08" height="250.83" maskUnits="userSpaceOnUse"><g class="cls-1"><path class="cls-2" d="M107.83,250.83c-9.5,0-18.7-3.34-27.36-9.91-8.34-6.33-15.82-15.39-22.24-26.92-13.18-23.67-20.44-55.13-20.44-88.59S45.05,60.5,58.23,36.83C64.65,25.3,72.13,16.24,80.47,9.91,89.13,3.33,98.33,0,107.83,0s18.7,3.33,27.36,9.91c8.33,6.33,15.81,15.39,22.24,26.92C170.61,60.5,177.87,92,177.87,125.41s-7.26,64.92-20.44,88.59c-6.43,11.53-13.91,20.59-22.24,26.92C126.53,247.49,117.32,250.83,107.83,250.83Zm0-249.95C69.69.88,38.67,56.74,38.67,125.41S69.69,250,107.83,250,177,194.08,177,125.41,146,.88,107.83.88Z"/></g></mask><linearGradient id="linear-gradient-3" x1="50.75" y1="224.28" x2="164.91" y2="26.55" gradientUnits="userSpaceOnUse"><stop offset="0" stop-color="#e2b673"/><stop offset="0.54"/><stop offset="1" stop-color="#d0a86b"/></linearGradient><linearGradient id="linear-gradient-4" x1="1337" y1="644.53" x2="1457.22" y2="644.53" gradientTransform="translate(-425.79 -1318.41) rotate(44.94)" xlink:href="#linear-gradient-2"/><linearGradient id="linear-gradient-5" x1="22.08" y1="104.73" x2="79.79" y2="104.73" gradientTransform="translate(0.78 1.6) rotate(-0.05)" xlink:href="#linear-gradient-2"/><linearGradient id="linear-gradient-6" x1="2568.45" y1="107.03" x2="2626.16" y2="107.03" gradientTransform="matrix(-1, 0, 0, 1, 2761.11, 1.6)" xlink:href="#linear-gradient-2"/><linearGradient id="linear-gradient-7" x1="87.05" y1="85.85" x2="97.53" y2="85.85" gradientTransform="translate(96.94 -38.62) rotate(48.8)" xlink:href="#linear-gradient-2"/><linearGradient id="linear-gradient-8" x1="2635.64" y1="86.56" x2="2646.12" y2="86.56" gradientTransform="matrix(-0.75, -0.66, -0.66, 0.75, 2165.01, 1763.45)" xlink:href="#linear-gradient-2"/><linearGradient id="linear-gradient-9" x1="2655.13" y1="177.42" x2="2692.82" y2="177.42" gradientTransform="matrix(-0.86, -0.51, -0.51, 0.86, 2474.11, 1400.77)" xlink:href="#linear-gradient-2"/><linearGradient id="linear-gradient-10" x1="353.72" y1="179.49" x2="391.41" y2="179.49" gradientTransform="translate(89.2 -233.65) rotate(59.12)" xlink:href="#linear-gradient-2"/><linearGradient id="linear-gradient-11" x1="104.82" y1="20.75" x2="110.77" y2="14.8" xlink:href="#linear-gradient-2"/><linearGradient id="linear-gradient-12" x1="104.04" y1="50.16" x2="109.75" y2="40.28" gradientTransform="translate(0.78 1.6) rotate(-0.05)" xlink:href="#linear-gradient-2"/><linearGradient id="linear-gradient-13" x1="85.74" y1="70.56" x2="128.05" y2="70.56" gradientTransform="translate(0.78 1.6) rotate(-0.05)" xlink:href="#linear-gradient-2"/></defs><g id="레이어_2" data-name="레이어 2"><g id="레이어_1-2" data-name="레이어 1"><path class="cls-3" d="M107.82,125.85a.45.45,0,0,1-.32-.14L47.22,61.64a.43.43,0,0,1,0-.62.45.45,0,0,1,.62,0l60.28,64.07a.43.43,0,0,1,0,.62A.42.42,0,0,1,107.82,125.85Z"/><path class="cls-4" d="M107.82,125.85a.43.43,0,0,1-.34-.16l-67-84.26a.44.44,0,0,1,.69-.55l67,84.26a.44.44,0,0,1-.07.62A.47.47,0,0,1,107.82,125.85Z"/><path class="cls-5" d="M107.82,125.85a.42.42,0,0,1-.36-.2L58.58,52.53a.44.44,0,0,1,.12-.61.44.44,0,0,1,.61.12l48.88,73.13a.45.45,0,0,1-.37.68Z"/><path class="cls-6" d="M107.82,125.85a.44.44,0,0,1-.38-.22L55.23,31.47a.45.45,0,0,1,.17-.6.44.44,0,0,1,.6.18l52.21,94.15a.45.45,0,0,1-.17.6A.54.54,0,0,1,107.82,125.85Z"/><path class="cls-7" d="M107.82,125.85a.44.44,0,0,1-.4-.26L71.29,45.41a.44.44,0,1,1,.8-.36l36.13,80.18a.44.44,0,0,1-.22.58A.39.39,0,0,1,107.82,125.85Z"/><path class="cls-8" d="M107.82,125.85a.43.43,0,0,1-.41-.29L71.47,24.09a.44.44,0,0,1,.27-.56.45.45,0,0,1,.56.26l35.94,101.48a.44.44,0,0,1-.27.56Z"/><path class="cls-9" d="M107.82,125.85a.44.44,0,0,1-.42-.33L85,40.48a.45.45,0,0,1,.32-.54.44.44,0,0,1,.53.32l22.4,85a.44.44,0,0,1-.32.53Z"/><path class="cls-10" d="M107.82,125.85a.44.44,0,0,1-.43-.36L88.7,19.48a.45.45,0,0,1,.36-.51.44.44,0,0,1,.5.36l18.7,106a.45.45,0,0,1-.36.51Z"/><path class="cls-11" d="M107.82,125.85a.44.44,0,0,1-.44-.4l-8-87.57a.44.44,0,0,1,.4-.47.44.44,0,0,1,.48.39l8,87.57a.45.45,0,0,1-.4.48Z"/><rect class="cls-12" x="107.33" y="17.34" width="0.88" height="108.51" rx="0.44"/><path class="cls-13" d="M107.82,125.85h0a.44.44,0,0,1-.41-.47l6.53-87.7a.44.44,0,0,1,.47-.4.44.44,0,0,1,.41.47l-6.53,87.69A.45.45,0,0,1,107.82,125.85Z"/><path class="cls-14" d="M107.82,125.85h-.07a.44.44,0,0,1-.36-.51L124.25,19a.43.43,0,0,1,.5-.36.43.43,0,0,1,.36.5L108.26,125.48A.44.44,0,0,1,107.82,125.85Z"/><path class="cls-15" d="M107.82,125.85h-.1a.46.46,0,0,1-.33-.54l20.92-85.41a.45.45,0,0,1,.54-.32.44.44,0,0,1,.32.53l-20.92,85.41A.45.45,0,0,1,107.82,125.85Z"/><path class="cls-16" d="M107.82,125.85l-.14,0a.44.44,0,0,1-.27-.56L141.59,23.2a.44.44,0,0,1,.56-.28.44.44,0,0,1,.27.56L108.24,125.55A.43.43,0,0,1,107.82,125.85Z"/><path class="cls-17" d="M107.82,125.85a.33.33,0,0,1-.17,0,.42.42,0,0,1-.23-.57l34.74-80.8a.44.44,0,1,1,.8.35l-34.74,80.79A.43.43,0,0,1,107.82,125.85Z"/><path class="cls-18" d="M107.82,125.85a.35.35,0,0,1-.2,0,.42.42,0,0,1-.18-.59l50.57-95a.44.44,0,0,1,.59-.19.44.44,0,0,1,.18.6l-50.57,95A.43.43,0,0,1,107.82,125.85Z"/><path class="cls-19" d="M107.82,125.85a.44.44,0,0,1-.37-.68l47.61-74a.44.44,0,0,1,.6-.13.43.43,0,0,1,.13.61l-47.6,74A.44.44,0,0,1,107.82,125.85Z"/><path class="cls-20" d="M107.82,125.85a.44.44,0,0,1-.35-.7l65.58-85.4a.44.44,0,1,1,.69.53l-65.57,85.4A.46.46,0,0,1,107.82,125.85Z"/><path class="cls-21" d="M107.82,125.85a.4.4,0,0,1-.29-.12.43.43,0,0,1,0-.62L166.66,60a.44.44,0,0,1,.65.59L108.15,125.7A.44.44,0,0,1,107.82,125.85Z"/><path class="cls-22" d="M107.82,125.85a.43.43,0,0,1-.32-.14.45.45,0,0,1,0-.62L186.3,51.67a.44.44,0,0,1,.62,0,.43.43,0,0,1,0,.62l-78.78,73.41A.42.42,0,0,1,107.82,125.85Z"/><path class="cls-23" d="M107.82,125.85a.42.42,0,0,1-.34-.17.44.44,0,0,1,.07-.62l69.1-54.44a.44.44,0,1,1,.55.69l-69.11,54.44A.39.39,0,0,1,107.82,125.85Z"/><path class="cls-24" d="M107.82,125.85a.44.44,0,0,1-.24-.8L197.4,65.62a.44.44,0,0,1,.49.74l-89.82,59.42A.45.45,0,0,1,107.82,125.85Z"/><path class="cls-25" d="M107.82,125.85a.43.43,0,0,1-.38-.23.44.44,0,0,1,.17-.6l77.15-42.3a.43.43,0,0,1,.59.17.44.44,0,0,1-.17.6L108,125.79A.42.42,0,0,1,107.82,125.85Z"/><path class="cls-26" d="M107.82,125.85a.44.44,0,0,1-.18-.84l98.41-43.8a.44.44,0,1,1,.35.81L108,125.81A.39.39,0,0,1,107.82,125.85Z"/><path class="cls-27" d="M107.82,125.85a.44.44,0,0,1-.14-.86l83.07-29a.44.44,0,0,1,.29.83l-83.07,29A.4.4,0,0,1,107.82,125.85Z"/><path class="cls-28" d="M107.82,125.85a.44.44,0,0,1-.11-.86L212,98a.44.44,0,0,1,.53.32.43.43,0,0,1-.31.53l-104.29,27Z"/><path class="cls-29" d="M107.82,125.85a.44.44,0,0,1-.07-.87l86.73-14.92a.44.44,0,0,1,.5.36.44.44,0,0,1-.36.51l-86.73,14.91Z"/><path class="cls-30" d="M107.82,125.85a.43.43,0,0,1-.43-.4.42.42,0,0,1,.39-.47l107.32-9.41a.43.43,0,0,1,.47.4.44.44,0,0,1-.4.47l-107.31,9.41Z"/><path class="cls-31" d="M107.82,125.85a.44.44,0,0,1,0-.88l88-.41h0a.44.44,0,0,1,.44.44.44.44,0,0,1-.43.44l-88,.41Z"/><path class="cls-32" d="M215.22,134.26h0l-107.39-8.41a.45.45,0,0,1-.41-.47.45.45,0,0,1,.48-.4l107.39,8.41a.45.45,0,0,1,.41.47A.44.44,0,0,1,215.22,134.26Z"/><path class="cls-33" d="M194.68,140h-.07l-86.86-14.11a.44.44,0,1,1,.14-.86l86.86,14.1a.45.45,0,0,1,.37.51A.44.44,0,0,1,194.68,140Z"/><path class="cls-34" d="M212.36,151.86l-.11,0-104.53-26a.44.44,0,0,1-.32-.53.43.43,0,0,1,.53-.32l104.53,26a.44.44,0,0,1,.32.53A.45.45,0,0,1,212.36,151.86Z"/><path class="cls-35" d="M191.16,154.08a.36.36,0,0,1-.14,0l-83.34-28.24a.44.44,0,0,1-.28-.55A.45.45,0,0,1,108,125l83.34,28.24a.44.44,0,0,1,.28.56A.43.43,0,0,1,191.16,154.08Z"/><path class="cls-36" d="M206.63,168.74a.58.58,0,0,1-.18,0l-98.8-42.88A.44.44,0,0,1,108,125l98.8,42.88a.44.44,0,0,1-.17.85Z"/><path class="cls-37" d="M185.36,167.44a.54.54,0,0,1-.21-.05L107.61,125.8A.44.44,0,0,1,108,125l77.54,41.59a.45.45,0,0,1,.18.6A.47.47,0,0,1,185.36,167.44Z"/><path class="cls-38" d="M198.19,184.44a.44.44,0,0,1-.24-.07l-90.37-58.59a.44.44,0,0,1,.48-.74l90.37,58.59a.44.44,0,0,1,.13.61A.43.43,0,0,1,198.19,184.44Z"/><path class="cls-39" d="M177.43,179.65a.44.44,0,0,1-.27-.09l-69.61-53.8a.44.44,0,1,1,.54-.7l69.61,53.81a.44.44,0,0,1,.08.61A.46.46,0,0,1,177.43,179.65Z"/><path class="cls-40" d="M187.28,198.54a.44.44,0,0,1-.3-.12l-79.45-72.68a.43.43,0,0,1,0-.62.44.44,0,0,1,.62,0l79.46,72.68a.44.44,0,0,1,0,.62A.41.41,0,0,1,187.28,198.54Z"/><path class="cls-41" d="M167.59,190.39a.43.43,0,0,1-.32-.14L107.5,125.71a.44.44,0,0,1,.64-.6l59.77,64.54a.44.44,0,0,1-.32.74Z"/><path class="cls-42" d="M174.19,210.64a.46.46,0,0,1-.35-.17l-66.36-84.79a.43.43,0,0,1,.07-.61.44.44,0,0,1,.62.07l66.36,84.79a.44.44,0,0,1-.07.62A.46.46,0,0,1,174.19,210.64Z"/><path class="cls-43" d="M156.11,199.36a.45.45,0,0,1-.37-.2l-48.29-73.51a.44.44,0,0,1,.74-.48l48.29,73.51a.45.45,0,0,1-.13.61A.42.42,0,0,1,156.11,199.36Z"/><path class="cls-44" d="M159.28,220.42a.43.43,0,0,1-.39-.23l-51.45-94.57a.43.43,0,0,1,.17-.59.44.44,0,0,1,.6.17l51.45,94.57a.44.44,0,0,1-.17.6A.54.54,0,0,1,159.28,220.42Z"/><path class="cls-45" d="M143.31,206.32a.43.43,0,0,1-.4-.27l-35.49-80.46a.44.44,0,0,1,.8-.36l35.49,80.47a.44.44,0,0,1-.22.58A.58.58,0,0,1,143.31,206.32Z"/><path class="cls-46" d="M143,227.61a.44.44,0,0,1-.41-.3L107.41,125.56a.44.44,0,1,1,.83-.29L143.37,227a.44.44,0,0,1-.27.56Z"/><path class="cls-47" d="M129.53,211.06a.44.44,0,0,1-.42-.33l-21.72-85.21a.44.44,0,1,1,.86-.22L130,210.52a.44.44,0,0,1-.32.53Z"/><path class="cls-48" d="M125.67,232a.43.43,0,0,1-.43-.36L107.39,125.49a.44.44,0,1,1,.87-.15L126.1,231.49a.44.44,0,0,1-.36.51Z"/><path class="cls-49" d="M115.16,213.48a.44.44,0,0,1-.43-.41l-7.35-87.62a.44.44,0,0,1,.4-.48.45.45,0,0,1,.48.4L115.6,213a.44.44,0,0,1-.4.47Z"/><path class="cls-50" d="M107.89,233.49a.45.45,0,0,1-.44-.44l-.07-107.64a.44.44,0,0,1,.44-.44h0a.44.44,0,0,1,.44.44l.07,107.64a.44.44,0,0,1-.44.44Z"/><path class="cls-51" d="M100.59,213.48h0a.44.44,0,0,1-.41-.47l7.23-87.64a.45.45,0,0,1,.48-.4.44.44,0,0,1,.4.47L101,213.08A.44.44,0,0,1,100.59,213.48Z"/><path class="cls-52" d="M90.12,232h-.07a.44.44,0,0,1-.37-.5l17.71-106.18a.44.44,0,0,1,.5-.36.45.45,0,0,1,.37.51L90.55,231.66A.44.44,0,0,1,90.12,232Z"/><path class="cls-53" d="M86.22,211.09h-.11a.44.44,0,0,1-.32-.53l21.6-85.25a.44.44,0,0,1,.86.22l-21.6,85.24A.45.45,0,0,1,86.22,211.09Z"/><path class="cls-54" d="M72.83,227.65l-.15,0a.44.44,0,0,1-.27-.56l35-101.8A.44.44,0,0,1,108,125a.45.45,0,0,1,.27.56l-35,101.8A.43.43,0,0,1,72.83,227.65Z"/><path class="cls-55" d="M72.44,206.36a.39.39,0,0,1-.18,0,.43.43,0,0,1-.22-.57l35.38-80.52a.44.44,0,0,1,.8.36L72.84,206.1A.44.44,0,0,1,72.44,206.36Z"/><path class="cls-56" d="M56.49,220.49a.36.36,0,0,1-.2-.06.42.42,0,0,1-.18-.59l51.33-94.64a.44.44,0,0,1,.77.42L56.88,220.26A.45.45,0,0,1,56.49,220.49Z"/><path class="cls-57" d="M59.63,199.42a.4.4,0,0,1-.24-.07.43.43,0,0,1-.13-.6l48.19-73.58a.44.44,0,0,1,.74.48L60,199.23A.47.47,0,0,1,59.63,199.42Z"/><path class="cls-58" d="M41.57,210.73a.41.41,0,0,1-.27-.1.44.44,0,0,1-.08-.61l66.26-84.88a.44.44,0,0,1,.69.54L41.92,210.56A.46.46,0,0,1,41.57,210.73Z"/><path class="cls-59" d="M48.14,190.47a.42.42,0,0,1-.3-.12.44.44,0,0,1,0-.62l59.69-64.62a.44.44,0,1,1,.64.6L48.46,190.33A.45.45,0,0,1,48.14,190.47Z"/><path class="cls-60" d="M28.46,198.64a.45.45,0,0,1-.32-.14.44.44,0,0,1,0-.62l79.36-72.79a.44.44,0,1,1,.59.65L28.76,198.52A.42.42,0,0,1,28.46,198.64Z"/><path class="cls-61" d="M38.28,179.74a.4.4,0,0,1-.34-.17A.42.42,0,0,1,38,179l69.53-53.9a.44.44,0,0,1,.54.7L38.55,179.65A.44.44,0,0,1,38.28,179.74Z"/><path class="cls-62" d="M17.53,184.56a.45.45,0,0,1-.37-.2.45.45,0,0,1,.13-.61L107.58,125a.45.45,0,0,1,.61.13.44.44,0,0,1-.13.61L17.77,184.49A.51.51,0,0,1,17.53,184.56Z"/><path class="cls-63" d="M30.34,167.54a.43.43,0,0,1-.39-.23.44.44,0,0,1,.18-.59L107.61,125a.44.44,0,0,1,.42.78L30.55,167.49A.54.54,0,0,1,30.34,167.54Z"/><path class="cls-64" d="M9.07,168.87a.43.43,0,0,1-.4-.27A.44.44,0,0,1,8.9,168l98.75-43a.44.44,0,0,1,.58.23.45.45,0,0,1-.23.58l-98.75,43A.58.58,0,0,1,9.07,168.87Z"/><path class="cls-65" d="M24.51,154.19a.43.43,0,0,1-.41-.29.44.44,0,0,1,.27-.56L107.68,125a.44.44,0,0,1,.56.28.44.44,0,0,1-.28.55l-83.3,28.35A.39.39,0,0,1,24.51,154.19Z"/><path class="cls-66" d="M3.32,152a.44.44,0,0,1-.1-.86L107.72,125a.44.44,0,0,1,.53.32.44.44,0,0,1-.32.53L3.43,152Z"/><path class="cls-67" d="M21,140.07a.44.44,0,0,1-.43-.37.43.43,0,0,1,.36-.5L107.75,125a.44.44,0,0,1,.14.86L21.05,140.06Z"/><path class="cls-68" d="M.44,134.41A.45.45,0,0,1,0,134a.44.44,0,0,1,.4-.47L107.79,125a.44.44,0,1,1,.07.87L.47,134.41Z"/><path class="cls-69" d="M107.82,125.85h0l-88-.29a.44.44,0,0,1,0-.88h0l88,.29a.44.44,0,1,1,0,.88Z"/><path class="cls-70" d="M107.82,125.85h0L.46,116.58a.44.44,0,0,1-.4-.47.45.45,0,0,1,.48-.4L107.86,125a.44.44,0,0,1,0,.87Z"/><path class="cls-71" d="M107.82,125.85h-.07L21,111a.43.43,0,0,1-.36-.5.44.44,0,0,1,.51-.36L107.89,125a.44.44,0,0,1-.07.87Z"/><path class="cls-72" d="M107.82,125.85h-.11L3.39,99a.44.44,0,1,1,.22-.85L107.93,125a.44.44,0,0,1-.11.86Z"/><path class="cls-73" d="M107.82,125.85a.32.32,0,0,1-.14,0L24.56,96.93a.44.44,0,1,1,.29-.83L108,125a.45.45,0,0,1,.28.56A.46.46,0,0,1,107.82,125.85Z"/><path class="cls-74" d="M107.82,125.85a.39.39,0,0,1-.18,0L9.18,82.15a.44.44,0,0,1,.36-.81L108,125a.44.44,0,0,1-.18.84Z"/><path class="cls-75" d="M107.82,125.85a.42.42,0,0,1-.21-.06l-77.2-42.2a.44.44,0,0,1-.18-.6.44.44,0,0,1,.6-.17L108,125a.46.46,0,0,1,.18.6A.43.43,0,0,1,107.82,125.85Z"/><path class="cls-76" d="M107.82,125.85a.44.44,0,0,1-.24-.07l-89.9-59.3a.44.44,0,0,1-.12-.61.43.43,0,0,1,.6-.13l89.9,59.31a.43.43,0,0,1,.13.6A.44.44,0,0,1,107.82,125.85Z"/><path class="cls-77" d="M107.82,125.85a.41.41,0,0,1-.27-.1L38.37,71.4a.44.44,0,0,1,.55-.69l69.17,54.35a.44.44,0,0,1,.08.62A.46.46,0,0,1,107.82,125.85Z"/><path class="cls-78" d="M107.82,125.85a.46.46,0,0,1-.3-.12L28.65,52.42a.44.44,0,1,1,.6-.64l78.87,73.31a.44.44,0,0,1-.3.76Z"/><path class="cls-79" d="M103.59,233.05a4.21,4.21,0,1,1,4.2,4.2A4.2,4.2,0,0,1,103.59,233.05Z"/><g class="cls-80"><path class="cls-81" d="M107.83,250.83c-9.5,0-18.7-3.34-27.36-9.91-8.34-6.33-15.82-15.39-22.24-26.92-13.18-23.67-20.44-55.13-20.44-88.59S45.05,60.5,58.23,36.83C64.65,25.3,72.13,16.24,80.47,9.91,89.13,3.33,98.33,0,107.83,0s18.7,3.33,27.36,9.91c8.33,6.33,15.81,15.39,22.24,26.92C170.61,60.5,177.87,92,177.87,125.41s-7.26,64.92-20.44,88.59c-6.43,11.53-13.91,20.59-22.24,26.92C126.53,247.49,117.32,250.83,107.83,250.83Zm0-249.95C69.69.88,38.67,56.74,38.67,125.41S69.69,250,107.83,250,177,194.08,177,125.41,146,.88,107.83.88Z"/></g><rect class="cls-82" x="48.15" y="65.06" width="119.29" height="119.29" transform="translate(-56.62 112.96) rotate(-45.08)"/><path class="cls-83" d="M107.87,209.46a.44.44,0,0,1-.31-.13L23.1,125.1a.45.45,0,0,1,0-.63l84.3-84.39a.44.44,0,0,1,.62,0l84.46,84.24a.44.44,0,0,1,0,.62l-84.3,84.39a.44.44,0,0,1-.31.13ZM24,124.78l83.84,83.62,83.68-83.77L107.71,41Z"/><path class="cls-84" d="M23.41,125.22a.44.44,0,0,1-.26-.79l52.37-37a.44.44,0,0,1,.51.72L24.85,124.3l55.37-1.58a.44.44,0,0,1,0,.88l-56.83,1.62Z"/><path class="cls-85" d="M192.11,125.22h0l-56.83-1.62a.45.45,0,0,1-.43-.45.44.44,0,0,1,.45-.43l55.38,1.58L139.49,88.16a.45.45,0,0,1-.11-.62.45.45,0,0,1,.62-.1l52.36,37a.43.43,0,0,1,.17.49A.44.44,0,0,1,192.11,125.22Z"/><rect class="cls-86" x="85.7" y="86.93" width="14.9" height="0.88" transform="translate(-33.93 100.01) rotate(-48.85)"/><rect class="cls-87" x="121.92" y="79.89" width="0.88" height="14.9" transform="translate(-27.21 102.48) rotate(-41.3)"/><rect class="cls-88" x="88.93" y="142.3" width="0.88" height="71.84" transform="translate(-79.01 71.46) rotate(-30.99)"/><rect class="cls-89" x="90.44" y="177.79" width="71.84" height="0.88" transform="translate(-91.47 195.01) rotate(-59.07)"/><path class="cls-90" d="M103.59,17.78a4.21,4.21,0,1,1,4.2,4.2A4.2,4.2,0,0,1,103.59,17.78Z"/><rect class="cls-91" x="107.28" y="40.39" width="0.88" height="12.67"/><path class="cls-82" d="M113,74.94,126.76,72,113,69.17l4.44-6.81-6.8,4.45-2.91-13.75-2.87,13.75L98,62.38l4.45,6.8-13.76,2.9L102.49,75l-4.44,6.81,6.81-4.45,2.9,13.75,2.88-13.75,6.81,4.43Z"/><path class="cls-92" d="M107.76,93.2,104.56,78l-8,5.24,5.23-8L86.59,72.08l15.18-3.2-5.25-8,8,5.23,3.17-15.18,3.2,15.17,8-5.24-5.23,8L128.89,72l-15.17,3.2,5.24,8-8-5.22Zm-2.61-16.61,2.61,12.34,2.58-12.34,5.6,3.64-3.66-5.58,12.34-2.6-12.35-2.58,3.65-5.6-5.59,3.66L107.72,55.2l-2.58,12.33-5.59-3.64,3.65,5.58L90.86,72.08l12.35,2.58-3.65,5.59Z"/><polygon class="cls-82" points="107.64 157.01 107.61 123.83 95.65 149.2 97.37 154.91 103.16 159.1 103.61 157.01 107.64 157.01"/><polygon class="cls-82" points="112.57 161.17 111.68 157.45 103.96 157.45 103.15 161.18 107.9 165.01 112.57 161.17"/><polygon class="cls-82" points="119.83 149.17 108.05 123.69 108.08 157.01 112.03 157.01 112.52 159.09 118.12 154.89 119.83 149.17"/><polygon class="cls-82" points="114.7 106.58 100.82 106.59 107.86 122.24 114.7 106.58"/><polygon class="cls-82" points="77.63 88.72 77.66 88.7 77.69 88.76 92.89 97.94 92.92 97.98 98.08 106.16 100.06 106.15 93.6 96.06 77.06 86.52 75.78 87.8 75.79 103.75 77.28 88.51 77.63 88.72"/><polygon class="cls-82" points="129.15 106.2 135.41 122.08 139.75 108.07 137.9 89.5 129.15 106.2"/><polygon class="cls-82" points="117.94 106.14 128.69 106.13 137.49 89.35 122.96 98.16 117.94 106.14"/><polygon class="cls-82" points="122.64 97.84 122.69 97.81 138.23 88.38 139.75 103.62 139.74 87.67 138.45 86.38 121.93 95.96 115.44 106.14 117.42 106.14 122.64 97.84"/><polygon class="cls-82" points="120.26 149.27 118.5 155.15 112.64 159.56 113.06 161.34 108.35 165.21 113.32 166.81 144.74 147.36 131.37 138.14 120.26 149.27"/><path class="cls-82" d="M123.28,129,120.82,133a.24.24,0,0,1-.19.11h0l-6.75-1a.19.19,0,0,1-.17-.14.22.22,0,0,1,0-.22l4-4.4a.21.21,0,0,1,.21-.07l5.21,1.3,12.06-5.92-6.34-16.06H115.18l-7.07,16.19,12,26,11.19-11.21,13.36,9.21L135.32,123Z"/><polygon class="cls-82" points="107.9 165.57 107.86 165.54 103.11 167.22 107.91 170.16 112.83 167.12 107.95 165.54 107.9 165.57"/><polygon class="cls-82" points="78.08 89.51 86.86 106.17 97.56 106.16 92.57 98.26 78.08 89.51"/><polygon class="cls-82" points="120.52 132.65 122.78 128.92 117.92 127.71 114.32 131.71 120.52 132.65"/><polygon class="cls-82" points="86.4 106.24 77.62 89.57 75.8 108.21 80.15 122.16 86.4 106.24"/><path class="cls-82" d="M95.35,148.8l12.25-26v0h0l-7.28-16.18-13.61,0L80.4,122.75l11.94,5.82,5.2-1.3a.22.22,0,0,1,.22.07l4,4.39a.22.22,0,0,1,0,.22.2.2,0,0,1-.17.14l-6.75,1h0a.21.21,0,0,1-.19-.11l-2.47-4-11.92-5.82L71,146.85l13.19-9.23Z"/><polygon class="cls-82" points="107.46 165.22 102.67 161.35 103.05 159.57 96.99 155.18 95.22 149.3 84.09 138.19 70.88 147.43 102.94 167.11 102.84 166.85 107.46 165.22"/><polygon class="cls-82" points="101.13 131.72 97.52 127.73 92.66 128.95 94.93 132.67 101.13 131.72"/><path class="cls-93" d="M140.18,108.16l0,0V87.48l-1.66-1.65-16.86,9.78,0,0-6.71,10.5H100.58L93.91,95.74,77.13,86.05,77,86l-1.64,1.65v20.63l4.55,14.57-9.63,24.54-.06.17,37.7,23.15,37.51-23.22-9.75-24.73Zm-4.77,13.92-6.26-15.88,8.75-16.7,1.85,18.57Zm-6.72-16H117.94l5-8,14.53-8.81ZM121.93,96l16.52-9.58,1.29,1.28v16l-1.52-15.24-15.54,9.43,0,0-5.22,8.3h-2Zm-7.23,10.62-6.84,15.66-7-15.65ZM104,157.45h7.72l.89,3.72L107.9,165l-4.75-3.83Zm-6.59-2.54-1.72-5.71,12-25.37,0,33.18h-4l-.46,2.09Zm15.15,4.18L112,157h-4l0-33.32,11.78,25.48-1.71,5.72ZM75.78,87.8l1.28-1.29L93.6,96.06l6.46,10.09h-2L92.91,98l0,0-15.2-9.18,0-.06,0,0-.35-.21-1.49,15.24Zm21.78,18.36H86.85L78.08,89.51l14.49,8.75Zm-21.76,2,1.82-18.64,8.78,16.67-6.25,15.92Zm4.44,15L92.16,129l2.47,4a.21.21,0,0,0,.19.11h0l6.75-1a.2.2,0,0,0,.17-.14.22.22,0,0,0,0-.22l-4-4.39a.22.22,0,0,0-.22-.07l-5.2,1.3L80.4,122.75l6.33-16.14,13.61,0,7.28,16.18h0v0l-12.25,26L84.14,137.62,71,146.85ZM92.66,129l4.86-1.22,3.61,4-6.2.95ZM70.88,147.43l13.21-9.24L95.22,149.3,97,155.18l6.06,4.39-.38,1.78,4.79,3.87-4.62,1.63.1.26Zm37,22.73-4.8-2.94,4.75-1.68,0,0,0,0,4.88,1.58Zm5.41-3.35-5-1.6,4.71-3.87-.42-1.78,5.86-4.41,1.76-5.88,11.11-11.13,13.37,9.22Zm31.36-20-13.36-9.21-11.19,11.21-12-26,7.07-16.19h13.64l6.34,16.06-12.06,5.92-5.21-1.3a.21.21,0,0,0-.21.07l-4,4.4a.22.22,0,0,0,0,.22.19.19,0,0,0,.17.14l6.75,1h0a.24.24,0,0,0,.19-.11l2.46-4.05,12-5.91Zm-21.9-17.86-2.26,3.73-6.2-.94,3.6-4Z"/></g></g></svg>