<svg height="512pt" viewBox="-7 0 512 512" width="512pt" xmlns="http://www.w3.org/2000/svg"><path d="m345.796875 208.773438v20.742187c.015625 25.757813-10.210937 50.464844-28.425781 68.679687-18.210938 18.214844-42.917969 28.441407-68.675782 28.425782-6.34375.011718-12.671874-.609375-18.890624-1.855469l-60.472657-39.28125c-11.589843-16.355469-17.792969-35.921875-17.742187-55.96875v-132.414063c0-53.625 43.476562-97.101562 97.105468-97.101562 53.628907 0 97.101563 43.476562 97.101563 97.101562zm0 0" fill="#35495e"/><path d="m201.378906 353.191406c6.761719 2.585938 13.730469 4.59375 20.832032 6.003906 17.46875 3.644532 35.5 3.644532 52.964843 0 62.300781-14.113281 106.378907-69.6875 105.933594-133.5625v-40.253906c0-14.625 11.855469-26.480468 26.480469-26.480468s26.484375 11.855468 26.484375 26.480468v39.460938c-.078125 92.113281-67.734375 170.222656-158.898438 183.4375v50.757812h44.140625c14.625 0 26.480469 11.855469 26.480469 26.480469 0 14.628906-11.855469 26.484375-26.480469 26.484375h-141.242187c-14.628907 0-26.484375-11.855469-26.484375-26.484375 0-14.625 11.855468-26.480469 26.484375-26.480469h44.136719v-50.757812c-20.082032-2.835938-39.542969-9.046875-57.554688-18.363282l-55.96875-43.785156c-29.308594-33.601562-45.429688-76.699218-45.371094-121.289062v-39.460938c0-14.625 11.855469-26.480468 26.480469-26.480468s26.484375 11.855468 26.484375 26.480468v44.136719c-.03125 29.402344 9.789062 57.960937 27.894531 81.128906zm0 0" fill="#3b97d3"/><path d="m489.632812 64.9375-82.042968 82.042969-90.660156 90.65625-27.1875 27.191406-232.109376 232.109375c-10.34375 10.339844-27.109374 10.339844-37.453124 0l-12.421876-12.425781c-10.34375-10.339844-10.34375-27.109375 0-37.449219l431.996094-432c10.34375-10.34375 27.113282-10.34375 37.453125 0l12.425781 12.425781c10.339844 10.339844 10.339844 27.109375 0 37.449219zm0 0" fill="#ff5364"/></svg>