<svg id="레이어_1" data-name="레이어 1" xmlns="http://www.w3.org/2000/svg" xmlns:xlink="http://www.w3.org/1999/xlink" viewBox="0 0 1920 1080">
  <defs>
    <style>
      .cls-1 {
        fill: #88abd2;
      }

      .cls-2 {
        fill: url(#Dégradé_sans_nom_92);
      }

      .cls-3 {
        fill: url(#Dégradé_sans_nom_90);
      }

      .cls-4, .cls-5 {
        opacity: 0.47;
      }

      .cls-4 {
        fill: url(#Dégradé_sans_nom_45);
      }

      .cls-5 {
        fill: url(#Dégradé_sans_nom_45-2);
      }

      .cls-6 {
        fill: #92b7e2;
      }

      .cls-7 {
        fill: #377dbc;
      }

      .cls-8 {
        fill: url(#Dégradé_sans_nom_25);
      }

      .cls-9 {
        fill: url(#Dégradé_sans_nom_45-3);
      }

      .cls-10 {
        fill: url(#Dégradé_sans_nom_45-4);
      }
    </style>
    <radialGradient id="Dégradé_sans_nom_92" data-name="Dégradé sans nom 92" cx="1090.91" cy="536.2" r="96.05" gradientTransform="translate(-585.74 86.11) scale(1.61 1.11)" gradientUnits="userSpaceOnUse">
      <stop offset="0" stop-color="#105b8f"/>
      <stop offset="1" stop-color="#1a63a3"/>
    </radialGradient>
    <radialGradient id="Dégradé_sans_nom_90" data-name="Dégradé sans nom 90" cx="766.96" cy="672.5" r="170.11" gradientTransform="matrix(1.34, 0, 0, -1.11, -313.77, 1437.46)" gradientUnits="userSpaceOnUse">
      <stop offset="0" stop-color="#106097"/>
      <stop offset="1" stop-color="#1a63a3"/>
    </radialGradient>
    <linearGradient id="Dégradé_sans_nom_45" data-name="Dégradé sans nom 45" x1="1083.9" y1="516.08" x2="1110.98" y2="516.08" gradientTransform="matrix(1, 0, 0, -1, 0, 1220.03)" gradientUnits="userSpaceOnUse">
      <stop offset="0" stop-color="#78a7d9"/>
      <stop offset="0.25" stop-color="#78a7d9"/>
      <stop offset="1" stop-color="#2479be"/>
    </linearGradient>
    <linearGradient id="Dégradé_sans_nom_45-2" x1="1115.2" y1="507.63" x2="1132.47" y2="507.63" xlink:href="#Dégradé_sans_nom_45"/>
    <radialGradient id="Dégradé_sans_nom_25" data-name="Dégradé sans nom 25" cx="769.06" cy="437.59" r="171.66" gradientTransform="translate(-314.25 -611.51) scale(1.34 2.58)" gradientUnits="userSpaceOnUse">
      <stop offset="0" stop-color="#0b6faf"/>
      <stop offset="1" stop-color="#196bb1"/>
    </radialGradient>
    <linearGradient id="Dégradé_sans_nom_45-3" x1="1083.9" y1="489.9" x2="1110.98" y2="489.9" gradientTransform="matrix(1, 0, 0, 1, 0, 0)" xlink:href="#Dégradé_sans_nom_45"/>
    <linearGradient id="Dégradé_sans_nom_45-4" x1="1115.2" y1="470.54" x2="1132.47" y2="470.54" gradientTransform="matrix(1, 0, 0, 1, 0, 0)" xlink:href="#Dégradé_sans_nom_45"/>
  </defs>
  <path class="cls-1" d="M944.48,673.77s15.58.55,18,1.29,5.1,1.48,6.18.74,3.22,1.11,3.76.55,5.91,1.85,7.52,1.48,8.6,3.5,9.68,2.4,2.41-.37,4.29-1.11,7.26-.19,10.48-.74,7,.74,8.6-.55a11.34,11.34,0,0,1,5.37-2.77c3.23-.92,14.25-2.58,14.51-3.14s.41-32.37,0-32.09-90.27,0-90.27,0Z"/>
  <path class="cls-2" d="M961.75,639.8s15,3,23.65,11.07,21.49,14,29,17,10.75,2.95,14,5.91,4.3,5.9,12.89,8.11,8.23,4.84,12.57,7c10.21,5.12-4-1.1,16.45,7.75s14,6.64,20.42,8.85-2.15,4.43,15,6.65,9.67-2.22,17.19,2.21,11.83,5.9,16.13,4.43,9.67-2.22,17.19-5.17,17.2-.74,25.8-4.43,7.52,0,19.34-4.42,10.75-5.17,24.72-8.86,4.3-1.47,14-3.69,20.42,8.86,31.17,8.12,6.45,4.43,16.12,8.85,12.9,8.86,18.27,4.43,10.75-4.43,19.35-9.59,17.19-8.86,23.64-13.28,25.8-16.24,26.87-18.45,8.6-31.73,8.6-31.73Z"/>
  <path class="cls-3" d="M507.23,742a14.19,14.19,0,0,0,4,3.33c2.24,1.1-1.34,1.1,2.24,1.1a12.14,12.14,0,0,0,7.59-2.58c1.34-1.11,1.34,3,4,1.48s4.92,1.84,6.7,1.1,3.13-.37,4-2.21.9-3,2.24-3.69,7.59-.74,7.59-.74l3.13,1.48s5.81,1.47,7.15,1.1,7.15,3.69,8,2.22,4.47,0,4.91-1.48,3.13-.74,4-1.84,1.34-1.85,4-2.59,5.37-.36,5.81-1.47,4,.74,4.92-1.48,4.46-3.32,5.8-3.32a21,21,0,0,1,4.47,1.11s7.6.74,7.6-.74,5.8.74,5.8.74,3.58,1.47,4.47.37,3.13-.37,4.47-1.85,5.36-.73,5.81-1.84,2.68,2.95,4,2.95,5.36,2.21,5.36,2.21,8,2.59,9.38,1.85,3.57,4.06,6.25,3.32,5.36,2.58,6.7,2.58,5.81,3.32,6.71,1.85,3.12-1.85,4.46-3.69,5.36-.37,6.26-1.85,5.36-.37,6.7-2.21,3.13-3,4.47-4.43,9.38.74,10.27-1.84,3.58-3.69,4.92-5.54a24.84,24.84,0,0,1,3.57-3.69,46.71,46.71,0,0,1,5.36-4.42c3.13-2.22,6.25-1.11,8.49-2.22s.45-1.11,5.36-1.11,4.47,2.22,6.25,1.85,2.68,1.11,5.36,1.84,7.15,1.48,7.15,1.48-.89,1.48,3.13,0,7.15.37,11.17,0,7.15,1.84,8.93,1.11,7.6,1.84,8.94,0,4.91-2.59,4.91-2.59a22,22,0,0,0,4.47-1.1c1.79-.74,4,1.47,5.81.37s8-1.48,8-1.48,5.81-.74,5.81-1.84,4.91.36,4.91.36,4,2.59,5.81,2.22,8,3.32,8,3.32a97.15,97.15,0,0,1,10.72,0c3.57.37,6.26,3.32,8.49,2.58s6.7,1.11,8-.74,8-1.47,9.38-3.69,2.68-3.32,5.36-5.16-2.23,2.58,2.68-1.85,4.92-4.79,8.94-8.11,6.7-1.11,8-2.95,5.81,3.69,8,2.58,6.7,1.11,7.6-1.85,4.46-3.69,6.25-5.9,8-1.48,8.93-3.32,2.24-.37,4-1.84,5.36-1.11,6.7-1.48,6.25,2.58,8.93,1.11,8.94-1.48,8.94-1.48,5.81.35,8-2.21c8-9.23,15.19-10.33,17.42-12.55s36.19-24.72,60.31-32.46c3-1-631.69,0-631.69,0Z"/>
  <path class="cls-4" d="M1090.27,700.11c-.8,0,2,1.19-.27,1s-3.62.14-5.44.14.42,1.13,3,1.13c1.82,0,2.25,1.5,4.27,1.5s1.81,1.25,3.22,1.11,1,1.1,3.23.83-1.08.74.53.87a31,31,0,0,1,5.91,1.48c1.62.55,1.72-.09,2.83.32s4.63,1.09,3,.53-.07-1.08-1.88-1.22-.74-1.84-1.55-1.84,2.62-.7,1.21-1-.8-1.8-2.21-1.8.6-.83-1.82-1-1.82-2.72-3.36-2.67c-2,0,.54-1.48-1.68-.79a12.4,12.4,0,0,1-6,.44c-4-.43-4.51-.5-1.47.59C1094.1,700.67,1090.27,700.11,1090.27,700.11Z"/>
  <path class="cls-5" d="M1117.57,709.34c1,.34-1.66,1.32-1,1.44,1.11.18-1,.69.81.55s1.81-.55,3,.28l1.21.83c1.61,1.11-.4.83,1.61,1.11s1.63.91,3.5,1.5,5.86,1.92,5.07,1.29c-.4-.33-1.24-.67-2.12-1.39s-.6-1.4-1.61-1.82.81-.55,1.81-1,3.2-.42,2.39-1-.6-.76-1.6-.62-.42-1.51-2.23,0-.54-.55-3.36-.13-1.42-.45-2.43-.72,2.59-1.76,0-1.17c-.69.15-1.25.42-4.67,0S1114.15,708.09,1117.57,709.34Z"/>
  <path class="cls-6" d="M944.48,559.1s15.58-1.26,18-3,5.1-3.38,6.18-1.69,3.22-2.53,3.76-1.27,5.91-4.23,7.52-3.38,8.6-8,9.68-5.5,2.41.85,4.29,2.54,7.26.42,10.48,1.69,7-1.69,8.6,1.27,2.15,4.23,5.37,6.34,14.25,5.92,14.51,7.19.41,74.22,0,73.59-90.27,0-90.27,0Z"/>
  <path class="cls-7" d="M961.75,643s15-7,23.64-26.21a128.06,128.06,0,0,1,29-40.2c7.52-7,10.74-7,14-14s4.29-14,12.89-19.22,8.22-11.45,12.56-16.6c10.21-12.13-4,2.62,16.45-18.35s14-15.73,20.41-21-2.15-10.48,15-15.73,9.67,5.25,17.2-5.24,11.81-14,16.11-10.48,9.67,5.24,17.19,12.23,17.19,1.75,25.79,10.48,7.52,0,19.34,10.49,10.74,12.23,24.71,21,4.3,3.49,14,8.74,20.41-21,31.16-19.23,6.44-10.48,16.11-21,12.9-21,18.27-10.48,10.74,10.48,19.34,22.72,17.19,21,23.63,31.45,25.79,38.45,26.86,43.69,8.6,75.14,8.6,75.14Z"/>
  <path class="cls-8" d="M507,402.82s1.79-5.17,4-7.75-1.34-2.58,2.23-2.58,6.26,3.44,7.6,6,1.34-6.89,4-3.45,4.92-4.3,6.7-2.58,3.13.86,4,5.16.89,6.89,2.23,8.61,7.6,1.73,7.6,1.73l3.13-3.45s5.81-3.44,7.15-2.58,7.15-8.61,8-5.17,4.47,0,4.92,3.45,3.12,1.72,4,4.3,1.34,4.31,4,6,5.36.86,5.81,3.44,4-1.72,4.92,3.44,4.47,7.75,5.81,7.75,4.47-2.58,4.47-2.58,7.59-1.72,7.59,1.72,5.81-1.72,5.81-1.72,3.58-3.44,4.47-.86,3.13.86,4.47,4.3,5.36,1.73,5.81,4.31,2.68-6.89,4-6.89,5.36-5.16,5.36-5.16,8.05-6,9.39-4.31,3.57-9.47,6.26-7.75,5.36-6,6.7-6,5.81-7.75,6.7-4.31,3.13,4.31,4.47,8.61,5.37.86,6.26,4.31,5.36.86,6.7,5.16,3.13,6.89,4.47,10.33,9.39-1.72,10.28,4.31,3.58,8.6,4.92,12.91a61.66,61.66,0,0,0,3.57,8.61,98.84,98.84,0,0,0,5.36,10.33c3.13,5.16,6.26,2.58,8.5,5.16s.44,2.59,5.36,2.59,4.47-5.17,6.25-4.31,2.69-2.58,5.37-4.3a49.86,49.86,0,0,1,7.15-3.45s-.9-3.44,3.13,0,7.15-.86,11.17,0,7.15-4.3,8.94-2.58,7.59-4.3,8.93,0a10.5,10.5,0,0,0,4.92,6,13.24,13.24,0,0,1,4.47,2.58c1.79,1.72,4-3.44,5.81-.86s8,3.44,8,3.44,5.81,1.72,5.81,4.31,4.92-.86,4.92-.86,4-6,5.81-5.17,8-7.75,8-7.75,7.15.86,10.73,0,6.26-7.74,8.49-6,6.7-2.59,8,1.72,8,3.44,9.39,8.61A37.13,37.13,0,0,0,865,471.69c2.68,4.3-2.23-6,2.68,4.3s4.92,11.2,8.94,18.94,6.71,2.59,8,6.89,5.81-8.61,8-6,6.7-2.58,7.6,4.31,4.47,8.61,6.25,13.77,8,3.45,8.94,7.75,2.24.86,4,4.3,5.37,2.59,6.71,3.45,6.25-6,8.94-2.58,8.93,3.44,8.93,3.44a7.67,7.67,0,0,1,8,5.16c8,21.53,15.19,24.11,17.43,29.27s41.84,61.77,66,79.85c3,2.27-637.56-4.09-637.56-4.09Z"/>
  <path class="cls-9" d="M1090.27,498.71c-.8,0,2-2.72-.27-2.41s-3.62-.31-5.44-.31.42-2.59,3-2.59c1.82,0,2.25-3.44,4.27-3.44s1.81-2.85,3.22-2.54,1-2.53,3.23-1.9-1.08-1.69.53-2,4.3-2.11,5.91-3.38,1.72.21,2.83-.74,4.63-2.49,3-1.22-.07,2.49-1.88,2.81-.74,4.22-1.55,4.22,2.62,1.59,1.21,2.22-.8,4.13-2.21,4.13.6,1.9-1.82,2.22-1.82,6.23-3.36,6.13c-2-.13.54,3.38-1.68,1.8s-3.46-1.64-6-1c-4,1-4.51,1.15-1.47-1.35C1094.1,497.44,1090.27,498.71,1090.27,498.71Z"/>
  <path class="cls-10" d="M1117.57,477.57c1-.8-1.66-3-1-3.31,1.11-.42-1-1.58.81-1.27s1.81,1.27,3-.63l1.21-1.9c1.61-2.54-.4-1.91,1.61-2.54s1.63-2.09,3.5-3.44,5.86-4.4,5.07-3c-.4.74-1.24,1.54-2.12,3.17s-.6,3.23-1.61,4.18.81,1.27,1.81,2.22,3.2,1,2.39,2.24-.6,1.73-1.6,1.41-.42,3.45-2.23,0-.54,1.25-3.36.29-1.42,1-2.43,1.66,2.59,4,0,2.68c-.69-.36-1.25-1-4.67,0S1114.15,480.43,1117.57,477.57Z"/>
</svg>
