<svg id="레이어_1" data-name="레이어 1" xmlns="http://www.w3.org/2000/svg" xmlns:xlink="http://www.w3.org/1999/xlink" viewBox="0 0 1920 1080">
  <defs>
    <style>
      .cls-1 {
        fill: url(#Dégradé_sans_nom_83);
      }

      .cls-2 {
        fill: url(#Dégradé_sans_nom_86);
      }

      .cls-3 {
        fill: url(#Dégradé_sans_nom_58);
      }

      .cls-4 {
        fill: url(#Dégradé_sans_nom_64);
      }
    </style>
    <radialGradient id="Dégradé_sans_nom_83" data-name="Dégradé sans nom 83" cx="1173.86" cy="668.02" r="127.96" gradientTransform="matrix(2.21, 0, 0, -1.15, -1397.07, 1462.9)" gradientUnits="userSpaceOnUse">
      <stop offset="0" stop-color="#025390"/>
      <stop offset="1" stop-color="#075192"/>
    </radialGradient>
    <linearGradient id="Dégradé_sans_nom_86" data-name="Dégradé sans nom 86" x1="382.02" y1="515.89" x2="1054" y2="515.89" gradientTransform="matrix(1, 0, 0, -1, 0, 1220.03)" gradientUnits="userSpaceOnUse">
      <stop offset="0" stop-color="#1b2445"/>
      <stop offset="1" stop-color="#02457e"/>
    </linearGradient>
    <radialGradient id="Dégradé_sans_nom_58" data-name="Dégradé sans nom 58" cx="1173.86" cy="432.42" r="127.96" gradientTransform="translate(-1406.9 -617.52) scale(2.22 2.6)" gradientUnits="userSpaceOnUse">
      <stop offset="0" stop-color="#015797"/>
      <stop offset="1" stop-color="#065599"/>
    </radialGradient>
    <linearGradient id="Dégradé_sans_nom_64" data-name="Dégradé sans nom 64" x1="382.02" y1="482.96" x2="1061" y2="482.96" gradientUnits="userSpaceOnUse">
      <stop offset="0" stop-color="#1f294d"/>
      <stop offset="1" stop-color="#024884"/>
    </linearGradient>
  </defs>
  <path class="cls-1" d="M987,637s26.54,7.65,39.81,6.89,32.44,5.36,44.24,6.12-10.32-5.36,11.8.77,25.07,8.42,33.91,10.71,14.75,4.6,20.65,6.13,8.84,6.12,16.22,6.89,14.74,1.53,20.64,4.59,87,34.45,97.32,34.45,14.75,2.29,23.6,7.65-5.9.77,8.84,5.36,23.6,10,23.6,10l28,7.65s22.12,16.08,25.07,11.49,7.37.76,19.17-4.6,22.12-3.82,29.49-6.12,3,.77,20.65-3.06,44.23-2.3,66.35-5.36S1596,725,1596,725V637.77Z"/>
  <path class="cls-2" d="M1054,633s-42.69,15.27-67.8,15.27-30.48,10.67-36.62,10.67-5-1.51-13.39,1.88-3.35,3.4-8.37,3.4-7.26.75-10.05,0,.56,0-6.14,0-2.23-1.51-6.69,0-1.12,3.77-8.38,3.77-11.16,1.88-16.18,3-15.63,11.31-16.18,10.18-10.05,4.15-10.05,4.15-.56,2.26-5,2.26-3.35,2.26-10,2.64-14.51,3.39-19,3.77S795,702.63,795,701.13s-20.64,6-20.64,6-7.26,1.13-10.61.75-4.46,2.26-7.25,2.26,5.58-4.52-10,2.27-17.86,10.55-21.2,9.42-3.91-4.15-10.61-.38S699,729,699,729s-16.19,4.9-17.86,4.9-10,.75-10,.75-5,1.89-6.7,2.27-12.83.75-12.83.75-26.23,10.18-30.7,11.69-7.81,6.78-12.27,4.52-11.16-1.51-14.51-1.51H578.46c-4.46,0-5.58-.75-12.28,0s-21.2,5.28-21.2,5.28-2.24,0-11.16,2.26-38,8.29-43.53,7.54-31.26,6-35.72,6S382,780.29,382,780.29V628Z"/>
  <path class="cls-3" d="M985,640s26.63-17.33,39.94-15.6,32.55-12.13,44.39-13.86-10.36,12.13,11.83-1.73,25.15-19.07,34-24.27,14.79-10.39,20.71-13.86,8.88-13.86,16.27-15.6,14.8-3.46,20.72-10.39,87.28-78,97.64-78,14.79-5.2,23.67-17.33-5.92-1.73,8.88-12.13a111.81,111.81,0,0,0,23.67-22.53l28.1-17.33s22.2-36.39,25.15-26,7.4-1.74,19.24,10.39,22.19,8.67,29.59,13.87,3-1.74,20.71,6.93,44.38,5.2,66.57,12.13,79.89,26,79.89,26V638.27Z"/>
  <path class="cls-4" d="M1061,640s-43.14-33.69-68.51-33.69-30.79-23.55-37-23.55-5.07,3.32-13.53-4.16-3.38-7.49-8.46-7.49-7.33-1.66-10.15,0,.57,0-6.2,0-2.26,3.33-6.77,0-1.13-8.32-8.46-8.32-11.27-4.16-16.35-6.65-15.79-25-16.35-22.46-10.15-9.15-10.15-9.15-.57-5-5.08-5-3.38-5-10.15-5.82-14.66-7.49-19.17-8.32-25.37-19.13-25.37-15.8-20.87-13.31-20.87-13.31-7.33-2.5-10.71-1.67-4.51-5-7.33-5,5.64,10-10.15-5-18-23.29-21.43-20.8-3.95,9.16-10.71.84a188.85,188.85,0,0,0-15.79-16.64s-16.36-10.81-18-10.81-10.15-1.67-10.15-1.67a68.21,68.21,0,0,0-6.76-5c-1.7-.83-13-1.66-13-1.66s-26.51-22.46-31-25.79-7.89-15-12.4-10-11.28,3.32-14.66,3.32H580.51c-4.51,0-5.64,1.67-12.41,0s-21.43-11.64-21.43-11.64-2.25,0-11.27-5-38.35-18.3-44-16.64-31.57-13.31-36.09-13.31-73.3-15-73.3-15V651Z"/>
</svg>
