<svg xmlns="http://www.w3.org/2000/svg" viewBox="0 0 346 481.54"><defs><style>.cls-1{fill:#ff4106}.cls-7{stroke-miterlimit:10}.cls-4{fill:#b72934}.cls-6,.cls-7{fill:#fff}.cls-7{stroke:#fff;stroke-width:0.75px}</style></defs><g id="레이어_2" data-name="레이어 2"><g id="레이어_1-2" data-name="레이어 1"><path class="cls-1" filter="drop-shadow( 15px 20px 15px rgba(0, 0, 0, .7))" d="M0 105h287.22v331.61H0z"/><path stroke-miterlimit="10" stroke="#ad2500" stroke-width="3" fill="#ff4106" d="M12.5 117.5h263v306h-263z"/><path class="cls-1" d="M0 105l31-88h276l-19.78 88H0z"/><path stroke-miterlimit="10" stroke="#ad2500" stroke-width="3" d="M43.5 31.12L293 33l-17 72H16l27.5-73.88z"/><path class="cls-1" d="M31 17L87 0l259 3-39 14H31zM0 436.61h43.5v44.94H0zM244 436.61h43.5v44.94H244z"/><path class="cls-4" d="M346 3v387.65l-58.5 45.96-.28-331.61L307 17l39-14zM287.5 436.61v44.93L307 466v-44.71l-19.5 15.32zM329.1 403.93l16.9-13.28v45.96l-16.9 14.81v-47.49z"/><path fill="#ad2500" d="M43.5 31.12V105H16l27.5-73.88z"/><path class="cls-1" d="M280.5 79.5h-237l-25 24h256l6-24z"/><path class="cls-6" d="M53 253.8v67.19h103.03V253.8l-51.51 33.6L53 253.8z"/><path class="cls-6" d="M104.52 282.61l48.98-32.11H56.14l48.38 32.11z"/><path class="cls-7" d="M169.41 258.8v9.57h62.81a4.91 4.91 0 000-9.57zM169.41 279.8v9.57h62.81a4.91 4.91 0 000-9.57zM169.41 300.8v9.57h62.81a4.91 4.91 0 000-9.57z"/><g><path class="cls-6" d="M76.56 189.79H82v33.5h-5.44zm7.5 23.09a6.29 6.29 0 01-2.34-3l.32-5.21a5 5 0 00.49 2.3 3.29 3.29 0 001.4 1.46 4.5 4.5 0 002.22.5 4 4 0 003.17-1.28 5.37 5.37 0 001.12-3.65v-4.47a5.58 5.58 0 00-1.12-3.73 3.94 3.94 0 00-3.17-1.32 4.61 4.61 0 00-2.22.49 3.2 3.2 0 00-1.4 1.46 5.13 5.13 0 00-.49 2.32l-.48-4.94a8 8 0 012.68-3.22 6.36 6.36 0 013.68-1.14 7.81 7.81 0 014.33 1.17A7.34 7.34 0 0195 194a14.15 14.15 0 01.94 5.45V204a13.77 13.77 0 01-1 5.38 7.36 7.36 0 01-2.79 3.41A8 8 0 0187.8 214a6.57 6.57 0 01-3.74-1.12zM106.06 212.73a8.06 8.06 0 01-3.44-3.54 12.23 12.23 0 01-1.18-5.61v-3.88a12 12 0 011.18-5.54 8 8 0 013.44-3.51 12.79 12.79 0 0110.86 0 8 8 0 013.44 3.51 12 12 0 011.18 5.54v4a12 12 0 01-1.18 5.56 8.12 8.12 0 01-3.44 3.52 12.69 12.69 0 01-10.86 0zm8.8-5.35a5.36 5.36 0 001.19-3.73v-4a5.29 5.29 0 00-1.19-3.7 5 5 0 00-6.74 0 5.3 5.3 0 00-1.2 3.7v4a5.4 5.4 0 001.18 3.73 5 5 0 006.76 0zM127.74 189.79h5.71v23.82h-5.71zm11.91 5.21a5.11 5.11 0 00-1.86-.31 4.15 4.15 0 00-3.2 1.22 4.83 4.83 0 00-1.14 3.41l-.48-5.39a8.56 8.56 0 012.7-3.32 6.13 6.13 0 013.66-1.18 8.1 8.1 0 012.82.47 6.38 6.38 0 012.2 1.39l-3.35 4.62a3.6 3.6 0 00-1.35-.91zM151.56 212.71a8.39 8.39 0 01-3.65-3.64 12.29 12.29 0 01-1.26-5.79v-2.69a13.86 13.86 0 011.2-6 8.49 8.49 0 013.51-3.81 11.1 11.1 0 015.54-1.31 8.85 8.85 0 015.23 1.53 9.47 9.47 0 013.3 4.41 19.08 19.08 0 011.14 7v1.56h-16.18v-4h11.08v-.26a6.9 6.9 0 00-1.4-3.88 3.94 3.94 0 00-3.15-1.37 4.79 4.79 0 00-3.83 1.55 6.46 6.46 0 00-1.35 4.39v3a5.09 5.09 0 005.6 5.62 7.36 7.36 0 002.67-.51 8.15 8.15 0 002.38-1.44l3.58 3.35a13.21 13.21 0 01-4.08 2.63 11.83 11.83 0 01-4.55.93 12.31 12.31 0 01-5.78-1.27zM177.24 213.55a16.87 16.87 0 01-3.62-1.18 13.84 13.84 0 01-3-1.91l3.33-4.13a14.72 14.72 0 003.71 1.95 10.91 10.91 0 003.68.67 8.46 8.46 0 003.8-.68 2.12 2.12 0 001.29-2 1.74 1.74 0 00-.64-1.48 3.73 3.73 0 00-1.62-.68c-.65-.12-1.56-.24-2.74-.34l-.62-.05a6.18 6.18 0 01-.62-.07h-.36a22.42 22.42 0 01-4.11-.77A5.4 5.4 0 01173 201a6.41 6.41 0 01-1.09-4 7.42 7.42 0 011.09-4.14 6.69 6.69 0 013.2-2.55 13.88 13.88 0 015.19-.86 17.67 17.67 0 013.58.36 17.24 17.24 0 013.34 1 15.74 15.74 0 013 1.69l-3.29 4a15.2 15.2 0 00-3.38-1.54 11.32 11.32 0 00-3.32-.53 7 7 0 00-3.28.62 2 2 0 00-1.12 1.84 1.32 1.32 0 00.62 1.19 3.81 3.81 0 001.54.57c.63.09 1.52.2 2.7.3h.87a.63.63 0 01.19 0 25.24 25.24 0 014.38.75 5.88 5.88 0 013 2 6.81 6.81 0 011.22 4.37 7.56 7.56 0 01-1.15 4.26 7 7 0 01-3.41 2.62 15.25 15.25 0 01-5.54.88 19.69 19.69 0 01-4.1-.28zM195.07 189.79h11.2v4.79h-11.2zm3.85 22.34a7 7 0 01-1.39-4.72v-24.56H203v23.8a2.28 2.28 0 00.34 1.35 1.19 1.19 0 001 .47h1.91v5.25h-2.94a5.6 5.6 0 01-4.39-1.59z"/></g></g></g></svg>