<svg xmlns="http://www.w3.org/2000/svg" viewBox="0 0 209.41 42.71"><defs><style>.cls-1{fill:#fff3db;}.cls-2{fill:#423021;}.cls-3{font-size:12px;fill:#42210b;font-family:Papyrus-Regular, Papyrus;}</style></defs><g id="레이어_2" data-name="레이어 2"><g id="레이어_1-2" data-name="레이어 1"><path class="cls-1" d="M192.85,41.16h.37a50.07,50.07,0,0,0,5.2,0h.07l.4,0,.23,0,.24,0,.39,0h.08a12.05,12.05,0,0,0,4-1,3.23,3.23,0,0,0,1.54-1.3v0a.93.93,0,0,0,0-.13s0-.12,0-.22a1.3,1.3,0,0,0-.47-.93c-2.19-2.19-9.39-3-16.28-3L188,40.77l.74.07C189.73,40.93,191.18,41.07,192.85,41.16Z"/><path class="cls-1" d="M16.57,41.16h-.38a50.06,50.06,0,0,1-5.2,0h-.07l-.4,0-.23,0-.24,0-.39,0H9.58a12.05,12.05,0,0,1-4-1,3.15,3.15,0,0,1-1.53-1.3l0,0a.93.93,0,0,1,0-.13s0-.12,0-.22a1.3,1.3,0,0,1,.47-.93c2.19-2.19,9.39-3,16.28-3l.66,6.38-.74.07C19.68,40.93,18.23,41.07,16.57,41.16Z"/><path class="cls-2" d="M104.71,27h0c5.65-.38,19.37-1.26,33-1.85l-.93,9.06v.05a1.93,1.93,0,0,0,0,.48,5.08,5.08,0,0,0,1.32,2.6c2.65,3.22,11,1.86,22.51,0a195.61,195.61,0,0,1,23.45-2.83c1,0,2.12-.07,3.21-.07l-.72,7v.27l0,0,0,.05,0,0,0,.05,0,0,0,0,0,0,0,0,0,0,.05,0h0l.07,0h0l.07,0h0a61.65,61.65,0,0,0,8.69.64c3.11,0,6.28-.29,8.35-1.21,1.59-.71,2.54-1.65,2.74-2.72a1.1,1.1,0,0,0,0-.18h0l2.4-23.18c.23-2.28-2.83-3.56-4.68-4.12-6.32-1.92-14.34-1.94-22.5-1.21l.58-5.56c.13-1.26-1.35-2.31-4.39-3.12A40.53,40.53,0,0,0,172,.34c-12.56-1.22-53.65,1.18-67.27,2.2C91.08,1.52,50-.88,37.43.34A40.73,40.73,0,0,0,31,1.4c-3,.81-4.52,1.86-4.39,3.12l.58,5.56C19,9.35,11,9.37,4.69,11.29,2.84,11.85-.22,13.13,0,15.41l2.4,23.18h0a1.1,1.1,0,0,0,0,.18c.2,1.07,1.15,2,2.74,2.72,2.07.92,5.24,1.21,8.35,1.21a61.65,61.65,0,0,0,8.69-.64h0l.08,0h0l.07,0h0l.05,0,0,0,0,0,0,0,0,0,0,0,0-.05,0,0,0-.05,0,0v-.27l-.72-7c1.09,0,2.17,0,3.21.07a195.61,195.61,0,0,1,23.45,2.83c11.53,1.89,19.86,3.25,22.51,0a5.08,5.08,0,0,0,1.32-2.6,2.6,2.6,0,0,0,0-.48v-.05l-.94-9.06c13.66.59,27.38,1.47,33,1.85Zm0-23.09h.05c13.54-1,54.6-3.42,67.09-2.21a40.34,40.34,0,0,1,6.22,1c2.6.69,3.42,1.44,3.4,1.68l-2.23,21.46c-2.36-1.5-7.86-2.14-9.66-2.32l-1.94-.15c-1.53-.11-3.09-.18-4.6-.21-3.94-.08-8.73,0-13.84.12-15.13.37-33.59,1.48-44.49,2.27-10.91-.79-29.37-1.9-44.5-2.27-5.11-.14-9.9-.2-13.84-.12-1.51,0-3.07.1-4.6.21l-1.94.15c-1.8.18-7.3.82-9.66,2.32L27.94,4.38c0-.24.8-1,3.4-1.68a40.34,40.34,0,0,1,6.22-1c12.49-1.21,53.55,1.2,67.1,2.21Zm84,30.5c6.89,0,14.09.85,16.28,3a1.3,1.3,0,0,1,.47.93c0,.1,0,.17,0,.22a.93.93,0,0,1,0,.13v0a3.23,3.23,0,0,1-1.54,1.3,12.05,12.05,0,0,1-4,1h-.08l-.39,0-.24,0-.23,0-.4,0h-.07a50.07,50.07,0,0,1-5.2,0h-.37c-1.67-.09-3.12-.23-4.08-.32l-.74-.07ZM21.38,40.77l-.74.07c-1,.09-2.41.23-4.07.32h-.38a50.06,50.06,0,0,1-5.2,0h-.07l-.4,0-.23,0-.24,0-.39,0H9.58a12.05,12.05,0,0,1-4-1,3.15,3.15,0,0,1-1.53-1.3l0,0a.93.93,0,0,1,0-.13s0-.12,0-.22a1.3,1.3,0,0,1,.47-.93c2.19-2.19,9.39-3,16.28-3ZM163,24.61c12,.24,15.8,2.36,15.8,2.94,0,.16-.5.59-2,1a37.74,37.74,0,0,1-7.47,1c-1.62.09-3.76.12-6.1.14h-.32c-4.15,0-8.61,0-12.63.23-4.55.22-8.23.65-10.58,1.52a8.3,8.3,0,0,0-1.29.56l.73-7C148,24.71,156.68,24.49,163,24.61Zm-92.77.47.73,7a7.9,7.9,0,0,0-1.29-.56c-2.35-.87-6-1.3-10.58-1.52-4-.22-8.48-.25-12.63-.23h-.32c-2.34,0-4.48-.05-6.1-.14a37.74,37.74,0,0,1-7.47-1c-1.54-.45-2-.88-2-1,0-.58,3.76-2.7,15.79-2.94C52.74,24.49,61.44,24.71,70.27,25.08Zm137.8-9.81-2.16,20.79c-1.7-1.49-5.29-2.29-9.28-2.69A88.57,88.57,0,0,0,184,33c-1.28.05-2.57.13-3.86.22l-.3,0-.25,0-.43,0-1,.09-.46,0-1,.1-.48.05-1,.1-.79.1-.94.11-.92.11-.41.05-1,.14-.28,0-1.09.16h-.06c-3.27.47-6.47,1-9.49,1.48l-2.65.43c-8.26,1.33-15.17,2.26-17.7.63l-.08,0,0,0a2.64,2.64,0,0,1-.46-.42,5.6,5.6,0,0,1-.77-1.15,6.21,6.21,0,0,1-.12-1.29,1.58,1.58,0,0,1,.38-.43c2-1.63,10.06-2.42,24-2.35h.78c6.19,0,16.58-.42,16.7-3.6l1.67-16.18c8.11-.74,16.06-.75,22.25,1.13C206.21,13.14,208.18,14.15,208.07,15.27Zm-203-2.7c6.2-1.88,14.14-1.87,22.25-1.13L29,27.62c.12,3.18,10.51,3.62,16.7,3.6h.78c14-.07,22.07.72,24,2.35a1.42,1.42,0,0,1,.38.43,6.31,6.31,0,0,1-.11,1.29A6.15,6.15,0,0,1,70,36.44a2.32,2.32,0,0,1-.46.42l0,0-.07,0c-2.54,1.63-9.44.7-17.71-.63l-2.65-.43c-3-.49-6.22-1-9.49-1.48h-.06l-1.09-.16-.28,0-1-.14L36.77,34l-.92-.11-.94-.11-.79-.1-1-.1-.48-.05-1-.1-.46,0-1-.09-.43,0-.25,0-.3,0c-1.29-.09-2.58-.17-3.86-.22a88.41,88.41,0,0,0-12.6.36c-4,.4-7.59,1.2-9.29,2.69L1.35,15.27C1.23,14.15,3.2,13.14,5.08,12.57Z"/><path class="cls-1" d="M204.33,12.57c-6.19-1.88-14.14-1.87-22.25-1.13l-1.67,16.18c-.12,3.18-10.51,3.62-16.7,3.6h-.78c-14-.07-22.07.72-24,2.35a1.58,1.58,0,0,0-.38.43,6.21,6.21,0,0,0,.12,1.29,5.6,5.6,0,0,0,.77,1.15,2.64,2.64,0,0,0,.46.42l0,0,.08,0c2.53,1.63,9.44.7,17.7-.63l2.65-.43c3-.49,6.22-1,9.49-1.48h.06l1.09-.16.28,0,1-.14.41-.05.92-.11.94-.11.79-.1,1-.1.48-.05,1-.1.46,0,1-.09.43,0,.25,0,.3,0c1.29-.09,2.58-.17,3.86-.22a88.57,88.57,0,0,1,12.61.36c4,.4,7.58,1.2,9.28,2.69l2.16-20.79C208.18,14.15,206.21,13.14,204.33,12.57Z"/><path class="cls-1" d="M5.08,12.57c6.2-1.88,14.14-1.87,22.25-1.13L29,27.62c.12,3.18,10.51,3.62,16.7,3.6h.78c14-.07,22.07.72,24,2.35a1.42,1.42,0,0,1,.38.43,6.31,6.31,0,0,1-.11,1.29A6.15,6.15,0,0,1,70,36.44a2.32,2.32,0,0,1-.46.42l0,0-.07,0c-2.54,1.63-9.44.7-17.71-.63l-2.65-.43c-3-.49-6.22-1-9.49-1.48h-.06l-1.09-.16-.28,0-1-.14L36.77,34l-.92-.11-.94-.11-.79-.1-1-.1-.48-.05-1-.1-.46,0-1-.09-.43,0-.25,0-.3,0c-1.29-.09-2.58-.17-3.86-.22a88.41,88.41,0,0,0-12.6.36c-4,.4-7.59,1.2-9.29,2.69L1.35,15.27C1.23,14.15,3.2,13.14,5.08,12.57Z"/><path class="cls-1" d="M139.7,31.52c2.35-.87,6-1.3,10.58-1.52,4-.22,8.48-.25,12.63-.23h.32c2.34,0,4.48-.05,6.1-.14a37.74,37.74,0,0,0,7.47-1c1.54-.45,2-.88,2-1,0-.58-3.76-2.7-15.8-2.94-6.36-.12-15.07.1-23.9.47l-.73,7A8.3,8.3,0,0,1,139.7,31.52Z"/><path class="cls-1" d="M69.71,31.52c-2.35-.87-6-1.3-10.58-1.52-4-.22-8.48-.25-12.63-.23h-.32c-2.34,0-4.48-.05-6.1-.14a37.74,37.74,0,0,1-7.47-1c-1.54-.45-2-.88-2-1,0-.58,3.76-2.7,15.79-2.94,6.37-.12,15.07.1,23.9.47l.73,7A7.9,7.9,0,0,0,69.71,31.52Z"/><path class="cls-1" d="M104.71,25.55c10.9-.79,29.36-1.9,44.49-2.27,5.11-.14,9.9-.2,13.84-.12,1.51,0,3.07.1,4.6.21l1.94.15c1.8.18,7.3.82,9.66,2.32l2.23-21.46c0-.24-.8-1-3.4-1.68a40.34,40.34,0,0,0-6.22-1C159.36.46,118.3,2.87,104.76,3.88h-.1c-13.55-1-54.61-3.42-67.1-2.21a40.34,40.34,0,0,0-6.22,1c-2.6.69-3.42,1.44-3.4,1.68l2.23,21.46c2.36-1.5,7.86-2.14,9.66-2.32l1.94-.15c1.53-.11,3.09-.18,4.6-.21,3.94-.08,8.73,0,13.84.12C75.34,23.65,93.8,24.76,104.71,25.55Z"/><path class="cls-2" d="M119.3,3.86h0c-.58,0-1.15-.1-1.73-.07-.88,0-.88.12-1.76.17S114.9,3.9,114,4a5.45,5.45,0,0,0-.89.2c-.14,0-.27.08-.41.12a1.47,1.47,0,0,1-.4.1l-.15,0L112,4.35a.25.25,0,0,1-.09,0c-.16-.15.14-.4.29-.48a1.77,1.77,0,0,1,.61-.1L114,3.57c.89-.09.87-.23,1.76-.3s.9.07,1.79,0l1.77-.06a.46.46,0,0,1,.39.36v0c0,.09-.25.15-.33.19Z"/><path class="cls-2" d="M125.67,3.37c0,.12-.23.14-.65.21-.22,0-.48.13-.77.16s-.51,0-.79,0-.53,0-.78,0-.56.06-.78,0c-.42,0-.64-.14-.65-.26s.21-.27.63-.35c.22,0,.5.11.79.09s.5-.2.77-.21.54,0,.79,0,.56.08.79.1C125.44,3.16,125.66,3.25,125.67,3.37Z"/><path class="cls-2" d="M128.51,3c0,.14-.31.37-.67.41s-.69-.12-.7-.25.27-.26.63-.31S128.49,2.84,128.51,3Z"/><path class="cls-2" d="M90.11,3.86h0c.58,0,1.15-.1,1.73-.07.88,0,.88.12,1.76.17s.88-.06,1.76,0a5.45,5.45,0,0,1,.89.2c.14,0,.27.08.41.12a1.47,1.47,0,0,0,.4.1l.15,0,.18-.05a.25.25,0,0,0,.09,0c.16-.15-.14-.4-.29-.48a1.77,1.77,0,0,0-.61-.1l-1.17-.16c-.89-.09-.87-.23-1.76-.3s-.9.07-1.79,0l-1.77-.06a.46.46,0,0,0-.39.36v0c0,.09.25.15.33.19Z"/><path class="cls-2" d="M83.74,3.37c0,.12.23.14.65.21.22,0,.48.13.77.16s.52,0,.79,0,.53,0,.78,0,.56.06.78,0c.42,0,.65-.14.65-.26s-.21-.27-.63-.35c-.22,0-.5.11-.79.09s-.5-.2-.77-.21-.54,0-.79,0-.56.08-.79.1C84,3.16,83.75,3.25,83.74,3.37Z"/><path class="cls-2" d="M80.91,3c0,.14.3.37.67.41s.68-.12.69-.25-.27-.26-.63-.31S80.93,2.84,80.91,3Z"/><path class="cls-2" d="M139.92,3.46h0c-.61,0-1.2-.12-1.81-.13-.92,0-.92.07-1.85,0s-.91-.18-1.82-.21a4.08,4.08,0,0,0-.93.09l-.43.09a1.7,1.7,0,0,1-.39.09l-.15,0-.18,0s-.07,0-.09,0c-.18-.14.12-.41.28-.5a1.6,1.6,0,0,1,.65-.08,10.48,10.48,0,0,1,1.25,0c.93,0,.93-.09,1.84-.05s.91.16,1.83.18.91,0,1.82,0a.47.47,0,0,1,.41.37v0c0,.08-.26.14-.35.19Z"/><path class="cls-2" d="M146.52,2.75c0,.12-.23.15-.66.25-.23,0-.49.15-.79.19s-.53,0-.82.06-.55,0-.81,0-.58.08-.81.07c-.43,0-.67-.12-.68-.24s.21-.28.64-.36c.22-.05.52.08.82,0s.51-.22.79-.24.56-.07.82-.08.58,0,.82.06C146.28,2.55,146.51,2.64,146.52,2.75Z"/><path class="cls-2" d="M149.45,2.25c0,.14-.3.38-.68.44s-.71-.1-.73-.24.27-.27.65-.33S149.43,2.11,149.45,2.25Z"/><path class="cls-2" d="M69.49,3.46h0c.61,0,1.2-.12,1.81-.13.92,0,.92.07,1.85,0s.91-.18,1.82-.21a4.08,4.08,0,0,1,.93.09l.43.09a1.7,1.7,0,0,0,.39.09l.15,0,.18,0a.38.38,0,0,0,.1,0c.17-.14-.12-.41-.29-.5a1.57,1.57,0,0,0-.65-.08,10.48,10.48,0,0,0-1.25,0c-.92,0-.93-.09-1.84-.05s-.91.16-1.82.18-.92,0-1.83,0a.48.48,0,0,0-.41.37v0c0,.08.26.14.35.19Z"/><path class="cls-2" d="M62.89,2.75c0,.12.23.15.66.25.23,0,.49.15.79.19s.53,0,.82.06.55,0,.81,0,.58.08.81.07c.43,0,.67-.12.68-.24s-.21-.28-.64-.36c-.22-.05-.52.08-.82,0s-.5-.22-.79-.24-.56-.07-.82-.08-.58,0-.82.06C63.13,2.55,62.9,2.64,62.89,2.75Z"/><path class="cls-2" d="M60,2.25c0,.14.31.38.68.44s.72-.1.73-.24-.27-.27-.64-.33S60,2.11,60,2.25Z"/><path class="cls-2" d="M165.25,3.19h-.05c-.91-.06-1.79-.24-2.7-.29-1.37-.06-1.38,0-2.75,0s-1.38-.17-2.76-.2a13.37,13.37,0,0,0-1.42.07l-.68,0a3.43,3.43,0,0,1-.64,0,.93.93,0,0,1-.23,0l-.26-.08a.39.39,0,0,1-.13-.06c-.2-.17.32-.36.58-.42a4.31,4.31,0,0,1,.95,0l1.84,0c1.38,0,1.38-.1,2.77-.06s1.38.18,2.76.24l2.76.16a.62.62,0,0,1,.57.41V3c0,.08-.4.11-.54.14Z"/><path class="cls-2" d="M175.16,3.85c0,.12-.37.07-1,0-.35,0-.75,0-1.21,0s-.79-.09-1.21-.14-.82-.11-1.2-.16-.87,0-1.21-.09c-.64-.12-1-.24-1-.36s.36-.24,1-.24c.35,0,.78.18,1.23.21s.8-.1,1.22-.06.86.07,1.24.13.86.2,1.21.27C174.86,3.57,175.18,3.74,175.16,3.85Z"/><path class="cls-2" d="M179.1,5.21c-.07,0-.12-.17-.24-.28a1.55,1.55,0,0,0-.52-.32c-.22-.11-.44-.21-.6-.3s-.28-.19-.26-.26.12-.12.32-.13a1.71,1.71,0,0,1,.79.17,1.12,1.12,0,0,1,.63.69C179.28,5.07,179.16,5.22,179.1,5.21Z"/><path class="cls-2" d="M44.16,3.19h.05c.91-.06,1.79-.24,2.7-.29,1.37-.06,1.38,0,2.75,0s1.38-.17,2.76-.2a13.69,13.69,0,0,1,1.43.07l.67,0a3.43,3.43,0,0,0,.64,0,.85.85,0,0,0,.23,0l.26-.08a.39.39,0,0,0,.13-.06c.2-.17-.32-.36-.58-.42a4.31,4.31,0,0,0-1,0l-1.84,0c-1.38,0-1.38-.1-2.77-.06s-1.38.18-2.76.24l-2.76.16a.62.62,0,0,0-.57.41V3c.05.08.4.11.54.14Z"/><path class="cls-2" d="M34.25,3.85c0,.12.38.07,1,0,.35,0,.75,0,1.21,0s.79-.09,1.21-.14.82-.11,1.2-.16.87,0,1.21-.09c.64-.12,1-.24,1-.36s-.36-.24-1-.24c-.35,0-.78.18-1.23.21S38.07,3,37.64,3s-.86.07-1.24.13-.86.2-1.2.27C34.55,3.57,34.23,3.74,34.25,3.85Z"/><path class="cls-2" d="M30.31,5.21c.07,0,.12-.17.24-.28a1.66,1.66,0,0,1,.52-.32c.22-.11.44-.21.6-.3s.28-.19.27-.26-.13-.12-.33-.13a1.71,1.71,0,0,0-.79.17,1.12,1.12,0,0,0-.63.69C30.13,5.07,30.25,5.22,30.31,5.21Z"/><path class="cls-2" d="M116.66,23.64h0c-.57.08-1.15,0-1.72.08-.86.1-.85.18-1.72.29s-.87,0-1.74.07a6.56,6.56,0,0,0-.88.19l-.42.11a1.89,1.89,0,0,1-.4.08l-.14,0-.18-.06-.09-.05c-.14-.15.16-.39.32-.46a1.65,1.65,0,0,1,.59-.07l1.15-.13c.86-.11.85-.24,1.71-.34s.88,0,1.75-.08l1.72-.21a.45.45,0,0,1,.42.32v0c0,.09-.23.17-.31.22Z"/><path class="cls-2" d="M122.85,22.61c0,.11-.22.14-.63.25a6.39,6.39,0,0,1-.74.2c-.24,0-.5.06-.77.09s-.52,0-.76.05-.54.11-.76.11c-.41,0-.64-.08-.66-.19s.18-.3.58-.41c.21-.06.5.06.79,0s.46-.24.73-.28.53-.08.78-.1.56,0,.78,0C122.61,22.4,122.83,22.49,122.85,22.61Z"/><path class="cls-2" d="M125.63,22.72c-.06.13-.42.18-.74.12s-.6-.26-.59-.4.31-.23.7-.15S125.69,22.6,125.63,22.72Z"/><path class="cls-2" d="M92.75,23.64h0c.56.08,1.14,0,1.71.08.86.1.85.18,1.72.29s.88,0,1.74.07a6.56,6.56,0,0,1,.88.19l.42.11a1.89,1.89,0,0,0,.4.08l.14,0,.18-.06.09-.05c.15-.15-.16-.39-.31-.46a1.73,1.73,0,0,0-.6-.07L98,23.66c-.86-.11-.85-.24-1.71-.34s-.88,0-1.75-.08L92.83,23a.46.46,0,0,0-.42.32v0c0,.09.23.17.31.22Z"/><path class="cls-2" d="M86.57,22.61c0,.11.21.14.62.25a6.39,6.39,0,0,0,.74.2c.24,0,.5.06.77.09s.52,0,.76.05.54.11.76.11c.41,0,.64-.08.66-.19s-.18-.3-.58-.41c-.21-.06-.5.06-.79,0s-.46-.24-.73-.28-.53-.08-.78-.1-.56,0-.78,0C86.8,22.4,86.58,22.49,86.57,22.61Z"/><path class="cls-2" d="M83.78,22.72c.06.13.42.18.75.12s.59-.26.58-.4-.31-.23-.7-.15S83.72,22.6,83.78,22.72Z"/><path class="cls-2" d="M134.44,23h0c-.52.06-1,0-1.56,0-.8.07-.79.15-1.58.23s-.8-.05-1.59,0a5.28,5.28,0,0,0-.81.16l-.39.1a1.43,1.43,0,0,1-.36.06.35.35,0,0,1-.14,0l-.15-.06-.09-.05c-.13-.16.16-.38.3-.46a1.4,1.4,0,0,1,.54,0l1-.1c.8-.08.78-.21,1.57-.29s.81.05,1.6,0l1.58-.16c.19,0,.34.2.38.33v0c0,.09-.22.17-.29.21Z"/><path class="cls-2" d="M140.11,22.24c0,.11-.21.11-.58.18-.2,0-.42.12-.68.15l-.7,0c-.24,0-.48,0-.69,0s-.5.1-.7.08c-.37,0-.59-.09-.6-.21s.17-.29.53-.38c.2-.06.47.07.73,0s.43-.23.67-.24.5-.06.72-.06a4.46,4.46,0,0,1,.72.1C139.92,22,140.11,22.12,140.11,22.24Z"/><path class="cls-2" d="M142.68,22.3c0,.14-.35.28-.67.24s-.57-.24-.56-.38.28-.22.62-.18S142.7,22.17,142.68,22.3Z"/><path class="cls-2" d="M75,23h0c.52.06,1,0,1.57,0,.79.07.78.15,1.57.23s.8-.05,1.6,0a5.8,5.8,0,0,1,.81.16l.38.1a1.43,1.43,0,0,0,.36.06.35.35,0,0,0,.14,0l.16-.06.08-.05c.13-.16-.16-.38-.3-.46a1.38,1.38,0,0,0-.54,0l-1-.1c-.79-.08-.78-.21-1.57-.29s-.81.05-1.6,0L75,22.36c-.19,0-.34.2-.38.33v0c0,.09.21.17.28.21Z"/><path class="cls-2" d="M69.3,22.24c0,.11.21.11.58.18.2,0,.42.12.68.15l.7,0c.24,0,.48,0,.69,0s.5.1.7.08c.38,0,.59-.09.6-.21s-.17-.29-.53-.38c-.2-.06-.46.07-.72,0s-.44-.23-.68-.24-.5-.06-.72-.06a4.46,4.46,0,0,0-.72.1C69.49,22,69.3,22.12,69.3,22.24Z"/><path class="cls-2" d="M66.73,22.3c0,.14.36.28.68.24s.56-.24.55-.38-.28-.22-.62-.18S66.71,22.17,66.73,22.3Z"/><path class="cls-2" d="M153.71,22.15h0c-.64,0-1.28-.09-1.92-.07-1,0-1,.12-1.94.16s-1-.08-1.95,0a8,8,0,0,0-1,.14l-.48.09a1.36,1.36,0,0,1-.45.06l-.16,0-.19-.07-.1,0c-.15-.16.21-.38.38-.45a2.57,2.57,0,0,1,.68,0l1.29-.07c1-.06,1-.19,1.95-.24s1,.09,2,.05l2-.06a.48.48,0,0,1,.43.35v.05c0,.09-.27.15-.37.2Z"/><path class="cls-2" d="M160.73,21.8c0,.12-.26.11-.73.17-.25,0-.53.1-.85.11s-.56,0-.87,0-.58,0-.85,0-.61.05-.86,0c-.46-.05-.71-.15-.71-.26s.23-.28.69-.35c.24,0,.56.11.88.1s.55-.19.85-.19.61,0,.88,0a6.1,6.1,0,0,1,.87.14C160.49,21.56,160.73,21.68,160.73,21.8Z"/><path class="cls-2" d="M163.88,21.74c0,.14-.39.32-.79.31s-.73-.2-.73-.34.34-.24.74-.22S163.89,21.6,163.88,21.74Z"/><path class="cls-2" d="M55.7,22.15h0c.64,0,1.28-.09,1.92-.07,1,0,1,.12,1.94.16s1-.08,2,0a8.59,8.59,0,0,1,1,.14l.47.09a1.36,1.36,0,0,0,.45.06.76.76,0,0,0,.16,0l.19-.07a.23.23,0,0,0,.1,0c.15-.16-.21-.38-.38-.45a2.57,2.57,0,0,0-.68,0l-1.29-.07c-1-.06-1-.19-1.94-.24s-1,.09-2,.05l-2-.06a.49.49,0,0,0-.44.35v.05c0,.09.28.15.37.2Z"/><path class="cls-2" d="M48.68,21.8c0,.12.26.11.73.17.25,0,.53.1.85.11s.57,0,.87,0,.58,0,.85,0,.61.05.86,0c.46-.05.71-.15.71-.26s-.23-.28-.69-.35c-.24,0-.56.11-.88.1s-.55-.19-.85-.19-.61,0-.88,0a6.1,6.1,0,0,0-.87.14C48.92,21.56,48.68,21.68,48.68,21.8Z"/><path class="cls-2" d="M45.53,21.74c0,.14.39.32.79.31s.73-.2.73-.34-.33-.24-.74-.22S45.52,21.6,45.53,21.74Z"/><path class="cls-2" d="M171.37,23.27h0c-.48-.08-.91-.3-1.39-.39-.71-.12-.73,0-1.45-.16s-.7-.25-1.41-.35a3.14,3.14,0,0,0-.75,0l-.35,0a1.16,1.16,0,0,1-.32,0l-.12-.05-.13-.07s-.06,0-.07-.06.15-.37.29-.43.36,0,.52,0c.33,0,.66.06,1,.1.73.1.75,0,1.48.09s.7.24,1.42.37l1.44.26c.17,0,.24.28.24.42v.05c0,.08-.23.1-.31.13Z"/><path class="cls-2" d="M176.56,24.11c0,.11-.21.06-.57,0-.18,0-.4,0-.64,0s-.41-.11-.63-.16-.42-.12-.61-.17-.46-.05-.63-.12c-.33-.13-.49-.26-.47-.37s.23-.23.58-.22c.18,0,.38.2.62.24s.44-.1.67-.05.44.08.64.14.43.21.6.28C176.45,23.84,176.59,24,176.56,24.11Z"/><path class="cls-2" d="M178.88,24.59c0,.13-.36.24-.66.16s-.48-.32-.44-.45.29-.17.59-.1S178.91,24.45,178.88,24.59Z"/><path class="cls-2" d="M38,23.27h0c.48-.08.91-.3,1.39-.39.72-.12.73,0,1.45-.16s.7-.25,1.41-.35a3.14,3.14,0,0,1,.75,0l.35,0a1.16,1.16,0,0,0,.32,0l.12-.05.14-.07s0,0,.07-.06-.16-.37-.3-.43-.36,0-.52,0c-.33,0-.66.06-1,.1-.73.1-.75,0-1.47.09s-.71.24-1.43.37l-1.44.26c-.17,0-.24.28-.24.42v.05c0,.08.23.1.31.13Z"/><path class="cls-2" d="M32.85,24.11c0,.11.22.06.57,0,.18,0,.4,0,.64,0s.41-.11.63-.16.42-.12.61-.17.47-.05.64-.12c.32-.13.48-.26.46-.37s-.23-.23-.58-.22c-.18,0-.38.2-.62.24s-.44-.1-.66-.05-.45.08-.65.14-.43.21-.6.28C33,23.84,32.82,24,32.85,24.11Z"/><path class="cls-2" d="M30.53,24.59c0,.13.37.24.66.16s.48-.32.44-.45-.29-.17-.59-.1S30.5,24.45,30.53,24.59Z"/><path class="cls-2" d="M145.2,29.65h0c-.49.09-1,.05-1.5.16a4.52,4.52,0,0,0-.74.21,7.17,7.17,0,0,1-.73.22c-.74.2-.77.08-1.51.31a4.64,4.64,0,0,0-.72.32l-.34.18a1.07,1.07,0,0,1-.32.16h-.13l-.17,0a.16.16,0,0,1-.09,0c-.17-.12,0-.4.16-.51s.35-.12.5-.18l1-.32c.75-.23.71-.36,1.46-.57a3.27,3.27,0,0,1,.78-.12,6,6,0,0,0,.77-.11l.76-.16c.19,0,.38-.08.77-.14.18,0,.34.18.39.31v.05c0,.09-.19.17-.26.23Z"/><path class="cls-2" d="M150.67,28.92c0,.12-.2.11-.57.17-.19,0-.41.11-.66.14s-.44,0-.68,0h-.67c-.25,0-.48.08-.67.07-.36,0-.57-.09-.58-.21s.15-.29.51-.39c.19-.05.45.08.71,0s.42-.22.66-.23.48,0,.7,0a5.62,5.62,0,0,1,.7.12C150.49,28.68,150.68,28.8,150.67,28.92Z"/><path class="cls-2" d="M153.17,28.91c0,.14-.32.31-.64.29S152,29,152,28.84s.27-.24.6-.21S153.19,28.77,153.17,28.91Z"/><path class="cls-2" d="M64.21,29.65h0c.49.09,1,.05,1.5.16a4.24,4.24,0,0,1,.74.21,7.17,7.17,0,0,0,.73.22c.74.2.77.08,1.51.31a5.22,5.22,0,0,1,.73.32l.33.18a1.07,1.07,0,0,0,.32.16h.14l.16,0a.14.14,0,0,0,.09,0c.17-.12,0-.4-.16-.51s-.35-.12-.5-.18l-1-.32c-.75-.23-.71-.36-1.46-.57a3.28,3.28,0,0,0-.77-.12,5.85,5.85,0,0,1-.78-.11l-.76-.16c-.19,0-.38-.08-.76-.14-.19,0-.35.18-.4.31v.05c0,.09.19.17.26.23Z"/><path class="cls-2" d="M58.74,28.92c0,.12.2.11.57.17.19,0,.41.11.66.14s.44,0,.68,0h.67c.25,0,.48.08.67.07.36,0,.57-.09.58-.21s-.15-.29-.51-.39c-.19-.05-.45.08-.7,0s-.43-.22-.67-.23-.48,0-.7,0a5.62,5.62,0,0,0-.7.12C58.92,28.68,58.74,28.8,58.74,28.92Z"/><path class="cls-2" d="M56.24,28.91c0,.14.32.31.64.29s.56-.22.56-.36-.27-.24-.6-.21S56.22,28.77,56.24,28.91Z"/><path class="cls-2" d="M149.22,28h-.05c-.83.09-1.66,0-2.48.17l-.75.12-.5.12c-.31.08-.62.14-1.24.27a10.93,10.93,0,0,1-1.25.21,10.14,10.14,0,0,0-1.25.24,13.1,13.1,0,0,0-1.25.42l-.57.24a2.88,2.88,0,0,1-.56.2.75.75,0,0,1-.21,0,1,1,0,0,1-.25,0,.32.32,0,0,1-.14,0c-.23-.1.18-.44.38-.56a4,4,0,0,1,.85-.26l1.64-.46a9.87,9.87,0,0,0,1.23-.37,10,10,0,0,1,1.24-.33,8.19,8.19,0,0,1,1.28-.18l.52,0,.75-.09.76-.12.52-.06c.31,0,.63-.08,1.27-.14a.6.6,0,0,1,.58.32v.05c0,.09-.35.17-.47.23Z"/><path class="cls-2" d="M158.35,27.72c0,.11-.35.07-1,.08-.32,0-.69.05-1.11,0s-.73,0-1.13-.05l-1.1-.07h-.6a3.09,3.09,0,0,1-.52,0c-.6-.05-.92-.14-.93-.25s.3-.28.9-.36a2.06,2.06,0,0,1,.54,0,3.11,3.11,0,0,0,.62.06c.35,0,.72-.18,1.12-.16s.8,0,1.16,0a11.13,11.13,0,0,1,1.12.22C158.07,27.44,158.36,27.6,158.35,27.72Z"/><path class="cls-2" d="M162.45,28.19c0,.14-.55.24-1.07.15s-.91-.33-.89-.47.46-.19,1-.09S162.47,28.06,162.45,28.19Z"/><path class="cls-2" d="M60.19,28h.05c.83.09,1.66,0,2.49.17l.74.12.5.12c.31.08.62.14,1.24.27a10.93,10.93,0,0,0,1.25.21,9.81,9.81,0,0,1,1.25.24,13.1,13.1,0,0,1,1.25.42l.57.24a2.88,2.88,0,0,0,.56.2.75.75,0,0,0,.21,0,1,1,0,0,0,.25,0,.32.32,0,0,0,.14,0c.23-.1-.18-.44-.38-.56a4,4,0,0,0-.85-.26l-1.64-.46a9.87,9.87,0,0,1-1.23-.37A9.48,9.48,0,0,0,65.35,28a8.19,8.19,0,0,0-1.28-.18l-.52,0-.75-.09L62,27.56l-.51-.06-1.28-.14a.6.6,0,0,0-.58.32v.05c0,.09.35.17.47.23Z"/><path class="cls-2" d="M51.06,27.72c0,.11.35.07,1,.08.32,0,.69.05,1.11,0s.73,0,1.13-.05l1.1-.07H56a3.13,3.13,0,0,0,.52,0c.6-.05.93-.14.93-.25s-.3-.28-.9-.36a2.08,2.08,0,0,0-.54,0,3.08,3.08,0,0,1-.61.06c-.36,0-.73-.18-1.13-.16s-.8,0-1.15,0a10.82,10.82,0,0,0-1.13.22C51.34,27.44,51.05,27.6,51.06,27.72Z"/><path class="cls-2" d="M47,28.19c0,.14.56.24,1.07.15s.91-.33.89-.47-.46-.19-1-.09S46.94,28.06,47,28.19Z"/><path class="cls-2" d="M150.92,26.09h-1.5c-.24,0-.49,0-.73,0l-.72,0-.87.09-.59.11-.59.11c-.23,0-.5.07-.86.14a14.27,14.27,0,0,1-1.46.21c-.36.06-.73.11-1.45.28-.49.13-1,.33-1.44.5l-.33.14-.33.14a5,5,0,0,1-.63.27l-.24,0-.3,0h-.15c-.26-.08.2-.46.44-.61a5.05,5.05,0,0,1,1-.34c.63-.19,1.26-.39,1.9-.56a14.82,14.82,0,0,0,1.44-.42c.36-.1.72-.2,1.46-.34a8,8,0,0,1,.88-.11l.61,0,.61,0,.88-.06.88-.08.61,0,.6,0c.24,0,.52,0,.89,0a.68.68,0,0,1,.65.36v.05c0,.08-.41.15-.56.19Z"/><path class="cls-2" d="M161.56,26.32c0,.12-.4.07-1.11.06-.38,0-.81,0-1.3,0s-.85-.07-1.31-.11l-1.29-.12c-.48,0-.93,0-1.3,0-.69-.08-1.07-.19-1.06-.31s.36-.25,1.06-.29c.38,0,.84.15,1.33.17s.85-.15,1.31-.11.92.05,1.34.1.93.19,1.3.26C161.23,26,161.57,26.2,161.56,26.32Z"/><path class="cls-2" d="M166.34,26.75c0,.14-.62.26-1.23.19s-1.08-.32-1.06-.46.52-.18,1.13-.11S166.36,26.62,166.34,26.75Z"/><path class="cls-2" d="M58.49,26.09H60c.24,0,.49,0,.73,0l.72,0,.87.09.59.11.59.11c.23,0,.5.07.86.14a14.27,14.27,0,0,0,1.46.21c.37.06.73.11,1.45.28.5.13,1,.33,1.44.5l.33.14.33.14a5,5,0,0,0,.63.27l.24,0,.3,0h.15c.27-.08-.2-.46-.44-.61a5.05,5.05,0,0,0-1-.34c-.63-.19-1.26-.39-1.9-.56s-1.08-.3-1.44-.42-.72-.2-1.46-.34a8,8,0,0,0-.88-.11l-.61,0-.61,0-.88-.06-.88-.08-.61,0-.6,0c-.24,0-.51,0-.89,0a.68.68,0,0,0-.65.36v.05c0,.08.42.15.56.19Z"/><path class="cls-2" d="M47.85,26.32c0,.12.4.07,1.11.06.38,0,.81,0,1.3,0s.85-.07,1.31-.11l1.29-.12c.48,0,.93,0,1.3,0,.69-.08,1.07-.19,1.07-.31s-.37-.25-1.07-.29c-.37,0-.84.15-1.33.17s-.85-.15-1.31-.11-.92.05-1.34.1-.93.19-1.3.26C48.18,26,47.84,26.2,47.85,26.32Z"/><path class="cls-2" d="M43.07,26.75c0,.14.62.26,1.23.19s1.08-.32,1.06-.46-.52-.18-1.13-.11S43.05,26.62,43.07,26.75Z"/><path class="cls-2" d="M147.31,32.92h0c-.69.1-1.38,0-2.07.15-1,.16-1,.24-2.08.4a9,9,0,0,1-1.05.12,4.87,4.87,0,0,0-1,.15,4.28,4.28,0,0,0-1,.4l-.42.25a2.34,2.34,0,0,1-.39.25.94.94,0,0,1-.15.06l-.2,0-.11,0c-.23,0,0-.45.11-.61a1.85,1.85,0,0,1,.68-.36,8.2,8.2,0,0,1,1.37-.47c.52-.12.78-.2,1-.28a5.85,5.85,0,0,1,1-.25c1.05-.17,1.07,0,2.12-.19s1.05-.16,2.1-.29a.52.52,0,0,1,.51.31v.05c0,.09-.28.18-.38.23Z"/><path class="cls-2" d="M154.87,32c0,.12-.27.13-.77.21-.27.05-.57.14-.92.18s-.61,0-.94.05-.63,0-.92,0-.66.1-.92.1c-.51,0-.79-.08-.8-.2s.23-.29.72-.4c.26-.06.62.06,1,0s.58-.24.91-.26.66-.07,1-.08.68.06.95.08C154.61,31.76,154.87,31.86,154.87,32Z"/><path class="cls-2" d="M158.3,31.76c0,.14-.41.34-.85.34s-.8-.16-.8-.3.34-.25.79-.26S158.3,31.62,158.3,31.76Z"/><path class="cls-2" d="M62.1,32.92h0c.69.1,1.38,0,2.07.15,1.05.16,1,.24,2.08.4a9,9,0,0,0,1,.12,4.87,4.87,0,0,1,1,.15,4.28,4.28,0,0,1,1,.4l.42.25a2.34,2.34,0,0,0,.39.25l.15.06.2,0,.12,0c.22,0,0-.45-.12-.61a1.85,1.85,0,0,0-.68-.36,8.2,8.2,0,0,0-1.37-.47c-.52-.12-.78-.2-1-.28a5.85,5.85,0,0,0-1-.25c-1.05-.17-1.07,0-2.12-.19s-1.05-.16-2.1-.29a.53.53,0,0,0-.51.31v.05c0,.09.28.18.38.23Z"/><path class="cls-2" d="M54.54,32c0,.12.27.13.77.21.27.05.57.14.92.18s.61,0,.94.05.63,0,.92,0,.66.1.93.1c.5,0,.78-.08.79-.2s-.23-.29-.72-.4c-.26-.06-.62.06-1,0s-.58-.24-.91-.26-.66-.07-1-.08-.68.06-.95.08C54.8,31.76,54.54,31.86,54.54,32Z"/><path class="cls-2" d="M51.11,31.76c0,.14.41.34.85.34s.8-.16.8-.3-.34-.25-.79-.26S51.12,31.62,51.11,31.76Z"/><path class="cls-2" d="M150.7,34.17h0c-.92,0-1.83,0-2.75,0-1.4.12-1.39.19-2.77.37-.69.1-1,.13-1.38.17a4.27,4.27,0,0,0-.56.07,6.62,6.62,0,0,0-.81.17,6.12,6.12,0,0,0-.69.22c-.22.08-.45.16-.66.26l-.62.29a3.83,3.83,0,0,1-.58.27l-.22,0-.27,0h-.15c-.26-.07.15-.47.36-.63a4.09,4.09,0,0,1,.92-.36c.59-.21,1.19-.4,1.8-.56l.82-.21.55-.16a9.86,9.86,0,0,1,1.39-.31c1.41-.18,1.43,0,2.83-.16s1.41-.1,2.81-.16a.66.66,0,0,1,.63.34V34c0,.09-.39.16-.53.21Z"/><path class="cls-2" d="M160.79,33.44c0,.12-.37.14-1,.22-.35,0-.75.14-1.22.17s-.81,0-1.25.05-.84,0-1.22,0-.89.09-1.24.07c-.66,0-1-.1-1-.22s.33-.29,1-.38c.35,0,.81.09,1.27,0s.78-.22,1.21-.24.87-.06,1.27-.06.89.06,1.25.08C160.44,33.22,160.78,33.33,160.79,33.44Z"/><path class="cls-2" d="M165.32,33.13c0,.14-.53.36-1.12.38s-1.06-.14-1.06-.28.46-.26,1-.29S165.32,33,165.32,33.13Z"/><path class="cls-2" d="M58.71,34.17h0c.92,0,1.83,0,2.75,0,1.4.12,1.39.19,2.77.37.69.1,1,.13,1.38.17a4.27,4.27,0,0,1,.56.07A6.62,6.62,0,0,1,67,35a5.05,5.05,0,0,1,.69.22c.22.08.45.16.66.26l.62.29a4.35,4.35,0,0,0,.58.27l.22,0,.28,0h.14c.26-.07-.15-.47-.36-.63a4.09,4.09,0,0,0-.92-.36c-.59-.21-1.19-.4-1.8-.56l-.82-.21-.55-.16a9.53,9.53,0,0,0-1.39-.31c-1.41-.18-1.42,0-2.83-.16s-1.41-.1-2.81-.16a.65.65,0,0,0-.62.34V34c0,.09.4.16.53.21Z"/><path class="cls-2" d="M48.62,33.44c0,.12.37.14,1,.22.35,0,.75.14,1.22.17s.81,0,1.25.05.84,0,1.22,0,.89.09,1.24.07c.66,0,1-.1,1-.22s-.33-.29-1-.38c-.35,0-.81.09-1.27,0s-.78-.22-1.21-.24-.87-.06-1.27-.06-.89.06-1.25.08C49,33.22,48.63,33.33,48.62,33.44Z"/><path class="cls-2" d="M44.09,33.13c0,.14.53.36,1.12.38s1.06-.14,1.06-.28-.46-.26-1-.29S44.09,33,44.09,33.13Z"/><path class="cls-2" d="M150,35.81h0c-.73.06-1.47,0-2.2.06a9,9,0,0,0-1.1.17c-.28.06-.55.1-1.1.19a9.9,9.9,0,0,1-1.11.12,7.62,7.62,0,0,0-1.11.15,8.28,8.28,0,0,0-1.1.35l-.51.2a2,2,0,0,1-.49.17h-.41a.35.35,0,0,1-.12,0c-.21-.12.14-.42.33-.54a3.1,3.1,0,0,1,.75-.22l1.46-.35a8.46,8.46,0,0,0,1.1-.29,9.14,9.14,0,0,1,1.1-.25,5.91,5.91,0,0,1,1.13-.08c.29,0,.57,0,1.13-.07l1.12-.11L150,35.2a.54.54,0,0,1,.51.33v0c0,.09-.31.17-.42.22Z"/><path class="cls-2" d="M158,35c0,.11-.28.14-.82.24-.28,0-.6.15-1,.19s-.65,0-1,.05-.68,0-1,0-.71.09-1,.07c-.53,0-.83-.1-.83-.22s.26-.29.78-.38c.27,0,.64.08,1,.05s.62-.22,1-.24.69-.07,1-.08.72,0,1,.06C157.75,34.8,158,34.89,158,35Z"/><path class="cls-2" d="M161.64,34.46c0,.14-.39.39-.86.46s-.86-.08-.87-.22.34-.27.8-.35S161.61,34.33,161.64,34.46Z"/><path class="cls-2" d="M59.42,35.81h0c.73.06,1.47,0,2.2.06a9,9,0,0,1,1.1.17c.28.06.55.1,1.1.19a9.9,9.9,0,0,0,1.11.12,7.62,7.62,0,0,1,1.11.15,8.28,8.28,0,0,1,1.1.35l.51.2a2.38,2.38,0,0,0,.49.17h.41a.35.35,0,0,0,.12,0c.21-.12-.14-.42-.32-.54a3.31,3.31,0,0,0-.76-.22l-1.46-.35a7.79,7.79,0,0,1-1.09-.29A9.94,9.94,0,0,0,64,35.55a5.91,5.91,0,0,0-1.13-.08c-.29,0-.57,0-1.13-.07l-1.12-.11-1.12-.09a.54.54,0,0,0-.52.33v0c0,.09.31.17.42.22Z"/><path class="cls-2" d="M51.37,35c0,.11.28.14.82.24.28,0,.6.15,1,.19s.65,0,1,.05.68,0,1,0,.71.09,1,.07c.53,0,.83-.1.83-.22s-.25-.29-.78-.38c-.27,0-.64.08-1,.05s-.62-.22-1-.24-.69-.07-1-.08-.72,0-1,.06C51.66,34.8,51.38,34.89,51.37,35Z"/><path class="cls-2" d="M47.77,34.46c0,.14.39.39.86.46s.86-.08.88-.22-.35-.27-.81-.35S47.8,34.33,47.77,34.46Z"/><path class="cls-2" d="M193.75,36.29h0c-.48,0-.94-.2-1.43-.24-.73,0-.73,0-1.47,0s-.72-.17-1.46-.21a4.85,4.85,0,0,0-.76,0l-.36,0a1,1,0,0,1-.35,0l-.11-.05-.14-.08s-.06,0-.07-.06.18-.36.32-.41.35,0,.51,0l1,0c.74,0,.75-.1,1.48-.05s.73.17,1.47.23.74,0,1.47.12c.18,0,.28.25.29.39v0c0,.08-.22.12-.29.16Z"/><path class="cls-2" d="M199,36.6c0,.12-.21.09-.56.1a6.32,6.32,0,0,1-.65,0c-.21,0-.42-.06-.65-.09s-.43-.08-.63-.11-.47,0-.65-.06c-.34-.09-.51-.21-.5-.32s.2-.25.56-.28c.18,0,.4.16.64.18s.44-.14.67-.11.45,0,.66.07.45.17.63.22C198.9,36.34,199.06,36.49,199,36.6Z"/><path class="cls-2" d="M201.42,36.85c0,.14-.34.28-.64.23s-.52-.27-.5-.41.29-.2.59-.15S201.44,36.71,201.42,36.85Z"/><path class="cls-2" d="M15.66,36.29h0c.48,0,.94-.2,1.43-.24.73,0,.74,0,1.47,0s.72-.17,1.46-.21a4.77,4.77,0,0,1,.76,0l.36,0a1,1,0,0,0,.35,0l.12-.05.13-.08s.06,0,.07-.06-.18-.36-.32-.41-.35,0-.51,0l-1,0c-.74,0-.75-.1-1.48-.05s-.73.17-1.47.23-.74,0-1.47.12c-.18,0-.28.25-.29.39v0c0,.08.22.12.29.16Z"/><path class="cls-2" d="M10.37,36.6c0,.12.21.09.56.1a6.32,6.32,0,0,0,.65,0c.21,0,.43-.06.65-.09s.44-.08.63-.11.47,0,.65-.06c.34-.09.52-.21.5-.32s-.2-.25-.55-.28c-.19,0-.41.16-.65.18s-.44-.14-.67-.11-.45,0-.66.07-.45.17-.63.22C10.51,36.34,10.35,36.49,10.37,36.6Z"/><path class="cls-2" d="M8,36.85c0,.14.34.28.64.23s.52-.27.5-.41-.28-.2-.59-.15S8,36.71,8,36.85Z"/><path class="cls-2" d="M194,37.88h0c-.48,0-.94-.2-1.43-.23-.73,0-.74,0-1.47,0s-.72-.18-1.46-.22a4.83,4.83,0,0,0-.76,0l-.36,0a1.32,1.32,0,0,1-.34,0,.27.27,0,0,1-.12-.06l-.14-.08-.06-.06c-.1-.18.19-.36.33-.41s.35,0,.5,0l1,.06c.73,0,.74-.09,1.48,0s.72.18,1.46.23l1.47.1c.18,0,.27.26.28.4v0c0,.08-.22.12-.3.16Z"/><path class="cls-2" d="M199.25,38.07c0,.12-.2.1-.56.12a5.75,5.75,0,0,1-.65.05c-.2,0-.42-.05-.65-.07s-.43-.07-.63-.1-.47,0-.65,0c-.34-.09-.52-.2-.51-.32s.2-.25.55-.29c.19,0,.41.16.65.16s.43-.14.66-.12.46,0,.66.05a5.45,5.45,0,0,1,.64.2C199.1,37.82,199.27,38,199.25,38.07Z"/><path class="cls-2" d="M201.63,38.21c0,.14-.32.3-.63.27s-.52-.26-.51-.39.27-.22.58-.18S201.65,38.07,201.63,38.21Z"/><path class="cls-2" d="M15.45,37.88h0c.48,0,.95-.2,1.43-.23.73,0,.74,0,1.47,0s.72-.18,1.46-.22a4.83,4.83,0,0,1,.76,0l.36,0a1.37,1.37,0,0,0,.35,0,.24.24,0,0,0,.11-.06l.14-.08.07-.06c.09-.18-.2-.36-.33-.41a1.25,1.25,0,0,0-.51,0l-1,.06c-.73,0-.74-.09-1.48,0s-.72.18-1.46.23l-1.46.1c-.18,0-.28.26-.29.4v0c0,.08.22.12.3.16Z"/><path class="cls-2" d="M10.16,38.07c0,.12.2.1.56.12a5.75,5.75,0,0,0,.65.05c.2,0,.42-.05.65-.07s.43-.07.63-.1.47,0,.65,0c.34-.09.52-.2.51-.32s-.2-.25-.55-.29c-.19,0-.41.16-.65.16s-.43-.14-.66-.12-.46,0-.66.05a5.45,5.45,0,0,0-.64.2C10.31,37.82,10.15,38,10.16,38.07Z"/><path class="cls-2" d="M7.78,38.21c0,.14.32.3.63.27s.52-.26.51-.39-.27-.22-.58-.18S7.76,38.07,7.78,38.21Z"/><path class="cls-2" d="M193.77,39.6h0c-.45,0-.88-.2-1.34-.23-.68,0-.69,0-1.37,0s-.68-.18-1.36-.23a4.18,4.18,0,0,0-.71,0l-.34,0a.86.86,0,0,1-.32,0l-.11,0-.13-.09L188,39c-.09-.18.19-.35.32-.4s.32,0,.47,0l.91.06c.68.05.69-.08,1.38,0s.67.18,1.36.23l1.37.09c.17,0,.26.26.27.39v.05c0,.09-.21.13-.28.17Z"/><path class="cls-2" d="M198.73,39.66c0,.12-.19.1-.52.14s-.38.07-.61.07-.4,0-.61,0l-.6-.08c-.22,0-.43,0-.6,0s-.49-.18-.48-.3.19-.26.51-.3.38.15.61.15.4-.16.61-.15.43,0,.62,0a3.59,3.59,0,0,1,.6.18C198.58,39.41,198.74,39.54,198.73,39.66Z"/><path class="cls-2" d="M201,39.71c0,.14-.29.31-.58.29s-.5-.23-.48-.37.24-.22.53-.2S201,39.57,201,39.71Z"/><path class="cls-2" d="M15.64,39.6h0c.45,0,.88-.2,1.34-.23.68,0,.69,0,1.37,0s.68-.18,1.36-.23a4.18,4.18,0,0,1,.71,0l.34,0a.87.87,0,0,0,.32,0l.11,0,.13-.09L21.4,39c.09-.18-.19-.35-.32-.4s-.32,0-.47,0l-.91.06c-.68.05-.69-.08-1.38,0s-.67.18-1.36.23L15.59,39c-.17,0-.26.26-.27.39v.05c0,.09.21.13.28.17Z"/><path class="cls-2" d="M10.68,39.66c0,.12.19.1.53.14.17,0,.37.07.6.07s.4,0,.61,0l.6-.08c.22,0,.43,0,.6,0,.32-.08.49-.18.48-.3s-.19-.26-.51-.3-.38.15-.61.15-.4-.16-.61-.15-.43,0-.62,0a3.59,3.59,0,0,0-.6.18C10.83,39.41,10.67,39.54,10.68,39.66Z"/><path class="cls-2" d="M8.46,39.71c0,.14.29.31.58.29s.5-.23.48-.37-.24-.22-.53-.2S8.45,39.57,8.46,39.71Z"/><path class="cls-2" d="M192.31,12.63h0c-.81,0-1.59-.18-2.4-.18a11.37,11.37,0,0,0-1.22.05l-1.22.06c-1.22,0-1.22-.08-2.44,0-.43,0-.84.1-1.26.17l-.59.11a2.72,2.72,0,0,1-.56.09,1.2,1.2,0,0,1-.2,0l-.24-.05-.13-.05c-.19-.16.26-.39.48-.47a3.86,3.86,0,0,1,.84-.08l1.63-.12c1.23-.06,1.22-.2,2.45-.24a9.65,9.65,0,0,1,1.23,0,11,11,0,0,0,1.23.06h1.23c.31,0,.62,0,1.23,0a.58.58,0,0,1,.52.39v.05c0,.08-.36.13-.48.16Z"/><path class="cls-2" d="M201.09,13.2c0,.12-.34.06-.93,0-.31,0-.66,0-1.07,0s-.7-.09-1.07-.14L197,12.91c-.4-.06-.77,0-1.07-.08-.57-.11-.87-.23-.87-.35s.32-.24.9-.26c.31,0,.69.18,1.09.21s.71-.12,1.09-.07.76.07,1.1.13.76.21,1.06.28C200.84,12.92,201.11,13.09,201.09,13.2Z"/><path class="cls-2" d="M205,13.82c0,.13-.54.23-1,.12s-.86-.36-.83-.5.44-.16.94-.06S205,13.68,205,13.82Z"/><path class="cls-2" d="M17.1,12.63h0c.8,0,1.58-.18,2.39-.18a11.37,11.37,0,0,1,1.22.05l1.22.06c1.22,0,1.22-.08,2.44,0,.43,0,.85.1,1.26.17l.59.11a2.72,2.72,0,0,0,.56.09,1.2,1.2,0,0,0,.2,0l.25-.05.12-.05c.19-.16-.26-.39-.47-.47a4,4,0,0,0-.85-.08l-1.63-.12c-1.23-.06-1.22-.2-2.45-.24a9.74,9.74,0,0,0-1.23,0,11,11,0,0,1-1.23.06H18.31c-.31,0-.62,0-1.23,0a.58.58,0,0,0-.52.39v.05c0,.08.36.13.48.16Z"/><path class="cls-2" d="M8.32,13.2c0,.12.34.06.93,0,.31,0,.66,0,1.07,0s.7-.09,1.07-.14l1.06-.15c.4-.06.77,0,1.07-.08.57-.11.87-.23.87-.35s-.32-.24-.9-.26c-.31,0-.69.18-1.09.21s-.71-.12-1.09-.07-.76.07-1.1.13-.76.21-1.06.28C8.58,12.92,8.3,13.09,8.32,13.2Z"/><path class="cls-2" d="M4.4,13.82c0,.13.54.23,1,.12s.86-.36.84-.5-.45-.16-1-.06S4.37,13.68,4.4,13.82Z"/><path class="cls-2" d="M201.68,15.47h0c-.23-.05-.45-.13-.67-.2a4.37,4.37,0,0,0-.68-.2c-.71-.12-.72,0-1.42-.12s-.7-.2-1.42-.24a3.7,3.7,0,0,0-.74.06l-.35.05a.91.91,0,0,1-.33,0l-.12,0-.13-.07a.22.22,0,0,1-.07-.06c-.11-.17.16-.37.29-.43s.35,0,.51,0l1,0c.73,0,.74-.09,1.47,0s.71.22,1.43.34c.36.05.54.1.72.13a7.2,7.2,0,0,1,.71.15c.18,0,.23.29.22.43v0c0,.08-.23.09-.31.12Z"/><path class="cls-2" d="M206.63,16.89c0,.1-.22,0-.55-.07s-.4-.06-.62-.14l-.59-.24c-.2-.08-.38-.18-.57-.25s-.44-.1-.6-.19-.45-.3-.41-.41.24-.21.59-.17c.18,0,.36.25.59.31s.45,0,.66,0a4.84,4.84,0,0,1,.61.24,4.36,4.36,0,0,1,.55.38C206.57,16.6,206.68,16.78,206.63,16.89Z"/><path class="cls-2" d="M208.63,18.05a.25.25,0,0,1-.11,0,.31.31,0,0,0-.13,0,.82.82,0,0,1-.32-.09c-.26-.15-.37-.43-.31-.55s.33-.1.6.05a.79.79,0,0,1,.35.37.34.34,0,0,1,0,.22C208.7,18,208.66,18.06,208.63,18.05Z"/><path class="cls-2" d="M7.73,15.47h0c.23-.05.45-.13.67-.2a4.37,4.37,0,0,1,.68-.2c.71-.12.72,0,1.42-.12s.7-.2,1.42-.24a3.64,3.64,0,0,1,.74.06l.35.05a.91.91,0,0,0,.33,0l.12,0,.14-.07.06-.06c.11-.17-.16-.37-.29-.43s-.35,0-.5,0l-1,0c-.73,0-.74-.09-1.47,0s-.71.22-1.43.34c-.36.05-.54.1-.72.13a7.2,7.2,0,0,0-.71.15c-.17,0-.23.29-.22.43v0c0,.08.23.09.31.12Z"/><path class="cls-2" d="M2.78,16.89c.05.1.22,0,.56-.07.17-.05.39-.06.61-.14l.59-.24c.2-.08.38-.18.57-.25s.44-.1.6-.19.45-.3.41-.41-.24-.21-.59-.17c-.18,0-.36.25-.59.31s-.44,0-.66,0a4.84,4.84,0,0,0-.61.24,4.36,4.36,0,0,0-.55.38C2.84,16.6,2.73,16.78,2.78,16.89Z"/><path class="cls-2" d="M.78,18.05A.34.34,0,0,0,.9,18,.27.27,0,0,1,1,18a.82.82,0,0,0,.32-.09c.26-.15.37-.43.31-.55s-.33-.1-.59.05a.76.76,0,0,0-.36.37.34.34,0,0,0,0,.22C.71,18,.75,18.06.78,18.05Z"/><path class="cls-2" d="M200.84,17.54h0c-.42-.11-.8-.34-1.23-.44a3.78,3.78,0,0,0-.66-.09c-.17,0-.33,0-.66-.08-.65-.12-.63-.24-1.29-.33h-.35a1.77,1.77,0,0,0-.33,0l-.26.07c-.07,0-.13.08-.17.09l-.06,0h-.09a.16.16,0,0,1-.07,0,.22.22,0,0,1-.2-.17.44.44,0,0,1,.1-.32.39.39,0,0,1,.27-.13c.11,0,.2,0,.28,0a2.58,2.58,0,0,1,.49,0l.44.05c.67.09.69-.05,1.36.06a2.93,2.93,0,0,1,.65.19,3,3,0,0,0,.65.2c.33.08.5.11.66.16s.33.07.66.16c.16.05.19.3.18.44l0,0c0,.08-.22.09-.29.11Z"/><path class="cls-2" d="M205.43,18.92c-.05.1-.21,0-.52-.05a5.48,5.48,0,0,1-.58-.12c-.18-.06-.35-.16-.54-.23s-.36-.18-.53-.25a4,4,0,0,1-.55-.18c-.28-.15-.41-.29-.37-.41s.24-.2.56-.16c.17,0,.32.24.53.3s.42,0,.62,0a6.14,6.14,0,0,1,.57.23,3.39,3.39,0,0,1,.5.36C205.38,18.64,205.48,18.81,205.43,18.92Z"/><path class="cls-2" d="M207.4,19.81c-.07.12-.39.16-.63,0s-.35-.4-.28-.53.31-.11.55,0S207.47,19.69,207.4,19.81Z"/><path class="cls-2" d="M8.57,17.54h0c.42-.11.8-.34,1.23-.44a3.78,3.78,0,0,1,.66-.09c.17,0,.33,0,.66-.08.65-.12.63-.24,1.29-.33h.35a1.77,1.77,0,0,1,.33,0,1.63,1.63,0,0,1,.26.07c.07,0,.13.08.17.09l.06,0h.09a.16.16,0,0,0,.07,0,.22.22,0,0,0,.2-.17.44.44,0,0,0-.1-.32.39.39,0,0,0-.27-.13c-.1,0-.2,0-.28,0a2.58,2.58,0,0,0-.49,0l-.44.05c-.67.09-.69-.05-1.36.06a3.11,3.11,0,0,0-.65.19,3,3,0,0,1-.65.2c-.33.08-.5.11-.66.16s-.33.07-.65.16c-.16.05-.2.3-.19.44l0,0c0,.08.22.09.29.11Z"/><path class="cls-2" d="M4,18.92c.05.1.21,0,.52-.05a5.48,5.48,0,0,0,.58-.12c.18-.06.35-.16.54-.23s.36-.18.53-.25a4,4,0,0,0,.55-.18c.28-.15.41-.29.37-.41s-.24-.2-.56-.16c-.17,0-.32.24-.53.3s-.42,0-.62,0a6.14,6.14,0,0,0-.57.23,2.83,2.83,0,0,0-.49.36C4,18.64,3.93,18.81,4,18.92Z"/><path class="cls-2" d="M2,19.81c.07.12.39.16.63,0s.35-.4.28-.53-.31-.11-.55,0S1.94,19.69,2,19.81Z"/><path class="cls-2" d="M200.71,20.42h0c-.45-.09-.87-.32-1.33-.4a5,5,0,0,0-.7-.07,5.85,5.85,0,0,1-.71-.05c-.7-.08-.68-.21-1.39-.27a3.54,3.54,0,0,0-.73,0l-.35,0a.93.93,0,0,1-.33,0l-.11,0-.14-.08a.12.12,0,0,1-.06-.06c-.11-.17.17-.36.3-.42s.34,0,.5,0l1,.05c.72.06.73-.07,1.45,0a3.34,3.34,0,0,1,.7.16,4,4,0,0,0,.7.18l.71.13c.17,0,.35.06.7.14.17,0,.23.29.22.43v.05c0,.08-.23.09-.31.12Z"/><path class="cls-2" d="M205.64,21.7c0,.11-.22,0-.56,0a6.18,6.18,0,0,1-.61-.11c-.19-.06-.38-.15-.59-.22l-.57-.24c-.21-.09-.44-.09-.59-.17-.31-.15-.45-.29-.42-.4s.24-.21.58-.18c.18,0,.36.23.58.29s.45-.05.66,0,.43.13.61.21a4.38,4.38,0,0,1,.55.36C205.57,21.42,205.68,21.6,205.64,21.7Z"/><path class="cls-2" d="M207.77,22.59c-.07.12-.4.17-.67,0s-.39-.4-.33-.53.33-.11.59,0S207.83,22.47,207.77,22.59Z"/><path class="cls-2" d="M8.7,20.42h0c.45-.09.87-.32,1.33-.4a5,5,0,0,1,.7-.07,5.85,5.85,0,0,0,.71-.05c.7-.08.69-.21,1.39-.27a3.54,3.54,0,0,1,.73,0l.35,0a.93.93,0,0,0,.33,0l.11,0,.14-.08a.12.12,0,0,0,.06-.06c.11-.17-.17-.36-.3-.42s-.34,0-.5,0l-.95.05c-.71.06-.73-.07-1.45,0a3.34,3.34,0,0,0-.7.16,3.77,3.77,0,0,1-.7.18l-.71.13c-.17,0-.35.06-.7.14-.17,0-.23.29-.22.43v.05c0,.08.23.09.31.12Z"/><path class="cls-2" d="M3.77,21.7c0,.11.22,0,.56,0a6.18,6.18,0,0,0,.61-.11c.19-.06.38-.15.59-.22l.57-.24c.21-.09.44-.09.6-.17s.45-.29.41-.4-.24-.21-.58-.18c-.18,0-.36.23-.58.29s-.45-.05-.66,0-.43.13-.61.21a4.38,4.38,0,0,0-.55.36C3.84,21.42,3.73,21.6,3.77,21.7Z"/><path class="cls-2" d="M1.64,22.59c.07.12.41.17.67,0s.39-.4.33-.53-.32-.11-.59,0S1.58,22.47,1.64,22.59Z"/><path class="cls-2" d="M200.05,22.48h0c-.25-.06-.48-.15-.72-.23a3.53,3.53,0,0,0-.72-.22c-.75-.15-.77-.07-1.52-.19s-.74-.24-1.5-.33a4.17,4.17,0,0,0-.79,0l-.38,0a1.45,1.45,0,0,1-.36,0l-.12-.05-.14-.09a.11.11,0,0,1-.07-.06c-.1-.18.2-.35.35-.4s.37,0,.53,0l1,.09c.77.09.79,0,1.56.07s.74.25,1.51.41l.76.15c.19.05.38.08.75.18.19.05.25.3.24.44l0,.05c0,.07-.24.08-.33.1Z"/><path class="cls-2" d="M205.37,24c-.05.11-.24,0-.6-.06-.19-.05-.42-.06-.66-.14l-.63-.24-.62-.27c-.23-.09-.47-.11-.64-.19-.33-.16-.49-.31-.45-.42s.25-.21.62-.16c.2,0,.38.25.63.32s.48,0,.7.05.46.14.66.24a4.32,4.32,0,0,1,.59.38C205.29,23.68,205.41,23.86,205.37,24Z"/><path class="cls-2" d="M207.43,25.14s0-.08,0-.11a.07.07,0,0,0-.05,0h-.06s-.09,0-.11,0A1,1,0,0,1,207,25c-.28-.14-.43-.42-.37-.55s.34-.1.63.05l.2.11a.62.62,0,0,1,.21.27.78.78,0,0,1,0,.16.27.27,0,0,1-.08.16C207.48,25.21,207.44,25.17,207.43,25.14Z"/><path class="cls-2" d="M9.36,22.48h0c.25-.06.48-.15.72-.23a3.53,3.53,0,0,1,.72-.22c.75-.15.77-.07,1.52-.19s.74-.24,1.5-.33a4.17,4.17,0,0,1,.79,0l.38,0a1.45,1.45,0,0,0,.36,0l.12-.05.14-.09a.11.11,0,0,0,.07-.06c.11-.18-.2-.35-.35-.4s-.37,0-.53,0l-1,.09c-.77.09-.78,0-1.56.07s-.74.25-1.5.41l-.76.15c-.19.05-.39.08-.76.18-.19.05-.25.3-.23.44v.05c0,.07.24.08.33.1Z"/><path class="cls-2" d="M4,24c0,.11.24,0,.6-.06.19-.05.42-.06.66-.14l.63-.24.62-.27c.23-.09.47-.11.64-.19.33-.16.49-.31.45-.42s-.25-.21-.62-.16c-.2,0-.38.25-.63.32s-.47,0-.7.05S5.23,23,5,23.1a4.32,4.32,0,0,0-.59.38C4.12,23.68,4,23.86,4,24Z"/><path class="cls-2" d="M2,25.14s0-.08,0-.11a.07.07,0,0,1,.05,0h.06s.09,0,.11,0A1,1,0,0,0,2.45,25c.28-.14.43-.42.37-.55s-.34-.1-.63.05l-.2.11a.62.62,0,0,0-.21.27.78.78,0,0,0,0,.16.27.27,0,0,0,.08.16C1.93,25.21,2,25.17,2,25.14Z"/><path class="cls-2" d="M200.65,25.45h0c-.43-.08-.83-.3-1.27-.38-.67-.13-.68,0-1.35-.16s-.65-.24-1.32-.33a3.28,3.28,0,0,0-.7,0l-.34,0a.86.86,0,0,1-.32,0l-.1,0-.12-.1-.06-.06c-.08-.18.2-.35.33-.39s.33,0,.47.06l.9.12c.68.1.7,0,1.37.08s.66.24,1.33.37.67.12,1.34.26c.16,0,.22.28.21.42v.05c0,.08-.22.1-.3.12Z"/><path class="cls-2" d="M205.45,26.39c0,.11-.21.05-.54,0-.17,0-.38,0-.6-.05s-.37-.11-.58-.17l-.56-.19c-.21-.07-.42-.06-.58-.13s-.44-.27-.41-.38.22-.22.55-.21c.17,0,.35.21.57.25s.42-.08.62,0,.42.09.6.15a4.35,4.35,0,0,1,.54.3C205.36,26.11,205.48,26.28,205.45,26.39Z"/><path class="cls-2" d="M207.57,27c0,.13-.36.23-.62.14s-.42-.35-.38-.48.29-.16.56-.06S207.62,26.83,207.57,27Z"/><path class="cls-2" d="M8.76,25.45h0c.43-.08.83-.3,1.27-.38.67-.13.68,0,1.35-.16s.65-.24,1.32-.33a3.28,3.28,0,0,1,.7,0l.34,0a.86.86,0,0,0,.32,0l.1,0,.12-.1s0,0,.06-.06c.08-.18-.2-.35-.33-.39s-.33,0-.47.06l-.9.12c-.68.1-.7,0-1.37.08s-.65.24-1.33.37l-1.34.26c-.16,0-.21.28-.21.42v.05c0,.08.22.1.3.12Z"/><path class="cls-2" d="M4,26.39c0,.11.21.05.54,0,.17,0,.38,0,.6-.05s.37-.11.58-.17L6.24,26c.21-.07.42-.06.58-.13s.44-.27.41-.38-.22-.22-.55-.21c-.17,0-.35.21-.57.25s-.42-.08-.62,0-.42.09-.6.15a4.35,4.35,0,0,0-.54.3C4.05,26.11,3.93,26.28,4,26.39Z"/><path class="cls-2" d="M1.84,27c0,.13.36.23.62.14s.43-.35.38-.48-.29-.16-.56-.06S1.79,26.83,1.84,27Z"/><path class="cls-2" d="M199.52,27.52h0c-.41-.07-.79-.27-1.21-.33-.63-.09-.64,0-1.28-.08s-.62-.19-1.26-.24a1.88,1.88,0,0,0-.63.08,1.69,1.69,0,0,0-.27.1.78.78,0,0,1-.24.09h-.09l-.13,0a.11.11,0,0,1-.07,0,.21.21,0,0,1-.07-.25.55.55,0,0,1,.14-.25c.12-.11.34-.09.48-.11a5.56,5.56,0,0,1,.91,0c.65.05.66-.09,1.31,0s.63.2,1.27.3.64.08,1.28.2c.16,0,.21.28.21.42v.05c0,.07-.21.1-.28.13Z"/><path class="cls-2" d="M204.05,28.4c0,.11-.2.06-.51,0a4.26,4.26,0,0,1-.57-.05l-.54-.17c-.19-.05-.36-.13-.53-.18s-.4-.06-.55-.12-.41-.26-.39-.37.22-.23.53-.22.33.2.54.24.4-.09.6,0,.39.09.56.16a3.83,3.83,0,0,1,.51.3C204,28.13,204.09,28.29,204.05,28.4Z"/><path class="cls-2" d="M206,29c-.06.13-.36.21-.61.12s-.38-.35-.33-.49.29-.14.54,0S206.09,28.89,206,29Z"/><path class="cls-2" d="M9.89,27.52h0c.41-.07.79-.27,1.21-.33.63-.09.65,0,1.28-.08s.62-.19,1.26-.24a1.88,1.88,0,0,1,.63.08,1.69,1.69,0,0,1,.27.1.78.78,0,0,0,.24.09h.09l.13,0a.11.11,0,0,0,.07,0,.21.21,0,0,0,.07-.25.55.55,0,0,0-.14-.25c-.12-.11-.34-.09-.48-.11a5.46,5.46,0,0,0-.9,0c-.66.05-.66-.09-1.31,0s-.64.2-1.28.3-.64.08-1.28.2c-.16,0-.21.28-.21.42v.05c0,.07.21.1.28.13Z"/><path class="cls-2" d="M5.36,28.4c0,.11.2.06.51,0a4.26,4.26,0,0,0,.57-.05L7,28.19c.19-.05.36-.13.53-.18s.4-.06.55-.12.41-.26.39-.37-.22-.23-.53-.22c-.16,0-.33.2-.54.24s-.4-.09-.59,0-.4.09-.57.16a4.59,4.59,0,0,0-.51.3C5.44,28.13,5.33,28.29,5.36,28.4Z"/><path class="cls-2" d="M3.37,29c.06.13.36.21.61.12s.38-.35.33-.49-.29-.14-.54,0S3.32,28.89,3.37,29Z"/><path class="cls-2" d="M199.45,30.81h0c-.45-.13-.87-.38-1.33-.49-.71-.17-.72-.09-1.43-.22s-.69-.24-1.41-.31a3.14,3.14,0,0,0-.75,0l-.35,0a1.27,1.27,0,0,1-.33,0,.43.43,0,0,1-.12-.05l-.14-.08a.13.13,0,0,1-.07-.06c-.11-.17.17-.36.31-.42a1.46,1.46,0,0,1,.51,0c.32,0,.65,0,1,.07.73.07.75-.05,1.49.06s.7.26,1.42.43.72.17,1.42.37c.18.06.22.31.2.45v0c-.05.07-.24.07-.32.09Z"/><path class="cls-2" d="M204.46,32.35c-.05.1-.23,0-.57-.05a4.85,4.85,0,0,1-.64-.13c-.19-.07-.38-.16-.59-.25s-.4-.18-.58-.26-.45-.12-.61-.21-.44-.31-.4-.42.25-.21.6-.15c.18,0,.35.26.58.33s.45,0,.67.05.43.15.61.24a4.74,4.74,0,0,1,.55.37C204.38,32.06,204.5,32.24,204.46,32.35Z"/><path class="cls-2" d="M206.17,33.5a.47.47,0,0,1,0-.12.21.21,0,0,0-.06-.1.17.17,0,0,0-.07,0s0,0-.09,0a1,1,0,0,1-.26-.25.28.28,0,0,1-.06-.26c0-.06.1-.1.21-.1a.88.88,0,0,1,.42.13.62.62,0,0,1,.24.28.46.46,0,0,1,0,.35.31.31,0,0,1-.2.17C206.22,33.56,206.18,33.53,206.17,33.5Z"/><path class="cls-2" d="M10,30.81h0c.45-.13.87-.38,1.33-.49.71-.17.72-.09,1.43-.22s.69-.24,1.41-.31a3.14,3.14,0,0,1,.75,0l.35,0a1.31,1.31,0,0,0,.34,0l.11-.05.14-.08a.13.13,0,0,0,.07-.06c.11-.17-.17-.36-.31-.42a1.46,1.46,0,0,0-.51,0c-.32,0-.65,0-1,.07-.73.07-.75-.05-1.49.06s-.7.26-1.42.43-.72.17-1.42.37c-.18.06-.22.31-.2.45v0c.05.07.24.07.33.09Z"/><path class="cls-2" d="M5,32.35c0,.1.22,0,.56-.05a4.54,4.54,0,0,0,.64-.13c.19-.07.38-.16.59-.25s.4-.18.58-.26.45-.12.61-.21.44-.31.41-.42-.26-.21-.61-.15c-.18,0-.35.26-.58.33s-.45,0-.67.05-.43.15-.61.24a4.74,4.74,0,0,0-.55.37C5,32.06,4.91,32.24,5,32.35Z"/><path class="cls-2" d="M3.24,33.5a.47.47,0,0,0,0-.12.21.21,0,0,1,.06-.1.17.17,0,0,1,.07,0s0,0,.09,0A1,1,0,0,0,3.72,33a.28.28,0,0,0,.06-.26c0-.06-.1-.1-.21-.1a.88.88,0,0,0-.42.13.62.62,0,0,0-.24.28.41.41,0,0,0,0,.35.28.28,0,0,0,.19.17C3.19,33.56,3.23,33.53,3.24,33.5Z"/><path class="cls-2" d="M178,21.89a1.15,1.15,0,0,0,.1-.24c.06-.2.12-.47.16-.61.1-.36.2-.72.29-1.08.17-.59.35-1.16.47-1.77.08-.39.18-.78.28-1.17l.09-.47.21-.88,0-.11c.16-.9.16-.9.31-1.81.12-.72.19-1.44.25-2.16l.09-1.05c0-.29.08-.63.09-.92a16.53,16.53,0,0,1,.18-1.71,8.14,8.14,0,0,0,.08-.85,3.2,3.2,0,0,0,0-.44.31.31,0,0,0-.12-.24c-.07,0-.18,0-.21,0l0,0,0,0h0v0h0s.06,0,.06,0v.1l0,.11c-.14.67-.16,1.4-.24,2.08l0,.26a14.49,14.49,0,0,1-.35,2.35.25.25,0,0,0,0,.08c-.15,1-.35,2-.54,3l-.15.92c-.12.75-.19,1.51-.29,2.26s-.3,1.5-.43,2.26c-.06.34-.12.69-.19,1C177.92,21.19,177.76,22.15,178,21.89Z"/><path class="cls-2" d="M31.46,21.89a.77.77,0,0,1-.11-.24c-.06-.2-.12-.47-.16-.61-.1-.36-.19-.72-.29-1.08-.17-.59-.34-1.16-.47-1.77-.08-.39-.18-.78-.28-1.17l-.09-.47-.21-.88,0-.11c-.16-.9-.16-.9-.31-1.81-.11-.72-.19-1.44-.25-2.16l-.09-1.05c0-.29-.08-.63-.09-.92a16.53,16.53,0,0,0-.18-1.71c0-.28-.06-.57-.08-.85s0-.28,0-.44a.31.31,0,0,1,.12-.24.17.17,0,0,1,.22,0l0,0,0,0h0l0,0h0s-.07,0-.07,0v.1l0,.11c.14.67.16,1.4.25,2.08l0,.26a14.49,14.49,0,0,0,.35,2.35.25.25,0,0,1,0,.08c.15,1,.35,2,.54,3l.15.92c.12.75.19,1.51.3,2.26s.29,1.5.42,2.26c.06.34.12.69.19,1C31.49,21.19,31.65,22.15,31.46,21.89Z"/><path class="cls-2" d="M205.32,35a.33.33,0,0,0,0-.26.79.79,0,0,0-.18-.28,1.63,1.63,0,0,0-.67-.37l-.6-.22c-.77-.27-1.54-.51-2.33-.72a31.22,31.22,0,0,0-3.89-.82l-2.6-.36-1-.11-1.95-.22-.24,0-2-.15c-.5,0-1-.06-2-.05a42.41,42.41,0,0,0-4.71.5c-.75.1-1.5.16-2.27.2s-1.37,0-2,.06c-1.23.06-2.5.09-3.75.21a18.25,18.25,0,0,0-3.65.68c-.12.11-.11.18.07.21s1.12-.13,1.3-.15c1.45-.17,3-.4,4.49-.45l.57,0c1.72-.1,3.45,0,5.22-.13l.17,0c1.12-.11,2.22-.25,3.32-.33a24,24,0,0,1,3.28,0l2,.14c1.66.13,3.3.2,4.94.36a40.47,40.47,0,0,1,4.9.85c.75.17,1.49.37,2.22.61l.47.15a1.31,1.31,0,0,1,.33.12,1.34,1.34,0,0,1,.28.18.56.56,0,0,1,.18.21.42.42,0,0,1,0,.18C205.21,35.09,205.23,35.13,205.32,35Z"/><path class="cls-2" d="M4.09,35a.33.33,0,0,1,0-.26.79.79,0,0,1,.18-.28,1.63,1.63,0,0,1,.67-.37l.6-.22c.77-.27,1.54-.51,2.33-.72a31.22,31.22,0,0,1,3.89-.82l2.6-.36,1-.11,2-.22.24,0,2-.15c.5,0,1-.06,2-.05a42.41,42.41,0,0,1,4.71.5c.75.1,1.5.16,2.27.2s1.38,0,2,.06c1.22.06,2.49.09,3.74.21a18.25,18.25,0,0,1,3.65.68c.13.11.11.18-.07.21s-1.12-.13-1.3-.15c-1.45-.17-3-.4-4.49-.45l-.57,0c-1.72-.1-3.45,0-5.22-.13l-.17,0c-1.12-.11-2.22-.25-3.32-.33a24,24,0,0,0-3.28,0l-2,.14c-1.66.13-3.3.2-4.94.36a40.47,40.47,0,0,0-4.9.85c-.75.17-1.48.37-2.21.61L5,34.31a1.12,1.12,0,0,0-.32.12,1.19,1.19,0,0,0-.29.18.67.67,0,0,0-.18.21.42.42,0,0,0,0,.18C4.2,35.09,4.18,35.13,4.09,35Z"/><text class="cls-3" transform="translate(70.41 16.31)">Healing Field</text></g></g></svg>